G04 (created by PCBNEW (2013-07-07 BZR 4022)-stable) date 12/19/2014 12:15:36 PM*
%MOIN*%
G04 Gerber Fmt 3.4, Leading zero omitted, Abs format*
%FSLAX34Y34*%
G01*
G70*
G90*
G04 APERTURE LIST*
%ADD10C,0.00590551*%
%ADD11C,0.19685*%
%ADD12R,0.06X0.06*%
%ADD13C,0.06*%
%ADD14C,0.066*%
%ADD15C,0.0590551*%
%ADD16R,0.055X0.055*%
%ADD17C,0.055*%
%ADD18R,0.07X0.07*%
%ADD19C,0.07*%
%ADD20C,0.16*%
%ADD21C,0.035*%
%ADD22C,0.015748*%
%ADD23C,0.023622*%
%ADD24C,0.01*%
G04 APERTURE END LIST*
G54D10*
G54D11*
X37795Y-37795D03*
X1574Y-37795D03*
X37795Y-1574D03*
X1574Y-1574D03*
G54D12*
X8098Y-666D03*
G54D13*
X8098Y-1666D03*
G54D12*
X9098Y-666D03*
G54D13*
X9098Y-1666D03*
G54D14*
X14118Y-3186D03*
X14118Y-2186D03*
X12338Y-3186D03*
X12338Y-2186D03*
X10578Y-3186D03*
X10578Y-2186D03*
G54D15*
X28274Y-11686D03*
X30243Y-11686D03*
X37643Y-10486D03*
X35674Y-10486D03*
G54D12*
X6433Y-34433D03*
G54D13*
X5433Y-34433D03*
X4433Y-34433D03*
G54D12*
X6820Y-15141D03*
G54D13*
X6820Y-16141D03*
X6820Y-17141D03*
G54D12*
X6433Y-35433D03*
G54D13*
X5433Y-35433D03*
X4433Y-35433D03*
G54D12*
X9822Y-21759D03*
G54D13*
X9822Y-20759D03*
G54D12*
X20638Y-12966D03*
G54D13*
X21638Y-12966D03*
G54D16*
X17238Y-32766D03*
G54D17*
X14238Y-32766D03*
G54D16*
X30238Y-28366D03*
G54D17*
X33238Y-28366D03*
G54D16*
X23838Y-37366D03*
G54D17*
X20838Y-37366D03*
G54D16*
X34058Y-11586D03*
G54D17*
X34058Y-8586D03*
G54D16*
X19998Y-2966D03*
G54D17*
X16998Y-2966D03*
G54D16*
X31458Y-10986D03*
G54D17*
X31458Y-7986D03*
G54D16*
X19998Y-4166D03*
G54D17*
X16998Y-4166D03*
G54D18*
X30258Y-16686D03*
G54D19*
X28258Y-16686D03*
G54D18*
X37058Y-15686D03*
G54D19*
X35058Y-15686D03*
G54D18*
X22898Y-2566D03*
G54D19*
X22898Y-4566D03*
G54D20*
X19898Y-1166D03*
X16898Y-1166D03*
X35551Y-37795D03*
X32322Y-37795D03*
X29094Y-37795D03*
G54D15*
X23537Y-28371D03*
X24875Y-28371D03*
X26214Y-28371D03*
X24206Y-29946D03*
X25545Y-29946D03*
X19938Y-34566D03*
X17938Y-34566D03*
X21938Y-34566D03*
X15938Y-34566D03*
X30538Y-30366D03*
X32538Y-30366D03*
X28538Y-30366D03*
X34538Y-30366D03*
X25138Y-35566D03*
X27138Y-35566D03*
X23138Y-35566D03*
X29138Y-35566D03*
G54D12*
X4929Y-21964D03*
G54D13*
X3929Y-21964D03*
X4929Y-20964D03*
X3929Y-20964D03*
X4929Y-19964D03*
X3929Y-19964D03*
X4929Y-18964D03*
X3929Y-18964D03*
X4929Y-17964D03*
X3929Y-17964D03*
X4929Y-16964D03*
X3929Y-16964D03*
X4929Y-15964D03*
X3929Y-15964D03*
X4929Y-14964D03*
X3929Y-14964D03*
X4929Y-13964D03*
X3929Y-13964D03*
X4929Y-12964D03*
X3929Y-12964D03*
X4929Y-11964D03*
X3929Y-11964D03*
X4929Y-10964D03*
X3929Y-10964D03*
X4929Y-9964D03*
X3929Y-9964D03*
G54D21*
X33120Y-36013D03*
X22342Y-9950D03*
X18720Y-8799D03*
X18385Y-20295D03*
X4409Y-4448D03*
X6515Y-3631D03*
X7883Y-24950D03*
X4498Y-25698D03*
X9724Y-8661D03*
X10000Y-4468D03*
X16594Y-23366D03*
X12440Y-6368D03*
X13641Y-6456D03*
X17913Y-22598D03*
X11377Y-17322D03*
X9350Y-18051D03*
X8366Y-21200D03*
X11633Y-17952D03*
X6417Y-13582D03*
X8996Y-5629D03*
X11200Y-19724D03*
X6437Y-31318D03*
X11633Y-19448D03*
X10196Y-28602D03*
X5472Y-24468D03*
X8710Y-23858D03*
X5452Y-7913D03*
X7224Y-13228D03*
X5944Y-13661D03*
X8976Y-5157D03*
X13366Y-10708D03*
X13897Y-11200D03*
X30157Y-34409D03*
X29222Y-28887D03*
X20334Y-19724D03*
X30895Y-24940D03*
X18740Y-16889D03*
X11377Y-12598D03*
X6919Y-3356D03*
X7185Y-20944D03*
X14389Y-15029D03*
X12618Y-8444D03*
X21466Y-14822D03*
X7864Y-7214D03*
X5807Y-7204D03*
X4793Y-6948D03*
X9330Y-15905D03*
X9360Y-10029D03*
X8562Y-4045D03*
G54D22*
X23120Y-10462D02*
X25492Y-12834D01*
X25492Y-22125D02*
X27460Y-24094D01*
X25492Y-20944D02*
X25492Y-22125D01*
X25492Y-12834D02*
X25492Y-20944D01*
X22342Y-9950D02*
X22608Y-9950D01*
X22608Y-9950D02*
X23120Y-10462D01*
X27460Y-24094D02*
X27460Y-32814D01*
X27460Y-32814D02*
X29192Y-34547D01*
X29192Y-34547D02*
X29370Y-34547D01*
X29370Y-34547D02*
X30157Y-35334D01*
X30157Y-35334D02*
X30157Y-35649D01*
X30157Y-35649D02*
X30807Y-36299D01*
X30807Y-36299D02*
X32834Y-36299D01*
X32834Y-36299D02*
X33120Y-36013D01*
X23090Y-12165D02*
X23641Y-12716D01*
X19862Y-18818D02*
X18385Y-20295D01*
X20984Y-18818D02*
X19862Y-18818D01*
X23641Y-16161D02*
X20984Y-18818D01*
X23641Y-12716D02*
X23641Y-16161D01*
X18720Y-9429D02*
X18720Y-8799D01*
X20374Y-11082D02*
X18720Y-9429D01*
X22007Y-11082D02*
X20374Y-11082D01*
X23090Y-12165D02*
X22007Y-11082D01*
X6515Y-3631D02*
X6525Y-3631D01*
X16749Y-3917D02*
X16998Y-4166D01*
X10216Y-3917D02*
X16749Y-3917D01*
X9803Y-3503D02*
X10216Y-3917D01*
X7952Y-3503D02*
X9803Y-3503D01*
X7500Y-3956D02*
X7952Y-3503D01*
X6850Y-3956D02*
X7500Y-3956D01*
X6525Y-3631D02*
X6850Y-3956D01*
X4409Y-4448D02*
X4625Y-4448D01*
X5442Y-3631D02*
X6515Y-3631D01*
X4625Y-4448D02*
X5442Y-3631D01*
G54D23*
X17381Y-20629D02*
X17381Y-19389D01*
X22874Y-15649D02*
X22874Y-12814D01*
X20688Y-17834D02*
X22874Y-15649D01*
X18937Y-17834D02*
X20688Y-17834D01*
X17381Y-19389D02*
X18937Y-17834D01*
X22874Y-12814D02*
X22559Y-12500D01*
G54D22*
X22559Y-12500D02*
X22874Y-12814D01*
G54D23*
X4498Y-30649D02*
X4498Y-31289D01*
X18287Y-21535D02*
X17381Y-20629D01*
X18543Y-21535D02*
X18287Y-21535D01*
X19015Y-22007D02*
X18543Y-21535D01*
X19015Y-24271D02*
X19015Y-22007D01*
X11102Y-32185D02*
X19015Y-24271D01*
X4498Y-25698D02*
X4498Y-30649D01*
X4498Y-31289D02*
X6200Y-32992D01*
X6200Y-32992D02*
X10295Y-32992D01*
X10295Y-32992D02*
X11102Y-32185D01*
X3929Y-13964D02*
X3771Y-13964D01*
X2657Y-23858D02*
X4498Y-25698D01*
X2657Y-15078D02*
X2657Y-23858D01*
X3771Y-13964D02*
X2657Y-15078D01*
X4498Y-25698D02*
X6624Y-25698D01*
X6624Y-25698D02*
X7372Y-24950D01*
X7372Y-24950D02*
X7883Y-24950D01*
X22559Y-12500D02*
X22559Y-12480D01*
X22559Y-12480D02*
X22125Y-12047D01*
X22125Y-12047D02*
X19586Y-12047D01*
X19586Y-12047D02*
X17893Y-10354D01*
X17893Y-10354D02*
X17893Y-7559D01*
X17893Y-7559D02*
X19998Y-5453D01*
X19998Y-5453D02*
X19998Y-4166D01*
G54D22*
X9724Y-8661D02*
X9744Y-8661D01*
X10236Y-4704D02*
X10000Y-4468D01*
X10236Y-8169D02*
X10236Y-4704D01*
X9744Y-8661D02*
X10236Y-8169D01*
X12440Y-6368D02*
X12440Y-6594D01*
X13622Y-9015D02*
X14862Y-10255D01*
X13622Y-7775D02*
X13622Y-9015D01*
X12440Y-6594D02*
X13622Y-7775D01*
X15708Y-17027D02*
X15708Y-16889D01*
X15118Y-11751D02*
X14862Y-11751D01*
X16358Y-12992D02*
X15118Y-11751D01*
X16358Y-16240D02*
X16358Y-12992D01*
X15708Y-16889D02*
X16358Y-16240D01*
X15708Y-22913D02*
X15708Y-17027D01*
X14862Y-11751D02*
X14862Y-10255D01*
X16594Y-23366D02*
X16161Y-23366D01*
X16161Y-23366D02*
X15708Y-22913D01*
X15846Y-8661D02*
X15846Y-8877D01*
X13641Y-6456D02*
X15846Y-8661D01*
X16476Y-19271D02*
X16476Y-17637D01*
X16476Y-19271D02*
X16476Y-21496D01*
X16476Y-21496D02*
X17578Y-22598D01*
X17578Y-22598D02*
X17913Y-22598D01*
X16476Y-17637D02*
X17322Y-16791D01*
X17322Y-16791D02*
X17322Y-12696D01*
X17322Y-12696D02*
X15846Y-11220D01*
X15846Y-11220D02*
X15846Y-8877D01*
X11240Y-17460D02*
X11377Y-17322D01*
X9940Y-17460D02*
X11240Y-17460D01*
X9350Y-18051D02*
X9940Y-17460D01*
X9035Y-20531D02*
X8366Y-21200D01*
X9035Y-20177D02*
X9035Y-20531D01*
X9547Y-19665D02*
X9035Y-20177D01*
X9547Y-19074D02*
X9547Y-19665D01*
X10629Y-17992D02*
X9547Y-19074D01*
X11594Y-17992D02*
X10629Y-17992D01*
X11633Y-17952D02*
X11594Y-17992D01*
X6496Y-10098D02*
X7519Y-9074D01*
X6496Y-13503D02*
X6496Y-10098D01*
X6417Y-13582D02*
X6496Y-13503D01*
X8996Y-5629D02*
X8996Y-6889D01*
X8759Y-7834D02*
X7519Y-9074D01*
X8759Y-7125D02*
X8759Y-7834D01*
X8996Y-6889D02*
X8759Y-7125D01*
X11614Y-25236D02*
X9625Y-27224D01*
X11614Y-20137D02*
X11614Y-25236D01*
X11200Y-19724D02*
X11614Y-20137D01*
X6437Y-31318D02*
X6437Y-30413D01*
X6437Y-30413D02*
X9625Y-27224D01*
X12283Y-26515D02*
X10196Y-28602D01*
X12283Y-20098D02*
X12283Y-26515D01*
X11633Y-19448D02*
X12283Y-20098D01*
X5472Y-24468D02*
X5472Y-24389D01*
X6003Y-23858D02*
X8710Y-23858D01*
X5472Y-24389D02*
X6003Y-23858D01*
X7224Y-13228D02*
X7224Y-13326D01*
X5748Y-8208D02*
X5452Y-7913D01*
X5748Y-12775D02*
X5748Y-8208D01*
X5551Y-12972D02*
X5748Y-12775D01*
X5551Y-13877D02*
X5551Y-12972D01*
X5767Y-14094D02*
X5551Y-13877D01*
X6456Y-14094D02*
X5767Y-14094D01*
X7224Y-13326D02*
X6456Y-14094D01*
G54D24*
X6476Y-13976D02*
X6476Y-14035D01*
X7224Y-13228D02*
X6476Y-13976D01*
G54D22*
X6102Y-9763D02*
X7913Y-7952D01*
X6102Y-13110D02*
X6102Y-9763D01*
X5944Y-13267D02*
X6102Y-13110D01*
X5944Y-13661D02*
X5944Y-13267D01*
X8720Y-5157D02*
X8976Y-5157D01*
X7913Y-7952D02*
X8326Y-7539D01*
X8326Y-7539D02*
X8326Y-5551D01*
X8326Y-5551D02*
X8720Y-5157D01*
X10177Y-19940D02*
X10177Y-19212D01*
X12519Y-18346D02*
X13307Y-17559D01*
X11043Y-18346D02*
X12519Y-18346D01*
X10177Y-19212D02*
X11043Y-18346D01*
X10177Y-19940D02*
X10295Y-20059D01*
X10295Y-20059D02*
X10590Y-20354D01*
X6181Y-17874D02*
X6181Y-21003D01*
X6181Y-21003D02*
X7755Y-22578D01*
X7755Y-22578D02*
X10039Y-22578D01*
X4929Y-16964D02*
X5271Y-16964D01*
X5271Y-16964D02*
X6181Y-17874D01*
X10590Y-20354D02*
X10590Y-22027D01*
X10590Y-22027D02*
X10039Y-22578D01*
X13307Y-17559D02*
X15177Y-15688D01*
X15177Y-15688D02*
X15177Y-13366D01*
X15177Y-13366D02*
X13385Y-11574D01*
X13385Y-11574D02*
X13385Y-10728D01*
X13385Y-10728D02*
X13366Y-10708D01*
X11003Y-20137D02*
X10728Y-19862D01*
X13070Y-18877D02*
X14704Y-17244D01*
X11240Y-18877D02*
X13070Y-18877D01*
X10728Y-19389D02*
X11240Y-18877D01*
X10728Y-19862D02*
X10728Y-19389D01*
X11003Y-22421D02*
X10295Y-23129D01*
X11003Y-20137D02*
X11003Y-22421D01*
X5523Y-17964D02*
X5688Y-18129D01*
X4929Y-17964D02*
X5523Y-17964D01*
X7598Y-23129D02*
X10295Y-23129D01*
X5688Y-21220D02*
X7598Y-23129D01*
X5688Y-18129D02*
X5688Y-21220D01*
X14311Y-11614D02*
X13897Y-11200D01*
X14311Y-11850D02*
X14311Y-11614D01*
X14527Y-12066D02*
X14311Y-11850D01*
X14586Y-12066D02*
X14527Y-12066D01*
X15728Y-13208D02*
X14586Y-12066D01*
X15728Y-15787D02*
X15728Y-13208D01*
X15019Y-16496D02*
X15728Y-15787D01*
X15019Y-16929D02*
X15019Y-16496D01*
X14704Y-17244D02*
X15019Y-16929D01*
X30157Y-34409D02*
X30157Y-32283D01*
X30538Y-31902D02*
X30538Y-30366D01*
X30157Y-32283D02*
X30538Y-31902D01*
X30258Y-16686D02*
X30258Y-28346D01*
X30258Y-28346D02*
X30238Y-28366D01*
G54D23*
X29222Y-28887D02*
X29222Y-16230D01*
X34844Y-15472D02*
X35058Y-15686D01*
X29980Y-15472D02*
X34844Y-15472D01*
X29222Y-16230D02*
X29980Y-15472D01*
G54D22*
X22824Y-11190D02*
X24232Y-12598D01*
X21988Y-19724D02*
X20334Y-19724D01*
X24232Y-17480D02*
X21988Y-19724D01*
X24232Y-12598D02*
X24232Y-17480D01*
X31397Y-14153D02*
X28503Y-14153D01*
X28503Y-14153D02*
X25767Y-11417D01*
X21594Y-9960D02*
X22824Y-11190D01*
X21594Y-9665D02*
X21594Y-9960D01*
X22125Y-9133D02*
X21594Y-9665D01*
X23484Y-9133D02*
X22125Y-9133D01*
X25767Y-11417D02*
X23484Y-9133D01*
X30895Y-24940D02*
X31358Y-24940D01*
X37322Y-14153D02*
X31397Y-14153D01*
X38208Y-15039D02*
X37322Y-14153D01*
X38208Y-18090D02*
X38208Y-15039D01*
X31358Y-24940D02*
X38208Y-18090D01*
X3929Y-21964D02*
X3598Y-21964D01*
X3598Y-21964D02*
X3149Y-21515D01*
X3149Y-21515D02*
X3149Y-19153D01*
X3149Y-19153D02*
X3338Y-18964D01*
X3929Y-18964D02*
X3338Y-18964D01*
X3338Y-18964D02*
X3314Y-18964D01*
X3149Y-15964D02*
X3929Y-15964D01*
X3090Y-16023D02*
X3149Y-15964D01*
X3090Y-18740D02*
X3090Y-16023D01*
X3314Y-18964D02*
X3090Y-18740D01*
X6820Y-16141D02*
X6397Y-16141D01*
X6220Y-15964D02*
X4929Y-15964D01*
X6397Y-16141D02*
X6220Y-15964D01*
G54D24*
X22898Y-4566D02*
X22539Y-4566D01*
X21309Y-2577D02*
X19898Y-1166D01*
X21309Y-3336D02*
X21309Y-2577D01*
X22539Y-4566D02*
X21309Y-3336D01*
X7925Y-666D02*
X8098Y-666D01*
X7332Y-1259D02*
X7925Y-666D01*
X7332Y-2942D02*
X7332Y-1259D01*
X6919Y-3356D02*
X7332Y-2942D01*
G54D22*
X21938Y-34566D02*
X21938Y-33257D01*
X24206Y-30990D02*
X24206Y-29946D01*
X21938Y-33257D02*
X24206Y-30990D01*
G54D23*
X12618Y-8444D02*
X12185Y-8444D01*
X20718Y-14074D02*
X21466Y-14822D01*
X20078Y-14074D02*
X20718Y-14074D01*
X16929Y-10925D02*
X20078Y-14074D01*
X16929Y-6476D02*
X16929Y-10925D01*
X15374Y-4921D02*
X16929Y-6476D01*
X11811Y-4921D02*
X15374Y-4921D01*
X11240Y-5492D02*
X11811Y-4921D01*
X11240Y-7500D02*
X11240Y-5492D01*
X12185Y-8444D02*
X11240Y-7500D01*
X9822Y-21759D02*
X8000Y-21759D01*
X8000Y-21759D02*
X7185Y-20944D01*
X9330Y-15905D02*
X8996Y-15905D01*
X7185Y-18385D02*
X7185Y-20944D01*
X7696Y-17874D02*
X7185Y-18385D01*
X7696Y-17204D02*
X7696Y-17874D01*
X8996Y-15905D02*
X7696Y-17204D01*
X9360Y-10029D02*
X10797Y-10029D01*
X10797Y-10029D02*
X11358Y-9468D01*
X11358Y-9468D02*
X11751Y-9468D01*
X11751Y-9468D02*
X12618Y-8602D01*
X12618Y-8602D02*
X12618Y-8444D01*
X8464Y-14488D02*
X8464Y-10688D01*
X9124Y-10029D02*
X9360Y-10029D01*
X8464Y-10688D02*
X9124Y-10029D01*
X9330Y-15905D02*
X9074Y-15905D01*
X8464Y-15295D02*
X8464Y-14488D01*
X9074Y-15905D02*
X8464Y-15295D01*
X9330Y-15905D02*
X13444Y-15905D01*
X14320Y-15029D02*
X14389Y-15029D01*
X13444Y-15905D02*
X14320Y-15029D01*
X4929Y-14964D02*
X5488Y-14964D01*
X5488Y-14964D02*
X5964Y-14488D01*
X5964Y-14488D02*
X8464Y-14488D01*
G54D22*
X8562Y-4045D02*
X8848Y-4045D01*
X11220Y-8444D02*
X12618Y-8444D01*
X10354Y-9311D02*
X11220Y-8444D01*
X9468Y-9311D02*
X10354Y-9311D01*
X9173Y-9015D02*
X9468Y-9311D01*
X9173Y-8110D02*
X9173Y-9015D01*
X9566Y-7716D02*
X9173Y-8110D01*
X9566Y-4763D02*
X9566Y-7716D01*
X8848Y-4045D02*
X9566Y-4763D01*
X5807Y-7204D02*
X5620Y-7391D01*
X5620Y-7391D02*
X5236Y-7391D01*
X5236Y-7391D02*
X4793Y-6948D01*
X7677Y-6496D02*
X7677Y-7027D01*
X7677Y-7027D02*
X7864Y-7214D01*
X8562Y-4045D02*
X8553Y-4045D01*
X5049Y-6692D02*
X4793Y-6948D01*
X7480Y-6692D02*
X5049Y-6692D01*
X7874Y-6299D02*
X7677Y-6496D01*
X7677Y-6496D02*
X7480Y-6692D01*
X7874Y-4724D02*
X7874Y-6299D01*
X8553Y-4045D02*
X7874Y-4724D01*
G54D24*
X5620Y-7391D02*
X5236Y-7391D01*
G54D10*
G36*
X39103Y-38078D02*
X38767Y-38414D01*
X38930Y-38016D01*
X38928Y-37565D01*
X38759Y-37156D01*
X38621Y-37040D01*
X38550Y-37110D01*
X38550Y-36969D01*
X38550Y-2400D01*
X37795Y-1645D01*
X37724Y-1716D01*
X37724Y-1574D01*
X36969Y-819D01*
X36831Y-936D01*
X36660Y-1353D01*
X36661Y-1804D01*
X36831Y-2213D01*
X36969Y-2329D01*
X37724Y-1574D01*
X37724Y-1716D01*
X37040Y-2400D01*
X37156Y-2538D01*
X37574Y-2709D01*
X38025Y-2708D01*
X38433Y-2538D01*
X38550Y-2400D01*
X38550Y-36969D01*
X38534Y-36950D01*
X38534Y-18090D01*
X38534Y-15039D01*
X38509Y-14914D01*
X38438Y-14809D01*
X38438Y-14809D01*
X38093Y-14463D01*
X38093Y-10543D01*
X38081Y-10366D01*
X38037Y-10262D01*
X37970Y-10229D01*
X37900Y-10300D01*
X37900Y-10159D01*
X37867Y-10092D01*
X37699Y-10036D01*
X37523Y-10049D01*
X37418Y-10092D01*
X37386Y-10159D01*
X37643Y-10416D01*
X37900Y-10159D01*
X37900Y-10300D01*
X37713Y-10486D01*
X37970Y-10743D01*
X38037Y-10711D01*
X38093Y-10543D01*
X38093Y-14463D01*
X37900Y-14270D01*
X37900Y-10814D01*
X37643Y-10557D01*
X37572Y-10628D01*
X37572Y-10486D01*
X37315Y-10229D01*
X37248Y-10262D01*
X37192Y-10430D01*
X37205Y-10606D01*
X37248Y-10711D01*
X37315Y-10743D01*
X37572Y-10486D01*
X37572Y-10628D01*
X37386Y-10814D01*
X37418Y-10881D01*
X37586Y-10937D01*
X37763Y-10924D01*
X37867Y-10881D01*
X37900Y-10814D01*
X37900Y-14270D01*
X37553Y-13923D01*
X37447Y-13852D01*
X37322Y-13827D01*
X36216Y-13827D01*
X36216Y-10379D01*
X36134Y-10180D01*
X35982Y-10027D01*
X35782Y-9944D01*
X35567Y-9944D01*
X35367Y-10027D01*
X35215Y-10179D01*
X35132Y-10378D01*
X35132Y-10594D01*
X35214Y-10793D01*
X35367Y-10946D01*
X35566Y-11028D01*
X35782Y-11029D01*
X35981Y-10946D01*
X36133Y-10794D01*
X36216Y-10595D01*
X36216Y-10379D01*
X36216Y-13827D01*
X34580Y-13827D01*
X34580Y-8483D01*
X34501Y-8291D01*
X34354Y-8144D01*
X34163Y-8065D01*
X33955Y-8064D01*
X33763Y-8144D01*
X33616Y-8290D01*
X33537Y-8482D01*
X33536Y-8690D01*
X33616Y-8882D01*
X33762Y-9029D01*
X33954Y-9108D01*
X34162Y-9108D01*
X34354Y-9029D01*
X34501Y-8882D01*
X34580Y-8691D01*
X34580Y-8483D01*
X34580Y-13827D01*
X34580Y-13827D01*
X34580Y-11813D01*
X34580Y-11263D01*
X34543Y-11172D01*
X34473Y-11102D01*
X34383Y-11065D01*
X34285Y-11065D01*
X33735Y-11065D01*
X33644Y-11102D01*
X33574Y-11171D01*
X33537Y-11262D01*
X33537Y-11360D01*
X33537Y-11910D01*
X33574Y-12001D01*
X33643Y-12071D01*
X33734Y-12108D01*
X33832Y-12108D01*
X34382Y-12108D01*
X34473Y-12071D01*
X34543Y-12001D01*
X34580Y-11911D01*
X34580Y-11813D01*
X34580Y-13827D01*
X31980Y-13827D01*
X31980Y-7883D01*
X31901Y-7691D01*
X31754Y-7544D01*
X31563Y-7465D01*
X31355Y-7464D01*
X31163Y-7544D01*
X31016Y-7690D01*
X30937Y-7882D01*
X30936Y-8090D01*
X31016Y-8282D01*
X31162Y-8429D01*
X31354Y-8508D01*
X31562Y-8508D01*
X31754Y-8429D01*
X31901Y-8282D01*
X31980Y-8091D01*
X31980Y-7883D01*
X31980Y-13827D01*
X31980Y-13827D01*
X31980Y-11213D01*
X31980Y-10663D01*
X31943Y-10572D01*
X31873Y-10502D01*
X31783Y-10465D01*
X31685Y-10465D01*
X31135Y-10465D01*
X31044Y-10502D01*
X30974Y-10571D01*
X30937Y-10662D01*
X30937Y-10760D01*
X30937Y-11310D01*
X30974Y-11401D01*
X31043Y-11471D01*
X31134Y-11508D01*
X31232Y-11508D01*
X31782Y-11508D01*
X31873Y-11471D01*
X31943Y-11401D01*
X31980Y-11311D01*
X31980Y-11213D01*
X31980Y-13827D01*
X31397Y-13827D01*
X30785Y-13827D01*
X30785Y-11579D01*
X30703Y-11380D01*
X30550Y-11227D01*
X30351Y-11144D01*
X30135Y-11144D01*
X29936Y-11227D01*
X29783Y-11379D01*
X29701Y-11578D01*
X29700Y-11794D01*
X29783Y-11993D01*
X29935Y-12146D01*
X30134Y-12228D01*
X30350Y-12229D01*
X30549Y-12146D01*
X30702Y-11994D01*
X30785Y-11795D01*
X30785Y-11579D01*
X30785Y-13827D01*
X28816Y-13827D01*
X28816Y-11579D01*
X28734Y-11380D01*
X28582Y-11227D01*
X28382Y-11144D01*
X28167Y-11144D01*
X27967Y-11227D01*
X27815Y-11379D01*
X27732Y-11578D01*
X27732Y-11794D01*
X27814Y-11993D01*
X27967Y-12146D01*
X28166Y-12228D01*
X28382Y-12229D01*
X28581Y-12146D01*
X28733Y-11994D01*
X28816Y-11795D01*
X28816Y-11579D01*
X28816Y-13827D01*
X28638Y-13827D01*
X25997Y-11187D01*
X25997Y-11187D01*
X25997Y-11187D01*
X23714Y-8903D01*
X23608Y-8833D01*
X23495Y-8810D01*
X23495Y-2868D01*
X23495Y-2168D01*
X23458Y-2077D01*
X23388Y-2007D01*
X23298Y-1970D01*
X23200Y-1970D01*
X22500Y-1970D01*
X22409Y-2007D01*
X22339Y-2076D01*
X22302Y-2167D01*
X22302Y-2265D01*
X22302Y-2965D01*
X22339Y-3056D01*
X22408Y-3126D01*
X22499Y-3163D01*
X22597Y-3163D01*
X23297Y-3163D01*
X23388Y-3126D01*
X23458Y-3056D01*
X23495Y-2966D01*
X23495Y-2868D01*
X23495Y-8810D01*
X23484Y-8808D01*
X23403Y-8808D01*
X23403Y-4636D01*
X23392Y-4438D01*
X23338Y-4309D01*
X23266Y-4270D01*
X23195Y-4340D01*
X23195Y-4199D01*
X23156Y-4127D01*
X22968Y-4061D01*
X22770Y-4073D01*
X22641Y-4127D01*
X22602Y-4199D01*
X22898Y-4496D01*
X23195Y-4199D01*
X23195Y-4340D01*
X22969Y-4566D01*
X23266Y-4863D01*
X23338Y-4824D01*
X23403Y-4636D01*
X23403Y-8808D01*
X23195Y-8808D01*
X23195Y-4934D01*
X22898Y-4637D01*
X22828Y-4708D01*
X22828Y-4566D01*
X22531Y-4270D01*
X22459Y-4309D01*
X22393Y-4497D01*
X22405Y-4695D01*
X22459Y-4824D01*
X22531Y-4863D01*
X22828Y-4566D01*
X22828Y-4708D01*
X22602Y-4934D01*
X22641Y-5006D01*
X22829Y-5071D01*
X23027Y-5060D01*
X23156Y-5006D01*
X23195Y-4934D01*
X23195Y-8808D01*
X22125Y-8808D01*
X22001Y-8833D01*
X21895Y-8903D01*
X21364Y-9435D01*
X21293Y-9540D01*
X21268Y-9665D01*
X21268Y-9960D01*
X21293Y-10085D01*
X21364Y-10190D01*
X21930Y-10757D01*
X20851Y-10757D01*
X20851Y-1344D01*
X20846Y-966D01*
X20710Y-638D01*
X20591Y-544D01*
X19969Y-1166D01*
X20591Y-1789D01*
X20710Y-1695D01*
X20851Y-1344D01*
X20851Y-10757D01*
X20520Y-10757D01*
X20520Y-1859D01*
X19898Y-1237D01*
X19828Y-1308D01*
X19828Y-1166D01*
X19206Y-544D01*
X19086Y-638D01*
X18946Y-989D01*
X18951Y-1367D01*
X19086Y-1695D01*
X19206Y-1789D01*
X19828Y-1166D01*
X19828Y-1308D01*
X19276Y-1859D01*
X19370Y-1978D01*
X19721Y-2119D01*
X20099Y-2114D01*
X20427Y-1978D01*
X20520Y-1859D01*
X20520Y-10757D01*
X20508Y-10757D01*
X19046Y-9294D01*
X19046Y-9070D01*
X19077Y-9038D01*
X19142Y-8883D01*
X19142Y-8715D01*
X19078Y-8560D01*
X18959Y-8441D01*
X18804Y-8377D01*
X18636Y-8377D01*
X18481Y-8441D01*
X18363Y-8559D01*
X18298Y-8714D01*
X18298Y-8882D01*
X18362Y-9037D01*
X18394Y-9070D01*
X18394Y-9429D01*
X18419Y-9553D01*
X18490Y-9659D01*
X20143Y-11312D01*
X20143Y-11312D01*
X20214Y-11360D01*
X20249Y-11383D01*
X20249Y-11383D01*
X20374Y-11408D01*
X20374Y-11408D01*
X21873Y-11408D01*
X22152Y-11687D01*
X22125Y-11682D01*
X19737Y-11682D01*
X18258Y-10203D01*
X18258Y-7710D01*
X20256Y-5711D01*
X20256Y-5711D01*
X20256Y-5711D01*
X20336Y-5593D01*
X20363Y-5453D01*
X20363Y-5453D01*
X20363Y-4671D01*
X20413Y-4651D01*
X20483Y-4581D01*
X20520Y-4491D01*
X20520Y-4393D01*
X20520Y-3843D01*
X20520Y-3193D01*
X20520Y-2643D01*
X20483Y-2552D01*
X20413Y-2482D01*
X20323Y-2445D01*
X20225Y-2445D01*
X19675Y-2445D01*
X19584Y-2482D01*
X19514Y-2551D01*
X19477Y-2642D01*
X19477Y-2740D01*
X19477Y-3290D01*
X19514Y-3381D01*
X19583Y-3451D01*
X19674Y-3488D01*
X19772Y-3488D01*
X20322Y-3488D01*
X20413Y-3451D01*
X20483Y-3381D01*
X20520Y-3291D01*
X20520Y-3193D01*
X20520Y-3843D01*
X20483Y-3752D01*
X20413Y-3682D01*
X20323Y-3645D01*
X20225Y-3645D01*
X19675Y-3645D01*
X19584Y-3682D01*
X19514Y-3751D01*
X19477Y-3842D01*
X19477Y-3940D01*
X19477Y-4490D01*
X19514Y-4581D01*
X19583Y-4651D01*
X19633Y-4671D01*
X19633Y-5302D01*
X17635Y-7300D01*
X17556Y-7419D01*
X17528Y-7559D01*
X17528Y-10354D01*
X17556Y-10493D01*
X17635Y-10612D01*
X19328Y-12305D01*
X19446Y-12384D01*
X19446Y-12384D01*
X19586Y-12412D01*
X21974Y-12412D01*
X22261Y-12698D01*
X22261Y-12698D01*
X22300Y-12758D01*
X22509Y-12966D01*
X22509Y-15498D01*
X22094Y-15913D01*
X22094Y-13024D01*
X22081Y-12846D01*
X22037Y-12739D01*
X21970Y-12706D01*
X21899Y-12777D01*
X21899Y-12635D01*
X21866Y-12568D01*
X21696Y-12511D01*
X21518Y-12524D01*
X21411Y-12568D01*
X21378Y-12635D01*
X21638Y-12896D01*
X21899Y-12635D01*
X21899Y-12777D01*
X21709Y-12966D01*
X21970Y-13227D01*
X22037Y-13194D01*
X22094Y-13024D01*
X22094Y-15913D01*
X21899Y-16108D01*
X21899Y-13298D01*
X21638Y-13037D01*
X21568Y-13108D01*
X21568Y-12966D01*
X21307Y-12706D01*
X21240Y-12739D01*
X21185Y-12902D01*
X21185Y-12618D01*
X21148Y-12527D01*
X21078Y-12457D01*
X20988Y-12420D01*
X20890Y-12420D01*
X20290Y-12420D01*
X20199Y-12457D01*
X20129Y-12526D01*
X20092Y-12617D01*
X20092Y-12715D01*
X20092Y-13315D01*
X20129Y-13406D01*
X20198Y-13476D01*
X20289Y-13513D01*
X20387Y-13513D01*
X20987Y-13513D01*
X21078Y-13476D01*
X21148Y-13406D01*
X21185Y-13316D01*
X21185Y-13218D01*
X21185Y-12938D01*
X21196Y-13087D01*
X21240Y-13194D01*
X21307Y-13227D01*
X21568Y-12966D01*
X21568Y-13108D01*
X21378Y-13298D01*
X21411Y-13365D01*
X21581Y-13422D01*
X21759Y-13409D01*
X21866Y-13365D01*
X21899Y-13298D01*
X21899Y-16108D01*
X20537Y-17469D01*
X18937Y-17469D01*
X18797Y-17497D01*
X18678Y-17576D01*
X17123Y-19131D01*
X17044Y-19250D01*
X17016Y-19389D01*
X17016Y-20629D01*
X17044Y-20769D01*
X17123Y-20887D01*
X18029Y-21793D01*
X18147Y-21872D01*
X18147Y-21872D01*
X18287Y-21900D01*
X18392Y-21900D01*
X18650Y-22159D01*
X18650Y-24120D01*
X18335Y-24435D01*
X18335Y-22514D01*
X18271Y-22359D01*
X18152Y-22241D01*
X17997Y-22176D01*
X17829Y-22176D01*
X17679Y-22238D01*
X16801Y-21361D01*
X16801Y-19271D01*
X16801Y-17772D01*
X17553Y-17021D01*
X17623Y-16915D01*
X17648Y-16791D01*
X17648Y-16791D01*
X17648Y-12696D01*
X17648Y-12696D01*
X17623Y-12572D01*
X17623Y-12572D01*
X17600Y-12537D01*
X17553Y-12466D01*
X17553Y-12466D01*
X16172Y-11085D01*
X16172Y-8877D01*
X16172Y-8661D01*
X16172Y-8661D01*
X16147Y-8536D01*
X16147Y-8536D01*
X16123Y-8501D01*
X16076Y-8431D01*
X16076Y-8431D01*
X14063Y-6418D01*
X14063Y-6373D01*
X13999Y-6218D01*
X13881Y-6099D01*
X13726Y-6034D01*
X13558Y-6034D01*
X13403Y-6098D01*
X13284Y-6217D01*
X13219Y-6372D01*
X13219Y-6540D01*
X13283Y-6695D01*
X13402Y-6814D01*
X13557Y-6878D01*
X13603Y-6878D01*
X15520Y-8796D01*
X15520Y-8877D01*
X15520Y-11220D01*
X15545Y-11345D01*
X15616Y-11450D01*
X16997Y-12831D01*
X16997Y-16656D01*
X16246Y-17407D01*
X16175Y-17513D01*
X16150Y-17637D01*
X16150Y-19271D01*
X16150Y-21496D01*
X16175Y-21620D01*
X16246Y-21726D01*
X17348Y-22828D01*
X17348Y-22828D01*
X17419Y-22875D01*
X17454Y-22899D01*
X17454Y-22899D01*
X17578Y-22924D01*
X17578Y-22924D01*
X17642Y-22924D01*
X17674Y-22955D01*
X17829Y-23020D01*
X17996Y-23020D01*
X18152Y-22956D01*
X18270Y-22837D01*
X18335Y-22682D01*
X18335Y-22514D01*
X18335Y-24435D01*
X10844Y-31926D01*
X10844Y-31926D01*
X10844Y-31926D01*
X10144Y-32627D01*
X6351Y-32627D01*
X4862Y-31138D01*
X4862Y-30649D01*
X4862Y-26063D01*
X6624Y-26063D01*
X6763Y-26035D01*
X6763Y-26035D01*
X6882Y-25956D01*
X7523Y-25315D01*
X7662Y-25315D01*
X7799Y-25372D01*
X7967Y-25372D01*
X8122Y-25308D01*
X8241Y-25190D01*
X8305Y-25035D01*
X8305Y-24867D01*
X8241Y-24712D01*
X8123Y-24593D01*
X7968Y-24529D01*
X7800Y-24528D01*
X7662Y-24585D01*
X7372Y-24585D01*
X7232Y-24613D01*
X7113Y-24692D01*
X7113Y-24692D01*
X7113Y-24692D01*
X6472Y-25333D01*
X4879Y-25333D01*
X4879Y-22377D01*
X4879Y-22014D01*
X4879Y-21914D01*
X4879Y-21552D01*
X4841Y-21514D01*
X4658Y-21514D01*
X4599Y-21514D01*
X4544Y-21537D01*
X4501Y-21579D01*
X4479Y-21634D01*
X4479Y-21877D01*
X4516Y-21914D01*
X4879Y-21914D01*
X4879Y-22014D01*
X4516Y-22014D01*
X4479Y-22052D01*
X4479Y-22294D01*
X4501Y-22349D01*
X4544Y-22391D01*
X4599Y-22414D01*
X4658Y-22414D01*
X4841Y-22414D01*
X4879Y-22377D01*
X4879Y-25333D01*
X4719Y-25333D01*
X4599Y-25284D01*
X4384Y-25068D01*
X4384Y-22022D01*
X4371Y-21843D01*
X4327Y-21736D01*
X4260Y-21704D01*
X3999Y-21964D01*
X4260Y-22225D01*
X4327Y-22192D01*
X4384Y-22022D01*
X4384Y-25068D01*
X4189Y-24874D01*
X4189Y-22295D01*
X3929Y-22035D01*
X3858Y-22105D01*
X3858Y-21964D01*
X3597Y-21704D01*
X3530Y-21736D01*
X3473Y-21906D01*
X3486Y-22085D01*
X3530Y-22192D01*
X3597Y-22225D01*
X3858Y-21964D01*
X3858Y-22105D01*
X3668Y-22295D01*
X3701Y-22362D01*
X3871Y-22419D01*
X4049Y-22407D01*
X4156Y-22362D01*
X4189Y-22295D01*
X4189Y-24874D01*
X3022Y-23707D01*
X3022Y-15229D01*
X3382Y-14869D01*
X3382Y-15072D01*
X3465Y-15273D01*
X3618Y-15427D01*
X3819Y-15511D01*
X3958Y-15511D01*
X3808Y-15521D01*
X3701Y-15566D01*
X3668Y-15633D01*
X3929Y-15893D01*
X4189Y-15633D01*
X4156Y-15566D01*
X3993Y-15511D01*
X4037Y-15511D01*
X4238Y-15428D01*
X4392Y-15274D01*
X4429Y-15186D01*
X4465Y-15273D01*
X4618Y-15427D01*
X4819Y-15511D01*
X4958Y-15511D01*
X4808Y-15521D01*
X4701Y-15566D01*
X4668Y-15633D01*
X4929Y-15893D01*
X5189Y-15633D01*
X5156Y-15566D01*
X4993Y-15511D01*
X5037Y-15511D01*
X5238Y-15428D01*
X5337Y-15329D01*
X5488Y-15329D01*
X5627Y-15301D01*
X5627Y-15301D01*
X5746Y-15222D01*
X6115Y-14853D01*
X6273Y-14853D01*
X6273Y-14890D01*
X6273Y-15490D01*
X6310Y-15581D01*
X6380Y-15650D01*
X6470Y-15688D01*
X6569Y-15688D01*
X6848Y-15688D01*
X6699Y-15699D01*
X6592Y-15743D01*
X6559Y-15810D01*
X6820Y-16071D01*
X7080Y-15810D01*
X7047Y-15743D01*
X6884Y-15688D01*
X7169Y-15688D01*
X7259Y-15651D01*
X7329Y-15581D01*
X7366Y-15491D01*
X7367Y-15392D01*
X7367Y-14853D01*
X8099Y-14853D01*
X8099Y-15295D01*
X8127Y-15434D01*
X8206Y-15553D01*
X8519Y-15866D01*
X7438Y-16946D01*
X7367Y-17053D01*
X7367Y-17033D01*
X7284Y-16832D01*
X7275Y-16823D01*
X7275Y-16199D01*
X7262Y-16021D01*
X7218Y-15914D01*
X7151Y-15881D01*
X6890Y-16141D01*
X7151Y-16402D01*
X7218Y-16369D01*
X7275Y-16199D01*
X7275Y-16823D01*
X7130Y-16678D01*
X6929Y-16594D01*
X6791Y-16594D01*
X6940Y-16584D01*
X7047Y-16540D01*
X7080Y-16472D01*
X6820Y-16212D01*
X6749Y-16283D01*
X6749Y-16141D01*
X6488Y-15881D01*
X6421Y-15914D01*
X6365Y-16083D01*
X6377Y-16262D01*
X6421Y-16369D01*
X6488Y-16402D01*
X6749Y-16141D01*
X6749Y-16283D01*
X6559Y-16472D01*
X6592Y-16540D01*
X6756Y-16594D01*
X6711Y-16594D01*
X6510Y-16677D01*
X6356Y-16831D01*
X6273Y-17032D01*
X6273Y-17250D01*
X6356Y-17451D01*
X6509Y-17605D01*
X6710Y-17688D01*
X6928Y-17688D01*
X7129Y-17605D01*
X7283Y-17451D01*
X7331Y-17335D01*
X7331Y-17722D01*
X6926Y-18127D01*
X6847Y-18246D01*
X6820Y-18385D01*
X6820Y-20723D01*
X6763Y-20860D01*
X6763Y-21028D01*
X6827Y-21183D01*
X6945Y-21302D01*
X7083Y-21359D01*
X7741Y-22017D01*
X7860Y-22097D01*
X7860Y-22097D01*
X8000Y-22124D01*
X9282Y-22124D01*
X9313Y-22199D01*
X9367Y-22253D01*
X7890Y-22253D01*
X6506Y-20869D01*
X6506Y-17874D01*
X6481Y-17749D01*
X6411Y-17643D01*
X6411Y-17643D01*
X5501Y-16734D01*
X5396Y-16664D01*
X5393Y-16655D01*
X5384Y-16646D01*
X5384Y-16022D01*
X5371Y-15843D01*
X5327Y-15736D01*
X5260Y-15704D01*
X4999Y-15964D01*
X5260Y-16225D01*
X5327Y-16192D01*
X5384Y-16022D01*
X5384Y-16646D01*
X5239Y-16501D01*
X5038Y-16417D01*
X4900Y-16417D01*
X5049Y-16407D01*
X5156Y-16362D01*
X5189Y-16295D01*
X4929Y-16035D01*
X4858Y-16105D01*
X4858Y-15964D01*
X4597Y-15704D01*
X4530Y-15736D01*
X4473Y-15906D01*
X4486Y-16085D01*
X4530Y-16192D01*
X4597Y-16225D01*
X4858Y-15964D01*
X4858Y-16105D01*
X4668Y-16295D01*
X4701Y-16362D01*
X4865Y-16417D01*
X4820Y-16417D01*
X4619Y-16500D01*
X4465Y-16654D01*
X4429Y-16742D01*
X4393Y-16655D01*
X4384Y-16646D01*
X4384Y-16022D01*
X4371Y-15843D01*
X4327Y-15736D01*
X4260Y-15704D01*
X3999Y-15964D01*
X4260Y-16225D01*
X4327Y-16192D01*
X4384Y-16022D01*
X4384Y-16646D01*
X4239Y-16501D01*
X4038Y-16417D01*
X3900Y-16417D01*
X4049Y-16407D01*
X4156Y-16362D01*
X4189Y-16295D01*
X3929Y-16035D01*
X3858Y-16105D01*
X3858Y-15964D01*
X3597Y-15704D01*
X3530Y-15736D01*
X3473Y-15906D01*
X3486Y-16085D01*
X3530Y-16192D01*
X3597Y-16225D01*
X3858Y-15964D01*
X3858Y-16105D01*
X3668Y-16295D01*
X3701Y-16362D01*
X3865Y-16417D01*
X3820Y-16417D01*
X3619Y-16500D01*
X3465Y-16654D01*
X3382Y-16855D01*
X3382Y-17072D01*
X3465Y-17273D01*
X3618Y-17427D01*
X3707Y-17464D01*
X3619Y-17500D01*
X3465Y-17654D01*
X3382Y-17855D01*
X3382Y-18072D01*
X3465Y-18273D01*
X3618Y-18427D01*
X3819Y-18511D01*
X3958Y-18511D01*
X3808Y-18521D01*
X3701Y-18566D01*
X3668Y-18633D01*
X3929Y-18893D01*
X4189Y-18633D01*
X4156Y-18566D01*
X3993Y-18511D01*
X4037Y-18511D01*
X4238Y-18428D01*
X4392Y-18274D01*
X4429Y-18186D01*
X4465Y-18273D01*
X4618Y-18427D01*
X4819Y-18511D01*
X4958Y-18511D01*
X4808Y-18521D01*
X4701Y-18566D01*
X4668Y-18633D01*
X4929Y-18893D01*
X5189Y-18633D01*
X5156Y-18566D01*
X4993Y-18511D01*
X5037Y-18511D01*
X5238Y-18428D01*
X5363Y-18303D01*
X5363Y-18823D01*
X5327Y-18736D01*
X5260Y-18704D01*
X4999Y-18964D01*
X5260Y-19225D01*
X5327Y-19192D01*
X5363Y-19084D01*
X5363Y-19625D01*
X5239Y-19501D01*
X5038Y-19417D01*
X4900Y-19417D01*
X5049Y-19407D01*
X5156Y-19362D01*
X5189Y-19295D01*
X4929Y-19035D01*
X4858Y-19105D01*
X4858Y-18964D01*
X4597Y-18704D01*
X4530Y-18736D01*
X4473Y-18906D01*
X4486Y-19085D01*
X4530Y-19192D01*
X4597Y-19225D01*
X4858Y-18964D01*
X4858Y-19105D01*
X4668Y-19295D01*
X4701Y-19362D01*
X4865Y-19417D01*
X4820Y-19417D01*
X4619Y-19500D01*
X4465Y-19654D01*
X4429Y-19742D01*
X4393Y-19655D01*
X4384Y-19646D01*
X4384Y-19022D01*
X4371Y-18843D01*
X4327Y-18736D01*
X4260Y-18704D01*
X3999Y-18964D01*
X4260Y-19225D01*
X4327Y-19192D01*
X4384Y-19022D01*
X4384Y-19646D01*
X4239Y-19501D01*
X4038Y-19417D01*
X3900Y-19417D01*
X4049Y-19407D01*
X4156Y-19362D01*
X4189Y-19295D01*
X3929Y-19035D01*
X3858Y-19105D01*
X3858Y-18964D01*
X3597Y-18704D01*
X3530Y-18736D01*
X3473Y-18906D01*
X3486Y-19085D01*
X3530Y-19192D01*
X3597Y-19225D01*
X3858Y-18964D01*
X3858Y-19105D01*
X3668Y-19295D01*
X3701Y-19362D01*
X3865Y-19417D01*
X3820Y-19417D01*
X3619Y-19500D01*
X3465Y-19654D01*
X3382Y-19855D01*
X3382Y-20072D01*
X3465Y-20273D01*
X3618Y-20427D01*
X3707Y-20464D01*
X3619Y-20500D01*
X3465Y-20654D01*
X3382Y-20855D01*
X3382Y-21072D01*
X3465Y-21273D01*
X3618Y-21427D01*
X3819Y-21511D01*
X3958Y-21511D01*
X3808Y-21521D01*
X3701Y-21566D01*
X3668Y-21633D01*
X3929Y-21893D01*
X4189Y-21633D01*
X4156Y-21566D01*
X3993Y-21511D01*
X4037Y-21511D01*
X4238Y-21428D01*
X4392Y-21274D01*
X4429Y-21186D01*
X4465Y-21273D01*
X4618Y-21427D01*
X4819Y-21511D01*
X5037Y-21511D01*
X5238Y-21428D01*
X5377Y-21289D01*
X5388Y-21345D01*
X5458Y-21450D01*
X7368Y-23360D01*
X7368Y-23360D01*
X7438Y-23407D01*
X7473Y-23430D01*
X7473Y-23430D01*
X7598Y-23455D01*
X7598Y-23455D01*
X8580Y-23455D01*
X8471Y-23500D01*
X8439Y-23532D01*
X6003Y-23532D01*
X5879Y-23557D01*
X5773Y-23628D01*
X5379Y-24022D01*
X5379Y-22294D01*
X5379Y-21634D01*
X5356Y-21579D01*
X5314Y-21537D01*
X5259Y-21514D01*
X5199Y-21514D01*
X5016Y-21514D01*
X4979Y-21552D01*
X4979Y-21914D01*
X5341Y-21914D01*
X5379Y-21877D01*
X5379Y-21634D01*
X5379Y-22294D01*
X5379Y-22052D01*
X5341Y-22014D01*
X4979Y-22014D01*
X4979Y-22377D01*
X5016Y-22414D01*
X5199Y-22414D01*
X5259Y-22414D01*
X5314Y-22391D01*
X5356Y-22349D01*
X5379Y-22294D01*
X5379Y-24022D01*
X5331Y-24070D01*
X5233Y-24110D01*
X5115Y-24229D01*
X5050Y-24384D01*
X5050Y-24552D01*
X5114Y-24707D01*
X5233Y-24825D01*
X5388Y-24890D01*
X5555Y-24890D01*
X5711Y-24826D01*
X5829Y-24707D01*
X5894Y-24552D01*
X5894Y-24428D01*
X6138Y-24183D01*
X8439Y-24183D01*
X8471Y-24215D01*
X8626Y-24280D01*
X8794Y-24280D01*
X8949Y-24216D01*
X9068Y-24097D01*
X9132Y-23942D01*
X9132Y-23774D01*
X9068Y-23619D01*
X8949Y-23500D01*
X8840Y-23455D01*
X10295Y-23455D01*
X10419Y-23430D01*
X10525Y-23360D01*
X11234Y-22651D01*
X11234Y-22651D01*
X11288Y-22570D01*
X11288Y-25101D01*
X9395Y-26994D01*
X9395Y-26994D01*
X6206Y-30183D01*
X6136Y-30288D01*
X6111Y-30413D01*
X6111Y-31047D01*
X6079Y-31079D01*
X6015Y-31234D01*
X6015Y-31402D01*
X6079Y-31557D01*
X6197Y-31676D01*
X6352Y-31740D01*
X6520Y-31740D01*
X6675Y-31676D01*
X6794Y-31558D01*
X6858Y-31403D01*
X6858Y-31235D01*
X6794Y-31080D01*
X6762Y-31047D01*
X6762Y-30548D01*
X9856Y-27454D01*
X9856Y-27454D01*
X9856Y-27454D01*
X11844Y-25466D01*
X11844Y-25466D01*
X11914Y-25360D01*
X11939Y-25236D01*
X11939Y-25236D01*
X11939Y-20215D01*
X11957Y-20233D01*
X11957Y-26380D01*
X10158Y-28180D01*
X10113Y-28180D01*
X9958Y-28244D01*
X9839Y-28363D01*
X9775Y-28518D01*
X9774Y-28685D01*
X9839Y-28841D01*
X9957Y-28959D01*
X10112Y-29024D01*
X10280Y-29024D01*
X10435Y-28960D01*
X10554Y-28841D01*
X10618Y-28686D01*
X10618Y-28640D01*
X12513Y-26745D01*
X12513Y-26745D01*
X12560Y-26675D01*
X12584Y-26640D01*
X12584Y-26640D01*
X12609Y-26515D01*
X12609Y-26515D01*
X12609Y-20098D01*
X12584Y-19973D01*
X12513Y-19868D01*
X12513Y-19868D01*
X12055Y-19410D01*
X12055Y-19365D01*
X11991Y-19210D01*
X11985Y-19203D01*
X13070Y-19203D01*
X13195Y-19178D01*
X13301Y-19108D01*
X14934Y-17474D01*
X14934Y-17474D01*
X14934Y-17474D01*
X15249Y-17159D01*
X15249Y-17159D01*
X15297Y-17088D01*
X15320Y-17053D01*
X15320Y-17053D01*
X15345Y-16929D01*
X15345Y-16929D01*
X15345Y-16630D01*
X15958Y-16017D01*
X15958Y-16017D01*
X16029Y-15911D01*
X16032Y-15894D01*
X16032Y-16105D01*
X15478Y-16659D01*
X15407Y-16765D01*
X15383Y-16889D01*
X15383Y-17027D01*
X15383Y-22913D01*
X15407Y-23037D01*
X15478Y-23143D01*
X15931Y-23596D01*
X15931Y-23596D01*
X16036Y-23666D01*
X16161Y-23691D01*
X16323Y-23691D01*
X16355Y-23723D01*
X16510Y-23787D01*
X16678Y-23788D01*
X16833Y-23723D01*
X16951Y-23605D01*
X17016Y-23450D01*
X17016Y-23282D01*
X16952Y-23127D01*
X16833Y-23008D01*
X16678Y-22944D01*
X16510Y-22944D01*
X16355Y-23008D01*
X16323Y-23040D01*
X16296Y-23040D01*
X16034Y-22778D01*
X16034Y-17027D01*
X16034Y-17024D01*
X16588Y-16470D01*
X16588Y-16470D01*
X16659Y-16364D01*
X16683Y-16240D01*
X16683Y-16240D01*
X16683Y-12992D01*
X16683Y-12992D01*
X16659Y-12867D01*
X16659Y-12867D01*
X16635Y-12832D01*
X16588Y-12761D01*
X16588Y-12761D01*
X15348Y-11521D01*
X15242Y-11451D01*
X15187Y-11440D01*
X15187Y-10255D01*
X15187Y-10255D01*
X15163Y-10131D01*
X15163Y-10131D01*
X15139Y-10096D01*
X15092Y-10025D01*
X15092Y-10025D01*
X13947Y-8880D01*
X13947Y-7775D01*
X13922Y-7650D01*
X13922Y-7650D01*
X13899Y-7615D01*
X13852Y-7545D01*
X13852Y-7545D01*
X12832Y-6525D01*
X12862Y-6452D01*
X12862Y-6284D01*
X12798Y-6129D01*
X12680Y-6010D01*
X12525Y-5946D01*
X12357Y-5946D01*
X12202Y-6010D01*
X12083Y-6128D01*
X12019Y-6283D01*
X12019Y-6451D01*
X12083Y-6606D01*
X12126Y-6650D01*
X12140Y-6719D01*
X12210Y-6824D01*
X13296Y-7910D01*
X13296Y-9015D01*
X13321Y-9140D01*
X13391Y-9245D01*
X14536Y-10390D01*
X14536Y-11379D01*
X14319Y-11162D01*
X14319Y-11117D01*
X14255Y-10962D01*
X14136Y-10843D01*
X13981Y-10779D01*
X13814Y-10778D01*
X13787Y-10789D01*
X13788Y-10625D01*
X13723Y-10470D01*
X13605Y-10351D01*
X13450Y-10286D01*
X13282Y-10286D01*
X13127Y-10350D01*
X13008Y-10469D01*
X12944Y-10624D01*
X12944Y-10792D01*
X13008Y-10947D01*
X13060Y-10999D01*
X13060Y-11574D01*
X13085Y-11699D01*
X13155Y-11805D01*
X14851Y-13501D01*
X14851Y-15554D01*
X13076Y-17328D01*
X12384Y-18020D01*
X12055Y-18020D01*
X12055Y-17869D01*
X11991Y-17714D01*
X11873Y-17595D01*
X11743Y-17541D01*
X11799Y-17407D01*
X11799Y-17239D01*
X11735Y-17084D01*
X11617Y-16965D01*
X11462Y-16901D01*
X11294Y-16900D01*
X11139Y-16964D01*
X11020Y-17083D01*
X10999Y-17135D01*
X9940Y-17135D01*
X9816Y-17159D01*
X9710Y-17230D01*
X9311Y-17629D01*
X9266Y-17629D01*
X9111Y-17693D01*
X8992Y-17811D01*
X8928Y-17966D01*
X8928Y-18134D01*
X8992Y-18289D01*
X9111Y-18408D01*
X9266Y-18472D01*
X9433Y-18473D01*
X9589Y-18409D01*
X9707Y-18290D01*
X9772Y-18135D01*
X9772Y-18089D01*
X10075Y-17786D01*
X10375Y-17786D01*
X9317Y-18844D01*
X9246Y-18950D01*
X9221Y-19074D01*
X9221Y-19530D01*
X8805Y-19946D01*
X8734Y-20052D01*
X8709Y-20177D01*
X8709Y-20396D01*
X8327Y-20778D01*
X8282Y-20778D01*
X8127Y-20842D01*
X8008Y-20961D01*
X7944Y-21116D01*
X7944Y-21188D01*
X7599Y-20843D01*
X7550Y-20723D01*
X7550Y-18536D01*
X7954Y-18132D01*
X8034Y-18013D01*
X8034Y-18013D01*
X8061Y-17874D01*
X8061Y-17355D01*
X9136Y-16281D01*
X9246Y-16327D01*
X9414Y-16327D01*
X9552Y-16270D01*
X13444Y-16270D01*
X13584Y-16242D01*
X13584Y-16242D01*
X13702Y-16163D01*
X14415Y-15451D01*
X14473Y-15451D01*
X14628Y-15387D01*
X14747Y-15268D01*
X14811Y-15113D01*
X14811Y-14945D01*
X14747Y-14790D01*
X14629Y-14672D01*
X14474Y-14607D01*
X14306Y-14607D01*
X14151Y-14671D01*
X14032Y-14790D01*
X14024Y-14810D01*
X13293Y-15540D01*
X9551Y-15540D01*
X9414Y-15483D01*
X9247Y-15483D01*
X9191Y-15506D01*
X8829Y-15144D01*
X8829Y-14488D01*
X8829Y-10840D01*
X9235Y-10434D01*
X9275Y-10451D01*
X9443Y-10451D01*
X9581Y-10394D01*
X10797Y-10394D01*
X10936Y-10366D01*
X10936Y-10366D01*
X11055Y-10287D01*
X11509Y-9833D01*
X11751Y-9833D01*
X11891Y-9805D01*
X11891Y-9805D01*
X12010Y-9726D01*
X12876Y-8860D01*
X12876Y-8860D01*
X12876Y-8860D01*
X12955Y-8742D01*
X12964Y-8695D01*
X12975Y-8684D01*
X13039Y-8529D01*
X13040Y-8361D01*
X12975Y-8206D01*
X12857Y-8087D01*
X12702Y-8023D01*
X12534Y-8022D01*
X12396Y-8079D01*
X12336Y-8079D01*
X11605Y-7348D01*
X11605Y-5643D01*
X11962Y-5286D01*
X15222Y-5286D01*
X16564Y-6627D01*
X16564Y-10925D01*
X16591Y-11064D01*
X16671Y-11183D01*
X19820Y-14332D01*
X19939Y-14411D01*
X19939Y-14411D01*
X20078Y-14439D01*
X20567Y-14439D01*
X21052Y-14924D01*
X21108Y-15061D01*
X21227Y-15180D01*
X21382Y-15244D01*
X21550Y-15244D01*
X21705Y-15180D01*
X21823Y-15062D01*
X21888Y-14907D01*
X21888Y-14739D01*
X21824Y-14584D01*
X21705Y-14465D01*
X21568Y-14408D01*
X20976Y-13816D01*
X20858Y-13737D01*
X20718Y-13709D01*
X20229Y-13709D01*
X17294Y-10774D01*
X17294Y-6476D01*
X17266Y-6336D01*
X17266Y-6336D01*
X17187Y-6218D01*
X15632Y-4663D01*
X15513Y-4584D01*
X15374Y-4556D01*
X11811Y-4556D01*
X11671Y-4584D01*
X11552Y-4663D01*
X10982Y-5234D01*
X10902Y-5352D01*
X10875Y-5492D01*
X10875Y-7500D01*
X10902Y-7639D01*
X10982Y-7758D01*
X11343Y-8119D01*
X11220Y-8119D01*
X11095Y-8144D01*
X11060Y-8167D01*
X10990Y-8214D01*
X10219Y-8985D01*
X9996Y-8985D01*
X10081Y-8900D01*
X10146Y-8745D01*
X10146Y-8719D01*
X10466Y-8399D01*
X10466Y-8399D01*
X10513Y-8328D01*
X10537Y-8293D01*
X10537Y-8293D01*
X10561Y-8169D01*
X10561Y-8169D01*
X10561Y-4704D01*
X10537Y-4580D01*
X10466Y-4474D01*
X10421Y-4429D01*
X10421Y-4384D01*
X10363Y-4242D01*
X16476Y-4242D01*
X16476Y-4270D01*
X16556Y-4462D01*
X16702Y-4609D01*
X16894Y-4688D01*
X17102Y-4688D01*
X17294Y-4609D01*
X17441Y-4462D01*
X17520Y-4271D01*
X17520Y-4063D01*
X17520Y-2863D01*
X17441Y-2671D01*
X17294Y-2524D01*
X17103Y-2445D01*
X16895Y-2444D01*
X16703Y-2524D01*
X16556Y-2670D01*
X16477Y-2862D01*
X16476Y-3070D01*
X16556Y-3262D01*
X16702Y-3409D01*
X16894Y-3488D01*
X17102Y-3488D01*
X17294Y-3409D01*
X17441Y-3262D01*
X17520Y-3071D01*
X17520Y-2863D01*
X17520Y-4063D01*
X17441Y-3871D01*
X17294Y-3724D01*
X17103Y-3645D01*
X16916Y-3645D01*
X16873Y-3616D01*
X16749Y-3591D01*
X14529Y-3591D01*
X14607Y-3514D01*
X14695Y-3302D01*
X14695Y-3072D01*
X14608Y-2860D01*
X14446Y-2698D01*
X14419Y-2687D01*
X14445Y-2676D01*
X14607Y-2514D01*
X14695Y-2302D01*
X14695Y-2072D01*
X14608Y-1860D01*
X14446Y-1698D01*
X14234Y-1610D01*
X14004Y-1609D01*
X13792Y-1697D01*
X13630Y-1859D01*
X13542Y-2071D01*
X13541Y-2301D01*
X13629Y-2513D01*
X13791Y-2675D01*
X13818Y-2686D01*
X13792Y-2697D01*
X13630Y-2859D01*
X13542Y-3071D01*
X13541Y-3301D01*
X13629Y-3513D01*
X13707Y-3591D01*
X12749Y-3591D01*
X12827Y-3514D01*
X12915Y-3302D01*
X12915Y-3072D01*
X12828Y-2860D01*
X12666Y-2698D01*
X12639Y-2687D01*
X12665Y-2676D01*
X12827Y-2514D01*
X12915Y-2302D01*
X12915Y-2072D01*
X12828Y-1860D01*
X12666Y-1698D01*
X12454Y-1610D01*
X12224Y-1609D01*
X12012Y-1697D01*
X11850Y-1859D01*
X11762Y-2071D01*
X11761Y-2301D01*
X11849Y-2513D01*
X12011Y-2675D01*
X12038Y-2686D01*
X12012Y-2697D01*
X11850Y-2859D01*
X11762Y-3071D01*
X11761Y-3301D01*
X11849Y-3513D01*
X11927Y-3591D01*
X10989Y-3591D01*
X11067Y-3514D01*
X11155Y-3302D01*
X11155Y-3072D01*
X11068Y-2860D01*
X10906Y-2698D01*
X10879Y-2687D01*
X10905Y-2676D01*
X11067Y-2514D01*
X11155Y-2302D01*
X11155Y-2072D01*
X11068Y-1860D01*
X10906Y-1698D01*
X10694Y-1610D01*
X10464Y-1609D01*
X10252Y-1697D01*
X10090Y-1859D01*
X10002Y-2071D01*
X10001Y-2301D01*
X10089Y-2513D01*
X10251Y-2675D01*
X10278Y-2686D01*
X10252Y-2697D01*
X10090Y-2859D01*
X10002Y-3071D01*
X10001Y-3252D01*
X9927Y-3203D01*
X9803Y-3178D01*
X9645Y-3178D01*
X9645Y-1558D01*
X9562Y-1357D01*
X9548Y-1343D01*
X9548Y-996D01*
X9548Y-754D01*
X9511Y-716D01*
X9148Y-716D01*
X9148Y-1079D01*
X9186Y-1116D01*
X9369Y-1116D01*
X9428Y-1116D01*
X9483Y-1094D01*
X9526Y-1051D01*
X9548Y-996D01*
X9548Y-1343D01*
X9409Y-1203D01*
X9208Y-1120D01*
X9048Y-1120D01*
X9048Y-1079D01*
X9048Y-716D01*
X8686Y-716D01*
X8648Y-754D01*
X8648Y-996D01*
X8671Y-1051D01*
X8713Y-1094D01*
X8768Y-1116D01*
X8828Y-1116D01*
X9011Y-1116D01*
X9048Y-1079D01*
X9048Y-1120D01*
X8990Y-1119D01*
X8789Y-1203D01*
X8635Y-1356D01*
X8598Y-1445D01*
X8562Y-1357D01*
X8548Y-1343D01*
X8548Y-996D01*
X8548Y-754D01*
X8511Y-716D01*
X8148Y-716D01*
X8148Y-1079D01*
X8186Y-1116D01*
X8369Y-1116D01*
X8428Y-1116D01*
X8483Y-1094D01*
X8526Y-1051D01*
X8548Y-996D01*
X8548Y-1343D01*
X8409Y-1203D01*
X8208Y-1120D01*
X8048Y-1120D01*
X8048Y-1079D01*
X8048Y-716D01*
X7686Y-716D01*
X7648Y-754D01*
X7648Y-996D01*
X7671Y-1051D01*
X7713Y-1094D01*
X7768Y-1116D01*
X7828Y-1116D01*
X8011Y-1116D01*
X8048Y-1079D01*
X8048Y-1120D01*
X7990Y-1119D01*
X7789Y-1203D01*
X7635Y-1356D01*
X7552Y-1557D01*
X7551Y-1775D01*
X7635Y-1976D01*
X7788Y-2130D01*
X7989Y-2213D01*
X8207Y-2213D01*
X8408Y-2130D01*
X8562Y-1977D01*
X8598Y-1888D01*
X8635Y-1976D01*
X8788Y-2130D01*
X8989Y-2213D01*
X9207Y-2213D01*
X9408Y-2130D01*
X9562Y-1977D01*
X9645Y-1776D01*
X9645Y-1558D01*
X9645Y-3178D01*
X7952Y-3178D01*
X7828Y-3203D01*
X7722Y-3273D01*
X7365Y-3631D01*
X6985Y-3631D01*
X6937Y-3583D01*
X6937Y-3548D01*
X6873Y-3393D01*
X6755Y-3274D01*
X6600Y-3210D01*
X6432Y-3209D01*
X6277Y-3274D01*
X6244Y-3306D01*
X5442Y-3306D01*
X5318Y-3331D01*
X5212Y-3401D01*
X4559Y-4054D01*
X4493Y-4027D01*
X4325Y-4026D01*
X4170Y-4090D01*
X4052Y-4209D01*
X3987Y-4364D01*
X3987Y-4532D01*
X4051Y-4687D01*
X4170Y-4806D01*
X4325Y-4870D01*
X4492Y-4870D01*
X4648Y-4806D01*
X4693Y-4760D01*
X4750Y-4749D01*
X4856Y-4679D01*
X5577Y-3957D01*
X6244Y-3957D01*
X6276Y-3989D01*
X6431Y-4053D01*
X6486Y-4053D01*
X6620Y-4186D01*
X6725Y-4257D01*
X6850Y-4282D01*
X7500Y-4282D01*
X7624Y-4257D01*
X7730Y-4186D01*
X8087Y-3829D01*
X8195Y-3829D01*
X8141Y-3960D01*
X8141Y-3996D01*
X7643Y-4494D01*
X7573Y-4599D01*
X7548Y-4724D01*
X7548Y-6164D01*
X7446Y-6265D01*
X7446Y-6265D01*
X7345Y-6367D01*
X5049Y-6367D01*
X4924Y-6392D01*
X4889Y-6415D01*
X4818Y-6462D01*
X4754Y-6526D01*
X4709Y-6526D01*
X4554Y-6590D01*
X4435Y-6709D01*
X4371Y-6864D01*
X4371Y-7032D01*
X4435Y-7187D01*
X4554Y-7306D01*
X4709Y-7370D01*
X4754Y-7370D01*
X5005Y-7621D01*
X5092Y-7680D01*
X5030Y-7829D01*
X5030Y-7996D01*
X5094Y-8152D01*
X5213Y-8270D01*
X5368Y-8335D01*
X5414Y-8335D01*
X5422Y-8343D01*
X5422Y-9726D01*
X5393Y-9655D01*
X5239Y-9501D01*
X5038Y-9417D01*
X4820Y-9417D01*
X4619Y-9500D01*
X4465Y-9654D01*
X4429Y-9742D01*
X4393Y-9655D01*
X4239Y-9501D01*
X4038Y-9417D01*
X3820Y-9417D01*
X3619Y-9500D01*
X3465Y-9654D01*
X3382Y-9855D01*
X3382Y-10072D01*
X3465Y-10273D01*
X3618Y-10427D01*
X3707Y-10464D01*
X3619Y-10500D01*
X3465Y-10654D01*
X3382Y-10855D01*
X3382Y-11072D01*
X3465Y-11273D01*
X3618Y-11427D01*
X3707Y-11464D01*
X3619Y-11500D01*
X3465Y-11654D01*
X3382Y-11855D01*
X3382Y-12072D01*
X3465Y-12273D01*
X3618Y-12427D01*
X3707Y-12464D01*
X3619Y-12500D01*
X3465Y-12654D01*
X3382Y-12855D01*
X3382Y-13072D01*
X3465Y-13273D01*
X3618Y-13427D01*
X3707Y-13464D01*
X3619Y-13500D01*
X3465Y-13654D01*
X3394Y-13825D01*
X2709Y-14510D01*
X2709Y-1795D01*
X2708Y-1344D01*
X2538Y-936D01*
X2400Y-819D01*
X1645Y-1574D01*
X2400Y-2329D01*
X2538Y-2213D01*
X2709Y-1795D01*
X2709Y-14510D01*
X2399Y-14820D01*
X2329Y-14924D01*
X2329Y-2400D01*
X1574Y-1645D01*
X819Y-2400D01*
X936Y-2538D01*
X1353Y-2709D01*
X1804Y-2708D01*
X2213Y-2538D01*
X2329Y-2400D01*
X2329Y-14924D01*
X2320Y-14939D01*
X2292Y-15078D01*
X2292Y-23858D01*
X2320Y-23997D01*
X2399Y-24116D01*
X4083Y-25800D01*
X4133Y-25920D01*
X4133Y-30649D01*
X4133Y-31289D01*
X4160Y-31429D01*
X4239Y-31547D01*
X5942Y-33250D01*
X6061Y-33329D01*
X6061Y-33329D01*
X6200Y-33357D01*
X10295Y-33357D01*
X10434Y-33329D01*
X10434Y-33329D01*
X10553Y-33250D01*
X11360Y-32443D01*
X11360Y-32443D01*
X11360Y-32443D01*
X19273Y-24529D01*
X19352Y-24411D01*
X19352Y-24411D01*
X19380Y-24271D01*
X19380Y-22007D01*
X19352Y-21868D01*
X19352Y-21868D01*
X19273Y-21749D01*
X18801Y-21277D01*
X18682Y-21198D01*
X18543Y-21170D01*
X18438Y-21170D01*
X17746Y-20478D01*
X17746Y-19540D01*
X19088Y-18199D01*
X20688Y-18199D01*
X20828Y-18171D01*
X20828Y-18171D01*
X20947Y-18092D01*
X23132Y-15907D01*
X23211Y-15789D01*
X23211Y-15789D01*
X23238Y-15649D01*
X23238Y-12814D01*
X23238Y-12814D01*
X23228Y-12764D01*
X23316Y-12851D01*
X23316Y-16026D01*
X20849Y-18493D01*
X19862Y-18493D01*
X19737Y-18518D01*
X19702Y-18541D01*
X19631Y-18588D01*
X18347Y-19873D01*
X18302Y-19873D01*
X18147Y-19937D01*
X18028Y-20056D01*
X17964Y-20210D01*
X17963Y-20378D01*
X18027Y-20533D01*
X18146Y-20652D01*
X18301Y-20717D01*
X18469Y-20717D01*
X18624Y-20653D01*
X18743Y-20534D01*
X18807Y-20379D01*
X18807Y-20333D01*
X19997Y-19144D01*
X20984Y-19144D01*
X21108Y-19119D01*
X21214Y-19049D01*
X23871Y-16391D01*
X23871Y-16391D01*
X23906Y-16339D01*
X23906Y-17345D01*
X21853Y-19398D01*
X20605Y-19398D01*
X20573Y-19366D01*
X20418Y-19302D01*
X20251Y-19302D01*
X20095Y-19366D01*
X19977Y-19485D01*
X19912Y-19640D01*
X19912Y-19807D01*
X19976Y-19963D01*
X20095Y-20081D01*
X20250Y-20146D01*
X20418Y-20146D01*
X20573Y-20082D01*
X20605Y-20050D01*
X21988Y-20050D01*
X22112Y-20025D01*
X22218Y-19954D01*
X24462Y-17710D01*
X24462Y-17710D01*
X24533Y-17604D01*
X24557Y-17480D01*
X24557Y-17480D01*
X24557Y-12598D01*
X24533Y-12473D01*
X24462Y-12368D01*
X24462Y-12368D01*
X23055Y-10960D01*
X23055Y-10960D01*
X23055Y-10960D01*
X22455Y-10360D01*
X22527Y-10330D01*
X22889Y-10692D01*
X22889Y-10692D01*
X22889Y-10692D01*
X25166Y-12969D01*
X25166Y-20944D01*
X25166Y-22125D01*
X25191Y-22250D01*
X25261Y-22356D01*
X27135Y-24229D01*
X27135Y-32814D01*
X27159Y-32939D01*
X27230Y-33045D01*
X28962Y-34777D01*
X28962Y-34777D01*
X29033Y-34824D01*
X29068Y-34848D01*
X29068Y-34848D01*
X29192Y-34872D01*
X29235Y-34872D01*
X29831Y-35469D01*
X29831Y-35649D01*
X29856Y-35774D01*
X29927Y-35879D01*
X30576Y-36529D01*
X30576Y-36529D01*
X30682Y-36600D01*
X30807Y-36624D01*
X32834Y-36624D01*
X32959Y-36600D01*
X33064Y-36529D01*
X33158Y-36435D01*
X33203Y-36435D01*
X33358Y-36371D01*
X33477Y-36253D01*
X33541Y-36098D01*
X33542Y-35930D01*
X33477Y-35775D01*
X33359Y-35656D01*
X33204Y-35592D01*
X33081Y-35591D01*
X33081Y-30259D01*
X32998Y-30060D01*
X32846Y-29907D01*
X32647Y-29824D01*
X32431Y-29824D01*
X32232Y-29907D01*
X32079Y-30059D01*
X31996Y-30258D01*
X31996Y-30474D01*
X32079Y-30673D01*
X32231Y-30826D01*
X32430Y-30908D01*
X32646Y-30909D01*
X32845Y-30826D01*
X32998Y-30674D01*
X33080Y-30475D01*
X33081Y-30259D01*
X33081Y-35591D01*
X33036Y-35591D01*
X32881Y-35655D01*
X32762Y-35774D01*
X32698Y-35929D01*
X32698Y-35973D01*
X30941Y-35973D01*
X30483Y-35514D01*
X30483Y-35334D01*
X30458Y-35210D01*
X30387Y-35104D01*
X30114Y-34831D01*
X30241Y-34831D01*
X30396Y-34767D01*
X30514Y-34648D01*
X30579Y-34493D01*
X30579Y-34325D01*
X30515Y-34170D01*
X30483Y-34138D01*
X30483Y-32418D01*
X30769Y-32132D01*
X30839Y-32026D01*
X30864Y-31902D01*
X30864Y-31902D01*
X30864Y-30807D01*
X30998Y-30674D01*
X31080Y-30475D01*
X31081Y-30259D01*
X30998Y-30060D01*
X30846Y-29907D01*
X30647Y-29824D01*
X30431Y-29824D01*
X30232Y-29907D01*
X30079Y-30059D01*
X29996Y-30258D01*
X29996Y-30474D01*
X30079Y-30673D01*
X30213Y-30808D01*
X30213Y-31767D01*
X29927Y-32053D01*
X29856Y-32158D01*
X29831Y-32283D01*
X29831Y-34138D01*
X29800Y-34170D01*
X29735Y-34325D01*
X29735Y-34452D01*
X29600Y-34317D01*
X29494Y-34246D01*
X29370Y-34221D01*
X29327Y-34221D01*
X29081Y-33974D01*
X29081Y-30259D01*
X28998Y-30060D01*
X28846Y-29907D01*
X28763Y-29873D01*
X28763Y-16756D01*
X28752Y-16558D01*
X28698Y-16429D01*
X28626Y-16390D01*
X28555Y-16460D01*
X28555Y-16319D01*
X28516Y-16247D01*
X28328Y-16181D01*
X28130Y-16193D01*
X28001Y-16247D01*
X27962Y-16319D01*
X28258Y-16616D01*
X28555Y-16319D01*
X28555Y-16460D01*
X28329Y-16686D01*
X28626Y-16983D01*
X28698Y-16944D01*
X28763Y-16756D01*
X28763Y-29873D01*
X28647Y-29824D01*
X28555Y-29824D01*
X28555Y-17054D01*
X28258Y-16757D01*
X28188Y-16828D01*
X28188Y-16686D01*
X27891Y-16390D01*
X27819Y-16429D01*
X27753Y-16617D01*
X27765Y-16815D01*
X27819Y-16944D01*
X27891Y-16983D01*
X28188Y-16686D01*
X28188Y-16828D01*
X27962Y-17054D01*
X28001Y-17126D01*
X28189Y-17191D01*
X28387Y-17180D01*
X28516Y-17126D01*
X28555Y-17054D01*
X28555Y-29824D01*
X28431Y-29824D01*
X28232Y-29907D01*
X28079Y-30059D01*
X27996Y-30258D01*
X27996Y-30474D01*
X28079Y-30673D01*
X28231Y-30826D01*
X28430Y-30908D01*
X28646Y-30909D01*
X28845Y-30826D01*
X28998Y-30674D01*
X29080Y-30475D01*
X29081Y-30259D01*
X29081Y-33974D01*
X27786Y-32680D01*
X27786Y-24094D01*
X27786Y-24094D01*
X27761Y-23969D01*
X27761Y-23969D01*
X27738Y-23934D01*
X27690Y-23864D01*
X27690Y-23864D01*
X25817Y-21991D01*
X25817Y-20944D01*
X25817Y-12834D01*
X25817Y-12834D01*
X25792Y-12710D01*
X25792Y-12710D01*
X25769Y-12674D01*
X25722Y-12604D01*
X25722Y-12604D01*
X23350Y-10232D01*
X23350Y-10232D01*
X23350Y-10232D01*
X22838Y-9720D01*
X22732Y-9649D01*
X22614Y-9626D01*
X22581Y-9593D01*
X22426Y-9529D01*
X22258Y-9528D01*
X22143Y-9576D01*
X22260Y-9459D01*
X23349Y-9459D01*
X25537Y-11647D01*
X25537Y-11647D01*
X25537Y-11647D01*
X28273Y-14383D01*
X28379Y-14454D01*
X28503Y-14479D01*
X31397Y-14479D01*
X37187Y-14479D01*
X37883Y-15174D01*
X37883Y-17955D01*
X37558Y-18279D01*
X37558Y-16007D01*
X37558Y-15366D01*
X37558Y-15306D01*
X37535Y-15251D01*
X37493Y-15209D01*
X37438Y-15186D01*
X37146Y-15186D01*
X37108Y-15224D01*
X37108Y-15636D01*
X37521Y-15636D01*
X37558Y-15599D01*
X37558Y-15366D01*
X37558Y-16007D01*
X37558Y-15774D01*
X37521Y-15736D01*
X37108Y-15736D01*
X37108Y-16149D01*
X37146Y-16186D01*
X37438Y-16186D01*
X37493Y-16164D01*
X37535Y-16122D01*
X37558Y-16066D01*
X37558Y-16007D01*
X37558Y-18279D01*
X37008Y-18829D01*
X37008Y-16149D01*
X37008Y-15736D01*
X37008Y-15636D01*
X37008Y-15224D01*
X36971Y-15186D01*
X36679Y-15186D01*
X36624Y-15209D01*
X36581Y-15251D01*
X36558Y-15306D01*
X36558Y-15366D01*
X36558Y-15599D01*
X36596Y-15636D01*
X37008Y-15636D01*
X37008Y-15736D01*
X36596Y-15736D01*
X36558Y-15774D01*
X36558Y-16007D01*
X36558Y-16066D01*
X36581Y-16122D01*
X36624Y-16164D01*
X36679Y-16186D01*
X36971Y-16186D01*
X37008Y-16149D01*
X37008Y-18829D01*
X31223Y-24615D01*
X31166Y-24615D01*
X31134Y-24583D01*
X30979Y-24519D01*
X30812Y-24519D01*
X30657Y-24583D01*
X30584Y-24655D01*
X30584Y-17283D01*
X30657Y-17283D01*
X30748Y-17246D01*
X30818Y-17176D01*
X30855Y-17086D01*
X30855Y-16988D01*
X30855Y-16288D01*
X30818Y-16197D01*
X30748Y-16127D01*
X30658Y-16090D01*
X30560Y-16090D01*
X29878Y-16090D01*
X30131Y-15837D01*
X34475Y-15837D01*
X34552Y-16024D01*
X34720Y-16192D01*
X34939Y-16283D01*
X35177Y-16283D01*
X35396Y-16193D01*
X35564Y-16025D01*
X35655Y-15806D01*
X35655Y-15568D01*
X35565Y-15349D01*
X35397Y-15181D01*
X35178Y-15090D01*
X34940Y-15089D01*
X34880Y-15114D01*
X34844Y-15107D01*
X29980Y-15107D01*
X29840Y-15135D01*
X29722Y-15214D01*
X28964Y-15972D01*
X28885Y-16090D01*
X28857Y-16230D01*
X28857Y-28666D01*
X28800Y-28803D01*
X28800Y-28971D01*
X28864Y-29126D01*
X28983Y-29245D01*
X29138Y-29309D01*
X29305Y-29309D01*
X29461Y-29245D01*
X29579Y-29127D01*
X29644Y-28972D01*
X29644Y-28804D01*
X29587Y-28666D01*
X29587Y-16381D01*
X29662Y-16306D01*
X29662Y-16385D01*
X29662Y-17085D01*
X29699Y-17176D01*
X29768Y-17246D01*
X29859Y-17283D01*
X29933Y-17283D01*
X29933Y-27845D01*
X29915Y-27845D01*
X29824Y-27882D01*
X29754Y-27951D01*
X29717Y-28042D01*
X29717Y-28140D01*
X29717Y-28690D01*
X29754Y-28781D01*
X29823Y-28851D01*
X29914Y-28888D01*
X30012Y-28888D01*
X30562Y-28888D01*
X30653Y-28851D01*
X30723Y-28781D01*
X30760Y-28691D01*
X30760Y-28593D01*
X30760Y-28043D01*
X30723Y-27952D01*
X30653Y-27882D01*
X30584Y-27853D01*
X30584Y-25226D01*
X30656Y-25298D01*
X30811Y-25362D01*
X30979Y-25362D01*
X31134Y-25298D01*
X31166Y-25266D01*
X31358Y-25266D01*
X31482Y-25241D01*
X31588Y-25171D01*
X38438Y-18320D01*
X38438Y-18320D01*
X38486Y-18250D01*
X38509Y-18215D01*
X38509Y-18215D01*
X38534Y-18090D01*
X38534Y-18090D01*
X38534Y-36950D01*
X38433Y-36831D01*
X38016Y-36660D01*
X37565Y-36661D01*
X37156Y-36831D01*
X37040Y-36969D01*
X37795Y-37724D01*
X38550Y-36969D01*
X38550Y-37110D01*
X37865Y-37795D01*
X37871Y-37800D01*
X37800Y-37871D01*
X37795Y-37865D01*
X37724Y-37936D01*
X37724Y-37795D01*
X36969Y-37040D01*
X36831Y-37156D01*
X36660Y-37574D01*
X36661Y-38025D01*
X36831Y-38433D01*
X36969Y-38550D01*
X37724Y-37795D01*
X37724Y-37936D01*
X37040Y-38621D01*
X37156Y-38759D01*
X37574Y-38930D01*
X38025Y-38928D01*
X38414Y-38767D01*
X38078Y-39103D01*
X36503Y-39103D01*
X36503Y-37972D01*
X36498Y-37594D01*
X36363Y-37267D01*
X36243Y-37173D01*
X36173Y-37243D01*
X36173Y-37102D01*
X36079Y-36983D01*
X35728Y-36843D01*
X35350Y-36847D01*
X35081Y-36959D01*
X35081Y-30259D01*
X34998Y-30060D01*
X34846Y-29907D01*
X34647Y-29824D01*
X34431Y-29824D01*
X34232Y-29907D01*
X34079Y-30059D01*
X33996Y-30258D01*
X33996Y-30474D01*
X34079Y-30673D01*
X34231Y-30826D01*
X34430Y-30908D01*
X34646Y-30909D01*
X34845Y-30826D01*
X34998Y-30674D01*
X35080Y-30475D01*
X35081Y-30259D01*
X35081Y-36959D01*
X35023Y-36983D01*
X34929Y-37102D01*
X35551Y-37724D01*
X36173Y-37102D01*
X36173Y-37243D01*
X35621Y-37795D01*
X36243Y-38417D01*
X36363Y-38323D01*
X36503Y-37972D01*
X36503Y-39103D01*
X36173Y-39103D01*
X36173Y-38488D01*
X35551Y-37865D01*
X35480Y-37936D01*
X35480Y-37795D01*
X34858Y-37173D01*
X34739Y-37267D01*
X34598Y-37618D01*
X34603Y-37995D01*
X34739Y-38323D01*
X34858Y-38417D01*
X35480Y-37795D01*
X35480Y-37936D01*
X34929Y-38488D01*
X35023Y-38607D01*
X35373Y-38747D01*
X35751Y-38742D01*
X36079Y-38607D01*
X36173Y-38488D01*
X36173Y-39103D01*
X33760Y-39103D01*
X33760Y-28263D01*
X33681Y-28071D01*
X33534Y-27924D01*
X33343Y-27845D01*
X33135Y-27844D01*
X32943Y-27924D01*
X32796Y-28070D01*
X32717Y-28262D01*
X32716Y-28470D01*
X32796Y-28662D01*
X32942Y-28809D01*
X33134Y-28888D01*
X33342Y-28888D01*
X33534Y-28809D01*
X33681Y-28662D01*
X33760Y-28471D01*
X33760Y-28263D01*
X33760Y-39103D01*
X33369Y-39103D01*
X33369Y-37587D01*
X33210Y-37203D01*
X32916Y-36908D01*
X32531Y-36748D01*
X32115Y-36748D01*
X31730Y-36907D01*
X31435Y-37201D01*
X31276Y-37586D01*
X31275Y-38002D01*
X31434Y-38387D01*
X31729Y-38682D01*
X32113Y-38841D01*
X32530Y-38842D01*
X32915Y-38683D01*
X33209Y-38389D01*
X33369Y-38004D01*
X33369Y-37587D01*
X33369Y-39103D01*
X30141Y-39103D01*
X30141Y-37587D01*
X29982Y-37203D01*
X29688Y-36908D01*
X29681Y-36905D01*
X29681Y-35459D01*
X29598Y-35260D01*
X29446Y-35107D01*
X29247Y-35024D01*
X29031Y-35024D01*
X28832Y-35107D01*
X28679Y-35259D01*
X28596Y-35458D01*
X28596Y-35674D01*
X28679Y-35873D01*
X28831Y-36026D01*
X29030Y-36108D01*
X29246Y-36109D01*
X29445Y-36026D01*
X29598Y-35874D01*
X29680Y-35675D01*
X29681Y-35459D01*
X29681Y-36905D01*
X29303Y-36748D01*
X28887Y-36748D01*
X28502Y-36907D01*
X28207Y-37201D01*
X28047Y-37586D01*
X28047Y-38002D01*
X28206Y-38387D01*
X28500Y-38682D01*
X28885Y-38841D01*
X29301Y-38842D01*
X29686Y-38683D01*
X29981Y-38389D01*
X30141Y-38004D01*
X30141Y-37587D01*
X30141Y-39103D01*
X27681Y-39103D01*
X27681Y-35459D01*
X27598Y-35260D01*
X27446Y-35107D01*
X27247Y-35024D01*
X27031Y-35024D01*
X26832Y-35107D01*
X26756Y-35182D01*
X26756Y-28264D01*
X26674Y-28064D01*
X26521Y-27912D01*
X26322Y-27829D01*
X26107Y-27829D01*
X25907Y-27911D01*
X25755Y-28064D01*
X25672Y-28263D01*
X25672Y-28479D01*
X25754Y-28678D01*
X25906Y-28830D01*
X26106Y-28913D01*
X26321Y-28913D01*
X26521Y-28831D01*
X26673Y-28679D01*
X26756Y-28479D01*
X26756Y-28264D01*
X26756Y-35182D01*
X26679Y-35259D01*
X26596Y-35458D01*
X26596Y-35674D01*
X26679Y-35873D01*
X26831Y-36026D01*
X27030Y-36108D01*
X27246Y-36109D01*
X27445Y-36026D01*
X27598Y-35874D01*
X27680Y-35675D01*
X27681Y-35459D01*
X27681Y-39103D01*
X26087Y-39103D01*
X26087Y-29839D01*
X26005Y-29639D01*
X25852Y-29487D01*
X25653Y-29404D01*
X25437Y-29404D01*
X25418Y-29412D01*
X25418Y-28264D01*
X25335Y-28064D01*
X25183Y-27912D01*
X24984Y-27829D01*
X24768Y-27829D01*
X24569Y-27911D01*
X24416Y-28064D01*
X24333Y-28263D01*
X24333Y-28479D01*
X24416Y-28678D01*
X24568Y-28830D01*
X24767Y-28913D01*
X24983Y-28913D01*
X25182Y-28831D01*
X25335Y-28679D01*
X25417Y-28479D01*
X25418Y-28264D01*
X25418Y-29412D01*
X25238Y-29486D01*
X25085Y-29638D01*
X25003Y-29838D01*
X25002Y-30053D01*
X25085Y-30253D01*
X25237Y-30405D01*
X25436Y-30488D01*
X25652Y-30488D01*
X25851Y-30406D01*
X26004Y-30253D01*
X26087Y-30054D01*
X26087Y-29839D01*
X26087Y-39103D01*
X25681Y-39103D01*
X25681Y-35459D01*
X25598Y-35260D01*
X25446Y-35107D01*
X25247Y-35024D01*
X25031Y-35024D01*
X24832Y-35107D01*
X24748Y-35190D01*
X24748Y-29839D01*
X24666Y-29639D01*
X24514Y-29487D01*
X24314Y-29404D01*
X24099Y-29404D01*
X24079Y-29412D01*
X24079Y-28264D01*
X23997Y-28064D01*
X23844Y-27912D01*
X23645Y-27829D01*
X23429Y-27829D01*
X23230Y-27911D01*
X23077Y-28064D01*
X22995Y-28263D01*
X22995Y-28479D01*
X23077Y-28678D01*
X23229Y-28830D01*
X23429Y-28913D01*
X23644Y-28913D01*
X23844Y-28831D01*
X23996Y-28679D01*
X24079Y-28479D01*
X24079Y-28264D01*
X24079Y-29412D01*
X23899Y-29486D01*
X23747Y-29638D01*
X23664Y-29838D01*
X23664Y-30053D01*
X23746Y-30253D01*
X23881Y-30387D01*
X23881Y-30855D01*
X21708Y-33027D01*
X21638Y-33133D01*
X21613Y-33257D01*
X21613Y-34125D01*
X21479Y-34259D01*
X21396Y-34458D01*
X21396Y-34674D01*
X21479Y-34873D01*
X21631Y-35026D01*
X21830Y-35108D01*
X22046Y-35109D01*
X22245Y-35026D01*
X22398Y-34874D01*
X22480Y-34675D01*
X22481Y-34459D01*
X22398Y-34260D01*
X22264Y-34125D01*
X22264Y-33392D01*
X24436Y-31220D01*
X24507Y-31114D01*
X24532Y-30990D01*
X24532Y-30990D01*
X24532Y-30387D01*
X24665Y-30253D01*
X24748Y-30054D01*
X24748Y-29839D01*
X24748Y-35190D01*
X24679Y-35259D01*
X24596Y-35458D01*
X24596Y-35674D01*
X24679Y-35873D01*
X24831Y-36026D01*
X25030Y-36108D01*
X25246Y-36109D01*
X25445Y-36026D01*
X25598Y-35874D01*
X25680Y-35675D01*
X25681Y-35459D01*
X25681Y-39103D01*
X24360Y-39103D01*
X24360Y-37593D01*
X24360Y-37043D01*
X24323Y-36952D01*
X24253Y-36882D01*
X24163Y-36845D01*
X24065Y-36845D01*
X23681Y-36845D01*
X23681Y-35459D01*
X23598Y-35260D01*
X23446Y-35107D01*
X23247Y-35024D01*
X23031Y-35024D01*
X22832Y-35107D01*
X22679Y-35259D01*
X22596Y-35458D01*
X22596Y-35674D01*
X22679Y-35873D01*
X22831Y-36026D01*
X23030Y-36108D01*
X23246Y-36109D01*
X23445Y-36026D01*
X23598Y-35874D01*
X23680Y-35675D01*
X23681Y-35459D01*
X23681Y-36845D01*
X23515Y-36845D01*
X23424Y-36882D01*
X23354Y-36951D01*
X23317Y-37042D01*
X23317Y-37140D01*
X23317Y-37690D01*
X23354Y-37781D01*
X23423Y-37851D01*
X23514Y-37888D01*
X23612Y-37888D01*
X24162Y-37888D01*
X24253Y-37851D01*
X24323Y-37781D01*
X24360Y-37691D01*
X24360Y-37593D01*
X24360Y-39103D01*
X21360Y-39103D01*
X21360Y-37263D01*
X21281Y-37071D01*
X21134Y-36924D01*
X20943Y-36845D01*
X20735Y-36844D01*
X20543Y-36924D01*
X20481Y-36986D01*
X20481Y-34459D01*
X20398Y-34260D01*
X20246Y-34107D01*
X20047Y-34024D01*
X19831Y-34024D01*
X19632Y-34107D01*
X19479Y-34259D01*
X19396Y-34458D01*
X19396Y-34674D01*
X19479Y-34873D01*
X19631Y-35026D01*
X19830Y-35108D01*
X20046Y-35109D01*
X20245Y-35026D01*
X20398Y-34874D01*
X20480Y-34675D01*
X20481Y-34459D01*
X20481Y-36986D01*
X20396Y-37070D01*
X20317Y-37262D01*
X20316Y-37470D01*
X20396Y-37662D01*
X20542Y-37809D01*
X20734Y-37888D01*
X20942Y-37888D01*
X21134Y-37809D01*
X21281Y-37662D01*
X21360Y-37471D01*
X21360Y-37263D01*
X21360Y-39103D01*
X18481Y-39103D01*
X18481Y-34459D01*
X18398Y-34260D01*
X18246Y-34107D01*
X18047Y-34024D01*
X17831Y-34024D01*
X17760Y-34053D01*
X17760Y-32993D01*
X17760Y-32443D01*
X17723Y-32352D01*
X17653Y-32282D01*
X17563Y-32245D01*
X17465Y-32245D01*
X16915Y-32245D01*
X16824Y-32282D01*
X16754Y-32351D01*
X16717Y-32442D01*
X16717Y-32540D01*
X16717Y-33090D01*
X16754Y-33181D01*
X16823Y-33251D01*
X16914Y-33288D01*
X17012Y-33288D01*
X17562Y-33288D01*
X17653Y-33251D01*
X17723Y-33181D01*
X17760Y-33091D01*
X17760Y-32993D01*
X17760Y-34053D01*
X17632Y-34107D01*
X17479Y-34259D01*
X17396Y-34458D01*
X17396Y-34674D01*
X17479Y-34873D01*
X17631Y-35026D01*
X17830Y-35108D01*
X18046Y-35109D01*
X18245Y-35026D01*
X18398Y-34874D01*
X18480Y-34675D01*
X18481Y-34459D01*
X18481Y-39103D01*
X16481Y-39103D01*
X16481Y-34459D01*
X16398Y-34260D01*
X16246Y-34107D01*
X16047Y-34024D01*
X15831Y-34024D01*
X15632Y-34107D01*
X15479Y-34259D01*
X15396Y-34458D01*
X15396Y-34674D01*
X15479Y-34873D01*
X15631Y-35026D01*
X15830Y-35108D01*
X16046Y-35109D01*
X16245Y-35026D01*
X16398Y-34874D01*
X16480Y-34675D01*
X16481Y-34459D01*
X16481Y-39103D01*
X14760Y-39103D01*
X14760Y-32663D01*
X14681Y-32471D01*
X14534Y-32324D01*
X14343Y-32245D01*
X14135Y-32244D01*
X13943Y-32324D01*
X13796Y-32470D01*
X13717Y-32662D01*
X13716Y-32870D01*
X13796Y-33062D01*
X13942Y-33209D01*
X14134Y-33288D01*
X14342Y-33288D01*
X14534Y-33209D01*
X14681Y-33062D01*
X14760Y-32871D01*
X14760Y-32663D01*
X14760Y-39103D01*
X6979Y-39103D01*
X6979Y-35684D01*
X6979Y-35084D01*
X6942Y-34993D01*
X6882Y-34933D01*
X6942Y-34873D01*
X6979Y-34782D01*
X6979Y-34684D01*
X6979Y-34084D01*
X6942Y-33993D01*
X6873Y-33923D01*
X6782Y-33886D01*
X6684Y-33886D01*
X6084Y-33886D01*
X5993Y-33923D01*
X5923Y-33993D01*
X5886Y-34083D01*
X5886Y-34112D01*
X5743Y-33969D01*
X5542Y-33886D01*
X5324Y-33886D01*
X5123Y-33969D01*
X4969Y-34122D01*
X4886Y-34323D01*
X4886Y-34461D01*
X4875Y-34312D01*
X4831Y-34205D01*
X4764Y-34172D01*
X4693Y-34243D01*
X4693Y-34101D01*
X4660Y-34034D01*
X4490Y-33977D01*
X4312Y-33990D01*
X4205Y-34034D01*
X4172Y-34101D01*
X4433Y-34362D01*
X4693Y-34101D01*
X4693Y-34243D01*
X4503Y-34433D01*
X4764Y-34693D01*
X4831Y-34660D01*
X4886Y-34497D01*
X4886Y-34541D01*
X4969Y-34742D01*
X5122Y-34896D01*
X5211Y-34933D01*
X5123Y-34969D01*
X4969Y-35122D01*
X4886Y-35323D01*
X4886Y-35461D01*
X4875Y-35312D01*
X4831Y-35205D01*
X4764Y-35172D01*
X4693Y-35243D01*
X4693Y-35101D01*
X4693Y-34764D01*
X4433Y-34503D01*
X4362Y-34574D01*
X4362Y-34433D01*
X4101Y-34172D01*
X4034Y-34205D01*
X3977Y-34375D01*
X3990Y-34553D01*
X4034Y-34660D01*
X4101Y-34693D01*
X4362Y-34433D01*
X4362Y-34574D01*
X4172Y-34764D01*
X4205Y-34831D01*
X4375Y-34888D01*
X4553Y-34875D01*
X4660Y-34831D01*
X4693Y-34764D01*
X4693Y-35101D01*
X4660Y-35034D01*
X4490Y-34977D01*
X4312Y-34990D01*
X4205Y-35034D01*
X4172Y-35101D01*
X4433Y-35362D01*
X4693Y-35101D01*
X4693Y-35243D01*
X4503Y-35433D01*
X4764Y-35693D01*
X4831Y-35660D01*
X4886Y-35497D01*
X4886Y-35541D01*
X4969Y-35742D01*
X5122Y-35896D01*
X5323Y-35979D01*
X5541Y-35980D01*
X5742Y-35896D01*
X5886Y-35753D01*
X5886Y-35781D01*
X5923Y-35872D01*
X5993Y-35942D01*
X6083Y-35979D01*
X6181Y-35979D01*
X6781Y-35979D01*
X6872Y-35942D01*
X6942Y-35873D01*
X6979Y-35782D01*
X6979Y-35684D01*
X6979Y-39103D01*
X4693Y-39103D01*
X4693Y-35764D01*
X4433Y-35503D01*
X4362Y-35574D01*
X4362Y-35433D01*
X4101Y-35172D01*
X4034Y-35205D01*
X3977Y-35375D01*
X3990Y-35553D01*
X4034Y-35660D01*
X4101Y-35693D01*
X4362Y-35433D01*
X4362Y-35574D01*
X4172Y-35764D01*
X4205Y-35831D01*
X4375Y-35888D01*
X4553Y-35875D01*
X4660Y-35831D01*
X4693Y-35764D01*
X4693Y-39103D01*
X2709Y-39103D01*
X2709Y-38016D01*
X2708Y-37565D01*
X2538Y-37156D01*
X2400Y-37040D01*
X2329Y-37110D01*
X2329Y-36969D01*
X2213Y-36831D01*
X1795Y-36660D01*
X1344Y-36661D01*
X936Y-36831D01*
X819Y-36969D01*
X1574Y-37724D01*
X2329Y-36969D01*
X2329Y-37110D01*
X1645Y-37795D01*
X2400Y-38550D01*
X2538Y-38433D01*
X2709Y-38016D01*
X2709Y-39103D01*
X2329Y-39103D01*
X2329Y-38621D01*
X1574Y-37865D01*
X1504Y-37936D01*
X1504Y-37795D01*
X749Y-37040D01*
X610Y-37156D01*
X439Y-37574D01*
X441Y-38025D01*
X610Y-38433D01*
X749Y-38550D01*
X1504Y-37795D01*
X1504Y-37936D01*
X819Y-38621D01*
X936Y-38759D01*
X1353Y-38930D01*
X1804Y-38928D01*
X2213Y-38759D01*
X2329Y-38621D01*
X2329Y-39103D01*
X897Y-39103D01*
X266Y-38472D01*
X266Y-1291D01*
X602Y-955D01*
X439Y-1353D01*
X441Y-1804D01*
X610Y-2213D01*
X749Y-2329D01*
X1504Y-1574D01*
X1498Y-1569D01*
X1569Y-1498D01*
X1574Y-1504D01*
X2329Y-749D01*
X2213Y-610D01*
X1795Y-439D01*
X1344Y-441D01*
X955Y-602D01*
X1291Y-266D01*
X7687Y-266D01*
X7671Y-282D01*
X7648Y-337D01*
X7648Y-579D01*
X7686Y-616D01*
X8048Y-616D01*
X8048Y-609D01*
X8148Y-609D01*
X8148Y-616D01*
X8511Y-616D01*
X8548Y-579D01*
X8548Y-337D01*
X8526Y-282D01*
X8510Y-266D01*
X8687Y-266D01*
X8671Y-282D01*
X8648Y-337D01*
X8648Y-579D01*
X8686Y-616D01*
X9048Y-616D01*
X9048Y-609D01*
X9148Y-609D01*
X9148Y-616D01*
X9511Y-616D01*
X9548Y-579D01*
X9548Y-337D01*
X9526Y-282D01*
X9510Y-266D01*
X16336Y-266D01*
X16306Y-278D01*
X16011Y-573D01*
X15852Y-957D01*
X15851Y-1374D01*
X16010Y-1759D01*
X16305Y-2053D01*
X16689Y-2213D01*
X17106Y-2213D01*
X17491Y-2054D01*
X17785Y-1760D01*
X17945Y-1376D01*
X17945Y-959D01*
X17786Y-574D01*
X17492Y-279D01*
X17460Y-266D01*
X19584Y-266D01*
X19370Y-354D01*
X19276Y-474D01*
X19898Y-1096D01*
X20520Y-474D01*
X20427Y-354D01*
X20205Y-266D01*
X38078Y-266D01*
X38414Y-602D01*
X38016Y-439D01*
X37565Y-441D01*
X37156Y-610D01*
X37040Y-749D01*
X37795Y-1504D01*
X37800Y-1498D01*
X37871Y-1569D01*
X37865Y-1574D01*
X38621Y-2329D01*
X38759Y-2213D01*
X38930Y-1795D01*
X38928Y-1344D01*
X38767Y-955D01*
X39103Y-1291D01*
X39103Y-38078D01*
X39103Y-38078D01*
G37*
G54D24*
X39103Y-38078D02*
X38767Y-38414D01*
X38930Y-38016D01*
X38928Y-37565D01*
X38759Y-37156D01*
X38621Y-37040D01*
X38550Y-37110D01*
X38550Y-36969D01*
X38550Y-2400D01*
X37795Y-1645D01*
X37724Y-1716D01*
X37724Y-1574D01*
X36969Y-819D01*
X36831Y-936D01*
X36660Y-1353D01*
X36661Y-1804D01*
X36831Y-2213D01*
X36969Y-2329D01*
X37724Y-1574D01*
X37724Y-1716D01*
X37040Y-2400D01*
X37156Y-2538D01*
X37574Y-2709D01*
X38025Y-2708D01*
X38433Y-2538D01*
X38550Y-2400D01*
X38550Y-36969D01*
X38534Y-36950D01*
X38534Y-18090D01*
X38534Y-15039D01*
X38509Y-14914D01*
X38438Y-14809D01*
X38438Y-14809D01*
X38093Y-14463D01*
X38093Y-10543D01*
X38081Y-10366D01*
X38037Y-10262D01*
X37970Y-10229D01*
X37900Y-10300D01*
X37900Y-10159D01*
X37867Y-10092D01*
X37699Y-10036D01*
X37523Y-10049D01*
X37418Y-10092D01*
X37386Y-10159D01*
X37643Y-10416D01*
X37900Y-10159D01*
X37900Y-10300D01*
X37713Y-10486D01*
X37970Y-10743D01*
X38037Y-10711D01*
X38093Y-10543D01*
X38093Y-14463D01*
X37900Y-14270D01*
X37900Y-10814D01*
X37643Y-10557D01*
X37572Y-10628D01*
X37572Y-10486D01*
X37315Y-10229D01*
X37248Y-10262D01*
X37192Y-10430D01*
X37205Y-10606D01*
X37248Y-10711D01*
X37315Y-10743D01*
X37572Y-10486D01*
X37572Y-10628D01*
X37386Y-10814D01*
X37418Y-10881D01*
X37586Y-10937D01*
X37763Y-10924D01*
X37867Y-10881D01*
X37900Y-10814D01*
X37900Y-14270D01*
X37553Y-13923D01*
X37447Y-13852D01*
X37322Y-13827D01*
X36216Y-13827D01*
X36216Y-10379D01*
X36134Y-10180D01*
X35982Y-10027D01*
X35782Y-9944D01*
X35567Y-9944D01*
X35367Y-10027D01*
X35215Y-10179D01*
X35132Y-10378D01*
X35132Y-10594D01*
X35214Y-10793D01*
X35367Y-10946D01*
X35566Y-11028D01*
X35782Y-11029D01*
X35981Y-10946D01*
X36133Y-10794D01*
X36216Y-10595D01*
X36216Y-10379D01*
X36216Y-13827D01*
X34580Y-13827D01*
X34580Y-8483D01*
X34501Y-8291D01*
X34354Y-8144D01*
X34163Y-8065D01*
X33955Y-8064D01*
X33763Y-8144D01*
X33616Y-8290D01*
X33537Y-8482D01*
X33536Y-8690D01*
X33616Y-8882D01*
X33762Y-9029D01*
X33954Y-9108D01*
X34162Y-9108D01*
X34354Y-9029D01*
X34501Y-8882D01*
X34580Y-8691D01*
X34580Y-8483D01*
X34580Y-13827D01*
X34580Y-13827D01*
X34580Y-11813D01*
X34580Y-11263D01*
X34543Y-11172D01*
X34473Y-11102D01*
X34383Y-11065D01*
X34285Y-11065D01*
X33735Y-11065D01*
X33644Y-11102D01*
X33574Y-11171D01*
X33537Y-11262D01*
X33537Y-11360D01*
X33537Y-11910D01*
X33574Y-12001D01*
X33643Y-12071D01*
X33734Y-12108D01*
X33832Y-12108D01*
X34382Y-12108D01*
X34473Y-12071D01*
X34543Y-12001D01*
X34580Y-11911D01*
X34580Y-11813D01*
X34580Y-13827D01*
X31980Y-13827D01*
X31980Y-7883D01*
X31901Y-7691D01*
X31754Y-7544D01*
X31563Y-7465D01*
X31355Y-7464D01*
X31163Y-7544D01*
X31016Y-7690D01*
X30937Y-7882D01*
X30936Y-8090D01*
X31016Y-8282D01*
X31162Y-8429D01*
X31354Y-8508D01*
X31562Y-8508D01*
X31754Y-8429D01*
X31901Y-8282D01*
X31980Y-8091D01*
X31980Y-7883D01*
X31980Y-13827D01*
X31980Y-13827D01*
X31980Y-11213D01*
X31980Y-10663D01*
X31943Y-10572D01*
X31873Y-10502D01*
X31783Y-10465D01*
X31685Y-10465D01*
X31135Y-10465D01*
X31044Y-10502D01*
X30974Y-10571D01*
X30937Y-10662D01*
X30937Y-10760D01*
X30937Y-11310D01*
X30974Y-11401D01*
X31043Y-11471D01*
X31134Y-11508D01*
X31232Y-11508D01*
X31782Y-11508D01*
X31873Y-11471D01*
X31943Y-11401D01*
X31980Y-11311D01*
X31980Y-11213D01*
X31980Y-13827D01*
X31397Y-13827D01*
X30785Y-13827D01*
X30785Y-11579D01*
X30703Y-11380D01*
X30550Y-11227D01*
X30351Y-11144D01*
X30135Y-11144D01*
X29936Y-11227D01*
X29783Y-11379D01*
X29701Y-11578D01*
X29700Y-11794D01*
X29783Y-11993D01*
X29935Y-12146D01*
X30134Y-12228D01*
X30350Y-12229D01*
X30549Y-12146D01*
X30702Y-11994D01*
X30785Y-11795D01*
X30785Y-11579D01*
X30785Y-13827D01*
X28816Y-13827D01*
X28816Y-11579D01*
X28734Y-11380D01*
X28582Y-11227D01*
X28382Y-11144D01*
X28167Y-11144D01*
X27967Y-11227D01*
X27815Y-11379D01*
X27732Y-11578D01*
X27732Y-11794D01*
X27814Y-11993D01*
X27967Y-12146D01*
X28166Y-12228D01*
X28382Y-12229D01*
X28581Y-12146D01*
X28733Y-11994D01*
X28816Y-11795D01*
X28816Y-11579D01*
X28816Y-13827D01*
X28638Y-13827D01*
X25997Y-11187D01*
X25997Y-11187D01*
X25997Y-11187D01*
X23714Y-8903D01*
X23608Y-8833D01*
X23495Y-8810D01*
X23495Y-2868D01*
X23495Y-2168D01*
X23458Y-2077D01*
X23388Y-2007D01*
X23298Y-1970D01*
X23200Y-1970D01*
X22500Y-1970D01*
X22409Y-2007D01*
X22339Y-2076D01*
X22302Y-2167D01*
X22302Y-2265D01*
X22302Y-2965D01*
X22339Y-3056D01*
X22408Y-3126D01*
X22499Y-3163D01*
X22597Y-3163D01*
X23297Y-3163D01*
X23388Y-3126D01*
X23458Y-3056D01*
X23495Y-2966D01*
X23495Y-2868D01*
X23495Y-8810D01*
X23484Y-8808D01*
X23403Y-8808D01*
X23403Y-4636D01*
X23392Y-4438D01*
X23338Y-4309D01*
X23266Y-4270D01*
X23195Y-4340D01*
X23195Y-4199D01*
X23156Y-4127D01*
X22968Y-4061D01*
X22770Y-4073D01*
X22641Y-4127D01*
X22602Y-4199D01*
X22898Y-4496D01*
X23195Y-4199D01*
X23195Y-4340D01*
X22969Y-4566D01*
X23266Y-4863D01*
X23338Y-4824D01*
X23403Y-4636D01*
X23403Y-8808D01*
X23195Y-8808D01*
X23195Y-4934D01*
X22898Y-4637D01*
X22828Y-4708D01*
X22828Y-4566D01*
X22531Y-4270D01*
X22459Y-4309D01*
X22393Y-4497D01*
X22405Y-4695D01*
X22459Y-4824D01*
X22531Y-4863D01*
X22828Y-4566D01*
X22828Y-4708D01*
X22602Y-4934D01*
X22641Y-5006D01*
X22829Y-5071D01*
X23027Y-5060D01*
X23156Y-5006D01*
X23195Y-4934D01*
X23195Y-8808D01*
X22125Y-8808D01*
X22001Y-8833D01*
X21895Y-8903D01*
X21364Y-9435D01*
X21293Y-9540D01*
X21268Y-9665D01*
X21268Y-9960D01*
X21293Y-10085D01*
X21364Y-10190D01*
X21930Y-10757D01*
X20851Y-10757D01*
X20851Y-1344D01*
X20846Y-966D01*
X20710Y-638D01*
X20591Y-544D01*
X19969Y-1166D01*
X20591Y-1789D01*
X20710Y-1695D01*
X20851Y-1344D01*
X20851Y-10757D01*
X20520Y-10757D01*
X20520Y-1859D01*
X19898Y-1237D01*
X19828Y-1308D01*
X19828Y-1166D01*
X19206Y-544D01*
X19086Y-638D01*
X18946Y-989D01*
X18951Y-1367D01*
X19086Y-1695D01*
X19206Y-1789D01*
X19828Y-1166D01*
X19828Y-1308D01*
X19276Y-1859D01*
X19370Y-1978D01*
X19721Y-2119D01*
X20099Y-2114D01*
X20427Y-1978D01*
X20520Y-1859D01*
X20520Y-10757D01*
X20508Y-10757D01*
X19046Y-9294D01*
X19046Y-9070D01*
X19077Y-9038D01*
X19142Y-8883D01*
X19142Y-8715D01*
X19078Y-8560D01*
X18959Y-8441D01*
X18804Y-8377D01*
X18636Y-8377D01*
X18481Y-8441D01*
X18363Y-8559D01*
X18298Y-8714D01*
X18298Y-8882D01*
X18362Y-9037D01*
X18394Y-9070D01*
X18394Y-9429D01*
X18419Y-9553D01*
X18490Y-9659D01*
X20143Y-11312D01*
X20143Y-11312D01*
X20214Y-11360D01*
X20249Y-11383D01*
X20249Y-11383D01*
X20374Y-11408D01*
X20374Y-11408D01*
X21873Y-11408D01*
X22152Y-11687D01*
X22125Y-11682D01*
X19737Y-11682D01*
X18258Y-10203D01*
X18258Y-7710D01*
X20256Y-5711D01*
X20256Y-5711D01*
X20256Y-5711D01*
X20336Y-5593D01*
X20363Y-5453D01*
X20363Y-5453D01*
X20363Y-4671D01*
X20413Y-4651D01*
X20483Y-4581D01*
X20520Y-4491D01*
X20520Y-4393D01*
X20520Y-3843D01*
X20520Y-3193D01*
X20520Y-2643D01*
X20483Y-2552D01*
X20413Y-2482D01*
X20323Y-2445D01*
X20225Y-2445D01*
X19675Y-2445D01*
X19584Y-2482D01*
X19514Y-2551D01*
X19477Y-2642D01*
X19477Y-2740D01*
X19477Y-3290D01*
X19514Y-3381D01*
X19583Y-3451D01*
X19674Y-3488D01*
X19772Y-3488D01*
X20322Y-3488D01*
X20413Y-3451D01*
X20483Y-3381D01*
X20520Y-3291D01*
X20520Y-3193D01*
X20520Y-3843D01*
X20483Y-3752D01*
X20413Y-3682D01*
X20323Y-3645D01*
X20225Y-3645D01*
X19675Y-3645D01*
X19584Y-3682D01*
X19514Y-3751D01*
X19477Y-3842D01*
X19477Y-3940D01*
X19477Y-4490D01*
X19514Y-4581D01*
X19583Y-4651D01*
X19633Y-4671D01*
X19633Y-5302D01*
X17635Y-7300D01*
X17556Y-7419D01*
X17528Y-7559D01*
X17528Y-10354D01*
X17556Y-10493D01*
X17635Y-10612D01*
X19328Y-12305D01*
X19446Y-12384D01*
X19446Y-12384D01*
X19586Y-12412D01*
X21974Y-12412D01*
X22261Y-12698D01*
X22261Y-12698D01*
X22300Y-12758D01*
X22509Y-12966D01*
X22509Y-15498D01*
X22094Y-15913D01*
X22094Y-13024D01*
X22081Y-12846D01*
X22037Y-12739D01*
X21970Y-12706D01*
X21899Y-12777D01*
X21899Y-12635D01*
X21866Y-12568D01*
X21696Y-12511D01*
X21518Y-12524D01*
X21411Y-12568D01*
X21378Y-12635D01*
X21638Y-12896D01*
X21899Y-12635D01*
X21899Y-12777D01*
X21709Y-12966D01*
X21970Y-13227D01*
X22037Y-13194D01*
X22094Y-13024D01*
X22094Y-15913D01*
X21899Y-16108D01*
X21899Y-13298D01*
X21638Y-13037D01*
X21568Y-13108D01*
X21568Y-12966D01*
X21307Y-12706D01*
X21240Y-12739D01*
X21185Y-12902D01*
X21185Y-12618D01*
X21148Y-12527D01*
X21078Y-12457D01*
X20988Y-12420D01*
X20890Y-12420D01*
X20290Y-12420D01*
X20199Y-12457D01*
X20129Y-12526D01*
X20092Y-12617D01*
X20092Y-12715D01*
X20092Y-13315D01*
X20129Y-13406D01*
X20198Y-13476D01*
X20289Y-13513D01*
X20387Y-13513D01*
X20987Y-13513D01*
X21078Y-13476D01*
X21148Y-13406D01*
X21185Y-13316D01*
X21185Y-13218D01*
X21185Y-12938D01*
X21196Y-13087D01*
X21240Y-13194D01*
X21307Y-13227D01*
X21568Y-12966D01*
X21568Y-13108D01*
X21378Y-13298D01*
X21411Y-13365D01*
X21581Y-13422D01*
X21759Y-13409D01*
X21866Y-13365D01*
X21899Y-13298D01*
X21899Y-16108D01*
X20537Y-17469D01*
X18937Y-17469D01*
X18797Y-17497D01*
X18678Y-17576D01*
X17123Y-19131D01*
X17044Y-19250D01*
X17016Y-19389D01*
X17016Y-20629D01*
X17044Y-20769D01*
X17123Y-20887D01*
X18029Y-21793D01*
X18147Y-21872D01*
X18147Y-21872D01*
X18287Y-21900D01*
X18392Y-21900D01*
X18650Y-22159D01*
X18650Y-24120D01*
X18335Y-24435D01*
X18335Y-22514D01*
X18271Y-22359D01*
X18152Y-22241D01*
X17997Y-22176D01*
X17829Y-22176D01*
X17679Y-22238D01*
X16801Y-21361D01*
X16801Y-19271D01*
X16801Y-17772D01*
X17553Y-17021D01*
X17623Y-16915D01*
X17648Y-16791D01*
X17648Y-16791D01*
X17648Y-12696D01*
X17648Y-12696D01*
X17623Y-12572D01*
X17623Y-12572D01*
X17600Y-12537D01*
X17553Y-12466D01*
X17553Y-12466D01*
X16172Y-11085D01*
X16172Y-8877D01*
X16172Y-8661D01*
X16172Y-8661D01*
X16147Y-8536D01*
X16147Y-8536D01*
X16123Y-8501D01*
X16076Y-8431D01*
X16076Y-8431D01*
X14063Y-6418D01*
X14063Y-6373D01*
X13999Y-6218D01*
X13881Y-6099D01*
X13726Y-6034D01*
X13558Y-6034D01*
X13403Y-6098D01*
X13284Y-6217D01*
X13219Y-6372D01*
X13219Y-6540D01*
X13283Y-6695D01*
X13402Y-6814D01*
X13557Y-6878D01*
X13603Y-6878D01*
X15520Y-8796D01*
X15520Y-8877D01*
X15520Y-11220D01*
X15545Y-11345D01*
X15616Y-11450D01*
X16997Y-12831D01*
X16997Y-16656D01*
X16246Y-17407D01*
X16175Y-17513D01*
X16150Y-17637D01*
X16150Y-19271D01*
X16150Y-21496D01*
X16175Y-21620D01*
X16246Y-21726D01*
X17348Y-22828D01*
X17348Y-22828D01*
X17419Y-22875D01*
X17454Y-22899D01*
X17454Y-22899D01*
X17578Y-22924D01*
X17578Y-22924D01*
X17642Y-22924D01*
X17674Y-22955D01*
X17829Y-23020D01*
X17996Y-23020D01*
X18152Y-22956D01*
X18270Y-22837D01*
X18335Y-22682D01*
X18335Y-22514D01*
X18335Y-24435D01*
X10844Y-31926D01*
X10844Y-31926D01*
X10844Y-31926D01*
X10144Y-32627D01*
X6351Y-32627D01*
X4862Y-31138D01*
X4862Y-30649D01*
X4862Y-26063D01*
X6624Y-26063D01*
X6763Y-26035D01*
X6763Y-26035D01*
X6882Y-25956D01*
X7523Y-25315D01*
X7662Y-25315D01*
X7799Y-25372D01*
X7967Y-25372D01*
X8122Y-25308D01*
X8241Y-25190D01*
X8305Y-25035D01*
X8305Y-24867D01*
X8241Y-24712D01*
X8123Y-24593D01*
X7968Y-24529D01*
X7800Y-24528D01*
X7662Y-24585D01*
X7372Y-24585D01*
X7232Y-24613D01*
X7113Y-24692D01*
X7113Y-24692D01*
X7113Y-24692D01*
X6472Y-25333D01*
X4879Y-25333D01*
X4879Y-22377D01*
X4879Y-22014D01*
X4879Y-21914D01*
X4879Y-21552D01*
X4841Y-21514D01*
X4658Y-21514D01*
X4599Y-21514D01*
X4544Y-21537D01*
X4501Y-21579D01*
X4479Y-21634D01*
X4479Y-21877D01*
X4516Y-21914D01*
X4879Y-21914D01*
X4879Y-22014D01*
X4516Y-22014D01*
X4479Y-22052D01*
X4479Y-22294D01*
X4501Y-22349D01*
X4544Y-22391D01*
X4599Y-22414D01*
X4658Y-22414D01*
X4841Y-22414D01*
X4879Y-22377D01*
X4879Y-25333D01*
X4719Y-25333D01*
X4599Y-25284D01*
X4384Y-25068D01*
X4384Y-22022D01*
X4371Y-21843D01*
X4327Y-21736D01*
X4260Y-21704D01*
X3999Y-21964D01*
X4260Y-22225D01*
X4327Y-22192D01*
X4384Y-22022D01*
X4384Y-25068D01*
X4189Y-24874D01*
X4189Y-22295D01*
X3929Y-22035D01*
X3858Y-22105D01*
X3858Y-21964D01*
X3597Y-21704D01*
X3530Y-21736D01*
X3473Y-21906D01*
X3486Y-22085D01*
X3530Y-22192D01*
X3597Y-22225D01*
X3858Y-21964D01*
X3858Y-22105D01*
X3668Y-22295D01*
X3701Y-22362D01*
X3871Y-22419D01*
X4049Y-22407D01*
X4156Y-22362D01*
X4189Y-22295D01*
X4189Y-24874D01*
X3022Y-23707D01*
X3022Y-15229D01*
X3382Y-14869D01*
X3382Y-15072D01*
X3465Y-15273D01*
X3618Y-15427D01*
X3819Y-15511D01*
X3958Y-15511D01*
X3808Y-15521D01*
X3701Y-15566D01*
X3668Y-15633D01*
X3929Y-15893D01*
X4189Y-15633D01*
X4156Y-15566D01*
X3993Y-15511D01*
X4037Y-15511D01*
X4238Y-15428D01*
X4392Y-15274D01*
X4429Y-15186D01*
X4465Y-15273D01*
X4618Y-15427D01*
X4819Y-15511D01*
X4958Y-15511D01*
X4808Y-15521D01*
X4701Y-15566D01*
X4668Y-15633D01*
X4929Y-15893D01*
X5189Y-15633D01*
X5156Y-15566D01*
X4993Y-15511D01*
X5037Y-15511D01*
X5238Y-15428D01*
X5337Y-15329D01*
X5488Y-15329D01*
X5627Y-15301D01*
X5627Y-15301D01*
X5746Y-15222D01*
X6115Y-14853D01*
X6273Y-14853D01*
X6273Y-14890D01*
X6273Y-15490D01*
X6310Y-15581D01*
X6380Y-15650D01*
X6470Y-15688D01*
X6569Y-15688D01*
X6848Y-15688D01*
X6699Y-15699D01*
X6592Y-15743D01*
X6559Y-15810D01*
X6820Y-16071D01*
X7080Y-15810D01*
X7047Y-15743D01*
X6884Y-15688D01*
X7169Y-15688D01*
X7259Y-15651D01*
X7329Y-15581D01*
X7366Y-15491D01*
X7367Y-15392D01*
X7367Y-14853D01*
X8099Y-14853D01*
X8099Y-15295D01*
X8127Y-15434D01*
X8206Y-15553D01*
X8519Y-15866D01*
X7438Y-16946D01*
X7367Y-17053D01*
X7367Y-17033D01*
X7284Y-16832D01*
X7275Y-16823D01*
X7275Y-16199D01*
X7262Y-16021D01*
X7218Y-15914D01*
X7151Y-15881D01*
X6890Y-16141D01*
X7151Y-16402D01*
X7218Y-16369D01*
X7275Y-16199D01*
X7275Y-16823D01*
X7130Y-16678D01*
X6929Y-16594D01*
X6791Y-16594D01*
X6940Y-16584D01*
X7047Y-16540D01*
X7080Y-16472D01*
X6820Y-16212D01*
X6749Y-16283D01*
X6749Y-16141D01*
X6488Y-15881D01*
X6421Y-15914D01*
X6365Y-16083D01*
X6377Y-16262D01*
X6421Y-16369D01*
X6488Y-16402D01*
X6749Y-16141D01*
X6749Y-16283D01*
X6559Y-16472D01*
X6592Y-16540D01*
X6756Y-16594D01*
X6711Y-16594D01*
X6510Y-16677D01*
X6356Y-16831D01*
X6273Y-17032D01*
X6273Y-17250D01*
X6356Y-17451D01*
X6509Y-17605D01*
X6710Y-17688D01*
X6928Y-17688D01*
X7129Y-17605D01*
X7283Y-17451D01*
X7331Y-17335D01*
X7331Y-17722D01*
X6926Y-18127D01*
X6847Y-18246D01*
X6820Y-18385D01*
X6820Y-20723D01*
X6763Y-20860D01*
X6763Y-21028D01*
X6827Y-21183D01*
X6945Y-21302D01*
X7083Y-21359D01*
X7741Y-22017D01*
X7860Y-22097D01*
X7860Y-22097D01*
X8000Y-22124D01*
X9282Y-22124D01*
X9313Y-22199D01*
X9367Y-22253D01*
X7890Y-22253D01*
X6506Y-20869D01*
X6506Y-17874D01*
X6481Y-17749D01*
X6411Y-17643D01*
X6411Y-17643D01*
X5501Y-16734D01*
X5396Y-16664D01*
X5393Y-16655D01*
X5384Y-16646D01*
X5384Y-16022D01*
X5371Y-15843D01*
X5327Y-15736D01*
X5260Y-15704D01*
X4999Y-15964D01*
X5260Y-16225D01*
X5327Y-16192D01*
X5384Y-16022D01*
X5384Y-16646D01*
X5239Y-16501D01*
X5038Y-16417D01*
X4900Y-16417D01*
X5049Y-16407D01*
X5156Y-16362D01*
X5189Y-16295D01*
X4929Y-16035D01*
X4858Y-16105D01*
X4858Y-15964D01*
X4597Y-15704D01*
X4530Y-15736D01*
X4473Y-15906D01*
X4486Y-16085D01*
X4530Y-16192D01*
X4597Y-16225D01*
X4858Y-15964D01*
X4858Y-16105D01*
X4668Y-16295D01*
X4701Y-16362D01*
X4865Y-16417D01*
X4820Y-16417D01*
X4619Y-16500D01*
X4465Y-16654D01*
X4429Y-16742D01*
X4393Y-16655D01*
X4384Y-16646D01*
X4384Y-16022D01*
X4371Y-15843D01*
X4327Y-15736D01*
X4260Y-15704D01*
X3999Y-15964D01*
X4260Y-16225D01*
X4327Y-16192D01*
X4384Y-16022D01*
X4384Y-16646D01*
X4239Y-16501D01*
X4038Y-16417D01*
X3900Y-16417D01*
X4049Y-16407D01*
X4156Y-16362D01*
X4189Y-16295D01*
X3929Y-16035D01*
X3858Y-16105D01*
X3858Y-15964D01*
X3597Y-15704D01*
X3530Y-15736D01*
X3473Y-15906D01*
X3486Y-16085D01*
X3530Y-16192D01*
X3597Y-16225D01*
X3858Y-15964D01*
X3858Y-16105D01*
X3668Y-16295D01*
X3701Y-16362D01*
X3865Y-16417D01*
X3820Y-16417D01*
X3619Y-16500D01*
X3465Y-16654D01*
X3382Y-16855D01*
X3382Y-17072D01*
X3465Y-17273D01*
X3618Y-17427D01*
X3707Y-17464D01*
X3619Y-17500D01*
X3465Y-17654D01*
X3382Y-17855D01*
X3382Y-18072D01*
X3465Y-18273D01*
X3618Y-18427D01*
X3819Y-18511D01*
X3958Y-18511D01*
X3808Y-18521D01*
X3701Y-18566D01*
X3668Y-18633D01*
X3929Y-18893D01*
X4189Y-18633D01*
X4156Y-18566D01*
X3993Y-18511D01*
X4037Y-18511D01*
X4238Y-18428D01*
X4392Y-18274D01*
X4429Y-18186D01*
X4465Y-18273D01*
X4618Y-18427D01*
X4819Y-18511D01*
X4958Y-18511D01*
X4808Y-18521D01*
X4701Y-18566D01*
X4668Y-18633D01*
X4929Y-18893D01*
X5189Y-18633D01*
X5156Y-18566D01*
X4993Y-18511D01*
X5037Y-18511D01*
X5238Y-18428D01*
X5363Y-18303D01*
X5363Y-18823D01*
X5327Y-18736D01*
X5260Y-18704D01*
X4999Y-18964D01*
X5260Y-19225D01*
X5327Y-19192D01*
X5363Y-19084D01*
X5363Y-19625D01*
X5239Y-19501D01*
X5038Y-19417D01*
X4900Y-19417D01*
X5049Y-19407D01*
X5156Y-19362D01*
X5189Y-19295D01*
X4929Y-19035D01*
X4858Y-19105D01*
X4858Y-18964D01*
X4597Y-18704D01*
X4530Y-18736D01*
X4473Y-18906D01*
X4486Y-19085D01*
X4530Y-19192D01*
X4597Y-19225D01*
X4858Y-18964D01*
X4858Y-19105D01*
X4668Y-19295D01*
X4701Y-19362D01*
X4865Y-19417D01*
X4820Y-19417D01*
X4619Y-19500D01*
X4465Y-19654D01*
X4429Y-19742D01*
X4393Y-19655D01*
X4384Y-19646D01*
X4384Y-19022D01*
X4371Y-18843D01*
X4327Y-18736D01*
X4260Y-18704D01*
X3999Y-18964D01*
X4260Y-19225D01*
X4327Y-19192D01*
X4384Y-19022D01*
X4384Y-19646D01*
X4239Y-19501D01*
X4038Y-19417D01*
X3900Y-19417D01*
X4049Y-19407D01*
X4156Y-19362D01*
X4189Y-19295D01*
X3929Y-19035D01*
X3858Y-19105D01*
X3858Y-18964D01*
X3597Y-18704D01*
X3530Y-18736D01*
X3473Y-18906D01*
X3486Y-19085D01*
X3530Y-19192D01*
X3597Y-19225D01*
X3858Y-18964D01*
X3858Y-19105D01*
X3668Y-19295D01*
X3701Y-19362D01*
X3865Y-19417D01*
X3820Y-19417D01*
X3619Y-19500D01*
X3465Y-19654D01*
X3382Y-19855D01*
X3382Y-20072D01*
X3465Y-20273D01*
X3618Y-20427D01*
X3707Y-20464D01*
X3619Y-20500D01*
X3465Y-20654D01*
X3382Y-20855D01*
X3382Y-21072D01*
X3465Y-21273D01*
X3618Y-21427D01*
X3819Y-21511D01*
X3958Y-21511D01*
X3808Y-21521D01*
X3701Y-21566D01*
X3668Y-21633D01*
X3929Y-21893D01*
X4189Y-21633D01*
X4156Y-21566D01*
X3993Y-21511D01*
X4037Y-21511D01*
X4238Y-21428D01*
X4392Y-21274D01*
X4429Y-21186D01*
X4465Y-21273D01*
X4618Y-21427D01*
X4819Y-21511D01*
X5037Y-21511D01*
X5238Y-21428D01*
X5377Y-21289D01*
X5388Y-21345D01*
X5458Y-21450D01*
X7368Y-23360D01*
X7368Y-23360D01*
X7438Y-23407D01*
X7473Y-23430D01*
X7473Y-23430D01*
X7598Y-23455D01*
X7598Y-23455D01*
X8580Y-23455D01*
X8471Y-23500D01*
X8439Y-23532D01*
X6003Y-23532D01*
X5879Y-23557D01*
X5773Y-23628D01*
X5379Y-24022D01*
X5379Y-22294D01*
X5379Y-21634D01*
X5356Y-21579D01*
X5314Y-21537D01*
X5259Y-21514D01*
X5199Y-21514D01*
X5016Y-21514D01*
X4979Y-21552D01*
X4979Y-21914D01*
X5341Y-21914D01*
X5379Y-21877D01*
X5379Y-21634D01*
X5379Y-22294D01*
X5379Y-22052D01*
X5341Y-22014D01*
X4979Y-22014D01*
X4979Y-22377D01*
X5016Y-22414D01*
X5199Y-22414D01*
X5259Y-22414D01*
X5314Y-22391D01*
X5356Y-22349D01*
X5379Y-22294D01*
X5379Y-24022D01*
X5331Y-24070D01*
X5233Y-24110D01*
X5115Y-24229D01*
X5050Y-24384D01*
X5050Y-24552D01*
X5114Y-24707D01*
X5233Y-24825D01*
X5388Y-24890D01*
X5555Y-24890D01*
X5711Y-24826D01*
X5829Y-24707D01*
X5894Y-24552D01*
X5894Y-24428D01*
X6138Y-24183D01*
X8439Y-24183D01*
X8471Y-24215D01*
X8626Y-24280D01*
X8794Y-24280D01*
X8949Y-24216D01*
X9068Y-24097D01*
X9132Y-23942D01*
X9132Y-23774D01*
X9068Y-23619D01*
X8949Y-23500D01*
X8840Y-23455D01*
X10295Y-23455D01*
X10419Y-23430D01*
X10525Y-23360D01*
X11234Y-22651D01*
X11234Y-22651D01*
X11288Y-22570D01*
X11288Y-25101D01*
X9395Y-26994D01*
X9395Y-26994D01*
X6206Y-30183D01*
X6136Y-30288D01*
X6111Y-30413D01*
X6111Y-31047D01*
X6079Y-31079D01*
X6015Y-31234D01*
X6015Y-31402D01*
X6079Y-31557D01*
X6197Y-31676D01*
X6352Y-31740D01*
X6520Y-31740D01*
X6675Y-31676D01*
X6794Y-31558D01*
X6858Y-31403D01*
X6858Y-31235D01*
X6794Y-31080D01*
X6762Y-31047D01*
X6762Y-30548D01*
X9856Y-27454D01*
X9856Y-27454D01*
X9856Y-27454D01*
X11844Y-25466D01*
X11844Y-25466D01*
X11914Y-25360D01*
X11939Y-25236D01*
X11939Y-25236D01*
X11939Y-20215D01*
X11957Y-20233D01*
X11957Y-26380D01*
X10158Y-28180D01*
X10113Y-28180D01*
X9958Y-28244D01*
X9839Y-28363D01*
X9775Y-28518D01*
X9774Y-28685D01*
X9839Y-28841D01*
X9957Y-28959D01*
X10112Y-29024D01*
X10280Y-29024D01*
X10435Y-28960D01*
X10554Y-28841D01*
X10618Y-28686D01*
X10618Y-28640D01*
X12513Y-26745D01*
X12513Y-26745D01*
X12560Y-26675D01*
X12584Y-26640D01*
X12584Y-26640D01*
X12609Y-26515D01*
X12609Y-26515D01*
X12609Y-20098D01*
X12584Y-19973D01*
X12513Y-19868D01*
X12513Y-19868D01*
X12055Y-19410D01*
X12055Y-19365D01*
X11991Y-19210D01*
X11985Y-19203D01*
X13070Y-19203D01*
X13195Y-19178D01*
X13301Y-19108D01*
X14934Y-17474D01*
X14934Y-17474D01*
X14934Y-17474D01*
X15249Y-17159D01*
X15249Y-17159D01*
X15297Y-17088D01*
X15320Y-17053D01*
X15320Y-17053D01*
X15345Y-16929D01*
X15345Y-16929D01*
X15345Y-16630D01*
X15958Y-16017D01*
X15958Y-16017D01*
X16029Y-15911D01*
X16032Y-15894D01*
X16032Y-16105D01*
X15478Y-16659D01*
X15407Y-16765D01*
X15383Y-16889D01*
X15383Y-17027D01*
X15383Y-22913D01*
X15407Y-23037D01*
X15478Y-23143D01*
X15931Y-23596D01*
X15931Y-23596D01*
X16036Y-23666D01*
X16161Y-23691D01*
X16323Y-23691D01*
X16355Y-23723D01*
X16510Y-23787D01*
X16678Y-23788D01*
X16833Y-23723D01*
X16951Y-23605D01*
X17016Y-23450D01*
X17016Y-23282D01*
X16952Y-23127D01*
X16833Y-23008D01*
X16678Y-22944D01*
X16510Y-22944D01*
X16355Y-23008D01*
X16323Y-23040D01*
X16296Y-23040D01*
X16034Y-22778D01*
X16034Y-17027D01*
X16034Y-17024D01*
X16588Y-16470D01*
X16588Y-16470D01*
X16659Y-16364D01*
X16683Y-16240D01*
X16683Y-16240D01*
X16683Y-12992D01*
X16683Y-12992D01*
X16659Y-12867D01*
X16659Y-12867D01*
X16635Y-12832D01*
X16588Y-12761D01*
X16588Y-12761D01*
X15348Y-11521D01*
X15242Y-11451D01*
X15187Y-11440D01*
X15187Y-10255D01*
X15187Y-10255D01*
X15163Y-10131D01*
X15163Y-10131D01*
X15139Y-10096D01*
X15092Y-10025D01*
X15092Y-10025D01*
X13947Y-8880D01*
X13947Y-7775D01*
X13922Y-7650D01*
X13922Y-7650D01*
X13899Y-7615D01*
X13852Y-7545D01*
X13852Y-7545D01*
X12832Y-6525D01*
X12862Y-6452D01*
X12862Y-6284D01*
X12798Y-6129D01*
X12680Y-6010D01*
X12525Y-5946D01*
X12357Y-5946D01*
X12202Y-6010D01*
X12083Y-6128D01*
X12019Y-6283D01*
X12019Y-6451D01*
X12083Y-6606D01*
X12126Y-6650D01*
X12140Y-6719D01*
X12210Y-6824D01*
X13296Y-7910D01*
X13296Y-9015D01*
X13321Y-9140D01*
X13391Y-9245D01*
X14536Y-10390D01*
X14536Y-11379D01*
X14319Y-11162D01*
X14319Y-11117D01*
X14255Y-10962D01*
X14136Y-10843D01*
X13981Y-10779D01*
X13814Y-10778D01*
X13787Y-10789D01*
X13788Y-10625D01*
X13723Y-10470D01*
X13605Y-10351D01*
X13450Y-10286D01*
X13282Y-10286D01*
X13127Y-10350D01*
X13008Y-10469D01*
X12944Y-10624D01*
X12944Y-10792D01*
X13008Y-10947D01*
X13060Y-10999D01*
X13060Y-11574D01*
X13085Y-11699D01*
X13155Y-11805D01*
X14851Y-13501D01*
X14851Y-15554D01*
X13076Y-17328D01*
X12384Y-18020D01*
X12055Y-18020D01*
X12055Y-17869D01*
X11991Y-17714D01*
X11873Y-17595D01*
X11743Y-17541D01*
X11799Y-17407D01*
X11799Y-17239D01*
X11735Y-17084D01*
X11617Y-16965D01*
X11462Y-16901D01*
X11294Y-16900D01*
X11139Y-16964D01*
X11020Y-17083D01*
X10999Y-17135D01*
X9940Y-17135D01*
X9816Y-17159D01*
X9710Y-17230D01*
X9311Y-17629D01*
X9266Y-17629D01*
X9111Y-17693D01*
X8992Y-17811D01*
X8928Y-17966D01*
X8928Y-18134D01*
X8992Y-18289D01*
X9111Y-18408D01*
X9266Y-18472D01*
X9433Y-18473D01*
X9589Y-18409D01*
X9707Y-18290D01*
X9772Y-18135D01*
X9772Y-18089D01*
X10075Y-17786D01*
X10375Y-17786D01*
X9317Y-18844D01*
X9246Y-18950D01*
X9221Y-19074D01*
X9221Y-19530D01*
X8805Y-19946D01*
X8734Y-20052D01*
X8709Y-20177D01*
X8709Y-20396D01*
X8327Y-20778D01*
X8282Y-20778D01*
X8127Y-20842D01*
X8008Y-20961D01*
X7944Y-21116D01*
X7944Y-21188D01*
X7599Y-20843D01*
X7550Y-20723D01*
X7550Y-18536D01*
X7954Y-18132D01*
X8034Y-18013D01*
X8034Y-18013D01*
X8061Y-17874D01*
X8061Y-17355D01*
X9136Y-16281D01*
X9246Y-16327D01*
X9414Y-16327D01*
X9552Y-16270D01*
X13444Y-16270D01*
X13584Y-16242D01*
X13584Y-16242D01*
X13702Y-16163D01*
X14415Y-15451D01*
X14473Y-15451D01*
X14628Y-15387D01*
X14747Y-15268D01*
X14811Y-15113D01*
X14811Y-14945D01*
X14747Y-14790D01*
X14629Y-14672D01*
X14474Y-14607D01*
X14306Y-14607D01*
X14151Y-14671D01*
X14032Y-14790D01*
X14024Y-14810D01*
X13293Y-15540D01*
X9551Y-15540D01*
X9414Y-15483D01*
X9247Y-15483D01*
X9191Y-15506D01*
X8829Y-15144D01*
X8829Y-14488D01*
X8829Y-10840D01*
X9235Y-10434D01*
X9275Y-10451D01*
X9443Y-10451D01*
X9581Y-10394D01*
X10797Y-10394D01*
X10936Y-10366D01*
X10936Y-10366D01*
X11055Y-10287D01*
X11509Y-9833D01*
X11751Y-9833D01*
X11891Y-9805D01*
X11891Y-9805D01*
X12010Y-9726D01*
X12876Y-8860D01*
X12876Y-8860D01*
X12876Y-8860D01*
X12955Y-8742D01*
X12964Y-8695D01*
X12975Y-8684D01*
X13039Y-8529D01*
X13040Y-8361D01*
X12975Y-8206D01*
X12857Y-8087D01*
X12702Y-8023D01*
X12534Y-8022D01*
X12396Y-8079D01*
X12336Y-8079D01*
X11605Y-7348D01*
X11605Y-5643D01*
X11962Y-5286D01*
X15222Y-5286D01*
X16564Y-6627D01*
X16564Y-10925D01*
X16591Y-11064D01*
X16671Y-11183D01*
X19820Y-14332D01*
X19939Y-14411D01*
X19939Y-14411D01*
X20078Y-14439D01*
X20567Y-14439D01*
X21052Y-14924D01*
X21108Y-15061D01*
X21227Y-15180D01*
X21382Y-15244D01*
X21550Y-15244D01*
X21705Y-15180D01*
X21823Y-15062D01*
X21888Y-14907D01*
X21888Y-14739D01*
X21824Y-14584D01*
X21705Y-14465D01*
X21568Y-14408D01*
X20976Y-13816D01*
X20858Y-13737D01*
X20718Y-13709D01*
X20229Y-13709D01*
X17294Y-10774D01*
X17294Y-6476D01*
X17266Y-6336D01*
X17266Y-6336D01*
X17187Y-6218D01*
X15632Y-4663D01*
X15513Y-4584D01*
X15374Y-4556D01*
X11811Y-4556D01*
X11671Y-4584D01*
X11552Y-4663D01*
X10982Y-5234D01*
X10902Y-5352D01*
X10875Y-5492D01*
X10875Y-7500D01*
X10902Y-7639D01*
X10982Y-7758D01*
X11343Y-8119D01*
X11220Y-8119D01*
X11095Y-8144D01*
X11060Y-8167D01*
X10990Y-8214D01*
X10219Y-8985D01*
X9996Y-8985D01*
X10081Y-8900D01*
X10146Y-8745D01*
X10146Y-8719D01*
X10466Y-8399D01*
X10466Y-8399D01*
X10513Y-8328D01*
X10537Y-8293D01*
X10537Y-8293D01*
X10561Y-8169D01*
X10561Y-8169D01*
X10561Y-4704D01*
X10537Y-4580D01*
X10466Y-4474D01*
X10421Y-4429D01*
X10421Y-4384D01*
X10363Y-4242D01*
X16476Y-4242D01*
X16476Y-4270D01*
X16556Y-4462D01*
X16702Y-4609D01*
X16894Y-4688D01*
X17102Y-4688D01*
X17294Y-4609D01*
X17441Y-4462D01*
X17520Y-4271D01*
X17520Y-4063D01*
X17520Y-2863D01*
X17441Y-2671D01*
X17294Y-2524D01*
X17103Y-2445D01*
X16895Y-2444D01*
X16703Y-2524D01*
X16556Y-2670D01*
X16477Y-2862D01*
X16476Y-3070D01*
X16556Y-3262D01*
X16702Y-3409D01*
X16894Y-3488D01*
X17102Y-3488D01*
X17294Y-3409D01*
X17441Y-3262D01*
X17520Y-3071D01*
X17520Y-2863D01*
X17520Y-4063D01*
X17441Y-3871D01*
X17294Y-3724D01*
X17103Y-3645D01*
X16916Y-3645D01*
X16873Y-3616D01*
X16749Y-3591D01*
X14529Y-3591D01*
X14607Y-3514D01*
X14695Y-3302D01*
X14695Y-3072D01*
X14608Y-2860D01*
X14446Y-2698D01*
X14419Y-2687D01*
X14445Y-2676D01*
X14607Y-2514D01*
X14695Y-2302D01*
X14695Y-2072D01*
X14608Y-1860D01*
X14446Y-1698D01*
X14234Y-1610D01*
X14004Y-1609D01*
X13792Y-1697D01*
X13630Y-1859D01*
X13542Y-2071D01*
X13541Y-2301D01*
X13629Y-2513D01*
X13791Y-2675D01*
X13818Y-2686D01*
X13792Y-2697D01*
X13630Y-2859D01*
X13542Y-3071D01*
X13541Y-3301D01*
X13629Y-3513D01*
X13707Y-3591D01*
X12749Y-3591D01*
X12827Y-3514D01*
X12915Y-3302D01*
X12915Y-3072D01*
X12828Y-2860D01*
X12666Y-2698D01*
X12639Y-2687D01*
X12665Y-2676D01*
X12827Y-2514D01*
X12915Y-2302D01*
X12915Y-2072D01*
X12828Y-1860D01*
X12666Y-1698D01*
X12454Y-1610D01*
X12224Y-1609D01*
X12012Y-1697D01*
X11850Y-1859D01*
X11762Y-2071D01*
X11761Y-2301D01*
X11849Y-2513D01*
X12011Y-2675D01*
X12038Y-2686D01*
X12012Y-2697D01*
X11850Y-2859D01*
X11762Y-3071D01*
X11761Y-3301D01*
X11849Y-3513D01*
X11927Y-3591D01*
X10989Y-3591D01*
X11067Y-3514D01*
X11155Y-3302D01*
X11155Y-3072D01*
X11068Y-2860D01*
X10906Y-2698D01*
X10879Y-2687D01*
X10905Y-2676D01*
X11067Y-2514D01*
X11155Y-2302D01*
X11155Y-2072D01*
X11068Y-1860D01*
X10906Y-1698D01*
X10694Y-1610D01*
X10464Y-1609D01*
X10252Y-1697D01*
X10090Y-1859D01*
X10002Y-2071D01*
X10001Y-2301D01*
X10089Y-2513D01*
X10251Y-2675D01*
X10278Y-2686D01*
X10252Y-2697D01*
X10090Y-2859D01*
X10002Y-3071D01*
X10001Y-3252D01*
X9927Y-3203D01*
X9803Y-3178D01*
X9645Y-3178D01*
X9645Y-1558D01*
X9562Y-1357D01*
X9548Y-1343D01*
X9548Y-996D01*
X9548Y-754D01*
X9511Y-716D01*
X9148Y-716D01*
X9148Y-1079D01*
X9186Y-1116D01*
X9369Y-1116D01*
X9428Y-1116D01*
X9483Y-1094D01*
X9526Y-1051D01*
X9548Y-996D01*
X9548Y-1343D01*
X9409Y-1203D01*
X9208Y-1120D01*
X9048Y-1120D01*
X9048Y-1079D01*
X9048Y-716D01*
X8686Y-716D01*
X8648Y-754D01*
X8648Y-996D01*
X8671Y-1051D01*
X8713Y-1094D01*
X8768Y-1116D01*
X8828Y-1116D01*
X9011Y-1116D01*
X9048Y-1079D01*
X9048Y-1120D01*
X8990Y-1119D01*
X8789Y-1203D01*
X8635Y-1356D01*
X8598Y-1445D01*
X8562Y-1357D01*
X8548Y-1343D01*
X8548Y-996D01*
X8548Y-754D01*
X8511Y-716D01*
X8148Y-716D01*
X8148Y-1079D01*
X8186Y-1116D01*
X8369Y-1116D01*
X8428Y-1116D01*
X8483Y-1094D01*
X8526Y-1051D01*
X8548Y-996D01*
X8548Y-1343D01*
X8409Y-1203D01*
X8208Y-1120D01*
X8048Y-1120D01*
X8048Y-1079D01*
X8048Y-716D01*
X7686Y-716D01*
X7648Y-754D01*
X7648Y-996D01*
X7671Y-1051D01*
X7713Y-1094D01*
X7768Y-1116D01*
X7828Y-1116D01*
X8011Y-1116D01*
X8048Y-1079D01*
X8048Y-1120D01*
X7990Y-1119D01*
X7789Y-1203D01*
X7635Y-1356D01*
X7552Y-1557D01*
X7551Y-1775D01*
X7635Y-1976D01*
X7788Y-2130D01*
X7989Y-2213D01*
X8207Y-2213D01*
X8408Y-2130D01*
X8562Y-1977D01*
X8598Y-1888D01*
X8635Y-1976D01*
X8788Y-2130D01*
X8989Y-2213D01*
X9207Y-2213D01*
X9408Y-2130D01*
X9562Y-1977D01*
X9645Y-1776D01*
X9645Y-1558D01*
X9645Y-3178D01*
X7952Y-3178D01*
X7828Y-3203D01*
X7722Y-3273D01*
X7365Y-3631D01*
X6985Y-3631D01*
X6937Y-3583D01*
X6937Y-3548D01*
X6873Y-3393D01*
X6755Y-3274D01*
X6600Y-3210D01*
X6432Y-3209D01*
X6277Y-3274D01*
X6244Y-3306D01*
X5442Y-3306D01*
X5318Y-3331D01*
X5212Y-3401D01*
X4559Y-4054D01*
X4493Y-4027D01*
X4325Y-4026D01*
X4170Y-4090D01*
X4052Y-4209D01*
X3987Y-4364D01*
X3987Y-4532D01*
X4051Y-4687D01*
X4170Y-4806D01*
X4325Y-4870D01*
X4492Y-4870D01*
X4648Y-4806D01*
X4693Y-4760D01*
X4750Y-4749D01*
X4856Y-4679D01*
X5577Y-3957D01*
X6244Y-3957D01*
X6276Y-3989D01*
X6431Y-4053D01*
X6486Y-4053D01*
X6620Y-4186D01*
X6725Y-4257D01*
X6850Y-4282D01*
X7500Y-4282D01*
X7624Y-4257D01*
X7730Y-4186D01*
X8087Y-3829D01*
X8195Y-3829D01*
X8141Y-3960D01*
X8141Y-3996D01*
X7643Y-4494D01*
X7573Y-4599D01*
X7548Y-4724D01*
X7548Y-6164D01*
X7446Y-6265D01*
X7446Y-6265D01*
X7345Y-6367D01*
X5049Y-6367D01*
X4924Y-6392D01*
X4889Y-6415D01*
X4818Y-6462D01*
X4754Y-6526D01*
X4709Y-6526D01*
X4554Y-6590D01*
X4435Y-6709D01*
X4371Y-6864D01*
X4371Y-7032D01*
X4435Y-7187D01*
X4554Y-7306D01*
X4709Y-7370D01*
X4754Y-7370D01*
X5005Y-7621D01*
X5092Y-7680D01*
X5030Y-7829D01*
X5030Y-7996D01*
X5094Y-8152D01*
X5213Y-8270D01*
X5368Y-8335D01*
X5414Y-8335D01*
X5422Y-8343D01*
X5422Y-9726D01*
X5393Y-9655D01*
X5239Y-9501D01*
X5038Y-9417D01*
X4820Y-9417D01*
X4619Y-9500D01*
X4465Y-9654D01*
X4429Y-9742D01*
X4393Y-9655D01*
X4239Y-9501D01*
X4038Y-9417D01*
X3820Y-9417D01*
X3619Y-9500D01*
X3465Y-9654D01*
X3382Y-9855D01*
X3382Y-10072D01*
X3465Y-10273D01*
X3618Y-10427D01*
X3707Y-10464D01*
X3619Y-10500D01*
X3465Y-10654D01*
X3382Y-10855D01*
X3382Y-11072D01*
X3465Y-11273D01*
X3618Y-11427D01*
X3707Y-11464D01*
X3619Y-11500D01*
X3465Y-11654D01*
X3382Y-11855D01*
X3382Y-12072D01*
X3465Y-12273D01*
X3618Y-12427D01*
X3707Y-12464D01*
X3619Y-12500D01*
X3465Y-12654D01*
X3382Y-12855D01*
X3382Y-13072D01*
X3465Y-13273D01*
X3618Y-13427D01*
X3707Y-13464D01*
X3619Y-13500D01*
X3465Y-13654D01*
X3394Y-13825D01*
X2709Y-14510D01*
X2709Y-1795D01*
X2708Y-1344D01*
X2538Y-936D01*
X2400Y-819D01*
X1645Y-1574D01*
X2400Y-2329D01*
X2538Y-2213D01*
X2709Y-1795D01*
X2709Y-14510D01*
X2399Y-14820D01*
X2329Y-14924D01*
X2329Y-2400D01*
X1574Y-1645D01*
X819Y-2400D01*
X936Y-2538D01*
X1353Y-2709D01*
X1804Y-2708D01*
X2213Y-2538D01*
X2329Y-2400D01*
X2329Y-14924D01*
X2320Y-14939D01*
X2292Y-15078D01*
X2292Y-23858D01*
X2320Y-23997D01*
X2399Y-24116D01*
X4083Y-25800D01*
X4133Y-25920D01*
X4133Y-30649D01*
X4133Y-31289D01*
X4160Y-31429D01*
X4239Y-31547D01*
X5942Y-33250D01*
X6061Y-33329D01*
X6061Y-33329D01*
X6200Y-33357D01*
X10295Y-33357D01*
X10434Y-33329D01*
X10434Y-33329D01*
X10553Y-33250D01*
X11360Y-32443D01*
X11360Y-32443D01*
X11360Y-32443D01*
X19273Y-24529D01*
X19352Y-24411D01*
X19352Y-24411D01*
X19380Y-24271D01*
X19380Y-22007D01*
X19352Y-21868D01*
X19352Y-21868D01*
X19273Y-21749D01*
X18801Y-21277D01*
X18682Y-21198D01*
X18543Y-21170D01*
X18438Y-21170D01*
X17746Y-20478D01*
X17746Y-19540D01*
X19088Y-18199D01*
X20688Y-18199D01*
X20828Y-18171D01*
X20828Y-18171D01*
X20947Y-18092D01*
X23132Y-15907D01*
X23211Y-15789D01*
X23211Y-15789D01*
X23238Y-15649D01*
X23238Y-12814D01*
X23238Y-12814D01*
X23228Y-12764D01*
X23316Y-12851D01*
X23316Y-16026D01*
X20849Y-18493D01*
X19862Y-18493D01*
X19737Y-18518D01*
X19702Y-18541D01*
X19631Y-18588D01*
X18347Y-19873D01*
X18302Y-19873D01*
X18147Y-19937D01*
X18028Y-20056D01*
X17964Y-20210D01*
X17963Y-20378D01*
X18027Y-20533D01*
X18146Y-20652D01*
X18301Y-20717D01*
X18469Y-20717D01*
X18624Y-20653D01*
X18743Y-20534D01*
X18807Y-20379D01*
X18807Y-20333D01*
X19997Y-19144D01*
X20984Y-19144D01*
X21108Y-19119D01*
X21214Y-19049D01*
X23871Y-16391D01*
X23871Y-16391D01*
X23906Y-16339D01*
X23906Y-17345D01*
X21853Y-19398D01*
X20605Y-19398D01*
X20573Y-19366D01*
X20418Y-19302D01*
X20251Y-19302D01*
X20095Y-19366D01*
X19977Y-19485D01*
X19912Y-19640D01*
X19912Y-19807D01*
X19976Y-19963D01*
X20095Y-20081D01*
X20250Y-20146D01*
X20418Y-20146D01*
X20573Y-20082D01*
X20605Y-20050D01*
X21988Y-20050D01*
X22112Y-20025D01*
X22218Y-19954D01*
X24462Y-17710D01*
X24462Y-17710D01*
X24533Y-17604D01*
X24557Y-17480D01*
X24557Y-17480D01*
X24557Y-12598D01*
X24533Y-12473D01*
X24462Y-12368D01*
X24462Y-12368D01*
X23055Y-10960D01*
X23055Y-10960D01*
X23055Y-10960D01*
X22455Y-10360D01*
X22527Y-10330D01*
X22889Y-10692D01*
X22889Y-10692D01*
X22889Y-10692D01*
X25166Y-12969D01*
X25166Y-20944D01*
X25166Y-22125D01*
X25191Y-22250D01*
X25261Y-22356D01*
X27135Y-24229D01*
X27135Y-32814D01*
X27159Y-32939D01*
X27230Y-33045D01*
X28962Y-34777D01*
X28962Y-34777D01*
X29033Y-34824D01*
X29068Y-34848D01*
X29068Y-34848D01*
X29192Y-34872D01*
X29235Y-34872D01*
X29831Y-35469D01*
X29831Y-35649D01*
X29856Y-35774D01*
X29927Y-35879D01*
X30576Y-36529D01*
X30576Y-36529D01*
X30682Y-36600D01*
X30807Y-36624D01*
X32834Y-36624D01*
X32959Y-36600D01*
X33064Y-36529D01*
X33158Y-36435D01*
X33203Y-36435D01*
X33358Y-36371D01*
X33477Y-36253D01*
X33541Y-36098D01*
X33542Y-35930D01*
X33477Y-35775D01*
X33359Y-35656D01*
X33204Y-35592D01*
X33081Y-35591D01*
X33081Y-30259D01*
X32998Y-30060D01*
X32846Y-29907D01*
X32647Y-29824D01*
X32431Y-29824D01*
X32232Y-29907D01*
X32079Y-30059D01*
X31996Y-30258D01*
X31996Y-30474D01*
X32079Y-30673D01*
X32231Y-30826D01*
X32430Y-30908D01*
X32646Y-30909D01*
X32845Y-30826D01*
X32998Y-30674D01*
X33080Y-30475D01*
X33081Y-30259D01*
X33081Y-35591D01*
X33036Y-35591D01*
X32881Y-35655D01*
X32762Y-35774D01*
X32698Y-35929D01*
X32698Y-35973D01*
X30941Y-35973D01*
X30483Y-35514D01*
X30483Y-35334D01*
X30458Y-35210D01*
X30387Y-35104D01*
X30114Y-34831D01*
X30241Y-34831D01*
X30396Y-34767D01*
X30514Y-34648D01*
X30579Y-34493D01*
X30579Y-34325D01*
X30515Y-34170D01*
X30483Y-34138D01*
X30483Y-32418D01*
X30769Y-32132D01*
X30839Y-32026D01*
X30864Y-31902D01*
X30864Y-31902D01*
X30864Y-30807D01*
X30998Y-30674D01*
X31080Y-30475D01*
X31081Y-30259D01*
X30998Y-30060D01*
X30846Y-29907D01*
X30647Y-29824D01*
X30431Y-29824D01*
X30232Y-29907D01*
X30079Y-30059D01*
X29996Y-30258D01*
X29996Y-30474D01*
X30079Y-30673D01*
X30213Y-30808D01*
X30213Y-31767D01*
X29927Y-32053D01*
X29856Y-32158D01*
X29831Y-32283D01*
X29831Y-34138D01*
X29800Y-34170D01*
X29735Y-34325D01*
X29735Y-34452D01*
X29600Y-34317D01*
X29494Y-34246D01*
X29370Y-34221D01*
X29327Y-34221D01*
X29081Y-33974D01*
X29081Y-30259D01*
X28998Y-30060D01*
X28846Y-29907D01*
X28763Y-29873D01*
X28763Y-16756D01*
X28752Y-16558D01*
X28698Y-16429D01*
X28626Y-16390D01*
X28555Y-16460D01*
X28555Y-16319D01*
X28516Y-16247D01*
X28328Y-16181D01*
X28130Y-16193D01*
X28001Y-16247D01*
X27962Y-16319D01*
X28258Y-16616D01*
X28555Y-16319D01*
X28555Y-16460D01*
X28329Y-16686D01*
X28626Y-16983D01*
X28698Y-16944D01*
X28763Y-16756D01*
X28763Y-29873D01*
X28647Y-29824D01*
X28555Y-29824D01*
X28555Y-17054D01*
X28258Y-16757D01*
X28188Y-16828D01*
X28188Y-16686D01*
X27891Y-16390D01*
X27819Y-16429D01*
X27753Y-16617D01*
X27765Y-16815D01*
X27819Y-16944D01*
X27891Y-16983D01*
X28188Y-16686D01*
X28188Y-16828D01*
X27962Y-17054D01*
X28001Y-17126D01*
X28189Y-17191D01*
X28387Y-17180D01*
X28516Y-17126D01*
X28555Y-17054D01*
X28555Y-29824D01*
X28431Y-29824D01*
X28232Y-29907D01*
X28079Y-30059D01*
X27996Y-30258D01*
X27996Y-30474D01*
X28079Y-30673D01*
X28231Y-30826D01*
X28430Y-30908D01*
X28646Y-30909D01*
X28845Y-30826D01*
X28998Y-30674D01*
X29080Y-30475D01*
X29081Y-30259D01*
X29081Y-33974D01*
X27786Y-32680D01*
X27786Y-24094D01*
X27786Y-24094D01*
X27761Y-23969D01*
X27761Y-23969D01*
X27738Y-23934D01*
X27690Y-23864D01*
X27690Y-23864D01*
X25817Y-21991D01*
X25817Y-20944D01*
X25817Y-12834D01*
X25817Y-12834D01*
X25792Y-12710D01*
X25792Y-12710D01*
X25769Y-12674D01*
X25722Y-12604D01*
X25722Y-12604D01*
X23350Y-10232D01*
X23350Y-10232D01*
X23350Y-10232D01*
X22838Y-9720D01*
X22732Y-9649D01*
X22614Y-9626D01*
X22581Y-9593D01*
X22426Y-9529D01*
X22258Y-9528D01*
X22143Y-9576D01*
X22260Y-9459D01*
X23349Y-9459D01*
X25537Y-11647D01*
X25537Y-11647D01*
X25537Y-11647D01*
X28273Y-14383D01*
X28379Y-14454D01*
X28503Y-14479D01*
X31397Y-14479D01*
X37187Y-14479D01*
X37883Y-15174D01*
X37883Y-17955D01*
X37558Y-18279D01*
X37558Y-16007D01*
X37558Y-15366D01*
X37558Y-15306D01*
X37535Y-15251D01*
X37493Y-15209D01*
X37438Y-15186D01*
X37146Y-15186D01*
X37108Y-15224D01*
X37108Y-15636D01*
X37521Y-15636D01*
X37558Y-15599D01*
X37558Y-15366D01*
X37558Y-16007D01*
X37558Y-15774D01*
X37521Y-15736D01*
X37108Y-15736D01*
X37108Y-16149D01*
X37146Y-16186D01*
X37438Y-16186D01*
X37493Y-16164D01*
X37535Y-16122D01*
X37558Y-16066D01*
X37558Y-16007D01*
X37558Y-18279D01*
X37008Y-18829D01*
X37008Y-16149D01*
X37008Y-15736D01*
X37008Y-15636D01*
X37008Y-15224D01*
X36971Y-15186D01*
X36679Y-15186D01*
X36624Y-15209D01*
X36581Y-15251D01*
X36558Y-15306D01*
X36558Y-15366D01*
X36558Y-15599D01*
X36596Y-15636D01*
X37008Y-15636D01*
X37008Y-15736D01*
X36596Y-15736D01*
X36558Y-15774D01*
X36558Y-16007D01*
X36558Y-16066D01*
X36581Y-16122D01*
X36624Y-16164D01*
X36679Y-16186D01*
X36971Y-16186D01*
X37008Y-16149D01*
X37008Y-18829D01*
X31223Y-24615D01*
X31166Y-24615D01*
X31134Y-24583D01*
X30979Y-24519D01*
X30812Y-24519D01*
X30657Y-24583D01*
X30584Y-24655D01*
X30584Y-17283D01*
X30657Y-17283D01*
X30748Y-17246D01*
X30818Y-17176D01*
X30855Y-17086D01*
X30855Y-16988D01*
X30855Y-16288D01*
X30818Y-16197D01*
X30748Y-16127D01*
X30658Y-16090D01*
X30560Y-16090D01*
X29878Y-16090D01*
X30131Y-15837D01*
X34475Y-15837D01*
X34552Y-16024D01*
X34720Y-16192D01*
X34939Y-16283D01*
X35177Y-16283D01*
X35396Y-16193D01*
X35564Y-16025D01*
X35655Y-15806D01*
X35655Y-15568D01*
X35565Y-15349D01*
X35397Y-15181D01*
X35178Y-15090D01*
X34940Y-15089D01*
X34880Y-15114D01*
X34844Y-15107D01*
X29980Y-15107D01*
X29840Y-15135D01*
X29722Y-15214D01*
X28964Y-15972D01*
X28885Y-16090D01*
X28857Y-16230D01*
X28857Y-28666D01*
X28800Y-28803D01*
X28800Y-28971D01*
X28864Y-29126D01*
X28983Y-29245D01*
X29138Y-29309D01*
X29305Y-29309D01*
X29461Y-29245D01*
X29579Y-29127D01*
X29644Y-28972D01*
X29644Y-28804D01*
X29587Y-28666D01*
X29587Y-16381D01*
X29662Y-16306D01*
X29662Y-16385D01*
X29662Y-17085D01*
X29699Y-17176D01*
X29768Y-17246D01*
X29859Y-17283D01*
X29933Y-17283D01*
X29933Y-27845D01*
X29915Y-27845D01*
X29824Y-27882D01*
X29754Y-27951D01*
X29717Y-28042D01*
X29717Y-28140D01*
X29717Y-28690D01*
X29754Y-28781D01*
X29823Y-28851D01*
X29914Y-28888D01*
X30012Y-28888D01*
X30562Y-28888D01*
X30653Y-28851D01*
X30723Y-28781D01*
X30760Y-28691D01*
X30760Y-28593D01*
X30760Y-28043D01*
X30723Y-27952D01*
X30653Y-27882D01*
X30584Y-27853D01*
X30584Y-25226D01*
X30656Y-25298D01*
X30811Y-25362D01*
X30979Y-25362D01*
X31134Y-25298D01*
X31166Y-25266D01*
X31358Y-25266D01*
X31482Y-25241D01*
X31588Y-25171D01*
X38438Y-18320D01*
X38438Y-18320D01*
X38486Y-18250D01*
X38509Y-18215D01*
X38509Y-18215D01*
X38534Y-18090D01*
X38534Y-18090D01*
X38534Y-36950D01*
X38433Y-36831D01*
X38016Y-36660D01*
X37565Y-36661D01*
X37156Y-36831D01*
X37040Y-36969D01*
X37795Y-37724D01*
X38550Y-36969D01*
X38550Y-37110D01*
X37865Y-37795D01*
X37871Y-37800D01*
X37800Y-37871D01*
X37795Y-37865D01*
X37724Y-37936D01*
X37724Y-37795D01*
X36969Y-37040D01*
X36831Y-37156D01*
X36660Y-37574D01*
X36661Y-38025D01*
X36831Y-38433D01*
X36969Y-38550D01*
X37724Y-37795D01*
X37724Y-37936D01*
X37040Y-38621D01*
X37156Y-38759D01*
X37574Y-38930D01*
X38025Y-38928D01*
X38414Y-38767D01*
X38078Y-39103D01*
X36503Y-39103D01*
X36503Y-37972D01*
X36498Y-37594D01*
X36363Y-37267D01*
X36243Y-37173D01*
X36173Y-37243D01*
X36173Y-37102D01*
X36079Y-36983D01*
X35728Y-36843D01*
X35350Y-36847D01*
X35081Y-36959D01*
X35081Y-30259D01*
X34998Y-30060D01*
X34846Y-29907D01*
X34647Y-29824D01*
X34431Y-29824D01*
X34232Y-29907D01*
X34079Y-30059D01*
X33996Y-30258D01*
X33996Y-30474D01*
X34079Y-30673D01*
X34231Y-30826D01*
X34430Y-30908D01*
X34646Y-30909D01*
X34845Y-30826D01*
X34998Y-30674D01*
X35080Y-30475D01*
X35081Y-30259D01*
X35081Y-36959D01*
X35023Y-36983D01*
X34929Y-37102D01*
X35551Y-37724D01*
X36173Y-37102D01*
X36173Y-37243D01*
X35621Y-37795D01*
X36243Y-38417D01*
X36363Y-38323D01*
X36503Y-37972D01*
X36503Y-39103D01*
X36173Y-39103D01*
X36173Y-38488D01*
X35551Y-37865D01*
X35480Y-37936D01*
X35480Y-37795D01*
X34858Y-37173D01*
X34739Y-37267D01*
X34598Y-37618D01*
X34603Y-37995D01*
X34739Y-38323D01*
X34858Y-38417D01*
X35480Y-37795D01*
X35480Y-37936D01*
X34929Y-38488D01*
X35023Y-38607D01*
X35373Y-38747D01*
X35751Y-38742D01*
X36079Y-38607D01*
X36173Y-38488D01*
X36173Y-39103D01*
X33760Y-39103D01*
X33760Y-28263D01*
X33681Y-28071D01*
X33534Y-27924D01*
X33343Y-27845D01*
X33135Y-27844D01*
X32943Y-27924D01*
X32796Y-28070D01*
X32717Y-28262D01*
X32716Y-28470D01*
X32796Y-28662D01*
X32942Y-28809D01*
X33134Y-28888D01*
X33342Y-28888D01*
X33534Y-28809D01*
X33681Y-28662D01*
X33760Y-28471D01*
X33760Y-28263D01*
X33760Y-39103D01*
X33369Y-39103D01*
X33369Y-37587D01*
X33210Y-37203D01*
X32916Y-36908D01*
X32531Y-36748D01*
X32115Y-36748D01*
X31730Y-36907D01*
X31435Y-37201D01*
X31276Y-37586D01*
X31275Y-38002D01*
X31434Y-38387D01*
X31729Y-38682D01*
X32113Y-38841D01*
X32530Y-38842D01*
X32915Y-38683D01*
X33209Y-38389D01*
X33369Y-38004D01*
X33369Y-37587D01*
X33369Y-39103D01*
X30141Y-39103D01*
X30141Y-37587D01*
X29982Y-37203D01*
X29688Y-36908D01*
X29681Y-36905D01*
X29681Y-35459D01*
X29598Y-35260D01*
X29446Y-35107D01*
X29247Y-35024D01*
X29031Y-35024D01*
X28832Y-35107D01*
X28679Y-35259D01*
X28596Y-35458D01*
X28596Y-35674D01*
X28679Y-35873D01*
X28831Y-36026D01*
X29030Y-36108D01*
X29246Y-36109D01*
X29445Y-36026D01*
X29598Y-35874D01*
X29680Y-35675D01*
X29681Y-35459D01*
X29681Y-36905D01*
X29303Y-36748D01*
X28887Y-36748D01*
X28502Y-36907D01*
X28207Y-37201D01*
X28047Y-37586D01*
X28047Y-38002D01*
X28206Y-38387D01*
X28500Y-38682D01*
X28885Y-38841D01*
X29301Y-38842D01*
X29686Y-38683D01*
X29981Y-38389D01*
X30141Y-38004D01*
X30141Y-37587D01*
X30141Y-39103D01*
X27681Y-39103D01*
X27681Y-35459D01*
X27598Y-35260D01*
X27446Y-35107D01*
X27247Y-35024D01*
X27031Y-35024D01*
X26832Y-35107D01*
X26756Y-35182D01*
X26756Y-28264D01*
X26674Y-28064D01*
X26521Y-27912D01*
X26322Y-27829D01*
X26107Y-27829D01*
X25907Y-27911D01*
X25755Y-28064D01*
X25672Y-28263D01*
X25672Y-28479D01*
X25754Y-28678D01*
X25906Y-28830D01*
X26106Y-28913D01*
X26321Y-28913D01*
X26521Y-28831D01*
X26673Y-28679D01*
X26756Y-28479D01*
X26756Y-28264D01*
X26756Y-35182D01*
X26679Y-35259D01*
X26596Y-35458D01*
X26596Y-35674D01*
X26679Y-35873D01*
X26831Y-36026D01*
X27030Y-36108D01*
X27246Y-36109D01*
X27445Y-36026D01*
X27598Y-35874D01*
X27680Y-35675D01*
X27681Y-35459D01*
X27681Y-39103D01*
X26087Y-39103D01*
X26087Y-29839D01*
X26005Y-29639D01*
X25852Y-29487D01*
X25653Y-29404D01*
X25437Y-29404D01*
X25418Y-29412D01*
X25418Y-28264D01*
X25335Y-28064D01*
X25183Y-27912D01*
X24984Y-27829D01*
X24768Y-27829D01*
X24569Y-27911D01*
X24416Y-28064D01*
X24333Y-28263D01*
X24333Y-28479D01*
X24416Y-28678D01*
X24568Y-28830D01*
X24767Y-28913D01*
X24983Y-28913D01*
X25182Y-28831D01*
X25335Y-28679D01*
X25417Y-28479D01*
X25418Y-28264D01*
X25418Y-29412D01*
X25238Y-29486D01*
X25085Y-29638D01*
X25003Y-29838D01*
X25002Y-30053D01*
X25085Y-30253D01*
X25237Y-30405D01*
X25436Y-30488D01*
X25652Y-30488D01*
X25851Y-30406D01*
X26004Y-30253D01*
X26087Y-30054D01*
X26087Y-29839D01*
X26087Y-39103D01*
X25681Y-39103D01*
X25681Y-35459D01*
X25598Y-35260D01*
X25446Y-35107D01*
X25247Y-35024D01*
X25031Y-35024D01*
X24832Y-35107D01*
X24748Y-35190D01*
X24748Y-29839D01*
X24666Y-29639D01*
X24514Y-29487D01*
X24314Y-29404D01*
X24099Y-29404D01*
X24079Y-29412D01*
X24079Y-28264D01*
X23997Y-28064D01*
X23844Y-27912D01*
X23645Y-27829D01*
X23429Y-27829D01*
X23230Y-27911D01*
X23077Y-28064D01*
X22995Y-28263D01*
X22995Y-28479D01*
X23077Y-28678D01*
X23229Y-28830D01*
X23429Y-28913D01*
X23644Y-28913D01*
X23844Y-28831D01*
X23996Y-28679D01*
X24079Y-28479D01*
X24079Y-28264D01*
X24079Y-29412D01*
X23899Y-29486D01*
X23747Y-29638D01*
X23664Y-29838D01*
X23664Y-30053D01*
X23746Y-30253D01*
X23881Y-30387D01*
X23881Y-30855D01*
X21708Y-33027D01*
X21638Y-33133D01*
X21613Y-33257D01*
X21613Y-34125D01*
X21479Y-34259D01*
X21396Y-34458D01*
X21396Y-34674D01*
X21479Y-34873D01*
X21631Y-35026D01*
X21830Y-35108D01*
X22046Y-35109D01*
X22245Y-35026D01*
X22398Y-34874D01*
X22480Y-34675D01*
X22481Y-34459D01*
X22398Y-34260D01*
X22264Y-34125D01*
X22264Y-33392D01*
X24436Y-31220D01*
X24507Y-31114D01*
X24532Y-30990D01*
X24532Y-30990D01*
X24532Y-30387D01*
X24665Y-30253D01*
X24748Y-30054D01*
X24748Y-29839D01*
X24748Y-35190D01*
X24679Y-35259D01*
X24596Y-35458D01*
X24596Y-35674D01*
X24679Y-35873D01*
X24831Y-36026D01*
X25030Y-36108D01*
X25246Y-36109D01*
X25445Y-36026D01*
X25598Y-35874D01*
X25680Y-35675D01*
X25681Y-35459D01*
X25681Y-39103D01*
X24360Y-39103D01*
X24360Y-37593D01*
X24360Y-37043D01*
X24323Y-36952D01*
X24253Y-36882D01*
X24163Y-36845D01*
X24065Y-36845D01*
X23681Y-36845D01*
X23681Y-35459D01*
X23598Y-35260D01*
X23446Y-35107D01*
X23247Y-35024D01*
X23031Y-35024D01*
X22832Y-35107D01*
X22679Y-35259D01*
X22596Y-35458D01*
X22596Y-35674D01*
X22679Y-35873D01*
X22831Y-36026D01*
X23030Y-36108D01*
X23246Y-36109D01*
X23445Y-36026D01*
X23598Y-35874D01*
X23680Y-35675D01*
X23681Y-35459D01*
X23681Y-36845D01*
X23515Y-36845D01*
X23424Y-36882D01*
X23354Y-36951D01*
X23317Y-37042D01*
X23317Y-37140D01*
X23317Y-37690D01*
X23354Y-37781D01*
X23423Y-37851D01*
X23514Y-37888D01*
X23612Y-37888D01*
X24162Y-37888D01*
X24253Y-37851D01*
X24323Y-37781D01*
X24360Y-37691D01*
X24360Y-37593D01*
X24360Y-39103D01*
X21360Y-39103D01*
X21360Y-37263D01*
X21281Y-37071D01*
X21134Y-36924D01*
X20943Y-36845D01*
X20735Y-36844D01*
X20543Y-36924D01*
X20481Y-36986D01*
X20481Y-34459D01*
X20398Y-34260D01*
X20246Y-34107D01*
X20047Y-34024D01*
X19831Y-34024D01*
X19632Y-34107D01*
X19479Y-34259D01*
X19396Y-34458D01*
X19396Y-34674D01*
X19479Y-34873D01*
X19631Y-35026D01*
X19830Y-35108D01*
X20046Y-35109D01*
X20245Y-35026D01*
X20398Y-34874D01*
X20480Y-34675D01*
X20481Y-34459D01*
X20481Y-36986D01*
X20396Y-37070D01*
X20317Y-37262D01*
X20316Y-37470D01*
X20396Y-37662D01*
X20542Y-37809D01*
X20734Y-37888D01*
X20942Y-37888D01*
X21134Y-37809D01*
X21281Y-37662D01*
X21360Y-37471D01*
X21360Y-37263D01*
X21360Y-39103D01*
X18481Y-39103D01*
X18481Y-34459D01*
X18398Y-34260D01*
X18246Y-34107D01*
X18047Y-34024D01*
X17831Y-34024D01*
X17760Y-34053D01*
X17760Y-32993D01*
X17760Y-32443D01*
X17723Y-32352D01*
X17653Y-32282D01*
X17563Y-32245D01*
X17465Y-32245D01*
X16915Y-32245D01*
X16824Y-32282D01*
X16754Y-32351D01*
X16717Y-32442D01*
X16717Y-32540D01*
X16717Y-33090D01*
X16754Y-33181D01*
X16823Y-33251D01*
X16914Y-33288D01*
X17012Y-33288D01*
X17562Y-33288D01*
X17653Y-33251D01*
X17723Y-33181D01*
X17760Y-33091D01*
X17760Y-32993D01*
X17760Y-34053D01*
X17632Y-34107D01*
X17479Y-34259D01*
X17396Y-34458D01*
X17396Y-34674D01*
X17479Y-34873D01*
X17631Y-35026D01*
X17830Y-35108D01*
X18046Y-35109D01*
X18245Y-35026D01*
X18398Y-34874D01*
X18480Y-34675D01*
X18481Y-34459D01*
X18481Y-39103D01*
X16481Y-39103D01*
X16481Y-34459D01*
X16398Y-34260D01*
X16246Y-34107D01*
X16047Y-34024D01*
X15831Y-34024D01*
X15632Y-34107D01*
X15479Y-34259D01*
X15396Y-34458D01*
X15396Y-34674D01*
X15479Y-34873D01*
X15631Y-35026D01*
X15830Y-35108D01*
X16046Y-35109D01*
X16245Y-35026D01*
X16398Y-34874D01*
X16480Y-34675D01*
X16481Y-34459D01*
X16481Y-39103D01*
X14760Y-39103D01*
X14760Y-32663D01*
X14681Y-32471D01*
X14534Y-32324D01*
X14343Y-32245D01*
X14135Y-32244D01*
X13943Y-32324D01*
X13796Y-32470D01*
X13717Y-32662D01*
X13716Y-32870D01*
X13796Y-33062D01*
X13942Y-33209D01*
X14134Y-33288D01*
X14342Y-33288D01*
X14534Y-33209D01*
X14681Y-33062D01*
X14760Y-32871D01*
X14760Y-32663D01*
X14760Y-39103D01*
X6979Y-39103D01*
X6979Y-35684D01*
X6979Y-35084D01*
X6942Y-34993D01*
X6882Y-34933D01*
X6942Y-34873D01*
X6979Y-34782D01*
X6979Y-34684D01*
X6979Y-34084D01*
X6942Y-33993D01*
X6873Y-33923D01*
X6782Y-33886D01*
X6684Y-33886D01*
X6084Y-33886D01*
X5993Y-33923D01*
X5923Y-33993D01*
X5886Y-34083D01*
X5886Y-34112D01*
X5743Y-33969D01*
X5542Y-33886D01*
X5324Y-33886D01*
X5123Y-33969D01*
X4969Y-34122D01*
X4886Y-34323D01*
X4886Y-34461D01*
X4875Y-34312D01*
X4831Y-34205D01*
X4764Y-34172D01*
X4693Y-34243D01*
X4693Y-34101D01*
X4660Y-34034D01*
X4490Y-33977D01*
X4312Y-33990D01*
X4205Y-34034D01*
X4172Y-34101D01*
X4433Y-34362D01*
X4693Y-34101D01*
X4693Y-34243D01*
X4503Y-34433D01*
X4764Y-34693D01*
X4831Y-34660D01*
X4886Y-34497D01*
X4886Y-34541D01*
X4969Y-34742D01*
X5122Y-34896D01*
X5211Y-34933D01*
X5123Y-34969D01*
X4969Y-35122D01*
X4886Y-35323D01*
X4886Y-35461D01*
X4875Y-35312D01*
X4831Y-35205D01*
X4764Y-35172D01*
X4693Y-35243D01*
X4693Y-35101D01*
X4693Y-34764D01*
X4433Y-34503D01*
X4362Y-34574D01*
X4362Y-34433D01*
X4101Y-34172D01*
X4034Y-34205D01*
X3977Y-34375D01*
X3990Y-34553D01*
X4034Y-34660D01*
X4101Y-34693D01*
X4362Y-34433D01*
X4362Y-34574D01*
X4172Y-34764D01*
X4205Y-34831D01*
X4375Y-34888D01*
X4553Y-34875D01*
X4660Y-34831D01*
X4693Y-34764D01*
X4693Y-35101D01*
X4660Y-35034D01*
X4490Y-34977D01*
X4312Y-34990D01*
X4205Y-35034D01*
X4172Y-35101D01*
X4433Y-35362D01*
X4693Y-35101D01*
X4693Y-35243D01*
X4503Y-35433D01*
X4764Y-35693D01*
X4831Y-35660D01*
X4886Y-35497D01*
X4886Y-35541D01*
X4969Y-35742D01*
X5122Y-35896D01*
X5323Y-35979D01*
X5541Y-35980D01*
X5742Y-35896D01*
X5886Y-35753D01*
X5886Y-35781D01*
X5923Y-35872D01*
X5993Y-35942D01*
X6083Y-35979D01*
X6181Y-35979D01*
X6781Y-35979D01*
X6872Y-35942D01*
X6942Y-35873D01*
X6979Y-35782D01*
X6979Y-35684D01*
X6979Y-39103D01*
X4693Y-39103D01*
X4693Y-35764D01*
X4433Y-35503D01*
X4362Y-35574D01*
X4362Y-35433D01*
X4101Y-35172D01*
X4034Y-35205D01*
X3977Y-35375D01*
X3990Y-35553D01*
X4034Y-35660D01*
X4101Y-35693D01*
X4362Y-35433D01*
X4362Y-35574D01*
X4172Y-35764D01*
X4205Y-35831D01*
X4375Y-35888D01*
X4553Y-35875D01*
X4660Y-35831D01*
X4693Y-35764D01*
X4693Y-39103D01*
X2709Y-39103D01*
X2709Y-38016D01*
X2708Y-37565D01*
X2538Y-37156D01*
X2400Y-37040D01*
X2329Y-37110D01*
X2329Y-36969D01*
X2213Y-36831D01*
X1795Y-36660D01*
X1344Y-36661D01*
X936Y-36831D01*
X819Y-36969D01*
X1574Y-37724D01*
X2329Y-36969D01*
X2329Y-37110D01*
X1645Y-37795D01*
X2400Y-38550D01*
X2538Y-38433D01*
X2709Y-38016D01*
X2709Y-39103D01*
X2329Y-39103D01*
X2329Y-38621D01*
X1574Y-37865D01*
X1504Y-37936D01*
X1504Y-37795D01*
X749Y-37040D01*
X610Y-37156D01*
X439Y-37574D01*
X441Y-38025D01*
X610Y-38433D01*
X749Y-38550D01*
X1504Y-37795D01*
X1504Y-37936D01*
X819Y-38621D01*
X936Y-38759D01*
X1353Y-38930D01*
X1804Y-38928D01*
X2213Y-38759D01*
X2329Y-38621D01*
X2329Y-39103D01*
X897Y-39103D01*
X266Y-38472D01*
X266Y-1291D01*
X602Y-955D01*
X439Y-1353D01*
X441Y-1804D01*
X610Y-2213D01*
X749Y-2329D01*
X1504Y-1574D01*
X1498Y-1569D01*
X1569Y-1498D01*
X1574Y-1504D01*
X2329Y-749D01*
X2213Y-610D01*
X1795Y-439D01*
X1344Y-441D01*
X955Y-602D01*
X1291Y-266D01*
X7687Y-266D01*
X7671Y-282D01*
X7648Y-337D01*
X7648Y-579D01*
X7686Y-616D01*
X8048Y-616D01*
X8048Y-609D01*
X8148Y-609D01*
X8148Y-616D01*
X8511Y-616D01*
X8548Y-579D01*
X8548Y-337D01*
X8526Y-282D01*
X8510Y-266D01*
X8687Y-266D01*
X8671Y-282D01*
X8648Y-337D01*
X8648Y-579D01*
X8686Y-616D01*
X9048Y-616D01*
X9048Y-609D01*
X9148Y-609D01*
X9148Y-616D01*
X9511Y-616D01*
X9548Y-579D01*
X9548Y-337D01*
X9526Y-282D01*
X9510Y-266D01*
X16336Y-266D01*
X16306Y-278D01*
X16011Y-573D01*
X15852Y-957D01*
X15851Y-1374D01*
X16010Y-1759D01*
X16305Y-2053D01*
X16689Y-2213D01*
X17106Y-2213D01*
X17491Y-2054D01*
X17785Y-1760D01*
X17945Y-1376D01*
X17945Y-959D01*
X17786Y-574D01*
X17492Y-279D01*
X17460Y-266D01*
X19584Y-266D01*
X19370Y-354D01*
X19276Y-474D01*
X19898Y-1096D01*
X20520Y-474D01*
X20427Y-354D01*
X20205Y-266D01*
X38078Y-266D01*
X38414Y-602D01*
X38016Y-439D01*
X37565Y-441D01*
X37156Y-610D01*
X37040Y-749D01*
X37795Y-1504D01*
X37800Y-1498D01*
X37871Y-1569D01*
X37865Y-1574D01*
X38621Y-2329D01*
X38759Y-2213D01*
X38930Y-1795D01*
X38928Y-1344D01*
X38767Y-955D01*
X39103Y-1291D01*
X39103Y-38078D01*
M02*
