G04 (created by PCBNEW (2013-07-07 BZR 4022)-stable) date Sun 21 Dec 2014 01:02:58 PM MSK*
%MOIN*%
G04 Gerber Fmt 3.4, Leading zero omitted, Abs format*
%FSLAX34Y34*%
G01*
G70*
G90*
G04 APERTURE LIST*
%ADD10C,0.00590551*%
%ADD11C,0.19685*%
%ADD12R,0.06X0.06*%
%ADD13C,0.06*%
%ADD14C,0.066*%
%ADD15R,0.036X0.036*%
%ADD16R,0.0551X0.0236*%
%ADD17R,0.0236X0.0551*%
%ADD18R,0.035X0.055*%
%ADD19R,0.055X0.035*%
%ADD20C,0.0590551*%
%ADD21R,0.055X0.055*%
%ADD22C,0.055*%
%ADD23R,0.07X0.07*%
%ADD24C,0.07*%
%ADD25C,0.16*%
G04 APERTURE END LIST*
G54D10*
G54D11*
X32618Y-18566D03*
X1574Y-23425D03*
X32677Y-1574D03*
X1574Y-1574D03*
G54D12*
X8098Y-666D03*
G54D13*
X8098Y-1666D03*
G54D12*
X9098Y-666D03*
G54D13*
X9098Y-1666D03*
G54D14*
X14118Y-3186D03*
X14118Y-2186D03*
X12338Y-3186D03*
X12338Y-2186D03*
X10578Y-3186D03*
X10578Y-2186D03*
G54D15*
X1888Y-17466D03*
X1188Y-17466D03*
X1538Y-18266D03*
X19422Y-14177D03*
X19422Y-14877D03*
X20222Y-14527D03*
X30013Y-14610D03*
X30013Y-15310D03*
X30813Y-14960D03*
X32690Y-14571D03*
X32690Y-15271D03*
X33490Y-14921D03*
X2908Y-10986D03*
X2208Y-10986D03*
X2558Y-11786D03*
X1528Y-12486D03*
X828Y-12486D03*
X1178Y-13286D03*
X2948Y-15286D03*
X2248Y-15286D03*
X2598Y-16086D03*
X1528Y-15806D03*
X828Y-15806D03*
X1178Y-16606D03*
G54D16*
X20493Y-11949D03*
X22593Y-11949D03*
X20493Y-12449D03*
X20493Y-12949D03*
X20493Y-13449D03*
X22593Y-12449D03*
X22593Y-12949D03*
X22593Y-13449D03*
G54D17*
X19728Y-7119D03*
X19728Y-9219D03*
X19228Y-7119D03*
X18728Y-7119D03*
X18228Y-7119D03*
X19228Y-9219D03*
X18728Y-9219D03*
X18228Y-9219D03*
G54D16*
X25665Y-12561D03*
X27765Y-12561D03*
X25665Y-13061D03*
X25665Y-13561D03*
X25665Y-14061D03*
X27765Y-13061D03*
X27765Y-13561D03*
X27765Y-14061D03*
G54D17*
X24282Y-2092D03*
X24282Y-4192D03*
X23782Y-2092D03*
X23282Y-2092D03*
X22782Y-2092D03*
X23782Y-4192D03*
X23282Y-4192D03*
X22782Y-4192D03*
G54D18*
X1553Y-15166D03*
X803Y-15166D03*
G54D19*
X19614Y-12599D03*
X19614Y-13349D03*
G54D18*
X21918Y-14313D03*
X21168Y-14313D03*
G54D19*
X21179Y-4142D03*
X21179Y-3392D03*
X21918Y-1979D03*
X21918Y-2729D03*
X21918Y-3397D03*
X21918Y-4147D03*
G54D18*
X23238Y-4953D03*
X22488Y-4953D03*
X22574Y-1347D03*
X21824Y-1347D03*
X23894Y-1347D03*
X23144Y-1347D03*
X27912Y-15787D03*
X28662Y-15787D03*
G54D19*
X20553Y-7125D03*
X20553Y-7875D03*
X17411Y-9203D03*
X17411Y-8453D03*
G54D18*
X26376Y-11771D03*
X27126Y-11771D03*
X27912Y-14803D03*
X28662Y-14803D03*
X18030Y-14901D03*
X18780Y-14901D03*
X30668Y-16023D03*
X31418Y-16023D03*
X1553Y-11066D03*
X803Y-11066D03*
G54D19*
X28582Y-13937D03*
X28582Y-13187D03*
G54D18*
X2223Y-14626D03*
X2973Y-14626D03*
X2593Y-16806D03*
X1843Y-16806D03*
X2203Y-10286D03*
X2953Y-10286D03*
G54D19*
X2358Y-12471D03*
X2358Y-13221D03*
G54D18*
X1553Y-11806D03*
X803Y-11806D03*
X21436Y-11161D03*
X22186Y-11161D03*
G54D19*
X19015Y-9900D03*
X19015Y-10650D03*
X20562Y-9261D03*
X20562Y-8511D03*
X17411Y-7806D03*
X17411Y-7056D03*
X19744Y-9900D03*
X19744Y-10650D03*
X18287Y-10650D03*
X18287Y-9900D03*
G54D18*
X19038Y-6220D03*
X18288Y-6220D03*
X18288Y-5394D03*
X19038Y-5394D03*
X15747Y-6712D03*
X16497Y-6712D03*
X15747Y-7460D03*
X16497Y-7460D03*
G54D20*
X27677Y-4370D03*
X27677Y-2401D03*
X26437Y-6397D03*
X24468Y-6397D03*
G54D12*
X4918Y-23366D03*
G54D13*
X4918Y-22366D03*
X4918Y-21366D03*
G54D12*
X6820Y-15141D03*
G54D13*
X6820Y-16141D03*
X6820Y-17141D03*
G54D12*
X3918Y-23366D03*
G54D13*
X3918Y-22366D03*
X3918Y-21366D03*
G54D12*
X8758Y-19866D03*
G54D13*
X8758Y-18866D03*
G54D12*
X18458Y-12886D03*
G54D13*
X18458Y-13886D03*
G54D21*
X33484Y-10685D03*
G54D22*
X33484Y-13685D03*
G54D21*
X30826Y-10744D03*
G54D22*
X30826Y-13744D03*
G54D21*
X19996Y-16633D03*
G54D22*
X22996Y-16633D03*
G54D21*
X24472Y-5295D03*
G54D22*
X21472Y-5295D03*
G54D21*
X15598Y-4266D03*
G54D22*
X12598Y-4266D03*
G54D21*
X25009Y-4557D03*
G54D22*
X25009Y-1557D03*
G54D21*
X15578Y-5246D03*
G54D22*
X12578Y-5246D03*
G54D23*
X30614Y-3090D03*
G54D24*
X32614Y-3090D03*
G54D23*
X30409Y-7106D03*
G54D24*
X28409Y-7106D03*
G54D23*
X13798Y-4746D03*
G54D24*
X13798Y-6746D03*
G54D25*
X19898Y-1166D03*
X16898Y-1166D03*
X29618Y-18566D03*
X26818Y-18566D03*
X24018Y-18566D03*
G54D20*
X22671Y-9828D03*
X24009Y-9828D03*
X25348Y-9828D03*
X23340Y-11403D03*
X24679Y-11403D03*
X32263Y-11913D03*
X32263Y-13913D03*
X32263Y-9913D03*
X32263Y-15913D03*
X29645Y-11952D03*
X29645Y-13952D03*
X29645Y-9952D03*
X29645Y-15952D03*
X22574Y-15787D03*
X20574Y-15787D03*
X24574Y-15787D03*
X18574Y-15787D03*
G54D12*
X4918Y-20366D03*
G54D13*
X3918Y-20366D03*
X4918Y-19366D03*
X3918Y-19366D03*
X4918Y-18366D03*
X3918Y-18366D03*
X4918Y-17366D03*
X3918Y-17366D03*
X4918Y-16366D03*
X3918Y-16366D03*
X4918Y-15366D03*
X3918Y-15366D03*
X4918Y-14366D03*
X3918Y-14366D03*
X4918Y-13366D03*
X3918Y-13366D03*
X4918Y-12366D03*
X3918Y-12366D03*
X4918Y-11366D03*
X3918Y-11366D03*
X4918Y-10366D03*
X3918Y-10366D03*
X4918Y-9366D03*
X3918Y-9366D03*
X4918Y-8366D03*
X3918Y-8366D03*
M02*
