M48
;DRILL file {Pcbnew (2013-07-07 BZR 4022)-stable} date 12/19/2014 12:16:36 PM
;FORMAT={-:-/ absolute / metric / decimal}
FMAT,2
METRIC,TZ
T1C0.600
T2C0.635
T3C0.813
T4C1.016
T5C3.048
T6C3.300
%
G90
G05
M71
T1
X40.485Y-87.8
X45.565Y-87.8
X50.645Y-87.8
X55.725Y-87.8
X58.773Y-90.34
X59.785Y-72.064
X61.485Y-76.064
X63.185Y-72.064
X63.853Y-90.34
X64.885Y-76.064
X66.585Y-72.064
X68.933Y-90.34
X71.818Y-29.685
X72.489Y-77.132
X74.013Y-90.34
X76.818Y-29.685
X77.569Y-77.132
X82.649Y-77.132
X87.729Y-77.132
X90.614Y-26.637
X95.614Y-26.637
T2
X11.2Y-11.3
X11.425Y-65.275
X12.175Y-17.65
X13.85Y-20.1
X13.9Y-62.15
X14.75Y-18.3
X15.1Y-34.7
X16.3Y-34.5
X16.35Y-79.55
X16.55Y-9.225
X17.575Y-8.525
X18.25Y-53.2
X18.35Y-33.6
X19.975Y-18.325
X20.025Y-63.375
X21.25Y-53.85
X21.75Y-10.275
X22.125Y-60.6
X22.8Y-13.1
X22.85Y-14.3
X23.7Y-40.4
X23.75Y-45.85
X23.775Y-25.475
X24.7Y-22.
X25.4Y-11.35
X25.9Y-72.65
X28.45Y-50.1
X28.9Y-32.
X28.9Y-44.
X29.55Y-45.6
X29.55Y-49.4
X31.6Y-16.175
X32.05Y-21.45
X33.95Y-27.2
X34.65Y-16.4
X35.3Y-28.45
X36.55Y-38.175
X42.15Y-59.35
X45.5Y-57.4
X46.7Y-51.55
X47.55Y-22.35
X47.6Y-42.9
X51.65Y-50.1
X54.525Y-37.65
X56.75Y-25.275
X74.225Y-73.375
X76.6Y-87.4
X78.475Y-63.35
X84.125Y-91.475
T3
X26.87Y-5.555
X26.87Y-8.095
X31.341Y-5.555
X31.341Y-8.095
X35.862Y-5.555
X35.862Y-8.095
X36.167Y-83.228
X43.177Y-7.536
X43.177Y-10.584
X43.787Y-83.228
X50.797Y-7.536
X50.797Y-10.584
X52.931Y-94.912
X60.551Y-94.912
X76.807Y-72.052
X79.906Y-20.287
X79.906Y-27.907
X84.427Y-72.052
X86.51Y-21.811
X86.51Y-29.431
T4
X9.98Y-25.31
X9.98Y-27.85
X9.98Y-30.39
X9.98Y-32.93
X9.98Y-35.47
X9.98Y-38.01
X9.98Y-40.55
X9.98Y-43.09
X9.98Y-45.63
X9.98Y-48.17
X9.98Y-50.71
X9.98Y-53.25
X9.98Y-55.79
X11.26Y-87.46
X11.26Y-90.
X12.52Y-25.31
X12.52Y-27.85
X12.52Y-30.39
X12.52Y-32.93
X12.52Y-35.47
X12.52Y-38.01
X12.52Y-40.55
X12.52Y-43.09
X12.52Y-45.63
X12.52Y-48.17
X12.52Y-50.71
X12.52Y-53.25
X12.52Y-55.79
X13.8Y-87.46
X13.8Y-90.
X16.34Y-87.46
X16.34Y-90.
X17.323Y-38.46
X17.323Y-41.
X17.323Y-43.54
X20.571Y-1.694
X20.571Y-4.234
X23.111Y-1.694
X23.111Y-4.234
X24.95Y-52.73
X24.95Y-55.27
X52.423Y-32.936
X54.963Y-32.936
X58.163Y-6.52
X58.163Y-11.6
X71.778Y-42.385
X76.858Y-42.385
X89.05Y-39.845
X94.13Y-39.845
T5
X42.923Y-2.964
X50.543Y-2.964
X73.9Y-96.
X82.1Y-96.
X90.3Y-96.
T6
X4.Y-4.
X4.Y-96.
X96.Y-4.
X96.Y-96.
T0
M30
