G04 (created by PCBNEW (2013-07-07 BZR 4022)-stable) date Sun 21 Dec 2014 12:52:01 PM MSK*
%MOIN*%
G04 Gerber Fmt 3.4, Leading zero omitted, Abs format*
%FSLAX34Y34*%
G01*
G70*
G90*
G04 APERTURE LIST*
%ADD10C,0.00590551*%
%ADD11C,0.19685*%
%ADD12R,0.055X0.035*%
%ADD13R,0.06X0.06*%
%ADD14C,0.06*%
%ADD15C,0.066*%
%ADD16R,0.06X0.0098*%
%ADD17O,0.06X0.0098*%
%ADD18O,0.0098X0.06*%
%ADD19R,0.0315X0.0394*%
%ADD20R,0.0394X0.0315*%
%ADD21R,0.0236X0.0551*%
%ADD22R,0.035X0.055*%
%ADD23C,0.0590551*%
%ADD24R,0.015748X0.0531496*%
%ADD25R,0.0787402X0.0629921*%
%ADD26R,0.0748031X0.0748031*%
%ADD27R,0.055X0.055*%
%ADD28C,0.055*%
%ADD29R,0.0433X0.0748*%
%ADD30R,0.07X0.07*%
%ADD31C,0.07*%
%ADD32C,0.16*%
%ADD33O,0.0098X0.0394*%
%ADD34O,0.0394X0.0098*%
%ADD35R,0.11811X0.11811*%
%ADD36C,0.035*%
%ADD37C,0.023622*%
%ADD38C,0.015748*%
%ADD39C,0.01*%
G04 APERTURE END LIST*
G54D10*
G54D11*
X32618Y-18566D03*
X1574Y-23425D03*
X32677Y-1574D03*
X1574Y-1574D03*
G54D12*
X14118Y-1261D03*
X14118Y-511D03*
X12338Y-1261D03*
X12338Y-511D03*
X10578Y-1261D03*
X10578Y-511D03*
X8098Y-3341D03*
X8098Y-2591D03*
X9098Y-3341D03*
X9098Y-2591D03*
G54D13*
X8098Y-666D03*
G54D14*
X8098Y-1666D03*
G54D13*
X9098Y-666D03*
G54D14*
X9098Y-1666D03*
G54D15*
X14118Y-3186D03*
X14118Y-2186D03*
X12338Y-3186D03*
X12338Y-2186D03*
X10578Y-3186D03*
X10578Y-2186D03*
G54D16*
X13609Y-14694D03*
G54D17*
X13609Y-14497D03*
X13609Y-14300D03*
X13609Y-14103D03*
X13609Y-13906D03*
X13609Y-13710D03*
X13609Y-13513D03*
X13609Y-13316D03*
X13609Y-13119D03*
X13609Y-12922D03*
X13609Y-12725D03*
X13609Y-12529D03*
X13609Y-12332D03*
X13609Y-12135D03*
X13609Y-11938D03*
X13609Y-11741D03*
G54D18*
X12774Y-10843D03*
X12577Y-10843D03*
X12380Y-10843D03*
X12183Y-10843D03*
X11986Y-10843D03*
X11790Y-10843D03*
X11593Y-10843D03*
X11396Y-10843D03*
X11199Y-10843D03*
X11002Y-10843D03*
X10805Y-10843D03*
X10609Y-10843D03*
X10412Y-10843D03*
X10215Y-10843D03*
X10018Y-10843D03*
X9821Y-10843D03*
G54D17*
X8923Y-11741D03*
X8923Y-11938D03*
X8923Y-12135D03*
X8923Y-12332D03*
X8923Y-12529D03*
X8923Y-12725D03*
X8923Y-12922D03*
X8923Y-13119D03*
X8923Y-13316D03*
X8923Y-13513D03*
X8923Y-13710D03*
X8923Y-13906D03*
X8923Y-14103D03*
X8923Y-14300D03*
X8923Y-14497D03*
X8923Y-14694D03*
G54D18*
X9821Y-15529D03*
X10018Y-15529D03*
X10412Y-15529D03*
X10215Y-15536D03*
X10609Y-15529D03*
X10805Y-15529D03*
X11002Y-15529D03*
X11199Y-15529D03*
X11396Y-15529D03*
X11593Y-15529D03*
X11787Y-15529D03*
X11984Y-15529D03*
X12181Y-15529D03*
X12378Y-15529D03*
X12574Y-15529D03*
X12771Y-15529D03*
G54D19*
X14898Y-9533D03*
X15273Y-10399D03*
X14523Y-10399D03*
G54D20*
X14351Y-8786D03*
X13485Y-9161D03*
X13485Y-8411D03*
G54D21*
X24147Y-4400D03*
X24147Y-2300D03*
X23647Y-4400D03*
X23147Y-4400D03*
X22647Y-4400D03*
X23647Y-2300D03*
X23147Y-2300D03*
X22647Y-2300D03*
G54D12*
X20998Y-8561D03*
X20998Y-7811D03*
X23346Y-9134D03*
X23346Y-8384D03*
X20238Y-8561D03*
X20238Y-7811D03*
G54D22*
X18783Y-8186D03*
X19533Y-8186D03*
G54D12*
X15918Y-8901D03*
X15918Y-8151D03*
X22559Y-9134D03*
X22559Y-8384D03*
X21811Y-9292D03*
X21811Y-8542D03*
G54D22*
X18783Y-8906D03*
X19533Y-8906D03*
G54D12*
X16658Y-8901D03*
X16658Y-8151D03*
G54D22*
X10178Y-6692D03*
X9428Y-6692D03*
G54D12*
X9718Y-18631D03*
X9718Y-19381D03*
G54D22*
X24882Y-8956D03*
X24132Y-8956D03*
X5943Y-23366D03*
X6693Y-23366D03*
X5943Y-22266D03*
X6693Y-22266D03*
G54D12*
X25729Y-3732D03*
X25729Y-2982D03*
G54D22*
X8838Y-10620D03*
X8088Y-10620D03*
X15273Y-11166D03*
X14523Y-11166D03*
G54D12*
X23891Y-13547D03*
X23891Y-14297D03*
X24679Y-13547D03*
X24679Y-14297D03*
X12718Y-9161D03*
X12718Y-8411D03*
G54D22*
X15653Y-13866D03*
X14903Y-13866D03*
X16363Y-15886D03*
X17113Y-15886D03*
X17553Y-12726D03*
X16803Y-12726D03*
X19373Y-11946D03*
X18623Y-11946D03*
X17953Y-11946D03*
X17203Y-11946D03*
X8838Y-9832D03*
X8088Y-9832D03*
G54D12*
X8739Y-15560D03*
X8739Y-16310D03*
G54D22*
X12616Y-9872D03*
X13366Y-9872D03*
X13600Y-15659D03*
X14350Y-15659D03*
X15276Y-11889D03*
X14526Y-11889D03*
X4153Y-5166D03*
X3403Y-5166D03*
X5053Y-3566D03*
X4303Y-3566D03*
X4833Y-4386D03*
X4083Y-4386D03*
X4693Y-6026D03*
X3943Y-6026D03*
X4693Y-6766D03*
X3943Y-6766D03*
G54D12*
X24969Y-3732D03*
X24969Y-2982D03*
G54D22*
X25684Y-2317D03*
X24934Y-2317D03*
X23103Y-1539D03*
X22353Y-1539D03*
G54D12*
X21822Y-3725D03*
X21822Y-2975D03*
G54D22*
X23772Y-5240D03*
X23022Y-5240D03*
X18803Y-10146D03*
X19553Y-10146D03*
X17463Y-8186D03*
X18213Y-8186D03*
X16603Y-9546D03*
X17353Y-9546D03*
G54D12*
X15918Y-10241D03*
X15918Y-9491D03*
X20238Y-9171D03*
X20238Y-9921D03*
X20998Y-9171D03*
X20998Y-9921D03*
G54D23*
X27677Y-4370D03*
X27677Y-2401D03*
X26437Y-6397D03*
X24468Y-6397D03*
G54D13*
X4918Y-23366D03*
G54D14*
X4918Y-22366D03*
X4918Y-21366D03*
G54D13*
X6820Y-15141D03*
G54D14*
X6820Y-16141D03*
X6820Y-17141D03*
G54D13*
X3918Y-23366D03*
G54D14*
X3918Y-22366D03*
X3918Y-21366D03*
G54D13*
X8758Y-19866D03*
G54D14*
X8758Y-18866D03*
G54D13*
X18458Y-12886D03*
G54D14*
X18458Y-13886D03*
G54D24*
X5954Y-2755D03*
X5698Y-2755D03*
X5442Y-2755D03*
X5186Y-2755D03*
X4930Y-2755D03*
G54D25*
X6682Y-2755D03*
X4202Y-2755D03*
G54D26*
X6918Y-1358D03*
X3965Y-1358D03*
X5914Y-1358D03*
X4969Y-1358D03*
G54D27*
X33484Y-10685D03*
G54D28*
X33484Y-13685D03*
G54D27*
X30826Y-10744D03*
G54D28*
X30826Y-13744D03*
G54D27*
X19996Y-16633D03*
G54D28*
X22996Y-16633D03*
G54D27*
X24472Y-5295D03*
G54D28*
X21472Y-5295D03*
G54D27*
X15598Y-4266D03*
G54D28*
X12598Y-4266D03*
G54D27*
X25009Y-4557D03*
G54D28*
X25009Y-1557D03*
G54D27*
X15578Y-5246D03*
G54D28*
X12578Y-5246D03*
G54D29*
X17211Y-15034D03*
X17211Y-13578D03*
X16305Y-13578D03*
X16305Y-15034D03*
G54D30*
X30614Y-3090D03*
G54D31*
X32614Y-3090D03*
G54D30*
X30409Y-7106D03*
G54D31*
X28409Y-7106D03*
G54D30*
X13798Y-4746D03*
G54D31*
X13798Y-6746D03*
G54D32*
X19898Y-1166D03*
X16898Y-1166D03*
X29618Y-18566D03*
X26818Y-18566D03*
X24018Y-18566D03*
G54D23*
X22671Y-9828D03*
X24009Y-9828D03*
X25348Y-9828D03*
X23340Y-11403D03*
X24679Y-11403D03*
X32263Y-11913D03*
X32263Y-13913D03*
X32263Y-9913D03*
X32263Y-15913D03*
X29645Y-11952D03*
X29645Y-13952D03*
X29645Y-9952D03*
X29645Y-15952D03*
X22574Y-15787D03*
X20574Y-15787D03*
X24574Y-15787D03*
X18574Y-15787D03*
G54D12*
X6721Y-7203D03*
X6721Y-7953D03*
G54D33*
X7312Y-4527D03*
X7115Y-4527D03*
X6918Y-4527D03*
X6721Y-4527D03*
X6524Y-4527D03*
X6327Y-4527D03*
X6130Y-4527D03*
G54D34*
X5737Y-4920D03*
X5737Y-5117D03*
X5737Y-5314D03*
X5737Y-5511D03*
X5737Y-5708D03*
X5737Y-5905D03*
X5737Y-6102D03*
G54D33*
X6130Y-6495D03*
X6327Y-6495D03*
X6524Y-6495D03*
X6721Y-6495D03*
X6918Y-6495D03*
X7115Y-6495D03*
X7312Y-6495D03*
G54D34*
X7705Y-6102D03*
X7705Y-5905D03*
X7705Y-5708D03*
X7705Y-5511D03*
X7705Y-5314D03*
X7705Y-5117D03*
X7705Y-4920D03*
G54D35*
X6721Y-5511D03*
G54D22*
X6654Y-19980D03*
X5904Y-19980D03*
X6654Y-20964D03*
X5904Y-20964D03*
X6693Y-18287D03*
X5943Y-18287D03*
X6693Y-8866D03*
X5943Y-8866D03*
X6693Y-9666D03*
X5943Y-9666D03*
X6693Y-10466D03*
X5943Y-10466D03*
X6693Y-11366D03*
X5943Y-11366D03*
G54D13*
X4918Y-20366D03*
G54D14*
X3918Y-20366D03*
X4918Y-19366D03*
X3918Y-19366D03*
X4918Y-18366D03*
X3918Y-18366D03*
X4918Y-17366D03*
X3918Y-17366D03*
X4918Y-16366D03*
X3918Y-16366D03*
X4918Y-15366D03*
X3918Y-15366D03*
X4918Y-14366D03*
X3918Y-14366D03*
X4918Y-13366D03*
X3918Y-13366D03*
X4918Y-12366D03*
X3918Y-12366D03*
X4918Y-11366D03*
X3918Y-11366D03*
X4918Y-10366D03*
X3918Y-10366D03*
X4918Y-9366D03*
X3918Y-9366D03*
X4918Y-8366D03*
X3918Y-8366D03*
G54D36*
X23188Y-12440D03*
X25943Y-14891D03*
X26818Y-14766D03*
X28343Y-12641D03*
X17283Y-10098D03*
X5278Y-4786D03*
X6515Y-3631D03*
X14243Y-9616D03*
X15368Y-16341D03*
X1558Y-14566D03*
X1558Y-10446D03*
X13468Y-16866D03*
X9618Y-7386D03*
X10238Y-5646D03*
X30243Y-16541D03*
X30218Y-17341D03*
X13968Y-17241D03*
X12598Y-7303D03*
X12244Y-7913D03*
X9498Y-16946D03*
X11358Y-16946D03*
X9638Y-17386D03*
X11978Y-16686D03*
X10378Y-18406D03*
X7143Y-22266D03*
X10878Y-18366D03*
X7168Y-23366D03*
X2818Y-9566D03*
X2738Y-13966D03*
X918Y-14541D03*
X1043Y-10416D03*
X5298Y-7086D03*
X7678Y-13166D03*
X8518Y-9206D03*
X8038Y-13866D03*
X13366Y-10708D03*
X13897Y-11200D03*
X21268Y-7116D03*
X27768Y-16516D03*
X27643Y-17591D03*
X15843Y-17616D03*
X24212Y-8267D03*
X19370Y-11259D03*
X11377Y-12598D03*
X6919Y-3356D03*
X21673Y-8031D03*
X17358Y-11086D03*
X12118Y-9166D03*
X9360Y-10029D03*
X8618Y-3886D03*
X4698Y-4966D03*
X7185Y-20944D03*
X14389Y-15029D03*
X7864Y-7214D03*
X9330Y-15905D03*
G54D37*
X12598Y-4266D02*
X12818Y-4266D01*
X15838Y-1166D02*
X16898Y-1166D01*
X15238Y-1766D02*
X15838Y-1166D01*
X15238Y-2926D02*
X15238Y-1766D01*
X14378Y-3786D02*
X15238Y-2926D01*
X13298Y-3786D02*
X14378Y-3786D01*
X12818Y-4266D02*
X13298Y-3786D01*
G54D38*
X19818Y-9366D02*
X20043Y-9366D01*
X17478Y-8186D02*
X17958Y-7706D01*
X17958Y-7706D02*
X19018Y-7706D01*
X19018Y-7706D02*
X19158Y-7846D01*
X19158Y-7846D02*
X19158Y-9266D01*
X19158Y-9266D02*
X19258Y-9366D01*
X19258Y-9366D02*
X19818Y-9366D01*
X17463Y-8186D02*
X17478Y-8186D01*
X20043Y-9366D02*
X20238Y-9171D01*
X15273Y-10399D02*
X15273Y-9851D01*
X17123Y-8526D02*
X17463Y-8186D01*
X15538Y-8526D02*
X17123Y-8526D01*
X15398Y-8666D02*
X15538Y-8526D01*
X15398Y-9726D02*
X15398Y-8666D01*
X15273Y-9851D02*
X15398Y-9726D01*
X15273Y-10399D02*
X15760Y-10399D01*
X15760Y-10399D02*
X15918Y-10241D01*
X15276Y-11889D02*
X15273Y-11887D01*
X15273Y-11887D02*
X15273Y-11166D01*
X15273Y-11166D02*
X15273Y-10399D01*
G54D39*
X13609Y-12332D02*
X15049Y-12332D01*
X15276Y-12105D02*
X15276Y-11889D01*
X15049Y-12332D02*
X15276Y-12105D01*
X15273Y-11166D02*
X15273Y-11887D01*
G54D37*
X23188Y-12440D02*
X23188Y-13917D01*
X23569Y-14297D02*
X23891Y-14297D01*
X23188Y-13917D02*
X23569Y-14297D01*
X24679Y-14297D02*
X23891Y-14297D01*
X24574Y-15787D02*
X24574Y-14988D01*
X24311Y-14724D02*
X24311Y-14297D01*
X24574Y-14988D02*
X24311Y-14724D01*
G54D38*
X23891Y-14297D02*
X24311Y-14297D01*
X24311Y-14297D02*
X24679Y-14297D01*
X16458Y-11406D02*
X16458Y-11395D01*
X18997Y-10728D02*
X19178Y-10546D01*
X17125Y-10728D02*
X18997Y-10728D01*
X16458Y-11395D02*
X17125Y-10728D01*
X20998Y-9171D02*
X20998Y-9186D01*
X20263Y-9921D02*
X20238Y-9921D01*
X20998Y-9186D02*
X20263Y-9921D01*
X20998Y-8561D02*
X20998Y-9171D01*
X20238Y-8561D02*
X20998Y-8561D01*
X19818Y-9686D02*
X20003Y-9686D01*
X19178Y-10546D02*
X19178Y-9766D01*
X19178Y-9766D02*
X19258Y-9686D01*
X19258Y-9686D02*
X19818Y-9686D01*
X20003Y-9686D02*
X20238Y-9921D01*
G54D39*
X13609Y-13316D02*
X14281Y-13316D01*
X14390Y-13316D02*
X14675Y-13031D01*
X14675Y-13031D02*
X15378Y-13031D01*
X14281Y-13316D02*
X14390Y-13316D01*
X15554Y-13031D02*
X16238Y-12346D01*
X16238Y-12346D02*
X16238Y-11946D01*
X16238Y-11946D02*
X16458Y-11726D01*
X16458Y-11726D02*
X16458Y-11406D01*
X15378Y-13031D02*
X15554Y-13031D01*
G54D38*
X20998Y-9921D02*
X20998Y-10246D01*
X25818Y-15016D02*
X25943Y-14891D01*
X25818Y-15741D02*
X25818Y-15016D01*
X24943Y-16616D02*
X25818Y-15741D01*
X24218Y-16616D02*
X24943Y-16616D01*
X23568Y-15966D02*
X24218Y-16616D01*
X23568Y-15466D02*
X23568Y-15966D01*
X22468Y-14366D02*
X23568Y-15466D01*
X22468Y-11716D02*
X22468Y-14366D01*
X20998Y-10246D02*
X22468Y-11716D01*
G54D37*
X26818Y-18566D02*
X26818Y-14766D01*
G54D38*
X16694Y-10651D02*
X16893Y-10452D01*
X18357Y-10146D02*
X18803Y-10146D01*
X18051Y-10452D02*
X18357Y-10146D01*
X16893Y-10452D02*
X18051Y-10452D01*
X18783Y-9846D02*
X18783Y-10126D01*
X18783Y-10126D02*
X18803Y-10146D01*
X18783Y-9846D02*
X18783Y-8906D01*
G54D39*
X16009Y-12257D02*
X16009Y-11835D01*
G54D38*
X16078Y-11266D02*
X16694Y-10651D01*
G54D39*
X16078Y-11766D02*
X16078Y-11266D01*
X16009Y-11835D02*
X16078Y-11766D01*
X14273Y-13072D02*
X14279Y-13072D01*
X15462Y-12805D02*
X16009Y-12257D01*
X14547Y-12805D02*
X15462Y-12805D01*
X14279Y-13072D02*
X14547Y-12805D01*
X13609Y-13119D02*
X14226Y-13119D01*
X14226Y-13119D02*
X14273Y-13072D01*
G54D38*
X18783Y-8906D02*
X18783Y-8186D01*
X18213Y-8186D02*
X18783Y-8186D01*
X27268Y-13291D02*
X27918Y-12641D01*
X19553Y-10301D02*
X19818Y-10566D01*
X19818Y-10566D02*
X19818Y-11066D01*
X19818Y-11066D02*
X20143Y-11391D01*
X20143Y-11391D02*
X20143Y-12491D01*
X20143Y-12491D02*
X23243Y-15591D01*
X23243Y-15591D02*
X23243Y-16091D01*
X23243Y-16091D02*
X24068Y-16916D01*
X24068Y-16916D02*
X25343Y-16916D01*
X25343Y-16916D02*
X26393Y-15866D01*
X26393Y-15866D02*
X26393Y-14166D01*
X26393Y-14166D02*
X27268Y-13291D01*
X19553Y-10146D02*
X19553Y-10301D01*
X27918Y-12641D02*
X28343Y-12641D01*
X17353Y-9546D02*
X17353Y-10027D01*
X17353Y-10027D02*
X17283Y-10098D01*
X15816Y-11112D02*
X15833Y-11112D01*
G54D39*
X13609Y-12922D02*
X14103Y-12922D01*
X14172Y-12853D02*
X14103Y-12922D01*
X14447Y-12578D02*
X14172Y-12853D01*
X15816Y-11555D02*
X15816Y-12057D01*
X15816Y-12057D02*
X15295Y-12578D01*
X15295Y-12578D02*
X14447Y-12578D01*
G54D38*
X15816Y-11555D02*
X15816Y-11112D01*
X16578Y-9571D02*
X16603Y-9546D01*
X16578Y-10366D02*
X16578Y-9571D01*
X15833Y-11112D02*
X16578Y-10366D01*
X16603Y-9546D02*
X15973Y-9546D01*
X15973Y-9546D02*
X15918Y-9491D01*
X16658Y-8901D02*
X16658Y-9491D01*
X16658Y-9491D02*
X16603Y-9546D01*
X15918Y-9491D02*
X15918Y-8901D01*
G54D39*
X5737Y-4920D02*
X5412Y-4920D01*
X5412Y-4920D02*
X5278Y-4786D01*
X5954Y-3237D02*
X5954Y-2755D01*
X6515Y-3631D02*
X6250Y-3366D01*
X6250Y-3366D02*
X6082Y-3366D01*
X6082Y-3366D02*
X5954Y-3237D01*
G54D37*
X11643Y-19391D02*
X12968Y-19391D01*
X15368Y-16991D02*
X15368Y-16341D01*
X12968Y-19391D02*
X15368Y-16991D01*
G54D38*
X14326Y-9533D02*
X14243Y-9616D01*
X14898Y-9533D02*
X14326Y-9533D01*
G54D37*
X11643Y-19391D02*
X7933Y-23102D01*
X7933Y-23752D02*
X7933Y-23102D01*
X3968Y-24791D02*
X3668Y-24791D01*
X2843Y-22091D02*
X1998Y-21246D01*
X2843Y-23966D02*
X2843Y-22091D01*
X3668Y-24791D02*
X2843Y-23966D01*
X7368Y-24316D02*
X7933Y-23752D01*
X6868Y-24316D02*
X7368Y-24316D01*
X6393Y-24791D02*
X6868Y-24316D01*
X3968Y-24791D02*
X6393Y-24791D01*
X1558Y-15026D02*
X1998Y-15466D01*
X1558Y-15026D02*
X1558Y-14566D01*
X1998Y-15466D02*
X1998Y-21246D01*
X20866Y-4017D02*
X18029Y-4017D01*
X14578Y-5856D02*
X14388Y-5856D01*
X14643Y-5791D02*
X14578Y-5856D01*
X16255Y-5791D02*
X14643Y-5791D01*
X18029Y-4017D02*
X16255Y-5791D01*
X3918Y-12366D02*
X3718Y-12366D01*
X3718Y-12366D02*
X3338Y-11986D01*
X4918Y-12366D02*
X3918Y-12366D01*
X3338Y-11986D02*
X3338Y-9526D01*
X1558Y-10266D02*
X1558Y-10446D01*
X2678Y-9146D02*
X1558Y-10266D01*
X2958Y-9146D02*
X2678Y-9146D01*
X3338Y-9526D02*
X2958Y-9146D01*
X14388Y-5856D02*
X14388Y-7796D01*
X14351Y-8786D02*
X14351Y-7833D01*
X14388Y-7796D02*
X14351Y-7833D01*
X13798Y-5266D02*
X13798Y-4746D01*
X14388Y-5856D02*
X13798Y-5266D01*
X20789Y-4017D02*
X20866Y-4017D01*
X20866Y-4017D02*
X21531Y-4017D01*
X21531Y-4017D02*
X21822Y-3725D01*
X1558Y-10446D02*
X1558Y-14566D01*
X15578Y-4746D02*
X13798Y-4746D01*
X15578Y-5246D02*
X15578Y-4746D01*
X15578Y-4746D02*
X15578Y-4286D01*
X15578Y-4286D02*
X15598Y-4266D01*
X14898Y-9533D02*
X14898Y-9333D01*
X14898Y-9333D02*
X14351Y-8786D01*
G54D38*
X14898Y-9333D02*
X14351Y-8786D01*
G54D37*
X23022Y-5240D02*
X22331Y-5240D01*
X22331Y-5240D02*
X21822Y-4732D01*
X21822Y-4732D02*
X21822Y-3725D01*
X23147Y-4400D02*
X23147Y-5115D01*
X23147Y-5115D02*
X23022Y-5240D01*
G54D39*
X12378Y-16006D02*
X12972Y-16600D01*
X12378Y-16006D02*
X12378Y-15529D01*
X13238Y-16866D02*
X12972Y-16600D01*
X13468Y-16866D02*
X13238Y-16866D01*
G54D38*
X10000Y-4173D02*
X10005Y-4173D01*
X9724Y-7492D02*
X9724Y-9429D01*
X9618Y-7386D02*
X9724Y-7492D01*
X10238Y-4406D02*
X10238Y-5646D01*
X10005Y-4173D02*
X10238Y-4406D01*
G54D39*
X10215Y-10843D02*
X10215Y-9920D01*
X10215Y-9920D02*
X9724Y-9429D01*
G54D38*
X8203Y-2591D02*
X8098Y-2591D01*
X8578Y-2966D02*
X9370Y-2966D01*
X8203Y-2591D02*
X8578Y-2966D01*
X9370Y-2966D02*
X9429Y-2966D01*
X9763Y-3937D02*
X10000Y-4173D01*
X9763Y-3228D02*
X9763Y-3937D01*
X9502Y-2966D02*
X9763Y-3228D01*
X9429Y-2966D02*
X9502Y-2966D01*
X8098Y-2591D02*
X8098Y-1666D01*
G54D39*
X10412Y-10843D02*
X10412Y-8877D01*
X10078Y-8543D02*
X10078Y-7381D01*
X10412Y-8877D02*
X10078Y-8543D01*
G54D38*
X9803Y-6240D02*
X9996Y-6046D01*
X10590Y-5875D02*
X10590Y-4822D01*
X10418Y-6046D02*
X10590Y-5875D01*
X9996Y-6046D02*
X10418Y-6046D01*
X10275Y-3720D02*
X10590Y-4035D01*
X10590Y-4035D02*
X10590Y-4822D01*
X10038Y-3503D02*
X10039Y-3503D01*
X10255Y-3720D02*
X10275Y-3720D01*
X10039Y-3503D02*
X10255Y-3720D01*
G54D39*
X9803Y-7066D02*
X9803Y-6240D01*
X9901Y-7165D02*
X9803Y-7066D01*
X9901Y-7204D02*
X9901Y-7165D01*
X10078Y-7381D02*
X9901Y-7204D01*
G54D38*
X9098Y-2591D02*
X9523Y-2591D01*
X10038Y-3106D02*
X10038Y-3503D01*
X9523Y-2591D02*
X10038Y-3106D01*
X9098Y-2591D02*
X9098Y-1666D01*
G54D39*
X12583Y-16511D02*
X13313Y-17241D01*
X12181Y-16109D02*
X12583Y-16511D01*
X12181Y-15529D02*
X12181Y-16109D01*
X30218Y-16566D02*
X30243Y-16541D01*
X30218Y-17341D02*
X30218Y-16566D01*
X13313Y-17241D02*
X13968Y-17241D01*
X11986Y-10843D02*
X11986Y-10490D01*
X11830Y-7303D02*
X12598Y-7303D01*
X11456Y-7677D02*
X11830Y-7303D01*
X11456Y-9960D02*
X11456Y-7677D01*
X11986Y-10490D02*
X11456Y-9960D01*
X12183Y-10843D02*
X12183Y-10234D01*
X11771Y-8385D02*
X12244Y-7913D01*
X11771Y-9822D02*
X11771Y-8385D01*
X12183Y-10234D02*
X11771Y-9822D01*
G54D37*
X4918Y-8366D02*
X3918Y-8366D01*
X5943Y-8866D02*
X5443Y-8366D01*
X5443Y-8366D02*
X4918Y-8366D01*
X4918Y-9366D02*
X3918Y-9366D01*
X5943Y-9666D02*
X5618Y-9666D01*
X5318Y-9366D02*
X4918Y-9366D01*
X5618Y-9666D02*
X5318Y-9366D01*
X4918Y-10366D02*
X3918Y-10366D01*
X5943Y-10466D02*
X5018Y-10466D01*
X5018Y-10466D02*
X4918Y-10366D01*
X4918Y-11366D02*
X3918Y-11366D01*
X5943Y-11366D02*
X4918Y-11366D01*
G54D38*
X4918Y-18366D02*
X5218Y-18366D01*
X5904Y-19352D02*
X5904Y-19980D01*
X5618Y-19066D02*
X5904Y-19352D01*
X5618Y-18766D02*
X5618Y-19066D01*
X5218Y-18366D02*
X5618Y-18766D01*
G54D37*
X4918Y-18366D02*
X3918Y-18366D01*
G54D38*
X9498Y-16946D02*
X9298Y-16946D01*
X9298Y-16946D02*
X9238Y-17006D01*
X9238Y-17006D02*
X7678Y-17006D01*
X7678Y-17006D02*
X7278Y-17406D01*
X7278Y-17406D02*
X7278Y-17426D01*
X7278Y-17426D02*
X7038Y-17666D01*
X7038Y-17666D02*
X6478Y-17666D01*
X6478Y-17666D02*
X6318Y-17826D01*
X6318Y-17826D02*
X6318Y-19246D01*
X6318Y-19246D02*
X5904Y-19661D01*
X5904Y-19661D02*
X5904Y-19980D01*
G54D39*
X11593Y-15529D02*
X11593Y-16712D01*
X11593Y-16712D02*
X11358Y-16946D01*
G54D38*
X5904Y-20964D02*
X5816Y-20964D01*
X5218Y-19366D02*
X4918Y-19366D01*
X5518Y-19666D02*
X5218Y-19366D01*
X5518Y-20666D02*
X5518Y-19666D01*
X5816Y-20964D02*
X5518Y-20666D01*
G54D37*
X3918Y-19366D02*
X4918Y-19366D01*
G54D39*
X11787Y-15529D02*
X11787Y-16495D01*
G54D38*
X5904Y-21132D02*
X5904Y-20964D01*
X6238Y-21466D02*
X5904Y-21132D01*
X7158Y-21466D02*
X6238Y-21466D01*
X7578Y-21046D02*
X7158Y-21466D01*
X7578Y-20606D02*
X7578Y-21046D01*
X7158Y-20186D02*
X7578Y-20606D01*
X7158Y-18026D02*
X7158Y-20186D01*
X7858Y-17326D02*
X7158Y-18026D01*
X9578Y-17326D02*
X7858Y-17326D01*
X9638Y-17386D02*
X9578Y-17326D01*
G54D39*
X11787Y-16495D02*
X11978Y-16686D01*
X11199Y-9902D02*
X11199Y-7146D01*
X11199Y-7146D02*
X11709Y-6637D01*
G54D38*
X11709Y-6637D02*
X11709Y-4436D01*
X13218Y-3186D02*
X12638Y-3766D01*
X12638Y-3766D02*
X12378Y-3766D01*
X14118Y-3186D02*
X13218Y-3186D01*
X11709Y-4436D02*
X12378Y-3766D01*
G54D39*
X11199Y-10843D02*
X11199Y-9902D01*
X11002Y-9822D02*
X11002Y-6871D01*
X11002Y-6871D02*
X11417Y-6456D01*
X11002Y-10843D02*
X11002Y-9822D01*
G54D38*
X12338Y-3246D02*
X11398Y-4186D01*
X11417Y-6456D02*
X11417Y-5078D01*
X11417Y-5078D02*
X11398Y-5060D01*
X11398Y-5060D02*
X11398Y-4186D01*
X12338Y-3246D02*
X12338Y-3186D01*
G54D39*
X10805Y-9704D02*
X10805Y-6556D01*
X10805Y-6556D02*
X11043Y-6318D01*
G54D38*
X10578Y-3186D02*
X10667Y-3186D01*
X11043Y-3562D02*
X11043Y-6318D01*
X10667Y-3186D02*
X11043Y-3562D01*
G54D39*
X10805Y-10843D02*
X10805Y-9704D01*
G54D38*
X6318Y-9626D02*
X6318Y-8466D01*
G54D39*
X7705Y-5511D02*
X8098Y-5511D01*
X7007Y-13779D02*
X6678Y-13779D01*
X7086Y-13700D02*
X7007Y-13779D01*
X7224Y-13700D02*
X7086Y-13700D01*
X7411Y-13513D02*
X7224Y-13700D01*
X7559Y-13513D02*
X8923Y-13513D01*
X7559Y-13513D02*
X7411Y-13513D01*
G54D38*
X8298Y-6266D02*
X8298Y-5866D01*
X6678Y-13779D02*
X6651Y-13779D01*
X6318Y-13446D02*
X6318Y-9626D01*
X6651Y-13779D02*
X6318Y-13446D01*
G54D39*
X8203Y-5511D02*
X8298Y-5606D01*
X8298Y-5606D02*
X8298Y-5866D01*
X8098Y-5511D02*
X8203Y-5511D01*
G54D38*
X8298Y-7286D02*
X7218Y-8366D01*
X7218Y-8366D02*
X6418Y-8366D01*
X6418Y-8366D02*
X6318Y-8466D01*
X8298Y-6266D02*
X8298Y-7286D01*
G54D39*
X11199Y-15529D02*
X11200Y-15530D01*
X10728Y-17546D02*
X10728Y-16702D01*
X10728Y-16702D02*
X11196Y-16234D01*
X11200Y-16230D02*
X11196Y-16234D01*
X11200Y-15530D02*
X11200Y-16230D01*
G54D38*
X10728Y-17717D02*
X10378Y-18066D01*
X10378Y-18066D02*
X10378Y-18406D01*
X10728Y-17546D02*
X10728Y-17717D01*
X7143Y-22266D02*
X6693Y-22266D01*
G54D39*
X11196Y-15529D02*
X11199Y-15529D01*
X11396Y-16457D02*
X11023Y-16830D01*
X11023Y-16830D02*
X11023Y-17546D01*
X11396Y-15529D02*
X11396Y-16457D01*
G54D38*
X11023Y-18222D02*
X10878Y-18366D01*
X11023Y-17546D02*
X11023Y-18222D01*
X7168Y-23366D02*
X6693Y-23366D01*
X6713Y-23367D02*
X6712Y-23366D01*
G54D39*
X11391Y-15529D02*
X11396Y-15529D01*
G54D38*
X4118Y-24466D02*
X3768Y-24466D01*
X3143Y-21716D02*
X2438Y-21011D01*
X3143Y-23841D02*
X3143Y-21716D01*
X3768Y-24466D02*
X3143Y-23841D01*
X7519Y-23641D02*
X7219Y-23941D01*
X6093Y-24466D02*
X4118Y-24466D01*
X6618Y-23941D02*
X6093Y-24466D01*
X7219Y-23941D02*
X6618Y-23941D01*
X2338Y-10046D02*
X2818Y-9566D01*
X2338Y-14226D02*
X2338Y-10046D01*
X2438Y-14326D02*
X2338Y-14226D01*
X2438Y-21011D02*
X2438Y-14326D01*
X7519Y-21966D02*
X8138Y-21346D01*
X7519Y-23641D02*
X7519Y-21966D01*
X8138Y-20866D02*
X8138Y-21346D01*
X10393Y-17606D02*
X10393Y-17612D01*
X8138Y-18706D02*
X8138Y-20866D01*
X8778Y-18066D02*
X8138Y-18706D01*
X9938Y-18066D02*
X8778Y-18066D01*
X10393Y-17612D02*
X9938Y-18066D01*
G54D39*
X10403Y-16643D02*
X10393Y-16653D01*
X10393Y-16653D02*
X10393Y-17606D01*
X11002Y-15529D02*
X11002Y-16044D01*
X11002Y-16044D02*
X10403Y-16643D01*
G54D38*
X3418Y-22416D02*
X3418Y-21491D01*
X3043Y-19216D02*
X2798Y-18971D01*
X3043Y-21116D02*
X3043Y-19216D01*
X3418Y-21491D02*
X3043Y-21116D01*
X4218Y-24166D02*
X3843Y-24166D01*
X3418Y-23741D02*
X3418Y-22416D01*
X3843Y-24166D02*
X3418Y-23741D01*
X6318Y-23566D02*
X6318Y-23766D01*
X5918Y-24166D02*
X4218Y-24166D01*
X6318Y-23766D02*
X5918Y-24166D01*
X7298Y-21726D02*
X7258Y-21766D01*
X6318Y-21866D02*
X6318Y-23566D01*
X6418Y-21766D02*
X6318Y-21866D01*
X7258Y-21766D02*
X6418Y-21766D01*
X2798Y-14026D02*
X2738Y-13966D01*
X2798Y-18971D02*
X2798Y-14026D01*
X10000Y-17566D02*
X9998Y-17566D01*
X7838Y-21186D02*
X7298Y-21726D01*
X7838Y-18366D02*
X7838Y-21186D01*
X8458Y-17746D02*
X7838Y-18366D01*
X9818Y-17746D02*
X8458Y-17746D01*
X9998Y-17566D02*
X9818Y-17746D01*
X10000Y-16555D02*
X10000Y-17566D01*
G54D39*
X10805Y-15887D02*
X10433Y-16259D01*
X10805Y-15887D02*
X10805Y-15529D01*
X10295Y-16259D02*
X10000Y-16555D01*
X10433Y-16259D02*
X10295Y-16259D01*
G54D37*
X3918Y-22366D02*
X4918Y-22366D01*
G54D38*
X943Y-14516D02*
X993Y-14516D01*
X918Y-14541D02*
X943Y-14516D01*
X1043Y-10416D02*
X993Y-10466D01*
X993Y-10466D02*
X993Y-14516D01*
X993Y-14516D02*
X1018Y-14541D01*
G54D39*
X5358Y-6186D02*
X5358Y-7026D01*
X5358Y-7026D02*
X5298Y-7086D01*
X8923Y-13316D02*
X7828Y-13316D01*
X7828Y-13316D02*
X7678Y-13166D01*
X5358Y-5846D02*
X5358Y-6186D01*
X5737Y-5708D02*
X5497Y-5708D01*
X5497Y-5708D02*
X5358Y-5846D01*
G54D38*
X6820Y-17141D02*
X6820Y-17105D01*
G54D39*
X9821Y-16004D02*
X9821Y-15529D01*
X9518Y-16306D02*
X9821Y-16004D01*
G54D38*
X9098Y-16726D02*
X9518Y-16306D01*
X7198Y-16726D02*
X9098Y-16726D01*
X6820Y-17105D02*
X7198Y-16726D01*
G54D39*
X8923Y-14300D02*
X7661Y-14300D01*
X7661Y-14300D02*
X6820Y-15141D01*
G54D38*
X8558Y-9166D02*
X8558Y-8646D01*
X8518Y-9206D02*
X8558Y-9166D01*
G54D39*
X7705Y-5314D02*
X8306Y-5314D01*
X8195Y-13710D02*
X8923Y-13710D01*
X8038Y-13866D02*
X8195Y-13710D01*
G54D38*
X8558Y-6026D02*
X8558Y-8646D01*
X8558Y-5786D02*
X8558Y-6026D01*
X8558Y-5566D02*
X8558Y-5786D01*
G54D39*
X8306Y-5314D02*
X8558Y-5566D01*
G54D37*
X4918Y-15366D02*
X5518Y-15366D01*
G54D38*
X5518Y-15366D02*
X5818Y-15366D01*
X5818Y-15366D02*
X5918Y-15466D01*
X5918Y-15466D02*
X5918Y-18262D01*
X5918Y-18262D02*
X5943Y-18287D01*
G54D37*
X3918Y-15366D02*
X4918Y-15366D01*
G54D39*
X12952Y-10708D02*
X12909Y-10708D01*
X13366Y-10708D02*
X12952Y-10708D01*
X12909Y-10708D02*
X12774Y-10843D01*
G54D37*
X3918Y-16366D02*
X4918Y-16366D01*
G54D39*
X13691Y-11741D02*
X13609Y-11741D01*
X13897Y-11200D02*
X13897Y-11535D01*
X13897Y-11535D02*
X13691Y-11741D01*
G54D38*
X24882Y-8956D02*
X24882Y-8405D01*
X24882Y-8405D02*
X24043Y-7566D01*
X23593Y-7116D02*
X24043Y-7566D01*
X22468Y-7116D02*
X23593Y-7116D01*
X21268Y-7116D02*
X22468Y-7116D01*
G54D37*
X19996Y-16633D02*
X19996Y-16846D01*
X34055Y-11255D02*
X33484Y-10685D01*
X34055Y-19094D02*
X34055Y-11255D01*
X33267Y-19881D02*
X34055Y-19094D01*
X31692Y-19881D02*
X33267Y-19881D01*
X31496Y-19685D02*
X31692Y-19881D01*
X25984Y-19685D02*
X31496Y-19685D01*
X25393Y-19094D02*
X25984Y-19685D01*
X25393Y-17913D02*
X25393Y-19094D01*
X24803Y-17322D02*
X25393Y-17913D01*
X20472Y-17322D02*
X24803Y-17322D01*
X19996Y-16846D02*
X20472Y-17322D01*
X30826Y-10744D02*
X30826Y-10771D01*
X30826Y-10771D02*
X29645Y-11952D01*
X32263Y-11913D02*
X32115Y-11913D01*
X30946Y-10744D02*
X30826Y-10744D01*
X32115Y-11913D02*
X30946Y-10744D01*
X30614Y-3090D02*
X26456Y-3090D01*
X26456Y-3090D02*
X26269Y-3277D01*
G54D38*
X25348Y-9828D02*
X25348Y-9422D01*
X25348Y-9422D02*
X24882Y-8956D01*
G54D37*
X25729Y-2982D02*
X26014Y-2982D01*
X25869Y-4557D02*
X25009Y-4557D01*
X26269Y-3395D02*
X26269Y-4157D01*
X26269Y-4157D02*
X25869Y-4557D01*
X26269Y-3237D02*
X26269Y-3277D01*
X26269Y-3277D02*
X26269Y-3395D01*
X26014Y-2982D02*
X26269Y-3237D01*
X25684Y-2317D02*
X25684Y-2937D01*
X25684Y-2937D02*
X25729Y-2982D01*
X28409Y-7106D02*
X25669Y-7106D01*
X22141Y-5964D02*
X21472Y-5295D01*
X23267Y-5964D02*
X22141Y-5964D01*
X24251Y-6948D02*
X23267Y-5964D01*
X25511Y-6948D02*
X24251Y-6948D01*
X25669Y-7106D02*
X25511Y-6948D01*
G54D38*
X23346Y-9134D02*
X23346Y-9389D01*
X23785Y-9828D02*
X24009Y-9828D01*
X23346Y-9389D02*
X23785Y-9828D01*
G54D39*
X15843Y-16391D02*
X15843Y-16011D01*
X27768Y-16516D02*
X27768Y-17466D01*
X27768Y-17466D02*
X27643Y-17591D01*
X15843Y-17616D02*
X15843Y-16391D01*
X15843Y-16011D02*
X14838Y-15006D01*
X13609Y-14497D02*
X14029Y-14497D01*
X14518Y-14686D02*
X14838Y-15006D01*
X14218Y-14686D02*
X14518Y-14686D01*
X14029Y-14497D02*
X14218Y-14686D01*
G54D37*
X32614Y-3090D02*
X32614Y-1637D01*
X32614Y-1637D02*
X32677Y-1574D01*
G54D38*
X22353Y-1539D02*
X22270Y-1539D01*
X22270Y-1539D02*
X21822Y-1987D01*
X32614Y-3090D02*
X32242Y-3090D01*
X21960Y-766D02*
X21939Y-787D01*
X29918Y-766D02*
X21960Y-766D01*
X32242Y-3090D02*
X29918Y-766D01*
G54D39*
X11473Y-18991D02*
X11843Y-18991D01*
X14093Y-17616D02*
X14350Y-17360D01*
X13218Y-17616D02*
X14093Y-17616D01*
X11843Y-18991D02*
X13218Y-17616D01*
G54D38*
X9718Y-19381D02*
X11083Y-19381D01*
X14350Y-17360D02*
X14350Y-15659D01*
X11083Y-19381D02*
X11473Y-18991D01*
X16363Y-15886D02*
X16363Y-16186D01*
X17793Y-14551D02*
X18458Y-13886D01*
X17793Y-16091D02*
X17793Y-14551D01*
X17468Y-16416D02*
X17793Y-16091D01*
X16593Y-16416D02*
X17468Y-16416D01*
X16363Y-16186D02*
X16593Y-16416D01*
G54D37*
X19898Y-1166D02*
X20683Y-1166D01*
X21062Y-787D02*
X21939Y-787D01*
X20683Y-1166D02*
X21062Y-787D01*
X21939Y-787D02*
X22189Y-1037D01*
X22353Y-1201D02*
X22189Y-1037D01*
X22353Y-1201D02*
X22353Y-1539D01*
X24132Y-8347D02*
X24132Y-8956D01*
X24212Y-8267D02*
X24132Y-8347D01*
X3918Y-21366D02*
X3768Y-21366D01*
X3768Y-21366D02*
X3378Y-20976D01*
X3378Y-20976D02*
X3378Y-20366D01*
X29618Y-18566D02*
X32618Y-18566D01*
X26437Y-6397D02*
X29174Y-6397D01*
X29174Y-6397D02*
X29883Y-7106D01*
X29883Y-7106D02*
X30409Y-7106D01*
X4918Y-21366D02*
X4918Y-20366D01*
X4918Y-21366D02*
X3918Y-21366D01*
X3918Y-20366D02*
X3378Y-20366D01*
X4918Y-20366D02*
X3918Y-20366D01*
X3918Y-17366D02*
X3718Y-17366D01*
X3718Y-14366D02*
X3918Y-14366D01*
X3318Y-14766D02*
X3718Y-14366D01*
X3318Y-16966D02*
X3318Y-14766D01*
X3718Y-17366D02*
X3318Y-16966D01*
X3918Y-17366D02*
X3818Y-17366D01*
X3378Y-20366D02*
X3378Y-19514D01*
X3378Y-17806D02*
X3378Y-19514D01*
X3818Y-17366D02*
X3378Y-17806D01*
X3918Y-17366D02*
X4918Y-17366D01*
G54D38*
X4868Y-7716D02*
X4918Y-7766D01*
X5418Y-7766D02*
X5605Y-7953D01*
X4918Y-7766D02*
X5418Y-7766D01*
X18458Y-13883D02*
X18458Y-13886D01*
X18458Y-13883D02*
X19271Y-13070D01*
X19271Y-13070D02*
X19271Y-12814D01*
X19271Y-12814D02*
X19763Y-12322D01*
X19763Y-12322D02*
X19763Y-11614D01*
X19763Y-11614D02*
X19409Y-11259D01*
X19409Y-11259D02*
X19370Y-11259D01*
G54D37*
X32614Y-3090D02*
X32614Y-4901D01*
X32614Y-4901D02*
X30409Y-7106D01*
X20238Y-7811D02*
X20998Y-7811D01*
X22559Y-8384D02*
X22559Y-8248D01*
X22559Y-8248D02*
X21909Y-7598D01*
X21909Y-7598D02*
X21212Y-7598D01*
X21212Y-7598D02*
X20998Y-7811D01*
G54D38*
X24132Y-8956D02*
X24132Y-8955D01*
X24132Y-8955D02*
X23562Y-8384D01*
X23562Y-8384D02*
X23346Y-8384D01*
X22559Y-8384D02*
X23346Y-8384D01*
X20238Y-7811D02*
X19908Y-7811D01*
X19908Y-7811D02*
X19533Y-8186D01*
X16658Y-8151D02*
X16658Y-8026D01*
X16658Y-8026D02*
X17278Y-7406D01*
X17278Y-7406D02*
X19238Y-7406D01*
X19238Y-7406D02*
X19533Y-7701D01*
X19533Y-7701D02*
X19533Y-8186D01*
X19533Y-8906D02*
X19533Y-8186D01*
G54D37*
X22647Y-2300D02*
X22647Y-1834D01*
X22647Y-1834D02*
X22353Y-1539D01*
G54D38*
X16658Y-8151D02*
X15918Y-8151D01*
G54D37*
X24934Y-2317D02*
X24934Y-2947D01*
X24934Y-2947D02*
X24969Y-2982D01*
X23647Y-2777D02*
X23629Y-2777D01*
X22647Y-2835D02*
X22647Y-2300D01*
X22769Y-2957D02*
X22647Y-2835D01*
X23449Y-2957D02*
X22769Y-2957D01*
X23629Y-2777D02*
X23449Y-2957D01*
X24969Y-2982D02*
X23814Y-2982D01*
X23647Y-2815D02*
X23647Y-2777D01*
X23647Y-2777D02*
X23647Y-2300D01*
X23814Y-2982D02*
X23647Y-2815D01*
G54D38*
X3943Y-6026D02*
X3678Y-6026D01*
X3678Y-6026D02*
X3403Y-6301D01*
X6721Y-7953D02*
X5605Y-7953D01*
X4868Y-7716D02*
X4438Y-7286D01*
X4438Y-7286D02*
X3618Y-7286D01*
X3618Y-7286D02*
X3403Y-7071D01*
X3403Y-7071D02*
X3403Y-6301D01*
X3943Y-6026D02*
X3943Y-5871D01*
X3403Y-5331D02*
X3403Y-5166D01*
X3943Y-5871D02*
X3403Y-5331D01*
G54D37*
X13798Y-6746D02*
X13798Y-5986D01*
X13798Y-5986D02*
X13138Y-5326D01*
X13138Y-5326D02*
X13138Y-4409D01*
X13138Y-4409D02*
X13401Y-4146D01*
X13401Y-4146D02*
X14618Y-4146D01*
X14618Y-4146D02*
X16498Y-2266D01*
X16498Y-2266D02*
X16978Y-2266D01*
X17318Y-2266D02*
X17718Y-1866D01*
G54D38*
X17718Y-1866D02*
X18418Y-1166D01*
X18418Y-1166D02*
X19898Y-1166D01*
G54D37*
X16978Y-2266D02*
X17318Y-2266D01*
X13798Y-6746D02*
X13758Y-6746D01*
X13438Y-7066D02*
X12718Y-7786D01*
X12718Y-7786D02*
X12718Y-8411D01*
X13758Y-6746D02*
X13438Y-7066D01*
G54D38*
X18458Y-13886D02*
X18018Y-13886D01*
X17710Y-13578D02*
X17211Y-13578D01*
X18018Y-13886D02*
X17710Y-13578D01*
X17553Y-12726D02*
X17553Y-12296D01*
X17553Y-12296D02*
X17203Y-11946D01*
X16363Y-15886D02*
X16363Y-15092D01*
X16363Y-15092D02*
X16305Y-15034D01*
X17211Y-13578D02*
X17211Y-13473D01*
X17553Y-13131D02*
X17553Y-12726D01*
X17211Y-13473D02*
X17553Y-13131D01*
X3403Y-5166D02*
X3403Y-4921D01*
X3938Y-4386D02*
X4083Y-4386D01*
X3403Y-4921D02*
X3938Y-4386D01*
X4303Y-3566D02*
X4303Y-3981D01*
X4083Y-4201D02*
X4083Y-4386D01*
X4303Y-3981D02*
X4083Y-4201D01*
X4930Y-2755D02*
X4930Y-2975D01*
X4338Y-3566D02*
X4303Y-3566D01*
X4930Y-2975D02*
X4338Y-3566D01*
G54D39*
X6918Y-4527D02*
X6918Y-4267D01*
X9428Y-5056D02*
X9428Y-6692D01*
X9138Y-4766D02*
X9428Y-5056D01*
X8138Y-4766D02*
X9138Y-4766D01*
X7538Y-4166D02*
X8138Y-4766D01*
X7018Y-4166D02*
X7538Y-4166D01*
X6918Y-4267D02*
X7018Y-4166D01*
G54D38*
X12718Y-8411D02*
X13485Y-8411D01*
X13366Y-9872D02*
X13413Y-9872D01*
X13485Y-8433D02*
X13485Y-8411D01*
X13918Y-8866D02*
X13485Y-8433D01*
X13918Y-9366D02*
X13918Y-8866D01*
X13413Y-9872D02*
X13918Y-9366D01*
X14118Y-511D02*
X14363Y-511D01*
X14363Y-511D02*
X14678Y-826D01*
G54D39*
X19898Y-1166D02*
X19998Y-1166D01*
X9281Y-9438D02*
X9281Y-9104D01*
X10018Y-10314D02*
X10018Y-10843D01*
X10018Y-10175D02*
X9281Y-9438D01*
X10018Y-10314D02*
X10018Y-10175D01*
X9281Y-9104D02*
X9074Y-8897D01*
X9074Y-8897D02*
X9074Y-7046D01*
X9074Y-7046D02*
X9428Y-6692D01*
X12577Y-12214D02*
X12193Y-12598D01*
X12193Y-12598D02*
X11377Y-12598D01*
X6682Y-2755D02*
X6682Y-3119D01*
X6682Y-3119D02*
X6919Y-3356D01*
X12577Y-12214D02*
X12577Y-12215D01*
X8923Y-14494D02*
X8923Y-14497D01*
X10298Y-14494D02*
X8923Y-14494D01*
X12577Y-12215D02*
X10298Y-14494D01*
X12574Y-15529D02*
X12574Y-12928D01*
X12577Y-12925D02*
X12577Y-12214D01*
X12577Y-12214D02*
X12577Y-12213D01*
X12574Y-12928D02*
X12577Y-12925D01*
X12577Y-12213D02*
X10451Y-12213D01*
X10451Y-12213D02*
X10021Y-11782D01*
X10021Y-11782D02*
X10021Y-10843D01*
X10021Y-10843D02*
X10018Y-10843D01*
X13609Y-12529D02*
X12893Y-12529D01*
X12893Y-12529D02*
X12577Y-12213D01*
X12577Y-12213D02*
X12577Y-10843D01*
X14523Y-11166D02*
X14523Y-11887D01*
X14523Y-11887D02*
X14526Y-11889D01*
X3965Y-1358D02*
X1791Y-1358D01*
X1791Y-1358D02*
X1574Y-1574D01*
G54D38*
X8342Y-16310D02*
X7702Y-16310D01*
X7533Y-16141D02*
X6820Y-16141D01*
X7702Y-16310D02*
X7533Y-16141D01*
X12338Y-511D02*
X14118Y-511D01*
X10578Y-511D02*
X12338Y-511D01*
X9098Y-666D02*
X9758Y-666D01*
X9913Y-511D02*
X10578Y-511D01*
X9758Y-666D02*
X9913Y-511D01*
G54D39*
X8739Y-16310D02*
X8342Y-16310D01*
X8508Y-14497D02*
X8923Y-14497D01*
X8342Y-16310D02*
X8198Y-16166D01*
X8198Y-16166D02*
X8198Y-14806D01*
X8198Y-14806D02*
X8508Y-14497D01*
G54D38*
X8098Y-666D02*
X9098Y-666D01*
X8098Y-666D02*
X8038Y-666D01*
X7347Y-1358D02*
X6918Y-1358D01*
X8038Y-666D02*
X7347Y-1358D01*
G54D39*
X6918Y-4527D02*
X6918Y-5314D01*
X6918Y-5314D02*
X6721Y-5511D01*
X8088Y-10620D02*
X8088Y-9832D01*
X12577Y-10843D02*
X12577Y-10428D01*
X12577Y-10428D02*
X12658Y-10346D01*
X12658Y-10346D02*
X13078Y-10346D01*
X13078Y-10346D02*
X13366Y-10059D01*
X13366Y-10059D02*
X13366Y-9872D01*
X14523Y-10399D02*
X14151Y-10399D01*
X14151Y-10399D02*
X13624Y-9872D01*
X13624Y-9872D02*
X13366Y-9872D01*
X14523Y-11166D02*
X14523Y-10399D01*
X12574Y-15529D02*
X12574Y-15882D01*
X14350Y-15895D02*
X14350Y-15659D01*
X14138Y-16106D02*
X14350Y-15895D01*
X12798Y-16106D02*
X14138Y-16106D01*
X12574Y-15882D02*
X12798Y-16106D01*
G54D38*
X23647Y-2615D02*
X23647Y-2639D01*
X23647Y-2615D02*
X23647Y-2300D01*
X23647Y-2639D02*
X23449Y-2837D01*
X23449Y-2837D02*
X22809Y-2837D01*
X22809Y-2837D02*
X22647Y-2675D01*
X22647Y-2675D02*
X22647Y-2300D01*
X21822Y-1987D02*
X21822Y-2975D01*
X22647Y-1834D02*
X22353Y-1539D01*
G54D39*
X5914Y-1358D02*
X6918Y-1358D01*
X4969Y-1358D02*
X5914Y-1358D01*
X3965Y-1358D02*
X4969Y-1358D01*
X4202Y-2755D02*
X4202Y-1594D01*
X4202Y-1594D02*
X3965Y-1358D01*
X4930Y-2755D02*
X4202Y-2755D01*
X5698Y-2755D02*
X5698Y-3526D01*
X6378Y-3996D02*
X6524Y-4142D01*
X6168Y-3996D02*
X6378Y-3996D01*
X5698Y-3526D02*
X6168Y-3996D01*
X6524Y-4527D02*
X6524Y-4142D01*
X13609Y-13710D02*
X14747Y-13710D01*
X14747Y-13710D02*
X14903Y-13866D01*
G54D38*
X17113Y-15886D02*
X17113Y-15132D01*
G54D39*
X14238Y-13906D02*
X13609Y-13906D01*
X14698Y-14366D02*
X14238Y-13906D01*
X15638Y-14366D02*
X14698Y-14366D01*
X15698Y-14426D02*
X15638Y-14366D01*
G54D38*
X16798Y-14426D02*
X15698Y-14426D01*
X17113Y-14741D02*
X16798Y-14426D01*
X17113Y-15132D02*
X17113Y-14741D01*
G54D37*
X24969Y-3732D02*
X25729Y-3732D01*
X24969Y-3732D02*
X22814Y-3732D01*
X22647Y-3899D02*
X22647Y-4400D01*
X22814Y-3732D02*
X22647Y-3899D01*
X27677Y-4370D02*
X26929Y-4370D01*
X25334Y-5846D02*
X23976Y-5846D01*
X23976Y-5846D02*
X23772Y-5642D01*
X23772Y-5642D02*
X23772Y-5240D01*
X25452Y-5846D02*
X25334Y-5846D01*
X26929Y-4370D02*
X25452Y-5846D01*
X23772Y-5240D02*
X23772Y-5000D01*
X23772Y-5000D02*
X23647Y-4875D01*
X23647Y-4875D02*
X23647Y-4400D01*
G54D38*
X23647Y-4875D02*
X23647Y-4400D01*
X23772Y-5000D02*
X23647Y-4875D01*
G54D37*
X27677Y-2401D02*
X26771Y-2401D01*
X25927Y-1557D02*
X25009Y-1557D01*
X26771Y-2401D02*
X25927Y-1557D01*
X24147Y-2300D02*
X24147Y-1959D01*
X24549Y-1557D02*
X25009Y-1557D01*
X24147Y-1959D02*
X24549Y-1557D01*
X24289Y-1897D02*
X24147Y-2039D01*
X24147Y-2039D02*
X24147Y-2300D01*
G54D38*
X24147Y-2039D02*
X24147Y-2300D01*
X24289Y-1897D02*
X24147Y-2039D01*
X23147Y-2300D02*
X23147Y-1584D01*
X23147Y-1584D02*
X23103Y-1539D01*
X21811Y-8542D02*
X21811Y-8169D01*
X21811Y-8169D02*
X21673Y-8031D01*
G54D37*
X23891Y-13547D02*
X24679Y-13547D01*
X24679Y-13547D02*
X24679Y-11403D01*
G54D39*
X12288Y-16536D02*
X12358Y-16606D01*
X12358Y-16606D02*
X12358Y-16826D01*
X9853Y-18766D02*
X9718Y-18631D01*
X11038Y-18766D02*
X9853Y-18766D01*
X11278Y-18526D02*
X11038Y-18766D01*
X11278Y-17906D02*
X11278Y-18526D01*
X12358Y-16826D02*
X11278Y-17906D01*
G54D38*
X8758Y-18866D02*
X8998Y-18866D01*
X9233Y-18631D02*
X9718Y-18631D01*
X8998Y-18866D02*
X9233Y-18631D01*
G54D39*
X11984Y-15529D02*
X11984Y-16232D01*
X11984Y-16232D02*
X12288Y-16536D01*
X12288Y-16536D02*
X12358Y-16606D01*
G54D38*
X21811Y-9292D02*
X22401Y-9292D01*
X22401Y-9292D02*
X22559Y-9134D01*
X22671Y-9828D02*
X22671Y-9246D01*
X22671Y-9246D02*
X22559Y-9134D01*
X4018Y-23766D02*
X4118Y-23866D01*
X4118Y-23866D02*
X5318Y-23866D01*
X5943Y-23366D02*
X5818Y-23366D01*
X5418Y-23766D02*
X5318Y-23866D01*
X5818Y-23366D02*
X5418Y-23766D01*
X3918Y-23666D02*
X3918Y-23366D01*
X4018Y-23766D02*
X3918Y-23666D01*
G54D37*
X24018Y-18566D02*
X23418Y-18566D01*
X18574Y-16422D02*
X18574Y-15787D01*
X19918Y-17766D02*
X18574Y-16422D01*
X22618Y-17766D02*
X19918Y-17766D01*
X23418Y-18566D02*
X22618Y-17766D01*
G54D38*
X4918Y-23366D02*
X5943Y-22341D01*
X5943Y-22341D02*
X5943Y-22266D01*
G54D39*
X7718Y-9766D02*
X7718Y-9566D01*
X7718Y-9566D02*
X7018Y-8866D01*
X6693Y-8866D02*
X7018Y-8866D01*
X7718Y-10966D02*
X8493Y-11741D01*
X7718Y-9766D02*
X7718Y-10966D01*
X8493Y-11741D02*
X8493Y-11747D01*
X8493Y-11747D02*
X8493Y-11741D01*
X8923Y-11741D02*
X8493Y-11741D01*
X10609Y-9508D02*
X10609Y-7124D01*
X10609Y-7124D02*
X10178Y-6692D01*
X10609Y-9842D02*
X10609Y-9508D01*
X10609Y-10843D02*
X10609Y-9842D01*
X6693Y-11366D02*
X6818Y-11366D01*
X7784Y-12332D02*
X8395Y-12332D01*
X6818Y-11366D02*
X7784Y-12332D01*
X8395Y-12332D02*
X8923Y-12332D01*
X7118Y-10566D02*
X7218Y-10666D01*
X7218Y-11266D02*
X7318Y-11366D01*
X7218Y-10666D02*
X7218Y-11266D01*
X6693Y-10466D02*
X7018Y-10466D01*
X7318Y-11366D02*
X8087Y-12135D01*
X8923Y-12135D02*
X8087Y-12135D01*
X7018Y-10466D02*
X7118Y-10566D01*
X6693Y-9666D02*
X7218Y-9666D01*
X7518Y-11266D02*
X8190Y-11938D01*
X7518Y-9966D02*
X7518Y-11266D01*
X7218Y-9666D02*
X7518Y-9966D01*
X8923Y-11938D02*
X8190Y-11938D01*
G54D38*
X14118Y-1261D02*
X14118Y-2186D01*
G54D39*
X6721Y-7203D02*
X6721Y-6495D01*
G54D38*
X10578Y-1261D02*
X10578Y-2186D01*
X12338Y-1261D02*
X12338Y-2186D01*
G54D39*
X3943Y-6766D02*
X3958Y-6766D01*
X4693Y-6031D02*
X4693Y-6026D01*
X3958Y-6766D02*
X4693Y-6031D01*
X5737Y-5117D02*
X5208Y-5117D01*
X4693Y-5631D02*
X4693Y-6026D01*
X5208Y-5117D02*
X4693Y-5631D01*
G54D37*
X29645Y-9952D02*
X32224Y-9952D01*
X32224Y-9952D02*
X32263Y-9913D01*
X29645Y-9952D02*
X28511Y-9952D01*
X23838Y-10905D02*
X23340Y-11403D01*
X24133Y-10905D02*
X23838Y-10905D01*
X24409Y-10629D02*
X24133Y-10905D01*
X27834Y-10629D02*
X24409Y-10629D01*
X28511Y-9952D02*
X27834Y-10629D01*
G54D38*
X16305Y-13578D02*
X16305Y-13219D01*
X16798Y-12726D02*
X16803Y-12726D01*
X16305Y-13219D02*
X16798Y-12726D01*
X15653Y-13866D02*
X16017Y-13866D01*
X16017Y-13866D02*
X16305Y-13578D01*
X17953Y-11946D02*
X17953Y-11921D01*
X16858Y-11486D02*
X16798Y-11546D01*
X17518Y-11486D02*
X16858Y-11486D01*
X17953Y-11921D02*
X17518Y-11486D01*
X18458Y-12886D02*
X18458Y-12111D01*
X18458Y-12111D02*
X18623Y-11946D01*
X17953Y-11946D02*
X18623Y-11946D01*
G54D39*
X15518Y-13246D02*
X15638Y-13246D01*
X13609Y-13513D02*
X14338Y-13513D01*
X14532Y-13513D02*
X14798Y-13246D01*
X14798Y-13246D02*
X15518Y-13246D01*
X14338Y-13513D02*
X14532Y-13513D01*
X15638Y-13246D02*
X16478Y-12406D01*
X16478Y-12406D02*
X16478Y-12026D01*
X16478Y-12026D02*
X16798Y-11706D01*
G54D38*
X16798Y-11706D02*
X16798Y-11546D01*
X5186Y-2755D02*
X5186Y-3434D01*
X5186Y-3434D02*
X5053Y-3566D01*
G54D39*
X5442Y-2755D02*
X5442Y-2338D01*
X7443Y-3336D02*
X6721Y-4059D01*
X7443Y-2336D02*
X7443Y-3336D01*
X7208Y-2101D02*
X7443Y-2336D01*
X5678Y-2101D02*
X7208Y-2101D01*
X5442Y-2338D02*
X5678Y-2101D01*
X6721Y-4527D02*
X6721Y-4059D01*
G54D37*
X4918Y-13366D02*
X3918Y-13366D01*
G54D38*
X5008Y-7376D02*
X5098Y-7466D01*
X5098Y-7466D02*
X5518Y-7466D01*
X5518Y-7466D02*
X5618Y-7566D01*
X5798Y-6426D02*
X5798Y-7566D01*
X6138Y-7566D02*
X5798Y-7566D01*
X7511Y-7566D02*
X7864Y-7214D01*
X6138Y-7566D02*
X7511Y-7566D01*
X5798Y-7566D02*
X5618Y-7566D01*
X4693Y-7061D02*
X5008Y-7376D01*
X4693Y-6766D02*
X4693Y-7061D01*
G54D39*
X4693Y-6766D02*
X4878Y-6766D01*
X5451Y-5314D02*
X5098Y-5666D01*
X5098Y-5666D02*
X5098Y-6406D01*
X5451Y-5314D02*
X5737Y-5314D01*
X5098Y-6546D02*
X5098Y-6406D01*
X4878Y-6766D02*
X5098Y-6546D01*
X19373Y-11946D02*
X19373Y-11841D01*
G54D37*
X19373Y-11841D02*
X18938Y-11406D01*
X18938Y-11406D02*
X18198Y-11406D01*
X18198Y-11406D02*
X17878Y-11086D01*
X17878Y-11086D02*
X17358Y-11086D01*
X12123Y-9161D02*
X12118Y-9166D01*
G54D39*
X9163Y-9832D02*
X9360Y-10029D01*
G54D37*
X8612Y-3880D02*
X8612Y-3341D01*
X8618Y-3886D02*
X8612Y-3880D01*
G54D39*
X4678Y-4866D02*
X4678Y-4946D01*
X4678Y-4946D02*
X4698Y-4966D01*
G54D38*
X4153Y-5166D02*
X4153Y-5091D01*
X4833Y-4711D02*
X4833Y-4386D01*
X4618Y-4926D02*
X4678Y-4866D01*
X4678Y-4866D02*
X4833Y-4711D01*
X4318Y-4926D02*
X4618Y-4926D01*
X4153Y-5091D02*
X4318Y-4926D01*
X6130Y-4527D02*
X5819Y-4527D01*
X5678Y-4386D02*
X4833Y-4386D01*
X5819Y-4527D02*
X5678Y-4386D01*
G54D37*
X12718Y-9161D02*
X12123Y-9161D01*
X13485Y-9161D02*
X12718Y-9161D01*
X12616Y-9872D02*
X12616Y-9264D01*
X12616Y-9264D02*
X12718Y-9161D01*
X6693Y-20944D02*
X7185Y-20944D01*
G54D38*
X6693Y-19960D02*
X6693Y-20944D01*
X6693Y-18287D02*
X6693Y-19960D01*
X14230Y-15029D02*
X14389Y-15029D01*
X13600Y-15659D02*
X14230Y-15029D01*
G54D39*
X7638Y-6427D02*
X7864Y-6653D01*
X7864Y-6653D02*
X7864Y-7214D01*
X8739Y-15560D02*
X8985Y-15560D01*
X8985Y-15560D02*
X9330Y-15905D01*
X8838Y-9832D02*
X9163Y-9832D01*
G54D38*
X8098Y-3341D02*
X8612Y-3341D01*
X8612Y-3341D02*
X9098Y-3341D01*
G54D39*
X8923Y-14694D02*
X8923Y-14742D01*
X8739Y-14926D02*
X8739Y-15560D01*
X8923Y-14742D02*
X8739Y-14926D01*
X6327Y-4527D02*
X6130Y-4527D01*
X7558Y-6495D02*
X7570Y-6495D01*
X7570Y-6495D02*
X7638Y-6427D01*
X7638Y-6427D02*
X7705Y-6360D01*
X7312Y-6495D02*
X7558Y-6495D01*
X7705Y-6360D02*
X7705Y-6102D01*
X7115Y-6495D02*
X7312Y-6495D01*
X6918Y-6495D02*
X7115Y-6495D01*
X6327Y-6495D02*
X6524Y-6495D01*
X6130Y-6495D02*
X6327Y-6495D01*
X5737Y-6102D02*
X5737Y-6365D01*
X5737Y-6365D02*
X5798Y-6426D01*
X5867Y-6495D02*
X6130Y-6495D01*
X5803Y-6431D02*
X5867Y-6495D01*
X5798Y-6426D02*
X5803Y-6431D01*
X5737Y-5905D02*
X5737Y-6102D01*
X8838Y-10620D02*
X8838Y-9832D01*
X9821Y-10843D02*
X9415Y-10843D01*
X9192Y-10620D02*
X8838Y-10620D01*
X9415Y-10843D02*
X9192Y-10620D01*
X12380Y-10843D02*
X12380Y-10107D01*
X12380Y-10107D02*
X12616Y-9872D01*
X13600Y-15659D02*
X13600Y-14703D01*
X13600Y-14703D02*
X13609Y-14694D01*
X13600Y-15659D02*
X12901Y-15659D01*
X12901Y-15659D02*
X12771Y-15529D01*
G54D10*
G36*
X6779Y-5561D02*
X6771Y-5561D01*
X6771Y-5569D01*
X6671Y-5569D01*
X6671Y-5561D01*
X6663Y-5561D01*
X6663Y-5461D01*
X6671Y-5461D01*
X6671Y-5453D01*
X6771Y-5453D01*
X6771Y-5461D01*
X6779Y-5461D01*
X6779Y-5561D01*
X6779Y-5561D01*
G37*
G54D39*
X6779Y-5561D02*
X6771Y-5561D01*
X6771Y-5569D01*
X6671Y-5569D01*
X6671Y-5561D01*
X6663Y-5561D01*
X6663Y-5461D01*
X6671Y-5461D01*
X6671Y-5453D01*
X6771Y-5453D01*
X6771Y-5461D01*
X6779Y-5461D01*
X6779Y-5561D01*
G54D10*
G36*
X7147Y-3213D02*
X6901Y-3459D01*
X6873Y-3393D01*
X6755Y-3274D01*
X6603Y-3211D01*
X6632Y-3183D01*
X6632Y-2805D01*
X6624Y-2805D01*
X6624Y-2705D01*
X6632Y-2705D01*
X6632Y-2698D01*
X6732Y-2698D01*
X6732Y-2705D01*
X6740Y-2705D01*
X6740Y-2805D01*
X6732Y-2805D01*
X6732Y-3183D01*
X6769Y-3220D01*
X7105Y-3220D01*
X7147Y-3203D01*
X7147Y-3213D01*
X7147Y-3213D01*
G37*
G54D39*
X7147Y-3213D02*
X6901Y-3459D01*
X6873Y-3393D01*
X6755Y-3274D01*
X6603Y-3211D01*
X6632Y-3183D01*
X6632Y-2805D01*
X6624Y-2805D01*
X6624Y-2705D01*
X6632Y-2705D01*
X6632Y-2698D01*
X6732Y-2698D01*
X6732Y-2705D01*
X6740Y-2705D01*
X6740Y-2805D01*
X6732Y-2805D01*
X6732Y-3183D01*
X6769Y-3220D01*
X7105Y-3220D01*
X7147Y-3203D01*
X7147Y-3213D01*
G54D10*
G36*
X8908Y-15981D02*
X8908Y-15985D01*
X8826Y-15985D01*
X8789Y-16022D01*
X8789Y-16260D01*
X8797Y-16260D01*
X8797Y-16360D01*
X8789Y-16360D01*
X8789Y-16367D01*
X8689Y-16367D01*
X8689Y-16360D01*
X8689Y-16260D01*
X8689Y-16022D01*
X8651Y-15985D01*
X8494Y-15985D01*
X8434Y-15985D01*
X8379Y-16007D01*
X8337Y-16050D01*
X8314Y-16105D01*
X8314Y-16222D01*
X8351Y-16260D01*
X8689Y-16260D01*
X8689Y-16360D01*
X8351Y-16360D01*
X8314Y-16397D01*
X8314Y-16401D01*
X7275Y-16401D01*
X7198Y-16401D01*
X7158Y-16409D01*
X7151Y-16402D01*
X7218Y-16369D01*
X7275Y-16199D01*
X7262Y-16021D01*
X7218Y-15914D01*
X7151Y-15881D01*
X6890Y-16141D01*
X6896Y-16147D01*
X6825Y-16218D01*
X6820Y-16212D01*
X6749Y-16283D01*
X6749Y-16141D01*
X6488Y-15881D01*
X6421Y-15914D01*
X6365Y-16083D01*
X6377Y-16262D01*
X6421Y-16369D01*
X6488Y-16402D01*
X6749Y-16141D01*
X6749Y-16283D01*
X6559Y-16472D01*
X6592Y-16540D01*
X6756Y-16594D01*
X6711Y-16594D01*
X6510Y-16677D01*
X6356Y-16831D01*
X6273Y-17032D01*
X6273Y-17250D01*
X6328Y-17383D01*
X6248Y-17436D01*
X6244Y-17440D01*
X6244Y-15466D01*
X6219Y-15342D01*
X6149Y-15236D01*
X6049Y-15136D01*
X5943Y-15066D01*
X5818Y-15041D01*
X5675Y-15041D01*
X5658Y-15029D01*
X5518Y-15001D01*
X5374Y-15001D01*
X5374Y-14424D01*
X5361Y-14246D01*
X5317Y-14139D01*
X5250Y-14106D01*
X4989Y-14366D01*
X5250Y-14627D01*
X5317Y-14594D01*
X5374Y-14424D01*
X5374Y-15001D01*
X5327Y-15001D01*
X5229Y-14903D01*
X5028Y-14820D01*
X4890Y-14820D01*
X5039Y-14809D01*
X5146Y-14765D01*
X5179Y-14698D01*
X4918Y-14437D01*
X4848Y-14508D01*
X4848Y-14366D01*
X4587Y-14106D01*
X4520Y-14139D01*
X4463Y-14309D01*
X4476Y-14487D01*
X4520Y-14594D01*
X4587Y-14627D01*
X4848Y-14366D01*
X4848Y-14508D01*
X4658Y-14698D01*
X4691Y-14765D01*
X4854Y-14820D01*
X4810Y-14819D01*
X4609Y-14903D01*
X4510Y-15001D01*
X4374Y-15001D01*
X4374Y-14424D01*
X4361Y-14246D01*
X4317Y-14139D01*
X4250Y-14106D01*
X3989Y-14366D01*
X4250Y-14627D01*
X4317Y-14594D01*
X4374Y-14424D01*
X4374Y-15001D01*
X4327Y-15001D01*
X4229Y-14903D01*
X4028Y-14820D01*
X3890Y-14820D01*
X4039Y-14809D01*
X4146Y-14765D01*
X4179Y-14698D01*
X3918Y-14437D01*
X3848Y-14508D01*
X3848Y-14366D01*
X3587Y-14106D01*
X3520Y-14139D01*
X3463Y-14309D01*
X3476Y-14487D01*
X3520Y-14594D01*
X3587Y-14627D01*
X3848Y-14366D01*
X3848Y-14508D01*
X3658Y-14698D01*
X3691Y-14765D01*
X3854Y-14820D01*
X3810Y-14819D01*
X3609Y-14903D01*
X3455Y-15056D01*
X3372Y-15257D01*
X3371Y-15475D01*
X3455Y-15676D01*
X3608Y-15830D01*
X3697Y-15866D01*
X3609Y-15903D01*
X3455Y-16056D01*
X3372Y-16257D01*
X3371Y-16475D01*
X3455Y-16676D01*
X3608Y-16830D01*
X3809Y-16913D01*
X3947Y-16913D01*
X3798Y-16924D01*
X3691Y-16968D01*
X3658Y-17035D01*
X3918Y-17296D01*
X4179Y-17035D01*
X4146Y-16968D01*
X3982Y-16913D01*
X4027Y-16913D01*
X4228Y-16830D01*
X4327Y-16731D01*
X4510Y-16731D01*
X4608Y-16830D01*
X4809Y-16913D01*
X4947Y-16913D01*
X4798Y-16924D01*
X4691Y-16968D01*
X4658Y-17035D01*
X4918Y-17296D01*
X5179Y-17035D01*
X5146Y-16968D01*
X4982Y-16913D01*
X5027Y-16913D01*
X5228Y-16830D01*
X5382Y-16677D01*
X5465Y-16476D01*
X5465Y-16258D01*
X5382Y-16057D01*
X5229Y-15903D01*
X5140Y-15866D01*
X5228Y-15830D01*
X5327Y-15731D01*
X5518Y-15731D01*
X5593Y-15717D01*
X5593Y-17838D01*
X5559Y-17872D01*
X5522Y-17963D01*
X5522Y-18061D01*
X5522Y-18209D01*
X5449Y-18136D01*
X5402Y-18105D01*
X5382Y-18057D01*
X5374Y-18048D01*
X5374Y-17424D01*
X5361Y-17246D01*
X5317Y-17139D01*
X5250Y-17106D01*
X4989Y-17366D01*
X5250Y-17627D01*
X5317Y-17594D01*
X5374Y-17424D01*
X5374Y-18048D01*
X5229Y-17903D01*
X5028Y-17820D01*
X4890Y-17820D01*
X5039Y-17809D01*
X5146Y-17765D01*
X5179Y-17698D01*
X4918Y-17437D01*
X4848Y-17508D01*
X4848Y-17366D01*
X4587Y-17106D01*
X4520Y-17139D01*
X4463Y-17309D01*
X4476Y-17487D01*
X4520Y-17594D01*
X4587Y-17627D01*
X4848Y-17366D01*
X4848Y-17508D01*
X4658Y-17698D01*
X4691Y-17765D01*
X4854Y-17820D01*
X4810Y-17819D01*
X4609Y-17903D01*
X4510Y-18001D01*
X4374Y-18001D01*
X4374Y-17424D01*
X4361Y-17246D01*
X4317Y-17139D01*
X4250Y-17106D01*
X3989Y-17366D01*
X4250Y-17627D01*
X4317Y-17594D01*
X4374Y-17424D01*
X4374Y-18001D01*
X4327Y-18001D01*
X4229Y-17903D01*
X4028Y-17820D01*
X3890Y-17820D01*
X4039Y-17809D01*
X4146Y-17765D01*
X4179Y-17698D01*
X3918Y-17437D01*
X3848Y-17508D01*
X3848Y-17366D01*
X3587Y-17106D01*
X3520Y-17139D01*
X3463Y-17309D01*
X3476Y-17487D01*
X3520Y-17594D01*
X3587Y-17627D01*
X3848Y-17366D01*
X3848Y-17508D01*
X3658Y-17698D01*
X3691Y-17765D01*
X3854Y-17820D01*
X3810Y-17819D01*
X3609Y-17903D01*
X3455Y-18056D01*
X3372Y-18257D01*
X3371Y-18475D01*
X3455Y-18676D01*
X3608Y-18830D01*
X3697Y-18866D01*
X3609Y-18903D01*
X3455Y-19056D01*
X3372Y-19257D01*
X3371Y-19475D01*
X3455Y-19676D01*
X3608Y-19830D01*
X3809Y-19913D01*
X3947Y-19913D01*
X3798Y-19924D01*
X3691Y-19968D01*
X3658Y-20035D01*
X3918Y-20296D01*
X4179Y-20035D01*
X4146Y-19968D01*
X3982Y-19913D01*
X4027Y-19913D01*
X4228Y-19830D01*
X4327Y-19731D01*
X4510Y-19731D01*
X4608Y-19830D01*
X4809Y-19913D01*
X5027Y-19913D01*
X5193Y-19845D01*
X5193Y-19916D01*
X5189Y-19916D01*
X5006Y-19916D01*
X4968Y-19954D01*
X4968Y-20316D01*
X4976Y-20316D01*
X4976Y-20416D01*
X4968Y-20416D01*
X4968Y-20779D01*
X5006Y-20816D01*
X5189Y-20816D01*
X5235Y-20816D01*
X5288Y-20897D01*
X5482Y-21091D01*
X5482Y-21288D01*
X5520Y-21379D01*
X5589Y-21448D01*
X5680Y-21486D01*
X5778Y-21486D01*
X5797Y-21486D01*
X6008Y-21697D01*
X6008Y-21697D01*
X6036Y-21715D01*
X6018Y-21742D01*
X6017Y-21745D01*
X5720Y-21745D01*
X5629Y-21782D01*
X5559Y-21851D01*
X5522Y-21942D01*
X5522Y-22040D01*
X5522Y-22303D01*
X5465Y-22359D01*
X5465Y-22258D01*
X5382Y-22057D01*
X5374Y-22048D01*
X5374Y-21424D01*
X5361Y-21246D01*
X5317Y-21139D01*
X5250Y-21106D01*
X5179Y-21177D01*
X5179Y-21035D01*
X5146Y-20968D01*
X4976Y-20911D01*
X4868Y-20919D01*
X4868Y-20779D01*
X4868Y-20416D01*
X4868Y-20316D01*
X4868Y-19954D01*
X4831Y-19916D01*
X4648Y-19916D01*
X4588Y-19916D01*
X4533Y-19939D01*
X4491Y-19982D01*
X4468Y-20037D01*
X4468Y-20279D01*
X4506Y-20316D01*
X4868Y-20316D01*
X4868Y-20416D01*
X4506Y-20416D01*
X4468Y-20454D01*
X4468Y-20696D01*
X4491Y-20751D01*
X4533Y-20794D01*
X4588Y-20816D01*
X4648Y-20816D01*
X4831Y-20816D01*
X4868Y-20779D01*
X4868Y-20919D01*
X4798Y-20924D01*
X4691Y-20968D01*
X4658Y-21035D01*
X4918Y-21296D01*
X5179Y-21035D01*
X5179Y-21177D01*
X4989Y-21366D01*
X5250Y-21627D01*
X5317Y-21594D01*
X5374Y-21424D01*
X5374Y-22048D01*
X5229Y-21903D01*
X5028Y-21820D01*
X4890Y-21820D01*
X5039Y-21809D01*
X5146Y-21765D01*
X5179Y-21698D01*
X4918Y-21437D01*
X4848Y-21508D01*
X4848Y-21366D01*
X4587Y-21106D01*
X4520Y-21139D01*
X4463Y-21309D01*
X4476Y-21487D01*
X4520Y-21594D01*
X4587Y-21627D01*
X4848Y-21366D01*
X4848Y-21508D01*
X4658Y-21698D01*
X4691Y-21765D01*
X4854Y-21820D01*
X4810Y-21819D01*
X4609Y-21903D01*
X4510Y-22001D01*
X4374Y-22001D01*
X4374Y-21424D01*
X4374Y-20424D01*
X4361Y-20246D01*
X4317Y-20139D01*
X4250Y-20106D01*
X3989Y-20366D01*
X4250Y-20627D01*
X4317Y-20594D01*
X4374Y-20424D01*
X4374Y-21424D01*
X4361Y-21246D01*
X4317Y-21139D01*
X4250Y-21106D01*
X4179Y-21177D01*
X4179Y-21035D01*
X4179Y-20698D01*
X3918Y-20437D01*
X3848Y-20508D01*
X3848Y-20366D01*
X3587Y-20106D01*
X3520Y-20139D01*
X3463Y-20309D01*
X3476Y-20487D01*
X3520Y-20594D01*
X3587Y-20627D01*
X3848Y-20366D01*
X3848Y-20508D01*
X3658Y-20698D01*
X3691Y-20765D01*
X3861Y-20822D01*
X4039Y-20809D01*
X4146Y-20765D01*
X4179Y-20698D01*
X4179Y-21035D01*
X4146Y-20968D01*
X3976Y-20911D01*
X3798Y-20924D01*
X3691Y-20968D01*
X3658Y-21035D01*
X3918Y-21296D01*
X4179Y-21035D01*
X4179Y-21177D01*
X3989Y-21366D01*
X4250Y-21627D01*
X4317Y-21594D01*
X4374Y-21424D01*
X4374Y-22001D01*
X4327Y-22001D01*
X4229Y-21903D01*
X4028Y-21820D01*
X3890Y-21820D01*
X4039Y-21809D01*
X4146Y-21765D01*
X4179Y-21698D01*
X3918Y-21437D01*
X3913Y-21443D01*
X3842Y-21372D01*
X3848Y-21366D01*
X3587Y-21106D01*
X3524Y-21137D01*
X3369Y-20982D01*
X3369Y-19216D01*
X3344Y-19092D01*
X3274Y-18986D01*
X3124Y-18837D01*
X3124Y-14138D01*
X3160Y-14051D01*
X3160Y-13883D01*
X3096Y-13728D01*
X2978Y-13609D01*
X2823Y-13545D01*
X2664Y-13545D01*
X2664Y-10181D01*
X2857Y-9988D01*
X2902Y-9988D01*
X2973Y-9959D01*
X2973Y-11986D01*
X3001Y-12126D01*
X3080Y-12244D01*
X3414Y-12578D01*
X3455Y-12676D01*
X3608Y-12830D01*
X3697Y-12866D01*
X3609Y-12903D01*
X3455Y-13056D01*
X3372Y-13257D01*
X3371Y-13475D01*
X3455Y-13676D01*
X3608Y-13830D01*
X3809Y-13913D01*
X3947Y-13913D01*
X3798Y-13924D01*
X3691Y-13968D01*
X3658Y-14035D01*
X3918Y-14296D01*
X4179Y-14035D01*
X4146Y-13968D01*
X3982Y-13913D01*
X4027Y-13913D01*
X4228Y-13830D01*
X4327Y-13731D01*
X4510Y-13731D01*
X4608Y-13830D01*
X4809Y-13913D01*
X4947Y-13913D01*
X4798Y-13924D01*
X4691Y-13968D01*
X4658Y-14035D01*
X4918Y-14296D01*
X5179Y-14035D01*
X5146Y-13968D01*
X4982Y-13913D01*
X5027Y-13913D01*
X5228Y-13830D01*
X5382Y-13677D01*
X5465Y-13476D01*
X5465Y-13258D01*
X5382Y-13057D01*
X5229Y-12903D01*
X5140Y-12866D01*
X5228Y-12830D01*
X5382Y-12677D01*
X5465Y-12476D01*
X5465Y-12258D01*
X5382Y-12057D01*
X5229Y-11903D01*
X5140Y-11866D01*
X5228Y-11830D01*
X5327Y-11731D01*
X5538Y-11731D01*
X5559Y-11781D01*
X5628Y-11851D01*
X5719Y-11888D01*
X5817Y-11888D01*
X5993Y-11888D01*
X5993Y-13446D01*
X6018Y-13571D01*
X6088Y-13677D01*
X6421Y-14009D01*
X6421Y-14009D01*
X6526Y-14080D01*
X6526Y-14080D01*
X6547Y-14084D01*
X6651Y-14105D01*
X6678Y-14105D01*
X6803Y-14080D01*
X6809Y-14076D01*
X7007Y-14076D01*
X7007Y-14076D01*
X7007Y-14076D01*
X7121Y-14053D01*
X7205Y-13997D01*
X7224Y-13997D01*
X7224Y-13997D01*
X7224Y-13997D01*
X7338Y-13975D01*
X7434Y-13910D01*
X7534Y-13810D01*
X7559Y-13810D01*
X7617Y-13810D01*
X7616Y-13950D01*
X7640Y-14007D01*
X7547Y-14026D01*
X7509Y-14052D01*
X7451Y-14090D01*
X7451Y-14090D01*
X6947Y-14594D01*
X6471Y-14594D01*
X6380Y-14632D01*
X6311Y-14701D01*
X6273Y-14792D01*
X6273Y-14890D01*
X6273Y-15490D01*
X6310Y-15581D01*
X6380Y-15650D01*
X6470Y-15688D01*
X6569Y-15688D01*
X6848Y-15688D01*
X6699Y-15699D01*
X6592Y-15743D01*
X6559Y-15810D01*
X6820Y-16071D01*
X7080Y-15810D01*
X7047Y-15743D01*
X6884Y-15688D01*
X7169Y-15688D01*
X7259Y-15651D01*
X7329Y-15581D01*
X7366Y-15491D01*
X7367Y-15392D01*
X7367Y-15014D01*
X7784Y-14597D01*
X8385Y-14597D01*
X8365Y-14694D01*
X8388Y-14807D01*
X8448Y-14897D01*
X8442Y-14926D01*
X8442Y-14926D01*
X8442Y-15138D01*
X8415Y-15138D01*
X8324Y-15175D01*
X8255Y-15245D01*
X8217Y-15335D01*
X8217Y-15433D01*
X8217Y-15783D01*
X8255Y-15874D01*
X8324Y-15944D01*
X8415Y-15981D01*
X8513Y-15981D01*
X8908Y-15981D01*
X8908Y-15981D01*
G37*
G54D39*
X8908Y-15981D02*
X8908Y-15985D01*
X8826Y-15985D01*
X8789Y-16022D01*
X8789Y-16260D01*
X8797Y-16260D01*
X8797Y-16360D01*
X8789Y-16360D01*
X8789Y-16367D01*
X8689Y-16367D01*
X8689Y-16360D01*
X8689Y-16260D01*
X8689Y-16022D01*
X8651Y-15985D01*
X8494Y-15985D01*
X8434Y-15985D01*
X8379Y-16007D01*
X8337Y-16050D01*
X8314Y-16105D01*
X8314Y-16222D01*
X8351Y-16260D01*
X8689Y-16260D01*
X8689Y-16360D01*
X8351Y-16360D01*
X8314Y-16397D01*
X8314Y-16401D01*
X7275Y-16401D01*
X7198Y-16401D01*
X7158Y-16409D01*
X7151Y-16402D01*
X7218Y-16369D01*
X7275Y-16199D01*
X7262Y-16021D01*
X7218Y-15914D01*
X7151Y-15881D01*
X6890Y-16141D01*
X6896Y-16147D01*
X6825Y-16218D01*
X6820Y-16212D01*
X6749Y-16283D01*
X6749Y-16141D01*
X6488Y-15881D01*
X6421Y-15914D01*
X6365Y-16083D01*
X6377Y-16262D01*
X6421Y-16369D01*
X6488Y-16402D01*
X6749Y-16141D01*
X6749Y-16283D01*
X6559Y-16472D01*
X6592Y-16540D01*
X6756Y-16594D01*
X6711Y-16594D01*
X6510Y-16677D01*
X6356Y-16831D01*
X6273Y-17032D01*
X6273Y-17250D01*
X6328Y-17383D01*
X6248Y-17436D01*
X6244Y-17440D01*
X6244Y-15466D01*
X6219Y-15342D01*
X6149Y-15236D01*
X6049Y-15136D01*
X5943Y-15066D01*
X5818Y-15041D01*
X5675Y-15041D01*
X5658Y-15029D01*
X5518Y-15001D01*
X5374Y-15001D01*
X5374Y-14424D01*
X5361Y-14246D01*
X5317Y-14139D01*
X5250Y-14106D01*
X4989Y-14366D01*
X5250Y-14627D01*
X5317Y-14594D01*
X5374Y-14424D01*
X5374Y-15001D01*
X5327Y-15001D01*
X5229Y-14903D01*
X5028Y-14820D01*
X4890Y-14820D01*
X5039Y-14809D01*
X5146Y-14765D01*
X5179Y-14698D01*
X4918Y-14437D01*
X4848Y-14508D01*
X4848Y-14366D01*
X4587Y-14106D01*
X4520Y-14139D01*
X4463Y-14309D01*
X4476Y-14487D01*
X4520Y-14594D01*
X4587Y-14627D01*
X4848Y-14366D01*
X4848Y-14508D01*
X4658Y-14698D01*
X4691Y-14765D01*
X4854Y-14820D01*
X4810Y-14819D01*
X4609Y-14903D01*
X4510Y-15001D01*
X4374Y-15001D01*
X4374Y-14424D01*
X4361Y-14246D01*
X4317Y-14139D01*
X4250Y-14106D01*
X3989Y-14366D01*
X4250Y-14627D01*
X4317Y-14594D01*
X4374Y-14424D01*
X4374Y-15001D01*
X4327Y-15001D01*
X4229Y-14903D01*
X4028Y-14820D01*
X3890Y-14820D01*
X4039Y-14809D01*
X4146Y-14765D01*
X4179Y-14698D01*
X3918Y-14437D01*
X3848Y-14508D01*
X3848Y-14366D01*
X3587Y-14106D01*
X3520Y-14139D01*
X3463Y-14309D01*
X3476Y-14487D01*
X3520Y-14594D01*
X3587Y-14627D01*
X3848Y-14366D01*
X3848Y-14508D01*
X3658Y-14698D01*
X3691Y-14765D01*
X3854Y-14820D01*
X3810Y-14819D01*
X3609Y-14903D01*
X3455Y-15056D01*
X3372Y-15257D01*
X3371Y-15475D01*
X3455Y-15676D01*
X3608Y-15830D01*
X3697Y-15866D01*
X3609Y-15903D01*
X3455Y-16056D01*
X3372Y-16257D01*
X3371Y-16475D01*
X3455Y-16676D01*
X3608Y-16830D01*
X3809Y-16913D01*
X3947Y-16913D01*
X3798Y-16924D01*
X3691Y-16968D01*
X3658Y-17035D01*
X3918Y-17296D01*
X4179Y-17035D01*
X4146Y-16968D01*
X3982Y-16913D01*
X4027Y-16913D01*
X4228Y-16830D01*
X4327Y-16731D01*
X4510Y-16731D01*
X4608Y-16830D01*
X4809Y-16913D01*
X4947Y-16913D01*
X4798Y-16924D01*
X4691Y-16968D01*
X4658Y-17035D01*
X4918Y-17296D01*
X5179Y-17035D01*
X5146Y-16968D01*
X4982Y-16913D01*
X5027Y-16913D01*
X5228Y-16830D01*
X5382Y-16677D01*
X5465Y-16476D01*
X5465Y-16258D01*
X5382Y-16057D01*
X5229Y-15903D01*
X5140Y-15866D01*
X5228Y-15830D01*
X5327Y-15731D01*
X5518Y-15731D01*
X5593Y-15717D01*
X5593Y-17838D01*
X5559Y-17872D01*
X5522Y-17963D01*
X5522Y-18061D01*
X5522Y-18209D01*
X5449Y-18136D01*
X5402Y-18105D01*
X5382Y-18057D01*
X5374Y-18048D01*
X5374Y-17424D01*
X5361Y-17246D01*
X5317Y-17139D01*
X5250Y-17106D01*
X4989Y-17366D01*
X5250Y-17627D01*
X5317Y-17594D01*
X5374Y-17424D01*
X5374Y-18048D01*
X5229Y-17903D01*
X5028Y-17820D01*
X4890Y-17820D01*
X5039Y-17809D01*
X5146Y-17765D01*
X5179Y-17698D01*
X4918Y-17437D01*
X4848Y-17508D01*
X4848Y-17366D01*
X4587Y-17106D01*
X4520Y-17139D01*
X4463Y-17309D01*
X4476Y-17487D01*
X4520Y-17594D01*
X4587Y-17627D01*
X4848Y-17366D01*
X4848Y-17508D01*
X4658Y-17698D01*
X4691Y-17765D01*
X4854Y-17820D01*
X4810Y-17819D01*
X4609Y-17903D01*
X4510Y-18001D01*
X4374Y-18001D01*
X4374Y-17424D01*
X4361Y-17246D01*
X4317Y-17139D01*
X4250Y-17106D01*
X3989Y-17366D01*
X4250Y-17627D01*
X4317Y-17594D01*
X4374Y-17424D01*
X4374Y-18001D01*
X4327Y-18001D01*
X4229Y-17903D01*
X4028Y-17820D01*
X3890Y-17820D01*
X4039Y-17809D01*
X4146Y-17765D01*
X4179Y-17698D01*
X3918Y-17437D01*
X3848Y-17508D01*
X3848Y-17366D01*
X3587Y-17106D01*
X3520Y-17139D01*
X3463Y-17309D01*
X3476Y-17487D01*
X3520Y-17594D01*
X3587Y-17627D01*
X3848Y-17366D01*
X3848Y-17508D01*
X3658Y-17698D01*
X3691Y-17765D01*
X3854Y-17820D01*
X3810Y-17819D01*
X3609Y-17903D01*
X3455Y-18056D01*
X3372Y-18257D01*
X3371Y-18475D01*
X3455Y-18676D01*
X3608Y-18830D01*
X3697Y-18866D01*
X3609Y-18903D01*
X3455Y-19056D01*
X3372Y-19257D01*
X3371Y-19475D01*
X3455Y-19676D01*
X3608Y-19830D01*
X3809Y-19913D01*
X3947Y-19913D01*
X3798Y-19924D01*
X3691Y-19968D01*
X3658Y-20035D01*
X3918Y-20296D01*
X4179Y-20035D01*
X4146Y-19968D01*
X3982Y-19913D01*
X4027Y-19913D01*
X4228Y-19830D01*
X4327Y-19731D01*
X4510Y-19731D01*
X4608Y-19830D01*
X4809Y-19913D01*
X5027Y-19913D01*
X5193Y-19845D01*
X5193Y-19916D01*
X5189Y-19916D01*
X5006Y-19916D01*
X4968Y-19954D01*
X4968Y-20316D01*
X4976Y-20316D01*
X4976Y-20416D01*
X4968Y-20416D01*
X4968Y-20779D01*
X5006Y-20816D01*
X5189Y-20816D01*
X5235Y-20816D01*
X5288Y-20897D01*
X5482Y-21091D01*
X5482Y-21288D01*
X5520Y-21379D01*
X5589Y-21448D01*
X5680Y-21486D01*
X5778Y-21486D01*
X5797Y-21486D01*
X6008Y-21697D01*
X6008Y-21697D01*
X6036Y-21715D01*
X6018Y-21742D01*
X6017Y-21745D01*
X5720Y-21745D01*
X5629Y-21782D01*
X5559Y-21851D01*
X5522Y-21942D01*
X5522Y-22040D01*
X5522Y-22303D01*
X5465Y-22359D01*
X5465Y-22258D01*
X5382Y-22057D01*
X5374Y-22048D01*
X5374Y-21424D01*
X5361Y-21246D01*
X5317Y-21139D01*
X5250Y-21106D01*
X5179Y-21177D01*
X5179Y-21035D01*
X5146Y-20968D01*
X4976Y-20911D01*
X4868Y-20919D01*
X4868Y-20779D01*
X4868Y-20416D01*
X4868Y-20316D01*
X4868Y-19954D01*
X4831Y-19916D01*
X4648Y-19916D01*
X4588Y-19916D01*
X4533Y-19939D01*
X4491Y-19982D01*
X4468Y-20037D01*
X4468Y-20279D01*
X4506Y-20316D01*
X4868Y-20316D01*
X4868Y-20416D01*
X4506Y-20416D01*
X4468Y-20454D01*
X4468Y-20696D01*
X4491Y-20751D01*
X4533Y-20794D01*
X4588Y-20816D01*
X4648Y-20816D01*
X4831Y-20816D01*
X4868Y-20779D01*
X4868Y-20919D01*
X4798Y-20924D01*
X4691Y-20968D01*
X4658Y-21035D01*
X4918Y-21296D01*
X5179Y-21035D01*
X5179Y-21177D01*
X4989Y-21366D01*
X5250Y-21627D01*
X5317Y-21594D01*
X5374Y-21424D01*
X5374Y-22048D01*
X5229Y-21903D01*
X5028Y-21820D01*
X4890Y-21820D01*
X5039Y-21809D01*
X5146Y-21765D01*
X5179Y-21698D01*
X4918Y-21437D01*
X4848Y-21508D01*
X4848Y-21366D01*
X4587Y-21106D01*
X4520Y-21139D01*
X4463Y-21309D01*
X4476Y-21487D01*
X4520Y-21594D01*
X4587Y-21627D01*
X4848Y-21366D01*
X4848Y-21508D01*
X4658Y-21698D01*
X4691Y-21765D01*
X4854Y-21820D01*
X4810Y-21819D01*
X4609Y-21903D01*
X4510Y-22001D01*
X4374Y-22001D01*
X4374Y-21424D01*
X4374Y-20424D01*
X4361Y-20246D01*
X4317Y-20139D01*
X4250Y-20106D01*
X3989Y-20366D01*
X4250Y-20627D01*
X4317Y-20594D01*
X4374Y-20424D01*
X4374Y-21424D01*
X4361Y-21246D01*
X4317Y-21139D01*
X4250Y-21106D01*
X4179Y-21177D01*
X4179Y-21035D01*
X4179Y-20698D01*
X3918Y-20437D01*
X3848Y-20508D01*
X3848Y-20366D01*
X3587Y-20106D01*
X3520Y-20139D01*
X3463Y-20309D01*
X3476Y-20487D01*
X3520Y-20594D01*
X3587Y-20627D01*
X3848Y-20366D01*
X3848Y-20508D01*
X3658Y-20698D01*
X3691Y-20765D01*
X3861Y-20822D01*
X4039Y-20809D01*
X4146Y-20765D01*
X4179Y-20698D01*
X4179Y-21035D01*
X4146Y-20968D01*
X3976Y-20911D01*
X3798Y-20924D01*
X3691Y-20968D01*
X3658Y-21035D01*
X3918Y-21296D01*
X4179Y-21035D01*
X4179Y-21177D01*
X3989Y-21366D01*
X4250Y-21627D01*
X4317Y-21594D01*
X4374Y-21424D01*
X4374Y-22001D01*
X4327Y-22001D01*
X4229Y-21903D01*
X4028Y-21820D01*
X3890Y-21820D01*
X4039Y-21809D01*
X4146Y-21765D01*
X4179Y-21698D01*
X3918Y-21437D01*
X3913Y-21443D01*
X3842Y-21372D01*
X3848Y-21366D01*
X3587Y-21106D01*
X3524Y-21137D01*
X3369Y-20982D01*
X3369Y-19216D01*
X3344Y-19092D01*
X3274Y-18986D01*
X3124Y-18837D01*
X3124Y-14138D01*
X3160Y-14051D01*
X3160Y-13883D01*
X3096Y-13728D01*
X2978Y-13609D01*
X2823Y-13545D01*
X2664Y-13545D01*
X2664Y-10181D01*
X2857Y-9988D01*
X2902Y-9988D01*
X2973Y-9959D01*
X2973Y-11986D01*
X3001Y-12126D01*
X3080Y-12244D01*
X3414Y-12578D01*
X3455Y-12676D01*
X3608Y-12830D01*
X3697Y-12866D01*
X3609Y-12903D01*
X3455Y-13056D01*
X3372Y-13257D01*
X3371Y-13475D01*
X3455Y-13676D01*
X3608Y-13830D01*
X3809Y-13913D01*
X3947Y-13913D01*
X3798Y-13924D01*
X3691Y-13968D01*
X3658Y-14035D01*
X3918Y-14296D01*
X4179Y-14035D01*
X4146Y-13968D01*
X3982Y-13913D01*
X4027Y-13913D01*
X4228Y-13830D01*
X4327Y-13731D01*
X4510Y-13731D01*
X4608Y-13830D01*
X4809Y-13913D01*
X4947Y-13913D01*
X4798Y-13924D01*
X4691Y-13968D01*
X4658Y-14035D01*
X4918Y-14296D01*
X5179Y-14035D01*
X5146Y-13968D01*
X4982Y-13913D01*
X5027Y-13913D01*
X5228Y-13830D01*
X5382Y-13677D01*
X5465Y-13476D01*
X5465Y-13258D01*
X5382Y-13057D01*
X5229Y-12903D01*
X5140Y-12866D01*
X5228Y-12830D01*
X5382Y-12677D01*
X5465Y-12476D01*
X5465Y-12258D01*
X5382Y-12057D01*
X5229Y-11903D01*
X5140Y-11866D01*
X5228Y-11830D01*
X5327Y-11731D01*
X5538Y-11731D01*
X5559Y-11781D01*
X5628Y-11851D01*
X5719Y-11888D01*
X5817Y-11888D01*
X5993Y-11888D01*
X5993Y-13446D01*
X6018Y-13571D01*
X6088Y-13677D01*
X6421Y-14009D01*
X6421Y-14009D01*
X6526Y-14080D01*
X6526Y-14080D01*
X6547Y-14084D01*
X6651Y-14105D01*
X6678Y-14105D01*
X6803Y-14080D01*
X6809Y-14076D01*
X7007Y-14076D01*
X7007Y-14076D01*
X7007Y-14076D01*
X7121Y-14053D01*
X7205Y-13997D01*
X7224Y-13997D01*
X7224Y-13997D01*
X7224Y-13997D01*
X7338Y-13975D01*
X7434Y-13910D01*
X7534Y-13810D01*
X7559Y-13810D01*
X7617Y-13810D01*
X7616Y-13950D01*
X7640Y-14007D01*
X7547Y-14026D01*
X7509Y-14052D01*
X7451Y-14090D01*
X7451Y-14090D01*
X6947Y-14594D01*
X6471Y-14594D01*
X6380Y-14632D01*
X6311Y-14701D01*
X6273Y-14792D01*
X6273Y-14890D01*
X6273Y-15490D01*
X6310Y-15581D01*
X6380Y-15650D01*
X6470Y-15688D01*
X6569Y-15688D01*
X6848Y-15688D01*
X6699Y-15699D01*
X6592Y-15743D01*
X6559Y-15810D01*
X6820Y-16071D01*
X7080Y-15810D01*
X7047Y-15743D01*
X6884Y-15688D01*
X7169Y-15688D01*
X7259Y-15651D01*
X7329Y-15581D01*
X7366Y-15491D01*
X7367Y-15392D01*
X7367Y-15014D01*
X7784Y-14597D01*
X8385Y-14597D01*
X8365Y-14694D01*
X8388Y-14807D01*
X8448Y-14897D01*
X8442Y-14926D01*
X8442Y-14926D01*
X8442Y-15138D01*
X8415Y-15138D01*
X8324Y-15175D01*
X8255Y-15245D01*
X8217Y-15335D01*
X8217Y-15433D01*
X8217Y-15783D01*
X8255Y-15874D01*
X8324Y-15944D01*
X8415Y-15981D01*
X8513Y-15981D01*
X8908Y-15981D01*
G54D10*
G36*
X9913Y-5375D02*
X9881Y-5407D01*
X9817Y-5562D01*
X9816Y-5730D01*
X9833Y-5771D01*
X9766Y-5816D01*
X9572Y-6009D01*
X9502Y-6115D01*
X9477Y-6240D01*
X9488Y-6295D01*
X9478Y-6305D01*
X9478Y-6642D01*
X9486Y-6642D01*
X9486Y-6742D01*
X9478Y-6742D01*
X9478Y-6750D01*
X9378Y-6750D01*
X9378Y-6742D01*
X9378Y-6642D01*
X9378Y-6305D01*
X9340Y-6267D01*
X9223Y-6267D01*
X9168Y-6290D01*
X9126Y-6332D01*
X9103Y-6387D01*
X9103Y-6447D01*
X9103Y-6605D01*
X9140Y-6642D01*
X9378Y-6642D01*
X9378Y-6742D01*
X9140Y-6742D01*
X9103Y-6780D01*
X9103Y-6938D01*
X9103Y-6997D01*
X9126Y-7052D01*
X9168Y-7095D01*
X9223Y-7117D01*
X9291Y-7117D01*
X9261Y-7147D01*
X9197Y-7302D01*
X9196Y-7470D01*
X9261Y-7625D01*
X9379Y-7744D01*
X9398Y-7752D01*
X9398Y-9429D01*
X9423Y-9553D01*
X9465Y-9616D01*
X9444Y-9607D01*
X9350Y-9607D01*
X9276Y-9558D01*
X9260Y-9555D01*
X9260Y-9508D01*
X9223Y-9418D01*
X9153Y-9348D01*
X9063Y-9310D01*
X8964Y-9310D01*
X8932Y-9310D01*
X8940Y-9291D01*
X8940Y-9123D01*
X8884Y-8987D01*
X8884Y-8646D01*
X8884Y-6026D01*
X8884Y-5786D01*
X8884Y-5566D01*
X8859Y-5442D01*
X8789Y-5336D01*
X8683Y-5266D01*
X8676Y-5264D01*
X8516Y-5104D01*
X8420Y-5040D01*
X8306Y-5017D01*
X8306Y-5017D01*
X8138Y-5017D01*
X8158Y-4920D01*
X8135Y-4807D01*
X8071Y-4711D01*
X7975Y-4647D01*
X7862Y-4624D01*
X7608Y-4624D01*
X7608Y-4371D01*
X7586Y-4257D01*
X7521Y-4161D01*
X7425Y-4097D01*
X7312Y-4075D01*
X7214Y-4094D01*
X7123Y-4076D01*
X7593Y-3606D01*
X7614Y-3656D01*
X7683Y-3726D01*
X7774Y-3763D01*
X7872Y-3763D01*
X8213Y-3763D01*
X8197Y-3802D01*
X8196Y-3970D01*
X8261Y-4125D01*
X8379Y-4244D01*
X8534Y-4308D01*
X8702Y-4308D01*
X8857Y-4244D01*
X8976Y-4126D01*
X9040Y-3971D01*
X9040Y-3803D01*
X9024Y-3763D01*
X9422Y-3763D01*
X9438Y-3757D01*
X9438Y-3937D01*
X9462Y-4061D01*
X9533Y-4167D01*
X9769Y-4403D01*
X9785Y-4413D01*
X9913Y-4541D01*
X9913Y-5375D01*
X9913Y-5375D01*
G37*
G54D39*
X9913Y-5375D02*
X9881Y-5407D01*
X9817Y-5562D01*
X9816Y-5730D01*
X9833Y-5771D01*
X9766Y-5816D01*
X9572Y-6009D01*
X9502Y-6115D01*
X9477Y-6240D01*
X9488Y-6295D01*
X9478Y-6305D01*
X9478Y-6642D01*
X9486Y-6642D01*
X9486Y-6742D01*
X9478Y-6742D01*
X9478Y-6750D01*
X9378Y-6750D01*
X9378Y-6742D01*
X9378Y-6642D01*
X9378Y-6305D01*
X9340Y-6267D01*
X9223Y-6267D01*
X9168Y-6290D01*
X9126Y-6332D01*
X9103Y-6387D01*
X9103Y-6447D01*
X9103Y-6605D01*
X9140Y-6642D01*
X9378Y-6642D01*
X9378Y-6742D01*
X9140Y-6742D01*
X9103Y-6780D01*
X9103Y-6938D01*
X9103Y-6997D01*
X9126Y-7052D01*
X9168Y-7095D01*
X9223Y-7117D01*
X9291Y-7117D01*
X9261Y-7147D01*
X9197Y-7302D01*
X9196Y-7470D01*
X9261Y-7625D01*
X9379Y-7744D01*
X9398Y-7752D01*
X9398Y-9429D01*
X9423Y-9553D01*
X9465Y-9616D01*
X9444Y-9607D01*
X9350Y-9607D01*
X9276Y-9558D01*
X9260Y-9555D01*
X9260Y-9508D01*
X9223Y-9418D01*
X9153Y-9348D01*
X9063Y-9310D01*
X8964Y-9310D01*
X8932Y-9310D01*
X8940Y-9291D01*
X8940Y-9123D01*
X8884Y-8987D01*
X8884Y-8646D01*
X8884Y-6026D01*
X8884Y-5786D01*
X8884Y-5566D01*
X8859Y-5442D01*
X8789Y-5336D01*
X8683Y-5266D01*
X8676Y-5264D01*
X8516Y-5104D01*
X8420Y-5040D01*
X8306Y-5017D01*
X8306Y-5017D01*
X8138Y-5017D01*
X8158Y-4920D01*
X8135Y-4807D01*
X8071Y-4711D01*
X7975Y-4647D01*
X7862Y-4624D01*
X7608Y-4624D01*
X7608Y-4371D01*
X7586Y-4257D01*
X7521Y-4161D01*
X7425Y-4097D01*
X7312Y-4075D01*
X7214Y-4094D01*
X7123Y-4076D01*
X7593Y-3606D01*
X7614Y-3656D01*
X7683Y-3726D01*
X7774Y-3763D01*
X7872Y-3763D01*
X8213Y-3763D01*
X8197Y-3802D01*
X8196Y-3970D01*
X8261Y-4125D01*
X8379Y-4244D01*
X8534Y-4308D01*
X8702Y-4308D01*
X8857Y-4244D01*
X8976Y-4126D01*
X9040Y-3971D01*
X9040Y-3803D01*
X9024Y-3763D01*
X9422Y-3763D01*
X9438Y-3757D01*
X9438Y-3937D01*
X9462Y-4061D01*
X9533Y-4167D01*
X9769Y-4403D01*
X9785Y-4413D01*
X9913Y-4541D01*
X9913Y-5375D01*
G54D10*
G36*
X13546Y-11445D02*
X13347Y-11445D01*
X13234Y-11468D01*
X13138Y-11532D01*
X13074Y-11628D01*
X13051Y-11741D01*
X13071Y-11840D01*
X13051Y-11938D01*
X13071Y-12037D01*
X13051Y-12135D01*
X13071Y-12234D01*
X13051Y-12332D01*
X13074Y-12445D01*
X13130Y-12529D01*
X13074Y-12612D01*
X13051Y-12725D01*
X13071Y-12824D01*
X13051Y-12922D01*
X13071Y-13021D01*
X13051Y-13119D01*
X13071Y-13218D01*
X13051Y-13316D01*
X13071Y-13415D01*
X13051Y-13513D01*
X13071Y-13612D01*
X13051Y-13710D01*
X13071Y-13808D01*
X13051Y-13906D01*
X13071Y-14005D01*
X13051Y-14103D01*
X13071Y-14202D01*
X13051Y-14300D01*
X13071Y-14399D01*
X13051Y-14497D01*
X13068Y-14581D01*
X13062Y-14596D01*
X13062Y-14694D01*
X13062Y-14792D01*
X13100Y-14883D01*
X13169Y-14952D01*
X13260Y-14990D01*
X13303Y-14990D01*
X13303Y-15167D01*
X13286Y-15175D01*
X13216Y-15244D01*
X13178Y-15335D01*
X13178Y-15362D01*
X13067Y-15362D01*
X13067Y-15267D01*
X13044Y-15154D01*
X12980Y-15058D01*
X12884Y-14994D01*
X12771Y-14971D01*
X12658Y-14994D01*
X12575Y-15050D01*
X12491Y-14994D01*
X12378Y-14971D01*
X12280Y-14991D01*
X12181Y-14971D01*
X12083Y-14991D01*
X11984Y-14971D01*
X11886Y-14991D01*
X11787Y-14971D01*
X11690Y-14991D01*
X11593Y-14971D01*
X11495Y-14991D01*
X11396Y-14971D01*
X11298Y-14991D01*
X11199Y-14971D01*
X11101Y-14991D01*
X11002Y-14971D01*
X10904Y-14991D01*
X10805Y-14971D01*
X10707Y-14991D01*
X10609Y-14971D01*
X10511Y-14991D01*
X10412Y-14971D01*
X10299Y-14994D01*
X10297Y-14995D01*
X10215Y-14978D01*
X10133Y-14995D01*
X10131Y-14994D01*
X10018Y-14971D01*
X9920Y-14991D01*
X9821Y-14971D01*
X9708Y-14994D01*
X9612Y-15058D01*
X9548Y-15154D01*
X9525Y-15267D01*
X9525Y-15524D01*
X9524Y-15529D01*
X9414Y-15483D01*
X9328Y-15483D01*
X9261Y-15416D01*
X9261Y-15336D01*
X9223Y-15245D01*
X9154Y-15175D01*
X9063Y-15138D01*
X9036Y-15138D01*
X9036Y-15049D01*
X9095Y-14990D01*
X9185Y-14990D01*
X9298Y-14967D01*
X9394Y-14903D01*
X9458Y-14807D01*
X9481Y-14694D01*
X9458Y-14581D01*
X9402Y-14497D01*
X9458Y-14413D01*
X9481Y-14300D01*
X9461Y-14202D01*
X9481Y-14103D01*
X9461Y-14005D01*
X9481Y-13906D01*
X9461Y-13808D01*
X9481Y-13710D01*
X9461Y-13612D01*
X9481Y-13513D01*
X9461Y-13415D01*
X9481Y-13316D01*
X9461Y-13218D01*
X9481Y-13119D01*
X9461Y-13021D01*
X9481Y-12922D01*
X9461Y-12824D01*
X9481Y-12725D01*
X9461Y-12627D01*
X9481Y-12529D01*
X9461Y-12431D01*
X9481Y-12332D01*
X9461Y-12234D01*
X9481Y-12135D01*
X9461Y-12037D01*
X9481Y-11938D01*
X9461Y-11840D01*
X9481Y-11741D01*
X9458Y-11628D01*
X9394Y-11532D01*
X9298Y-11468D01*
X9185Y-11445D01*
X8928Y-11445D01*
X8923Y-11444D01*
X8616Y-11444D01*
X8216Y-11045D01*
X8293Y-11045D01*
X8348Y-11022D01*
X8390Y-10980D01*
X8413Y-10925D01*
X8413Y-10865D01*
X8413Y-10374D01*
X8413Y-10315D01*
X8390Y-10259D01*
X8357Y-10226D01*
X8390Y-10192D01*
X8413Y-10137D01*
X8413Y-10077D01*
X8413Y-9920D01*
X8376Y-9882D01*
X8138Y-9882D01*
X8138Y-10220D01*
X8145Y-10226D01*
X8138Y-10232D01*
X8138Y-10570D01*
X8376Y-10570D01*
X8413Y-10532D01*
X8413Y-10374D01*
X8413Y-10865D01*
X8413Y-10707D01*
X8376Y-10670D01*
X8138Y-10670D01*
X8138Y-10677D01*
X8038Y-10677D01*
X8038Y-10670D01*
X8030Y-10670D01*
X8030Y-10570D01*
X8038Y-10570D01*
X8038Y-10232D01*
X8032Y-10226D01*
X8038Y-10220D01*
X8038Y-9882D01*
X8030Y-9882D01*
X8030Y-9782D01*
X8038Y-9782D01*
X8038Y-9445D01*
X8001Y-9407D01*
X7962Y-9407D01*
X7962Y-9407D01*
X7928Y-9357D01*
X7928Y-9357D01*
X7256Y-8684D01*
X7343Y-8667D01*
X7449Y-8597D01*
X8233Y-7812D01*
X8233Y-8646D01*
X8233Y-8895D01*
X8161Y-8967D01*
X8097Y-9122D01*
X8096Y-9290D01*
X8154Y-9429D01*
X8138Y-9445D01*
X8138Y-9782D01*
X8376Y-9782D01*
X8413Y-9745D01*
X8413Y-9620D01*
X8416Y-9621D01*
X8416Y-10156D01*
X8445Y-10226D01*
X8417Y-10295D01*
X8416Y-10393D01*
X8416Y-10943D01*
X8454Y-11034D01*
X8523Y-11104D01*
X8614Y-11141D01*
X8712Y-11141D01*
X9062Y-11141D01*
X9153Y-11104D01*
X9205Y-11052D01*
X9205Y-11053D01*
X9205Y-11053D01*
X9263Y-11091D01*
X9301Y-11117D01*
X9301Y-11117D01*
X9415Y-11140D01*
X9415Y-11140D01*
X9415Y-11140D01*
X9532Y-11140D01*
X9548Y-11218D01*
X9612Y-11314D01*
X9708Y-11378D01*
X9821Y-11401D01*
X9934Y-11378D01*
X10018Y-11322D01*
X10102Y-11378D01*
X10215Y-11401D01*
X10314Y-11381D01*
X10412Y-11401D01*
X10511Y-11381D01*
X10609Y-11401D01*
X10707Y-11381D01*
X10805Y-11401D01*
X10904Y-11381D01*
X11002Y-11401D01*
X11101Y-11381D01*
X11199Y-11401D01*
X11298Y-11381D01*
X11396Y-11401D01*
X11495Y-11381D01*
X11593Y-11401D01*
X11692Y-11381D01*
X11790Y-11401D01*
X11888Y-11381D01*
X11986Y-11401D01*
X12085Y-11381D01*
X12183Y-11401D01*
X12282Y-11381D01*
X12380Y-11401D01*
X12493Y-11378D01*
X12577Y-11322D01*
X12661Y-11378D01*
X12774Y-11401D01*
X12887Y-11378D01*
X12983Y-11314D01*
X13047Y-11218D01*
X13070Y-11105D01*
X13070Y-11009D01*
X13126Y-11066D01*
X13281Y-11130D01*
X13449Y-11130D01*
X13475Y-11119D01*
X13475Y-11284D01*
X13539Y-11439D01*
X13546Y-11445D01*
X13546Y-11445D01*
G37*
G54D39*
X13546Y-11445D02*
X13347Y-11445D01*
X13234Y-11468D01*
X13138Y-11532D01*
X13074Y-11628D01*
X13051Y-11741D01*
X13071Y-11840D01*
X13051Y-11938D01*
X13071Y-12037D01*
X13051Y-12135D01*
X13071Y-12234D01*
X13051Y-12332D01*
X13074Y-12445D01*
X13130Y-12529D01*
X13074Y-12612D01*
X13051Y-12725D01*
X13071Y-12824D01*
X13051Y-12922D01*
X13071Y-13021D01*
X13051Y-13119D01*
X13071Y-13218D01*
X13051Y-13316D01*
X13071Y-13415D01*
X13051Y-13513D01*
X13071Y-13612D01*
X13051Y-13710D01*
X13071Y-13808D01*
X13051Y-13906D01*
X13071Y-14005D01*
X13051Y-14103D01*
X13071Y-14202D01*
X13051Y-14300D01*
X13071Y-14399D01*
X13051Y-14497D01*
X13068Y-14581D01*
X13062Y-14596D01*
X13062Y-14694D01*
X13062Y-14792D01*
X13100Y-14883D01*
X13169Y-14952D01*
X13260Y-14990D01*
X13303Y-14990D01*
X13303Y-15167D01*
X13286Y-15175D01*
X13216Y-15244D01*
X13178Y-15335D01*
X13178Y-15362D01*
X13067Y-15362D01*
X13067Y-15267D01*
X13044Y-15154D01*
X12980Y-15058D01*
X12884Y-14994D01*
X12771Y-14971D01*
X12658Y-14994D01*
X12575Y-15050D01*
X12491Y-14994D01*
X12378Y-14971D01*
X12280Y-14991D01*
X12181Y-14971D01*
X12083Y-14991D01*
X11984Y-14971D01*
X11886Y-14991D01*
X11787Y-14971D01*
X11690Y-14991D01*
X11593Y-14971D01*
X11495Y-14991D01*
X11396Y-14971D01*
X11298Y-14991D01*
X11199Y-14971D01*
X11101Y-14991D01*
X11002Y-14971D01*
X10904Y-14991D01*
X10805Y-14971D01*
X10707Y-14991D01*
X10609Y-14971D01*
X10511Y-14991D01*
X10412Y-14971D01*
X10299Y-14994D01*
X10297Y-14995D01*
X10215Y-14978D01*
X10133Y-14995D01*
X10131Y-14994D01*
X10018Y-14971D01*
X9920Y-14991D01*
X9821Y-14971D01*
X9708Y-14994D01*
X9612Y-15058D01*
X9548Y-15154D01*
X9525Y-15267D01*
X9525Y-15524D01*
X9524Y-15529D01*
X9414Y-15483D01*
X9328Y-15483D01*
X9261Y-15416D01*
X9261Y-15336D01*
X9223Y-15245D01*
X9154Y-15175D01*
X9063Y-15138D01*
X9036Y-15138D01*
X9036Y-15049D01*
X9095Y-14990D01*
X9185Y-14990D01*
X9298Y-14967D01*
X9394Y-14903D01*
X9458Y-14807D01*
X9481Y-14694D01*
X9458Y-14581D01*
X9402Y-14497D01*
X9458Y-14413D01*
X9481Y-14300D01*
X9461Y-14202D01*
X9481Y-14103D01*
X9461Y-14005D01*
X9481Y-13906D01*
X9461Y-13808D01*
X9481Y-13710D01*
X9461Y-13612D01*
X9481Y-13513D01*
X9461Y-13415D01*
X9481Y-13316D01*
X9461Y-13218D01*
X9481Y-13119D01*
X9461Y-13021D01*
X9481Y-12922D01*
X9461Y-12824D01*
X9481Y-12725D01*
X9461Y-12627D01*
X9481Y-12529D01*
X9461Y-12431D01*
X9481Y-12332D01*
X9461Y-12234D01*
X9481Y-12135D01*
X9461Y-12037D01*
X9481Y-11938D01*
X9461Y-11840D01*
X9481Y-11741D01*
X9458Y-11628D01*
X9394Y-11532D01*
X9298Y-11468D01*
X9185Y-11445D01*
X8928Y-11445D01*
X8923Y-11444D01*
X8616Y-11444D01*
X8216Y-11045D01*
X8293Y-11045D01*
X8348Y-11022D01*
X8390Y-10980D01*
X8413Y-10925D01*
X8413Y-10865D01*
X8413Y-10374D01*
X8413Y-10315D01*
X8390Y-10259D01*
X8357Y-10226D01*
X8390Y-10192D01*
X8413Y-10137D01*
X8413Y-10077D01*
X8413Y-9920D01*
X8376Y-9882D01*
X8138Y-9882D01*
X8138Y-10220D01*
X8145Y-10226D01*
X8138Y-10232D01*
X8138Y-10570D01*
X8376Y-10570D01*
X8413Y-10532D01*
X8413Y-10374D01*
X8413Y-10865D01*
X8413Y-10707D01*
X8376Y-10670D01*
X8138Y-10670D01*
X8138Y-10677D01*
X8038Y-10677D01*
X8038Y-10670D01*
X8030Y-10670D01*
X8030Y-10570D01*
X8038Y-10570D01*
X8038Y-10232D01*
X8032Y-10226D01*
X8038Y-10220D01*
X8038Y-9882D01*
X8030Y-9882D01*
X8030Y-9782D01*
X8038Y-9782D01*
X8038Y-9445D01*
X8001Y-9407D01*
X7962Y-9407D01*
X7962Y-9407D01*
X7928Y-9357D01*
X7928Y-9357D01*
X7256Y-8684D01*
X7343Y-8667D01*
X7449Y-8597D01*
X8233Y-7812D01*
X8233Y-8646D01*
X8233Y-8895D01*
X8161Y-8967D01*
X8097Y-9122D01*
X8096Y-9290D01*
X8154Y-9429D01*
X8138Y-9445D01*
X8138Y-9782D01*
X8376Y-9782D01*
X8413Y-9745D01*
X8413Y-9620D01*
X8416Y-9621D01*
X8416Y-10156D01*
X8445Y-10226D01*
X8417Y-10295D01*
X8416Y-10393D01*
X8416Y-10943D01*
X8454Y-11034D01*
X8523Y-11104D01*
X8614Y-11141D01*
X8712Y-11141D01*
X9062Y-11141D01*
X9153Y-11104D01*
X9205Y-11052D01*
X9205Y-11053D01*
X9205Y-11053D01*
X9263Y-11091D01*
X9301Y-11117D01*
X9301Y-11117D01*
X9415Y-11140D01*
X9415Y-11140D01*
X9415Y-11140D01*
X9532Y-11140D01*
X9548Y-11218D01*
X9612Y-11314D01*
X9708Y-11378D01*
X9821Y-11401D01*
X9934Y-11378D01*
X10018Y-11322D01*
X10102Y-11378D01*
X10215Y-11401D01*
X10314Y-11381D01*
X10412Y-11401D01*
X10511Y-11381D01*
X10609Y-11401D01*
X10707Y-11381D01*
X10805Y-11401D01*
X10904Y-11381D01*
X11002Y-11401D01*
X11101Y-11381D01*
X11199Y-11401D01*
X11298Y-11381D01*
X11396Y-11401D01*
X11495Y-11381D01*
X11593Y-11401D01*
X11692Y-11381D01*
X11790Y-11401D01*
X11888Y-11381D01*
X11986Y-11401D01*
X12085Y-11381D01*
X12183Y-11401D01*
X12282Y-11381D01*
X12380Y-11401D01*
X12493Y-11378D01*
X12577Y-11322D01*
X12661Y-11378D01*
X12774Y-11401D01*
X12887Y-11378D01*
X12983Y-11314D01*
X13047Y-11218D01*
X13070Y-11105D01*
X13070Y-11009D01*
X13126Y-11066D01*
X13281Y-11130D01*
X13449Y-11130D01*
X13475Y-11119D01*
X13475Y-11284D01*
X13539Y-11439D01*
X13546Y-11445D01*
G54D10*
G36*
X14023Y-7680D02*
X14014Y-7694D01*
X13986Y-7833D01*
X13986Y-8448D01*
X13945Y-8489D01*
X13908Y-8580D01*
X13908Y-8678D01*
X13908Y-8902D01*
X13892Y-8864D01*
X13832Y-8805D01*
X13832Y-8599D01*
X13832Y-8224D01*
X13810Y-8169D01*
X13767Y-8127D01*
X13712Y-8104D01*
X13653Y-8104D01*
X13573Y-8104D01*
X13535Y-8141D01*
X13535Y-8361D01*
X13795Y-8361D01*
X13832Y-8324D01*
X13832Y-8224D01*
X13832Y-8599D01*
X13832Y-8499D01*
X13795Y-8461D01*
X13535Y-8461D01*
X13535Y-8681D01*
X13573Y-8719D01*
X13653Y-8719D01*
X13712Y-8719D01*
X13767Y-8696D01*
X13810Y-8654D01*
X13832Y-8599D01*
X13832Y-8805D01*
X13822Y-8795D01*
X13732Y-8757D01*
X13634Y-8757D01*
X13435Y-8757D01*
X13435Y-8681D01*
X13435Y-8461D01*
X13435Y-8361D01*
X13435Y-8141D01*
X13398Y-8104D01*
X13318Y-8104D01*
X13258Y-8104D01*
X13203Y-8127D01*
X13161Y-8169D01*
X13143Y-8212D01*
X13143Y-8207D01*
X13121Y-8152D01*
X13078Y-8109D01*
X13023Y-8086D01*
X12964Y-8086D01*
X12806Y-8086D01*
X12768Y-8124D01*
X12768Y-8361D01*
X13106Y-8361D01*
X13141Y-8326D01*
X13176Y-8361D01*
X13435Y-8361D01*
X13435Y-8461D01*
X13176Y-8461D01*
X13141Y-8496D01*
X13106Y-8461D01*
X12768Y-8461D01*
X12768Y-8699D01*
X12806Y-8736D01*
X12964Y-8736D01*
X13023Y-8736D01*
X13078Y-8714D01*
X13121Y-8671D01*
X13143Y-8616D01*
X13143Y-8611D01*
X13161Y-8654D01*
X13203Y-8696D01*
X13258Y-8719D01*
X13318Y-8719D01*
X13398Y-8719D01*
X13435Y-8681D01*
X13435Y-8757D01*
X13240Y-8757D01*
X13150Y-8794D01*
X13133Y-8777D01*
X13043Y-8740D01*
X12945Y-8740D01*
X12668Y-8740D01*
X12668Y-8699D01*
X12668Y-8461D01*
X12331Y-8461D01*
X12293Y-8499D01*
X12293Y-8616D01*
X12316Y-8671D01*
X12358Y-8714D01*
X12413Y-8736D01*
X12473Y-8736D01*
X12631Y-8736D01*
X12668Y-8699D01*
X12668Y-8740D01*
X12395Y-8740D01*
X12304Y-8777D01*
X12297Y-8784D01*
X12203Y-8745D01*
X12068Y-8745D01*
X12068Y-8508D01*
X12242Y-8335D01*
X12304Y-8335D01*
X12331Y-8361D01*
X12668Y-8361D01*
X12668Y-8124D01*
X12631Y-8086D01*
X12628Y-8086D01*
X12665Y-7997D01*
X12666Y-7829D01*
X12622Y-7725D01*
X12681Y-7725D01*
X12837Y-7660D01*
X12955Y-7542D01*
X13020Y-7387D01*
X13020Y-7219D01*
X12956Y-7064D01*
X12837Y-6945D01*
X12682Y-6881D01*
X12514Y-6881D01*
X12359Y-6945D01*
X12298Y-7006D01*
X11830Y-7006D01*
X11830Y-7006D01*
X11808Y-7010D01*
X11742Y-7023D01*
X11826Y-6939D01*
X11833Y-6938D01*
X11939Y-6867D01*
X12010Y-6761D01*
X12034Y-6637D01*
X12034Y-4571D01*
X12123Y-4482D01*
X12156Y-4562D01*
X12302Y-4709D01*
X12408Y-4752D01*
X12283Y-4804D01*
X12136Y-4950D01*
X12057Y-5142D01*
X12056Y-5350D01*
X12136Y-5542D01*
X12282Y-5689D01*
X12474Y-5768D01*
X12682Y-5768D01*
X12874Y-5689D01*
X13021Y-5542D01*
X13100Y-5351D01*
X13100Y-5143D01*
X13021Y-4951D01*
X12874Y-4804D01*
X12769Y-4761D01*
X12894Y-4709D01*
X13041Y-4562D01*
X13049Y-4543D01*
X13076Y-4524D01*
X13202Y-4399D01*
X13202Y-4445D01*
X13202Y-5145D01*
X13239Y-5236D01*
X13308Y-5306D01*
X13399Y-5343D01*
X13449Y-5343D01*
X13461Y-5406D01*
X13540Y-5524D01*
X14023Y-6008D01*
X14023Y-6295D01*
X13868Y-6241D01*
X13670Y-6253D01*
X13541Y-6307D01*
X13502Y-6379D01*
X13798Y-6676D01*
X13804Y-6670D01*
X13875Y-6741D01*
X13869Y-6746D01*
X13875Y-6752D01*
X13804Y-6823D01*
X13798Y-6817D01*
X13728Y-6888D01*
X13728Y-6746D01*
X13431Y-6450D01*
X13359Y-6489D01*
X13293Y-6677D01*
X13305Y-6875D01*
X13359Y-7004D01*
X13431Y-7043D01*
X13728Y-6746D01*
X13728Y-6888D01*
X13502Y-7114D01*
X13541Y-7186D01*
X13729Y-7251D01*
X13927Y-7240D01*
X14023Y-7200D01*
X14023Y-7680D01*
X14023Y-7680D01*
G37*
G54D39*
X14023Y-7680D02*
X14014Y-7694D01*
X13986Y-7833D01*
X13986Y-8448D01*
X13945Y-8489D01*
X13908Y-8580D01*
X13908Y-8678D01*
X13908Y-8902D01*
X13892Y-8864D01*
X13832Y-8805D01*
X13832Y-8599D01*
X13832Y-8224D01*
X13810Y-8169D01*
X13767Y-8127D01*
X13712Y-8104D01*
X13653Y-8104D01*
X13573Y-8104D01*
X13535Y-8141D01*
X13535Y-8361D01*
X13795Y-8361D01*
X13832Y-8324D01*
X13832Y-8224D01*
X13832Y-8599D01*
X13832Y-8499D01*
X13795Y-8461D01*
X13535Y-8461D01*
X13535Y-8681D01*
X13573Y-8719D01*
X13653Y-8719D01*
X13712Y-8719D01*
X13767Y-8696D01*
X13810Y-8654D01*
X13832Y-8599D01*
X13832Y-8805D01*
X13822Y-8795D01*
X13732Y-8757D01*
X13634Y-8757D01*
X13435Y-8757D01*
X13435Y-8681D01*
X13435Y-8461D01*
X13435Y-8361D01*
X13435Y-8141D01*
X13398Y-8104D01*
X13318Y-8104D01*
X13258Y-8104D01*
X13203Y-8127D01*
X13161Y-8169D01*
X13143Y-8212D01*
X13143Y-8207D01*
X13121Y-8152D01*
X13078Y-8109D01*
X13023Y-8086D01*
X12964Y-8086D01*
X12806Y-8086D01*
X12768Y-8124D01*
X12768Y-8361D01*
X13106Y-8361D01*
X13141Y-8326D01*
X13176Y-8361D01*
X13435Y-8361D01*
X13435Y-8461D01*
X13176Y-8461D01*
X13141Y-8496D01*
X13106Y-8461D01*
X12768Y-8461D01*
X12768Y-8699D01*
X12806Y-8736D01*
X12964Y-8736D01*
X13023Y-8736D01*
X13078Y-8714D01*
X13121Y-8671D01*
X13143Y-8616D01*
X13143Y-8611D01*
X13161Y-8654D01*
X13203Y-8696D01*
X13258Y-8719D01*
X13318Y-8719D01*
X13398Y-8719D01*
X13435Y-8681D01*
X13435Y-8757D01*
X13240Y-8757D01*
X13150Y-8794D01*
X13133Y-8777D01*
X13043Y-8740D01*
X12945Y-8740D01*
X12668Y-8740D01*
X12668Y-8699D01*
X12668Y-8461D01*
X12331Y-8461D01*
X12293Y-8499D01*
X12293Y-8616D01*
X12316Y-8671D01*
X12358Y-8714D01*
X12413Y-8736D01*
X12473Y-8736D01*
X12631Y-8736D01*
X12668Y-8699D01*
X12668Y-8740D01*
X12395Y-8740D01*
X12304Y-8777D01*
X12297Y-8784D01*
X12203Y-8745D01*
X12068Y-8745D01*
X12068Y-8508D01*
X12242Y-8335D01*
X12304Y-8335D01*
X12331Y-8361D01*
X12668Y-8361D01*
X12668Y-8124D01*
X12631Y-8086D01*
X12628Y-8086D01*
X12665Y-7997D01*
X12666Y-7829D01*
X12622Y-7725D01*
X12681Y-7725D01*
X12837Y-7660D01*
X12955Y-7542D01*
X13020Y-7387D01*
X13020Y-7219D01*
X12956Y-7064D01*
X12837Y-6945D01*
X12682Y-6881D01*
X12514Y-6881D01*
X12359Y-6945D01*
X12298Y-7006D01*
X11830Y-7006D01*
X11830Y-7006D01*
X11808Y-7010D01*
X11742Y-7023D01*
X11826Y-6939D01*
X11833Y-6938D01*
X11939Y-6867D01*
X12010Y-6761D01*
X12034Y-6637D01*
X12034Y-4571D01*
X12123Y-4482D01*
X12156Y-4562D01*
X12302Y-4709D01*
X12408Y-4752D01*
X12283Y-4804D01*
X12136Y-4950D01*
X12057Y-5142D01*
X12056Y-5350D01*
X12136Y-5542D01*
X12282Y-5689D01*
X12474Y-5768D01*
X12682Y-5768D01*
X12874Y-5689D01*
X13021Y-5542D01*
X13100Y-5351D01*
X13100Y-5143D01*
X13021Y-4951D01*
X12874Y-4804D01*
X12769Y-4761D01*
X12894Y-4709D01*
X13041Y-4562D01*
X13049Y-4543D01*
X13076Y-4524D01*
X13202Y-4399D01*
X13202Y-4445D01*
X13202Y-5145D01*
X13239Y-5236D01*
X13308Y-5306D01*
X13399Y-5343D01*
X13449Y-5343D01*
X13461Y-5406D01*
X13540Y-5524D01*
X14023Y-6008D01*
X14023Y-6295D01*
X13868Y-6241D01*
X13670Y-6253D01*
X13541Y-6307D01*
X13502Y-6379D01*
X13798Y-6676D01*
X13804Y-6670D01*
X13875Y-6741D01*
X13869Y-6746D01*
X13875Y-6752D01*
X13804Y-6823D01*
X13798Y-6817D01*
X13728Y-6888D01*
X13728Y-6746D01*
X13431Y-6450D01*
X13359Y-6489D01*
X13293Y-6677D01*
X13305Y-6875D01*
X13359Y-7004D01*
X13431Y-7043D01*
X13728Y-6746D01*
X13728Y-6888D01*
X13502Y-7114D01*
X13541Y-7186D01*
X13729Y-7251D01*
X13927Y-7240D01*
X14023Y-7200D01*
X14023Y-7680D01*
G54D10*
G36*
X14948Y-10021D02*
X14907Y-10062D01*
X14869Y-10153D01*
X14869Y-10251D01*
X14869Y-10645D01*
X14906Y-10735D01*
X14889Y-10751D01*
X14852Y-10842D01*
X14852Y-10940D01*
X14852Y-11490D01*
X14868Y-11531D01*
X14854Y-11565D01*
X14854Y-11663D01*
X14854Y-12035D01*
X14851Y-12035D01*
X14851Y-11644D01*
X14851Y-11584D01*
X14828Y-11529D01*
X14825Y-11527D01*
X14825Y-11527D01*
X14848Y-11471D01*
X14848Y-11412D01*
X14848Y-10921D01*
X14848Y-10861D01*
X14825Y-10806D01*
X14783Y-10764D01*
X14728Y-10741D01*
X14723Y-10741D01*
X14766Y-10724D01*
X14808Y-10682D01*
X14831Y-10626D01*
X14831Y-10567D01*
X14831Y-10232D01*
X14831Y-10172D01*
X14808Y-10117D01*
X14766Y-10075D01*
X14711Y-10052D01*
X14611Y-10052D01*
X14573Y-10090D01*
X14573Y-10349D01*
X14793Y-10349D01*
X14831Y-10312D01*
X14831Y-10232D01*
X14831Y-10567D01*
X14831Y-10487D01*
X14793Y-10449D01*
X14573Y-10449D01*
X14573Y-10709D01*
X14608Y-10744D01*
X14573Y-10779D01*
X14573Y-11116D01*
X14811Y-11116D01*
X14848Y-11079D01*
X14848Y-10921D01*
X14848Y-11412D01*
X14848Y-11254D01*
X14811Y-11216D01*
X14573Y-11216D01*
X14573Y-11554D01*
X14576Y-11557D01*
X14576Y-11839D01*
X14814Y-11839D01*
X14851Y-11802D01*
X14851Y-11644D01*
X14851Y-12035D01*
X14851Y-12035D01*
X14851Y-11977D01*
X14814Y-11939D01*
X14576Y-11939D01*
X14576Y-11947D01*
X14476Y-11947D01*
X14476Y-11939D01*
X14239Y-11939D01*
X14201Y-11977D01*
X14201Y-12035D01*
X14147Y-12035D01*
X14167Y-11938D01*
X14147Y-11840D01*
X14167Y-11741D01*
X14154Y-11675D01*
X14171Y-11649D01*
X14171Y-11649D01*
X14194Y-11535D01*
X14194Y-11500D01*
X14206Y-11489D01*
X14221Y-11527D01*
X14224Y-11529D01*
X14224Y-11529D01*
X14201Y-11584D01*
X14201Y-11644D01*
X14201Y-11802D01*
X14239Y-11839D01*
X14476Y-11839D01*
X14476Y-11502D01*
X14473Y-11499D01*
X14473Y-11216D01*
X14466Y-11216D01*
X14466Y-11116D01*
X14473Y-11116D01*
X14473Y-10779D01*
X14438Y-10744D01*
X14473Y-10709D01*
X14473Y-10449D01*
X14473Y-10349D01*
X14473Y-10090D01*
X14436Y-10052D01*
X14336Y-10052D01*
X14281Y-10075D01*
X14239Y-10117D01*
X14216Y-10172D01*
X14216Y-10232D01*
X14216Y-10312D01*
X14253Y-10349D01*
X14473Y-10349D01*
X14473Y-10449D01*
X14253Y-10449D01*
X14216Y-10487D01*
X14216Y-10567D01*
X14216Y-10626D01*
X14239Y-10682D01*
X14281Y-10724D01*
X14324Y-10741D01*
X14319Y-10741D01*
X14264Y-10764D01*
X14221Y-10806D01*
X14198Y-10861D01*
X14198Y-10905D01*
X14136Y-10843D01*
X13981Y-10779D01*
X13814Y-10778D01*
X13787Y-10789D01*
X13788Y-10625D01*
X13723Y-10470D01*
X13605Y-10351D01*
X13474Y-10297D01*
X13571Y-10297D01*
X13626Y-10274D01*
X13668Y-10232D01*
X13691Y-10177D01*
X13691Y-10117D01*
X13691Y-9959D01*
X13653Y-9922D01*
X13416Y-9922D01*
X13416Y-9929D01*
X13316Y-9929D01*
X13316Y-9922D01*
X13078Y-9922D01*
X13041Y-9959D01*
X13041Y-10117D01*
X13041Y-10177D01*
X13064Y-10232D01*
X13106Y-10274D01*
X13161Y-10297D01*
X13257Y-10297D01*
X13127Y-10350D01*
X13066Y-10411D01*
X13009Y-10411D01*
X12983Y-10372D01*
X12942Y-10345D01*
X13000Y-10287D01*
X13038Y-10196D01*
X13038Y-10098D01*
X13038Y-9583D01*
X13041Y-9583D01*
X13041Y-9626D01*
X13041Y-9784D01*
X13078Y-9822D01*
X13316Y-9822D01*
X13316Y-9814D01*
X13416Y-9814D01*
X13416Y-9822D01*
X13653Y-9822D01*
X13691Y-9784D01*
X13691Y-9626D01*
X13691Y-9567D01*
X13691Y-9566D01*
X13731Y-9566D01*
X13822Y-9528D01*
X13824Y-9526D01*
X13822Y-9532D01*
X13821Y-9700D01*
X13886Y-9855D01*
X14004Y-9974D01*
X14159Y-10038D01*
X14327Y-10038D01*
X14482Y-9974D01*
X14559Y-9898D01*
X14601Y-9940D01*
X14692Y-9977D01*
X14790Y-9977D01*
X14948Y-9977D01*
X14948Y-10021D01*
X14948Y-10021D01*
G37*
G54D39*
X14948Y-10021D02*
X14907Y-10062D01*
X14869Y-10153D01*
X14869Y-10251D01*
X14869Y-10645D01*
X14906Y-10735D01*
X14889Y-10751D01*
X14852Y-10842D01*
X14852Y-10940D01*
X14852Y-11490D01*
X14868Y-11531D01*
X14854Y-11565D01*
X14854Y-11663D01*
X14854Y-12035D01*
X14851Y-12035D01*
X14851Y-11644D01*
X14851Y-11584D01*
X14828Y-11529D01*
X14825Y-11527D01*
X14825Y-11527D01*
X14848Y-11471D01*
X14848Y-11412D01*
X14848Y-10921D01*
X14848Y-10861D01*
X14825Y-10806D01*
X14783Y-10764D01*
X14728Y-10741D01*
X14723Y-10741D01*
X14766Y-10724D01*
X14808Y-10682D01*
X14831Y-10626D01*
X14831Y-10567D01*
X14831Y-10232D01*
X14831Y-10172D01*
X14808Y-10117D01*
X14766Y-10075D01*
X14711Y-10052D01*
X14611Y-10052D01*
X14573Y-10090D01*
X14573Y-10349D01*
X14793Y-10349D01*
X14831Y-10312D01*
X14831Y-10232D01*
X14831Y-10567D01*
X14831Y-10487D01*
X14793Y-10449D01*
X14573Y-10449D01*
X14573Y-10709D01*
X14608Y-10744D01*
X14573Y-10779D01*
X14573Y-11116D01*
X14811Y-11116D01*
X14848Y-11079D01*
X14848Y-10921D01*
X14848Y-11412D01*
X14848Y-11254D01*
X14811Y-11216D01*
X14573Y-11216D01*
X14573Y-11554D01*
X14576Y-11557D01*
X14576Y-11839D01*
X14814Y-11839D01*
X14851Y-11802D01*
X14851Y-11644D01*
X14851Y-12035D01*
X14851Y-12035D01*
X14851Y-11977D01*
X14814Y-11939D01*
X14576Y-11939D01*
X14576Y-11947D01*
X14476Y-11947D01*
X14476Y-11939D01*
X14239Y-11939D01*
X14201Y-11977D01*
X14201Y-12035D01*
X14147Y-12035D01*
X14167Y-11938D01*
X14147Y-11840D01*
X14167Y-11741D01*
X14154Y-11675D01*
X14171Y-11649D01*
X14171Y-11649D01*
X14194Y-11535D01*
X14194Y-11500D01*
X14206Y-11489D01*
X14221Y-11527D01*
X14224Y-11529D01*
X14224Y-11529D01*
X14201Y-11584D01*
X14201Y-11644D01*
X14201Y-11802D01*
X14239Y-11839D01*
X14476Y-11839D01*
X14476Y-11502D01*
X14473Y-11499D01*
X14473Y-11216D01*
X14466Y-11216D01*
X14466Y-11116D01*
X14473Y-11116D01*
X14473Y-10779D01*
X14438Y-10744D01*
X14473Y-10709D01*
X14473Y-10449D01*
X14473Y-10349D01*
X14473Y-10090D01*
X14436Y-10052D01*
X14336Y-10052D01*
X14281Y-10075D01*
X14239Y-10117D01*
X14216Y-10172D01*
X14216Y-10232D01*
X14216Y-10312D01*
X14253Y-10349D01*
X14473Y-10349D01*
X14473Y-10449D01*
X14253Y-10449D01*
X14216Y-10487D01*
X14216Y-10567D01*
X14216Y-10626D01*
X14239Y-10682D01*
X14281Y-10724D01*
X14324Y-10741D01*
X14319Y-10741D01*
X14264Y-10764D01*
X14221Y-10806D01*
X14198Y-10861D01*
X14198Y-10905D01*
X14136Y-10843D01*
X13981Y-10779D01*
X13814Y-10778D01*
X13787Y-10789D01*
X13788Y-10625D01*
X13723Y-10470D01*
X13605Y-10351D01*
X13474Y-10297D01*
X13571Y-10297D01*
X13626Y-10274D01*
X13668Y-10232D01*
X13691Y-10177D01*
X13691Y-10117D01*
X13691Y-9959D01*
X13653Y-9922D01*
X13416Y-9922D01*
X13416Y-9929D01*
X13316Y-9929D01*
X13316Y-9922D01*
X13078Y-9922D01*
X13041Y-9959D01*
X13041Y-10117D01*
X13041Y-10177D01*
X13064Y-10232D01*
X13106Y-10274D01*
X13161Y-10297D01*
X13257Y-10297D01*
X13127Y-10350D01*
X13066Y-10411D01*
X13009Y-10411D01*
X12983Y-10372D01*
X12942Y-10345D01*
X13000Y-10287D01*
X13038Y-10196D01*
X13038Y-10098D01*
X13038Y-9583D01*
X13041Y-9583D01*
X13041Y-9626D01*
X13041Y-9784D01*
X13078Y-9822D01*
X13316Y-9822D01*
X13316Y-9814D01*
X13416Y-9814D01*
X13416Y-9822D01*
X13653Y-9822D01*
X13691Y-9784D01*
X13691Y-9626D01*
X13691Y-9567D01*
X13691Y-9566D01*
X13731Y-9566D01*
X13822Y-9528D01*
X13824Y-9526D01*
X13822Y-9532D01*
X13821Y-9700D01*
X13886Y-9855D01*
X14004Y-9974D01*
X14159Y-10038D01*
X14327Y-10038D01*
X14482Y-9974D01*
X14559Y-9898D01*
X14601Y-9940D01*
X14692Y-9977D01*
X14790Y-9977D01*
X14948Y-9977D01*
X14948Y-10021D01*
G54D10*
G36*
X15332Y-15920D02*
X15285Y-15920D01*
X15130Y-15984D01*
X15011Y-16102D01*
X14947Y-16257D01*
X14946Y-16425D01*
X15003Y-16563D01*
X15003Y-16840D01*
X14675Y-17168D01*
X14675Y-15904D01*
X14675Y-15746D01*
X14638Y-15709D01*
X14400Y-15709D01*
X14400Y-16046D01*
X14438Y-16084D01*
X14555Y-16084D01*
X14610Y-16061D01*
X14652Y-16019D01*
X14675Y-15964D01*
X14675Y-15904D01*
X14675Y-17168D01*
X12817Y-19026D01*
X11643Y-19026D01*
X11504Y-19054D01*
X11385Y-19133D01*
X11385Y-19133D01*
X11385Y-19133D01*
X10143Y-20375D01*
X10143Y-19586D01*
X10143Y-19469D01*
X10106Y-19431D01*
X9768Y-19431D01*
X9768Y-19669D01*
X9806Y-19706D01*
X9964Y-19706D01*
X10023Y-19706D01*
X10078Y-19684D01*
X10121Y-19641D01*
X10143Y-19586D01*
X10143Y-20375D01*
X7845Y-22674D01*
X7845Y-22101D01*
X8369Y-21577D01*
X8439Y-21471D01*
X8464Y-21346D01*
X8464Y-20866D01*
X8464Y-20413D01*
X8507Y-20413D01*
X9107Y-20413D01*
X9198Y-20376D01*
X9268Y-20306D01*
X9305Y-20216D01*
X9305Y-20118D01*
X9305Y-19615D01*
X9316Y-19641D01*
X9358Y-19684D01*
X9413Y-19706D01*
X9473Y-19706D01*
X9631Y-19706D01*
X9668Y-19669D01*
X9668Y-19431D01*
X9668Y-19331D01*
X9668Y-19094D01*
X9631Y-19056D01*
X9473Y-19056D01*
X9413Y-19056D01*
X9358Y-19079D01*
X9316Y-19122D01*
X9293Y-19177D01*
X9293Y-19294D01*
X9331Y-19331D01*
X9668Y-19331D01*
X9668Y-19431D01*
X9331Y-19431D01*
X9293Y-19469D01*
X9293Y-19489D01*
X9268Y-19427D01*
X9198Y-19357D01*
X9108Y-19320D01*
X9078Y-19320D01*
X9222Y-19177D01*
X9274Y-19052D01*
X9308Y-19017D01*
X9394Y-19053D01*
X9492Y-19053D01*
X9803Y-19053D01*
X9803Y-19053D01*
X9819Y-19056D01*
X9806Y-19056D01*
X9768Y-19094D01*
X9768Y-19331D01*
X10106Y-19331D01*
X10143Y-19294D01*
X10143Y-19177D01*
X10121Y-19122D01*
X10078Y-19079D01*
X10040Y-19063D01*
X11038Y-19063D01*
X11038Y-19063D01*
X11038Y-19063D01*
X11152Y-19041D01*
X11248Y-18976D01*
X11488Y-18736D01*
X11488Y-18736D01*
X11488Y-18736D01*
X11553Y-18640D01*
X11553Y-18640D01*
X11575Y-18526D01*
X11575Y-18029D01*
X12568Y-17036D01*
X12568Y-17036D01*
X12568Y-17036D01*
X12616Y-16964D01*
X13103Y-17451D01*
X13103Y-17451D01*
X13161Y-17490D01*
X13200Y-17516D01*
X13200Y-17516D01*
X13313Y-17538D01*
X13669Y-17538D01*
X13729Y-17599D01*
X13884Y-17663D01*
X14052Y-17663D01*
X14207Y-17599D01*
X14326Y-17481D01*
X14390Y-17326D01*
X14390Y-17158D01*
X14326Y-17003D01*
X14300Y-16977D01*
X14208Y-16884D01*
X14053Y-16820D01*
X13890Y-16820D01*
X13890Y-16783D01*
X13826Y-16628D01*
X13708Y-16509D01*
X13553Y-16445D01*
X13385Y-16445D01*
X13280Y-16488D01*
X13182Y-16390D01*
X13182Y-16390D01*
X12861Y-16069D01*
X12884Y-16064D01*
X12980Y-16000D01*
X13010Y-15956D01*
X13178Y-15956D01*
X13178Y-15983D01*
X13216Y-16074D01*
X13285Y-16143D01*
X13376Y-16181D01*
X13474Y-16181D01*
X13824Y-16181D01*
X13915Y-16143D01*
X13984Y-16074D01*
X14022Y-15983D01*
X14022Y-15885D01*
X14022Y-15698D01*
X14025Y-15694D01*
X14025Y-15709D01*
X14063Y-15709D01*
X14025Y-15746D01*
X14025Y-15904D01*
X14025Y-15964D01*
X14048Y-16019D01*
X14090Y-16061D01*
X14145Y-16084D01*
X14263Y-16084D01*
X14300Y-16046D01*
X14300Y-15709D01*
X14292Y-15709D01*
X14292Y-15609D01*
X14300Y-15609D01*
X14300Y-15601D01*
X14400Y-15601D01*
X14400Y-15609D01*
X14638Y-15609D01*
X14675Y-15571D01*
X14675Y-15414D01*
X14675Y-15354D01*
X14671Y-15344D01*
X14714Y-15301D01*
X15332Y-15920D01*
X15332Y-15920D01*
G37*
G54D39*
X15332Y-15920D02*
X15285Y-15920D01*
X15130Y-15984D01*
X15011Y-16102D01*
X14947Y-16257D01*
X14946Y-16425D01*
X15003Y-16563D01*
X15003Y-16840D01*
X14675Y-17168D01*
X14675Y-15904D01*
X14675Y-15746D01*
X14638Y-15709D01*
X14400Y-15709D01*
X14400Y-16046D01*
X14438Y-16084D01*
X14555Y-16084D01*
X14610Y-16061D01*
X14652Y-16019D01*
X14675Y-15964D01*
X14675Y-15904D01*
X14675Y-17168D01*
X12817Y-19026D01*
X11643Y-19026D01*
X11504Y-19054D01*
X11385Y-19133D01*
X11385Y-19133D01*
X11385Y-19133D01*
X10143Y-20375D01*
X10143Y-19586D01*
X10143Y-19469D01*
X10106Y-19431D01*
X9768Y-19431D01*
X9768Y-19669D01*
X9806Y-19706D01*
X9964Y-19706D01*
X10023Y-19706D01*
X10078Y-19684D01*
X10121Y-19641D01*
X10143Y-19586D01*
X10143Y-20375D01*
X7845Y-22674D01*
X7845Y-22101D01*
X8369Y-21577D01*
X8439Y-21471D01*
X8464Y-21346D01*
X8464Y-20866D01*
X8464Y-20413D01*
X8507Y-20413D01*
X9107Y-20413D01*
X9198Y-20376D01*
X9268Y-20306D01*
X9305Y-20216D01*
X9305Y-20118D01*
X9305Y-19615D01*
X9316Y-19641D01*
X9358Y-19684D01*
X9413Y-19706D01*
X9473Y-19706D01*
X9631Y-19706D01*
X9668Y-19669D01*
X9668Y-19431D01*
X9668Y-19331D01*
X9668Y-19094D01*
X9631Y-19056D01*
X9473Y-19056D01*
X9413Y-19056D01*
X9358Y-19079D01*
X9316Y-19122D01*
X9293Y-19177D01*
X9293Y-19294D01*
X9331Y-19331D01*
X9668Y-19331D01*
X9668Y-19431D01*
X9331Y-19431D01*
X9293Y-19469D01*
X9293Y-19489D01*
X9268Y-19427D01*
X9198Y-19357D01*
X9108Y-19320D01*
X9078Y-19320D01*
X9222Y-19177D01*
X9274Y-19052D01*
X9308Y-19017D01*
X9394Y-19053D01*
X9492Y-19053D01*
X9803Y-19053D01*
X9803Y-19053D01*
X9819Y-19056D01*
X9806Y-19056D01*
X9768Y-19094D01*
X9768Y-19331D01*
X10106Y-19331D01*
X10143Y-19294D01*
X10143Y-19177D01*
X10121Y-19122D01*
X10078Y-19079D01*
X10040Y-19063D01*
X11038Y-19063D01*
X11038Y-19063D01*
X11038Y-19063D01*
X11152Y-19041D01*
X11248Y-18976D01*
X11488Y-18736D01*
X11488Y-18736D01*
X11488Y-18736D01*
X11553Y-18640D01*
X11553Y-18640D01*
X11575Y-18526D01*
X11575Y-18029D01*
X12568Y-17036D01*
X12568Y-17036D01*
X12568Y-17036D01*
X12616Y-16964D01*
X13103Y-17451D01*
X13103Y-17451D01*
X13161Y-17490D01*
X13200Y-17516D01*
X13200Y-17516D01*
X13313Y-17538D01*
X13669Y-17538D01*
X13729Y-17599D01*
X13884Y-17663D01*
X14052Y-17663D01*
X14207Y-17599D01*
X14326Y-17481D01*
X14390Y-17326D01*
X14390Y-17158D01*
X14326Y-17003D01*
X14300Y-16977D01*
X14208Y-16884D01*
X14053Y-16820D01*
X13890Y-16820D01*
X13890Y-16783D01*
X13826Y-16628D01*
X13708Y-16509D01*
X13553Y-16445D01*
X13385Y-16445D01*
X13280Y-16488D01*
X13182Y-16390D01*
X13182Y-16390D01*
X12861Y-16069D01*
X12884Y-16064D01*
X12980Y-16000D01*
X13010Y-15956D01*
X13178Y-15956D01*
X13178Y-15983D01*
X13216Y-16074D01*
X13285Y-16143D01*
X13376Y-16181D01*
X13474Y-16181D01*
X13824Y-16181D01*
X13915Y-16143D01*
X13984Y-16074D01*
X14022Y-15983D01*
X14022Y-15885D01*
X14022Y-15698D01*
X14025Y-15694D01*
X14025Y-15709D01*
X14063Y-15709D01*
X14025Y-15746D01*
X14025Y-15904D01*
X14025Y-15964D01*
X14048Y-16019D01*
X14090Y-16061D01*
X14145Y-16084D01*
X14263Y-16084D01*
X14300Y-16046D01*
X14300Y-15709D01*
X14292Y-15709D01*
X14292Y-15609D01*
X14300Y-15609D01*
X14300Y-15601D01*
X14400Y-15601D01*
X14400Y-15609D01*
X14638Y-15609D01*
X14675Y-15571D01*
X14675Y-15414D01*
X14675Y-15354D01*
X14671Y-15344D01*
X14714Y-15301D01*
X15332Y-15920D01*
G54D10*
G36*
X16336Y-266D02*
X16306Y-278D01*
X16011Y-573D01*
X15916Y-801D01*
X15838Y-801D01*
X15699Y-829D01*
X15580Y-908D01*
X14980Y-1508D01*
X14901Y-1627D01*
X14873Y-1766D01*
X14873Y-2775D01*
X14661Y-2988D01*
X14608Y-2860D01*
X14446Y-2698D01*
X14419Y-2687D01*
X14445Y-2676D01*
X14607Y-2514D01*
X14695Y-2302D01*
X14695Y-2072D01*
X14608Y-1860D01*
X14446Y-1698D01*
X14444Y-1697D01*
X14444Y-1683D01*
X14533Y-1646D01*
X14603Y-1576D01*
X14640Y-1486D01*
X14640Y-1388D01*
X14640Y-1038D01*
X14603Y-947D01*
X14543Y-887D01*
X14543Y-716D01*
X14543Y-599D01*
X14506Y-561D01*
X14168Y-561D01*
X14168Y-799D01*
X14206Y-836D01*
X14364Y-836D01*
X14423Y-836D01*
X14478Y-814D01*
X14521Y-771D01*
X14543Y-716D01*
X14543Y-887D01*
X14533Y-877D01*
X14443Y-840D01*
X14345Y-840D01*
X14068Y-840D01*
X14068Y-799D01*
X14068Y-561D01*
X13731Y-561D01*
X13693Y-599D01*
X13693Y-716D01*
X13716Y-771D01*
X13758Y-814D01*
X13813Y-836D01*
X13873Y-836D01*
X14031Y-836D01*
X14068Y-799D01*
X14068Y-840D01*
X13795Y-840D01*
X13704Y-877D01*
X13634Y-946D01*
X13597Y-1037D01*
X13597Y-1135D01*
X13597Y-1485D01*
X13634Y-1576D01*
X13703Y-1646D01*
X13793Y-1683D01*
X13793Y-1697D01*
X13792Y-1697D01*
X13630Y-1859D01*
X13542Y-2071D01*
X13541Y-2301D01*
X13629Y-2513D01*
X13791Y-2675D01*
X13818Y-2686D01*
X13792Y-2697D01*
X13630Y-2859D01*
X13629Y-2861D01*
X13218Y-2861D01*
X13094Y-2886D01*
X12988Y-2956D01*
X12903Y-3042D01*
X12828Y-2860D01*
X12666Y-2698D01*
X12639Y-2687D01*
X12665Y-2676D01*
X12827Y-2514D01*
X12915Y-2302D01*
X12915Y-2072D01*
X12828Y-1860D01*
X12666Y-1698D01*
X12664Y-1697D01*
X12664Y-1683D01*
X12753Y-1646D01*
X12823Y-1576D01*
X12860Y-1486D01*
X12860Y-1388D01*
X12860Y-1038D01*
X12823Y-947D01*
X12763Y-887D01*
X12763Y-716D01*
X12763Y-599D01*
X12726Y-561D01*
X12388Y-561D01*
X12388Y-799D01*
X12426Y-836D01*
X12584Y-836D01*
X12643Y-836D01*
X12698Y-814D01*
X12741Y-771D01*
X12763Y-716D01*
X12763Y-887D01*
X12753Y-877D01*
X12663Y-840D01*
X12565Y-840D01*
X12288Y-840D01*
X12288Y-799D01*
X12288Y-561D01*
X11951Y-561D01*
X11913Y-599D01*
X11913Y-716D01*
X11936Y-771D01*
X11978Y-814D01*
X12033Y-836D01*
X12093Y-836D01*
X12251Y-836D01*
X12288Y-799D01*
X12288Y-840D01*
X12015Y-840D01*
X11924Y-877D01*
X11854Y-946D01*
X11817Y-1037D01*
X11817Y-1135D01*
X11817Y-1485D01*
X11854Y-1576D01*
X11923Y-1646D01*
X12013Y-1683D01*
X12013Y-1697D01*
X12012Y-1697D01*
X11850Y-1859D01*
X11762Y-2071D01*
X11761Y-2301D01*
X11849Y-2513D01*
X12011Y-2675D01*
X12038Y-2686D01*
X12012Y-2697D01*
X11850Y-2859D01*
X11762Y-3071D01*
X11761Y-3301D01*
X11780Y-3345D01*
X11368Y-3756D01*
X11368Y-3562D01*
X11368Y-3562D01*
X11344Y-3438D01*
X11344Y-3438D01*
X11320Y-3403D01*
X11273Y-3332D01*
X11273Y-3332D01*
X11155Y-3214D01*
X11155Y-3072D01*
X11068Y-2860D01*
X10906Y-2698D01*
X10879Y-2687D01*
X10905Y-2676D01*
X11067Y-2514D01*
X11155Y-2302D01*
X11155Y-2072D01*
X11068Y-1860D01*
X10906Y-1698D01*
X10904Y-1697D01*
X10904Y-1683D01*
X10993Y-1646D01*
X11063Y-1576D01*
X11100Y-1486D01*
X11100Y-1388D01*
X11100Y-1038D01*
X11063Y-947D01*
X11003Y-887D01*
X11003Y-716D01*
X11003Y-599D01*
X10966Y-561D01*
X10628Y-561D01*
X10628Y-799D01*
X10666Y-836D01*
X10824Y-836D01*
X10883Y-836D01*
X10938Y-814D01*
X10981Y-771D01*
X11003Y-716D01*
X11003Y-887D01*
X10993Y-877D01*
X10903Y-840D01*
X10805Y-840D01*
X10528Y-840D01*
X10528Y-799D01*
X10528Y-561D01*
X10191Y-561D01*
X10153Y-599D01*
X10153Y-716D01*
X10176Y-771D01*
X10218Y-814D01*
X10273Y-836D01*
X10333Y-836D01*
X10491Y-836D01*
X10528Y-799D01*
X10528Y-840D01*
X10255Y-840D01*
X10164Y-877D01*
X10094Y-946D01*
X10057Y-1037D01*
X10057Y-1135D01*
X10057Y-1485D01*
X10094Y-1576D01*
X10163Y-1646D01*
X10253Y-1683D01*
X10253Y-1697D01*
X10252Y-1697D01*
X10090Y-1859D01*
X10002Y-2071D01*
X10001Y-2301D01*
X10089Y-2513D01*
X10251Y-2675D01*
X10278Y-2686D01*
X10252Y-2697D01*
X10171Y-2778D01*
X9754Y-2361D01*
X9648Y-2291D01*
X9583Y-2278D01*
X9583Y-2277D01*
X9513Y-2207D01*
X9424Y-2170D01*
X9424Y-2114D01*
X9562Y-1977D01*
X9645Y-1776D01*
X9645Y-1558D01*
X9562Y-1357D01*
X9548Y-1343D01*
X9548Y-996D01*
X9548Y-754D01*
X9511Y-716D01*
X9148Y-716D01*
X9148Y-1079D01*
X9186Y-1116D01*
X9369Y-1116D01*
X9428Y-1116D01*
X9483Y-1094D01*
X9526Y-1051D01*
X9548Y-996D01*
X9548Y-1343D01*
X9409Y-1203D01*
X9208Y-1120D01*
X9048Y-1120D01*
X9048Y-1079D01*
X9048Y-716D01*
X8686Y-716D01*
X8648Y-754D01*
X8648Y-996D01*
X8671Y-1051D01*
X8713Y-1094D01*
X8768Y-1116D01*
X8828Y-1116D01*
X9011Y-1116D01*
X9048Y-1079D01*
X9048Y-1120D01*
X8990Y-1119D01*
X8789Y-1203D01*
X8635Y-1356D01*
X8598Y-1445D01*
X8562Y-1357D01*
X8548Y-1343D01*
X8548Y-996D01*
X8548Y-754D01*
X8511Y-716D01*
X8148Y-716D01*
X8148Y-1079D01*
X8186Y-1116D01*
X8369Y-1116D01*
X8428Y-1116D01*
X8483Y-1094D01*
X8526Y-1051D01*
X8548Y-996D01*
X8548Y-1343D01*
X8409Y-1203D01*
X8208Y-1120D01*
X8048Y-1120D01*
X8048Y-1079D01*
X8048Y-716D01*
X7686Y-716D01*
X7648Y-754D01*
X7648Y-996D01*
X7671Y-1051D01*
X7713Y-1094D01*
X7768Y-1116D01*
X7828Y-1116D01*
X8011Y-1116D01*
X8048Y-1079D01*
X8048Y-1120D01*
X7990Y-1119D01*
X7789Y-1203D01*
X7635Y-1356D01*
X7552Y-1557D01*
X7551Y-1775D01*
X7635Y-1976D01*
X7773Y-2114D01*
X7773Y-2170D01*
X7702Y-2199D01*
X7653Y-2127D01*
X7653Y-2127D01*
X7418Y-1892D01*
X7372Y-1861D01*
X7377Y-1859D01*
X7419Y-1817D01*
X7442Y-1762D01*
X7442Y-1702D01*
X7442Y-1013D01*
X7442Y-954D01*
X7419Y-899D01*
X7377Y-857D01*
X7322Y-834D01*
X7006Y-834D01*
X6968Y-871D01*
X6968Y-1308D01*
X7405Y-1308D01*
X7442Y-1270D01*
X7442Y-1013D01*
X7442Y-1702D01*
X7442Y-1445D01*
X7405Y-1408D01*
X6968Y-1408D01*
X6968Y-1416D01*
X6868Y-1416D01*
X6868Y-1408D01*
X6868Y-1308D01*
X6868Y-871D01*
X6831Y-834D01*
X6514Y-834D01*
X6459Y-857D01*
X6417Y-899D01*
X6416Y-901D01*
X6415Y-899D01*
X6373Y-857D01*
X6318Y-834D01*
X6002Y-834D01*
X5964Y-871D01*
X5964Y-1308D01*
X6401Y-1308D01*
X6416Y-1292D01*
X6432Y-1308D01*
X6868Y-1308D01*
X6868Y-1408D01*
X6432Y-1408D01*
X6416Y-1423D01*
X6401Y-1408D01*
X5964Y-1408D01*
X5964Y-1416D01*
X5864Y-1416D01*
X5864Y-1408D01*
X5864Y-1308D01*
X5864Y-871D01*
X5827Y-834D01*
X5510Y-834D01*
X5455Y-857D01*
X5442Y-870D01*
X5428Y-857D01*
X5373Y-834D01*
X5057Y-834D01*
X5019Y-871D01*
X5019Y-1308D01*
X5428Y-1308D01*
X5456Y-1308D01*
X5864Y-1308D01*
X5864Y-1408D01*
X5456Y-1408D01*
X5428Y-1408D01*
X5019Y-1408D01*
X5019Y-1844D01*
X5057Y-1882D01*
X5373Y-1882D01*
X5428Y-1859D01*
X5442Y-1845D01*
X5455Y-1859D01*
X5493Y-1875D01*
X5468Y-1892D01*
X5468Y-1892D01*
X5232Y-2128D01*
X5167Y-2225D01*
X5164Y-2243D01*
X5058Y-2243D01*
X4967Y-2280D01*
X4919Y-2328D01*
X4919Y-1844D01*
X4919Y-1408D01*
X4919Y-1308D01*
X4919Y-871D01*
X4882Y-834D01*
X4566Y-834D01*
X4510Y-857D01*
X4468Y-899D01*
X4467Y-901D01*
X4466Y-899D01*
X4424Y-857D01*
X4369Y-834D01*
X4053Y-834D01*
X4015Y-871D01*
X4015Y-1308D01*
X4452Y-1308D01*
X4467Y-1292D01*
X4483Y-1308D01*
X4919Y-1308D01*
X4919Y-1408D01*
X4483Y-1408D01*
X4467Y-1423D01*
X4452Y-1408D01*
X4015Y-1408D01*
X4015Y-1844D01*
X4053Y-1882D01*
X4369Y-1882D01*
X4424Y-1859D01*
X4466Y-1817D01*
X4467Y-1815D01*
X4468Y-1817D01*
X4510Y-1859D01*
X4566Y-1882D01*
X4882Y-1882D01*
X4919Y-1844D01*
X4919Y-2328D01*
X4908Y-2340D01*
X4880Y-2340D01*
X4880Y-2367D01*
X4853Y-2340D01*
X4821Y-2340D01*
X4766Y-2362D01*
X4737Y-2391D01*
X4722Y-2355D01*
X4680Y-2313D01*
X4625Y-2290D01*
X4289Y-2290D01*
X4252Y-2328D01*
X4252Y-2705D01*
X4708Y-2705D01*
X4723Y-2690D01*
X4739Y-2705D01*
X4860Y-2705D01*
X4860Y-2805D01*
X4739Y-2805D01*
X4723Y-2821D01*
X4708Y-2805D01*
X4252Y-2805D01*
X4252Y-2813D01*
X4152Y-2813D01*
X4152Y-2805D01*
X4152Y-2705D01*
X4152Y-2328D01*
X4114Y-2290D01*
X3915Y-2290D01*
X3915Y-1844D01*
X3915Y-1408D01*
X3915Y-1308D01*
X3915Y-871D01*
X3878Y-834D01*
X3562Y-834D01*
X3506Y-857D01*
X3464Y-899D01*
X3441Y-954D01*
X3441Y-1013D01*
X3441Y-1270D01*
X3479Y-1308D01*
X3915Y-1308D01*
X3915Y-1408D01*
X3479Y-1408D01*
X3441Y-1445D01*
X3441Y-1702D01*
X3441Y-1762D01*
X3464Y-1817D01*
X3506Y-1859D01*
X3562Y-1882D01*
X3878Y-1882D01*
X3915Y-1844D01*
X3915Y-2290D01*
X3778Y-2290D01*
X3723Y-2313D01*
X3681Y-2355D01*
X3658Y-2410D01*
X3658Y-2470D01*
X3658Y-2668D01*
X3695Y-2705D01*
X4152Y-2705D01*
X4152Y-2805D01*
X3695Y-2805D01*
X3658Y-2843D01*
X3658Y-3041D01*
X3658Y-3100D01*
X3681Y-3155D01*
X3723Y-3198D01*
X3778Y-3220D01*
X3995Y-3220D01*
X3978Y-3261D01*
X3978Y-3321D01*
X3978Y-3479D01*
X4016Y-3516D01*
X4253Y-3516D01*
X4253Y-3509D01*
X4353Y-3509D01*
X4353Y-3516D01*
X4591Y-3516D01*
X4628Y-3479D01*
X4628Y-3321D01*
X4628Y-3261D01*
X4611Y-3220D01*
X4625Y-3220D01*
X4644Y-3213D01*
X4632Y-3242D01*
X4632Y-3340D01*
X4632Y-3865D01*
X4628Y-3865D01*
X4628Y-3812D01*
X4628Y-3654D01*
X4591Y-3616D01*
X4353Y-3616D01*
X4353Y-3624D01*
X4253Y-3624D01*
X4253Y-3616D01*
X4016Y-3616D01*
X3978Y-3654D01*
X3978Y-3812D01*
X3978Y-3871D01*
X4001Y-3927D01*
X4036Y-3961D01*
X4033Y-3961D01*
X4033Y-3999D01*
X3996Y-3961D01*
X3879Y-3961D01*
X3824Y-3984D01*
X3781Y-4026D01*
X3758Y-4081D01*
X3758Y-4141D01*
X3758Y-4299D01*
X3796Y-4336D01*
X4033Y-4336D01*
X4033Y-4329D01*
X4133Y-4329D01*
X4133Y-4336D01*
X4371Y-4336D01*
X4408Y-4299D01*
X4408Y-4141D01*
X4408Y-4081D01*
X4385Y-4026D01*
X4351Y-3991D01*
X4353Y-3991D01*
X4353Y-3954D01*
X4391Y-3991D01*
X4441Y-3991D01*
X4412Y-4062D01*
X4412Y-4160D01*
X4412Y-4601D01*
X4408Y-4601D01*
X4408Y-4601D01*
X4408Y-4474D01*
X4371Y-4436D01*
X4133Y-4436D01*
X4133Y-4444D01*
X4033Y-4444D01*
X4033Y-4436D01*
X3796Y-4436D01*
X3758Y-4474D01*
X3758Y-4632D01*
X3758Y-4691D01*
X3779Y-4741D01*
X3769Y-4751D01*
X3732Y-4842D01*
X3732Y-4940D01*
X3732Y-5490D01*
X3769Y-5581D01*
X3789Y-5601D01*
X3739Y-5601D01*
X3728Y-5606D01*
X3728Y-5412D01*
X3728Y-4921D01*
X3728Y-4861D01*
X3705Y-4806D01*
X3663Y-4764D01*
X3608Y-4741D01*
X3491Y-4741D01*
X3453Y-4779D01*
X3453Y-5116D01*
X3691Y-5116D01*
X3728Y-5079D01*
X3728Y-4921D01*
X3728Y-5412D01*
X3728Y-5254D01*
X3691Y-5216D01*
X3453Y-5216D01*
X3453Y-5554D01*
X3491Y-5591D01*
X3608Y-5591D01*
X3663Y-5569D01*
X3705Y-5527D01*
X3728Y-5471D01*
X3728Y-5412D01*
X3728Y-5606D01*
X3684Y-5624D01*
X3641Y-5666D01*
X3618Y-5721D01*
X3618Y-5781D01*
X3618Y-5939D01*
X3656Y-5976D01*
X3893Y-5976D01*
X3893Y-5969D01*
X3993Y-5969D01*
X3993Y-5976D01*
X4231Y-5976D01*
X4268Y-5939D01*
X4268Y-5781D01*
X4268Y-5721D01*
X4255Y-5688D01*
X4277Y-5688D01*
X4272Y-5702D01*
X4272Y-5800D01*
X4272Y-6034D01*
X4229Y-6076D01*
X3993Y-6076D01*
X3993Y-6084D01*
X3893Y-6084D01*
X3893Y-6076D01*
X3656Y-6076D01*
X3618Y-6114D01*
X3618Y-6272D01*
X3618Y-6292D01*
X3559Y-6351D01*
X3522Y-6442D01*
X3522Y-6540D01*
X3522Y-7090D01*
X3559Y-7181D01*
X3628Y-7251D01*
X3719Y-7288D01*
X3817Y-7288D01*
X4167Y-7288D01*
X4258Y-7251D01*
X4318Y-7191D01*
X4378Y-7251D01*
X4458Y-7284D01*
X4463Y-7292D01*
X4778Y-7607D01*
X4868Y-7697D01*
X4974Y-7767D01*
X5098Y-7792D01*
X5384Y-7792D01*
X5388Y-7797D01*
X5494Y-7867D01*
X5618Y-7892D01*
X5798Y-7892D01*
X6138Y-7892D01*
X6323Y-7892D01*
X6334Y-7903D01*
X6671Y-7903D01*
X6671Y-7895D01*
X6771Y-7895D01*
X6771Y-7903D01*
X7109Y-7903D01*
X7120Y-7892D01*
X7232Y-7892D01*
X7115Y-8009D01*
X7109Y-8003D01*
X6771Y-8003D01*
X6771Y-8011D01*
X6671Y-8011D01*
X6671Y-8003D01*
X6334Y-8003D01*
X6296Y-8041D01*
X6296Y-8065D01*
X6294Y-8066D01*
X6188Y-8136D01*
X6088Y-8236D01*
X6018Y-8342D01*
X6017Y-8345D01*
X5938Y-8345D01*
X5701Y-8108D01*
X5583Y-8029D01*
X5443Y-8001D01*
X5327Y-8001D01*
X5229Y-7903D01*
X5028Y-7820D01*
X4810Y-7819D01*
X4609Y-7903D01*
X4510Y-8001D01*
X4327Y-8001D01*
X4229Y-7903D01*
X4028Y-7820D01*
X3810Y-7819D01*
X3609Y-7903D01*
X3455Y-8056D01*
X3372Y-8257D01*
X3371Y-8475D01*
X3455Y-8676D01*
X3608Y-8830D01*
X3697Y-8866D01*
X3609Y-8903D01*
X3455Y-9056D01*
X3434Y-9106D01*
X3353Y-9025D01*
X3353Y-5554D01*
X3353Y-5216D01*
X3353Y-5116D01*
X3353Y-4779D01*
X3316Y-4741D01*
X3199Y-4741D01*
X3144Y-4764D01*
X3101Y-4806D01*
X3078Y-4861D01*
X3078Y-4921D01*
X3078Y-5079D01*
X3116Y-5116D01*
X3353Y-5116D01*
X3353Y-5216D01*
X3116Y-5216D01*
X3078Y-5254D01*
X3078Y-5412D01*
X3078Y-5471D01*
X3101Y-5527D01*
X3144Y-5569D01*
X3199Y-5591D01*
X3316Y-5591D01*
X3353Y-5554D01*
X3353Y-9025D01*
X3216Y-8888D01*
X3098Y-8809D01*
X2958Y-8781D01*
X2709Y-8781D01*
X2709Y-1795D01*
X2708Y-1344D01*
X2538Y-936D01*
X2400Y-819D01*
X1645Y-1574D01*
X2400Y-2329D01*
X2538Y-2213D01*
X2709Y-1795D01*
X2709Y-8781D01*
X2678Y-8781D01*
X2539Y-8809D01*
X2420Y-8888D01*
X2420Y-8888D01*
X2420Y-8888D01*
X2329Y-8979D01*
X2329Y-2400D01*
X1574Y-1645D01*
X819Y-2400D01*
X936Y-2538D01*
X1353Y-2709D01*
X1804Y-2708D01*
X2213Y-2538D01*
X2329Y-2400D01*
X2329Y-8979D01*
X1300Y-10008D01*
X1270Y-10054D01*
X1128Y-9995D01*
X960Y-9995D01*
X805Y-10059D01*
X686Y-10177D01*
X622Y-10332D01*
X621Y-10500D01*
X668Y-10612D01*
X668Y-14196D01*
X561Y-14302D01*
X497Y-14457D01*
X496Y-14625D01*
X561Y-14780D01*
X679Y-14899D01*
X834Y-14963D01*
X1002Y-14963D01*
X1157Y-14899D01*
X1193Y-14863D01*
X1193Y-15026D01*
X1221Y-15166D01*
X1300Y-15284D01*
X1633Y-15618D01*
X1633Y-21246D01*
X1661Y-21386D01*
X1740Y-21504D01*
X2478Y-22243D01*
X2478Y-22736D01*
X2400Y-22670D01*
X2329Y-22740D01*
X2329Y-22599D01*
X2213Y-22461D01*
X1795Y-22290D01*
X1344Y-22291D01*
X936Y-22461D01*
X819Y-22599D01*
X1574Y-23354D01*
X2329Y-22599D01*
X2329Y-22740D01*
X1645Y-23425D01*
X2400Y-24180D01*
X2504Y-24093D01*
X2506Y-24106D01*
X2585Y-24224D01*
X3291Y-24930D01*
X2329Y-24930D01*
X2329Y-24250D01*
X1574Y-23495D01*
X1504Y-23566D01*
X1504Y-23425D01*
X749Y-22670D01*
X610Y-22786D01*
X439Y-23204D01*
X441Y-23655D01*
X610Y-24063D01*
X749Y-24180D01*
X1504Y-23425D01*
X1504Y-23566D01*
X819Y-24250D01*
X936Y-24389D01*
X1353Y-24560D01*
X1804Y-24558D01*
X2213Y-24389D01*
X2329Y-24250D01*
X2329Y-24930D01*
X1291Y-24930D01*
X266Y-23905D01*
X266Y-1291D01*
X602Y-955D01*
X439Y-1353D01*
X441Y-1804D01*
X610Y-2213D01*
X749Y-2329D01*
X1504Y-1574D01*
X1498Y-1569D01*
X1569Y-1498D01*
X1574Y-1504D01*
X2329Y-749D01*
X2213Y-610D01*
X1795Y-439D01*
X1344Y-441D01*
X955Y-602D01*
X1291Y-266D01*
X7687Y-266D01*
X7671Y-282D01*
X7648Y-337D01*
X7648Y-579D01*
X7686Y-616D01*
X8048Y-616D01*
X8048Y-609D01*
X8148Y-609D01*
X8148Y-616D01*
X8511Y-616D01*
X8548Y-579D01*
X8548Y-337D01*
X8526Y-282D01*
X8510Y-266D01*
X8687Y-266D01*
X8671Y-282D01*
X8648Y-337D01*
X8648Y-579D01*
X8686Y-616D01*
X9048Y-616D01*
X9048Y-609D01*
X9148Y-609D01*
X9148Y-616D01*
X9511Y-616D01*
X9548Y-579D01*
X9548Y-337D01*
X9526Y-282D01*
X9510Y-266D01*
X10170Y-266D01*
X10153Y-307D01*
X10153Y-424D01*
X10191Y-461D01*
X10528Y-461D01*
X10528Y-454D01*
X10628Y-454D01*
X10628Y-461D01*
X10966Y-461D01*
X11003Y-424D01*
X11003Y-307D01*
X10987Y-266D01*
X11930Y-266D01*
X11913Y-307D01*
X11913Y-424D01*
X11951Y-461D01*
X12288Y-461D01*
X12288Y-454D01*
X12388Y-454D01*
X12388Y-461D01*
X12726Y-461D01*
X12763Y-424D01*
X12763Y-307D01*
X12747Y-266D01*
X13710Y-266D01*
X13693Y-307D01*
X13693Y-424D01*
X13731Y-461D01*
X14068Y-461D01*
X14068Y-454D01*
X14168Y-454D01*
X14168Y-461D01*
X14506Y-461D01*
X14543Y-424D01*
X14543Y-307D01*
X14527Y-266D01*
X16336Y-266D01*
X16336Y-266D01*
G37*
G54D39*
X16336Y-266D02*
X16306Y-278D01*
X16011Y-573D01*
X15916Y-801D01*
X15838Y-801D01*
X15699Y-829D01*
X15580Y-908D01*
X14980Y-1508D01*
X14901Y-1627D01*
X14873Y-1766D01*
X14873Y-2775D01*
X14661Y-2988D01*
X14608Y-2860D01*
X14446Y-2698D01*
X14419Y-2687D01*
X14445Y-2676D01*
X14607Y-2514D01*
X14695Y-2302D01*
X14695Y-2072D01*
X14608Y-1860D01*
X14446Y-1698D01*
X14444Y-1697D01*
X14444Y-1683D01*
X14533Y-1646D01*
X14603Y-1576D01*
X14640Y-1486D01*
X14640Y-1388D01*
X14640Y-1038D01*
X14603Y-947D01*
X14543Y-887D01*
X14543Y-716D01*
X14543Y-599D01*
X14506Y-561D01*
X14168Y-561D01*
X14168Y-799D01*
X14206Y-836D01*
X14364Y-836D01*
X14423Y-836D01*
X14478Y-814D01*
X14521Y-771D01*
X14543Y-716D01*
X14543Y-887D01*
X14533Y-877D01*
X14443Y-840D01*
X14345Y-840D01*
X14068Y-840D01*
X14068Y-799D01*
X14068Y-561D01*
X13731Y-561D01*
X13693Y-599D01*
X13693Y-716D01*
X13716Y-771D01*
X13758Y-814D01*
X13813Y-836D01*
X13873Y-836D01*
X14031Y-836D01*
X14068Y-799D01*
X14068Y-840D01*
X13795Y-840D01*
X13704Y-877D01*
X13634Y-946D01*
X13597Y-1037D01*
X13597Y-1135D01*
X13597Y-1485D01*
X13634Y-1576D01*
X13703Y-1646D01*
X13793Y-1683D01*
X13793Y-1697D01*
X13792Y-1697D01*
X13630Y-1859D01*
X13542Y-2071D01*
X13541Y-2301D01*
X13629Y-2513D01*
X13791Y-2675D01*
X13818Y-2686D01*
X13792Y-2697D01*
X13630Y-2859D01*
X13629Y-2861D01*
X13218Y-2861D01*
X13094Y-2886D01*
X12988Y-2956D01*
X12903Y-3042D01*
X12828Y-2860D01*
X12666Y-2698D01*
X12639Y-2687D01*
X12665Y-2676D01*
X12827Y-2514D01*
X12915Y-2302D01*
X12915Y-2072D01*
X12828Y-1860D01*
X12666Y-1698D01*
X12664Y-1697D01*
X12664Y-1683D01*
X12753Y-1646D01*
X12823Y-1576D01*
X12860Y-1486D01*
X12860Y-1388D01*
X12860Y-1038D01*
X12823Y-947D01*
X12763Y-887D01*
X12763Y-716D01*
X12763Y-599D01*
X12726Y-561D01*
X12388Y-561D01*
X12388Y-799D01*
X12426Y-836D01*
X12584Y-836D01*
X12643Y-836D01*
X12698Y-814D01*
X12741Y-771D01*
X12763Y-716D01*
X12763Y-887D01*
X12753Y-877D01*
X12663Y-840D01*
X12565Y-840D01*
X12288Y-840D01*
X12288Y-799D01*
X12288Y-561D01*
X11951Y-561D01*
X11913Y-599D01*
X11913Y-716D01*
X11936Y-771D01*
X11978Y-814D01*
X12033Y-836D01*
X12093Y-836D01*
X12251Y-836D01*
X12288Y-799D01*
X12288Y-840D01*
X12015Y-840D01*
X11924Y-877D01*
X11854Y-946D01*
X11817Y-1037D01*
X11817Y-1135D01*
X11817Y-1485D01*
X11854Y-1576D01*
X11923Y-1646D01*
X12013Y-1683D01*
X12013Y-1697D01*
X12012Y-1697D01*
X11850Y-1859D01*
X11762Y-2071D01*
X11761Y-2301D01*
X11849Y-2513D01*
X12011Y-2675D01*
X12038Y-2686D01*
X12012Y-2697D01*
X11850Y-2859D01*
X11762Y-3071D01*
X11761Y-3301D01*
X11780Y-3345D01*
X11368Y-3756D01*
X11368Y-3562D01*
X11368Y-3562D01*
X11344Y-3438D01*
X11344Y-3438D01*
X11320Y-3403D01*
X11273Y-3332D01*
X11273Y-3332D01*
X11155Y-3214D01*
X11155Y-3072D01*
X11068Y-2860D01*
X10906Y-2698D01*
X10879Y-2687D01*
X10905Y-2676D01*
X11067Y-2514D01*
X11155Y-2302D01*
X11155Y-2072D01*
X11068Y-1860D01*
X10906Y-1698D01*
X10904Y-1697D01*
X10904Y-1683D01*
X10993Y-1646D01*
X11063Y-1576D01*
X11100Y-1486D01*
X11100Y-1388D01*
X11100Y-1038D01*
X11063Y-947D01*
X11003Y-887D01*
X11003Y-716D01*
X11003Y-599D01*
X10966Y-561D01*
X10628Y-561D01*
X10628Y-799D01*
X10666Y-836D01*
X10824Y-836D01*
X10883Y-836D01*
X10938Y-814D01*
X10981Y-771D01*
X11003Y-716D01*
X11003Y-887D01*
X10993Y-877D01*
X10903Y-840D01*
X10805Y-840D01*
X10528Y-840D01*
X10528Y-799D01*
X10528Y-561D01*
X10191Y-561D01*
X10153Y-599D01*
X10153Y-716D01*
X10176Y-771D01*
X10218Y-814D01*
X10273Y-836D01*
X10333Y-836D01*
X10491Y-836D01*
X10528Y-799D01*
X10528Y-840D01*
X10255Y-840D01*
X10164Y-877D01*
X10094Y-946D01*
X10057Y-1037D01*
X10057Y-1135D01*
X10057Y-1485D01*
X10094Y-1576D01*
X10163Y-1646D01*
X10253Y-1683D01*
X10253Y-1697D01*
X10252Y-1697D01*
X10090Y-1859D01*
X10002Y-2071D01*
X10001Y-2301D01*
X10089Y-2513D01*
X10251Y-2675D01*
X10278Y-2686D01*
X10252Y-2697D01*
X10171Y-2778D01*
X9754Y-2361D01*
X9648Y-2291D01*
X9583Y-2278D01*
X9583Y-2277D01*
X9513Y-2207D01*
X9424Y-2170D01*
X9424Y-2114D01*
X9562Y-1977D01*
X9645Y-1776D01*
X9645Y-1558D01*
X9562Y-1357D01*
X9548Y-1343D01*
X9548Y-996D01*
X9548Y-754D01*
X9511Y-716D01*
X9148Y-716D01*
X9148Y-1079D01*
X9186Y-1116D01*
X9369Y-1116D01*
X9428Y-1116D01*
X9483Y-1094D01*
X9526Y-1051D01*
X9548Y-996D01*
X9548Y-1343D01*
X9409Y-1203D01*
X9208Y-1120D01*
X9048Y-1120D01*
X9048Y-1079D01*
X9048Y-716D01*
X8686Y-716D01*
X8648Y-754D01*
X8648Y-996D01*
X8671Y-1051D01*
X8713Y-1094D01*
X8768Y-1116D01*
X8828Y-1116D01*
X9011Y-1116D01*
X9048Y-1079D01*
X9048Y-1120D01*
X8990Y-1119D01*
X8789Y-1203D01*
X8635Y-1356D01*
X8598Y-1445D01*
X8562Y-1357D01*
X8548Y-1343D01*
X8548Y-996D01*
X8548Y-754D01*
X8511Y-716D01*
X8148Y-716D01*
X8148Y-1079D01*
X8186Y-1116D01*
X8369Y-1116D01*
X8428Y-1116D01*
X8483Y-1094D01*
X8526Y-1051D01*
X8548Y-996D01*
X8548Y-1343D01*
X8409Y-1203D01*
X8208Y-1120D01*
X8048Y-1120D01*
X8048Y-1079D01*
X8048Y-716D01*
X7686Y-716D01*
X7648Y-754D01*
X7648Y-996D01*
X7671Y-1051D01*
X7713Y-1094D01*
X7768Y-1116D01*
X7828Y-1116D01*
X8011Y-1116D01*
X8048Y-1079D01*
X8048Y-1120D01*
X7990Y-1119D01*
X7789Y-1203D01*
X7635Y-1356D01*
X7552Y-1557D01*
X7551Y-1775D01*
X7635Y-1976D01*
X7773Y-2114D01*
X7773Y-2170D01*
X7702Y-2199D01*
X7653Y-2127D01*
X7653Y-2127D01*
X7418Y-1892D01*
X7372Y-1861D01*
X7377Y-1859D01*
X7419Y-1817D01*
X7442Y-1762D01*
X7442Y-1702D01*
X7442Y-1013D01*
X7442Y-954D01*
X7419Y-899D01*
X7377Y-857D01*
X7322Y-834D01*
X7006Y-834D01*
X6968Y-871D01*
X6968Y-1308D01*
X7405Y-1308D01*
X7442Y-1270D01*
X7442Y-1013D01*
X7442Y-1702D01*
X7442Y-1445D01*
X7405Y-1408D01*
X6968Y-1408D01*
X6968Y-1416D01*
X6868Y-1416D01*
X6868Y-1408D01*
X6868Y-1308D01*
X6868Y-871D01*
X6831Y-834D01*
X6514Y-834D01*
X6459Y-857D01*
X6417Y-899D01*
X6416Y-901D01*
X6415Y-899D01*
X6373Y-857D01*
X6318Y-834D01*
X6002Y-834D01*
X5964Y-871D01*
X5964Y-1308D01*
X6401Y-1308D01*
X6416Y-1292D01*
X6432Y-1308D01*
X6868Y-1308D01*
X6868Y-1408D01*
X6432Y-1408D01*
X6416Y-1423D01*
X6401Y-1408D01*
X5964Y-1408D01*
X5964Y-1416D01*
X5864Y-1416D01*
X5864Y-1408D01*
X5864Y-1308D01*
X5864Y-871D01*
X5827Y-834D01*
X5510Y-834D01*
X5455Y-857D01*
X5442Y-870D01*
X5428Y-857D01*
X5373Y-834D01*
X5057Y-834D01*
X5019Y-871D01*
X5019Y-1308D01*
X5428Y-1308D01*
X5456Y-1308D01*
X5864Y-1308D01*
X5864Y-1408D01*
X5456Y-1408D01*
X5428Y-1408D01*
X5019Y-1408D01*
X5019Y-1844D01*
X5057Y-1882D01*
X5373Y-1882D01*
X5428Y-1859D01*
X5442Y-1845D01*
X5455Y-1859D01*
X5493Y-1875D01*
X5468Y-1892D01*
X5468Y-1892D01*
X5232Y-2128D01*
X5167Y-2225D01*
X5164Y-2243D01*
X5058Y-2243D01*
X4967Y-2280D01*
X4919Y-2328D01*
X4919Y-1844D01*
X4919Y-1408D01*
X4919Y-1308D01*
X4919Y-871D01*
X4882Y-834D01*
X4566Y-834D01*
X4510Y-857D01*
X4468Y-899D01*
X4467Y-901D01*
X4466Y-899D01*
X4424Y-857D01*
X4369Y-834D01*
X4053Y-834D01*
X4015Y-871D01*
X4015Y-1308D01*
X4452Y-1308D01*
X4467Y-1292D01*
X4483Y-1308D01*
X4919Y-1308D01*
X4919Y-1408D01*
X4483Y-1408D01*
X4467Y-1423D01*
X4452Y-1408D01*
X4015Y-1408D01*
X4015Y-1844D01*
X4053Y-1882D01*
X4369Y-1882D01*
X4424Y-1859D01*
X4466Y-1817D01*
X4467Y-1815D01*
X4468Y-1817D01*
X4510Y-1859D01*
X4566Y-1882D01*
X4882Y-1882D01*
X4919Y-1844D01*
X4919Y-2328D01*
X4908Y-2340D01*
X4880Y-2340D01*
X4880Y-2367D01*
X4853Y-2340D01*
X4821Y-2340D01*
X4766Y-2362D01*
X4737Y-2391D01*
X4722Y-2355D01*
X4680Y-2313D01*
X4625Y-2290D01*
X4289Y-2290D01*
X4252Y-2328D01*
X4252Y-2705D01*
X4708Y-2705D01*
X4723Y-2690D01*
X4739Y-2705D01*
X4860Y-2705D01*
X4860Y-2805D01*
X4739Y-2805D01*
X4723Y-2821D01*
X4708Y-2805D01*
X4252Y-2805D01*
X4252Y-2813D01*
X4152Y-2813D01*
X4152Y-2805D01*
X4152Y-2705D01*
X4152Y-2328D01*
X4114Y-2290D01*
X3915Y-2290D01*
X3915Y-1844D01*
X3915Y-1408D01*
X3915Y-1308D01*
X3915Y-871D01*
X3878Y-834D01*
X3562Y-834D01*
X3506Y-857D01*
X3464Y-899D01*
X3441Y-954D01*
X3441Y-1013D01*
X3441Y-1270D01*
X3479Y-1308D01*
X3915Y-1308D01*
X3915Y-1408D01*
X3479Y-1408D01*
X3441Y-1445D01*
X3441Y-1702D01*
X3441Y-1762D01*
X3464Y-1817D01*
X3506Y-1859D01*
X3562Y-1882D01*
X3878Y-1882D01*
X3915Y-1844D01*
X3915Y-2290D01*
X3778Y-2290D01*
X3723Y-2313D01*
X3681Y-2355D01*
X3658Y-2410D01*
X3658Y-2470D01*
X3658Y-2668D01*
X3695Y-2705D01*
X4152Y-2705D01*
X4152Y-2805D01*
X3695Y-2805D01*
X3658Y-2843D01*
X3658Y-3041D01*
X3658Y-3100D01*
X3681Y-3155D01*
X3723Y-3198D01*
X3778Y-3220D01*
X3995Y-3220D01*
X3978Y-3261D01*
X3978Y-3321D01*
X3978Y-3479D01*
X4016Y-3516D01*
X4253Y-3516D01*
X4253Y-3509D01*
X4353Y-3509D01*
X4353Y-3516D01*
X4591Y-3516D01*
X4628Y-3479D01*
X4628Y-3321D01*
X4628Y-3261D01*
X4611Y-3220D01*
X4625Y-3220D01*
X4644Y-3213D01*
X4632Y-3242D01*
X4632Y-3340D01*
X4632Y-3865D01*
X4628Y-3865D01*
X4628Y-3812D01*
X4628Y-3654D01*
X4591Y-3616D01*
X4353Y-3616D01*
X4353Y-3624D01*
X4253Y-3624D01*
X4253Y-3616D01*
X4016Y-3616D01*
X3978Y-3654D01*
X3978Y-3812D01*
X3978Y-3871D01*
X4001Y-3927D01*
X4036Y-3961D01*
X4033Y-3961D01*
X4033Y-3999D01*
X3996Y-3961D01*
X3879Y-3961D01*
X3824Y-3984D01*
X3781Y-4026D01*
X3758Y-4081D01*
X3758Y-4141D01*
X3758Y-4299D01*
X3796Y-4336D01*
X4033Y-4336D01*
X4033Y-4329D01*
X4133Y-4329D01*
X4133Y-4336D01*
X4371Y-4336D01*
X4408Y-4299D01*
X4408Y-4141D01*
X4408Y-4081D01*
X4385Y-4026D01*
X4351Y-3991D01*
X4353Y-3991D01*
X4353Y-3954D01*
X4391Y-3991D01*
X4441Y-3991D01*
X4412Y-4062D01*
X4412Y-4160D01*
X4412Y-4601D01*
X4408Y-4601D01*
X4408Y-4601D01*
X4408Y-4474D01*
X4371Y-4436D01*
X4133Y-4436D01*
X4133Y-4444D01*
X4033Y-4444D01*
X4033Y-4436D01*
X3796Y-4436D01*
X3758Y-4474D01*
X3758Y-4632D01*
X3758Y-4691D01*
X3779Y-4741D01*
X3769Y-4751D01*
X3732Y-4842D01*
X3732Y-4940D01*
X3732Y-5490D01*
X3769Y-5581D01*
X3789Y-5601D01*
X3739Y-5601D01*
X3728Y-5606D01*
X3728Y-5412D01*
X3728Y-4921D01*
X3728Y-4861D01*
X3705Y-4806D01*
X3663Y-4764D01*
X3608Y-4741D01*
X3491Y-4741D01*
X3453Y-4779D01*
X3453Y-5116D01*
X3691Y-5116D01*
X3728Y-5079D01*
X3728Y-4921D01*
X3728Y-5412D01*
X3728Y-5254D01*
X3691Y-5216D01*
X3453Y-5216D01*
X3453Y-5554D01*
X3491Y-5591D01*
X3608Y-5591D01*
X3663Y-5569D01*
X3705Y-5527D01*
X3728Y-5471D01*
X3728Y-5412D01*
X3728Y-5606D01*
X3684Y-5624D01*
X3641Y-5666D01*
X3618Y-5721D01*
X3618Y-5781D01*
X3618Y-5939D01*
X3656Y-5976D01*
X3893Y-5976D01*
X3893Y-5969D01*
X3993Y-5969D01*
X3993Y-5976D01*
X4231Y-5976D01*
X4268Y-5939D01*
X4268Y-5781D01*
X4268Y-5721D01*
X4255Y-5688D01*
X4277Y-5688D01*
X4272Y-5702D01*
X4272Y-5800D01*
X4272Y-6034D01*
X4229Y-6076D01*
X3993Y-6076D01*
X3993Y-6084D01*
X3893Y-6084D01*
X3893Y-6076D01*
X3656Y-6076D01*
X3618Y-6114D01*
X3618Y-6272D01*
X3618Y-6292D01*
X3559Y-6351D01*
X3522Y-6442D01*
X3522Y-6540D01*
X3522Y-7090D01*
X3559Y-7181D01*
X3628Y-7251D01*
X3719Y-7288D01*
X3817Y-7288D01*
X4167Y-7288D01*
X4258Y-7251D01*
X4318Y-7191D01*
X4378Y-7251D01*
X4458Y-7284D01*
X4463Y-7292D01*
X4778Y-7607D01*
X4868Y-7697D01*
X4974Y-7767D01*
X5098Y-7792D01*
X5384Y-7792D01*
X5388Y-7797D01*
X5494Y-7867D01*
X5618Y-7892D01*
X5798Y-7892D01*
X6138Y-7892D01*
X6323Y-7892D01*
X6334Y-7903D01*
X6671Y-7903D01*
X6671Y-7895D01*
X6771Y-7895D01*
X6771Y-7903D01*
X7109Y-7903D01*
X7120Y-7892D01*
X7232Y-7892D01*
X7115Y-8009D01*
X7109Y-8003D01*
X6771Y-8003D01*
X6771Y-8011D01*
X6671Y-8011D01*
X6671Y-8003D01*
X6334Y-8003D01*
X6296Y-8041D01*
X6296Y-8065D01*
X6294Y-8066D01*
X6188Y-8136D01*
X6088Y-8236D01*
X6018Y-8342D01*
X6017Y-8345D01*
X5938Y-8345D01*
X5701Y-8108D01*
X5583Y-8029D01*
X5443Y-8001D01*
X5327Y-8001D01*
X5229Y-7903D01*
X5028Y-7820D01*
X4810Y-7819D01*
X4609Y-7903D01*
X4510Y-8001D01*
X4327Y-8001D01*
X4229Y-7903D01*
X4028Y-7820D01*
X3810Y-7819D01*
X3609Y-7903D01*
X3455Y-8056D01*
X3372Y-8257D01*
X3371Y-8475D01*
X3455Y-8676D01*
X3608Y-8830D01*
X3697Y-8866D01*
X3609Y-8903D01*
X3455Y-9056D01*
X3434Y-9106D01*
X3353Y-9025D01*
X3353Y-5554D01*
X3353Y-5216D01*
X3353Y-5116D01*
X3353Y-4779D01*
X3316Y-4741D01*
X3199Y-4741D01*
X3144Y-4764D01*
X3101Y-4806D01*
X3078Y-4861D01*
X3078Y-4921D01*
X3078Y-5079D01*
X3116Y-5116D01*
X3353Y-5116D01*
X3353Y-5216D01*
X3116Y-5216D01*
X3078Y-5254D01*
X3078Y-5412D01*
X3078Y-5471D01*
X3101Y-5527D01*
X3144Y-5569D01*
X3199Y-5591D01*
X3316Y-5591D01*
X3353Y-5554D01*
X3353Y-9025D01*
X3216Y-8888D01*
X3098Y-8809D01*
X2958Y-8781D01*
X2709Y-8781D01*
X2709Y-1795D01*
X2708Y-1344D01*
X2538Y-936D01*
X2400Y-819D01*
X1645Y-1574D01*
X2400Y-2329D01*
X2538Y-2213D01*
X2709Y-1795D01*
X2709Y-8781D01*
X2678Y-8781D01*
X2539Y-8809D01*
X2420Y-8888D01*
X2420Y-8888D01*
X2420Y-8888D01*
X2329Y-8979D01*
X2329Y-2400D01*
X1574Y-1645D01*
X819Y-2400D01*
X936Y-2538D01*
X1353Y-2709D01*
X1804Y-2708D01*
X2213Y-2538D01*
X2329Y-2400D01*
X2329Y-8979D01*
X1300Y-10008D01*
X1270Y-10054D01*
X1128Y-9995D01*
X960Y-9995D01*
X805Y-10059D01*
X686Y-10177D01*
X622Y-10332D01*
X621Y-10500D01*
X668Y-10612D01*
X668Y-14196D01*
X561Y-14302D01*
X497Y-14457D01*
X496Y-14625D01*
X561Y-14780D01*
X679Y-14899D01*
X834Y-14963D01*
X1002Y-14963D01*
X1157Y-14899D01*
X1193Y-14863D01*
X1193Y-15026D01*
X1221Y-15166D01*
X1300Y-15284D01*
X1633Y-15618D01*
X1633Y-21246D01*
X1661Y-21386D01*
X1740Y-21504D01*
X2478Y-22243D01*
X2478Y-22736D01*
X2400Y-22670D01*
X2329Y-22740D01*
X2329Y-22599D01*
X2213Y-22461D01*
X1795Y-22290D01*
X1344Y-22291D01*
X936Y-22461D01*
X819Y-22599D01*
X1574Y-23354D01*
X2329Y-22599D01*
X2329Y-22740D01*
X1645Y-23425D01*
X2400Y-24180D01*
X2504Y-24093D01*
X2506Y-24106D01*
X2585Y-24224D01*
X3291Y-24930D01*
X2329Y-24930D01*
X2329Y-24250D01*
X1574Y-23495D01*
X1504Y-23566D01*
X1504Y-23425D01*
X749Y-22670D01*
X610Y-22786D01*
X439Y-23204D01*
X441Y-23655D01*
X610Y-24063D01*
X749Y-24180D01*
X1504Y-23425D01*
X1504Y-23566D01*
X819Y-24250D01*
X936Y-24389D01*
X1353Y-24560D01*
X1804Y-24558D01*
X2213Y-24389D01*
X2329Y-24250D01*
X2329Y-24930D01*
X1291Y-24930D01*
X266Y-23905D01*
X266Y-1291D01*
X602Y-955D01*
X439Y-1353D01*
X441Y-1804D01*
X610Y-2213D01*
X749Y-2329D01*
X1504Y-1574D01*
X1498Y-1569D01*
X1569Y-1498D01*
X1574Y-1504D01*
X2329Y-749D01*
X2213Y-610D01*
X1795Y-439D01*
X1344Y-441D01*
X955Y-602D01*
X1291Y-266D01*
X7687Y-266D01*
X7671Y-282D01*
X7648Y-337D01*
X7648Y-579D01*
X7686Y-616D01*
X8048Y-616D01*
X8048Y-609D01*
X8148Y-609D01*
X8148Y-616D01*
X8511Y-616D01*
X8548Y-579D01*
X8548Y-337D01*
X8526Y-282D01*
X8510Y-266D01*
X8687Y-266D01*
X8671Y-282D01*
X8648Y-337D01*
X8648Y-579D01*
X8686Y-616D01*
X9048Y-616D01*
X9048Y-609D01*
X9148Y-609D01*
X9148Y-616D01*
X9511Y-616D01*
X9548Y-579D01*
X9548Y-337D01*
X9526Y-282D01*
X9510Y-266D01*
X10170Y-266D01*
X10153Y-307D01*
X10153Y-424D01*
X10191Y-461D01*
X10528Y-461D01*
X10528Y-454D01*
X10628Y-454D01*
X10628Y-461D01*
X10966Y-461D01*
X11003Y-424D01*
X11003Y-307D01*
X10987Y-266D01*
X11930Y-266D01*
X11913Y-307D01*
X11913Y-424D01*
X11951Y-461D01*
X12288Y-461D01*
X12288Y-454D01*
X12388Y-454D01*
X12388Y-461D01*
X12726Y-461D01*
X12763Y-424D01*
X12763Y-307D01*
X12747Y-266D01*
X13710Y-266D01*
X13693Y-307D01*
X13693Y-424D01*
X13731Y-461D01*
X14068Y-461D01*
X14068Y-454D01*
X14168Y-454D01*
X14168Y-461D01*
X14506Y-461D01*
X14543Y-424D01*
X14543Y-307D01*
X14527Y-266D01*
X16336Y-266D01*
G54D10*
G36*
X17261Y-11996D02*
X17253Y-11996D01*
X17253Y-12004D01*
X17153Y-12004D01*
X17153Y-11996D01*
X17146Y-11996D01*
X17146Y-11896D01*
X17153Y-11896D01*
X17153Y-11889D01*
X17253Y-11889D01*
X17253Y-11896D01*
X17261Y-11896D01*
X17261Y-11996D01*
X17261Y-11996D01*
G37*
G54D39*
X17261Y-11996D02*
X17253Y-11996D01*
X17253Y-12004D01*
X17153Y-12004D01*
X17153Y-11996D01*
X17146Y-11996D01*
X17146Y-11896D01*
X17153Y-11896D01*
X17153Y-11889D01*
X17253Y-11889D01*
X17253Y-11896D01*
X17261Y-11896D01*
X17261Y-11996D01*
G54D10*
G36*
X23578Y-6791D02*
X22468Y-6791D01*
X21539Y-6791D01*
X21508Y-6759D01*
X21353Y-6695D01*
X21185Y-6695D01*
X21030Y-6759D01*
X20911Y-6877D01*
X20847Y-7032D01*
X20846Y-7200D01*
X20911Y-7355D01*
X21029Y-7474D01*
X21078Y-7494D01*
X21048Y-7524D01*
X21048Y-7761D01*
X21056Y-7761D01*
X21056Y-7861D01*
X21048Y-7861D01*
X21048Y-8099D01*
X21086Y-8136D01*
X21244Y-8136D01*
X21260Y-8136D01*
X21261Y-8140D01*
X21225Y-8140D01*
X20948Y-8140D01*
X20948Y-8099D01*
X20948Y-7861D01*
X20948Y-7761D01*
X20948Y-7524D01*
X20911Y-7486D01*
X20753Y-7486D01*
X20693Y-7486D01*
X20638Y-7509D01*
X20618Y-7529D01*
X20598Y-7509D01*
X20543Y-7486D01*
X20484Y-7486D01*
X20326Y-7486D01*
X20288Y-7524D01*
X20288Y-7761D01*
X20611Y-7761D01*
X20626Y-7761D01*
X20948Y-7761D01*
X20948Y-7861D01*
X20626Y-7861D01*
X20611Y-7861D01*
X20288Y-7861D01*
X20288Y-8099D01*
X20326Y-8136D01*
X20484Y-8136D01*
X20543Y-8136D01*
X20598Y-8114D01*
X20618Y-8094D01*
X20638Y-8114D01*
X20693Y-8136D01*
X20753Y-8136D01*
X20911Y-8136D01*
X20948Y-8099D01*
X20948Y-8140D01*
X20675Y-8140D01*
X20618Y-8163D01*
X20563Y-8140D01*
X20465Y-8140D01*
X20188Y-8140D01*
X19915Y-8140D01*
X19858Y-8163D01*
X19858Y-8136D01*
X19821Y-8136D01*
X19858Y-8099D01*
X19858Y-8094D01*
X19878Y-8114D01*
X19933Y-8136D01*
X19993Y-8136D01*
X20151Y-8136D01*
X20188Y-8099D01*
X20188Y-7861D01*
X20181Y-7861D01*
X20181Y-7761D01*
X20188Y-7761D01*
X20188Y-7524D01*
X20151Y-7486D01*
X19993Y-7486D01*
X19933Y-7486D01*
X19878Y-7509D01*
X19836Y-7552D01*
X19813Y-7607D01*
X19813Y-7724D01*
X19851Y-7761D01*
X19813Y-7761D01*
X19813Y-7804D01*
X19793Y-7784D01*
X19738Y-7761D01*
X19621Y-7761D01*
X19583Y-7799D01*
X19583Y-8136D01*
X19591Y-8136D01*
X19591Y-8236D01*
X19583Y-8236D01*
X19583Y-8519D01*
X19583Y-8574D01*
X19583Y-8856D01*
X19591Y-8856D01*
X19591Y-8956D01*
X19583Y-8956D01*
X19583Y-8964D01*
X19484Y-8964D01*
X19484Y-7846D01*
X19483Y-7843D01*
X19483Y-7843D01*
X19483Y-7799D01*
X19472Y-7788D01*
X19459Y-7722D01*
X19389Y-7616D01*
X19389Y-7616D01*
X19249Y-7476D01*
X19143Y-7406D01*
X19018Y-7381D01*
X17958Y-7381D01*
X17834Y-7406D01*
X17728Y-7476D01*
X17540Y-7665D01*
X17240Y-7665D01*
X17149Y-7702D01*
X17079Y-7771D01*
X17042Y-7862D01*
X17042Y-7872D01*
X17018Y-7849D01*
X16963Y-7826D01*
X16904Y-7826D01*
X16746Y-7826D01*
X16708Y-7864D01*
X16708Y-8101D01*
X16716Y-8101D01*
X16716Y-8201D01*
X16608Y-8201D01*
X16608Y-8101D01*
X16608Y-7864D01*
X16571Y-7826D01*
X16413Y-7826D01*
X16353Y-7826D01*
X16298Y-7849D01*
X16288Y-7859D01*
X16278Y-7849D01*
X16223Y-7826D01*
X16164Y-7826D01*
X16006Y-7826D01*
X15968Y-7864D01*
X15968Y-8101D01*
X16271Y-8101D01*
X16306Y-8101D01*
X16608Y-8101D01*
X16608Y-8201D01*
X15868Y-8201D01*
X15868Y-8101D01*
X15868Y-7864D01*
X15831Y-7826D01*
X15673Y-7826D01*
X15613Y-7826D01*
X15558Y-7849D01*
X15516Y-7892D01*
X15493Y-7947D01*
X15493Y-8064D01*
X15531Y-8101D01*
X15868Y-8101D01*
X15868Y-8201D01*
X15538Y-8201D01*
X15535Y-8201D01*
X15531Y-8201D01*
X15530Y-8203D01*
X15414Y-8226D01*
X15308Y-8296D01*
X15168Y-8436D01*
X15098Y-8542D01*
X15073Y-8666D01*
X15073Y-8992D01*
X14795Y-8714D01*
X14795Y-8580D01*
X14758Y-8489D01*
X14716Y-8448D01*
X14716Y-7950D01*
X14726Y-7936D01*
X14753Y-7796D01*
X14753Y-7796D01*
X14753Y-6170D01*
X14753Y-6170D01*
X14774Y-6156D01*
X14774Y-6156D01*
X16255Y-6156D01*
X16394Y-6129D01*
X16394Y-6129D01*
X16513Y-6049D01*
X18180Y-4382D01*
X20789Y-4382D01*
X20866Y-4382D01*
X21457Y-4382D01*
X21457Y-4732D01*
X21466Y-4773D01*
X21369Y-4773D01*
X21177Y-4852D01*
X21030Y-4999D01*
X20950Y-5191D01*
X20950Y-5398D01*
X21029Y-5590D01*
X21176Y-5737D01*
X21368Y-5817D01*
X21478Y-5817D01*
X21883Y-6222D01*
X22002Y-6301D01*
X22002Y-6301D01*
X22141Y-6329D01*
X23116Y-6329D01*
X23578Y-6791D01*
X23578Y-6791D01*
G37*
G54D39*
X23578Y-6791D02*
X22468Y-6791D01*
X21539Y-6791D01*
X21508Y-6759D01*
X21353Y-6695D01*
X21185Y-6695D01*
X21030Y-6759D01*
X20911Y-6877D01*
X20847Y-7032D01*
X20846Y-7200D01*
X20911Y-7355D01*
X21029Y-7474D01*
X21078Y-7494D01*
X21048Y-7524D01*
X21048Y-7761D01*
X21056Y-7761D01*
X21056Y-7861D01*
X21048Y-7861D01*
X21048Y-8099D01*
X21086Y-8136D01*
X21244Y-8136D01*
X21260Y-8136D01*
X21261Y-8140D01*
X21225Y-8140D01*
X20948Y-8140D01*
X20948Y-8099D01*
X20948Y-7861D01*
X20948Y-7761D01*
X20948Y-7524D01*
X20911Y-7486D01*
X20753Y-7486D01*
X20693Y-7486D01*
X20638Y-7509D01*
X20618Y-7529D01*
X20598Y-7509D01*
X20543Y-7486D01*
X20484Y-7486D01*
X20326Y-7486D01*
X20288Y-7524D01*
X20288Y-7761D01*
X20611Y-7761D01*
X20626Y-7761D01*
X20948Y-7761D01*
X20948Y-7861D01*
X20626Y-7861D01*
X20611Y-7861D01*
X20288Y-7861D01*
X20288Y-8099D01*
X20326Y-8136D01*
X20484Y-8136D01*
X20543Y-8136D01*
X20598Y-8114D01*
X20618Y-8094D01*
X20638Y-8114D01*
X20693Y-8136D01*
X20753Y-8136D01*
X20911Y-8136D01*
X20948Y-8099D01*
X20948Y-8140D01*
X20675Y-8140D01*
X20618Y-8163D01*
X20563Y-8140D01*
X20465Y-8140D01*
X20188Y-8140D01*
X19915Y-8140D01*
X19858Y-8163D01*
X19858Y-8136D01*
X19821Y-8136D01*
X19858Y-8099D01*
X19858Y-8094D01*
X19878Y-8114D01*
X19933Y-8136D01*
X19993Y-8136D01*
X20151Y-8136D01*
X20188Y-8099D01*
X20188Y-7861D01*
X20181Y-7861D01*
X20181Y-7761D01*
X20188Y-7761D01*
X20188Y-7524D01*
X20151Y-7486D01*
X19993Y-7486D01*
X19933Y-7486D01*
X19878Y-7509D01*
X19836Y-7552D01*
X19813Y-7607D01*
X19813Y-7724D01*
X19851Y-7761D01*
X19813Y-7761D01*
X19813Y-7804D01*
X19793Y-7784D01*
X19738Y-7761D01*
X19621Y-7761D01*
X19583Y-7799D01*
X19583Y-8136D01*
X19591Y-8136D01*
X19591Y-8236D01*
X19583Y-8236D01*
X19583Y-8519D01*
X19583Y-8574D01*
X19583Y-8856D01*
X19591Y-8856D01*
X19591Y-8956D01*
X19583Y-8956D01*
X19583Y-8964D01*
X19484Y-8964D01*
X19484Y-7846D01*
X19483Y-7843D01*
X19483Y-7843D01*
X19483Y-7799D01*
X19472Y-7788D01*
X19459Y-7722D01*
X19389Y-7616D01*
X19389Y-7616D01*
X19249Y-7476D01*
X19143Y-7406D01*
X19018Y-7381D01*
X17958Y-7381D01*
X17834Y-7406D01*
X17728Y-7476D01*
X17540Y-7665D01*
X17240Y-7665D01*
X17149Y-7702D01*
X17079Y-7771D01*
X17042Y-7862D01*
X17042Y-7872D01*
X17018Y-7849D01*
X16963Y-7826D01*
X16904Y-7826D01*
X16746Y-7826D01*
X16708Y-7864D01*
X16708Y-8101D01*
X16716Y-8101D01*
X16716Y-8201D01*
X16608Y-8201D01*
X16608Y-8101D01*
X16608Y-7864D01*
X16571Y-7826D01*
X16413Y-7826D01*
X16353Y-7826D01*
X16298Y-7849D01*
X16288Y-7859D01*
X16278Y-7849D01*
X16223Y-7826D01*
X16164Y-7826D01*
X16006Y-7826D01*
X15968Y-7864D01*
X15968Y-8101D01*
X16271Y-8101D01*
X16306Y-8101D01*
X16608Y-8101D01*
X16608Y-8201D01*
X15868Y-8201D01*
X15868Y-8101D01*
X15868Y-7864D01*
X15831Y-7826D01*
X15673Y-7826D01*
X15613Y-7826D01*
X15558Y-7849D01*
X15516Y-7892D01*
X15493Y-7947D01*
X15493Y-8064D01*
X15531Y-8101D01*
X15868Y-8101D01*
X15868Y-8201D01*
X15538Y-8201D01*
X15535Y-8201D01*
X15531Y-8201D01*
X15530Y-8203D01*
X15414Y-8226D01*
X15308Y-8296D01*
X15168Y-8436D01*
X15098Y-8542D01*
X15073Y-8666D01*
X15073Y-8992D01*
X14795Y-8714D01*
X14795Y-8580D01*
X14758Y-8489D01*
X14716Y-8448D01*
X14716Y-7950D01*
X14726Y-7936D01*
X14753Y-7796D01*
X14753Y-7796D01*
X14753Y-6170D01*
X14753Y-6170D01*
X14774Y-6156D01*
X14774Y-6156D01*
X16255Y-6156D01*
X16394Y-6129D01*
X16394Y-6129D01*
X16513Y-6049D01*
X18180Y-4382D01*
X20789Y-4382D01*
X20866Y-4382D01*
X21457Y-4382D01*
X21457Y-4732D01*
X21466Y-4773D01*
X21369Y-4773D01*
X21177Y-4852D01*
X21030Y-4999D01*
X20950Y-5191D01*
X20950Y-5398D01*
X21029Y-5590D01*
X21176Y-5737D01*
X21368Y-5817D01*
X21478Y-5817D01*
X21883Y-6222D01*
X22002Y-6301D01*
X22002Y-6301D01*
X22141Y-6329D01*
X23116Y-6329D01*
X23578Y-6791D01*
G54D10*
G36*
X25018Y-10264D02*
X24409Y-10264D01*
X24322Y-10282D01*
X24469Y-10135D01*
X24551Y-9936D01*
X24551Y-9720D01*
X24469Y-9521D01*
X24329Y-9381D01*
X24337Y-9381D01*
X24392Y-9358D01*
X24434Y-9316D01*
X24457Y-9261D01*
X24457Y-9201D01*
X24457Y-8711D01*
X24457Y-8651D01*
X24434Y-8596D01*
X24392Y-8554D01*
X24337Y-8531D01*
X24220Y-8531D01*
X24182Y-8569D01*
X24182Y-8906D01*
X24420Y-8906D01*
X24457Y-8869D01*
X24457Y-8711D01*
X24457Y-9201D01*
X24457Y-9044D01*
X24420Y-9006D01*
X24182Y-9006D01*
X24182Y-9014D01*
X24082Y-9014D01*
X24082Y-9006D01*
X24075Y-9006D01*
X24075Y-8906D01*
X24082Y-8906D01*
X24082Y-8569D01*
X24045Y-8531D01*
X23928Y-8531D01*
X23873Y-8554D01*
X23830Y-8596D01*
X23807Y-8651D01*
X23807Y-8711D01*
X23807Y-8797D01*
X23771Y-8760D01*
X23771Y-8589D01*
X23771Y-8180D01*
X23748Y-8124D01*
X23706Y-8082D01*
X23651Y-8059D01*
X23591Y-8059D01*
X23433Y-8059D01*
X23396Y-8097D01*
X23396Y-8334D01*
X23733Y-8334D01*
X23771Y-8297D01*
X23771Y-8180D01*
X23771Y-8589D01*
X23771Y-8472D01*
X23733Y-8434D01*
X23396Y-8434D01*
X23396Y-8672D01*
X23433Y-8709D01*
X23591Y-8709D01*
X23651Y-8709D01*
X23706Y-8686D01*
X23748Y-8644D01*
X23771Y-8589D01*
X23771Y-8760D01*
X23761Y-8750D01*
X23670Y-8713D01*
X23572Y-8712D01*
X23296Y-8712D01*
X23296Y-8672D01*
X23296Y-8434D01*
X23296Y-8334D01*
X23296Y-8097D01*
X23258Y-8059D01*
X23101Y-8059D01*
X23041Y-8059D01*
X22986Y-8082D01*
X22952Y-8116D01*
X22919Y-8082D01*
X22864Y-8059D01*
X22804Y-8059D01*
X22646Y-8059D01*
X22609Y-8097D01*
X22609Y-8334D01*
X22946Y-8334D01*
X22952Y-8328D01*
X22958Y-8334D01*
X23296Y-8334D01*
X23296Y-8434D01*
X22958Y-8434D01*
X22952Y-8441D01*
X22946Y-8434D01*
X22609Y-8434D01*
X22609Y-8672D01*
X22646Y-8709D01*
X22804Y-8709D01*
X22864Y-8709D01*
X22919Y-8686D01*
X22952Y-8653D01*
X22986Y-8686D01*
X23041Y-8709D01*
X23101Y-8709D01*
X23258Y-8709D01*
X23296Y-8672D01*
X23296Y-8712D01*
X23022Y-8712D01*
X22952Y-8741D01*
X22883Y-8713D01*
X22785Y-8712D01*
X22332Y-8712D01*
X22332Y-8709D01*
X22471Y-8709D01*
X22509Y-8672D01*
X22509Y-8434D01*
X22501Y-8434D01*
X22501Y-8334D01*
X22509Y-8334D01*
X22509Y-8097D01*
X22471Y-8059D01*
X22313Y-8059D01*
X22254Y-8059D01*
X22198Y-8082D01*
X22156Y-8124D01*
X22155Y-8128D01*
X22135Y-8120D01*
X22126Y-8120D01*
X22111Y-8044D01*
X22111Y-8044D01*
X22095Y-8019D01*
X22095Y-8019D01*
X22095Y-7947D01*
X22031Y-7792D01*
X21912Y-7674D01*
X21757Y-7609D01*
X21589Y-7609D01*
X21434Y-7673D01*
X21423Y-7684D01*
X21423Y-7607D01*
X21401Y-7552D01*
X21377Y-7528D01*
X21507Y-7474D01*
X21539Y-7442D01*
X22468Y-7442D01*
X23459Y-7442D01*
X23813Y-7797D01*
X24528Y-8511D01*
X24498Y-8541D01*
X24461Y-8632D01*
X24460Y-8730D01*
X24460Y-9280D01*
X24498Y-9371D01*
X24567Y-9440D01*
X24658Y-9478D01*
X24756Y-9478D01*
X24931Y-9478D01*
X24889Y-9520D01*
X24806Y-9720D01*
X24806Y-9935D01*
X24888Y-10135D01*
X25018Y-10264D01*
X25018Y-10264D01*
G37*
G54D39*
X25018Y-10264D02*
X24409Y-10264D01*
X24322Y-10282D01*
X24469Y-10135D01*
X24551Y-9936D01*
X24551Y-9720D01*
X24469Y-9521D01*
X24329Y-9381D01*
X24337Y-9381D01*
X24392Y-9358D01*
X24434Y-9316D01*
X24457Y-9261D01*
X24457Y-9201D01*
X24457Y-8711D01*
X24457Y-8651D01*
X24434Y-8596D01*
X24392Y-8554D01*
X24337Y-8531D01*
X24220Y-8531D01*
X24182Y-8569D01*
X24182Y-8906D01*
X24420Y-8906D01*
X24457Y-8869D01*
X24457Y-8711D01*
X24457Y-9201D01*
X24457Y-9044D01*
X24420Y-9006D01*
X24182Y-9006D01*
X24182Y-9014D01*
X24082Y-9014D01*
X24082Y-9006D01*
X24075Y-9006D01*
X24075Y-8906D01*
X24082Y-8906D01*
X24082Y-8569D01*
X24045Y-8531D01*
X23928Y-8531D01*
X23873Y-8554D01*
X23830Y-8596D01*
X23807Y-8651D01*
X23807Y-8711D01*
X23807Y-8797D01*
X23771Y-8760D01*
X23771Y-8589D01*
X23771Y-8180D01*
X23748Y-8124D01*
X23706Y-8082D01*
X23651Y-8059D01*
X23591Y-8059D01*
X23433Y-8059D01*
X23396Y-8097D01*
X23396Y-8334D01*
X23733Y-8334D01*
X23771Y-8297D01*
X23771Y-8180D01*
X23771Y-8589D01*
X23771Y-8472D01*
X23733Y-8434D01*
X23396Y-8434D01*
X23396Y-8672D01*
X23433Y-8709D01*
X23591Y-8709D01*
X23651Y-8709D01*
X23706Y-8686D01*
X23748Y-8644D01*
X23771Y-8589D01*
X23771Y-8760D01*
X23761Y-8750D01*
X23670Y-8713D01*
X23572Y-8712D01*
X23296Y-8712D01*
X23296Y-8672D01*
X23296Y-8434D01*
X23296Y-8334D01*
X23296Y-8097D01*
X23258Y-8059D01*
X23101Y-8059D01*
X23041Y-8059D01*
X22986Y-8082D01*
X22952Y-8116D01*
X22919Y-8082D01*
X22864Y-8059D01*
X22804Y-8059D01*
X22646Y-8059D01*
X22609Y-8097D01*
X22609Y-8334D01*
X22946Y-8334D01*
X22952Y-8328D01*
X22958Y-8334D01*
X23296Y-8334D01*
X23296Y-8434D01*
X22958Y-8434D01*
X22952Y-8441D01*
X22946Y-8434D01*
X22609Y-8434D01*
X22609Y-8672D01*
X22646Y-8709D01*
X22804Y-8709D01*
X22864Y-8709D01*
X22919Y-8686D01*
X22952Y-8653D01*
X22986Y-8686D01*
X23041Y-8709D01*
X23101Y-8709D01*
X23258Y-8709D01*
X23296Y-8672D01*
X23296Y-8712D01*
X23022Y-8712D01*
X22952Y-8741D01*
X22883Y-8713D01*
X22785Y-8712D01*
X22332Y-8712D01*
X22332Y-8709D01*
X22471Y-8709D01*
X22509Y-8672D01*
X22509Y-8434D01*
X22501Y-8434D01*
X22501Y-8334D01*
X22509Y-8334D01*
X22509Y-8097D01*
X22471Y-8059D01*
X22313Y-8059D01*
X22254Y-8059D01*
X22198Y-8082D01*
X22156Y-8124D01*
X22155Y-8128D01*
X22135Y-8120D01*
X22126Y-8120D01*
X22111Y-8044D01*
X22111Y-8044D01*
X22095Y-8019D01*
X22095Y-8019D01*
X22095Y-7947D01*
X22031Y-7792D01*
X21912Y-7674D01*
X21757Y-7609D01*
X21589Y-7609D01*
X21434Y-7673D01*
X21423Y-7684D01*
X21423Y-7607D01*
X21401Y-7552D01*
X21377Y-7528D01*
X21507Y-7474D01*
X21539Y-7442D01*
X22468Y-7442D01*
X23459Y-7442D01*
X23813Y-7797D01*
X24528Y-8511D01*
X24498Y-8541D01*
X24461Y-8632D01*
X24460Y-8730D01*
X24460Y-9280D01*
X24498Y-9371D01*
X24567Y-9440D01*
X24658Y-9478D01*
X24756Y-9478D01*
X24931Y-9478D01*
X24889Y-9520D01*
X24806Y-9720D01*
X24806Y-9935D01*
X24888Y-10135D01*
X25018Y-10264D01*
G54D10*
G36*
X31533Y-20205D02*
X17878Y-20205D01*
X16688Y-20205D01*
X16688Y-16132D01*
X16688Y-15974D01*
X16651Y-15936D01*
X16413Y-15936D01*
X16413Y-16274D01*
X16451Y-16311D01*
X16568Y-16311D01*
X16623Y-16289D01*
X16665Y-16247D01*
X16688Y-16191D01*
X16688Y-16132D01*
X16688Y-20205D01*
X12204Y-20205D01*
X12102Y-20226D01*
X12016Y-20283D01*
X7369Y-24930D01*
X6771Y-24930D01*
X7020Y-24681D01*
X7368Y-24681D01*
X7508Y-24654D01*
X7508Y-24654D01*
X7626Y-24574D01*
X8191Y-24010D01*
X8270Y-23892D01*
X8270Y-23892D01*
X8298Y-23752D01*
X8298Y-23253D01*
X11795Y-19756D01*
X12968Y-19756D01*
X13108Y-19729D01*
X13108Y-19729D01*
X13226Y-19649D01*
X15477Y-17399D01*
X15422Y-17532D01*
X15421Y-17700D01*
X15486Y-17855D01*
X15604Y-17974D01*
X15759Y-18038D01*
X15927Y-18038D01*
X16082Y-17974D01*
X16201Y-17856D01*
X16265Y-17701D01*
X16265Y-17533D01*
X16201Y-17378D01*
X16140Y-17317D01*
X16140Y-16391D01*
X16140Y-16304D01*
X16159Y-16311D01*
X16276Y-16311D01*
X16313Y-16274D01*
X16313Y-15936D01*
X16306Y-15936D01*
X16306Y-15836D01*
X16313Y-15836D01*
X16313Y-15829D01*
X16413Y-15829D01*
X16413Y-15836D01*
X16651Y-15836D01*
X16688Y-15799D01*
X16688Y-15641D01*
X16688Y-15581D01*
X16665Y-15526D01*
X16641Y-15502D01*
X16649Y-15493D01*
X16672Y-15438D01*
X16672Y-15122D01*
X16634Y-15084D01*
X16355Y-15084D01*
X16355Y-15092D01*
X16255Y-15092D01*
X16255Y-15084D01*
X15976Y-15084D01*
X15939Y-15122D01*
X15939Y-15438D01*
X15962Y-15493D01*
X16004Y-15536D01*
X16050Y-15555D01*
X16038Y-15581D01*
X16038Y-15641D01*
X16038Y-15787D01*
X15048Y-14797D01*
X15048Y-14797D01*
X14915Y-14663D01*
X15478Y-14663D01*
X15574Y-14727D01*
X15698Y-14752D01*
X15939Y-14752D01*
X15939Y-14947D01*
X15976Y-14984D01*
X16255Y-14984D01*
X16255Y-14977D01*
X16355Y-14977D01*
X16355Y-14984D01*
X16634Y-14984D01*
X16672Y-14947D01*
X16672Y-14760D01*
X16748Y-14836D01*
X16748Y-15453D01*
X16729Y-15471D01*
X16692Y-15562D01*
X16692Y-15660D01*
X16692Y-16210D01*
X16729Y-16301D01*
X16798Y-16371D01*
X16889Y-16408D01*
X16987Y-16408D01*
X17337Y-16408D01*
X17428Y-16371D01*
X17498Y-16301D01*
X17535Y-16211D01*
X17535Y-16113D01*
X17535Y-15631D01*
X17568Y-15618D01*
X17637Y-15548D01*
X17675Y-15458D01*
X17675Y-15360D01*
X17675Y-14612D01*
X17637Y-14521D01*
X17578Y-14461D01*
X17578Y-13982D01*
X17578Y-13666D01*
X17540Y-13628D01*
X17261Y-13628D01*
X17261Y-14065D01*
X17299Y-14102D01*
X17398Y-14102D01*
X17458Y-14102D01*
X17513Y-14080D01*
X17555Y-14037D01*
X17578Y-13982D01*
X17578Y-14461D01*
X17568Y-14451D01*
X17477Y-14414D01*
X17379Y-14414D01*
X17246Y-14414D01*
X17161Y-14329D01*
X17161Y-14065D01*
X17161Y-13628D01*
X16882Y-13628D01*
X16845Y-13666D01*
X16845Y-13982D01*
X16868Y-14037D01*
X16910Y-14080D01*
X16965Y-14102D01*
X17025Y-14102D01*
X17124Y-14102D01*
X17161Y-14065D01*
X17161Y-14329D01*
X17029Y-14196D01*
X16923Y-14126D01*
X16798Y-14101D01*
X16723Y-14101D01*
X16731Y-14092D01*
X16769Y-14002D01*
X16769Y-13904D01*
X16769Y-13248D01*
X16845Y-13248D01*
X16845Y-13491D01*
X16882Y-13528D01*
X17161Y-13528D01*
X17161Y-13521D01*
X17261Y-13521D01*
X17261Y-13528D01*
X17540Y-13528D01*
X17578Y-13491D01*
X17578Y-13175D01*
X17568Y-13151D01*
X17603Y-13151D01*
X17603Y-13114D01*
X17641Y-13151D01*
X17758Y-13151D01*
X17813Y-13129D01*
X17855Y-13087D01*
X17878Y-13031D01*
X17878Y-12972D01*
X17878Y-12814D01*
X17841Y-12776D01*
X17603Y-12776D01*
X17603Y-12784D01*
X17528Y-12784D01*
X17503Y-12784D01*
X17503Y-12776D01*
X17266Y-12776D01*
X17228Y-12814D01*
X17228Y-12972D01*
X17228Y-13031D01*
X17238Y-13054D01*
X17224Y-13054D01*
X17225Y-13051D01*
X17225Y-12953D01*
X17225Y-12403D01*
X17212Y-12371D01*
X17249Y-12371D01*
X17228Y-12421D01*
X17228Y-12481D01*
X17228Y-12639D01*
X17266Y-12676D01*
X17503Y-12676D01*
X17503Y-12669D01*
X17528Y-12669D01*
X17603Y-12669D01*
X17603Y-12676D01*
X17841Y-12676D01*
X17878Y-12639D01*
X17878Y-12481D01*
X17878Y-12468D01*
X17940Y-12468D01*
X17912Y-12537D01*
X17912Y-12635D01*
X17912Y-13235D01*
X17949Y-13326D01*
X18018Y-13396D01*
X18109Y-13433D01*
X18207Y-13433D01*
X18487Y-13433D01*
X18338Y-13444D01*
X18231Y-13488D01*
X18198Y-13555D01*
X18458Y-13816D01*
X18719Y-13555D01*
X18686Y-13488D01*
X18522Y-13433D01*
X18807Y-13433D01*
X18898Y-13396D01*
X18968Y-13326D01*
X19005Y-13236D01*
X19005Y-13138D01*
X19005Y-12538D01*
X18968Y-12447D01*
X18945Y-12424D01*
X18998Y-12371D01*
X19058Y-12431D01*
X19149Y-12468D01*
X19247Y-12468D01*
X19597Y-12468D01*
X19688Y-12431D01*
X19758Y-12361D01*
X19795Y-12271D01*
X19795Y-12173D01*
X19795Y-11623D01*
X19758Y-11532D01*
X19688Y-11462D01*
X19598Y-11425D01*
X19500Y-11425D01*
X19473Y-11425D01*
X19196Y-11148D01*
X19078Y-11069D01*
X18998Y-11053D01*
X19122Y-11029D01*
X19227Y-10958D01*
X19409Y-10777D01*
X19409Y-10777D01*
X19473Y-10681D01*
X19493Y-10701D01*
X19493Y-11066D01*
X19518Y-11191D01*
X19588Y-11297D01*
X19818Y-11526D01*
X19818Y-12491D01*
X19843Y-12616D01*
X19913Y-12722D01*
X22445Y-15254D01*
X22268Y-15327D01*
X22115Y-15479D01*
X22032Y-15679D01*
X22032Y-15894D01*
X22114Y-16094D01*
X22267Y-16246D01*
X22466Y-16329D01*
X22562Y-16329D01*
X22553Y-16337D01*
X22474Y-16529D01*
X22474Y-16737D01*
X22553Y-16929D01*
X22582Y-16957D01*
X20623Y-16957D01*
X20517Y-16852D01*
X20517Y-16329D01*
X20682Y-16329D01*
X20881Y-16247D01*
X21034Y-16094D01*
X21116Y-15895D01*
X21117Y-15680D01*
X21034Y-15480D01*
X20882Y-15328D01*
X20683Y-15245D01*
X20467Y-15245D01*
X20268Y-15327D01*
X20115Y-15479D01*
X20032Y-15679D01*
X20032Y-15894D01*
X20114Y-16094D01*
X20132Y-16111D01*
X19672Y-16111D01*
X19581Y-16149D01*
X19511Y-16218D01*
X19474Y-16309D01*
X19474Y-16407D01*
X19474Y-16806D01*
X18939Y-16271D01*
X18939Y-16189D01*
X19034Y-16094D01*
X19116Y-15895D01*
X19117Y-15680D01*
X19034Y-15480D01*
X18914Y-15359D01*
X18914Y-13944D01*
X18901Y-13766D01*
X18857Y-13659D01*
X18790Y-13626D01*
X18529Y-13886D01*
X18790Y-14147D01*
X18857Y-14114D01*
X18914Y-13944D01*
X18914Y-15359D01*
X18882Y-15328D01*
X18719Y-15260D01*
X18719Y-14218D01*
X18458Y-13957D01*
X18388Y-14028D01*
X18388Y-13886D01*
X18127Y-13626D01*
X18060Y-13659D01*
X18003Y-13829D01*
X18016Y-14007D01*
X18060Y-14114D01*
X18127Y-14147D01*
X18388Y-13886D01*
X18388Y-14028D01*
X18198Y-14218D01*
X18231Y-14285D01*
X18401Y-14342D01*
X18579Y-14329D01*
X18686Y-14285D01*
X18719Y-14218D01*
X18719Y-15260D01*
X18683Y-15245D01*
X18467Y-15245D01*
X18268Y-15327D01*
X18115Y-15479D01*
X18032Y-15679D01*
X18032Y-15894D01*
X18114Y-16094D01*
X18209Y-16189D01*
X18209Y-16422D01*
X18237Y-16562D01*
X18316Y-16680D01*
X19660Y-18024D01*
X19779Y-18104D01*
X19779Y-18104D01*
X19918Y-18131D01*
X22467Y-18131D01*
X22971Y-18636D01*
X22971Y-18774D01*
X23130Y-19159D01*
X23425Y-19453D01*
X23809Y-19613D01*
X24226Y-19613D01*
X24611Y-19454D01*
X24905Y-19160D01*
X25028Y-18864D01*
X25028Y-19094D01*
X25056Y-19234D01*
X25135Y-19352D01*
X25726Y-19943D01*
X25844Y-20022D01*
X25844Y-20022D01*
X25984Y-20050D01*
X31344Y-20050D01*
X31434Y-20139D01*
X31434Y-20139D01*
X31533Y-20205D01*
X31533Y-20205D01*
G37*
G54D39*
X31533Y-20205D02*
X17878Y-20205D01*
X16688Y-20205D01*
X16688Y-16132D01*
X16688Y-15974D01*
X16651Y-15936D01*
X16413Y-15936D01*
X16413Y-16274D01*
X16451Y-16311D01*
X16568Y-16311D01*
X16623Y-16289D01*
X16665Y-16247D01*
X16688Y-16191D01*
X16688Y-16132D01*
X16688Y-20205D01*
X12204Y-20205D01*
X12102Y-20226D01*
X12016Y-20283D01*
X7369Y-24930D01*
X6771Y-24930D01*
X7020Y-24681D01*
X7368Y-24681D01*
X7508Y-24654D01*
X7508Y-24654D01*
X7626Y-24574D01*
X8191Y-24010D01*
X8270Y-23892D01*
X8270Y-23892D01*
X8298Y-23752D01*
X8298Y-23253D01*
X11795Y-19756D01*
X12968Y-19756D01*
X13108Y-19729D01*
X13108Y-19729D01*
X13226Y-19649D01*
X15477Y-17399D01*
X15422Y-17532D01*
X15421Y-17700D01*
X15486Y-17855D01*
X15604Y-17974D01*
X15759Y-18038D01*
X15927Y-18038D01*
X16082Y-17974D01*
X16201Y-17856D01*
X16265Y-17701D01*
X16265Y-17533D01*
X16201Y-17378D01*
X16140Y-17317D01*
X16140Y-16391D01*
X16140Y-16304D01*
X16159Y-16311D01*
X16276Y-16311D01*
X16313Y-16274D01*
X16313Y-15936D01*
X16306Y-15936D01*
X16306Y-15836D01*
X16313Y-15836D01*
X16313Y-15829D01*
X16413Y-15829D01*
X16413Y-15836D01*
X16651Y-15836D01*
X16688Y-15799D01*
X16688Y-15641D01*
X16688Y-15581D01*
X16665Y-15526D01*
X16641Y-15502D01*
X16649Y-15493D01*
X16672Y-15438D01*
X16672Y-15122D01*
X16634Y-15084D01*
X16355Y-15084D01*
X16355Y-15092D01*
X16255Y-15092D01*
X16255Y-15084D01*
X15976Y-15084D01*
X15939Y-15122D01*
X15939Y-15438D01*
X15962Y-15493D01*
X16004Y-15536D01*
X16050Y-15555D01*
X16038Y-15581D01*
X16038Y-15641D01*
X16038Y-15787D01*
X15048Y-14797D01*
X15048Y-14797D01*
X14915Y-14663D01*
X15478Y-14663D01*
X15574Y-14727D01*
X15698Y-14752D01*
X15939Y-14752D01*
X15939Y-14947D01*
X15976Y-14984D01*
X16255Y-14984D01*
X16255Y-14977D01*
X16355Y-14977D01*
X16355Y-14984D01*
X16634Y-14984D01*
X16672Y-14947D01*
X16672Y-14760D01*
X16748Y-14836D01*
X16748Y-15453D01*
X16729Y-15471D01*
X16692Y-15562D01*
X16692Y-15660D01*
X16692Y-16210D01*
X16729Y-16301D01*
X16798Y-16371D01*
X16889Y-16408D01*
X16987Y-16408D01*
X17337Y-16408D01*
X17428Y-16371D01*
X17498Y-16301D01*
X17535Y-16211D01*
X17535Y-16113D01*
X17535Y-15631D01*
X17568Y-15618D01*
X17637Y-15548D01*
X17675Y-15458D01*
X17675Y-15360D01*
X17675Y-14612D01*
X17637Y-14521D01*
X17578Y-14461D01*
X17578Y-13982D01*
X17578Y-13666D01*
X17540Y-13628D01*
X17261Y-13628D01*
X17261Y-14065D01*
X17299Y-14102D01*
X17398Y-14102D01*
X17458Y-14102D01*
X17513Y-14080D01*
X17555Y-14037D01*
X17578Y-13982D01*
X17578Y-14461D01*
X17568Y-14451D01*
X17477Y-14414D01*
X17379Y-14414D01*
X17246Y-14414D01*
X17161Y-14329D01*
X17161Y-14065D01*
X17161Y-13628D01*
X16882Y-13628D01*
X16845Y-13666D01*
X16845Y-13982D01*
X16868Y-14037D01*
X16910Y-14080D01*
X16965Y-14102D01*
X17025Y-14102D01*
X17124Y-14102D01*
X17161Y-14065D01*
X17161Y-14329D01*
X17029Y-14196D01*
X16923Y-14126D01*
X16798Y-14101D01*
X16723Y-14101D01*
X16731Y-14092D01*
X16769Y-14002D01*
X16769Y-13904D01*
X16769Y-13248D01*
X16845Y-13248D01*
X16845Y-13491D01*
X16882Y-13528D01*
X17161Y-13528D01*
X17161Y-13521D01*
X17261Y-13521D01*
X17261Y-13528D01*
X17540Y-13528D01*
X17578Y-13491D01*
X17578Y-13175D01*
X17568Y-13151D01*
X17603Y-13151D01*
X17603Y-13114D01*
X17641Y-13151D01*
X17758Y-13151D01*
X17813Y-13129D01*
X17855Y-13087D01*
X17878Y-13031D01*
X17878Y-12972D01*
X17878Y-12814D01*
X17841Y-12776D01*
X17603Y-12776D01*
X17603Y-12784D01*
X17528Y-12784D01*
X17503Y-12784D01*
X17503Y-12776D01*
X17266Y-12776D01*
X17228Y-12814D01*
X17228Y-12972D01*
X17228Y-13031D01*
X17238Y-13054D01*
X17224Y-13054D01*
X17225Y-13051D01*
X17225Y-12953D01*
X17225Y-12403D01*
X17212Y-12371D01*
X17249Y-12371D01*
X17228Y-12421D01*
X17228Y-12481D01*
X17228Y-12639D01*
X17266Y-12676D01*
X17503Y-12676D01*
X17503Y-12669D01*
X17528Y-12669D01*
X17603Y-12669D01*
X17603Y-12676D01*
X17841Y-12676D01*
X17878Y-12639D01*
X17878Y-12481D01*
X17878Y-12468D01*
X17940Y-12468D01*
X17912Y-12537D01*
X17912Y-12635D01*
X17912Y-13235D01*
X17949Y-13326D01*
X18018Y-13396D01*
X18109Y-13433D01*
X18207Y-13433D01*
X18487Y-13433D01*
X18338Y-13444D01*
X18231Y-13488D01*
X18198Y-13555D01*
X18458Y-13816D01*
X18719Y-13555D01*
X18686Y-13488D01*
X18522Y-13433D01*
X18807Y-13433D01*
X18898Y-13396D01*
X18968Y-13326D01*
X19005Y-13236D01*
X19005Y-13138D01*
X19005Y-12538D01*
X18968Y-12447D01*
X18945Y-12424D01*
X18998Y-12371D01*
X19058Y-12431D01*
X19149Y-12468D01*
X19247Y-12468D01*
X19597Y-12468D01*
X19688Y-12431D01*
X19758Y-12361D01*
X19795Y-12271D01*
X19795Y-12173D01*
X19795Y-11623D01*
X19758Y-11532D01*
X19688Y-11462D01*
X19598Y-11425D01*
X19500Y-11425D01*
X19473Y-11425D01*
X19196Y-11148D01*
X19078Y-11069D01*
X18998Y-11053D01*
X19122Y-11029D01*
X19227Y-10958D01*
X19409Y-10777D01*
X19409Y-10777D01*
X19473Y-10681D01*
X19493Y-10701D01*
X19493Y-11066D01*
X19518Y-11191D01*
X19588Y-11297D01*
X19818Y-11526D01*
X19818Y-12491D01*
X19843Y-12616D01*
X19913Y-12722D01*
X22445Y-15254D01*
X22268Y-15327D01*
X22115Y-15479D01*
X22032Y-15679D01*
X22032Y-15894D01*
X22114Y-16094D01*
X22267Y-16246D01*
X22466Y-16329D01*
X22562Y-16329D01*
X22553Y-16337D01*
X22474Y-16529D01*
X22474Y-16737D01*
X22553Y-16929D01*
X22582Y-16957D01*
X20623Y-16957D01*
X20517Y-16852D01*
X20517Y-16329D01*
X20682Y-16329D01*
X20881Y-16247D01*
X21034Y-16094D01*
X21116Y-15895D01*
X21117Y-15680D01*
X21034Y-15480D01*
X20882Y-15328D01*
X20683Y-15245D01*
X20467Y-15245D01*
X20268Y-15327D01*
X20115Y-15479D01*
X20032Y-15679D01*
X20032Y-15894D01*
X20114Y-16094D01*
X20132Y-16111D01*
X19672Y-16111D01*
X19581Y-16149D01*
X19511Y-16218D01*
X19474Y-16309D01*
X19474Y-16407D01*
X19474Y-16806D01*
X18939Y-16271D01*
X18939Y-16189D01*
X19034Y-16094D01*
X19116Y-15895D01*
X19117Y-15680D01*
X19034Y-15480D01*
X18914Y-15359D01*
X18914Y-13944D01*
X18901Y-13766D01*
X18857Y-13659D01*
X18790Y-13626D01*
X18529Y-13886D01*
X18790Y-14147D01*
X18857Y-14114D01*
X18914Y-13944D01*
X18914Y-15359D01*
X18882Y-15328D01*
X18719Y-15260D01*
X18719Y-14218D01*
X18458Y-13957D01*
X18388Y-14028D01*
X18388Y-13886D01*
X18127Y-13626D01*
X18060Y-13659D01*
X18003Y-13829D01*
X18016Y-14007D01*
X18060Y-14114D01*
X18127Y-14147D01*
X18388Y-13886D01*
X18388Y-14028D01*
X18198Y-14218D01*
X18231Y-14285D01*
X18401Y-14342D01*
X18579Y-14329D01*
X18686Y-14285D01*
X18719Y-14218D01*
X18719Y-15260D01*
X18683Y-15245D01*
X18467Y-15245D01*
X18268Y-15327D01*
X18115Y-15479D01*
X18032Y-15679D01*
X18032Y-15894D01*
X18114Y-16094D01*
X18209Y-16189D01*
X18209Y-16422D01*
X18237Y-16562D01*
X18316Y-16680D01*
X19660Y-18024D01*
X19779Y-18104D01*
X19779Y-18104D01*
X19918Y-18131D01*
X22467Y-18131D01*
X22971Y-18636D01*
X22971Y-18774D01*
X23130Y-19159D01*
X23425Y-19453D01*
X23809Y-19613D01*
X24226Y-19613D01*
X24611Y-19454D01*
X24905Y-19160D01*
X25028Y-18864D01*
X25028Y-19094D01*
X25056Y-19234D01*
X25135Y-19352D01*
X25726Y-19943D01*
X25844Y-20022D01*
X25844Y-20022D01*
X25984Y-20050D01*
X31344Y-20050D01*
X31434Y-20139D01*
X31434Y-20139D01*
X31533Y-20205D01*
G54D10*
G36*
X33985Y-10311D02*
X33968Y-10270D01*
X33899Y-10200D01*
X33808Y-10163D01*
X33710Y-10163D01*
X33432Y-10163D01*
X33432Y-2400D01*
X32677Y-1645D01*
X32606Y-1716D01*
X32606Y-1574D01*
X31851Y-819D01*
X31713Y-936D01*
X31542Y-1353D01*
X31543Y-1804D01*
X31713Y-2213D01*
X31851Y-2329D01*
X32606Y-1574D01*
X32606Y-1716D01*
X31922Y-2400D01*
X32038Y-2538D01*
X32348Y-2665D01*
X32317Y-2723D01*
X32614Y-3019D01*
X32910Y-2723D01*
X32902Y-2708D01*
X32907Y-2708D01*
X33315Y-2538D01*
X33432Y-2400D01*
X33432Y-10163D01*
X33160Y-10163D01*
X33119Y-10180D01*
X33119Y-3160D01*
X33107Y-2961D01*
X33054Y-2832D01*
X32981Y-2793D01*
X32684Y-3090D01*
X32981Y-3387D01*
X33054Y-3348D01*
X33119Y-3160D01*
X33119Y-10180D01*
X33069Y-10200D01*
X33000Y-10270D01*
X32962Y-10360D01*
X32962Y-10458D01*
X32962Y-11008D01*
X32999Y-11099D01*
X33069Y-11169D01*
X33159Y-11206D01*
X33258Y-11206D01*
X33490Y-11206D01*
X33690Y-11407D01*
X33690Y-13205D01*
X33588Y-13163D01*
X33380Y-13163D01*
X33189Y-13242D01*
X33042Y-13389D01*
X32962Y-13580D01*
X32962Y-13788D01*
X33041Y-13980D01*
X33188Y-14127D01*
X33379Y-14206D01*
X33587Y-14206D01*
X33690Y-14164D01*
X33690Y-18186D01*
X33583Y-17928D01*
X33444Y-17811D01*
X33373Y-17882D01*
X33373Y-17741D01*
X33257Y-17602D01*
X32910Y-17460D01*
X32910Y-3457D01*
X32614Y-3161D01*
X32543Y-3231D01*
X32543Y-3090D01*
X32246Y-2793D01*
X32174Y-2832D01*
X32109Y-3020D01*
X32120Y-3219D01*
X32174Y-3348D01*
X32246Y-3387D01*
X32543Y-3090D01*
X32543Y-3231D01*
X32317Y-3457D01*
X32356Y-3530D01*
X32544Y-3595D01*
X32742Y-3583D01*
X32871Y-3530D01*
X32910Y-3457D01*
X32910Y-17460D01*
X32840Y-17431D01*
X32805Y-17431D01*
X32805Y-15806D01*
X32805Y-13806D01*
X32723Y-13606D01*
X32571Y-13454D01*
X32372Y-13371D01*
X32156Y-13371D01*
X31957Y-13453D01*
X31804Y-13605D01*
X31721Y-13805D01*
X31721Y-14020D01*
X31803Y-14220D01*
X31956Y-14372D01*
X32155Y-14455D01*
X32371Y-14455D01*
X32570Y-14373D01*
X32723Y-14220D01*
X32805Y-14021D01*
X32805Y-13806D01*
X32805Y-15806D01*
X32723Y-15606D01*
X32571Y-15454D01*
X32372Y-15371D01*
X32156Y-15371D01*
X31957Y-15453D01*
X31804Y-15605D01*
X31721Y-15805D01*
X31721Y-16020D01*
X31803Y-16220D01*
X31956Y-16372D01*
X32155Y-16455D01*
X32371Y-16455D01*
X32570Y-16373D01*
X32723Y-16220D01*
X32805Y-16021D01*
X32805Y-15806D01*
X32805Y-17431D01*
X32388Y-17433D01*
X31980Y-17602D01*
X31863Y-17741D01*
X32618Y-18496D01*
X33373Y-17741D01*
X33373Y-17882D01*
X32689Y-18566D01*
X32695Y-18572D01*
X32624Y-18643D01*
X32618Y-18637D01*
X32548Y-18708D01*
X32548Y-18566D01*
X31793Y-17811D01*
X31654Y-17928D01*
X31483Y-18345D01*
X31485Y-18797D01*
X31654Y-19205D01*
X31793Y-19322D01*
X32548Y-18566D01*
X32548Y-18708D01*
X31863Y-19392D01*
X31968Y-19516D01*
X31844Y-19516D01*
X31754Y-19426D01*
X31635Y-19347D01*
X31496Y-19320D01*
X31348Y-19320D01*
X31348Y-13640D01*
X31269Y-13448D01*
X31122Y-13301D01*
X30931Y-13222D01*
X30723Y-13222D01*
X30531Y-13301D01*
X30384Y-13448D01*
X30305Y-13639D01*
X30304Y-13847D01*
X30384Y-14039D01*
X30530Y-14186D01*
X30722Y-14265D01*
X30930Y-14266D01*
X31121Y-14186D01*
X31268Y-14040D01*
X31348Y-13848D01*
X31348Y-13640D01*
X31348Y-19320D01*
X30665Y-19320D01*
X30665Y-16458D01*
X30601Y-16303D01*
X30483Y-16184D01*
X30328Y-16120D01*
X30163Y-16120D01*
X30187Y-16061D01*
X30187Y-15845D01*
X30187Y-13845D01*
X30105Y-13646D01*
X29953Y-13493D01*
X29753Y-13410D01*
X29538Y-13410D01*
X29338Y-13492D01*
X29186Y-13645D01*
X29103Y-13844D01*
X29103Y-14060D01*
X29185Y-14259D01*
X29338Y-14412D01*
X29537Y-14494D01*
X29753Y-14494D01*
X29952Y-14412D01*
X30104Y-14260D01*
X30187Y-14061D01*
X30187Y-13845D01*
X30187Y-15845D01*
X30105Y-15646D01*
X29953Y-15493D01*
X29753Y-15410D01*
X29538Y-15410D01*
X29338Y-15492D01*
X29186Y-15645D01*
X29103Y-15844D01*
X29103Y-16060D01*
X29185Y-16259D01*
X29338Y-16412D01*
X29537Y-16494D01*
X29753Y-16494D01*
X29822Y-16466D01*
X29821Y-16625D01*
X29886Y-16780D01*
X29922Y-16816D01*
X29922Y-17042D01*
X29861Y-17102D01*
X29797Y-17257D01*
X29796Y-17425D01*
X29861Y-17580D01*
X29960Y-17680D01*
X29796Y-17614D01*
X29418Y-17619D01*
X29090Y-17754D01*
X28996Y-17874D01*
X29618Y-18496D01*
X30240Y-17874D01*
X30153Y-17763D01*
X30302Y-17763D01*
X30457Y-17699D01*
X30576Y-17581D01*
X30640Y-17426D01*
X30640Y-17258D01*
X30576Y-17103D01*
X30515Y-17042D01*
X30515Y-16866D01*
X30601Y-16781D01*
X30665Y-16626D01*
X30665Y-16458D01*
X30665Y-19320D01*
X30571Y-19320D01*
X30571Y-18744D01*
X30566Y-18366D01*
X30430Y-18038D01*
X30311Y-17944D01*
X29689Y-18566D01*
X30311Y-19189D01*
X30430Y-19095D01*
X30571Y-18744D01*
X30571Y-19320D01*
X30193Y-19320D01*
X30240Y-19259D01*
X29618Y-18637D01*
X29548Y-18708D01*
X29548Y-18566D01*
X28926Y-17944D01*
X28806Y-18038D01*
X28666Y-18389D01*
X28671Y-18767D01*
X28806Y-19095D01*
X28926Y-19189D01*
X29548Y-18566D01*
X29548Y-18708D01*
X28996Y-19259D01*
X29044Y-19320D01*
X27546Y-19320D01*
X27705Y-19160D01*
X27865Y-18776D01*
X27865Y-18359D01*
X27723Y-18013D01*
X27727Y-18013D01*
X27882Y-17949D01*
X28001Y-17831D01*
X28065Y-17676D01*
X28065Y-17508D01*
X28060Y-17494D01*
X28061Y-17489D01*
X28065Y-17466D01*
X28065Y-17466D01*
X28065Y-17466D01*
X28065Y-16816D01*
X28126Y-16756D01*
X28190Y-16601D01*
X28190Y-16433D01*
X28126Y-16278D01*
X28008Y-16159D01*
X27853Y-16095D01*
X27685Y-16095D01*
X27530Y-16159D01*
X27411Y-16277D01*
X27347Y-16432D01*
X27346Y-16600D01*
X27411Y-16755D01*
X27472Y-16816D01*
X27472Y-17206D01*
X27405Y-17234D01*
X27286Y-17352D01*
X27222Y-17507D01*
X27222Y-17600D01*
X27183Y-17584D01*
X27183Y-14988D01*
X27240Y-14851D01*
X27240Y-14683D01*
X27176Y-14528D01*
X27058Y-14409D01*
X26903Y-14345D01*
X26735Y-14345D01*
X26719Y-14351D01*
X26719Y-14301D01*
X27499Y-13522D01*
X27499Y-13522D01*
X27499Y-13522D01*
X28053Y-12967D01*
X28072Y-12967D01*
X28104Y-12999D01*
X28259Y-13063D01*
X28427Y-13063D01*
X28582Y-12999D01*
X28701Y-12881D01*
X28765Y-12726D01*
X28765Y-12558D01*
X28701Y-12403D01*
X28583Y-12284D01*
X28428Y-12220D01*
X28260Y-12220D01*
X28105Y-12284D01*
X28072Y-12316D01*
X27918Y-12316D01*
X27794Y-12341D01*
X27688Y-12411D01*
X27038Y-13061D01*
X27038Y-13061D01*
X26163Y-13936D01*
X26093Y-14042D01*
X26068Y-14166D01*
X26068Y-14486D01*
X26028Y-14470D01*
X25860Y-14470D01*
X25705Y-14534D01*
X25586Y-14652D01*
X25522Y-14807D01*
X25522Y-14886D01*
X25518Y-14892D01*
X25493Y-15016D01*
X25493Y-15607D01*
X25054Y-16045D01*
X25116Y-15895D01*
X25117Y-15680D01*
X25034Y-15480D01*
X24939Y-15385D01*
X24939Y-14988D01*
X24911Y-14848D01*
X24911Y-14848D01*
X24832Y-14730D01*
X24822Y-14719D01*
X25002Y-14719D01*
X25093Y-14682D01*
X25163Y-14612D01*
X25200Y-14522D01*
X25200Y-14423D01*
X25200Y-14073D01*
X25163Y-13983D01*
X25103Y-13922D01*
X25163Y-13862D01*
X25200Y-13772D01*
X25200Y-13673D01*
X25200Y-13323D01*
X25163Y-13233D01*
X25094Y-13163D01*
X25044Y-13142D01*
X25044Y-11804D01*
X25138Y-11710D01*
X25221Y-11511D01*
X25221Y-11295D01*
X25138Y-11096D01*
X25037Y-10994D01*
X27834Y-10994D01*
X27974Y-10967D01*
X27974Y-10967D01*
X28092Y-10887D01*
X28662Y-10317D01*
X29243Y-10317D01*
X29338Y-10412D01*
X29537Y-10494D01*
X29753Y-10494D01*
X29952Y-10412D01*
X30047Y-10317D01*
X30354Y-10317D01*
X30342Y-10329D01*
X30304Y-10419D01*
X30304Y-10517D01*
X30304Y-10777D01*
X29671Y-11410D01*
X29538Y-11410D01*
X29338Y-11492D01*
X29186Y-11645D01*
X29103Y-11844D01*
X29103Y-12060D01*
X29185Y-12259D01*
X29338Y-12412D01*
X29537Y-12494D01*
X29753Y-12494D01*
X29952Y-12412D01*
X30104Y-12260D01*
X30187Y-12061D01*
X30187Y-11926D01*
X30848Y-11265D01*
X30951Y-11265D01*
X31732Y-12046D01*
X31803Y-12220D01*
X31956Y-12372D01*
X32155Y-12455D01*
X32371Y-12455D01*
X32570Y-12373D01*
X32723Y-12220D01*
X32805Y-12021D01*
X32805Y-11806D01*
X32723Y-11606D01*
X32571Y-11454D01*
X32372Y-11371D01*
X32156Y-11371D01*
X32108Y-11390D01*
X31348Y-10630D01*
X31348Y-10420D01*
X31311Y-10329D01*
X31299Y-10317D01*
X31901Y-10317D01*
X31956Y-10372D01*
X32155Y-10455D01*
X32371Y-10455D01*
X32570Y-10373D01*
X32723Y-10220D01*
X32805Y-10021D01*
X32805Y-9806D01*
X32723Y-9606D01*
X32571Y-9454D01*
X32372Y-9371D01*
X32156Y-9371D01*
X31957Y-9453D01*
X31822Y-9587D01*
X30909Y-9587D01*
X30909Y-7426D01*
X30909Y-6786D01*
X30909Y-6726D01*
X30886Y-6671D01*
X30844Y-6629D01*
X30789Y-6606D01*
X30496Y-6606D01*
X30459Y-6643D01*
X30459Y-7056D01*
X30871Y-7056D01*
X30909Y-7018D01*
X30909Y-6786D01*
X30909Y-7426D01*
X30909Y-7193D01*
X30871Y-7156D01*
X30459Y-7156D01*
X30459Y-7568D01*
X30496Y-7606D01*
X30789Y-7606D01*
X30844Y-7583D01*
X30886Y-7541D01*
X30909Y-7486D01*
X30909Y-7426D01*
X30909Y-9587D01*
X30359Y-9587D01*
X30359Y-7568D01*
X30359Y-7156D01*
X30359Y-7056D01*
X30359Y-6643D01*
X30321Y-6606D01*
X30029Y-6606D01*
X29974Y-6629D01*
X29932Y-6671D01*
X29909Y-6726D01*
X29909Y-6786D01*
X29909Y-7018D01*
X29946Y-7056D01*
X30359Y-7056D01*
X30359Y-7156D01*
X29946Y-7156D01*
X29909Y-7193D01*
X29909Y-7426D01*
X29909Y-7486D01*
X29932Y-7541D01*
X29974Y-7583D01*
X30029Y-7606D01*
X30321Y-7606D01*
X30359Y-7568D01*
X30359Y-9587D01*
X30047Y-9587D01*
X29953Y-9493D01*
X29753Y-9410D01*
X29538Y-9410D01*
X29338Y-9492D01*
X29243Y-9587D01*
X28511Y-9587D01*
X28372Y-9615D01*
X28253Y-9694D01*
X27683Y-10264D01*
X25678Y-10264D01*
X25807Y-10135D01*
X25890Y-9936D01*
X25890Y-9720D01*
X25808Y-9521D01*
X25665Y-9378D01*
X25649Y-9297D01*
X25649Y-9297D01*
X25625Y-9262D01*
X25578Y-9191D01*
X25578Y-9191D01*
X25304Y-8918D01*
X25304Y-8632D01*
X25267Y-8542D01*
X25208Y-8483D01*
X25208Y-8405D01*
X25183Y-8281D01*
X25113Y-8175D01*
X24274Y-7336D01*
X24251Y-7313D01*
X24251Y-7313D01*
X24251Y-7313D01*
X25360Y-7313D01*
X25411Y-7364D01*
X25529Y-7443D01*
X25529Y-7443D01*
X25669Y-7471D01*
X27930Y-7471D01*
X28070Y-7611D01*
X28290Y-7703D01*
X28527Y-7703D01*
X28747Y-7612D01*
X28915Y-7444D01*
X29006Y-7225D01*
X29006Y-6988D01*
X28915Y-6768D01*
X28747Y-6600D01*
X28528Y-6509D01*
X28291Y-6509D01*
X28071Y-6600D01*
X27930Y-6741D01*
X26887Y-6741D01*
X26887Y-6454D01*
X26874Y-6277D01*
X26831Y-6172D01*
X26764Y-6140D01*
X26694Y-6211D01*
X26694Y-6069D01*
X26661Y-6003D01*
X26493Y-5947D01*
X26317Y-5959D01*
X26212Y-6003D01*
X26179Y-6069D01*
X26437Y-6326D01*
X26694Y-6069D01*
X26694Y-6211D01*
X26507Y-6397D01*
X26764Y-6654D01*
X26831Y-6622D01*
X26887Y-6454D01*
X26887Y-6741D01*
X26686Y-6741D01*
X26694Y-6725D01*
X26437Y-6468D01*
X26366Y-6539D01*
X26366Y-6397D01*
X26109Y-6140D01*
X26042Y-6172D01*
X25986Y-6340D01*
X25999Y-6517D01*
X26042Y-6622D01*
X26109Y-6654D01*
X26366Y-6397D01*
X26366Y-6539D01*
X26179Y-6725D01*
X26187Y-6741D01*
X25820Y-6741D01*
X25769Y-6690D01*
X25651Y-6611D01*
X25511Y-6583D01*
X24978Y-6583D01*
X25010Y-6505D01*
X25010Y-6290D01*
X24978Y-6211D01*
X25334Y-6211D01*
X25452Y-6211D01*
X25592Y-6183D01*
X25592Y-6183D01*
X25710Y-6104D01*
X27080Y-4735D01*
X27275Y-4735D01*
X27369Y-4829D01*
X27568Y-4912D01*
X27784Y-4912D01*
X27983Y-4829D01*
X28136Y-4677D01*
X28219Y-4478D01*
X28219Y-4262D01*
X28137Y-4063D01*
X27984Y-3910D01*
X27785Y-3828D01*
X27569Y-3827D01*
X27370Y-3910D01*
X27275Y-4005D01*
X26929Y-4005D01*
X26789Y-4032D01*
X26671Y-4112D01*
X26671Y-4112D01*
X26671Y-4112D01*
X26634Y-4148D01*
X26634Y-3455D01*
X30017Y-3455D01*
X30017Y-3489D01*
X30054Y-3580D01*
X30124Y-3649D01*
X30214Y-3687D01*
X30313Y-3687D01*
X31013Y-3687D01*
X31103Y-3649D01*
X31173Y-3580D01*
X31210Y-3489D01*
X31211Y-3391D01*
X31211Y-2691D01*
X31173Y-2600D01*
X31104Y-2531D01*
X31013Y-2493D01*
X30915Y-2493D01*
X30215Y-2493D01*
X30124Y-2531D01*
X30055Y-2600D01*
X30017Y-2691D01*
X30017Y-2725D01*
X28119Y-2725D01*
X28136Y-2709D01*
X28219Y-2509D01*
X28219Y-2294D01*
X28137Y-2094D01*
X27984Y-1942D01*
X27785Y-1859D01*
X27569Y-1859D01*
X27370Y-1941D01*
X27275Y-2036D01*
X26922Y-2036D01*
X26185Y-1299D01*
X26067Y-1220D01*
X25927Y-1192D01*
X25382Y-1192D01*
X25305Y-1115D01*
X25114Y-1035D01*
X24906Y-1035D01*
X24714Y-1114D01*
X24636Y-1192D01*
X24549Y-1192D01*
X24549Y-1192D01*
X24410Y-1220D01*
X24291Y-1299D01*
X24291Y-1299D01*
X24291Y-1299D01*
X23889Y-1701D01*
X23810Y-1819D01*
X23799Y-1876D01*
X23795Y-1875D01*
X23735Y-1875D01*
X23697Y-1912D01*
X23697Y-2250D01*
X23705Y-2250D01*
X23705Y-2350D01*
X23697Y-2350D01*
X23697Y-2688D01*
X23735Y-2726D01*
X23795Y-2726D01*
X23820Y-2716D01*
X23889Y-2785D01*
X23980Y-2823D01*
X24078Y-2823D01*
X24314Y-2823D01*
X24405Y-2785D01*
X24474Y-2716D01*
X24512Y-2625D01*
X24512Y-2527D01*
X24512Y-2301D01*
X24512Y-2300D01*
X24512Y-2190D01*
X24547Y-2155D01*
X24609Y-2062D01*
X24609Y-2072D01*
X24609Y-2229D01*
X24647Y-2267D01*
X24884Y-2267D01*
X24884Y-2259D01*
X24984Y-2259D01*
X24984Y-2267D01*
X25222Y-2267D01*
X25259Y-2229D01*
X25259Y-2072D01*
X25259Y-2018D01*
X25262Y-2017D01*
X25262Y-2091D01*
X25262Y-2641D01*
X25265Y-2647D01*
X25255Y-2657D01*
X25245Y-2657D01*
X25259Y-2622D01*
X25259Y-2562D01*
X25259Y-2404D01*
X25222Y-2367D01*
X24984Y-2367D01*
X24984Y-2704D01*
X25019Y-2739D01*
X25019Y-2932D01*
X25027Y-2932D01*
X25027Y-3032D01*
X25019Y-3032D01*
X25019Y-3269D01*
X25057Y-3307D01*
X25215Y-3307D01*
X25255Y-3307D01*
X25258Y-3310D01*
X25195Y-3310D01*
X24919Y-3310D01*
X24919Y-3269D01*
X24919Y-3032D01*
X24919Y-2932D01*
X24919Y-2694D01*
X24884Y-2659D01*
X24884Y-2367D01*
X24647Y-2367D01*
X24609Y-2404D01*
X24609Y-2562D01*
X24609Y-2622D01*
X24630Y-2671D01*
X24609Y-2680D01*
X24567Y-2722D01*
X24544Y-2777D01*
X24544Y-2894D01*
X24582Y-2932D01*
X24919Y-2932D01*
X24919Y-3032D01*
X24582Y-3032D01*
X24544Y-3069D01*
X24544Y-3187D01*
X24567Y-3242D01*
X24609Y-3284D01*
X24664Y-3307D01*
X24724Y-3307D01*
X24882Y-3307D01*
X24919Y-3269D01*
X24919Y-3310D01*
X24645Y-3310D01*
X24555Y-3348D01*
X24535Y-3367D01*
X23597Y-3367D01*
X23597Y-2688D01*
X23597Y-2350D01*
X23589Y-2350D01*
X23589Y-2250D01*
X23597Y-2250D01*
X23597Y-1912D01*
X23560Y-1875D01*
X23520Y-1875D01*
X23525Y-1864D01*
X23525Y-1765D01*
X23525Y-1215D01*
X23487Y-1125D01*
X23418Y-1055D01*
X23327Y-1018D01*
X23229Y-1017D01*
X22879Y-1017D01*
X22788Y-1055D01*
X22719Y-1124D01*
X22681Y-1215D01*
X22681Y-1313D01*
X22681Y-1863D01*
X22686Y-1875D01*
X22678Y-1875D01*
X22665Y-1875D01*
X22678Y-1844D01*
X22678Y-1785D01*
X22678Y-1294D01*
X22678Y-1234D01*
X22655Y-1179D01*
X22613Y-1137D01*
X22558Y-1114D01*
X22440Y-1114D01*
X22403Y-1152D01*
X22403Y-1489D01*
X22640Y-1489D01*
X22678Y-1452D01*
X22678Y-1294D01*
X22678Y-1785D01*
X22678Y-1627D01*
X22640Y-1589D01*
X22403Y-1589D01*
X22403Y-1927D01*
X22409Y-1933D01*
X22402Y-1940D01*
X22379Y-1995D01*
X22379Y-2055D01*
X22379Y-2213D01*
X22417Y-2250D01*
X22597Y-2250D01*
X22597Y-2242D01*
X22678Y-2242D01*
X22697Y-2242D01*
X22697Y-2250D01*
X22705Y-2250D01*
X22705Y-2350D01*
X22697Y-2350D01*
X22697Y-2688D01*
X22735Y-2726D01*
X22795Y-2726D01*
X22820Y-2716D01*
X22889Y-2785D01*
X22980Y-2823D01*
X23078Y-2823D01*
X23314Y-2823D01*
X23405Y-2785D01*
X23474Y-2716D01*
X23474Y-2716D01*
X23499Y-2726D01*
X23560Y-2726D01*
X23597Y-2688D01*
X23597Y-3367D01*
X22814Y-3367D01*
X22678Y-3394D01*
X22675Y-3395D01*
X22597Y-3447D01*
X22597Y-2688D01*
X22597Y-2350D01*
X22417Y-2350D01*
X22379Y-2388D01*
X22379Y-2546D01*
X22379Y-2606D01*
X22402Y-2661D01*
X22444Y-2703D01*
X22499Y-2726D01*
X22560Y-2726D01*
X22597Y-2688D01*
X22597Y-3447D01*
X22556Y-3474D01*
X22389Y-3641D01*
X22344Y-3708D01*
X22344Y-3501D01*
X22307Y-3411D01*
X22303Y-3407D01*
X22303Y-1927D01*
X22303Y-1589D01*
X22303Y-1489D01*
X22303Y-1152D01*
X22265Y-1114D01*
X22148Y-1114D01*
X22093Y-1137D01*
X22051Y-1179D01*
X22028Y-1234D01*
X22028Y-1294D01*
X22028Y-1452D01*
X22065Y-1489D01*
X22303Y-1489D01*
X22303Y-1589D01*
X22065Y-1589D01*
X22028Y-1627D01*
X22028Y-1785D01*
X22028Y-1844D01*
X22051Y-1899D01*
X22093Y-1942D01*
X22148Y-1964D01*
X22265Y-1964D01*
X22303Y-1927D01*
X22303Y-3407D01*
X22247Y-3351D01*
X22247Y-3180D01*
X22247Y-2771D01*
X22225Y-2716D01*
X22182Y-2673D01*
X22127Y-2650D01*
X22068Y-2650D01*
X21910Y-2650D01*
X21872Y-2688D01*
X21872Y-2925D01*
X22210Y-2925D01*
X22247Y-2888D01*
X22247Y-2771D01*
X22247Y-3180D01*
X22247Y-3063D01*
X22210Y-3025D01*
X21872Y-3025D01*
X21872Y-3263D01*
X21910Y-3300D01*
X22068Y-3300D01*
X22127Y-3300D01*
X22182Y-3277D01*
X22225Y-3235D01*
X22247Y-3180D01*
X22247Y-3351D01*
X22237Y-3341D01*
X22147Y-3304D01*
X22048Y-3303D01*
X21772Y-3303D01*
X21772Y-3263D01*
X21772Y-3025D01*
X21772Y-2925D01*
X21772Y-2688D01*
X21735Y-2650D01*
X21577Y-2650D01*
X21517Y-2650D01*
X21462Y-2673D01*
X21420Y-2716D01*
X21397Y-2771D01*
X21397Y-2888D01*
X21435Y-2925D01*
X21772Y-2925D01*
X21772Y-3025D01*
X21435Y-3025D01*
X21397Y-3063D01*
X21397Y-3180D01*
X21420Y-3235D01*
X21462Y-3277D01*
X21517Y-3300D01*
X21577Y-3300D01*
X21735Y-3300D01*
X21772Y-3263D01*
X21772Y-3303D01*
X21498Y-3303D01*
X21408Y-3341D01*
X21338Y-3410D01*
X21301Y-3501D01*
X21300Y-3599D01*
X21300Y-3652D01*
X20866Y-3652D01*
X20851Y-3652D01*
X20851Y-1344D01*
X20846Y-966D01*
X20710Y-638D01*
X20591Y-544D01*
X19969Y-1166D01*
X20591Y-1789D01*
X20710Y-1695D01*
X20851Y-1344D01*
X20851Y-3652D01*
X20789Y-3652D01*
X20520Y-3652D01*
X20520Y-1859D01*
X19898Y-1237D01*
X19828Y-1308D01*
X19828Y-1166D01*
X19206Y-544D01*
X19086Y-638D01*
X18946Y-989D01*
X18951Y-1367D01*
X19086Y-1695D01*
X19206Y-1789D01*
X19828Y-1166D01*
X19828Y-1308D01*
X19276Y-1859D01*
X19370Y-1978D01*
X19721Y-2119D01*
X20099Y-2114D01*
X20427Y-1978D01*
X20520Y-1859D01*
X20520Y-3652D01*
X18029Y-3652D01*
X17890Y-3680D01*
X17771Y-3759D01*
X17771Y-3759D01*
X17771Y-3759D01*
X16104Y-5426D01*
X16100Y-5426D01*
X16100Y-4923D01*
X16063Y-4832D01*
X15993Y-4762D01*
X15989Y-4761D01*
X16013Y-4751D01*
X16083Y-4681D01*
X16120Y-4591D01*
X16120Y-4493D01*
X16120Y-3943D01*
X16083Y-3852D01*
X16013Y-3782D01*
X15923Y-3745D01*
X15825Y-3745D01*
X15275Y-3745D01*
X15184Y-3782D01*
X15114Y-3851D01*
X15077Y-3942D01*
X15077Y-4040D01*
X15077Y-4381D01*
X14395Y-4381D01*
X14395Y-4348D01*
X14358Y-4257D01*
X14288Y-4187D01*
X14202Y-4151D01*
X14378Y-4151D01*
X14518Y-4124D01*
X14518Y-4124D01*
X14636Y-4044D01*
X15496Y-3184D01*
X15576Y-3066D01*
X15576Y-3066D01*
X15603Y-2926D01*
X15603Y-1918D01*
X15938Y-1583D01*
X16010Y-1759D01*
X16305Y-2053D01*
X16689Y-2213D01*
X17106Y-2213D01*
X17491Y-2054D01*
X17785Y-1760D01*
X17945Y-1376D01*
X17945Y-959D01*
X17786Y-574D01*
X17492Y-279D01*
X17460Y-266D01*
X19584Y-266D01*
X19370Y-354D01*
X19276Y-474D01*
X19898Y-1096D01*
X20520Y-474D01*
X20427Y-354D01*
X20205Y-266D01*
X32960Y-266D01*
X33296Y-602D01*
X32898Y-439D01*
X32447Y-441D01*
X32038Y-610D01*
X31922Y-749D01*
X32677Y-1504D01*
X32682Y-1498D01*
X32753Y-1569D01*
X32747Y-1574D01*
X33502Y-2329D01*
X33641Y-2213D01*
X33812Y-1795D01*
X33810Y-1344D01*
X33649Y-955D01*
X33985Y-1291D01*
X33985Y-10311D01*
X33985Y-10311D01*
G37*
G54D39*
X33985Y-10311D02*
X33968Y-10270D01*
X33899Y-10200D01*
X33808Y-10163D01*
X33710Y-10163D01*
X33432Y-10163D01*
X33432Y-2400D01*
X32677Y-1645D01*
X32606Y-1716D01*
X32606Y-1574D01*
X31851Y-819D01*
X31713Y-936D01*
X31542Y-1353D01*
X31543Y-1804D01*
X31713Y-2213D01*
X31851Y-2329D01*
X32606Y-1574D01*
X32606Y-1716D01*
X31922Y-2400D01*
X32038Y-2538D01*
X32348Y-2665D01*
X32317Y-2723D01*
X32614Y-3019D01*
X32910Y-2723D01*
X32902Y-2708D01*
X32907Y-2708D01*
X33315Y-2538D01*
X33432Y-2400D01*
X33432Y-10163D01*
X33160Y-10163D01*
X33119Y-10180D01*
X33119Y-3160D01*
X33107Y-2961D01*
X33054Y-2832D01*
X32981Y-2793D01*
X32684Y-3090D01*
X32981Y-3387D01*
X33054Y-3348D01*
X33119Y-3160D01*
X33119Y-10180D01*
X33069Y-10200D01*
X33000Y-10270D01*
X32962Y-10360D01*
X32962Y-10458D01*
X32962Y-11008D01*
X32999Y-11099D01*
X33069Y-11169D01*
X33159Y-11206D01*
X33258Y-11206D01*
X33490Y-11206D01*
X33690Y-11407D01*
X33690Y-13205D01*
X33588Y-13163D01*
X33380Y-13163D01*
X33189Y-13242D01*
X33042Y-13389D01*
X32962Y-13580D01*
X32962Y-13788D01*
X33041Y-13980D01*
X33188Y-14127D01*
X33379Y-14206D01*
X33587Y-14206D01*
X33690Y-14164D01*
X33690Y-18186D01*
X33583Y-17928D01*
X33444Y-17811D01*
X33373Y-17882D01*
X33373Y-17741D01*
X33257Y-17602D01*
X32910Y-17460D01*
X32910Y-3457D01*
X32614Y-3161D01*
X32543Y-3231D01*
X32543Y-3090D01*
X32246Y-2793D01*
X32174Y-2832D01*
X32109Y-3020D01*
X32120Y-3219D01*
X32174Y-3348D01*
X32246Y-3387D01*
X32543Y-3090D01*
X32543Y-3231D01*
X32317Y-3457D01*
X32356Y-3530D01*
X32544Y-3595D01*
X32742Y-3583D01*
X32871Y-3530D01*
X32910Y-3457D01*
X32910Y-17460D01*
X32840Y-17431D01*
X32805Y-17431D01*
X32805Y-15806D01*
X32805Y-13806D01*
X32723Y-13606D01*
X32571Y-13454D01*
X32372Y-13371D01*
X32156Y-13371D01*
X31957Y-13453D01*
X31804Y-13605D01*
X31721Y-13805D01*
X31721Y-14020D01*
X31803Y-14220D01*
X31956Y-14372D01*
X32155Y-14455D01*
X32371Y-14455D01*
X32570Y-14373D01*
X32723Y-14220D01*
X32805Y-14021D01*
X32805Y-13806D01*
X32805Y-15806D01*
X32723Y-15606D01*
X32571Y-15454D01*
X32372Y-15371D01*
X32156Y-15371D01*
X31957Y-15453D01*
X31804Y-15605D01*
X31721Y-15805D01*
X31721Y-16020D01*
X31803Y-16220D01*
X31956Y-16372D01*
X32155Y-16455D01*
X32371Y-16455D01*
X32570Y-16373D01*
X32723Y-16220D01*
X32805Y-16021D01*
X32805Y-15806D01*
X32805Y-17431D01*
X32388Y-17433D01*
X31980Y-17602D01*
X31863Y-17741D01*
X32618Y-18496D01*
X33373Y-17741D01*
X33373Y-17882D01*
X32689Y-18566D01*
X32695Y-18572D01*
X32624Y-18643D01*
X32618Y-18637D01*
X32548Y-18708D01*
X32548Y-18566D01*
X31793Y-17811D01*
X31654Y-17928D01*
X31483Y-18345D01*
X31485Y-18797D01*
X31654Y-19205D01*
X31793Y-19322D01*
X32548Y-18566D01*
X32548Y-18708D01*
X31863Y-19392D01*
X31968Y-19516D01*
X31844Y-19516D01*
X31754Y-19426D01*
X31635Y-19347D01*
X31496Y-19320D01*
X31348Y-19320D01*
X31348Y-13640D01*
X31269Y-13448D01*
X31122Y-13301D01*
X30931Y-13222D01*
X30723Y-13222D01*
X30531Y-13301D01*
X30384Y-13448D01*
X30305Y-13639D01*
X30304Y-13847D01*
X30384Y-14039D01*
X30530Y-14186D01*
X30722Y-14265D01*
X30930Y-14266D01*
X31121Y-14186D01*
X31268Y-14040D01*
X31348Y-13848D01*
X31348Y-13640D01*
X31348Y-19320D01*
X30665Y-19320D01*
X30665Y-16458D01*
X30601Y-16303D01*
X30483Y-16184D01*
X30328Y-16120D01*
X30163Y-16120D01*
X30187Y-16061D01*
X30187Y-15845D01*
X30187Y-13845D01*
X30105Y-13646D01*
X29953Y-13493D01*
X29753Y-13410D01*
X29538Y-13410D01*
X29338Y-13492D01*
X29186Y-13645D01*
X29103Y-13844D01*
X29103Y-14060D01*
X29185Y-14259D01*
X29338Y-14412D01*
X29537Y-14494D01*
X29753Y-14494D01*
X29952Y-14412D01*
X30104Y-14260D01*
X30187Y-14061D01*
X30187Y-13845D01*
X30187Y-15845D01*
X30105Y-15646D01*
X29953Y-15493D01*
X29753Y-15410D01*
X29538Y-15410D01*
X29338Y-15492D01*
X29186Y-15645D01*
X29103Y-15844D01*
X29103Y-16060D01*
X29185Y-16259D01*
X29338Y-16412D01*
X29537Y-16494D01*
X29753Y-16494D01*
X29822Y-16466D01*
X29821Y-16625D01*
X29886Y-16780D01*
X29922Y-16816D01*
X29922Y-17042D01*
X29861Y-17102D01*
X29797Y-17257D01*
X29796Y-17425D01*
X29861Y-17580D01*
X29960Y-17680D01*
X29796Y-17614D01*
X29418Y-17619D01*
X29090Y-17754D01*
X28996Y-17874D01*
X29618Y-18496D01*
X30240Y-17874D01*
X30153Y-17763D01*
X30302Y-17763D01*
X30457Y-17699D01*
X30576Y-17581D01*
X30640Y-17426D01*
X30640Y-17258D01*
X30576Y-17103D01*
X30515Y-17042D01*
X30515Y-16866D01*
X30601Y-16781D01*
X30665Y-16626D01*
X30665Y-16458D01*
X30665Y-19320D01*
X30571Y-19320D01*
X30571Y-18744D01*
X30566Y-18366D01*
X30430Y-18038D01*
X30311Y-17944D01*
X29689Y-18566D01*
X30311Y-19189D01*
X30430Y-19095D01*
X30571Y-18744D01*
X30571Y-19320D01*
X30193Y-19320D01*
X30240Y-19259D01*
X29618Y-18637D01*
X29548Y-18708D01*
X29548Y-18566D01*
X28926Y-17944D01*
X28806Y-18038D01*
X28666Y-18389D01*
X28671Y-18767D01*
X28806Y-19095D01*
X28926Y-19189D01*
X29548Y-18566D01*
X29548Y-18708D01*
X28996Y-19259D01*
X29044Y-19320D01*
X27546Y-19320D01*
X27705Y-19160D01*
X27865Y-18776D01*
X27865Y-18359D01*
X27723Y-18013D01*
X27727Y-18013D01*
X27882Y-17949D01*
X28001Y-17831D01*
X28065Y-17676D01*
X28065Y-17508D01*
X28060Y-17494D01*
X28061Y-17489D01*
X28065Y-17466D01*
X28065Y-17466D01*
X28065Y-17466D01*
X28065Y-16816D01*
X28126Y-16756D01*
X28190Y-16601D01*
X28190Y-16433D01*
X28126Y-16278D01*
X28008Y-16159D01*
X27853Y-16095D01*
X27685Y-16095D01*
X27530Y-16159D01*
X27411Y-16277D01*
X27347Y-16432D01*
X27346Y-16600D01*
X27411Y-16755D01*
X27472Y-16816D01*
X27472Y-17206D01*
X27405Y-17234D01*
X27286Y-17352D01*
X27222Y-17507D01*
X27222Y-17600D01*
X27183Y-17584D01*
X27183Y-14988D01*
X27240Y-14851D01*
X27240Y-14683D01*
X27176Y-14528D01*
X27058Y-14409D01*
X26903Y-14345D01*
X26735Y-14345D01*
X26719Y-14351D01*
X26719Y-14301D01*
X27499Y-13522D01*
X27499Y-13522D01*
X27499Y-13522D01*
X28053Y-12967D01*
X28072Y-12967D01*
X28104Y-12999D01*
X28259Y-13063D01*
X28427Y-13063D01*
X28582Y-12999D01*
X28701Y-12881D01*
X28765Y-12726D01*
X28765Y-12558D01*
X28701Y-12403D01*
X28583Y-12284D01*
X28428Y-12220D01*
X28260Y-12220D01*
X28105Y-12284D01*
X28072Y-12316D01*
X27918Y-12316D01*
X27794Y-12341D01*
X27688Y-12411D01*
X27038Y-13061D01*
X27038Y-13061D01*
X26163Y-13936D01*
X26093Y-14042D01*
X26068Y-14166D01*
X26068Y-14486D01*
X26028Y-14470D01*
X25860Y-14470D01*
X25705Y-14534D01*
X25586Y-14652D01*
X25522Y-14807D01*
X25522Y-14886D01*
X25518Y-14892D01*
X25493Y-15016D01*
X25493Y-15607D01*
X25054Y-16045D01*
X25116Y-15895D01*
X25117Y-15680D01*
X25034Y-15480D01*
X24939Y-15385D01*
X24939Y-14988D01*
X24911Y-14848D01*
X24911Y-14848D01*
X24832Y-14730D01*
X24822Y-14719D01*
X25002Y-14719D01*
X25093Y-14682D01*
X25163Y-14612D01*
X25200Y-14522D01*
X25200Y-14423D01*
X25200Y-14073D01*
X25163Y-13983D01*
X25103Y-13922D01*
X25163Y-13862D01*
X25200Y-13772D01*
X25200Y-13673D01*
X25200Y-13323D01*
X25163Y-13233D01*
X25094Y-13163D01*
X25044Y-13142D01*
X25044Y-11804D01*
X25138Y-11710D01*
X25221Y-11511D01*
X25221Y-11295D01*
X25138Y-11096D01*
X25037Y-10994D01*
X27834Y-10994D01*
X27974Y-10967D01*
X27974Y-10967D01*
X28092Y-10887D01*
X28662Y-10317D01*
X29243Y-10317D01*
X29338Y-10412D01*
X29537Y-10494D01*
X29753Y-10494D01*
X29952Y-10412D01*
X30047Y-10317D01*
X30354Y-10317D01*
X30342Y-10329D01*
X30304Y-10419D01*
X30304Y-10517D01*
X30304Y-10777D01*
X29671Y-11410D01*
X29538Y-11410D01*
X29338Y-11492D01*
X29186Y-11645D01*
X29103Y-11844D01*
X29103Y-12060D01*
X29185Y-12259D01*
X29338Y-12412D01*
X29537Y-12494D01*
X29753Y-12494D01*
X29952Y-12412D01*
X30104Y-12260D01*
X30187Y-12061D01*
X30187Y-11926D01*
X30848Y-11265D01*
X30951Y-11265D01*
X31732Y-12046D01*
X31803Y-12220D01*
X31956Y-12372D01*
X32155Y-12455D01*
X32371Y-12455D01*
X32570Y-12373D01*
X32723Y-12220D01*
X32805Y-12021D01*
X32805Y-11806D01*
X32723Y-11606D01*
X32571Y-11454D01*
X32372Y-11371D01*
X32156Y-11371D01*
X32108Y-11390D01*
X31348Y-10630D01*
X31348Y-10420D01*
X31311Y-10329D01*
X31299Y-10317D01*
X31901Y-10317D01*
X31956Y-10372D01*
X32155Y-10455D01*
X32371Y-10455D01*
X32570Y-10373D01*
X32723Y-10220D01*
X32805Y-10021D01*
X32805Y-9806D01*
X32723Y-9606D01*
X32571Y-9454D01*
X32372Y-9371D01*
X32156Y-9371D01*
X31957Y-9453D01*
X31822Y-9587D01*
X30909Y-9587D01*
X30909Y-7426D01*
X30909Y-6786D01*
X30909Y-6726D01*
X30886Y-6671D01*
X30844Y-6629D01*
X30789Y-6606D01*
X30496Y-6606D01*
X30459Y-6643D01*
X30459Y-7056D01*
X30871Y-7056D01*
X30909Y-7018D01*
X30909Y-6786D01*
X30909Y-7426D01*
X30909Y-7193D01*
X30871Y-7156D01*
X30459Y-7156D01*
X30459Y-7568D01*
X30496Y-7606D01*
X30789Y-7606D01*
X30844Y-7583D01*
X30886Y-7541D01*
X30909Y-7486D01*
X30909Y-7426D01*
X30909Y-9587D01*
X30359Y-9587D01*
X30359Y-7568D01*
X30359Y-7156D01*
X30359Y-7056D01*
X30359Y-6643D01*
X30321Y-6606D01*
X30029Y-6606D01*
X29974Y-6629D01*
X29932Y-6671D01*
X29909Y-6726D01*
X29909Y-6786D01*
X29909Y-7018D01*
X29946Y-7056D01*
X30359Y-7056D01*
X30359Y-7156D01*
X29946Y-7156D01*
X29909Y-7193D01*
X29909Y-7426D01*
X29909Y-7486D01*
X29932Y-7541D01*
X29974Y-7583D01*
X30029Y-7606D01*
X30321Y-7606D01*
X30359Y-7568D01*
X30359Y-9587D01*
X30047Y-9587D01*
X29953Y-9493D01*
X29753Y-9410D01*
X29538Y-9410D01*
X29338Y-9492D01*
X29243Y-9587D01*
X28511Y-9587D01*
X28372Y-9615D01*
X28253Y-9694D01*
X27683Y-10264D01*
X25678Y-10264D01*
X25807Y-10135D01*
X25890Y-9936D01*
X25890Y-9720D01*
X25808Y-9521D01*
X25665Y-9378D01*
X25649Y-9297D01*
X25649Y-9297D01*
X25625Y-9262D01*
X25578Y-9191D01*
X25578Y-9191D01*
X25304Y-8918D01*
X25304Y-8632D01*
X25267Y-8542D01*
X25208Y-8483D01*
X25208Y-8405D01*
X25183Y-8281D01*
X25113Y-8175D01*
X24274Y-7336D01*
X24251Y-7313D01*
X24251Y-7313D01*
X24251Y-7313D01*
X25360Y-7313D01*
X25411Y-7364D01*
X25529Y-7443D01*
X25529Y-7443D01*
X25669Y-7471D01*
X27930Y-7471D01*
X28070Y-7611D01*
X28290Y-7703D01*
X28527Y-7703D01*
X28747Y-7612D01*
X28915Y-7444D01*
X29006Y-7225D01*
X29006Y-6988D01*
X28915Y-6768D01*
X28747Y-6600D01*
X28528Y-6509D01*
X28291Y-6509D01*
X28071Y-6600D01*
X27930Y-6741D01*
X26887Y-6741D01*
X26887Y-6454D01*
X26874Y-6277D01*
X26831Y-6172D01*
X26764Y-6140D01*
X26694Y-6211D01*
X26694Y-6069D01*
X26661Y-6003D01*
X26493Y-5947D01*
X26317Y-5959D01*
X26212Y-6003D01*
X26179Y-6069D01*
X26437Y-6326D01*
X26694Y-6069D01*
X26694Y-6211D01*
X26507Y-6397D01*
X26764Y-6654D01*
X26831Y-6622D01*
X26887Y-6454D01*
X26887Y-6741D01*
X26686Y-6741D01*
X26694Y-6725D01*
X26437Y-6468D01*
X26366Y-6539D01*
X26366Y-6397D01*
X26109Y-6140D01*
X26042Y-6172D01*
X25986Y-6340D01*
X25999Y-6517D01*
X26042Y-6622D01*
X26109Y-6654D01*
X26366Y-6397D01*
X26366Y-6539D01*
X26179Y-6725D01*
X26187Y-6741D01*
X25820Y-6741D01*
X25769Y-6690D01*
X25651Y-6611D01*
X25511Y-6583D01*
X24978Y-6583D01*
X25010Y-6505D01*
X25010Y-6290D01*
X24978Y-6211D01*
X25334Y-6211D01*
X25452Y-6211D01*
X25592Y-6183D01*
X25592Y-6183D01*
X25710Y-6104D01*
X27080Y-4735D01*
X27275Y-4735D01*
X27369Y-4829D01*
X27568Y-4912D01*
X27784Y-4912D01*
X27983Y-4829D01*
X28136Y-4677D01*
X28219Y-4478D01*
X28219Y-4262D01*
X28137Y-4063D01*
X27984Y-3910D01*
X27785Y-3828D01*
X27569Y-3827D01*
X27370Y-3910D01*
X27275Y-4005D01*
X26929Y-4005D01*
X26789Y-4032D01*
X26671Y-4112D01*
X26671Y-4112D01*
X26671Y-4112D01*
X26634Y-4148D01*
X26634Y-3455D01*
X30017Y-3455D01*
X30017Y-3489D01*
X30054Y-3580D01*
X30124Y-3649D01*
X30214Y-3687D01*
X30313Y-3687D01*
X31013Y-3687D01*
X31103Y-3649D01*
X31173Y-3580D01*
X31210Y-3489D01*
X31211Y-3391D01*
X31211Y-2691D01*
X31173Y-2600D01*
X31104Y-2531D01*
X31013Y-2493D01*
X30915Y-2493D01*
X30215Y-2493D01*
X30124Y-2531D01*
X30055Y-2600D01*
X30017Y-2691D01*
X30017Y-2725D01*
X28119Y-2725D01*
X28136Y-2709D01*
X28219Y-2509D01*
X28219Y-2294D01*
X28137Y-2094D01*
X27984Y-1942D01*
X27785Y-1859D01*
X27569Y-1859D01*
X27370Y-1941D01*
X27275Y-2036D01*
X26922Y-2036D01*
X26185Y-1299D01*
X26067Y-1220D01*
X25927Y-1192D01*
X25382Y-1192D01*
X25305Y-1115D01*
X25114Y-1035D01*
X24906Y-1035D01*
X24714Y-1114D01*
X24636Y-1192D01*
X24549Y-1192D01*
X24549Y-1192D01*
X24410Y-1220D01*
X24291Y-1299D01*
X24291Y-1299D01*
X24291Y-1299D01*
X23889Y-1701D01*
X23810Y-1819D01*
X23799Y-1876D01*
X23795Y-1875D01*
X23735Y-1875D01*
X23697Y-1912D01*
X23697Y-2250D01*
X23705Y-2250D01*
X23705Y-2350D01*
X23697Y-2350D01*
X23697Y-2688D01*
X23735Y-2726D01*
X23795Y-2726D01*
X23820Y-2716D01*
X23889Y-2785D01*
X23980Y-2823D01*
X24078Y-2823D01*
X24314Y-2823D01*
X24405Y-2785D01*
X24474Y-2716D01*
X24512Y-2625D01*
X24512Y-2527D01*
X24512Y-2301D01*
X24512Y-2300D01*
X24512Y-2190D01*
X24547Y-2155D01*
X24609Y-2062D01*
X24609Y-2072D01*
X24609Y-2229D01*
X24647Y-2267D01*
X24884Y-2267D01*
X24884Y-2259D01*
X24984Y-2259D01*
X24984Y-2267D01*
X25222Y-2267D01*
X25259Y-2229D01*
X25259Y-2072D01*
X25259Y-2018D01*
X25262Y-2017D01*
X25262Y-2091D01*
X25262Y-2641D01*
X25265Y-2647D01*
X25255Y-2657D01*
X25245Y-2657D01*
X25259Y-2622D01*
X25259Y-2562D01*
X25259Y-2404D01*
X25222Y-2367D01*
X24984Y-2367D01*
X24984Y-2704D01*
X25019Y-2739D01*
X25019Y-2932D01*
X25027Y-2932D01*
X25027Y-3032D01*
X25019Y-3032D01*
X25019Y-3269D01*
X25057Y-3307D01*
X25215Y-3307D01*
X25255Y-3307D01*
X25258Y-3310D01*
X25195Y-3310D01*
X24919Y-3310D01*
X24919Y-3269D01*
X24919Y-3032D01*
X24919Y-2932D01*
X24919Y-2694D01*
X24884Y-2659D01*
X24884Y-2367D01*
X24647Y-2367D01*
X24609Y-2404D01*
X24609Y-2562D01*
X24609Y-2622D01*
X24630Y-2671D01*
X24609Y-2680D01*
X24567Y-2722D01*
X24544Y-2777D01*
X24544Y-2894D01*
X24582Y-2932D01*
X24919Y-2932D01*
X24919Y-3032D01*
X24582Y-3032D01*
X24544Y-3069D01*
X24544Y-3187D01*
X24567Y-3242D01*
X24609Y-3284D01*
X24664Y-3307D01*
X24724Y-3307D01*
X24882Y-3307D01*
X24919Y-3269D01*
X24919Y-3310D01*
X24645Y-3310D01*
X24555Y-3348D01*
X24535Y-3367D01*
X23597Y-3367D01*
X23597Y-2688D01*
X23597Y-2350D01*
X23589Y-2350D01*
X23589Y-2250D01*
X23597Y-2250D01*
X23597Y-1912D01*
X23560Y-1875D01*
X23520Y-1875D01*
X23525Y-1864D01*
X23525Y-1765D01*
X23525Y-1215D01*
X23487Y-1125D01*
X23418Y-1055D01*
X23327Y-1018D01*
X23229Y-1017D01*
X22879Y-1017D01*
X22788Y-1055D01*
X22719Y-1124D01*
X22681Y-1215D01*
X22681Y-1313D01*
X22681Y-1863D01*
X22686Y-1875D01*
X22678Y-1875D01*
X22665Y-1875D01*
X22678Y-1844D01*
X22678Y-1785D01*
X22678Y-1294D01*
X22678Y-1234D01*
X22655Y-1179D01*
X22613Y-1137D01*
X22558Y-1114D01*
X22440Y-1114D01*
X22403Y-1152D01*
X22403Y-1489D01*
X22640Y-1489D01*
X22678Y-1452D01*
X22678Y-1294D01*
X22678Y-1785D01*
X22678Y-1627D01*
X22640Y-1589D01*
X22403Y-1589D01*
X22403Y-1927D01*
X22409Y-1933D01*
X22402Y-1940D01*
X22379Y-1995D01*
X22379Y-2055D01*
X22379Y-2213D01*
X22417Y-2250D01*
X22597Y-2250D01*
X22597Y-2242D01*
X22678Y-2242D01*
X22697Y-2242D01*
X22697Y-2250D01*
X22705Y-2250D01*
X22705Y-2350D01*
X22697Y-2350D01*
X22697Y-2688D01*
X22735Y-2726D01*
X22795Y-2726D01*
X22820Y-2716D01*
X22889Y-2785D01*
X22980Y-2823D01*
X23078Y-2823D01*
X23314Y-2823D01*
X23405Y-2785D01*
X23474Y-2716D01*
X23474Y-2716D01*
X23499Y-2726D01*
X23560Y-2726D01*
X23597Y-2688D01*
X23597Y-3367D01*
X22814Y-3367D01*
X22678Y-3394D01*
X22675Y-3395D01*
X22597Y-3447D01*
X22597Y-2688D01*
X22597Y-2350D01*
X22417Y-2350D01*
X22379Y-2388D01*
X22379Y-2546D01*
X22379Y-2606D01*
X22402Y-2661D01*
X22444Y-2703D01*
X22499Y-2726D01*
X22560Y-2726D01*
X22597Y-2688D01*
X22597Y-3447D01*
X22556Y-3474D01*
X22389Y-3641D01*
X22344Y-3708D01*
X22344Y-3501D01*
X22307Y-3411D01*
X22303Y-3407D01*
X22303Y-1927D01*
X22303Y-1589D01*
X22303Y-1489D01*
X22303Y-1152D01*
X22265Y-1114D01*
X22148Y-1114D01*
X22093Y-1137D01*
X22051Y-1179D01*
X22028Y-1234D01*
X22028Y-1294D01*
X22028Y-1452D01*
X22065Y-1489D01*
X22303Y-1489D01*
X22303Y-1589D01*
X22065Y-1589D01*
X22028Y-1627D01*
X22028Y-1785D01*
X22028Y-1844D01*
X22051Y-1899D01*
X22093Y-1942D01*
X22148Y-1964D01*
X22265Y-1964D01*
X22303Y-1927D01*
X22303Y-3407D01*
X22247Y-3351D01*
X22247Y-3180D01*
X22247Y-2771D01*
X22225Y-2716D01*
X22182Y-2673D01*
X22127Y-2650D01*
X22068Y-2650D01*
X21910Y-2650D01*
X21872Y-2688D01*
X21872Y-2925D01*
X22210Y-2925D01*
X22247Y-2888D01*
X22247Y-2771D01*
X22247Y-3180D01*
X22247Y-3063D01*
X22210Y-3025D01*
X21872Y-3025D01*
X21872Y-3263D01*
X21910Y-3300D01*
X22068Y-3300D01*
X22127Y-3300D01*
X22182Y-3277D01*
X22225Y-3235D01*
X22247Y-3180D01*
X22247Y-3351D01*
X22237Y-3341D01*
X22147Y-3304D01*
X22048Y-3303D01*
X21772Y-3303D01*
X21772Y-3263D01*
X21772Y-3025D01*
X21772Y-2925D01*
X21772Y-2688D01*
X21735Y-2650D01*
X21577Y-2650D01*
X21517Y-2650D01*
X21462Y-2673D01*
X21420Y-2716D01*
X21397Y-2771D01*
X21397Y-2888D01*
X21435Y-2925D01*
X21772Y-2925D01*
X21772Y-3025D01*
X21435Y-3025D01*
X21397Y-3063D01*
X21397Y-3180D01*
X21420Y-3235D01*
X21462Y-3277D01*
X21517Y-3300D01*
X21577Y-3300D01*
X21735Y-3300D01*
X21772Y-3263D01*
X21772Y-3303D01*
X21498Y-3303D01*
X21408Y-3341D01*
X21338Y-3410D01*
X21301Y-3501D01*
X21300Y-3599D01*
X21300Y-3652D01*
X20866Y-3652D01*
X20851Y-3652D01*
X20851Y-1344D01*
X20846Y-966D01*
X20710Y-638D01*
X20591Y-544D01*
X19969Y-1166D01*
X20591Y-1789D01*
X20710Y-1695D01*
X20851Y-1344D01*
X20851Y-3652D01*
X20789Y-3652D01*
X20520Y-3652D01*
X20520Y-1859D01*
X19898Y-1237D01*
X19828Y-1308D01*
X19828Y-1166D01*
X19206Y-544D01*
X19086Y-638D01*
X18946Y-989D01*
X18951Y-1367D01*
X19086Y-1695D01*
X19206Y-1789D01*
X19828Y-1166D01*
X19828Y-1308D01*
X19276Y-1859D01*
X19370Y-1978D01*
X19721Y-2119D01*
X20099Y-2114D01*
X20427Y-1978D01*
X20520Y-1859D01*
X20520Y-3652D01*
X18029Y-3652D01*
X17890Y-3680D01*
X17771Y-3759D01*
X17771Y-3759D01*
X17771Y-3759D01*
X16104Y-5426D01*
X16100Y-5426D01*
X16100Y-4923D01*
X16063Y-4832D01*
X15993Y-4762D01*
X15989Y-4761D01*
X16013Y-4751D01*
X16083Y-4681D01*
X16120Y-4591D01*
X16120Y-4493D01*
X16120Y-3943D01*
X16083Y-3852D01*
X16013Y-3782D01*
X15923Y-3745D01*
X15825Y-3745D01*
X15275Y-3745D01*
X15184Y-3782D01*
X15114Y-3851D01*
X15077Y-3942D01*
X15077Y-4040D01*
X15077Y-4381D01*
X14395Y-4381D01*
X14395Y-4348D01*
X14358Y-4257D01*
X14288Y-4187D01*
X14202Y-4151D01*
X14378Y-4151D01*
X14518Y-4124D01*
X14518Y-4124D01*
X14636Y-4044D01*
X15496Y-3184D01*
X15576Y-3066D01*
X15576Y-3066D01*
X15603Y-2926D01*
X15603Y-1918D01*
X15938Y-1583D01*
X16010Y-1759D01*
X16305Y-2053D01*
X16689Y-2213D01*
X17106Y-2213D01*
X17491Y-2054D01*
X17785Y-1760D01*
X17945Y-1376D01*
X17945Y-959D01*
X17786Y-574D01*
X17492Y-279D01*
X17460Y-266D01*
X19584Y-266D01*
X19370Y-354D01*
X19276Y-474D01*
X19898Y-1096D01*
X20520Y-474D01*
X20427Y-354D01*
X20205Y-266D01*
X32960Y-266D01*
X33296Y-602D01*
X32898Y-439D01*
X32447Y-441D01*
X32038Y-610D01*
X31922Y-749D01*
X32677Y-1504D01*
X32682Y-1498D01*
X32753Y-1569D01*
X32747Y-1574D01*
X33502Y-2329D01*
X33641Y-2213D01*
X33812Y-1795D01*
X33810Y-1344D01*
X33649Y-955D01*
X33985Y-1291D01*
X33985Y-10311D01*
M02*
