G04 (created by PCBNEW (2013-07-07 BZR 4022)-stable) date Sun 21 Dec 2014 01:02:58 PM MSK*
%MOIN*%
G04 Gerber Fmt 3.4, Leading zero omitted, Abs format*
%FSLAX34Y34*%
G01*
G70*
G90*
G04 APERTURE LIST*
%ADD10C,0.00590551*%
%ADD11C,0.0047*%
%ADD12C,0.005*%
%ADD13C,0.0039*%
%ADD14C,0.012*%
%ADD15C,0.0051*%
%ADD16C,0.0075*%
%ADD17C,0.008*%
%ADD18C,0.006*%
%ADD19C,0.0043*%
%ADD20C,0.19685*%
%ADD21R,0.06X0.06*%
%ADD22C,0.06*%
%ADD23C,0.066*%
%ADD24R,0.036X0.036*%
%ADD25R,0.0551X0.0236*%
%ADD26R,0.0236X0.0551*%
%ADD27R,0.035X0.055*%
%ADD28R,0.055X0.035*%
%ADD29C,0.0590551*%
%ADD30R,0.055X0.055*%
%ADD31C,0.055*%
%ADD32R,0.07X0.07*%
%ADD33C,0.07*%
%ADD34C,0.16*%
G04 APERTURE END LIST*
G54D10*
G54D11*
X2138Y-17716D02*
X938Y-17716D01*
X938Y-17716D02*
X938Y-18016D01*
X938Y-18016D02*
X2138Y-18016D01*
X2138Y-18016D02*
X2138Y-17716D01*
G54D12*
X19672Y-13927D02*
X19672Y-15127D01*
X19672Y-15127D02*
X19972Y-15127D01*
X19972Y-15127D02*
X19972Y-13927D01*
X19972Y-13927D02*
X19672Y-13927D01*
X30263Y-14360D02*
X30263Y-15560D01*
X30263Y-15560D02*
X30563Y-15560D01*
X30563Y-15560D02*
X30563Y-14360D01*
X30563Y-14360D02*
X30263Y-14360D01*
X32940Y-14321D02*
X32940Y-15521D01*
X32940Y-15521D02*
X33240Y-15521D01*
X33240Y-15521D02*
X33240Y-14321D01*
X33240Y-14321D02*
X32940Y-14321D01*
X3158Y-11236D02*
X1958Y-11236D01*
X1958Y-11236D02*
X1958Y-11536D01*
X1958Y-11536D02*
X3158Y-11536D01*
X3158Y-11536D02*
X3158Y-11236D01*
X1778Y-12736D02*
X578Y-12736D01*
X578Y-12736D02*
X578Y-13036D01*
X578Y-13036D02*
X1778Y-13036D01*
X1778Y-13036D02*
X1778Y-12736D01*
X3198Y-15536D02*
X1998Y-15536D01*
X1998Y-15536D02*
X1998Y-15836D01*
X1998Y-15836D02*
X3198Y-15836D01*
X3198Y-15836D02*
X3198Y-15536D01*
X1778Y-16056D02*
X578Y-16056D01*
X578Y-16056D02*
X578Y-16356D01*
X578Y-16356D02*
X1778Y-16356D01*
X1778Y-16356D02*
X1778Y-16056D01*
X22243Y-11649D02*
X22293Y-11649D01*
X22293Y-11649D02*
X22293Y-13749D01*
X20793Y-13749D02*
X20793Y-11649D01*
X20793Y-11649D02*
X22243Y-11649D01*
X21343Y-11649D02*
X21343Y-11849D01*
X21343Y-11849D02*
X21743Y-11849D01*
X21743Y-11849D02*
X21743Y-11649D01*
X20793Y-13749D02*
X22293Y-13749D01*
X20028Y-8869D02*
X20028Y-8919D01*
X20028Y-8919D02*
X17928Y-8919D01*
X17928Y-7419D02*
X20028Y-7419D01*
X20028Y-7419D02*
X20028Y-8869D01*
X20028Y-7969D02*
X19828Y-7969D01*
X19828Y-7969D02*
X19828Y-8369D01*
X19828Y-8369D02*
X20028Y-8369D01*
X17928Y-7419D02*
X17928Y-8919D01*
X27415Y-12261D02*
X27465Y-12261D01*
X27465Y-12261D02*
X27465Y-14361D01*
X25965Y-14361D02*
X25965Y-12261D01*
X25965Y-12261D02*
X27415Y-12261D01*
X26515Y-12261D02*
X26515Y-12461D01*
X26515Y-12461D02*
X26915Y-12461D01*
X26915Y-12461D02*
X26915Y-12261D01*
X25965Y-14361D02*
X27465Y-14361D01*
X24582Y-3842D02*
X24582Y-3892D01*
X24582Y-3892D02*
X22482Y-3892D01*
X22482Y-2392D02*
X24582Y-2392D01*
X24582Y-2392D02*
X24582Y-3842D01*
X24582Y-2942D02*
X24382Y-2942D01*
X24382Y-2942D02*
X24382Y-3342D01*
X24382Y-3342D02*
X24582Y-3342D01*
X22482Y-2392D02*
X22482Y-3892D01*
G54D13*
X1878Y-15466D02*
G75*
G03X1878Y-15466I-50J0D01*
G74*
G01*
X1378Y-15466D02*
X1778Y-15466D01*
X1778Y-15466D02*
X1778Y-14866D01*
X1778Y-14866D02*
X1378Y-14866D01*
X978Y-14866D02*
X578Y-14866D01*
X578Y-14866D02*
X578Y-15466D01*
X578Y-15466D02*
X978Y-15466D01*
X19964Y-12324D02*
G75*
G03X19964Y-12324I-50J0D01*
G74*
G01*
X19914Y-12774D02*
X19914Y-12374D01*
X19914Y-12374D02*
X19314Y-12374D01*
X19314Y-12374D02*
X19314Y-12774D01*
X19314Y-13174D02*
X19314Y-13574D01*
X19314Y-13574D02*
X19914Y-13574D01*
X19914Y-13574D02*
X19914Y-13174D01*
X22243Y-14613D02*
G75*
G03X22243Y-14613I-50J0D01*
G74*
G01*
X21743Y-14613D02*
X22143Y-14613D01*
X22143Y-14613D02*
X22143Y-14013D01*
X22143Y-14013D02*
X21743Y-14013D01*
X21343Y-14013D02*
X20943Y-14013D01*
X20943Y-14013D02*
X20943Y-14613D01*
X20943Y-14613D02*
X21343Y-14613D01*
X20929Y-4417D02*
G75*
G03X20929Y-4417I-50J0D01*
G74*
G01*
X20879Y-3967D02*
X20879Y-4367D01*
X20879Y-4367D02*
X21479Y-4367D01*
X21479Y-4367D02*
X21479Y-3967D01*
X21479Y-3567D02*
X21479Y-3167D01*
X21479Y-3167D02*
X20879Y-3167D01*
X20879Y-3167D02*
X20879Y-3567D01*
X22268Y-1704D02*
G75*
G03X22268Y-1704I-50J0D01*
G74*
G01*
X22218Y-2154D02*
X22218Y-1754D01*
X22218Y-1754D02*
X21618Y-1754D01*
X21618Y-1754D02*
X21618Y-2154D01*
X21618Y-2554D02*
X21618Y-2954D01*
X21618Y-2954D02*
X22218Y-2954D01*
X22218Y-2954D02*
X22218Y-2554D01*
X22268Y-3122D02*
G75*
G03X22268Y-3122I-50J0D01*
G74*
G01*
X22218Y-3572D02*
X22218Y-3172D01*
X22218Y-3172D02*
X21618Y-3172D01*
X21618Y-3172D02*
X21618Y-3572D01*
X21618Y-3972D02*
X21618Y-4372D01*
X21618Y-4372D02*
X22218Y-4372D01*
X22218Y-4372D02*
X22218Y-3972D01*
X23563Y-5253D02*
G75*
G03X23563Y-5253I-50J0D01*
G74*
G01*
X23063Y-5253D02*
X23463Y-5253D01*
X23463Y-5253D02*
X23463Y-4653D01*
X23463Y-4653D02*
X23063Y-4653D01*
X22663Y-4653D02*
X22263Y-4653D01*
X22263Y-4653D02*
X22263Y-5253D01*
X22263Y-5253D02*
X22663Y-5253D01*
X22899Y-1647D02*
G75*
G03X22899Y-1647I-50J0D01*
G74*
G01*
X22399Y-1647D02*
X22799Y-1647D01*
X22799Y-1647D02*
X22799Y-1047D01*
X22799Y-1047D02*
X22399Y-1047D01*
X21999Y-1047D02*
X21599Y-1047D01*
X21599Y-1047D02*
X21599Y-1647D01*
X21599Y-1647D02*
X21999Y-1647D01*
X24219Y-1647D02*
G75*
G03X24219Y-1647I-50J0D01*
G74*
G01*
X23719Y-1647D02*
X24119Y-1647D01*
X24119Y-1647D02*
X24119Y-1047D01*
X24119Y-1047D02*
X23719Y-1047D01*
X23319Y-1047D02*
X22919Y-1047D01*
X22919Y-1047D02*
X22919Y-1647D01*
X22919Y-1647D02*
X23319Y-1647D01*
X27687Y-15487D02*
G75*
G03X27687Y-15487I-50J0D01*
G74*
G01*
X28087Y-15487D02*
X27687Y-15487D01*
X27687Y-15487D02*
X27687Y-16087D01*
X27687Y-16087D02*
X28087Y-16087D01*
X28487Y-16087D02*
X28887Y-16087D01*
X28887Y-16087D02*
X28887Y-15487D01*
X28887Y-15487D02*
X28487Y-15487D01*
X20903Y-6850D02*
G75*
G03X20903Y-6850I-50J0D01*
G74*
G01*
X20853Y-7300D02*
X20853Y-6900D01*
X20853Y-6900D02*
X20253Y-6900D01*
X20253Y-6900D02*
X20253Y-7300D01*
X20253Y-7700D02*
X20253Y-8100D01*
X20253Y-8100D02*
X20853Y-8100D01*
X20853Y-8100D02*
X20853Y-7700D01*
X17161Y-9478D02*
G75*
G03X17161Y-9478I-50J0D01*
G74*
G01*
X17111Y-9028D02*
X17111Y-9428D01*
X17111Y-9428D02*
X17711Y-9428D01*
X17711Y-9428D02*
X17711Y-9028D01*
X17711Y-8628D02*
X17711Y-8228D01*
X17711Y-8228D02*
X17111Y-8228D01*
X17111Y-8228D02*
X17111Y-8628D01*
X26151Y-11471D02*
G75*
G03X26151Y-11471I-50J0D01*
G74*
G01*
X26551Y-11471D02*
X26151Y-11471D01*
X26151Y-11471D02*
X26151Y-12071D01*
X26151Y-12071D02*
X26551Y-12071D01*
X26951Y-12071D02*
X27351Y-12071D01*
X27351Y-12071D02*
X27351Y-11471D01*
X27351Y-11471D02*
X26951Y-11471D01*
X27687Y-14503D02*
G75*
G03X27687Y-14503I-50J0D01*
G74*
G01*
X28087Y-14503D02*
X27687Y-14503D01*
X27687Y-14503D02*
X27687Y-15103D01*
X27687Y-15103D02*
X28087Y-15103D01*
X28487Y-15103D02*
X28887Y-15103D01*
X28887Y-15103D02*
X28887Y-14503D01*
X28887Y-14503D02*
X28487Y-14503D01*
X17805Y-14601D02*
G75*
G03X17805Y-14601I-50J0D01*
G74*
G01*
X18205Y-14601D02*
X17805Y-14601D01*
X17805Y-14601D02*
X17805Y-15201D01*
X17805Y-15201D02*
X18205Y-15201D01*
X18605Y-15201D02*
X19005Y-15201D01*
X19005Y-15201D02*
X19005Y-14601D01*
X19005Y-14601D02*
X18605Y-14601D01*
X30443Y-15723D02*
G75*
G03X30443Y-15723I-50J0D01*
G74*
G01*
X30843Y-15723D02*
X30443Y-15723D01*
X30443Y-15723D02*
X30443Y-16323D01*
X30443Y-16323D02*
X30843Y-16323D01*
X31243Y-16323D02*
X31643Y-16323D01*
X31643Y-16323D02*
X31643Y-15723D01*
X31643Y-15723D02*
X31243Y-15723D01*
X1878Y-11366D02*
G75*
G03X1878Y-11366I-50J0D01*
G74*
G01*
X1378Y-11366D02*
X1778Y-11366D01*
X1778Y-11366D02*
X1778Y-10766D01*
X1778Y-10766D02*
X1378Y-10766D01*
X978Y-10766D02*
X578Y-10766D01*
X578Y-10766D02*
X578Y-11366D01*
X578Y-11366D02*
X978Y-11366D01*
X28332Y-14212D02*
G75*
G03X28332Y-14212I-50J0D01*
G74*
G01*
X28282Y-13762D02*
X28282Y-14162D01*
X28282Y-14162D02*
X28882Y-14162D01*
X28882Y-14162D02*
X28882Y-13762D01*
X28882Y-13362D02*
X28882Y-12962D01*
X28882Y-12962D02*
X28282Y-12962D01*
X28282Y-12962D02*
X28282Y-13362D01*
X1998Y-14326D02*
G75*
G03X1998Y-14326I-50J0D01*
G74*
G01*
X2398Y-14326D02*
X1998Y-14326D01*
X1998Y-14326D02*
X1998Y-14926D01*
X1998Y-14926D02*
X2398Y-14926D01*
X2798Y-14926D02*
X3198Y-14926D01*
X3198Y-14926D02*
X3198Y-14326D01*
X3198Y-14326D02*
X2798Y-14326D01*
X2918Y-17106D02*
G75*
G03X2918Y-17106I-50J0D01*
G74*
G01*
X2418Y-17106D02*
X2818Y-17106D01*
X2818Y-17106D02*
X2818Y-16506D01*
X2818Y-16506D02*
X2418Y-16506D01*
X2018Y-16506D02*
X1618Y-16506D01*
X1618Y-16506D02*
X1618Y-17106D01*
X1618Y-17106D02*
X2018Y-17106D01*
X1978Y-9986D02*
G75*
G03X1978Y-9986I-50J0D01*
G74*
G01*
X2378Y-9986D02*
X1978Y-9986D01*
X1978Y-9986D02*
X1978Y-10586D01*
X1978Y-10586D02*
X2378Y-10586D01*
X2778Y-10586D02*
X3178Y-10586D01*
X3178Y-10586D02*
X3178Y-9986D01*
X3178Y-9986D02*
X2778Y-9986D01*
X2708Y-12196D02*
G75*
G03X2708Y-12196I-50J0D01*
G74*
G01*
X2658Y-12646D02*
X2658Y-12246D01*
X2658Y-12246D02*
X2058Y-12246D01*
X2058Y-12246D02*
X2058Y-12646D01*
X2058Y-13046D02*
X2058Y-13446D01*
X2058Y-13446D02*
X2658Y-13446D01*
X2658Y-13446D02*
X2658Y-13046D01*
X1878Y-12106D02*
G75*
G03X1878Y-12106I-50J0D01*
G74*
G01*
X1378Y-12106D02*
X1778Y-12106D01*
X1778Y-12106D02*
X1778Y-11506D01*
X1778Y-11506D02*
X1378Y-11506D01*
X978Y-11506D02*
X578Y-11506D01*
X578Y-11506D02*
X578Y-12106D01*
X578Y-12106D02*
X978Y-12106D01*
X21211Y-10861D02*
G75*
G03X21211Y-10861I-50J0D01*
G74*
G01*
X21611Y-10861D02*
X21211Y-10861D01*
X21211Y-10861D02*
X21211Y-11461D01*
X21211Y-11461D02*
X21611Y-11461D01*
X22011Y-11461D02*
X22411Y-11461D01*
X22411Y-11461D02*
X22411Y-10861D01*
X22411Y-10861D02*
X22011Y-10861D01*
X19365Y-9625D02*
G75*
G03X19365Y-9625I-50J0D01*
G74*
G01*
X19315Y-10075D02*
X19315Y-9675D01*
X19315Y-9675D02*
X18715Y-9675D01*
X18715Y-9675D02*
X18715Y-10075D01*
X18715Y-10475D02*
X18715Y-10875D01*
X18715Y-10875D02*
X19315Y-10875D01*
X19315Y-10875D02*
X19315Y-10475D01*
X20312Y-9536D02*
G75*
G03X20312Y-9536I-50J0D01*
G74*
G01*
X20262Y-9086D02*
X20262Y-9486D01*
X20262Y-9486D02*
X20862Y-9486D01*
X20862Y-9486D02*
X20862Y-9086D01*
X20862Y-8686D02*
X20862Y-8286D01*
X20862Y-8286D02*
X20262Y-8286D01*
X20262Y-8286D02*
X20262Y-8686D01*
X17161Y-8081D02*
G75*
G03X17161Y-8081I-50J0D01*
G74*
G01*
X17111Y-7631D02*
X17111Y-8031D01*
X17111Y-8031D02*
X17711Y-8031D01*
X17711Y-8031D02*
X17711Y-7631D01*
X17711Y-7231D02*
X17711Y-6831D01*
X17711Y-6831D02*
X17111Y-6831D01*
X17111Y-6831D02*
X17111Y-7231D01*
X20094Y-9625D02*
G75*
G03X20094Y-9625I-50J0D01*
G74*
G01*
X20044Y-10075D02*
X20044Y-9675D01*
X20044Y-9675D02*
X19444Y-9675D01*
X19444Y-9675D02*
X19444Y-10075D01*
X19444Y-10475D02*
X19444Y-10875D01*
X19444Y-10875D02*
X20044Y-10875D01*
X20044Y-10875D02*
X20044Y-10475D01*
X18037Y-10925D02*
G75*
G03X18037Y-10925I-50J0D01*
G74*
G01*
X17987Y-10475D02*
X17987Y-10875D01*
X17987Y-10875D02*
X18587Y-10875D01*
X18587Y-10875D02*
X18587Y-10475D01*
X18587Y-10075D02*
X18587Y-9675D01*
X18587Y-9675D02*
X17987Y-9675D01*
X17987Y-9675D02*
X17987Y-10075D01*
X19363Y-6520D02*
G75*
G03X19363Y-6520I-50J0D01*
G74*
G01*
X18863Y-6520D02*
X19263Y-6520D01*
X19263Y-6520D02*
X19263Y-5920D01*
X19263Y-5920D02*
X18863Y-5920D01*
X18463Y-5920D02*
X18063Y-5920D01*
X18063Y-5920D02*
X18063Y-6520D01*
X18063Y-6520D02*
X18463Y-6520D01*
X18063Y-5094D02*
G75*
G03X18063Y-5094I-50J0D01*
G74*
G01*
X18463Y-5094D02*
X18063Y-5094D01*
X18063Y-5094D02*
X18063Y-5694D01*
X18063Y-5694D02*
X18463Y-5694D01*
X18863Y-5694D02*
X19263Y-5694D01*
X19263Y-5694D02*
X19263Y-5094D01*
X19263Y-5094D02*
X18863Y-5094D01*
X15522Y-6412D02*
G75*
G03X15522Y-6412I-50J0D01*
G74*
G01*
X15922Y-6412D02*
X15522Y-6412D01*
X15522Y-6412D02*
X15522Y-7012D01*
X15522Y-7012D02*
X15922Y-7012D01*
X16322Y-7012D02*
X16722Y-7012D01*
X16722Y-7012D02*
X16722Y-6412D01*
X16722Y-6412D02*
X16322Y-6412D01*
X15522Y-7160D02*
G75*
G03X15522Y-7160I-50J0D01*
G74*
G01*
X15922Y-7160D02*
X15522Y-7160D01*
X15522Y-7160D02*
X15522Y-7760D01*
X15522Y-7760D02*
X15922Y-7760D01*
X16322Y-7760D02*
X16722Y-7760D01*
X16722Y-7760D02*
X16722Y-7160D01*
X16722Y-7160D02*
X16322Y-7160D01*
G54D14*
X33484Y-10685D02*
X33484Y-10985D01*
X33484Y-10985D02*
X33884Y-10985D01*
X33884Y-10985D02*
X33884Y-13385D01*
X33884Y-13385D02*
X33484Y-13385D01*
X33484Y-13385D02*
X33484Y-13685D01*
X33484Y-13385D02*
X33084Y-13385D01*
X33084Y-13385D02*
X33084Y-10985D01*
X33084Y-10985D02*
X33484Y-10985D01*
X33884Y-11185D02*
X33084Y-11185D01*
X33084Y-11285D02*
X33884Y-11285D01*
X30826Y-10744D02*
X30826Y-11044D01*
X30826Y-11044D02*
X31226Y-11044D01*
X31226Y-11044D02*
X31226Y-13444D01*
X31226Y-13444D02*
X30826Y-13444D01*
X30826Y-13444D02*
X30826Y-13744D01*
X30826Y-13444D02*
X30426Y-13444D01*
X30426Y-13444D02*
X30426Y-11044D01*
X30426Y-11044D02*
X30826Y-11044D01*
X31226Y-11244D02*
X30426Y-11244D01*
X30426Y-11344D02*
X31226Y-11344D01*
X19996Y-16633D02*
X20296Y-16633D01*
X20296Y-16633D02*
X20296Y-16233D01*
X20296Y-16233D02*
X22696Y-16233D01*
X22696Y-16233D02*
X22696Y-16633D01*
X22696Y-16633D02*
X22996Y-16633D01*
X22696Y-16633D02*
X22696Y-17033D01*
X22696Y-17033D02*
X20296Y-17033D01*
X20296Y-17033D02*
X20296Y-16633D01*
X20496Y-16233D02*
X20496Y-17033D01*
X20596Y-17033D02*
X20596Y-16233D01*
X24472Y-5295D02*
X24172Y-5295D01*
X24172Y-5295D02*
X24172Y-5695D01*
X24172Y-5695D02*
X21772Y-5695D01*
X21772Y-5695D02*
X21772Y-5295D01*
X21772Y-5295D02*
X21472Y-5295D01*
X21772Y-5295D02*
X21772Y-4895D01*
X21772Y-4895D02*
X24172Y-4895D01*
X24172Y-4895D02*
X24172Y-5295D01*
X23972Y-5695D02*
X23972Y-4895D01*
X23872Y-4895D02*
X23872Y-5695D01*
X15598Y-4266D02*
X15298Y-4266D01*
X15298Y-4266D02*
X15298Y-4666D01*
X15298Y-4666D02*
X12898Y-4666D01*
X12898Y-4666D02*
X12898Y-4266D01*
X12898Y-4266D02*
X12598Y-4266D01*
X12898Y-4266D02*
X12898Y-3866D01*
X12898Y-3866D02*
X15298Y-3866D01*
X15298Y-3866D02*
X15298Y-4266D01*
X15098Y-4666D02*
X15098Y-3866D01*
X14998Y-3866D02*
X14998Y-4666D01*
X25009Y-4557D02*
X25009Y-4257D01*
X25009Y-4257D02*
X24609Y-4257D01*
X24609Y-4257D02*
X24609Y-1857D01*
X24609Y-1857D02*
X25009Y-1857D01*
X25009Y-1857D02*
X25009Y-1557D01*
X25009Y-1857D02*
X25409Y-1857D01*
X25409Y-1857D02*
X25409Y-4257D01*
X25409Y-4257D02*
X25009Y-4257D01*
X24609Y-4057D02*
X25409Y-4057D01*
X25409Y-3957D02*
X24609Y-3957D01*
X15578Y-5246D02*
X15278Y-5246D01*
X15278Y-5246D02*
X15278Y-5646D01*
X15278Y-5646D02*
X12878Y-5646D01*
X12878Y-5646D02*
X12878Y-5246D01*
X12878Y-5246D02*
X12578Y-5246D01*
X12878Y-5246D02*
X12878Y-4846D01*
X12878Y-4846D02*
X15278Y-4846D01*
X15278Y-4846D02*
X15278Y-5246D01*
X15078Y-5646D02*
X15078Y-4846D01*
X14978Y-4846D02*
X14978Y-5646D01*
G54D15*
X1567Y-17977D02*
X1596Y-17963D01*
X1624Y-17934D01*
X1667Y-17891D01*
X1696Y-17877D01*
X1724Y-17877D01*
X1710Y-17948D02*
X1738Y-17934D01*
X1767Y-17906D01*
X1781Y-17848D01*
X1781Y-17748D01*
X1767Y-17691D01*
X1738Y-17663D01*
X1710Y-17648D01*
X1653Y-17648D01*
X1624Y-17663D01*
X1596Y-17691D01*
X1581Y-17748D01*
X1581Y-17848D01*
X1596Y-17906D01*
X1624Y-17934D01*
X1653Y-17948D01*
X1710Y-17948D01*
X1310Y-17648D02*
X1453Y-17648D01*
X1467Y-17791D01*
X1453Y-17777D01*
X1424Y-17763D01*
X1353Y-17763D01*
X1324Y-17777D01*
X1310Y-17791D01*
X1296Y-17820D01*
X1296Y-17891D01*
X1310Y-17920D01*
X1324Y-17934D01*
X1353Y-17948D01*
X1424Y-17948D01*
X1453Y-17934D01*
X1467Y-17920D01*
X2520Y-17988D02*
X2520Y-17788D01*
X2520Y-17688D02*
X2535Y-17702D01*
X2520Y-17716D01*
X2506Y-17702D01*
X2520Y-17688D01*
X2520Y-17716D01*
X2378Y-17988D02*
X2378Y-17788D01*
X2378Y-17845D02*
X2363Y-17816D01*
X2349Y-17802D01*
X2320Y-17788D01*
X2292Y-17788D01*
X2149Y-17988D02*
X2178Y-17974D01*
X2192Y-17945D01*
X2192Y-17688D01*
X2035Y-17988D02*
X2035Y-17788D01*
X2035Y-17816D02*
X2020Y-17802D01*
X1992Y-17788D01*
X1949Y-17788D01*
X1920Y-17802D01*
X1906Y-17831D01*
X1906Y-17988D01*
X1906Y-17831D02*
X1892Y-17802D01*
X1863Y-17788D01*
X1820Y-17788D01*
X1792Y-17802D01*
X1778Y-17831D01*
X1778Y-17988D01*
X1592Y-17988D02*
X1620Y-17974D01*
X1635Y-17945D01*
X1635Y-17688D01*
X1492Y-17716D02*
X1478Y-17702D01*
X1449Y-17688D01*
X1378Y-17688D01*
X1349Y-17702D01*
X1335Y-17716D01*
X1320Y-17745D01*
X1320Y-17774D01*
X1335Y-17816D01*
X1506Y-17988D01*
X1320Y-17988D01*
X1206Y-17716D02*
X1192Y-17702D01*
X1163Y-17688D01*
X1092Y-17688D01*
X1063Y-17702D01*
X1049Y-17716D01*
X1035Y-17745D01*
X1035Y-17774D01*
X1049Y-17816D01*
X1220Y-17988D01*
X1035Y-17988D01*
X778Y-17788D02*
X778Y-17988D01*
X849Y-17674D02*
X920Y-17888D01*
X735Y-17888D01*
X492Y-17788D02*
X492Y-17988D01*
X563Y-17674D02*
X635Y-17888D01*
X449Y-17888D01*
G54D16*
X19657Y-13475D02*
X19643Y-13446D01*
X19615Y-13418D01*
X19572Y-13375D01*
X19557Y-13346D01*
X19557Y-13318D01*
X19629Y-13332D02*
X19615Y-13303D01*
X19586Y-13275D01*
X19529Y-13261D01*
X19429Y-13261D01*
X19372Y-13275D01*
X19343Y-13303D01*
X19329Y-13332D01*
X19329Y-13389D01*
X19343Y-13418D01*
X19372Y-13446D01*
X19429Y-13461D01*
X19529Y-13461D01*
X19586Y-13446D01*
X19615Y-13418D01*
X19629Y-13389D01*
X19629Y-13332D01*
X19457Y-13632D02*
X19443Y-13603D01*
X19429Y-13589D01*
X19400Y-13575D01*
X19386Y-13575D01*
X19357Y-13589D01*
X19343Y-13603D01*
X19329Y-13632D01*
X19329Y-13689D01*
X19343Y-13718D01*
X19357Y-13732D01*
X19386Y-13746D01*
X19400Y-13746D01*
X19429Y-13732D01*
X19443Y-13718D01*
X19457Y-13689D01*
X19457Y-13632D01*
X19472Y-13603D01*
X19486Y-13589D01*
X19515Y-13575D01*
X19572Y-13575D01*
X19600Y-13589D01*
X19615Y-13603D01*
X19629Y-13632D01*
X19629Y-13689D01*
X19615Y-13718D01*
X19600Y-13732D01*
X19572Y-13746D01*
X19515Y-13746D01*
X19486Y-13732D01*
X19472Y-13718D01*
X19457Y-13689D01*
G54D17*
G54D16*
X29613Y-14932D02*
X29599Y-14903D01*
X29570Y-14874D01*
X29527Y-14832D01*
X29513Y-14803D01*
X29513Y-14774D01*
X29584Y-14789D02*
X29570Y-14760D01*
X29541Y-14732D01*
X29484Y-14717D01*
X29384Y-14717D01*
X29327Y-14732D01*
X29299Y-14760D01*
X29284Y-14789D01*
X29284Y-14846D01*
X29299Y-14874D01*
X29327Y-14903D01*
X29384Y-14917D01*
X29484Y-14917D01*
X29541Y-14903D01*
X29570Y-14874D01*
X29584Y-14846D01*
X29584Y-14789D01*
X29284Y-15174D02*
X29284Y-15117D01*
X29299Y-15089D01*
X29313Y-15074D01*
X29356Y-15046D01*
X29413Y-15032D01*
X29527Y-15032D01*
X29556Y-15046D01*
X29570Y-15060D01*
X29584Y-15089D01*
X29584Y-15146D01*
X29570Y-15174D01*
X29556Y-15189D01*
X29527Y-15203D01*
X29456Y-15203D01*
X29427Y-15189D01*
X29413Y-15174D01*
X29399Y-15146D01*
X29399Y-15089D01*
X29413Y-15060D01*
X29427Y-15046D01*
X29456Y-15032D01*
G54D17*
G54D16*
X32964Y-15876D02*
X32950Y-15848D01*
X32922Y-15819D01*
X32879Y-15776D01*
X32864Y-15748D01*
X32864Y-15719D01*
X32936Y-15734D02*
X32922Y-15705D01*
X32893Y-15676D01*
X32836Y-15662D01*
X32736Y-15662D01*
X32679Y-15676D01*
X32650Y-15705D01*
X32636Y-15734D01*
X32636Y-15791D01*
X32650Y-15819D01*
X32679Y-15848D01*
X32736Y-15862D01*
X32836Y-15862D01*
X32893Y-15848D01*
X32922Y-15819D01*
X32936Y-15791D01*
X32936Y-15734D01*
X32636Y-15962D02*
X32636Y-16162D01*
X32936Y-16034D01*
G54D17*
G54D16*
X1803Y-11318D02*
X1789Y-11290D01*
X1760Y-11261D01*
X1717Y-11218D01*
X1703Y-11190D01*
X1703Y-11161D01*
X1774Y-11176D02*
X1760Y-11147D01*
X1731Y-11118D01*
X1674Y-11104D01*
X1574Y-11104D01*
X1517Y-11118D01*
X1489Y-11147D01*
X1474Y-11176D01*
X1474Y-11233D01*
X1489Y-11261D01*
X1517Y-11290D01*
X1574Y-11304D01*
X1674Y-11304D01*
X1731Y-11290D01*
X1760Y-11261D01*
X1774Y-11233D01*
X1774Y-11176D01*
X1574Y-11561D02*
X1774Y-11561D01*
X1460Y-11490D02*
X1674Y-11418D01*
X1674Y-11604D01*
G54D17*
G54D16*
X1207Y-12086D02*
X1236Y-12072D01*
X1264Y-12044D01*
X1307Y-12001D01*
X1336Y-11986D01*
X1364Y-11986D01*
X1350Y-12058D02*
X1378Y-12044D01*
X1407Y-12015D01*
X1421Y-11958D01*
X1421Y-11858D01*
X1407Y-11801D01*
X1378Y-11772D01*
X1350Y-11758D01*
X1293Y-11758D01*
X1264Y-11772D01*
X1236Y-11801D01*
X1221Y-11858D01*
X1221Y-11958D01*
X1236Y-12015D01*
X1264Y-12044D01*
X1293Y-12058D01*
X1350Y-12058D01*
X1121Y-11758D02*
X936Y-11758D01*
X1036Y-11872D01*
X993Y-11872D01*
X964Y-11886D01*
X950Y-11901D01*
X936Y-11929D01*
X936Y-12001D01*
X950Y-12029D01*
X964Y-12044D01*
X993Y-12058D01*
X1078Y-12058D01*
X1107Y-12044D01*
X1121Y-12029D01*
G54D17*
G54D16*
X2627Y-14886D02*
X2656Y-14872D01*
X2684Y-14844D01*
X2727Y-14801D01*
X2756Y-14786D01*
X2784Y-14786D01*
X2770Y-14858D02*
X2798Y-14844D01*
X2827Y-14815D01*
X2841Y-14758D01*
X2841Y-14658D01*
X2827Y-14601D01*
X2798Y-14572D01*
X2770Y-14558D01*
X2713Y-14558D01*
X2684Y-14572D01*
X2656Y-14601D01*
X2641Y-14658D01*
X2641Y-14758D01*
X2656Y-14815D01*
X2684Y-14844D01*
X2713Y-14858D01*
X2770Y-14858D01*
X2527Y-14586D02*
X2513Y-14572D01*
X2484Y-14558D01*
X2413Y-14558D01*
X2384Y-14572D01*
X2370Y-14586D01*
X2356Y-14615D01*
X2356Y-14644D01*
X2370Y-14686D01*
X2541Y-14858D01*
X2356Y-14858D01*
G54D17*
G54D16*
X1207Y-15406D02*
X1236Y-15392D01*
X1264Y-15364D01*
X1307Y-15321D01*
X1336Y-15306D01*
X1364Y-15306D01*
X1350Y-15378D02*
X1378Y-15364D01*
X1407Y-15335D01*
X1421Y-15278D01*
X1421Y-15178D01*
X1407Y-15121D01*
X1378Y-15092D01*
X1350Y-15078D01*
X1293Y-15078D01*
X1264Y-15092D01*
X1236Y-15121D01*
X1221Y-15178D01*
X1221Y-15278D01*
X1236Y-15335D01*
X1264Y-15364D01*
X1293Y-15378D01*
X1350Y-15378D01*
X936Y-15378D02*
X1107Y-15378D01*
X1021Y-15378D02*
X1021Y-15078D01*
X1050Y-15121D01*
X1078Y-15149D01*
X1107Y-15164D01*
G54D17*
G54D18*
X20925Y-12142D02*
X21290Y-12142D01*
X21332Y-12163D01*
X21354Y-12184D01*
X21375Y-12227D01*
X21375Y-12313D01*
X21354Y-12356D01*
X21332Y-12377D01*
X21290Y-12399D01*
X20925Y-12399D01*
X21375Y-12849D02*
X21375Y-12592D01*
X21375Y-12720D02*
X20925Y-12720D01*
X20990Y-12677D01*
X21032Y-12634D01*
X21054Y-12592D01*
X21375Y-13277D02*
X21375Y-13020D01*
X21375Y-13149D02*
X20925Y-13149D01*
X20990Y-13106D01*
X21032Y-13063D01*
X21054Y-13020D01*
X22085Y-11865D02*
X21735Y-11865D01*
X22085Y-12032D02*
X21735Y-12032D01*
X22085Y-12232D01*
X21735Y-12232D01*
X21985Y-12382D02*
X21985Y-12549D01*
X22085Y-12349D02*
X21735Y-12465D01*
X22085Y-12582D01*
X22085Y-12882D02*
X22085Y-12682D01*
X22085Y-12782D02*
X21735Y-12782D01*
X21785Y-12749D01*
X21818Y-12715D01*
X21835Y-12682D01*
X21768Y-13015D02*
X21751Y-13032D01*
X21735Y-13065D01*
X21735Y-13149D01*
X21751Y-13182D01*
X21768Y-13199D01*
X21801Y-13215D01*
X21835Y-13215D01*
X21885Y-13199D01*
X22085Y-12999D01*
X22085Y-13215D01*
X21735Y-13515D02*
X21735Y-13449D01*
X21751Y-13415D01*
X21768Y-13399D01*
X21818Y-13365D01*
X21885Y-13349D01*
X22018Y-13349D01*
X22051Y-13365D01*
X22068Y-13382D01*
X22085Y-13415D01*
X22085Y-13482D01*
X22068Y-13515D01*
X22051Y-13532D01*
X22018Y-13549D01*
X21935Y-13549D01*
X21901Y-13532D01*
X21885Y-13515D01*
X21868Y-13482D01*
X21868Y-13415D01*
X21885Y-13382D01*
X21901Y-13365D01*
X21935Y-13349D01*
X19310Y-8001D02*
X19310Y-7551D01*
X19203Y-7551D01*
X19139Y-7573D01*
X19096Y-7616D01*
X19075Y-7658D01*
X19053Y-7744D01*
X19053Y-7808D01*
X19075Y-7894D01*
X19096Y-7937D01*
X19139Y-7980D01*
X19203Y-8001D01*
X19310Y-8001D01*
X18667Y-7701D02*
X18667Y-8001D01*
X18775Y-7530D02*
X18882Y-7851D01*
X18603Y-7851D01*
X19828Y-8711D02*
X19861Y-8694D01*
X19878Y-8661D01*
X19878Y-8361D01*
X19695Y-8711D02*
X19695Y-8478D01*
X19695Y-8511D02*
X19678Y-8494D01*
X19645Y-8478D01*
X19595Y-8478D01*
X19561Y-8494D01*
X19545Y-8528D01*
X19545Y-8711D01*
X19545Y-8528D02*
X19528Y-8494D01*
X19495Y-8478D01*
X19445Y-8478D01*
X19411Y-8494D01*
X19395Y-8528D01*
X19395Y-8711D01*
X19245Y-8394D02*
X19228Y-8378D01*
X19195Y-8361D01*
X19111Y-8361D01*
X19078Y-8378D01*
X19061Y-8394D01*
X19045Y-8428D01*
X19045Y-8461D01*
X19061Y-8511D01*
X19261Y-8711D01*
X19045Y-8711D01*
X18728Y-8361D02*
X18895Y-8361D01*
X18911Y-8528D01*
X18895Y-8511D01*
X18861Y-8494D01*
X18778Y-8494D01*
X18745Y-8511D01*
X18728Y-8528D01*
X18711Y-8561D01*
X18711Y-8644D01*
X18728Y-8678D01*
X18745Y-8694D01*
X18778Y-8711D01*
X18861Y-8711D01*
X18895Y-8694D01*
X18911Y-8678D01*
X18511Y-8511D02*
X18545Y-8494D01*
X18561Y-8478D01*
X18578Y-8444D01*
X18578Y-8428D01*
X18561Y-8394D01*
X18545Y-8378D01*
X18511Y-8361D01*
X18445Y-8361D01*
X18411Y-8378D01*
X18395Y-8394D01*
X18378Y-8428D01*
X18378Y-8444D01*
X18395Y-8478D01*
X18411Y-8494D01*
X18445Y-8511D01*
X18511Y-8511D01*
X18545Y-8528D01*
X18561Y-8544D01*
X18578Y-8578D01*
X18578Y-8644D01*
X18561Y-8678D01*
X18545Y-8694D01*
X18511Y-8711D01*
X18445Y-8711D01*
X18411Y-8694D01*
X18395Y-8678D01*
X18378Y-8644D01*
X18378Y-8578D01*
X18395Y-8544D01*
X18411Y-8528D01*
X18445Y-8511D01*
X18078Y-8711D02*
X18078Y-8528D01*
X18095Y-8494D01*
X18128Y-8478D01*
X18195Y-8478D01*
X18228Y-8494D01*
X18078Y-8694D02*
X18111Y-8711D01*
X18195Y-8711D01*
X18228Y-8694D01*
X18245Y-8661D01*
X18245Y-8628D01*
X18228Y-8594D01*
X18195Y-8578D01*
X18111Y-8578D01*
X18078Y-8561D01*
X26547Y-12979D02*
X26097Y-12979D01*
X26097Y-13086D01*
X26118Y-13151D01*
X26161Y-13193D01*
X26204Y-13215D01*
X26290Y-13236D01*
X26354Y-13236D01*
X26440Y-13215D01*
X26483Y-13193D01*
X26525Y-13151D01*
X26547Y-13086D01*
X26547Y-12979D01*
X26097Y-13622D02*
X26097Y-13536D01*
X26118Y-13493D01*
X26140Y-13472D01*
X26204Y-13429D01*
X26290Y-13408D01*
X26461Y-13408D01*
X26504Y-13429D01*
X26525Y-13451D01*
X26547Y-13493D01*
X26547Y-13579D01*
X26525Y-13622D01*
X26504Y-13643D01*
X26461Y-13665D01*
X26354Y-13665D01*
X26311Y-13643D01*
X26290Y-13622D01*
X26268Y-13579D01*
X26268Y-13493D01*
X26290Y-13451D01*
X26311Y-13429D01*
X26354Y-13408D01*
X27256Y-12461D02*
X27240Y-12428D01*
X27206Y-12411D01*
X26906Y-12411D01*
X27256Y-12595D02*
X27023Y-12595D01*
X27056Y-12595D02*
X27040Y-12611D01*
X27023Y-12645D01*
X27023Y-12695D01*
X27040Y-12728D01*
X27073Y-12745D01*
X27256Y-12745D01*
X27073Y-12745D02*
X27040Y-12761D01*
X27023Y-12795D01*
X27023Y-12845D01*
X27040Y-12878D01*
X27073Y-12895D01*
X27256Y-12895D01*
X26940Y-13045D02*
X26923Y-13061D01*
X26906Y-13095D01*
X26906Y-13178D01*
X26923Y-13211D01*
X26940Y-13228D01*
X26973Y-13245D01*
X27006Y-13245D01*
X27056Y-13228D01*
X27256Y-13028D01*
X27256Y-13245D01*
X26906Y-13561D02*
X26906Y-13395D01*
X27073Y-13378D01*
X27056Y-13395D01*
X27040Y-13428D01*
X27040Y-13511D01*
X27056Y-13545D01*
X27073Y-13561D01*
X27106Y-13578D01*
X27190Y-13578D01*
X27223Y-13561D01*
X27240Y-13545D01*
X27256Y-13511D01*
X27256Y-13428D01*
X27240Y-13395D01*
X27223Y-13378D01*
X27056Y-13778D02*
X27040Y-13745D01*
X27023Y-13728D01*
X26990Y-13711D01*
X26973Y-13711D01*
X26940Y-13728D01*
X26923Y-13745D01*
X26906Y-13778D01*
X26906Y-13845D01*
X26923Y-13878D01*
X26940Y-13895D01*
X26973Y-13911D01*
X26990Y-13911D01*
X27023Y-13895D01*
X27040Y-13878D01*
X27056Y-13845D01*
X27056Y-13778D01*
X27073Y-13745D01*
X27090Y-13728D01*
X27123Y-13711D01*
X27190Y-13711D01*
X27223Y-13728D01*
X27240Y-13745D01*
X27256Y-13778D01*
X27256Y-13845D01*
X27240Y-13878D01*
X27223Y-13895D01*
X27190Y-13911D01*
X27123Y-13911D01*
X27090Y-13895D01*
X27073Y-13878D01*
X27056Y-13845D01*
X27256Y-14211D02*
X27073Y-14211D01*
X27040Y-14195D01*
X27023Y-14161D01*
X27023Y-14095D01*
X27040Y-14061D01*
X27240Y-14211D02*
X27256Y-14178D01*
X27256Y-14095D01*
X27240Y-14061D01*
X27206Y-14045D01*
X27173Y-14045D01*
X27140Y-14061D01*
X27123Y-14095D01*
X27123Y-14178D01*
X27106Y-14211D01*
X23875Y-2524D02*
X23875Y-2888D01*
X23853Y-2931D01*
X23832Y-2952D01*
X23789Y-2974D01*
X23703Y-2974D01*
X23660Y-2952D01*
X23639Y-2931D01*
X23618Y-2888D01*
X23618Y-2524D01*
X23339Y-2717D02*
X23382Y-2695D01*
X23403Y-2674D01*
X23425Y-2631D01*
X23425Y-2610D01*
X23403Y-2567D01*
X23382Y-2545D01*
X23339Y-2524D01*
X23253Y-2524D01*
X23210Y-2545D01*
X23189Y-2567D01*
X23168Y-2610D01*
X23168Y-2631D01*
X23189Y-2674D01*
X23210Y-2695D01*
X23253Y-2717D01*
X23339Y-2717D01*
X23382Y-2738D01*
X23403Y-2760D01*
X23425Y-2802D01*
X23425Y-2888D01*
X23403Y-2931D01*
X23382Y-2952D01*
X23339Y-2974D01*
X23253Y-2974D01*
X23210Y-2952D01*
X23189Y-2931D01*
X23168Y-2888D01*
X23168Y-2802D01*
X23189Y-2760D01*
X23210Y-2738D01*
X23253Y-2717D01*
X24649Y-3683D02*
X24649Y-3333D01*
X24449Y-3683D01*
X24449Y-3333D01*
X24082Y-3650D02*
X24099Y-3667D01*
X24149Y-3683D01*
X24182Y-3683D01*
X24232Y-3667D01*
X24265Y-3633D01*
X24282Y-3600D01*
X24299Y-3533D01*
X24299Y-3483D01*
X24282Y-3417D01*
X24265Y-3383D01*
X24232Y-3350D01*
X24182Y-3333D01*
X24149Y-3333D01*
X24099Y-3350D01*
X24082Y-3367D01*
X23932Y-3683D02*
X23932Y-3333D01*
X23799Y-3333D01*
X23765Y-3350D01*
X23749Y-3367D01*
X23732Y-3400D01*
X23732Y-3450D01*
X23749Y-3483D01*
X23765Y-3500D01*
X23799Y-3517D01*
X23932Y-3517D01*
X23615Y-3333D02*
X23399Y-3333D01*
X23515Y-3467D01*
X23465Y-3467D01*
X23432Y-3483D01*
X23415Y-3500D01*
X23399Y-3533D01*
X23399Y-3617D01*
X23415Y-3650D01*
X23432Y-3667D01*
X23465Y-3683D01*
X23565Y-3683D01*
X23599Y-3667D01*
X23615Y-3650D01*
X23182Y-3333D02*
X23149Y-3333D01*
X23115Y-3350D01*
X23099Y-3367D01*
X23082Y-3400D01*
X23065Y-3467D01*
X23065Y-3550D01*
X23082Y-3617D01*
X23099Y-3650D01*
X23115Y-3667D01*
X23149Y-3683D01*
X23182Y-3683D01*
X23215Y-3667D01*
X23232Y-3650D01*
X23249Y-3617D01*
X23265Y-3550D01*
X23265Y-3467D01*
X23249Y-3400D01*
X23232Y-3367D01*
X23215Y-3350D01*
X23182Y-3333D01*
X22765Y-3333D02*
X22832Y-3333D01*
X22865Y-3350D01*
X22882Y-3367D01*
X22915Y-3417D01*
X22932Y-3483D01*
X22932Y-3617D01*
X22915Y-3650D01*
X22899Y-3667D01*
X22865Y-3683D01*
X22799Y-3683D01*
X22765Y-3667D01*
X22749Y-3650D01*
X22732Y-3617D01*
X22732Y-3533D01*
X22749Y-3500D01*
X22765Y-3483D01*
X22799Y-3467D01*
X22865Y-3467D01*
X22899Y-3483D01*
X22915Y-3500D01*
X22932Y-3533D01*
X22615Y-3333D02*
X22399Y-3333D01*
X22515Y-3467D01*
X22465Y-3467D01*
X22432Y-3483D01*
X22415Y-3500D01*
X22399Y-3533D01*
X22399Y-3617D01*
X22415Y-3650D01*
X22432Y-3667D01*
X22465Y-3683D01*
X22565Y-3683D01*
X22599Y-3667D01*
X22615Y-3650D01*
G54D19*
X1211Y-15121D02*
X1277Y-15027D01*
X1324Y-15121D02*
X1324Y-14924D01*
X1249Y-14924D01*
X1230Y-14934D01*
X1221Y-14943D01*
X1211Y-14962D01*
X1211Y-14990D01*
X1221Y-15009D01*
X1230Y-15018D01*
X1249Y-15027D01*
X1324Y-15027D01*
X1146Y-14924D02*
X1014Y-14924D01*
X1099Y-15121D01*
X1216Y-15396D02*
X1328Y-15396D01*
X1272Y-15396D02*
X1272Y-15199D01*
X1291Y-15227D01*
X1310Y-15246D01*
X1328Y-15255D01*
X1094Y-15199D02*
X1075Y-15199D01*
X1056Y-15209D01*
X1047Y-15218D01*
X1038Y-15237D01*
X1028Y-15274D01*
X1028Y-15321D01*
X1038Y-15359D01*
X1047Y-15377D01*
X1056Y-15387D01*
X1075Y-15396D01*
X1094Y-15396D01*
X1113Y-15387D01*
X1122Y-15377D01*
X1131Y-15359D01*
X1141Y-15321D01*
X1141Y-15274D01*
X1131Y-15237D01*
X1122Y-15218D01*
X1113Y-15209D01*
X1094Y-15199D01*
X19550Y-12848D02*
X19559Y-12838D01*
X19569Y-12810D01*
X19569Y-12791D01*
X19559Y-12763D01*
X19541Y-12744D01*
X19522Y-12735D01*
X19484Y-12726D01*
X19456Y-12726D01*
X19419Y-12735D01*
X19400Y-12744D01*
X19381Y-12763D01*
X19372Y-12791D01*
X19372Y-12810D01*
X19381Y-12838D01*
X19390Y-12848D01*
X19372Y-12913D02*
X19372Y-13035D01*
X19447Y-12970D01*
X19447Y-12998D01*
X19456Y-13017D01*
X19466Y-13026D01*
X19484Y-13035D01*
X19531Y-13035D01*
X19550Y-13026D01*
X19559Y-13017D01*
X19569Y-12998D01*
X19569Y-12941D01*
X19559Y-12923D01*
X19550Y-12913D01*
X19437Y-13204D02*
X19569Y-13204D01*
X19362Y-13157D02*
X19503Y-13110D01*
X19503Y-13232D01*
X19844Y-12754D02*
X19844Y-12641D01*
X19844Y-12698D02*
X19647Y-12698D01*
X19675Y-12679D01*
X19694Y-12660D01*
X19703Y-12641D01*
X19647Y-12876D02*
X19647Y-12895D01*
X19656Y-12913D01*
X19665Y-12923D01*
X19684Y-12932D01*
X19722Y-12941D01*
X19769Y-12941D01*
X19806Y-12932D01*
X19825Y-12923D01*
X19834Y-12913D01*
X19844Y-12895D01*
X19844Y-12876D01*
X19834Y-12857D01*
X19825Y-12848D01*
X19806Y-12838D01*
X19769Y-12829D01*
X19722Y-12829D01*
X19684Y-12838D01*
X19665Y-12848D01*
X19656Y-12857D01*
X19647Y-12876D01*
X19647Y-13063D02*
X19647Y-13082D01*
X19656Y-13101D01*
X19665Y-13110D01*
X19684Y-13120D01*
X19722Y-13129D01*
X19769Y-13129D01*
X19806Y-13120D01*
X19825Y-13110D01*
X19834Y-13101D01*
X19844Y-13082D01*
X19844Y-13063D01*
X19834Y-13045D01*
X19825Y-13035D01*
X19806Y-13026D01*
X19769Y-13017D01*
X19722Y-13017D01*
X19684Y-13026D01*
X19665Y-13035D01*
X19656Y-13045D01*
X19647Y-13063D01*
X19712Y-13214D02*
X19844Y-13214D01*
X19731Y-13214D02*
X19722Y-13223D01*
X19712Y-13242D01*
X19712Y-13270D01*
X19722Y-13289D01*
X19741Y-13298D01*
X19844Y-13298D01*
X21670Y-14249D02*
X21679Y-14258D01*
X21707Y-14268D01*
X21726Y-14268D01*
X21754Y-14258D01*
X21773Y-14239D01*
X21782Y-14221D01*
X21792Y-14183D01*
X21792Y-14155D01*
X21782Y-14118D01*
X21773Y-14099D01*
X21754Y-14080D01*
X21726Y-14071D01*
X21707Y-14071D01*
X21679Y-14080D01*
X21670Y-14089D01*
X21501Y-14136D02*
X21501Y-14268D01*
X21548Y-14061D02*
X21595Y-14202D01*
X21473Y-14202D01*
X21295Y-14268D02*
X21407Y-14268D01*
X21351Y-14268D02*
X21351Y-14071D01*
X21370Y-14099D01*
X21388Y-14118D01*
X21407Y-14127D01*
X21764Y-14543D02*
X21876Y-14543D01*
X21820Y-14543D02*
X21820Y-14346D01*
X21839Y-14374D01*
X21857Y-14393D01*
X21876Y-14402D01*
X21642Y-14346D02*
X21623Y-14346D01*
X21604Y-14355D01*
X21595Y-14364D01*
X21585Y-14383D01*
X21576Y-14421D01*
X21576Y-14468D01*
X21585Y-14505D01*
X21595Y-14524D01*
X21604Y-14533D01*
X21623Y-14543D01*
X21642Y-14543D01*
X21660Y-14533D01*
X21670Y-14524D01*
X21679Y-14505D01*
X21689Y-14468D01*
X21689Y-14421D01*
X21679Y-14383D01*
X21670Y-14364D01*
X21660Y-14355D01*
X21642Y-14346D01*
X21454Y-14346D02*
X21435Y-14346D01*
X21416Y-14355D01*
X21407Y-14364D01*
X21398Y-14383D01*
X21388Y-14421D01*
X21388Y-14468D01*
X21398Y-14505D01*
X21407Y-14524D01*
X21416Y-14533D01*
X21435Y-14543D01*
X21454Y-14543D01*
X21473Y-14533D01*
X21482Y-14524D01*
X21492Y-14505D01*
X21501Y-14468D01*
X21501Y-14421D01*
X21492Y-14383D01*
X21482Y-14364D01*
X21473Y-14355D01*
X21454Y-14346D01*
X21304Y-14411D02*
X21304Y-14543D01*
X21304Y-14430D02*
X21295Y-14421D01*
X21276Y-14411D01*
X21248Y-14411D01*
X21229Y-14421D01*
X21219Y-14439D01*
X21219Y-14543D01*
X21365Y-3640D02*
X21375Y-3631D01*
X21384Y-3603D01*
X21384Y-3584D01*
X21375Y-3556D01*
X21356Y-3537D01*
X21337Y-3528D01*
X21300Y-3518D01*
X21271Y-3518D01*
X21234Y-3528D01*
X21215Y-3537D01*
X21196Y-3556D01*
X21187Y-3584D01*
X21187Y-3603D01*
X21196Y-3631D01*
X21206Y-3640D01*
X21187Y-3706D02*
X21187Y-3828D01*
X21262Y-3762D01*
X21262Y-3790D01*
X21271Y-3809D01*
X21281Y-3819D01*
X21300Y-3828D01*
X21346Y-3828D01*
X21365Y-3819D01*
X21375Y-3809D01*
X21384Y-3790D01*
X21384Y-3734D01*
X21375Y-3715D01*
X21365Y-3706D01*
X21206Y-3903D02*
X21196Y-3912D01*
X21187Y-3931D01*
X21187Y-3978D01*
X21196Y-3997D01*
X21206Y-4006D01*
X21225Y-4016D01*
X21243Y-4016D01*
X21271Y-4006D01*
X21384Y-3894D01*
X21384Y-4016D01*
X21109Y-3547D02*
X21109Y-3434D01*
X21109Y-3490D02*
X20912Y-3490D01*
X20940Y-3471D01*
X20959Y-3453D01*
X20968Y-3434D01*
X20912Y-3668D02*
X20912Y-3687D01*
X20921Y-3706D01*
X20931Y-3715D01*
X20950Y-3725D01*
X20987Y-3734D01*
X21034Y-3734D01*
X21071Y-3725D01*
X21090Y-3715D01*
X21100Y-3706D01*
X21109Y-3687D01*
X21109Y-3668D01*
X21100Y-3650D01*
X21090Y-3640D01*
X21071Y-3631D01*
X21034Y-3622D01*
X20987Y-3622D01*
X20950Y-3631D01*
X20931Y-3640D01*
X20921Y-3650D01*
X20912Y-3668D01*
X20912Y-3856D02*
X20912Y-3875D01*
X20921Y-3894D01*
X20931Y-3903D01*
X20950Y-3912D01*
X20987Y-3922D01*
X21034Y-3922D01*
X21071Y-3912D01*
X21090Y-3903D01*
X21100Y-3894D01*
X21109Y-3875D01*
X21109Y-3856D01*
X21100Y-3837D01*
X21090Y-3828D01*
X21071Y-3819D01*
X21034Y-3809D01*
X20987Y-3809D01*
X20950Y-3819D01*
X20931Y-3828D01*
X20921Y-3837D01*
X20912Y-3856D01*
X20978Y-4006D02*
X21109Y-4006D01*
X20996Y-4006D02*
X20987Y-4016D01*
X20978Y-4034D01*
X20978Y-4062D01*
X20987Y-4081D01*
X21006Y-4091D01*
X21109Y-4091D01*
X21872Y-2228D02*
X21779Y-2162D01*
X21872Y-2115D02*
X21675Y-2115D01*
X21675Y-2190D01*
X21685Y-2209D01*
X21694Y-2218D01*
X21713Y-2228D01*
X21741Y-2228D01*
X21760Y-2218D01*
X21769Y-2209D01*
X21779Y-2190D01*
X21779Y-2115D01*
X21694Y-2303D02*
X21685Y-2312D01*
X21675Y-2331D01*
X21675Y-2378D01*
X21685Y-2397D01*
X21694Y-2406D01*
X21713Y-2415D01*
X21732Y-2415D01*
X21760Y-2406D01*
X21872Y-2293D01*
X21872Y-2415D01*
X21872Y-2509D02*
X21872Y-2547D01*
X21863Y-2565D01*
X21854Y-2575D01*
X21826Y-2594D01*
X21788Y-2603D01*
X21713Y-2603D01*
X21694Y-2594D01*
X21685Y-2584D01*
X21675Y-2565D01*
X21675Y-2528D01*
X21685Y-2509D01*
X21694Y-2500D01*
X21713Y-2490D01*
X21760Y-2490D01*
X21779Y-2500D01*
X21788Y-2509D01*
X21797Y-2528D01*
X21797Y-2565D01*
X21788Y-2584D01*
X21779Y-2594D01*
X21760Y-2603D01*
X22147Y-2237D02*
X22147Y-2125D01*
X22147Y-2181D02*
X21950Y-2181D01*
X21979Y-2162D01*
X21997Y-2143D01*
X22007Y-2125D01*
X21950Y-2359D02*
X21950Y-2378D01*
X21960Y-2397D01*
X21969Y-2406D01*
X21988Y-2415D01*
X22025Y-2425D01*
X22072Y-2425D01*
X22110Y-2415D01*
X22129Y-2406D01*
X22138Y-2397D01*
X22147Y-2378D01*
X22147Y-2359D01*
X22138Y-2340D01*
X22129Y-2331D01*
X22110Y-2322D01*
X22072Y-2312D01*
X22025Y-2312D01*
X21988Y-2322D01*
X21969Y-2331D01*
X21960Y-2340D01*
X21950Y-2359D01*
X22147Y-2509D02*
X21950Y-2509D01*
X22072Y-2528D02*
X22147Y-2584D01*
X22016Y-2584D02*
X22091Y-2509D01*
X21872Y-3645D02*
X21779Y-3579D01*
X21872Y-3532D02*
X21675Y-3532D01*
X21675Y-3608D01*
X21685Y-3626D01*
X21694Y-3636D01*
X21713Y-3645D01*
X21741Y-3645D01*
X21760Y-3636D01*
X21769Y-3626D01*
X21779Y-3608D01*
X21779Y-3532D01*
X21675Y-3711D02*
X21675Y-3833D01*
X21750Y-3767D01*
X21750Y-3795D01*
X21760Y-3814D01*
X21769Y-3823D01*
X21788Y-3833D01*
X21835Y-3833D01*
X21854Y-3823D01*
X21863Y-3814D01*
X21872Y-3795D01*
X21872Y-3739D01*
X21863Y-3720D01*
X21854Y-3711D01*
X21741Y-4002D02*
X21872Y-4002D01*
X21666Y-3955D02*
X21807Y-3908D01*
X21807Y-4030D01*
X22147Y-3654D02*
X22147Y-3542D01*
X22147Y-3598D02*
X21950Y-3598D01*
X21979Y-3579D01*
X21997Y-3561D01*
X22007Y-3542D01*
X22147Y-3739D02*
X21950Y-3739D01*
X22072Y-3758D02*
X22147Y-3814D01*
X22016Y-3814D02*
X22091Y-3739D01*
X22147Y-4002D02*
X22147Y-3889D01*
X22147Y-3945D02*
X21950Y-3945D01*
X21979Y-3926D01*
X21997Y-3908D01*
X22007Y-3889D01*
X22989Y-4889D02*
X22999Y-4898D01*
X23027Y-4908D01*
X23045Y-4908D01*
X23074Y-4898D01*
X23092Y-4879D01*
X23102Y-4861D01*
X23111Y-4823D01*
X23111Y-4795D01*
X23102Y-4757D01*
X23092Y-4739D01*
X23074Y-4720D01*
X23045Y-4711D01*
X23027Y-4711D01*
X22999Y-4720D01*
X22989Y-4729D01*
X22924Y-4711D02*
X22802Y-4711D01*
X22867Y-4786D01*
X22839Y-4786D01*
X22820Y-4795D01*
X22811Y-4804D01*
X22802Y-4823D01*
X22802Y-4870D01*
X22811Y-4889D01*
X22820Y-4898D01*
X22839Y-4908D01*
X22895Y-4908D01*
X22914Y-4898D01*
X22924Y-4889D01*
X22614Y-4908D02*
X22727Y-4908D01*
X22670Y-4908D02*
X22670Y-4711D01*
X22689Y-4739D01*
X22708Y-4757D01*
X22727Y-4767D01*
X23102Y-5004D02*
X23092Y-4995D01*
X23074Y-4986D01*
X23027Y-4986D01*
X23008Y-4995D01*
X22999Y-5004D01*
X22989Y-5023D01*
X22989Y-5042D01*
X22999Y-5070D01*
X23111Y-5183D01*
X22989Y-5183D01*
X22905Y-5051D02*
X22905Y-5183D01*
X22905Y-5070D02*
X22895Y-5061D01*
X22877Y-5051D01*
X22848Y-5051D01*
X22830Y-5061D01*
X22820Y-5079D01*
X22820Y-5183D01*
X22736Y-5004D02*
X22727Y-4995D01*
X22708Y-4986D01*
X22661Y-4986D01*
X22642Y-4995D01*
X22633Y-5004D01*
X22623Y-5023D01*
X22623Y-5042D01*
X22633Y-5070D01*
X22745Y-5183D01*
X22623Y-5183D01*
X22326Y-1283D02*
X22335Y-1292D01*
X22363Y-1302D01*
X22382Y-1302D01*
X22410Y-1292D01*
X22429Y-1274D01*
X22438Y-1255D01*
X22448Y-1217D01*
X22448Y-1189D01*
X22438Y-1152D01*
X22429Y-1133D01*
X22410Y-1114D01*
X22382Y-1105D01*
X22363Y-1105D01*
X22335Y-1114D01*
X22326Y-1123D01*
X22251Y-1123D02*
X22241Y-1114D01*
X22223Y-1105D01*
X22176Y-1105D01*
X22157Y-1114D01*
X22148Y-1123D01*
X22138Y-1142D01*
X22138Y-1161D01*
X22148Y-1189D01*
X22260Y-1302D01*
X22138Y-1302D01*
X22026Y-1189D02*
X22044Y-1180D01*
X22054Y-1170D01*
X22063Y-1152D01*
X22063Y-1142D01*
X22054Y-1123D01*
X22044Y-1114D01*
X22026Y-1105D01*
X21988Y-1105D01*
X21969Y-1114D01*
X21960Y-1123D01*
X21951Y-1142D01*
X21951Y-1152D01*
X21960Y-1170D01*
X21969Y-1180D01*
X21988Y-1189D01*
X22026Y-1189D01*
X22044Y-1199D01*
X22054Y-1208D01*
X22063Y-1227D01*
X22063Y-1264D01*
X22054Y-1283D01*
X22044Y-1292D01*
X22026Y-1302D01*
X21988Y-1302D01*
X21969Y-1292D01*
X21960Y-1283D01*
X21951Y-1264D01*
X21951Y-1227D01*
X21960Y-1208D01*
X21969Y-1199D01*
X21988Y-1189D01*
X22420Y-1577D02*
X22532Y-1577D01*
X22476Y-1577D02*
X22476Y-1380D01*
X22495Y-1408D01*
X22514Y-1427D01*
X22532Y-1436D01*
X22298Y-1380D02*
X22279Y-1380D01*
X22260Y-1389D01*
X22251Y-1398D01*
X22241Y-1417D01*
X22232Y-1455D01*
X22232Y-1502D01*
X22241Y-1539D01*
X22251Y-1558D01*
X22260Y-1567D01*
X22279Y-1577D01*
X22298Y-1577D01*
X22317Y-1567D01*
X22326Y-1558D01*
X22335Y-1539D01*
X22345Y-1502D01*
X22345Y-1455D01*
X22335Y-1417D01*
X22326Y-1398D01*
X22317Y-1389D01*
X22298Y-1380D01*
X22110Y-1380D02*
X22091Y-1380D01*
X22073Y-1389D01*
X22063Y-1398D01*
X22054Y-1417D01*
X22044Y-1455D01*
X22044Y-1502D01*
X22054Y-1539D01*
X22063Y-1558D01*
X22073Y-1567D01*
X22091Y-1577D01*
X22110Y-1577D01*
X22129Y-1567D01*
X22138Y-1558D01*
X22148Y-1539D01*
X22157Y-1502D01*
X22157Y-1455D01*
X22148Y-1417D01*
X22138Y-1398D01*
X22129Y-1389D01*
X22110Y-1380D01*
X21960Y-1445D02*
X21960Y-1577D01*
X21960Y-1464D02*
X21951Y-1455D01*
X21932Y-1445D01*
X21904Y-1445D01*
X21885Y-1455D01*
X21876Y-1474D01*
X21876Y-1577D01*
X23646Y-1302D02*
X23712Y-1208D01*
X23758Y-1302D02*
X23758Y-1105D01*
X23683Y-1105D01*
X23665Y-1114D01*
X23655Y-1123D01*
X23646Y-1142D01*
X23646Y-1170D01*
X23655Y-1189D01*
X23665Y-1199D01*
X23683Y-1208D01*
X23758Y-1208D01*
X23571Y-1123D02*
X23561Y-1114D01*
X23543Y-1105D01*
X23496Y-1105D01*
X23477Y-1114D01*
X23468Y-1123D01*
X23458Y-1142D01*
X23458Y-1161D01*
X23468Y-1189D01*
X23580Y-1302D01*
X23458Y-1302D01*
X23346Y-1189D02*
X23364Y-1180D01*
X23374Y-1170D01*
X23383Y-1152D01*
X23383Y-1142D01*
X23374Y-1123D01*
X23364Y-1114D01*
X23346Y-1105D01*
X23308Y-1105D01*
X23289Y-1114D01*
X23280Y-1123D01*
X23271Y-1142D01*
X23271Y-1152D01*
X23280Y-1170D01*
X23289Y-1180D01*
X23308Y-1189D01*
X23346Y-1189D01*
X23364Y-1199D01*
X23374Y-1208D01*
X23383Y-1227D01*
X23383Y-1264D01*
X23374Y-1283D01*
X23364Y-1292D01*
X23346Y-1302D01*
X23308Y-1302D01*
X23289Y-1292D01*
X23280Y-1283D01*
X23271Y-1264D01*
X23271Y-1227D01*
X23280Y-1208D01*
X23289Y-1199D01*
X23308Y-1189D01*
X23763Y-1380D02*
X23744Y-1380D01*
X23726Y-1389D01*
X23716Y-1398D01*
X23707Y-1417D01*
X23698Y-1455D01*
X23698Y-1502D01*
X23707Y-1539D01*
X23716Y-1558D01*
X23726Y-1567D01*
X23744Y-1577D01*
X23763Y-1577D01*
X23782Y-1567D01*
X23791Y-1558D01*
X23801Y-1539D01*
X23810Y-1502D01*
X23810Y-1455D01*
X23801Y-1417D01*
X23791Y-1398D01*
X23782Y-1389D01*
X23763Y-1380D01*
X23613Y-1558D02*
X23604Y-1567D01*
X23613Y-1577D01*
X23622Y-1567D01*
X23613Y-1558D01*
X23613Y-1577D01*
X23416Y-1577D02*
X23529Y-1577D01*
X23472Y-1577D02*
X23472Y-1380D01*
X23491Y-1408D01*
X23510Y-1427D01*
X23529Y-1436D01*
X23238Y-1380D02*
X23332Y-1380D01*
X23341Y-1474D01*
X23332Y-1464D01*
X23313Y-1455D01*
X23266Y-1455D01*
X23247Y-1464D01*
X23238Y-1474D01*
X23228Y-1492D01*
X23228Y-1539D01*
X23238Y-1558D01*
X23247Y-1567D01*
X23266Y-1577D01*
X23313Y-1577D01*
X23332Y-1567D01*
X23341Y-1558D01*
X28414Y-15992D02*
X28479Y-15898D01*
X28526Y-15992D02*
X28526Y-15795D01*
X28451Y-15795D01*
X28432Y-15804D01*
X28423Y-15813D01*
X28414Y-15832D01*
X28414Y-15860D01*
X28423Y-15879D01*
X28432Y-15888D01*
X28451Y-15898D01*
X28526Y-15898D01*
X28226Y-15992D02*
X28338Y-15992D01*
X28282Y-15992D02*
X28282Y-15795D01*
X28301Y-15823D01*
X28320Y-15842D01*
X28338Y-15851D01*
X28132Y-15992D02*
X28095Y-15992D01*
X28076Y-15982D01*
X28066Y-15973D01*
X28048Y-15945D01*
X28038Y-15907D01*
X28038Y-15832D01*
X28048Y-15813D01*
X28057Y-15804D01*
X28076Y-15795D01*
X28113Y-15795D01*
X28132Y-15804D01*
X28141Y-15813D01*
X28151Y-15832D01*
X28151Y-15879D01*
X28141Y-15898D01*
X28132Y-15907D01*
X28113Y-15917D01*
X28076Y-15917D01*
X28057Y-15907D01*
X28048Y-15898D01*
X28038Y-15879D01*
X28310Y-15717D02*
X28423Y-15717D01*
X28367Y-15717D02*
X28367Y-15520D01*
X28385Y-15548D01*
X28404Y-15567D01*
X28423Y-15576D01*
X28226Y-15717D02*
X28226Y-15520D01*
X28207Y-15642D02*
X28151Y-15717D01*
X28151Y-15585D02*
X28226Y-15660D01*
X20489Y-7373D02*
X20498Y-7364D01*
X20508Y-7336D01*
X20508Y-7317D01*
X20498Y-7289D01*
X20480Y-7270D01*
X20461Y-7261D01*
X20423Y-7251D01*
X20395Y-7251D01*
X20358Y-7261D01*
X20339Y-7270D01*
X20320Y-7289D01*
X20311Y-7317D01*
X20311Y-7336D01*
X20320Y-7364D01*
X20329Y-7373D01*
X20329Y-7448D02*
X20320Y-7458D01*
X20311Y-7476D01*
X20311Y-7523D01*
X20320Y-7542D01*
X20329Y-7551D01*
X20348Y-7561D01*
X20367Y-7561D01*
X20395Y-7551D01*
X20508Y-7439D01*
X20508Y-7561D01*
X20311Y-7730D02*
X20311Y-7692D01*
X20320Y-7673D01*
X20329Y-7664D01*
X20358Y-7645D01*
X20395Y-7636D01*
X20470Y-7636D01*
X20489Y-7645D01*
X20498Y-7655D01*
X20508Y-7673D01*
X20508Y-7711D01*
X20498Y-7730D01*
X20489Y-7739D01*
X20470Y-7748D01*
X20423Y-7748D01*
X20405Y-7739D01*
X20395Y-7730D01*
X20386Y-7711D01*
X20386Y-7673D01*
X20395Y-7655D01*
X20405Y-7645D01*
X20423Y-7636D01*
X20783Y-7279D02*
X20783Y-7167D01*
X20783Y-7223D02*
X20586Y-7223D01*
X20614Y-7204D01*
X20633Y-7186D01*
X20642Y-7167D01*
X20586Y-7401D02*
X20586Y-7420D01*
X20595Y-7439D01*
X20604Y-7448D01*
X20623Y-7458D01*
X20661Y-7467D01*
X20708Y-7467D01*
X20745Y-7458D01*
X20764Y-7448D01*
X20773Y-7439D01*
X20783Y-7420D01*
X20783Y-7401D01*
X20773Y-7383D01*
X20764Y-7373D01*
X20745Y-7364D01*
X20708Y-7354D01*
X20661Y-7354D01*
X20623Y-7364D01*
X20604Y-7373D01*
X20595Y-7383D01*
X20586Y-7401D01*
X20586Y-7589D02*
X20586Y-7608D01*
X20595Y-7627D01*
X20604Y-7636D01*
X20623Y-7645D01*
X20661Y-7655D01*
X20708Y-7655D01*
X20745Y-7645D01*
X20764Y-7636D01*
X20773Y-7627D01*
X20783Y-7608D01*
X20783Y-7589D01*
X20773Y-7570D01*
X20764Y-7561D01*
X20745Y-7551D01*
X20708Y-7542D01*
X20661Y-7542D01*
X20623Y-7551D01*
X20604Y-7561D01*
X20595Y-7570D01*
X20586Y-7589D01*
X20651Y-7739D02*
X20783Y-7739D01*
X20670Y-7739D02*
X20661Y-7748D01*
X20651Y-7767D01*
X20651Y-7795D01*
X20661Y-7814D01*
X20680Y-7824D01*
X20783Y-7824D01*
X17597Y-8702D02*
X17606Y-8692D01*
X17616Y-8664D01*
X17616Y-8645D01*
X17606Y-8617D01*
X17588Y-8598D01*
X17569Y-8589D01*
X17531Y-8580D01*
X17503Y-8580D01*
X17466Y-8589D01*
X17447Y-8598D01*
X17428Y-8617D01*
X17419Y-8645D01*
X17419Y-8664D01*
X17428Y-8692D01*
X17437Y-8702D01*
X17437Y-8777D02*
X17428Y-8786D01*
X17419Y-8805D01*
X17419Y-8852D01*
X17428Y-8870D01*
X17437Y-8880D01*
X17456Y-8889D01*
X17475Y-8889D01*
X17503Y-8880D01*
X17616Y-8767D01*
X17616Y-8889D01*
X17419Y-8955D02*
X17419Y-9086D01*
X17616Y-9002D01*
X17341Y-8608D02*
X17341Y-8495D01*
X17341Y-8552D02*
X17144Y-8552D01*
X17172Y-8533D01*
X17191Y-8514D01*
X17200Y-8495D01*
X17144Y-8730D02*
X17144Y-8749D01*
X17153Y-8767D01*
X17162Y-8777D01*
X17181Y-8786D01*
X17219Y-8795D01*
X17266Y-8795D01*
X17303Y-8786D01*
X17322Y-8777D01*
X17331Y-8767D01*
X17341Y-8749D01*
X17341Y-8730D01*
X17331Y-8711D01*
X17322Y-8702D01*
X17303Y-8692D01*
X17266Y-8683D01*
X17219Y-8683D01*
X17181Y-8692D01*
X17162Y-8702D01*
X17153Y-8711D01*
X17144Y-8730D01*
X17144Y-8917D02*
X17144Y-8936D01*
X17153Y-8955D01*
X17162Y-8964D01*
X17181Y-8974D01*
X17219Y-8983D01*
X17266Y-8983D01*
X17303Y-8974D01*
X17322Y-8964D01*
X17331Y-8955D01*
X17341Y-8936D01*
X17341Y-8917D01*
X17331Y-8899D01*
X17322Y-8889D01*
X17303Y-8880D01*
X17266Y-8870D01*
X17219Y-8870D01*
X17181Y-8880D01*
X17162Y-8889D01*
X17153Y-8899D01*
X17144Y-8917D01*
X17209Y-9067D02*
X17341Y-9067D01*
X17228Y-9067D02*
X17219Y-9077D01*
X17209Y-9096D01*
X17209Y-9124D01*
X17219Y-9143D01*
X17237Y-9152D01*
X17341Y-9152D01*
X26878Y-11957D02*
X26887Y-11967D01*
X26916Y-11976D01*
X26934Y-11976D01*
X26963Y-11967D01*
X26981Y-11948D01*
X26991Y-11929D01*
X27000Y-11891D01*
X27000Y-11863D01*
X26991Y-11826D01*
X26981Y-11807D01*
X26963Y-11788D01*
X26934Y-11779D01*
X26916Y-11779D01*
X26887Y-11788D01*
X26878Y-11798D01*
X26709Y-11845D02*
X26709Y-11976D01*
X26756Y-11770D02*
X26803Y-11910D01*
X26681Y-11910D01*
X26615Y-11798D02*
X26606Y-11788D01*
X26587Y-11779D01*
X26540Y-11779D01*
X26522Y-11788D01*
X26512Y-11798D01*
X26503Y-11816D01*
X26503Y-11835D01*
X26512Y-11863D01*
X26625Y-11976D01*
X26503Y-11976D01*
X26972Y-11701D02*
X27084Y-11701D01*
X27028Y-11701D02*
X27028Y-11504D01*
X27047Y-11532D01*
X27066Y-11551D01*
X27084Y-11560D01*
X26850Y-11504D02*
X26831Y-11504D01*
X26812Y-11513D01*
X26803Y-11523D01*
X26794Y-11541D01*
X26784Y-11579D01*
X26784Y-11626D01*
X26794Y-11663D01*
X26803Y-11682D01*
X26812Y-11692D01*
X26831Y-11701D01*
X26850Y-11701D01*
X26869Y-11692D01*
X26878Y-11682D01*
X26887Y-11663D01*
X26897Y-11626D01*
X26897Y-11579D01*
X26887Y-11541D01*
X26878Y-11523D01*
X26869Y-11513D01*
X26850Y-11504D01*
X26662Y-11504D02*
X26644Y-11504D01*
X26625Y-11513D01*
X26615Y-11523D01*
X26606Y-11541D01*
X26597Y-11579D01*
X26597Y-11626D01*
X26606Y-11663D01*
X26615Y-11682D01*
X26625Y-11692D01*
X26644Y-11701D01*
X26662Y-11701D01*
X26681Y-11692D01*
X26690Y-11682D01*
X26700Y-11663D01*
X26709Y-11626D01*
X26709Y-11579D01*
X26700Y-11541D01*
X26690Y-11523D01*
X26681Y-11513D01*
X26662Y-11504D01*
X26512Y-11570D02*
X26512Y-11701D01*
X26512Y-11588D02*
X26503Y-11579D01*
X26484Y-11570D01*
X26456Y-11570D01*
X26437Y-11579D01*
X26428Y-11598D01*
X26428Y-11701D01*
X28414Y-14989D02*
X28423Y-14998D01*
X28451Y-15007D01*
X28470Y-15007D01*
X28498Y-14998D01*
X28517Y-14979D01*
X28526Y-14960D01*
X28535Y-14923D01*
X28535Y-14895D01*
X28526Y-14857D01*
X28517Y-14839D01*
X28498Y-14820D01*
X28470Y-14810D01*
X28451Y-14810D01*
X28423Y-14820D01*
X28414Y-14829D01*
X28348Y-14810D02*
X28226Y-14810D01*
X28292Y-14885D01*
X28263Y-14885D01*
X28245Y-14895D01*
X28235Y-14904D01*
X28226Y-14923D01*
X28226Y-14970D01*
X28235Y-14989D01*
X28245Y-14998D01*
X28263Y-15007D01*
X28320Y-15007D01*
X28338Y-14998D01*
X28348Y-14989D01*
X28132Y-15007D02*
X28095Y-15007D01*
X28076Y-14998D01*
X28066Y-14989D01*
X28048Y-14960D01*
X28038Y-14923D01*
X28038Y-14848D01*
X28048Y-14829D01*
X28057Y-14820D01*
X28076Y-14810D01*
X28113Y-14810D01*
X28132Y-14820D01*
X28141Y-14829D01*
X28151Y-14848D01*
X28151Y-14895D01*
X28141Y-14914D01*
X28132Y-14923D01*
X28113Y-14932D01*
X28076Y-14932D01*
X28057Y-14923D01*
X28048Y-14914D01*
X28038Y-14895D01*
X28507Y-14732D02*
X28620Y-14732D01*
X28564Y-14732D02*
X28564Y-14535D01*
X28582Y-14564D01*
X28601Y-14582D01*
X28620Y-14592D01*
X28385Y-14535D02*
X28367Y-14535D01*
X28348Y-14545D01*
X28338Y-14554D01*
X28329Y-14573D01*
X28320Y-14610D01*
X28320Y-14657D01*
X28329Y-14695D01*
X28338Y-14714D01*
X28348Y-14723D01*
X28367Y-14732D01*
X28385Y-14732D01*
X28404Y-14723D01*
X28414Y-14714D01*
X28423Y-14695D01*
X28432Y-14657D01*
X28432Y-14610D01*
X28423Y-14573D01*
X28414Y-14554D01*
X28404Y-14545D01*
X28385Y-14535D01*
X28198Y-14535D02*
X28179Y-14535D01*
X28160Y-14545D01*
X28151Y-14554D01*
X28141Y-14573D01*
X28132Y-14610D01*
X28132Y-14657D01*
X28141Y-14695D01*
X28151Y-14714D01*
X28160Y-14723D01*
X28179Y-14732D01*
X28198Y-14732D01*
X28217Y-14723D01*
X28226Y-14714D01*
X28235Y-14695D01*
X28245Y-14657D01*
X28245Y-14610D01*
X28235Y-14573D01*
X28226Y-14554D01*
X28217Y-14545D01*
X28198Y-14535D01*
X28048Y-14601D02*
X28048Y-14732D01*
X28048Y-14620D02*
X28038Y-14610D01*
X28020Y-14601D01*
X27991Y-14601D01*
X27973Y-14610D01*
X27963Y-14629D01*
X27963Y-14732D01*
X18532Y-15106D02*
X18597Y-15012D01*
X18644Y-15106D02*
X18644Y-14909D01*
X18569Y-14909D01*
X18550Y-14918D01*
X18541Y-14928D01*
X18532Y-14946D01*
X18532Y-14974D01*
X18541Y-14993D01*
X18550Y-15003D01*
X18569Y-15012D01*
X18644Y-15012D01*
X18457Y-14928D02*
X18447Y-14918D01*
X18428Y-14909D01*
X18382Y-14909D01*
X18363Y-14918D01*
X18353Y-14928D01*
X18344Y-14946D01*
X18344Y-14965D01*
X18353Y-14993D01*
X18466Y-15106D01*
X18344Y-15106D01*
X18278Y-14909D02*
X18147Y-14909D01*
X18231Y-15106D01*
X18428Y-14831D02*
X18541Y-14831D01*
X18485Y-14831D02*
X18485Y-14634D01*
X18504Y-14662D01*
X18522Y-14681D01*
X18541Y-14690D01*
X18344Y-14831D02*
X18344Y-14634D01*
X18325Y-14756D02*
X18269Y-14831D01*
X18269Y-14699D02*
X18344Y-14775D01*
X31169Y-16228D02*
X31235Y-16134D01*
X31282Y-16228D02*
X31282Y-16031D01*
X31207Y-16031D01*
X31188Y-16040D01*
X31179Y-16050D01*
X31169Y-16068D01*
X31169Y-16097D01*
X31179Y-16115D01*
X31188Y-16125D01*
X31207Y-16134D01*
X31282Y-16134D01*
X31094Y-16050D02*
X31085Y-16040D01*
X31066Y-16031D01*
X31019Y-16031D01*
X31001Y-16040D01*
X30991Y-16050D01*
X30982Y-16068D01*
X30982Y-16087D01*
X30991Y-16115D01*
X31104Y-16228D01*
X30982Y-16228D01*
X30813Y-16031D02*
X30850Y-16031D01*
X30869Y-16040D01*
X30879Y-16050D01*
X30897Y-16078D01*
X30907Y-16115D01*
X30907Y-16190D01*
X30897Y-16209D01*
X30888Y-16218D01*
X30869Y-16228D01*
X30832Y-16228D01*
X30813Y-16218D01*
X30804Y-16209D01*
X30794Y-16190D01*
X30794Y-16143D01*
X30804Y-16125D01*
X30813Y-16115D01*
X30832Y-16106D01*
X30869Y-16106D01*
X30888Y-16115D01*
X30897Y-16125D01*
X30907Y-16143D01*
X31066Y-15953D02*
X31179Y-15953D01*
X31123Y-15953D02*
X31123Y-15756D01*
X31141Y-15784D01*
X31160Y-15803D01*
X31179Y-15812D01*
X30982Y-15953D02*
X30982Y-15756D01*
X30963Y-15878D02*
X30907Y-15953D01*
X30907Y-15822D02*
X30982Y-15897D01*
X1305Y-11021D02*
X1371Y-10927D01*
X1418Y-11021D02*
X1418Y-10824D01*
X1343Y-10824D01*
X1324Y-10834D01*
X1314Y-10843D01*
X1305Y-10862D01*
X1305Y-10890D01*
X1314Y-10909D01*
X1324Y-10918D01*
X1343Y-10927D01*
X1418Y-10927D01*
X1117Y-11021D02*
X1230Y-11021D01*
X1174Y-11021D02*
X1174Y-10824D01*
X1192Y-10852D01*
X1211Y-10871D01*
X1230Y-10880D01*
X995Y-10824D02*
X977Y-10824D01*
X958Y-10834D01*
X949Y-10843D01*
X939Y-10862D01*
X930Y-10899D01*
X930Y-10946D01*
X939Y-10984D01*
X949Y-11002D01*
X958Y-11012D01*
X977Y-11021D01*
X995Y-11021D01*
X1014Y-11012D01*
X1024Y-11002D01*
X1033Y-10984D01*
X1042Y-10946D01*
X1042Y-10899D01*
X1033Y-10862D01*
X1024Y-10843D01*
X1014Y-10834D01*
X995Y-10824D01*
X1244Y-11099D02*
X1122Y-11099D01*
X1188Y-11174D01*
X1160Y-11174D01*
X1141Y-11184D01*
X1131Y-11193D01*
X1122Y-11212D01*
X1122Y-11259D01*
X1131Y-11277D01*
X1141Y-11287D01*
X1160Y-11296D01*
X1216Y-11296D01*
X1235Y-11287D01*
X1244Y-11277D01*
X28787Y-13436D02*
X28693Y-13370D01*
X28787Y-13323D02*
X28590Y-13323D01*
X28590Y-13398D01*
X28599Y-13417D01*
X28609Y-13426D01*
X28627Y-13436D01*
X28656Y-13436D01*
X28674Y-13426D01*
X28684Y-13417D01*
X28693Y-13398D01*
X28693Y-13323D01*
X28590Y-13502D02*
X28590Y-13623D01*
X28665Y-13558D01*
X28665Y-13586D01*
X28674Y-13605D01*
X28684Y-13614D01*
X28702Y-13623D01*
X28749Y-13623D01*
X28768Y-13614D01*
X28778Y-13605D01*
X28787Y-13586D01*
X28787Y-13530D01*
X28778Y-13511D01*
X28768Y-13502D01*
X28590Y-13802D02*
X28590Y-13708D01*
X28684Y-13699D01*
X28674Y-13708D01*
X28665Y-13727D01*
X28665Y-13774D01*
X28674Y-13792D01*
X28684Y-13802D01*
X28702Y-13811D01*
X28749Y-13811D01*
X28768Y-13802D01*
X28778Y-13792D01*
X28787Y-13774D01*
X28787Y-13727D01*
X28778Y-13708D01*
X28768Y-13699D01*
X28512Y-13539D02*
X28512Y-13426D01*
X28512Y-13483D02*
X28315Y-13483D01*
X28343Y-13464D01*
X28362Y-13445D01*
X28371Y-13426D01*
X28512Y-13623D02*
X28315Y-13623D01*
X28437Y-13642D02*
X28512Y-13699D01*
X28381Y-13699D02*
X28456Y-13623D01*
X2631Y-14831D02*
X2697Y-14737D01*
X2744Y-14831D02*
X2744Y-14634D01*
X2669Y-14634D01*
X2650Y-14644D01*
X2641Y-14653D01*
X2631Y-14672D01*
X2631Y-14700D01*
X2641Y-14719D01*
X2650Y-14728D01*
X2669Y-14737D01*
X2744Y-14737D01*
X2519Y-14719D02*
X2537Y-14709D01*
X2547Y-14700D01*
X2556Y-14681D01*
X2556Y-14672D01*
X2547Y-14653D01*
X2537Y-14644D01*
X2519Y-14634D01*
X2481Y-14634D01*
X2462Y-14644D01*
X2453Y-14653D01*
X2444Y-14672D01*
X2444Y-14681D01*
X2453Y-14700D01*
X2462Y-14709D01*
X2481Y-14719D01*
X2519Y-14719D01*
X2537Y-14728D01*
X2547Y-14737D01*
X2556Y-14756D01*
X2556Y-14794D01*
X2547Y-14812D01*
X2537Y-14822D01*
X2519Y-14831D01*
X2481Y-14831D01*
X2462Y-14822D01*
X2453Y-14812D01*
X2444Y-14794D01*
X2444Y-14756D01*
X2453Y-14737D01*
X2462Y-14728D01*
X2481Y-14719D01*
X2622Y-14556D02*
X2734Y-14556D01*
X2678Y-14556D02*
X2678Y-14359D01*
X2697Y-14387D01*
X2716Y-14406D01*
X2734Y-14415D01*
X2537Y-14556D02*
X2537Y-14359D01*
X2519Y-14481D02*
X2462Y-14556D01*
X2462Y-14425D02*
X2537Y-14500D01*
X2251Y-16761D02*
X2317Y-16667D01*
X2364Y-16761D02*
X2364Y-16564D01*
X2289Y-16564D01*
X2270Y-16574D01*
X2261Y-16583D01*
X2251Y-16602D01*
X2251Y-16630D01*
X2261Y-16649D01*
X2270Y-16658D01*
X2289Y-16667D01*
X2364Y-16667D01*
X2157Y-16761D02*
X2120Y-16761D01*
X2101Y-16752D01*
X2092Y-16742D01*
X2073Y-16714D01*
X2064Y-16677D01*
X2064Y-16602D01*
X2073Y-16583D01*
X2082Y-16574D01*
X2101Y-16564D01*
X2139Y-16564D01*
X2157Y-16574D01*
X2167Y-16583D01*
X2176Y-16602D01*
X2176Y-16649D01*
X2167Y-16667D01*
X2157Y-16677D01*
X2139Y-16686D01*
X2101Y-16686D01*
X2082Y-16677D01*
X2073Y-16667D01*
X2064Y-16649D01*
X2336Y-17036D02*
X2448Y-17036D01*
X2392Y-17036D02*
X2392Y-16839D01*
X2411Y-16867D01*
X2429Y-16886D01*
X2448Y-16895D01*
X2214Y-16839D02*
X2195Y-16839D01*
X2176Y-16849D01*
X2167Y-16858D01*
X2157Y-16877D01*
X2148Y-16914D01*
X2148Y-16961D01*
X2157Y-16999D01*
X2167Y-17017D01*
X2176Y-17027D01*
X2195Y-17036D01*
X2214Y-17036D01*
X2232Y-17027D01*
X2242Y-17017D01*
X2251Y-16999D01*
X2261Y-16961D01*
X2261Y-16914D01*
X2251Y-16877D01*
X2242Y-16858D01*
X2232Y-16849D01*
X2214Y-16839D01*
X2064Y-17036D02*
X2064Y-16839D01*
X2045Y-16961D02*
X1989Y-17036D01*
X1989Y-16905D02*
X2064Y-16980D01*
X2705Y-10491D02*
X2771Y-10397D01*
X2818Y-10491D02*
X2818Y-10294D01*
X2743Y-10294D01*
X2724Y-10304D01*
X2714Y-10313D01*
X2705Y-10332D01*
X2705Y-10360D01*
X2714Y-10379D01*
X2724Y-10388D01*
X2743Y-10397D01*
X2818Y-10397D01*
X2517Y-10491D02*
X2630Y-10491D01*
X2574Y-10491D02*
X2574Y-10294D01*
X2592Y-10322D01*
X2611Y-10341D01*
X2630Y-10350D01*
X2442Y-10313D02*
X2433Y-10304D01*
X2414Y-10294D01*
X2367Y-10294D01*
X2349Y-10304D01*
X2339Y-10313D01*
X2330Y-10332D01*
X2330Y-10350D01*
X2339Y-10379D01*
X2452Y-10491D01*
X2330Y-10491D01*
X2602Y-10216D02*
X2714Y-10216D01*
X2658Y-10216D02*
X2658Y-10019D01*
X2677Y-10047D01*
X2696Y-10066D01*
X2714Y-10075D01*
X2517Y-10216D02*
X2517Y-10019D01*
X2499Y-10141D02*
X2442Y-10216D01*
X2442Y-10085D02*
X2517Y-10160D01*
X2313Y-12720D02*
X2219Y-12654D01*
X2313Y-12607D02*
X2116Y-12607D01*
X2116Y-12682D01*
X2126Y-12701D01*
X2135Y-12710D01*
X2154Y-12720D01*
X2182Y-12720D01*
X2201Y-12710D01*
X2210Y-12701D01*
X2219Y-12682D01*
X2219Y-12607D01*
X2313Y-12907D02*
X2313Y-12795D01*
X2313Y-12851D02*
X2116Y-12851D01*
X2144Y-12832D01*
X2163Y-12814D01*
X2172Y-12795D01*
X2116Y-13086D02*
X2116Y-12992D01*
X2210Y-12982D01*
X2201Y-12992D01*
X2191Y-13011D01*
X2191Y-13058D01*
X2201Y-13076D01*
X2210Y-13086D01*
X2229Y-13095D01*
X2276Y-13095D01*
X2294Y-13086D01*
X2304Y-13076D01*
X2313Y-13058D01*
X2313Y-13011D01*
X2304Y-12992D01*
X2294Y-12982D01*
X2588Y-12729D02*
X2588Y-12617D01*
X2588Y-12673D02*
X2391Y-12673D01*
X2419Y-12654D01*
X2438Y-12635D01*
X2447Y-12617D01*
X2391Y-12851D02*
X2391Y-12870D01*
X2401Y-12889D01*
X2410Y-12898D01*
X2429Y-12907D01*
X2466Y-12917D01*
X2513Y-12917D01*
X2551Y-12907D01*
X2569Y-12898D01*
X2579Y-12889D01*
X2588Y-12870D01*
X2588Y-12851D01*
X2579Y-12832D01*
X2569Y-12823D01*
X2551Y-12814D01*
X2513Y-12804D01*
X2466Y-12804D01*
X2429Y-12814D01*
X2410Y-12823D01*
X2401Y-12832D01*
X2391Y-12851D01*
X2588Y-13001D02*
X2391Y-13001D01*
X2513Y-13020D02*
X2588Y-13076D01*
X2457Y-13076D02*
X2532Y-13001D01*
X1305Y-11761D02*
X1371Y-11667D01*
X1418Y-11761D02*
X1418Y-11564D01*
X1343Y-11564D01*
X1324Y-11574D01*
X1314Y-11583D01*
X1305Y-11602D01*
X1305Y-11630D01*
X1314Y-11649D01*
X1324Y-11658D01*
X1343Y-11667D01*
X1418Y-11667D01*
X1117Y-11761D02*
X1230Y-11761D01*
X1174Y-11761D02*
X1174Y-11564D01*
X1192Y-11592D01*
X1211Y-11611D01*
X1230Y-11620D01*
X930Y-11761D02*
X1042Y-11761D01*
X986Y-11761D02*
X986Y-11564D01*
X1005Y-11592D01*
X1024Y-11611D01*
X1042Y-11620D01*
X1244Y-11839D02*
X1122Y-11839D01*
X1188Y-11914D01*
X1160Y-11914D01*
X1141Y-11924D01*
X1131Y-11933D01*
X1122Y-11952D01*
X1122Y-11999D01*
X1131Y-12017D01*
X1141Y-12027D01*
X1160Y-12036D01*
X1216Y-12036D01*
X1235Y-12027D01*
X1244Y-12017D01*
X21937Y-11366D02*
X22003Y-11272D01*
X22050Y-11366D02*
X22050Y-11169D01*
X21975Y-11169D01*
X21956Y-11178D01*
X21947Y-11187D01*
X21937Y-11206D01*
X21937Y-11234D01*
X21947Y-11253D01*
X21956Y-11262D01*
X21975Y-11272D01*
X22050Y-11272D01*
X21768Y-11234D02*
X21768Y-11366D01*
X21815Y-11159D02*
X21862Y-11300D01*
X21740Y-11300D01*
X21628Y-11169D02*
X21609Y-11169D01*
X21590Y-11178D01*
X21581Y-11187D01*
X21571Y-11206D01*
X21562Y-11244D01*
X21562Y-11291D01*
X21571Y-11328D01*
X21581Y-11347D01*
X21590Y-11356D01*
X21609Y-11366D01*
X21628Y-11366D01*
X21646Y-11356D01*
X21656Y-11347D01*
X21665Y-11328D01*
X21675Y-11291D01*
X21675Y-11244D01*
X21665Y-11206D01*
X21656Y-11187D01*
X21646Y-11178D01*
X21628Y-11169D01*
X21937Y-10894D02*
X22031Y-10894D01*
X22040Y-10987D01*
X22031Y-10978D01*
X22012Y-10969D01*
X21965Y-10969D01*
X21947Y-10978D01*
X21937Y-10987D01*
X21928Y-11006D01*
X21928Y-11053D01*
X21937Y-11072D01*
X21947Y-11081D01*
X21965Y-11091D01*
X22012Y-11091D01*
X22031Y-11081D01*
X22040Y-11072D01*
X21843Y-11091D02*
X21843Y-10894D01*
X21825Y-11016D02*
X21768Y-11091D01*
X21768Y-10959D02*
X21843Y-11034D01*
X21703Y-10894D02*
X21581Y-10894D01*
X21646Y-10969D01*
X21618Y-10969D01*
X21599Y-10978D01*
X21590Y-10987D01*
X21581Y-11006D01*
X21581Y-11053D01*
X21590Y-11072D01*
X21599Y-11081D01*
X21618Y-11091D01*
X21674Y-11091D01*
X21693Y-11081D01*
X21703Y-11072D01*
X18951Y-10148D02*
X18961Y-10139D01*
X18970Y-10111D01*
X18970Y-10092D01*
X18961Y-10064D01*
X18942Y-10045D01*
X18923Y-10036D01*
X18886Y-10026D01*
X18857Y-10026D01*
X18820Y-10036D01*
X18801Y-10045D01*
X18782Y-10064D01*
X18773Y-10092D01*
X18773Y-10111D01*
X18782Y-10139D01*
X18792Y-10148D01*
X18792Y-10223D02*
X18782Y-10233D01*
X18773Y-10252D01*
X18773Y-10299D01*
X18782Y-10317D01*
X18792Y-10327D01*
X18811Y-10336D01*
X18829Y-10336D01*
X18857Y-10327D01*
X18970Y-10214D01*
X18970Y-10336D01*
X18773Y-10458D02*
X18773Y-10477D01*
X18782Y-10496D01*
X18792Y-10505D01*
X18811Y-10514D01*
X18848Y-10524D01*
X18895Y-10524D01*
X18932Y-10514D01*
X18951Y-10505D01*
X18961Y-10496D01*
X18970Y-10477D01*
X18970Y-10458D01*
X18961Y-10439D01*
X18951Y-10430D01*
X18932Y-10420D01*
X18895Y-10411D01*
X18848Y-10411D01*
X18811Y-10420D01*
X18792Y-10430D01*
X18782Y-10439D01*
X18773Y-10458D01*
X19245Y-10055D02*
X19245Y-9942D01*
X19245Y-9998D02*
X19048Y-9998D01*
X19076Y-9980D01*
X19095Y-9961D01*
X19104Y-9942D01*
X19048Y-10177D02*
X19048Y-10195D01*
X19057Y-10214D01*
X19067Y-10223D01*
X19086Y-10233D01*
X19123Y-10242D01*
X19170Y-10242D01*
X19207Y-10233D01*
X19226Y-10223D01*
X19236Y-10214D01*
X19245Y-10195D01*
X19245Y-10177D01*
X19236Y-10158D01*
X19226Y-10148D01*
X19207Y-10139D01*
X19170Y-10130D01*
X19123Y-10130D01*
X19086Y-10139D01*
X19067Y-10148D01*
X19057Y-10158D01*
X19048Y-10177D01*
X19048Y-10364D02*
X19048Y-10383D01*
X19057Y-10402D01*
X19067Y-10411D01*
X19086Y-10420D01*
X19123Y-10430D01*
X19170Y-10430D01*
X19207Y-10420D01*
X19226Y-10411D01*
X19236Y-10402D01*
X19245Y-10383D01*
X19245Y-10364D01*
X19236Y-10345D01*
X19226Y-10336D01*
X19207Y-10327D01*
X19170Y-10317D01*
X19123Y-10317D01*
X19086Y-10327D01*
X19067Y-10336D01*
X19057Y-10345D01*
X19048Y-10364D01*
X19114Y-10514D02*
X19245Y-10514D01*
X19132Y-10514D02*
X19123Y-10524D01*
X19114Y-10542D01*
X19114Y-10571D01*
X19123Y-10589D01*
X19142Y-10599D01*
X19245Y-10599D01*
X20767Y-8760D02*
X20673Y-8694D01*
X20767Y-8647D02*
X20570Y-8647D01*
X20570Y-8722D01*
X20579Y-8741D01*
X20589Y-8750D01*
X20608Y-8760D01*
X20636Y-8760D01*
X20654Y-8750D01*
X20664Y-8741D01*
X20673Y-8722D01*
X20673Y-8647D01*
X20589Y-8835D02*
X20579Y-8844D01*
X20570Y-8863D01*
X20570Y-8910D01*
X20579Y-8928D01*
X20589Y-8938D01*
X20608Y-8947D01*
X20626Y-8947D01*
X20654Y-8938D01*
X20767Y-8825D01*
X20767Y-8947D01*
X20589Y-9022D02*
X20579Y-9032D01*
X20570Y-9050D01*
X20570Y-9097D01*
X20579Y-9116D01*
X20589Y-9125D01*
X20608Y-9135D01*
X20626Y-9135D01*
X20654Y-9125D01*
X20767Y-9013D01*
X20767Y-9135D01*
X20492Y-8863D02*
X20492Y-8750D01*
X20492Y-8806D02*
X20295Y-8806D01*
X20323Y-8788D01*
X20342Y-8769D01*
X20351Y-8750D01*
X20492Y-8947D02*
X20295Y-8947D01*
X20417Y-8966D02*
X20492Y-9022D01*
X20361Y-9022D02*
X20436Y-8947D01*
X17597Y-7304D02*
X17606Y-7295D01*
X17616Y-7266D01*
X17616Y-7248D01*
X17606Y-7220D01*
X17588Y-7201D01*
X17569Y-7191D01*
X17531Y-7182D01*
X17503Y-7182D01*
X17466Y-7191D01*
X17447Y-7201D01*
X17428Y-7220D01*
X17419Y-7248D01*
X17419Y-7266D01*
X17428Y-7295D01*
X17437Y-7304D01*
X17437Y-7379D02*
X17428Y-7388D01*
X17419Y-7407D01*
X17419Y-7454D01*
X17428Y-7473D01*
X17437Y-7482D01*
X17456Y-7492D01*
X17475Y-7492D01*
X17503Y-7482D01*
X17616Y-7370D01*
X17616Y-7492D01*
X17419Y-7557D02*
X17419Y-7679D01*
X17494Y-7614D01*
X17494Y-7642D01*
X17503Y-7660D01*
X17512Y-7670D01*
X17531Y-7679D01*
X17578Y-7679D01*
X17597Y-7670D01*
X17606Y-7660D01*
X17616Y-7642D01*
X17616Y-7585D01*
X17606Y-7567D01*
X17597Y-7557D01*
X17341Y-7304D02*
X17341Y-7191D01*
X17341Y-7248D02*
X17144Y-7248D01*
X17172Y-7229D01*
X17191Y-7210D01*
X17200Y-7191D01*
X17144Y-7426D02*
X17144Y-7445D01*
X17153Y-7463D01*
X17162Y-7473D01*
X17181Y-7482D01*
X17219Y-7492D01*
X17266Y-7492D01*
X17303Y-7482D01*
X17322Y-7473D01*
X17331Y-7463D01*
X17341Y-7445D01*
X17341Y-7426D01*
X17331Y-7407D01*
X17322Y-7398D01*
X17303Y-7388D01*
X17266Y-7379D01*
X17219Y-7379D01*
X17181Y-7388D01*
X17162Y-7398D01*
X17153Y-7407D01*
X17144Y-7426D01*
X17209Y-7576D02*
X17341Y-7576D01*
X17228Y-7576D02*
X17219Y-7585D01*
X17209Y-7604D01*
X17209Y-7632D01*
X17219Y-7651D01*
X17237Y-7660D01*
X17341Y-7660D01*
X19698Y-10148D02*
X19605Y-10083D01*
X19698Y-10036D02*
X19501Y-10036D01*
X19501Y-10111D01*
X19511Y-10130D01*
X19520Y-10139D01*
X19539Y-10148D01*
X19567Y-10148D01*
X19586Y-10139D01*
X19595Y-10130D01*
X19605Y-10111D01*
X19605Y-10036D01*
X19698Y-10336D02*
X19698Y-10223D01*
X19698Y-10280D02*
X19501Y-10280D01*
X19529Y-10261D01*
X19548Y-10242D01*
X19558Y-10223D01*
X19586Y-10449D02*
X19576Y-10430D01*
X19567Y-10420D01*
X19548Y-10411D01*
X19539Y-10411D01*
X19520Y-10420D01*
X19511Y-10430D01*
X19501Y-10449D01*
X19501Y-10486D01*
X19511Y-10505D01*
X19520Y-10514D01*
X19539Y-10524D01*
X19548Y-10524D01*
X19567Y-10514D01*
X19576Y-10505D01*
X19586Y-10486D01*
X19586Y-10449D01*
X19595Y-10430D01*
X19605Y-10420D01*
X19623Y-10411D01*
X19661Y-10411D01*
X19680Y-10420D01*
X19689Y-10430D01*
X19698Y-10449D01*
X19698Y-10486D01*
X19689Y-10505D01*
X19680Y-10514D01*
X19661Y-10524D01*
X19623Y-10524D01*
X19605Y-10514D01*
X19595Y-10505D01*
X19586Y-10486D01*
X19973Y-10158D02*
X19973Y-10045D01*
X19973Y-10102D02*
X19776Y-10102D01*
X19804Y-10083D01*
X19823Y-10064D01*
X19833Y-10045D01*
X19776Y-10280D02*
X19776Y-10299D01*
X19786Y-10317D01*
X19795Y-10327D01*
X19814Y-10336D01*
X19851Y-10345D01*
X19898Y-10345D01*
X19936Y-10336D01*
X19955Y-10327D01*
X19964Y-10317D01*
X19973Y-10299D01*
X19973Y-10280D01*
X19964Y-10261D01*
X19955Y-10252D01*
X19936Y-10242D01*
X19898Y-10233D01*
X19851Y-10233D01*
X19814Y-10242D01*
X19795Y-10252D01*
X19786Y-10261D01*
X19776Y-10280D01*
X19973Y-10430D02*
X19776Y-10430D01*
X19898Y-10449D02*
X19973Y-10505D01*
X19842Y-10505D02*
X19917Y-10430D01*
X18492Y-10148D02*
X18398Y-10083D01*
X18492Y-10036D02*
X18295Y-10036D01*
X18295Y-10111D01*
X18304Y-10130D01*
X18313Y-10139D01*
X18332Y-10148D01*
X18360Y-10148D01*
X18379Y-10139D01*
X18388Y-10130D01*
X18398Y-10111D01*
X18398Y-10036D01*
X18492Y-10336D02*
X18492Y-10223D01*
X18492Y-10280D02*
X18295Y-10280D01*
X18323Y-10261D01*
X18342Y-10242D01*
X18351Y-10223D01*
X18295Y-10402D02*
X18295Y-10533D01*
X18492Y-10449D01*
X18217Y-10158D02*
X18217Y-10045D01*
X18217Y-10102D02*
X18020Y-10102D01*
X18048Y-10083D01*
X18067Y-10064D01*
X18076Y-10045D01*
X18020Y-10280D02*
X18020Y-10299D01*
X18029Y-10317D01*
X18038Y-10327D01*
X18057Y-10336D01*
X18095Y-10345D01*
X18142Y-10345D01*
X18179Y-10336D01*
X18198Y-10327D01*
X18207Y-10317D01*
X18217Y-10299D01*
X18217Y-10280D01*
X18207Y-10261D01*
X18198Y-10252D01*
X18179Y-10242D01*
X18142Y-10233D01*
X18095Y-10233D01*
X18057Y-10242D01*
X18038Y-10252D01*
X18029Y-10261D01*
X18020Y-10280D01*
X18217Y-10430D02*
X18020Y-10430D01*
X18142Y-10449D02*
X18217Y-10505D01*
X18085Y-10505D02*
X18160Y-10430D01*
X18790Y-6175D02*
X18856Y-6081D01*
X18902Y-6175D02*
X18902Y-5978D01*
X18827Y-5978D01*
X18809Y-5987D01*
X18799Y-5997D01*
X18790Y-6016D01*
X18790Y-6044D01*
X18799Y-6063D01*
X18809Y-6072D01*
X18827Y-6081D01*
X18902Y-6081D01*
X18715Y-5997D02*
X18705Y-5987D01*
X18687Y-5978D01*
X18640Y-5978D01*
X18621Y-5987D01*
X18612Y-5997D01*
X18602Y-6016D01*
X18602Y-6034D01*
X18612Y-6063D01*
X18724Y-6175D01*
X18602Y-6175D01*
X18424Y-5978D02*
X18518Y-5978D01*
X18527Y-6072D01*
X18518Y-6063D01*
X18499Y-6053D01*
X18452Y-6053D01*
X18433Y-6063D01*
X18424Y-6072D01*
X18415Y-6091D01*
X18415Y-6138D01*
X18424Y-6156D01*
X18433Y-6166D01*
X18452Y-6175D01*
X18499Y-6175D01*
X18518Y-6166D01*
X18527Y-6156D01*
X18799Y-6253D02*
X18837Y-6253D01*
X18856Y-6262D01*
X18865Y-6272D01*
X18884Y-6300D01*
X18893Y-6338D01*
X18893Y-6413D01*
X18884Y-6431D01*
X18874Y-6441D01*
X18856Y-6450D01*
X18818Y-6450D01*
X18799Y-6441D01*
X18790Y-6431D01*
X18780Y-6413D01*
X18780Y-6366D01*
X18790Y-6347D01*
X18799Y-6338D01*
X18818Y-6328D01*
X18856Y-6328D01*
X18874Y-6338D01*
X18884Y-6347D01*
X18893Y-6366D01*
X18696Y-6450D02*
X18696Y-6253D01*
X18677Y-6375D02*
X18621Y-6450D01*
X18621Y-6319D02*
X18696Y-6394D01*
X18508Y-6338D02*
X18527Y-6328D01*
X18537Y-6319D01*
X18546Y-6300D01*
X18546Y-6291D01*
X18537Y-6272D01*
X18527Y-6262D01*
X18508Y-6253D01*
X18471Y-6253D01*
X18452Y-6262D01*
X18443Y-6272D01*
X18433Y-6291D01*
X18433Y-6300D01*
X18443Y-6319D01*
X18452Y-6328D01*
X18471Y-6338D01*
X18508Y-6338D01*
X18527Y-6347D01*
X18537Y-6356D01*
X18546Y-6375D01*
X18546Y-6413D01*
X18537Y-6431D01*
X18527Y-6441D01*
X18508Y-6450D01*
X18471Y-6450D01*
X18452Y-6441D01*
X18443Y-6431D01*
X18433Y-6413D01*
X18433Y-6375D01*
X18443Y-6356D01*
X18452Y-6347D01*
X18471Y-6338D01*
X18790Y-5580D02*
X18799Y-5589D01*
X18827Y-5598D01*
X18846Y-5598D01*
X18874Y-5589D01*
X18893Y-5570D01*
X18902Y-5551D01*
X18912Y-5514D01*
X18912Y-5486D01*
X18902Y-5448D01*
X18893Y-5429D01*
X18874Y-5411D01*
X18846Y-5401D01*
X18827Y-5401D01*
X18799Y-5411D01*
X18790Y-5420D01*
X18715Y-5420D02*
X18705Y-5411D01*
X18687Y-5401D01*
X18640Y-5401D01*
X18621Y-5411D01*
X18612Y-5420D01*
X18602Y-5439D01*
X18602Y-5458D01*
X18612Y-5486D01*
X18724Y-5598D01*
X18602Y-5598D01*
X18424Y-5401D02*
X18518Y-5401D01*
X18527Y-5495D01*
X18518Y-5486D01*
X18499Y-5476D01*
X18452Y-5476D01*
X18433Y-5486D01*
X18424Y-5495D01*
X18415Y-5514D01*
X18415Y-5561D01*
X18424Y-5580D01*
X18433Y-5589D01*
X18452Y-5598D01*
X18499Y-5598D01*
X18518Y-5589D01*
X18527Y-5580D01*
X18790Y-5323D02*
X18902Y-5323D01*
X18846Y-5323D02*
X18846Y-5126D01*
X18865Y-5154D01*
X18884Y-5173D01*
X18902Y-5183D01*
X18668Y-5126D02*
X18649Y-5126D01*
X18630Y-5136D01*
X18621Y-5145D01*
X18612Y-5164D01*
X18602Y-5201D01*
X18602Y-5248D01*
X18612Y-5286D01*
X18621Y-5305D01*
X18630Y-5314D01*
X18649Y-5323D01*
X18668Y-5323D01*
X18687Y-5314D01*
X18696Y-5305D01*
X18705Y-5286D01*
X18715Y-5248D01*
X18715Y-5201D01*
X18705Y-5164D01*
X18696Y-5145D01*
X18687Y-5136D01*
X18668Y-5126D01*
X18518Y-5192D02*
X18518Y-5323D01*
X18518Y-5211D02*
X18508Y-5201D01*
X18490Y-5192D01*
X18462Y-5192D01*
X18443Y-5201D01*
X18433Y-5220D01*
X18433Y-5323D01*
X16248Y-6917D02*
X16314Y-6823D01*
X16361Y-6917D02*
X16361Y-6720D01*
X16286Y-6720D01*
X16267Y-6729D01*
X16258Y-6739D01*
X16248Y-6757D01*
X16248Y-6786D01*
X16258Y-6804D01*
X16267Y-6814D01*
X16286Y-6823D01*
X16361Y-6823D01*
X16173Y-6739D02*
X16164Y-6729D01*
X16145Y-6720D01*
X16098Y-6720D01*
X16079Y-6729D01*
X16070Y-6739D01*
X16061Y-6757D01*
X16061Y-6776D01*
X16070Y-6804D01*
X16183Y-6917D01*
X16061Y-6917D01*
X15939Y-6720D02*
X15920Y-6720D01*
X15901Y-6729D01*
X15892Y-6739D01*
X15882Y-6757D01*
X15873Y-6795D01*
X15873Y-6842D01*
X15882Y-6879D01*
X15892Y-6898D01*
X15901Y-6907D01*
X15920Y-6917D01*
X15939Y-6917D01*
X15957Y-6907D01*
X15967Y-6898D01*
X15976Y-6879D01*
X15986Y-6842D01*
X15986Y-6795D01*
X15976Y-6757D01*
X15967Y-6739D01*
X15957Y-6729D01*
X15939Y-6720D01*
X16159Y-6642D02*
X16272Y-6642D01*
X16215Y-6642D02*
X16215Y-6445D01*
X16234Y-6473D01*
X16253Y-6492D01*
X16272Y-6501D01*
X16037Y-6445D02*
X16018Y-6445D01*
X16000Y-6454D01*
X15990Y-6464D01*
X15981Y-6482D01*
X15971Y-6520D01*
X15971Y-6567D01*
X15981Y-6604D01*
X15990Y-6623D01*
X16000Y-6632D01*
X16018Y-6642D01*
X16037Y-6642D01*
X16056Y-6632D01*
X16065Y-6623D01*
X16075Y-6604D01*
X16084Y-6567D01*
X16084Y-6520D01*
X16075Y-6482D01*
X16065Y-6464D01*
X16056Y-6454D01*
X16037Y-6445D01*
X16248Y-7665D02*
X16314Y-7571D01*
X16361Y-7665D02*
X16361Y-7468D01*
X16286Y-7468D01*
X16267Y-7477D01*
X16258Y-7487D01*
X16248Y-7505D01*
X16248Y-7534D01*
X16258Y-7552D01*
X16267Y-7562D01*
X16286Y-7571D01*
X16361Y-7571D01*
X16173Y-7487D02*
X16164Y-7477D01*
X16145Y-7468D01*
X16098Y-7468D01*
X16079Y-7477D01*
X16070Y-7487D01*
X16061Y-7505D01*
X16061Y-7524D01*
X16070Y-7552D01*
X16183Y-7665D01*
X16061Y-7665D01*
X15873Y-7665D02*
X15986Y-7665D01*
X15929Y-7665D02*
X15929Y-7468D01*
X15948Y-7496D01*
X15967Y-7515D01*
X15986Y-7524D01*
X16239Y-7390D02*
X16351Y-7390D01*
X16295Y-7390D02*
X16295Y-7193D01*
X16314Y-7221D01*
X16333Y-7240D01*
X16351Y-7249D01*
X16117Y-7193D02*
X16098Y-7193D01*
X16079Y-7202D01*
X16070Y-7212D01*
X16061Y-7230D01*
X16051Y-7268D01*
X16051Y-7315D01*
X16061Y-7352D01*
X16070Y-7371D01*
X16079Y-7380D01*
X16098Y-7390D01*
X16117Y-7390D01*
X16136Y-7380D01*
X16145Y-7371D01*
X16154Y-7352D01*
X16164Y-7315D01*
X16164Y-7268D01*
X16154Y-7230D01*
X16145Y-7212D01*
X16136Y-7202D01*
X16117Y-7193D01*
X15967Y-7390D02*
X15967Y-7193D01*
X15948Y-7315D02*
X15892Y-7390D01*
X15892Y-7259D02*
X15967Y-7334D01*
G54D17*
X33646Y-11889D02*
X33246Y-11889D01*
X33246Y-11985D01*
X33265Y-12042D01*
X33303Y-12080D01*
X33341Y-12099D01*
X33417Y-12118D01*
X33474Y-12118D01*
X33550Y-12099D01*
X33589Y-12080D01*
X33627Y-12042D01*
X33646Y-11985D01*
X33646Y-11889D01*
X33417Y-12346D02*
X33398Y-12308D01*
X33379Y-12289D01*
X33341Y-12270D01*
X33322Y-12270D01*
X33284Y-12289D01*
X33265Y-12308D01*
X33246Y-12346D01*
X33246Y-12423D01*
X33265Y-12461D01*
X33284Y-12480D01*
X33322Y-12499D01*
X33341Y-12499D01*
X33379Y-12480D01*
X33398Y-12461D01*
X33417Y-12423D01*
X33417Y-12346D01*
X33436Y-12308D01*
X33455Y-12289D01*
X33493Y-12270D01*
X33569Y-12270D01*
X33608Y-12289D01*
X33627Y-12308D01*
X33646Y-12346D01*
X33646Y-12423D01*
X33627Y-12461D01*
X33608Y-12480D01*
X33569Y-12499D01*
X33493Y-12499D01*
X33455Y-12480D01*
X33436Y-12461D01*
X33417Y-12423D01*
X30988Y-11948D02*
X30588Y-11948D01*
X30588Y-12044D01*
X30607Y-12101D01*
X30645Y-12139D01*
X30683Y-12158D01*
X30760Y-12177D01*
X30817Y-12177D01*
X30893Y-12158D01*
X30931Y-12139D01*
X30969Y-12101D01*
X30988Y-12044D01*
X30988Y-11948D01*
X30588Y-12310D02*
X30588Y-12577D01*
X30988Y-12405D01*
X21791Y-16795D02*
X21791Y-16395D01*
X21696Y-16395D01*
X21638Y-16414D01*
X21600Y-16452D01*
X21581Y-16491D01*
X21562Y-16567D01*
X21562Y-16624D01*
X21581Y-16700D01*
X21600Y-16738D01*
X21638Y-16776D01*
X21696Y-16795D01*
X21791Y-16795D01*
X21372Y-16795D02*
X21296Y-16795D01*
X21257Y-16776D01*
X21238Y-16757D01*
X21200Y-16700D01*
X21181Y-16624D01*
X21181Y-16471D01*
X21200Y-16433D01*
X21219Y-16414D01*
X21257Y-16395D01*
X21334Y-16395D01*
X21372Y-16414D01*
X21391Y-16433D01*
X21410Y-16471D01*
X21410Y-16567D01*
X21391Y-16605D01*
X21372Y-16624D01*
X21334Y-16643D01*
X21257Y-16643D01*
X21219Y-16624D01*
X21200Y-16605D01*
X21181Y-16567D01*
X23267Y-5457D02*
X23267Y-5057D01*
X23172Y-5057D01*
X23115Y-5076D01*
X23077Y-5114D01*
X23058Y-5152D01*
X23039Y-5228D01*
X23039Y-5285D01*
X23058Y-5361D01*
X23077Y-5400D01*
X23115Y-5438D01*
X23172Y-5457D01*
X23267Y-5457D01*
X22677Y-5057D02*
X22867Y-5057D01*
X22886Y-5247D01*
X22867Y-5228D01*
X22829Y-5209D01*
X22734Y-5209D01*
X22696Y-5228D01*
X22677Y-5247D01*
X22658Y-5285D01*
X22658Y-5380D01*
X22677Y-5419D01*
X22696Y-5438D01*
X22734Y-5457D01*
X22829Y-5457D01*
X22867Y-5438D01*
X22886Y-5419D01*
X14394Y-4428D02*
X14394Y-4028D01*
X14298Y-4028D01*
X14241Y-4047D01*
X14203Y-4085D01*
X14184Y-4124D01*
X14165Y-4200D01*
X14165Y-4257D01*
X14184Y-4333D01*
X14203Y-4371D01*
X14241Y-4409D01*
X14298Y-4428D01*
X14394Y-4428D01*
X13784Y-4428D02*
X14013Y-4428D01*
X13898Y-4428D02*
X13898Y-4028D01*
X13936Y-4085D01*
X13975Y-4124D01*
X14013Y-4143D01*
X25171Y-2762D02*
X24771Y-2762D01*
X24771Y-2857D01*
X24790Y-2914D01*
X24828Y-2952D01*
X24866Y-2971D01*
X24943Y-2990D01*
X25000Y-2990D01*
X25076Y-2971D01*
X25114Y-2952D01*
X25152Y-2914D01*
X25171Y-2857D01*
X25171Y-2762D01*
X24771Y-3124D02*
X24771Y-3371D01*
X24924Y-3238D01*
X24924Y-3295D01*
X24943Y-3333D01*
X24962Y-3352D01*
X25000Y-3371D01*
X25095Y-3371D01*
X25133Y-3352D01*
X25152Y-3333D01*
X25171Y-3295D01*
X25171Y-3181D01*
X25152Y-3143D01*
X25133Y-3124D01*
X14374Y-5408D02*
X14374Y-5008D01*
X14278Y-5008D01*
X14221Y-5027D01*
X14183Y-5065D01*
X14164Y-5104D01*
X14145Y-5180D01*
X14145Y-5237D01*
X14164Y-5313D01*
X14183Y-5351D01*
X14221Y-5389D01*
X14278Y-5408D01*
X14374Y-5408D01*
X13993Y-5046D02*
X13974Y-5027D01*
X13936Y-5008D01*
X13840Y-5008D01*
X13802Y-5027D01*
X13783Y-5046D01*
X13764Y-5085D01*
X13764Y-5123D01*
X13783Y-5180D01*
X14012Y-5408D01*
X13764Y-5408D01*
%LPC*%
G54D20*
X32618Y-18566D03*
X1574Y-23425D03*
X32677Y-1574D03*
X1574Y-1574D03*
G54D21*
X8098Y-666D03*
G54D22*
X8098Y-1666D03*
G54D21*
X9098Y-666D03*
G54D22*
X9098Y-1666D03*
G54D23*
X14118Y-3186D03*
X14118Y-2186D03*
X12338Y-3186D03*
X12338Y-2186D03*
X10578Y-3186D03*
X10578Y-2186D03*
G54D24*
X1888Y-17466D03*
X1188Y-17466D03*
X1538Y-18266D03*
X19422Y-14177D03*
X19422Y-14877D03*
X20222Y-14527D03*
X30013Y-14610D03*
X30013Y-15310D03*
X30813Y-14960D03*
X32690Y-14571D03*
X32690Y-15271D03*
X33490Y-14921D03*
X2908Y-10986D03*
X2208Y-10986D03*
X2558Y-11786D03*
X1528Y-12486D03*
X828Y-12486D03*
X1178Y-13286D03*
X2948Y-15286D03*
X2248Y-15286D03*
X2598Y-16086D03*
X1528Y-15806D03*
X828Y-15806D03*
X1178Y-16606D03*
G54D25*
X20493Y-11949D03*
X22593Y-11949D03*
X20493Y-12449D03*
X20493Y-12949D03*
X20493Y-13449D03*
X22593Y-12449D03*
X22593Y-12949D03*
X22593Y-13449D03*
G54D26*
X19728Y-7119D03*
X19728Y-9219D03*
X19228Y-7119D03*
X18728Y-7119D03*
X18228Y-7119D03*
X19228Y-9219D03*
X18728Y-9219D03*
X18228Y-9219D03*
G54D25*
X25665Y-12561D03*
X27765Y-12561D03*
X25665Y-13061D03*
X25665Y-13561D03*
X25665Y-14061D03*
X27765Y-13061D03*
X27765Y-13561D03*
X27765Y-14061D03*
G54D26*
X24282Y-2092D03*
X24282Y-4192D03*
X23782Y-2092D03*
X23282Y-2092D03*
X22782Y-2092D03*
X23782Y-4192D03*
X23282Y-4192D03*
X22782Y-4192D03*
G54D27*
X1553Y-15166D03*
X803Y-15166D03*
G54D28*
X19614Y-12599D03*
X19614Y-13349D03*
G54D27*
X21918Y-14313D03*
X21168Y-14313D03*
G54D28*
X21179Y-4142D03*
X21179Y-3392D03*
X21918Y-1979D03*
X21918Y-2729D03*
X21918Y-3397D03*
X21918Y-4147D03*
G54D27*
X23238Y-4953D03*
X22488Y-4953D03*
X22574Y-1347D03*
X21824Y-1347D03*
X23894Y-1347D03*
X23144Y-1347D03*
X27912Y-15787D03*
X28662Y-15787D03*
G54D28*
X20553Y-7125D03*
X20553Y-7875D03*
X17411Y-9203D03*
X17411Y-8453D03*
G54D27*
X26376Y-11771D03*
X27126Y-11771D03*
X27912Y-14803D03*
X28662Y-14803D03*
X18030Y-14901D03*
X18780Y-14901D03*
X30668Y-16023D03*
X31418Y-16023D03*
X1553Y-11066D03*
X803Y-11066D03*
G54D28*
X28582Y-13937D03*
X28582Y-13187D03*
G54D27*
X2223Y-14626D03*
X2973Y-14626D03*
X2593Y-16806D03*
X1843Y-16806D03*
X2203Y-10286D03*
X2953Y-10286D03*
G54D28*
X2358Y-12471D03*
X2358Y-13221D03*
G54D27*
X1553Y-11806D03*
X803Y-11806D03*
X21436Y-11161D03*
X22186Y-11161D03*
G54D28*
X19015Y-9900D03*
X19015Y-10650D03*
X20562Y-9261D03*
X20562Y-8511D03*
X17411Y-7806D03*
X17411Y-7056D03*
X19744Y-9900D03*
X19744Y-10650D03*
X18287Y-10650D03*
X18287Y-9900D03*
G54D27*
X19038Y-6220D03*
X18288Y-6220D03*
X18288Y-5394D03*
X19038Y-5394D03*
X15747Y-6712D03*
X16497Y-6712D03*
X15747Y-7460D03*
X16497Y-7460D03*
G54D29*
X27677Y-4370D03*
X27677Y-2401D03*
X26437Y-6397D03*
X24468Y-6397D03*
G54D21*
X4918Y-23366D03*
G54D22*
X4918Y-22366D03*
X4918Y-21366D03*
G54D21*
X6820Y-15141D03*
G54D22*
X6820Y-16141D03*
X6820Y-17141D03*
G54D21*
X3918Y-23366D03*
G54D22*
X3918Y-22366D03*
X3918Y-21366D03*
G54D21*
X8758Y-19866D03*
G54D22*
X8758Y-18866D03*
G54D21*
X18458Y-12886D03*
G54D22*
X18458Y-13886D03*
G54D30*
X33484Y-10685D03*
G54D31*
X33484Y-13685D03*
G54D30*
X30826Y-10744D03*
G54D31*
X30826Y-13744D03*
G54D30*
X19996Y-16633D03*
G54D31*
X22996Y-16633D03*
G54D30*
X24472Y-5295D03*
G54D31*
X21472Y-5295D03*
G54D30*
X15598Y-4266D03*
G54D31*
X12598Y-4266D03*
G54D30*
X25009Y-4557D03*
G54D31*
X25009Y-1557D03*
G54D30*
X15578Y-5246D03*
G54D31*
X12578Y-5246D03*
G54D32*
X30614Y-3090D03*
G54D33*
X32614Y-3090D03*
G54D32*
X30409Y-7106D03*
G54D33*
X28409Y-7106D03*
G54D32*
X13798Y-4746D03*
G54D33*
X13798Y-6746D03*
G54D34*
X19898Y-1166D03*
X16898Y-1166D03*
X29618Y-18566D03*
X26818Y-18566D03*
X24018Y-18566D03*
G54D29*
X22671Y-9828D03*
X24009Y-9828D03*
X25348Y-9828D03*
X23340Y-11403D03*
X24679Y-11403D03*
X32263Y-11913D03*
X32263Y-13913D03*
X32263Y-9913D03*
X32263Y-15913D03*
X29645Y-11952D03*
X29645Y-13952D03*
X29645Y-9952D03*
X29645Y-15952D03*
X22574Y-15787D03*
X20574Y-15787D03*
X24574Y-15787D03*
X18574Y-15787D03*
G54D21*
X4918Y-20366D03*
G54D22*
X3918Y-20366D03*
X4918Y-19366D03*
X3918Y-19366D03*
X4918Y-18366D03*
X3918Y-18366D03*
X4918Y-17366D03*
X3918Y-17366D03*
X4918Y-16366D03*
X3918Y-16366D03*
X4918Y-15366D03*
X3918Y-15366D03*
X4918Y-14366D03*
X3918Y-14366D03*
X4918Y-13366D03*
X3918Y-13366D03*
X4918Y-12366D03*
X3918Y-12366D03*
X4918Y-11366D03*
X3918Y-11366D03*
X4918Y-10366D03*
X3918Y-10366D03*
X4918Y-9366D03*
X3918Y-9366D03*
X4918Y-8366D03*
X3918Y-8366D03*
M02*
