M48
;DRILL file {Pcbnew (2013-07-07 BZR 4022)-stable} date Sun 21 Dec 2014 12:52:14 PM MSK
;FORMAT={-:-/ absolute / metric / decimal}
FMAT,2
METRIC,TZ
T1C0.600
T2C0.635
T3C0.813
T4C1.016
T5C3.048
T6C3.300
%
G90
G05
M71
T1
X47.18Y-40.1
X52.26Y-40.1
X57.34Y-40.1
X57.585Y-24.964
X59.285Y-28.964
X60.985Y-24.964
X62.15Y-16.25
X62.42Y-40.1
X62.685Y-28.964
X64.385Y-24.964
X67.15Y-16.25
X70.3Y-6.1
X70.3Y-11.1
X75.3Y-25.28
X75.3Y-30.36
X75.3Y-35.44
X75.3Y-40.52
X81.95Y-25.18
X81.95Y-30.26
X81.95Y-35.34
X81.95Y-40.42
T2
X2.334Y-36.936
X2.651Y-26.459
X3.96Y-26.535
X3.96Y-37.
X6.957Y-35.476
X7.16Y-24.3
X11.935Y-12.616
X13.408Y-12.159
X13.459Y-18.001
X16.55Y-9.225
X17.575Y-8.525
X18.145Y-56.558
X18.209Y-59.352
X18.25Y-53.2
X19.504Y-33.444
X19.975Y-18.325
X20.419Y-35.222
X21.638Y-23.386
X21.892Y-9.873
X23.7Y-40.4
X23.775Y-25.475
X24.127Y-43.045
X24.432Y-18.763
X24.483Y-44.163
X26.007Y-14.343
X26.362Y-46.754
X27.632Y-46.652
X28.852Y-43.045
X28.9Y-32.
X30.426Y-42.385
X30.782Y-23.284
X31.1Y-20.1
X32.Y-18.55
X33.95Y-27.2
X34.211Y-42.842
X35.3Y-28.45
X35.481Y-43.794
X36.179Y-24.427
X36.55Y-38.175
X39.037Y-41.508
X40.243Y-44.747
X43.9Y-25.65
X44.092Y-28.161
X49.2Y-28.6
X54.023Y-18.077
X55.05Y-20.4
X58.9Y-31.6
X61.5Y-21.
X65.897Y-37.825
X68.12Y-37.508
X70.215Y-44.683
X70.533Y-41.953
X71.993Y-32.111
X76.756Y-44.048
X76.819Y-42.017
T3
X26.87Y-5.555
X26.87Y-8.095
X31.341Y-5.555
X31.341Y-8.095
X31.95Y-13.327
X32.001Y-10.838
X35.862Y-5.555
X35.862Y-8.095
X39.57Y-13.327
X39.621Y-10.838
X50.79Y-42.25
X54.54Y-13.45
X58.41Y-42.25
X62.16Y-13.45
X63.525Y-3.956
X63.525Y-11.576
X78.3Y-27.29
X78.3Y-34.91
X85.05Y-27.14
X85.05Y-34.76
T4
X9.954Y-21.252
X9.954Y-23.792
X9.954Y-26.332
X9.954Y-28.872
X9.954Y-31.412
X9.954Y-33.952
X9.954Y-36.492
X9.954Y-39.032
X9.954Y-41.572
X9.954Y-44.112
X9.954Y-46.652
X9.954Y-49.192
X9.954Y-51.732
X9.954Y-54.272
X9.954Y-56.812
X9.954Y-59.352
X12.494Y-21.252
X12.494Y-23.792
X12.494Y-26.332
X12.494Y-28.872
X12.494Y-31.412
X12.494Y-33.952
X12.494Y-36.492
X12.494Y-39.032
X12.494Y-41.572
X12.494Y-44.112
X12.494Y-46.652
X12.494Y-49.192
X12.494Y-51.732
X12.494Y-54.272
X12.494Y-56.812
X12.494Y-59.352
X17.323Y-38.46
X17.323Y-41.
X17.323Y-43.54
X20.571Y-1.694
X20.571Y-4.234
X22.248Y-47.922
X22.248Y-50.462
X23.111Y-1.694
X23.111Y-4.234
X35.049Y-12.057
X35.049Y-17.137
X46.886Y-32.733
X46.886Y-35.273
X72.16Y-18.05
X77.24Y-18.05
X77.76Y-7.85
X82.84Y-7.85
T5
X42.923Y-2.964
X50.543Y-2.964
X61.008Y-47.16
X68.12Y-47.16
X75.232Y-47.16
T6
X4.Y-4.
X4.Y-59.5
X82.852Y-47.16
X83.Y-4.
T0
M30
