G04 (created by PCBNEW (2013-07-07 BZR 4022)-stable) date 1/12/2015 12:58:00 PM*
%MOIN*%
G04 Gerber Fmt 3.4, Leading zero omitted, Abs format*
%FSLAX34Y34*%
G01*
G70*
G90*
G04 APERTURE LIST*
%ADD10C,0.00590551*%
%ADD11R,0.035X0.055*%
%ADD12C,0.19685*%
%ADD13R,0.055X0.035*%
%ADD14R,0.06X0.06*%
%ADD15C,0.06*%
%ADD16C,0.066*%
%ADD17R,0.06X0.0098*%
%ADD18O,0.06X0.0098*%
%ADD19O,0.0098X0.06*%
%ADD20R,0.036X0.036*%
%ADD21R,0.0394X0.0315*%
%ADD22R,0.0236X0.0551*%
%ADD23R,0.0551X0.0236*%
%ADD24C,0.0590551*%
%ADD25R,0.015748X0.0531496*%
%ADD26R,0.0787402X0.0629921*%
%ADD27R,0.0748031X0.0748031*%
%ADD28R,0.055X0.055*%
%ADD29C,0.055*%
%ADD30R,0.0433X0.0748*%
%ADD31R,0.07X0.07*%
%ADD32C,0.07*%
%ADD33C,0.16*%
%ADD34O,0.0098X0.0394*%
%ADD35O,0.0394X0.0098*%
%ADD36R,0.11811X0.11811*%
%ADD37R,0.06X0.08*%
%ADD38R,0.03X0.02*%
%ADD39R,0.0354331X0.11811*%
%ADD40R,0.409843X0.271654*%
G04 APERTURE END LIST*
G54D10*
G54D11*
X19922Y-7696D03*
X19172Y-7696D03*
X19922Y-6948D03*
X19172Y-6948D03*
X20471Y-6948D03*
X21221Y-6948D03*
X19172Y-6200D03*
X19922Y-6200D03*
G54D12*
X32677Y-23622D03*
X1574Y-23425D03*
X32677Y-1574D03*
X1574Y-1574D03*
G54D13*
X14118Y-1261D03*
X14118Y-511D03*
X12338Y-1261D03*
X12338Y-511D03*
X10578Y-1261D03*
X10578Y-511D03*
X8098Y-3341D03*
X8098Y-2591D03*
X9098Y-3341D03*
X9098Y-2591D03*
G54D14*
X8098Y-666D03*
G54D15*
X8098Y-1666D03*
G54D14*
X9098Y-666D03*
G54D15*
X9098Y-1666D03*
G54D16*
X14118Y-3186D03*
X14118Y-2186D03*
X12338Y-3186D03*
X12338Y-2186D03*
X10578Y-3186D03*
X10578Y-2186D03*
G54D17*
X13609Y-14694D03*
G54D18*
X13609Y-14497D03*
X13609Y-14300D03*
X13609Y-14103D03*
X13609Y-13906D03*
X13609Y-13710D03*
X13609Y-13513D03*
X13609Y-13316D03*
X13609Y-13119D03*
X13609Y-12922D03*
X13609Y-12725D03*
X13609Y-12529D03*
X13609Y-12332D03*
X13609Y-12135D03*
X13609Y-11938D03*
X13609Y-11741D03*
G54D19*
X12774Y-10843D03*
X12577Y-10843D03*
X12380Y-10843D03*
X12183Y-10843D03*
X11986Y-10843D03*
X11790Y-10843D03*
X11593Y-10843D03*
X11396Y-10843D03*
X11199Y-10843D03*
X11002Y-10843D03*
X10805Y-10843D03*
X10609Y-10843D03*
X10412Y-10843D03*
X10215Y-10843D03*
X10018Y-10843D03*
X9821Y-10843D03*
G54D18*
X8923Y-11741D03*
X8923Y-11938D03*
X8923Y-12135D03*
X8923Y-12332D03*
X8923Y-12529D03*
X8923Y-12725D03*
X8923Y-12922D03*
X8923Y-13119D03*
X8923Y-13316D03*
X8923Y-13513D03*
X8923Y-13710D03*
X8923Y-13906D03*
X8923Y-14103D03*
X8923Y-14300D03*
X8923Y-14497D03*
X8923Y-14694D03*
G54D19*
X9821Y-15529D03*
X10018Y-15529D03*
X10412Y-15529D03*
X10215Y-15536D03*
X10609Y-15529D03*
X10805Y-15529D03*
X11002Y-15529D03*
X11199Y-15529D03*
X11396Y-15529D03*
X11593Y-15529D03*
X11787Y-15529D03*
X11984Y-15529D03*
X12181Y-15529D03*
X12378Y-15529D03*
X12574Y-15529D03*
X12771Y-15529D03*
G54D20*
X15781Y-22082D03*
X15781Y-21382D03*
X16581Y-21732D03*
G54D21*
X14212Y-10157D03*
X15078Y-9782D03*
X15078Y-10532D03*
X14351Y-8786D03*
X13485Y-9161D03*
X13485Y-8411D03*
G54D22*
X24147Y-4400D03*
X24147Y-2300D03*
X23647Y-4400D03*
X23147Y-4400D03*
X22647Y-4400D03*
X23647Y-2300D03*
X23147Y-2300D03*
X22647Y-2300D03*
G54D23*
X19107Y-18860D03*
X21207Y-18860D03*
X19107Y-18360D03*
X19107Y-17860D03*
X19107Y-17360D03*
X21207Y-18360D03*
X21207Y-17860D03*
X21207Y-17360D03*
G54D11*
X20119Y-9409D03*
X19369Y-9409D03*
X20119Y-10157D03*
X19369Y-10157D03*
X16595Y-9881D03*
X15845Y-9881D03*
X30749Y-17992D03*
X29999Y-17992D03*
X24784Y-11929D03*
X24034Y-11929D03*
G54D13*
X18346Y-18249D03*
X18346Y-17499D03*
G54D11*
X20532Y-16614D03*
X19782Y-16614D03*
X16595Y-9133D03*
X15845Y-9133D03*
X10178Y-6692D03*
X9428Y-6692D03*
G54D13*
X9718Y-18631D03*
X9718Y-19381D03*
X29881Y-16278D03*
X29881Y-17028D03*
G54D11*
X30827Y-21062D03*
X30077Y-21062D03*
X14388Y-21377D03*
X15138Y-21377D03*
G54D13*
X27696Y-15628D03*
X27696Y-16378D03*
G54D11*
X5943Y-23366D03*
X6693Y-23366D03*
X5943Y-22266D03*
X6693Y-22266D03*
G54D13*
X25729Y-3732D03*
X25729Y-2982D03*
G54D11*
X8838Y-10620D03*
X8088Y-10620D03*
X14506Y-11181D03*
X15256Y-11181D03*
X19792Y-19616D03*
X20542Y-19616D03*
G54D13*
X12718Y-9161D03*
X12718Y-8411D03*
G54D11*
X15653Y-13866D03*
X14903Y-13866D03*
X16363Y-15886D03*
X17113Y-15886D03*
X17553Y-12726D03*
X16803Y-12726D03*
X19373Y-11946D03*
X18623Y-11946D03*
X17953Y-11946D03*
X17203Y-11946D03*
X8838Y-9832D03*
X8088Y-9832D03*
X24310Y-14133D03*
X25060Y-14133D03*
G54D13*
X8739Y-15560D03*
X8739Y-16310D03*
G54D11*
X12616Y-9872D03*
X13366Y-9872D03*
X13600Y-15659D03*
X14350Y-15659D03*
X14506Y-11889D03*
X15256Y-11889D03*
X4153Y-5166D03*
X3403Y-5166D03*
X5053Y-3566D03*
X4303Y-3566D03*
X4833Y-4386D03*
X4083Y-4386D03*
X4693Y-6026D03*
X3943Y-6026D03*
X4693Y-6766D03*
X3943Y-6766D03*
G54D13*
X24969Y-3732D03*
X24969Y-2982D03*
G54D11*
X25684Y-2317D03*
X24934Y-2317D03*
G54D13*
X25905Y-13089D03*
X25905Y-13839D03*
G54D11*
X23103Y-1539D03*
X22353Y-1539D03*
G54D13*
X21822Y-3725D03*
X21822Y-2975D03*
G54D11*
X23772Y-5240D03*
X23022Y-5240D03*
G54D13*
X23346Y-11160D03*
X23346Y-11910D03*
G54D11*
X28128Y-17598D03*
X28878Y-17598D03*
X17144Y-9133D03*
X17894Y-9133D03*
X15845Y-8385D03*
X16595Y-8385D03*
G54D13*
X23464Y-13367D03*
X23464Y-12617D03*
X30669Y-16278D03*
X30669Y-17028D03*
G54D11*
X21457Y-8661D03*
X20707Y-8661D03*
X20707Y-9409D03*
X21457Y-9409D03*
G54D24*
X27677Y-4370D03*
X27677Y-2401D03*
X26437Y-6397D03*
X24468Y-6397D03*
G54D14*
X4918Y-23366D03*
G54D15*
X4918Y-22366D03*
X4918Y-21366D03*
G54D14*
X6820Y-15141D03*
G54D15*
X6820Y-16141D03*
X6820Y-17141D03*
G54D14*
X3918Y-23366D03*
G54D15*
X3918Y-22366D03*
X3918Y-21366D03*
G54D14*
X8758Y-19866D03*
G54D15*
X8758Y-18866D03*
G54D14*
X18458Y-12886D03*
G54D15*
X18458Y-13886D03*
G54D25*
X5954Y-2755D03*
X5698Y-2755D03*
X5442Y-2755D03*
X5186Y-2755D03*
X4930Y-2755D03*
G54D26*
X6682Y-2755D03*
X4202Y-2755D03*
G54D27*
X6918Y-1358D03*
X3965Y-1358D03*
X5914Y-1358D03*
X4969Y-1358D03*
G54D28*
X21086Y-21968D03*
G54D29*
X18086Y-21968D03*
G54D28*
X24472Y-5295D03*
G54D29*
X21472Y-5295D03*
G54D28*
X15598Y-4266D03*
G54D29*
X12598Y-4266D03*
G54D28*
X25009Y-4557D03*
G54D29*
X25009Y-1557D03*
G54D28*
X15578Y-5246D03*
G54D29*
X12578Y-5246D03*
G54D30*
X17211Y-15034D03*
X17211Y-13578D03*
X16305Y-13578D03*
X16305Y-15034D03*
G54D31*
X30614Y-3090D03*
G54D32*
X32614Y-3090D03*
G54D31*
X30409Y-7106D03*
G54D32*
X28409Y-7106D03*
G54D31*
X13798Y-4746D03*
G54D32*
X13798Y-6746D03*
G54D33*
X19898Y-1166D03*
X16898Y-1166D03*
X29527Y-23622D03*
X26771Y-23622D03*
X24015Y-23622D03*
G54D24*
X17937Y-23622D03*
X19937Y-23622D03*
X15937Y-23622D03*
X21937Y-23622D03*
G54D13*
X6721Y-7203D03*
X6721Y-7953D03*
G54D34*
X7312Y-4527D03*
X7115Y-4527D03*
X6918Y-4527D03*
X6721Y-4527D03*
X6524Y-4527D03*
X6327Y-4527D03*
X6130Y-4527D03*
G54D35*
X5737Y-4920D03*
X5737Y-5117D03*
X5737Y-5314D03*
X5737Y-5511D03*
X5737Y-5708D03*
X5737Y-5905D03*
X5737Y-6102D03*
G54D34*
X6130Y-6495D03*
X6327Y-6495D03*
X6524Y-6495D03*
X6721Y-6495D03*
X6918Y-6495D03*
X7115Y-6495D03*
X7312Y-6495D03*
G54D35*
X7705Y-6102D03*
X7705Y-5905D03*
X7705Y-5708D03*
X7705Y-5511D03*
X7705Y-5314D03*
X7705Y-5117D03*
X7705Y-4920D03*
G54D36*
X6721Y-5511D03*
G54D11*
X6654Y-19980D03*
X5904Y-19980D03*
X6654Y-20964D03*
X5904Y-20964D03*
X6693Y-18287D03*
X5943Y-18287D03*
X6693Y-8866D03*
X5943Y-8866D03*
X6693Y-9666D03*
X5943Y-9666D03*
X6693Y-10466D03*
X5943Y-10466D03*
X6693Y-11366D03*
X5943Y-11366D03*
G54D14*
X4918Y-20366D03*
G54D15*
X3918Y-20366D03*
X4918Y-19366D03*
X3918Y-19366D03*
X4918Y-18366D03*
X3918Y-18366D03*
X4918Y-17366D03*
X3918Y-17366D03*
X4918Y-16366D03*
X3918Y-16366D03*
X4918Y-15366D03*
X3918Y-15366D03*
X4918Y-14366D03*
X3918Y-14366D03*
X4918Y-13366D03*
X3918Y-13366D03*
X4918Y-12366D03*
X3918Y-12366D03*
X4918Y-11366D03*
X3918Y-11366D03*
X4918Y-10366D03*
X3918Y-10366D03*
X4918Y-9366D03*
X3918Y-9366D03*
X4918Y-8366D03*
X3918Y-8366D03*
G54D23*
X32112Y-18777D03*
X30012Y-18777D03*
X32112Y-19277D03*
X32112Y-19777D03*
X32112Y-20277D03*
X30012Y-19277D03*
X30012Y-19777D03*
X30012Y-20277D03*
G54D13*
X26929Y-14880D03*
X26929Y-15630D03*
G54D11*
X25060Y-14881D03*
X24310Y-14881D03*
G54D13*
X26653Y-13089D03*
X26653Y-13839D03*
G54D11*
X32087Y-17992D03*
X31337Y-17992D03*
X31416Y-21062D03*
X32166Y-21062D03*
X24034Y-11181D03*
X24784Y-11181D03*
G54D13*
X28779Y-19272D03*
X28779Y-18522D03*
X18346Y-19548D03*
X18346Y-18798D03*
G54D11*
X21910Y-16614D03*
X21160Y-16614D03*
G54D13*
X28031Y-18522D03*
X28031Y-19272D03*
X33267Y-7144D03*
X33267Y-7894D03*
G54D15*
X21206Y-20846D03*
X16706Y-20846D03*
G54D37*
X20374Y-20846D03*
X19074Y-20846D03*
G54D38*
X25224Y-13367D03*
X25224Y-12617D03*
X24224Y-13367D03*
X25224Y-12992D03*
X24224Y-12617D03*
G54D24*
X26196Y-21141D03*
X24196Y-21141D03*
X28196Y-21141D03*
X22196Y-21141D03*
G54D20*
X25544Y-18538D03*
X25544Y-17838D03*
X26344Y-18188D03*
G54D11*
X24152Y-17834D03*
X24902Y-17834D03*
G54D28*
X23618Y-19488D03*
G54D29*
X26618Y-19488D03*
G54D39*
X28500Y-15094D03*
X29000Y-15094D03*
X29500Y-15094D03*
X30000Y-15094D03*
X30500Y-15094D03*
X31000Y-15094D03*
X31500Y-15094D03*
G54D40*
X30000Y-11452D03*
M02*
