G04 (created by PCBNEW (2013-07-07 BZR 4022)-stable) date Mon 12 Jan 2015 09:48:45 AM MSK*
%MOIN*%
G04 Gerber Fmt 3.4, Leading zero omitted, Abs format*
%FSLAX34Y34*%
G01*
G70*
G90*
G04 APERTURE LIST*
%ADD10C,0.00590551*%
%ADD11C,0.19685*%
%ADD12R,0.06X0.06*%
%ADD13C,0.06*%
%ADD14C,0.066*%
%ADD15R,0.036X0.036*%
%ADD16R,0.0236X0.0551*%
%ADD17R,0.035X0.055*%
%ADD18R,0.055X0.035*%
%ADD19C,0.0590551*%
%ADD20R,0.055X0.055*%
%ADD21C,0.055*%
%ADD22R,0.07X0.07*%
%ADD23C,0.07*%
%ADD24C,0.16*%
G04 APERTURE END LIST*
G54D10*
G54D11*
X32677Y-23622D03*
X1574Y-23425D03*
X32677Y-1574D03*
X1574Y-1574D03*
G54D12*
X8098Y-666D03*
G54D13*
X8098Y-1666D03*
G54D12*
X9098Y-666D03*
G54D13*
X9098Y-1666D03*
G54D14*
X14118Y-3186D03*
X14118Y-2186D03*
X12338Y-3186D03*
X12338Y-2186D03*
X10578Y-3186D03*
X10578Y-2186D03*
G54D15*
X1888Y-17466D03*
X1188Y-17466D03*
X1538Y-18266D03*
X2908Y-10986D03*
X2208Y-10986D03*
X2558Y-11786D03*
X1528Y-12486D03*
X828Y-12486D03*
X1178Y-13286D03*
X2948Y-15286D03*
X2248Y-15286D03*
X2598Y-16086D03*
X1528Y-15806D03*
X828Y-15806D03*
X1178Y-16606D03*
G54D16*
X24282Y-2092D03*
X24282Y-4192D03*
X23782Y-2092D03*
X23282Y-2092D03*
X22782Y-2092D03*
X23782Y-4192D03*
X23282Y-4192D03*
X22782Y-4192D03*
G54D17*
X1553Y-15166D03*
X803Y-15166D03*
G54D18*
X21179Y-4142D03*
X21179Y-3392D03*
X21918Y-1979D03*
X21918Y-2729D03*
X21918Y-3397D03*
X21918Y-4147D03*
G54D17*
X23238Y-4953D03*
X22488Y-4953D03*
X22574Y-1347D03*
X21824Y-1347D03*
X23894Y-1347D03*
X23144Y-1347D03*
X1553Y-11066D03*
X803Y-11066D03*
X2223Y-14626D03*
X2973Y-14626D03*
X2593Y-16806D03*
X1843Y-16806D03*
X2203Y-10286D03*
X2953Y-10286D03*
G54D18*
X2358Y-12471D03*
X2358Y-13221D03*
G54D17*
X1553Y-11806D03*
X803Y-11806D03*
X15747Y-6712D03*
X16497Y-6712D03*
X15747Y-7460D03*
X16497Y-7460D03*
G54D19*
X27677Y-4370D03*
X27677Y-2401D03*
X26437Y-6397D03*
X24468Y-6397D03*
G54D12*
X4918Y-23366D03*
G54D13*
X4918Y-22366D03*
X4918Y-21366D03*
G54D12*
X6820Y-15141D03*
G54D13*
X6820Y-16141D03*
X6820Y-17141D03*
G54D12*
X3918Y-23366D03*
G54D13*
X3918Y-22366D03*
X3918Y-21366D03*
G54D12*
X8758Y-19866D03*
G54D13*
X8758Y-18866D03*
G54D12*
X18458Y-12886D03*
G54D13*
X18458Y-13886D03*
G54D20*
X21086Y-21968D03*
G54D21*
X18086Y-21968D03*
G54D20*
X24472Y-5295D03*
G54D21*
X21472Y-5295D03*
G54D20*
X15598Y-4266D03*
G54D21*
X12598Y-4266D03*
G54D20*
X25009Y-4557D03*
G54D21*
X25009Y-1557D03*
G54D20*
X15578Y-5246D03*
G54D21*
X12578Y-5246D03*
G54D22*
X30614Y-3090D03*
G54D23*
X32614Y-3090D03*
G54D22*
X30409Y-7106D03*
G54D23*
X28409Y-7106D03*
G54D22*
X13798Y-4746D03*
G54D23*
X13798Y-6746D03*
G54D24*
X19898Y-1166D03*
X16898Y-1166D03*
X29527Y-23622D03*
X26771Y-23622D03*
X24015Y-23622D03*
G54D19*
X17937Y-23622D03*
X19937Y-23622D03*
X15937Y-23622D03*
X21937Y-23622D03*
G54D12*
X4918Y-20366D03*
G54D13*
X3918Y-20366D03*
X4918Y-19366D03*
X3918Y-19366D03*
X4918Y-18366D03*
X3918Y-18366D03*
X4918Y-17366D03*
X3918Y-17366D03*
X4918Y-16366D03*
X3918Y-16366D03*
X4918Y-15366D03*
X3918Y-15366D03*
X4918Y-14366D03*
X3918Y-14366D03*
X4918Y-13366D03*
X3918Y-13366D03*
X4918Y-12366D03*
X3918Y-12366D03*
X4918Y-11366D03*
X3918Y-11366D03*
X4918Y-10366D03*
X3918Y-10366D03*
X4918Y-9366D03*
X3918Y-9366D03*
X4918Y-8366D03*
X3918Y-8366D03*
X21206Y-20846D03*
X16706Y-20846D03*
G54D19*
X26196Y-21141D03*
X24196Y-21141D03*
X28196Y-21141D03*
X22196Y-21141D03*
G54D20*
X23618Y-19488D03*
G54D21*
X26618Y-19488D03*
M02*
