G04 (created by PCBNEW (2013-07-07 BZR 4022)-stable) date Mon 12 Jan 2015 09:48:45 AM MSK*
%MOIN*%
G04 Gerber Fmt 3.4, Leading zero omitted, Abs format*
%FSLAX34Y34*%
G01*
G70*
G90*
G04 APERTURE LIST*
%ADD10C,0.00590551*%
%ADD11R,0.035X0.055*%
%ADD12C,0.19685*%
%ADD13R,0.055X0.035*%
%ADD14R,0.06X0.06*%
%ADD15C,0.06*%
%ADD16C,0.066*%
%ADD17R,0.06X0.0098*%
%ADD18O,0.06X0.0098*%
%ADD19O,0.0098X0.06*%
%ADD20R,0.036X0.036*%
%ADD21R,0.0394X0.0315*%
%ADD22R,0.0236X0.0551*%
%ADD23R,0.0551X0.0236*%
%ADD24C,0.0590551*%
%ADD25R,0.015748X0.0531496*%
%ADD26R,0.0787402X0.0629921*%
%ADD27R,0.0748031X0.0748031*%
%ADD28R,0.055X0.055*%
%ADD29C,0.055*%
%ADD30R,0.0433X0.0748*%
%ADD31R,0.07X0.07*%
%ADD32C,0.07*%
%ADD33C,0.16*%
%ADD34O,0.0098X0.0394*%
%ADD35O,0.0394X0.0098*%
%ADD36R,0.11811X0.11811*%
%ADD37R,0.06X0.08*%
%ADD38R,0.03X0.02*%
%ADD39R,0.0354331X0.11811*%
%ADD40R,0.409843X0.271654*%
%ADD41C,0.035*%
%ADD42C,0.023622*%
%ADD43C,0.015748*%
%ADD44C,0.01*%
G04 APERTURE END LIST*
G54D10*
G54D11*
X19922Y-7696D03*
X19172Y-7696D03*
X19922Y-6948D03*
X19172Y-6948D03*
X20471Y-6948D03*
X21221Y-6948D03*
X19172Y-6200D03*
X19922Y-6200D03*
G54D12*
X32677Y-23622D03*
X1574Y-23425D03*
X32677Y-1574D03*
X1574Y-1574D03*
G54D13*
X14118Y-1261D03*
X14118Y-511D03*
X12338Y-1261D03*
X12338Y-511D03*
X10578Y-1261D03*
X10578Y-511D03*
X8098Y-3341D03*
X8098Y-2591D03*
X9098Y-3341D03*
X9098Y-2591D03*
G54D14*
X8098Y-666D03*
G54D15*
X8098Y-1666D03*
G54D14*
X9098Y-666D03*
G54D15*
X9098Y-1666D03*
G54D16*
X14118Y-3186D03*
X14118Y-2186D03*
X12338Y-3186D03*
X12338Y-2186D03*
X10578Y-3186D03*
X10578Y-2186D03*
G54D17*
X13609Y-14694D03*
G54D18*
X13609Y-14497D03*
X13609Y-14300D03*
X13609Y-14103D03*
X13609Y-13906D03*
X13609Y-13710D03*
X13609Y-13513D03*
X13609Y-13316D03*
X13609Y-13119D03*
X13609Y-12922D03*
X13609Y-12725D03*
X13609Y-12529D03*
X13609Y-12332D03*
X13609Y-12135D03*
X13609Y-11938D03*
X13609Y-11741D03*
G54D19*
X12774Y-10843D03*
X12577Y-10843D03*
X12380Y-10843D03*
X12183Y-10843D03*
X11986Y-10843D03*
X11790Y-10843D03*
X11593Y-10843D03*
X11396Y-10843D03*
X11199Y-10843D03*
X11002Y-10843D03*
X10805Y-10843D03*
X10609Y-10843D03*
X10412Y-10843D03*
X10215Y-10843D03*
X10018Y-10843D03*
X9821Y-10843D03*
G54D18*
X8923Y-11741D03*
X8923Y-11938D03*
X8923Y-12135D03*
X8923Y-12332D03*
X8923Y-12529D03*
X8923Y-12725D03*
X8923Y-12922D03*
X8923Y-13119D03*
X8923Y-13316D03*
X8923Y-13513D03*
X8923Y-13710D03*
X8923Y-13906D03*
X8923Y-14103D03*
X8923Y-14300D03*
X8923Y-14497D03*
X8923Y-14694D03*
G54D19*
X9821Y-15529D03*
X10018Y-15529D03*
X10412Y-15529D03*
X10215Y-15536D03*
X10609Y-15529D03*
X10805Y-15529D03*
X11002Y-15529D03*
X11199Y-15529D03*
X11396Y-15529D03*
X11593Y-15529D03*
X11787Y-15529D03*
X11984Y-15529D03*
X12181Y-15529D03*
X12378Y-15529D03*
X12574Y-15529D03*
X12771Y-15529D03*
G54D20*
X15781Y-22082D03*
X15781Y-21382D03*
X16581Y-21732D03*
G54D21*
X14212Y-10157D03*
X15078Y-9782D03*
X15078Y-10532D03*
X14351Y-8786D03*
X13485Y-9161D03*
X13485Y-8411D03*
G54D22*
X24147Y-4400D03*
X24147Y-2300D03*
X23647Y-4400D03*
X23147Y-4400D03*
X22647Y-4400D03*
X23647Y-2300D03*
X23147Y-2300D03*
X22647Y-2300D03*
G54D23*
X19107Y-18860D03*
X21207Y-18860D03*
X19107Y-18360D03*
X19107Y-17860D03*
X19107Y-17360D03*
X21207Y-18360D03*
X21207Y-17860D03*
X21207Y-17360D03*
G54D11*
X20119Y-9409D03*
X19369Y-9409D03*
X20119Y-10157D03*
X19369Y-10157D03*
X16595Y-9881D03*
X15845Y-9881D03*
X30749Y-17992D03*
X29999Y-17992D03*
X24784Y-11929D03*
X24034Y-11929D03*
G54D13*
X18346Y-18249D03*
X18346Y-17499D03*
G54D11*
X20532Y-16614D03*
X19782Y-16614D03*
X16595Y-9133D03*
X15845Y-9133D03*
X10178Y-6692D03*
X9428Y-6692D03*
G54D13*
X9718Y-18631D03*
X9718Y-19381D03*
X29881Y-16278D03*
X29881Y-17028D03*
G54D11*
X30827Y-21062D03*
X30077Y-21062D03*
X14388Y-21377D03*
X15138Y-21377D03*
G54D13*
X27696Y-15628D03*
X27696Y-16378D03*
G54D11*
X5943Y-23366D03*
X6693Y-23366D03*
X5943Y-22266D03*
X6693Y-22266D03*
G54D13*
X25729Y-3732D03*
X25729Y-2982D03*
G54D11*
X8838Y-10620D03*
X8088Y-10620D03*
X14506Y-11181D03*
X15256Y-11181D03*
X19792Y-19616D03*
X20542Y-19616D03*
G54D13*
X12718Y-9161D03*
X12718Y-8411D03*
G54D11*
X15653Y-13866D03*
X14903Y-13866D03*
X16363Y-15886D03*
X17113Y-15886D03*
X17553Y-12726D03*
X16803Y-12726D03*
X19373Y-11946D03*
X18623Y-11946D03*
X17953Y-11946D03*
X17203Y-11946D03*
X8838Y-9832D03*
X8088Y-9832D03*
X24310Y-14133D03*
X25060Y-14133D03*
G54D13*
X8739Y-15560D03*
X8739Y-16310D03*
G54D11*
X12616Y-9872D03*
X13366Y-9872D03*
X13600Y-15659D03*
X14350Y-15659D03*
X14506Y-11889D03*
X15256Y-11889D03*
X4153Y-5166D03*
X3403Y-5166D03*
X5053Y-3566D03*
X4303Y-3566D03*
X4833Y-4386D03*
X4083Y-4386D03*
X4693Y-6026D03*
X3943Y-6026D03*
X4693Y-6766D03*
X3943Y-6766D03*
G54D13*
X24969Y-3732D03*
X24969Y-2982D03*
G54D11*
X25684Y-2317D03*
X24934Y-2317D03*
G54D13*
X25905Y-13089D03*
X25905Y-13839D03*
G54D11*
X23103Y-1539D03*
X22353Y-1539D03*
G54D13*
X21822Y-3725D03*
X21822Y-2975D03*
G54D11*
X23772Y-5240D03*
X23022Y-5240D03*
G54D13*
X23346Y-11160D03*
X23346Y-11910D03*
G54D11*
X28128Y-17598D03*
X28878Y-17598D03*
X17144Y-9133D03*
X17894Y-9133D03*
X15845Y-8385D03*
X16595Y-8385D03*
G54D13*
X23464Y-13367D03*
X23464Y-12617D03*
X30669Y-16278D03*
X30669Y-17028D03*
G54D11*
X21457Y-8661D03*
X20707Y-8661D03*
X20707Y-9409D03*
X21457Y-9409D03*
G54D24*
X27677Y-4370D03*
X27677Y-2401D03*
X26437Y-6397D03*
X24468Y-6397D03*
G54D14*
X4918Y-23366D03*
G54D15*
X4918Y-22366D03*
X4918Y-21366D03*
G54D14*
X6820Y-15141D03*
G54D15*
X6820Y-16141D03*
X6820Y-17141D03*
G54D14*
X3918Y-23366D03*
G54D15*
X3918Y-22366D03*
X3918Y-21366D03*
G54D14*
X8758Y-19866D03*
G54D15*
X8758Y-18866D03*
G54D14*
X18458Y-12886D03*
G54D15*
X18458Y-13886D03*
G54D25*
X5954Y-2755D03*
X5698Y-2755D03*
X5442Y-2755D03*
X5186Y-2755D03*
X4930Y-2755D03*
G54D26*
X6682Y-2755D03*
X4202Y-2755D03*
G54D27*
X6918Y-1358D03*
X3965Y-1358D03*
X5914Y-1358D03*
X4969Y-1358D03*
G54D28*
X21086Y-21968D03*
G54D29*
X18086Y-21968D03*
G54D28*
X24472Y-5295D03*
G54D29*
X21472Y-5295D03*
G54D28*
X15598Y-4266D03*
G54D29*
X12598Y-4266D03*
G54D28*
X25009Y-4557D03*
G54D29*
X25009Y-1557D03*
G54D28*
X15578Y-5246D03*
G54D29*
X12578Y-5246D03*
G54D30*
X17211Y-15034D03*
X17211Y-13578D03*
X16305Y-13578D03*
X16305Y-15034D03*
G54D31*
X30614Y-3090D03*
G54D32*
X32614Y-3090D03*
G54D31*
X30409Y-7106D03*
G54D32*
X28409Y-7106D03*
G54D31*
X13798Y-4746D03*
G54D32*
X13798Y-6746D03*
G54D33*
X19898Y-1166D03*
X16898Y-1166D03*
X29527Y-23622D03*
X26771Y-23622D03*
X24015Y-23622D03*
G54D24*
X17937Y-23622D03*
X19937Y-23622D03*
X15937Y-23622D03*
X21937Y-23622D03*
G54D13*
X6721Y-7203D03*
X6721Y-7953D03*
G54D34*
X7312Y-4527D03*
X7115Y-4527D03*
X6918Y-4527D03*
X6721Y-4527D03*
X6524Y-4527D03*
X6327Y-4527D03*
X6130Y-4527D03*
G54D35*
X5737Y-4920D03*
X5737Y-5117D03*
X5737Y-5314D03*
X5737Y-5511D03*
X5737Y-5708D03*
X5737Y-5905D03*
X5737Y-6102D03*
G54D34*
X6130Y-6495D03*
X6327Y-6495D03*
X6524Y-6495D03*
X6721Y-6495D03*
X6918Y-6495D03*
X7115Y-6495D03*
X7312Y-6495D03*
G54D35*
X7705Y-6102D03*
X7705Y-5905D03*
X7705Y-5708D03*
X7705Y-5511D03*
X7705Y-5314D03*
X7705Y-5117D03*
X7705Y-4920D03*
G54D36*
X6721Y-5511D03*
G54D11*
X6654Y-19980D03*
X5904Y-19980D03*
X6654Y-20964D03*
X5904Y-20964D03*
X6693Y-18287D03*
X5943Y-18287D03*
X6693Y-8866D03*
X5943Y-8866D03*
X6693Y-9666D03*
X5943Y-9666D03*
X6693Y-10466D03*
X5943Y-10466D03*
X6693Y-11366D03*
X5943Y-11366D03*
G54D14*
X4918Y-20366D03*
G54D15*
X3918Y-20366D03*
X4918Y-19366D03*
X3918Y-19366D03*
X4918Y-18366D03*
X3918Y-18366D03*
X4918Y-17366D03*
X3918Y-17366D03*
X4918Y-16366D03*
X3918Y-16366D03*
X4918Y-15366D03*
X3918Y-15366D03*
X4918Y-14366D03*
X3918Y-14366D03*
X4918Y-13366D03*
X3918Y-13366D03*
X4918Y-12366D03*
X3918Y-12366D03*
X4918Y-11366D03*
X3918Y-11366D03*
X4918Y-10366D03*
X3918Y-10366D03*
X4918Y-9366D03*
X3918Y-9366D03*
X4918Y-8366D03*
X3918Y-8366D03*
G54D23*
X32112Y-18777D03*
X30012Y-18777D03*
X32112Y-19277D03*
X32112Y-19777D03*
X32112Y-20277D03*
X30012Y-19277D03*
X30012Y-19777D03*
X30012Y-20277D03*
G54D13*
X26929Y-14880D03*
X26929Y-15630D03*
G54D11*
X25060Y-14881D03*
X24310Y-14881D03*
G54D13*
X26653Y-13089D03*
X26653Y-13839D03*
G54D11*
X32087Y-17992D03*
X31337Y-17992D03*
X31416Y-21062D03*
X32166Y-21062D03*
X24034Y-11181D03*
X24784Y-11181D03*
G54D13*
X28779Y-19272D03*
X28779Y-18522D03*
X18346Y-19548D03*
X18346Y-18798D03*
G54D11*
X21910Y-16614D03*
X21160Y-16614D03*
G54D13*
X28031Y-18522D03*
X28031Y-19272D03*
X33267Y-7144D03*
X33267Y-7894D03*
G54D15*
X21206Y-20846D03*
X16706Y-20846D03*
G54D37*
X20374Y-20846D03*
X19074Y-20846D03*
G54D38*
X25224Y-13367D03*
X25224Y-12617D03*
X24224Y-13367D03*
X25224Y-12992D03*
X24224Y-12617D03*
G54D39*
X28500Y-15094D03*
X29000Y-15094D03*
X29500Y-15094D03*
X30000Y-15094D03*
X30500Y-15094D03*
X31000Y-15094D03*
X31500Y-15094D03*
G54D40*
X30000Y-11452D03*
G54D24*
X26196Y-21141D03*
X24196Y-21141D03*
X28196Y-21141D03*
X22196Y-21141D03*
G54D20*
X25544Y-18538D03*
X25544Y-17838D03*
X26344Y-18188D03*
G54D11*
X24152Y-17834D03*
X24902Y-17834D03*
G54D28*
X23618Y-19488D03*
G54D29*
X26618Y-19488D03*
G54D41*
X17972Y-9744D03*
X19724Y-11200D03*
X5278Y-4786D03*
X6515Y-3631D03*
X14243Y-9616D03*
X15368Y-16341D03*
X1558Y-14566D03*
X1558Y-10446D03*
X14133Y-19153D03*
X13661Y-17125D03*
X9618Y-7386D03*
X10238Y-5646D03*
X12598Y-7303D03*
X12244Y-7913D03*
X27736Y-14940D03*
X24744Y-16653D03*
X9498Y-16946D03*
X11358Y-16946D03*
X9638Y-17386D03*
X11978Y-16686D03*
X10378Y-18406D03*
X7143Y-22266D03*
X10878Y-18366D03*
X7168Y-23366D03*
X2818Y-9566D03*
X2738Y-13966D03*
X22933Y-17834D03*
X13070Y-17165D03*
X918Y-14541D03*
X1043Y-10416D03*
X5298Y-7086D03*
X7678Y-13166D03*
X8518Y-9206D03*
X8038Y-13866D03*
X13366Y-10708D03*
X13897Y-11200D03*
X17696Y-19763D03*
X25511Y-15255D03*
X32381Y-17342D03*
X32696Y-21062D03*
X29291Y-16240D03*
X26653Y-14311D03*
X22460Y-16515D03*
X11377Y-12598D03*
X6919Y-3356D03*
X32893Y-8503D03*
X33267Y-16456D03*
X31377Y-16988D03*
X18917Y-10511D03*
X18622Y-7696D03*
X22618Y-13169D03*
X22322Y-7814D03*
X4606Y-5393D03*
X17358Y-11086D03*
X12118Y-9166D03*
X9360Y-10029D03*
X8618Y-3886D03*
X7185Y-20944D03*
X14389Y-15029D03*
X7864Y-7214D03*
X9330Y-15905D03*
G54D42*
X12598Y-4266D02*
X12818Y-4266D01*
X15838Y-1166D02*
X16898Y-1166D01*
X15238Y-1766D02*
X15838Y-1166D01*
X15238Y-2926D02*
X15238Y-1766D01*
X14378Y-3786D02*
X15238Y-2926D01*
X13298Y-3786D02*
X14378Y-3786D01*
X12818Y-4266D02*
X13298Y-3786D01*
G54D43*
X20846Y-6633D02*
X20846Y-6555D01*
X20393Y-5885D02*
X20137Y-5629D01*
X20393Y-6102D02*
X20393Y-5885D01*
X20846Y-6555D02*
X20393Y-6102D01*
G54D42*
X15845Y-8385D02*
X15845Y-7678D01*
X18405Y-6200D02*
X19172Y-6200D01*
X17421Y-7185D02*
X18405Y-6200D01*
X16338Y-7185D02*
X17421Y-7185D01*
X15845Y-7678D02*
X16338Y-7185D01*
X21457Y-8661D02*
X21830Y-8661D01*
X23346Y-10177D02*
X23346Y-11160D01*
X21830Y-8661D02*
X23346Y-10177D01*
X14506Y-11889D02*
X14506Y-11181D01*
G54D43*
X20846Y-7696D02*
X20846Y-7775D01*
X20846Y-7775D02*
X21457Y-8386D01*
X21457Y-8386D02*
X21457Y-8661D01*
X19172Y-6200D02*
X19172Y-5768D01*
X19311Y-5629D02*
X19172Y-5768D01*
X20137Y-5629D02*
X19311Y-5629D01*
X20846Y-7696D02*
X20846Y-6633D01*
X15078Y-9782D02*
X15078Y-8779D01*
X15472Y-8385D02*
X15845Y-8385D01*
X15078Y-8779D02*
X15472Y-8385D01*
X14506Y-11181D02*
X14506Y-10689D01*
X14506Y-10689D02*
X14606Y-10590D01*
X14606Y-10590D02*
X14606Y-10000D01*
X14606Y-10000D02*
X14823Y-9782D01*
X14823Y-9782D02*
X15078Y-9782D01*
G54D44*
X13609Y-12332D02*
X13966Y-12332D01*
X14409Y-11889D02*
X14506Y-11889D01*
X13966Y-12332D02*
X14409Y-11889D01*
G54D43*
X17125Y-10728D02*
X17559Y-10295D01*
G54D44*
X15378Y-13031D02*
X15554Y-13031D01*
X16458Y-11726D02*
X16458Y-11406D01*
X16238Y-11946D02*
X16458Y-11726D01*
X16238Y-12346D02*
X16238Y-11946D01*
X15554Y-13031D02*
X16238Y-12346D01*
X14281Y-13316D02*
X14390Y-13316D01*
X14675Y-13031D02*
X15378Y-13031D01*
X14390Y-13316D02*
X14675Y-13031D01*
X13609Y-13316D02*
X14281Y-13316D01*
G54D43*
X16458Y-11395D02*
X17125Y-10728D01*
X16458Y-11406D02*
X16458Y-11395D01*
X20119Y-9095D02*
X20119Y-9409D01*
X19862Y-8838D02*
X20119Y-9095D01*
X19074Y-8838D02*
X19862Y-8838D01*
X18858Y-9055D02*
X19074Y-8838D01*
X18858Y-9881D02*
X18858Y-9055D01*
X18444Y-10295D02*
X18858Y-9881D01*
X17559Y-10295D02*
X18444Y-10295D01*
G54D42*
X20119Y-9409D02*
X20119Y-10157D01*
X20707Y-9409D02*
X20119Y-9409D01*
X20707Y-9409D02*
X20707Y-8661D01*
X28196Y-21141D02*
X28196Y-20838D01*
X28196Y-20838D02*
X29153Y-19881D01*
X29671Y-19777D02*
X30012Y-19777D01*
X29566Y-19881D02*
X29671Y-19777D01*
X29153Y-19881D02*
X29566Y-19881D01*
X26771Y-23622D02*
X26771Y-22566D01*
X26771Y-22566D02*
X28196Y-21141D01*
G54D43*
X28196Y-21141D02*
X28196Y-20838D01*
G54D42*
X19922Y-6948D02*
X19922Y-6200D01*
X19922Y-6948D02*
X20471Y-6948D01*
X19922Y-7696D02*
X19922Y-6948D01*
G54D43*
X16893Y-10452D02*
X17519Y-9826D01*
G54D44*
X14226Y-13119D02*
X14273Y-13072D01*
X13609Y-13119D02*
X14226Y-13119D01*
X14279Y-13072D02*
X14547Y-12805D01*
X14547Y-12805D02*
X15462Y-12805D01*
X15462Y-12805D02*
X16009Y-12257D01*
X14273Y-13072D02*
X14279Y-13072D01*
X16009Y-11835D02*
X16078Y-11766D01*
X16078Y-11766D02*
X16078Y-11266D01*
G54D43*
X16078Y-11266D02*
X16694Y-10651D01*
G54D44*
X16009Y-12257D02*
X16009Y-11835D01*
G54D43*
X16694Y-10651D02*
X16893Y-10452D01*
X19922Y-8030D02*
X19922Y-7696D01*
X19566Y-8385D02*
X19922Y-8030D01*
X17795Y-8385D02*
X19566Y-8385D01*
X17519Y-8661D02*
X17795Y-8385D01*
X17519Y-9826D02*
X17519Y-8661D01*
X19107Y-17860D02*
X17820Y-17860D01*
X18031Y-9270D02*
X17894Y-9133D01*
X18031Y-9685D02*
X18031Y-9270D01*
X17972Y-9744D02*
X18031Y-9685D01*
X19980Y-11456D02*
X19724Y-11200D01*
X19980Y-12460D02*
X19980Y-11456D01*
X19429Y-13011D02*
X19980Y-12460D01*
X19429Y-15826D02*
X19429Y-13011D01*
X18503Y-16751D02*
X19429Y-15826D01*
X17972Y-16751D02*
X18503Y-16751D01*
X17657Y-17066D02*
X17972Y-16751D01*
X17657Y-17342D02*
X17657Y-17066D01*
X17677Y-17362D02*
X17657Y-17342D01*
X17677Y-17716D02*
X17677Y-17362D01*
X17820Y-17860D02*
X17677Y-17716D01*
G54D42*
X16595Y-9881D02*
X16595Y-9133D01*
X16595Y-9133D02*
X17144Y-9133D01*
X16595Y-9133D02*
X16595Y-8385D01*
G54D43*
X16595Y-9881D02*
X16595Y-10350D01*
X15833Y-11112D02*
X16578Y-10366D01*
X15816Y-11555D02*
X15816Y-11112D01*
G54D44*
X15295Y-12578D02*
X14447Y-12578D01*
X15816Y-12057D02*
X15295Y-12578D01*
X15816Y-11555D02*
X15816Y-12057D01*
X14447Y-12578D02*
X14172Y-12853D01*
X14172Y-12853D02*
X14103Y-12922D01*
X14103Y-12922D02*
X13609Y-12922D01*
G54D43*
X15816Y-11112D02*
X15833Y-11112D01*
X16595Y-10350D02*
X16578Y-10366D01*
G54D44*
X5737Y-4920D02*
X5412Y-4920D01*
X5412Y-4920D02*
X5278Y-4786D01*
X5954Y-3237D02*
X5954Y-2755D01*
X6515Y-3631D02*
X6250Y-3366D01*
X6250Y-3366D02*
X6082Y-3366D01*
X6082Y-3366D02*
X5954Y-3237D01*
G54D42*
X15368Y-16341D02*
X15368Y-16717D01*
X7294Y-24791D02*
X6393Y-24791D01*
X15368Y-16717D02*
X7294Y-24791D01*
X14351Y-8786D02*
X14351Y-9508D01*
X14351Y-9508D02*
X14243Y-9616D01*
X14212Y-10157D02*
X14212Y-9648D01*
X14212Y-9648D02*
X14243Y-9616D01*
G54D43*
X14212Y-9648D02*
X14243Y-9616D01*
G54D42*
X3968Y-24791D02*
X3668Y-24791D01*
X2843Y-22091D02*
X1998Y-21246D01*
X2843Y-23966D02*
X2843Y-22091D01*
X3668Y-24791D02*
X2843Y-23966D01*
X3968Y-24791D02*
X6393Y-24791D01*
X1558Y-15026D02*
X1998Y-15466D01*
X1558Y-15026D02*
X1558Y-14566D01*
X1998Y-15466D02*
X1998Y-21246D01*
X20866Y-4017D02*
X18029Y-4017D01*
X14578Y-5856D02*
X14388Y-5856D01*
X14643Y-5791D02*
X14578Y-5856D01*
X16255Y-5791D02*
X14643Y-5791D01*
X18029Y-4017D02*
X16255Y-5791D01*
X3918Y-12366D02*
X3718Y-12366D01*
X3718Y-12366D02*
X3338Y-11986D01*
X4918Y-12366D02*
X3918Y-12366D01*
X3338Y-11986D02*
X3338Y-9526D01*
X1558Y-10266D02*
X1558Y-10446D01*
X2678Y-9146D02*
X1558Y-10266D01*
X2958Y-9146D02*
X2678Y-9146D01*
X3338Y-9526D02*
X2958Y-9146D01*
X14388Y-5856D02*
X14388Y-7796D01*
X14388Y-7796D02*
X14351Y-7833D01*
X14351Y-8786D02*
X14351Y-7833D01*
X13798Y-5266D02*
X13798Y-4746D01*
X14388Y-5856D02*
X13798Y-5266D01*
X20789Y-4017D02*
X20866Y-4017D01*
X20866Y-4017D02*
X21531Y-4017D01*
X21531Y-4017D02*
X21822Y-3725D01*
X1558Y-10446D02*
X1558Y-14566D01*
X15578Y-4746D02*
X13798Y-4746D01*
X15578Y-5246D02*
X15578Y-4746D01*
X15578Y-4746D02*
X15578Y-4286D01*
X15578Y-4286D02*
X15598Y-4266D01*
X23022Y-5240D02*
X22331Y-5240D01*
X22331Y-5240D02*
X21822Y-4732D01*
X21822Y-4732D02*
X21822Y-3725D01*
X23147Y-4400D02*
X23147Y-5115D01*
X23147Y-5115D02*
X23022Y-5240D01*
X18086Y-21968D02*
X17716Y-21968D01*
X17480Y-21732D02*
X16581Y-21732D01*
X17716Y-21968D02*
X17480Y-21732D01*
X17937Y-23622D02*
X17937Y-22929D01*
X18086Y-22779D02*
X18086Y-21968D01*
X17937Y-22929D02*
X18086Y-22779D01*
G54D43*
X14133Y-19389D02*
X14133Y-19153D01*
X14388Y-21377D02*
X14388Y-19644D01*
X14388Y-19644D02*
X14133Y-19389D01*
G54D44*
X12378Y-15529D02*
X12378Y-15956D01*
X13548Y-17125D02*
X13661Y-17125D01*
X12378Y-15956D02*
X13548Y-17125D01*
G54D42*
X15937Y-23622D02*
X16791Y-23622D01*
X20393Y-20865D02*
X20374Y-20846D01*
X20393Y-22165D02*
X20393Y-20865D01*
X18307Y-24251D02*
X20393Y-22165D01*
X17421Y-24251D02*
X18307Y-24251D01*
X16791Y-23622D02*
X17421Y-24251D01*
X21206Y-20846D02*
X20374Y-20846D01*
X22196Y-21141D02*
X21889Y-21141D01*
X21594Y-20846D02*
X21206Y-20846D01*
X21889Y-21141D02*
X21594Y-20846D01*
X22196Y-21141D02*
X22196Y-18771D01*
X22196Y-18771D02*
X21785Y-18360D01*
X21785Y-18360D02*
X21207Y-18360D01*
G54D43*
X10000Y-4173D02*
X10005Y-4173D01*
X9724Y-7492D02*
X9724Y-9429D01*
X9618Y-7386D02*
X9724Y-7492D01*
X10238Y-4406D02*
X10238Y-5646D01*
X10005Y-4173D02*
X10238Y-4406D01*
G54D44*
X10215Y-10843D02*
X10215Y-9920D01*
X10215Y-9920D02*
X9724Y-9429D01*
G54D43*
X8203Y-2591D02*
X8098Y-2591D01*
X8578Y-2966D02*
X9370Y-2966D01*
X8203Y-2591D02*
X8578Y-2966D01*
X9370Y-2966D02*
X9429Y-2966D01*
X9763Y-3937D02*
X10000Y-4173D01*
X9763Y-3228D02*
X9763Y-3937D01*
X9502Y-2966D02*
X9763Y-3228D01*
X9429Y-2966D02*
X9502Y-2966D01*
X8098Y-2591D02*
X8098Y-1666D01*
G54D44*
X10412Y-10843D02*
X10412Y-8877D01*
X10078Y-8543D02*
X10078Y-7381D01*
X10412Y-8877D02*
X10078Y-8543D01*
G54D43*
X9803Y-6240D02*
X9996Y-6046D01*
X10590Y-5875D02*
X10590Y-4822D01*
X10418Y-6046D02*
X10590Y-5875D01*
X9996Y-6046D02*
X10418Y-6046D01*
X10275Y-3720D02*
X10590Y-4035D01*
X10590Y-4035D02*
X10590Y-4822D01*
X10038Y-3503D02*
X10039Y-3503D01*
X10255Y-3720D02*
X10275Y-3720D01*
X10039Y-3503D02*
X10255Y-3720D01*
G54D44*
X9803Y-7066D02*
X9803Y-6240D01*
X9901Y-7165D02*
X9803Y-7066D01*
X9901Y-7204D02*
X9901Y-7165D01*
X10078Y-7381D02*
X9901Y-7204D01*
G54D43*
X9098Y-2591D02*
X9523Y-2591D01*
X10038Y-3106D02*
X10038Y-3503D01*
X9523Y-2591D02*
X10038Y-3106D01*
X9098Y-2591D02*
X9098Y-1666D01*
G54D44*
X11986Y-10843D02*
X11986Y-10490D01*
X11830Y-7303D02*
X12598Y-7303D01*
X11456Y-7677D02*
X11830Y-7303D01*
X11456Y-9960D02*
X11456Y-7677D01*
X11986Y-10490D02*
X11456Y-9960D01*
X12183Y-10843D02*
X12183Y-10234D01*
X11771Y-8385D02*
X12244Y-7913D01*
X11771Y-9822D02*
X11771Y-8385D01*
X12183Y-10234D02*
X11771Y-9822D01*
G54D42*
X21207Y-17860D02*
X21726Y-17860D01*
X22519Y-17106D02*
X22972Y-16653D01*
X22480Y-17106D02*
X22519Y-17106D01*
X21726Y-17860D02*
X22480Y-17106D01*
X19074Y-20846D02*
X16706Y-20846D01*
X31000Y-15094D02*
X31000Y-14248D01*
X31000Y-14248D02*
X30885Y-14133D01*
X30885Y-14133D02*
X28169Y-14133D01*
X28169Y-14133D02*
X27736Y-14566D01*
X27736Y-14566D02*
X27736Y-14940D01*
X24744Y-16653D02*
X22972Y-16653D01*
G54D43*
X21457Y-9409D02*
X21457Y-14252D01*
X22972Y-15767D02*
X22972Y-16653D01*
X21457Y-14252D02*
X22972Y-15767D01*
X22539Y-6948D02*
X22598Y-6948D01*
X27007Y-11574D02*
X27283Y-11850D01*
X27007Y-11358D02*
X27007Y-11574D01*
X22598Y-6948D02*
X27007Y-11358D01*
X32112Y-19777D02*
X32663Y-19777D01*
X32663Y-19777D02*
X32814Y-19625D01*
X32814Y-19625D02*
X32814Y-15059D01*
X32814Y-15059D02*
X31397Y-13641D01*
X31397Y-13641D02*
X28405Y-13641D01*
X28405Y-13641D02*
X27283Y-12519D01*
X27283Y-12519D02*
X27283Y-11850D01*
X22539Y-6948D02*
X21221Y-6948D01*
G54D42*
X28779Y-19272D02*
X28031Y-19272D01*
X30012Y-19277D02*
X28784Y-19277D01*
X28784Y-19277D02*
X28779Y-19272D01*
X32112Y-19777D02*
X31450Y-19777D01*
X31450Y-19777D02*
X30950Y-19277D01*
X30950Y-19277D02*
X30012Y-19277D01*
G54D43*
X30950Y-19277D02*
X30012Y-19277D01*
X31450Y-19777D02*
X30950Y-19277D01*
G54D42*
X24224Y-13367D02*
X24224Y-13535D01*
X24224Y-13535D02*
X24310Y-13621D01*
X24310Y-13621D02*
X24310Y-14133D01*
X24310Y-14881D02*
X24310Y-14133D01*
G54D43*
X24310Y-14133D02*
X24310Y-13621D01*
X24310Y-13621D02*
X24224Y-13535D01*
G54D42*
X25905Y-13089D02*
X26653Y-13089D01*
X25224Y-12992D02*
X25452Y-12992D01*
X25452Y-12992D02*
X25550Y-13089D01*
X25550Y-13089D02*
X25905Y-13089D01*
G54D43*
X25550Y-13089D02*
X25905Y-13089D01*
X25452Y-12992D02*
X25550Y-13089D01*
G54D42*
X4918Y-8366D02*
X3918Y-8366D01*
X5943Y-8866D02*
X5443Y-8366D01*
X5443Y-8366D02*
X4918Y-8366D01*
X4918Y-9366D02*
X3918Y-9366D01*
X5943Y-9666D02*
X5618Y-9666D01*
X5318Y-9366D02*
X4918Y-9366D01*
X5618Y-9666D02*
X5318Y-9366D01*
X4918Y-10366D02*
X3918Y-10366D01*
X5943Y-10466D02*
X5018Y-10466D01*
X5018Y-10466D02*
X4918Y-10366D01*
X4918Y-11366D02*
X3918Y-11366D01*
X5943Y-11366D02*
X4918Y-11366D01*
G54D43*
X4918Y-18366D02*
X5218Y-18366D01*
X5904Y-19352D02*
X5904Y-19980D01*
X5618Y-19066D02*
X5904Y-19352D01*
X5618Y-18766D02*
X5618Y-19066D01*
X5218Y-18366D02*
X5618Y-18766D01*
G54D42*
X4918Y-18366D02*
X3918Y-18366D01*
G54D43*
X9498Y-16946D02*
X9298Y-16946D01*
X9298Y-16946D02*
X9238Y-17006D01*
X9238Y-17006D02*
X7678Y-17006D01*
X7678Y-17006D02*
X7278Y-17406D01*
X7278Y-17406D02*
X7278Y-17426D01*
X7278Y-17426D02*
X7038Y-17666D01*
X7038Y-17666D02*
X6478Y-17666D01*
X6478Y-17666D02*
X6318Y-17826D01*
X6318Y-17826D02*
X6318Y-19246D01*
X6318Y-19246D02*
X5904Y-19661D01*
X5904Y-19661D02*
X5904Y-19980D01*
G54D44*
X11593Y-15529D02*
X11593Y-16712D01*
X11593Y-16712D02*
X11358Y-16946D01*
G54D43*
X5904Y-20964D02*
X5816Y-20964D01*
X5218Y-19366D02*
X4918Y-19366D01*
X5518Y-19666D02*
X5218Y-19366D01*
X5518Y-20666D02*
X5518Y-19666D01*
X5816Y-20964D02*
X5518Y-20666D01*
G54D42*
X3918Y-19366D02*
X4918Y-19366D01*
G54D44*
X11787Y-15529D02*
X11787Y-16495D01*
G54D43*
X5904Y-21132D02*
X5904Y-20964D01*
X6238Y-21466D02*
X5904Y-21132D01*
X7158Y-21466D02*
X6238Y-21466D01*
X7578Y-21046D02*
X7158Y-21466D01*
X7578Y-20606D02*
X7578Y-21046D01*
X7158Y-20186D02*
X7578Y-20606D01*
X7158Y-18026D02*
X7158Y-20186D01*
X7858Y-17326D02*
X7158Y-18026D01*
X9578Y-17326D02*
X7858Y-17326D01*
X9638Y-17386D02*
X9578Y-17326D01*
G54D44*
X11787Y-16495D02*
X11978Y-16686D01*
X11199Y-9902D02*
X11199Y-7146D01*
X11199Y-7146D02*
X11709Y-6637D01*
G54D43*
X11709Y-6637D02*
X11709Y-4436D01*
X13218Y-3186D02*
X12638Y-3766D01*
X12638Y-3766D02*
X12378Y-3766D01*
X14118Y-3186D02*
X13218Y-3186D01*
X11709Y-4436D02*
X12378Y-3766D01*
G54D44*
X11199Y-10843D02*
X11199Y-9902D01*
X11002Y-9822D02*
X11002Y-6871D01*
X11002Y-6871D02*
X11417Y-6456D01*
X11002Y-10843D02*
X11002Y-9822D01*
G54D43*
X12338Y-3246D02*
X11398Y-4186D01*
X11417Y-6456D02*
X11417Y-5078D01*
X11417Y-5078D02*
X11398Y-5060D01*
X11398Y-5060D02*
X11398Y-4186D01*
X12338Y-3246D02*
X12338Y-3186D01*
G54D44*
X10805Y-9704D02*
X10805Y-6556D01*
X10805Y-6556D02*
X11043Y-6318D01*
G54D43*
X10578Y-3186D02*
X10667Y-3186D01*
X11043Y-3562D02*
X11043Y-6318D01*
X10667Y-3186D02*
X11043Y-3562D01*
G54D44*
X10805Y-10843D02*
X10805Y-9704D01*
G54D43*
X6318Y-9626D02*
X6318Y-8466D01*
G54D44*
X7705Y-5511D02*
X8098Y-5511D01*
X7007Y-13779D02*
X6678Y-13779D01*
X7086Y-13700D02*
X7007Y-13779D01*
X7224Y-13700D02*
X7086Y-13700D01*
X7411Y-13513D02*
X7224Y-13700D01*
X7559Y-13513D02*
X8923Y-13513D01*
X7559Y-13513D02*
X7411Y-13513D01*
G54D43*
X8298Y-6266D02*
X8298Y-5866D01*
X6678Y-13779D02*
X6651Y-13779D01*
X6318Y-13446D02*
X6318Y-9626D01*
X6651Y-13779D02*
X6318Y-13446D01*
G54D44*
X8203Y-5511D02*
X8298Y-5606D01*
X8298Y-5606D02*
X8298Y-5866D01*
X8098Y-5511D02*
X8203Y-5511D01*
G54D43*
X8298Y-7286D02*
X7218Y-8366D01*
X7218Y-8366D02*
X6418Y-8366D01*
X6418Y-8366D02*
X6318Y-8466D01*
X8298Y-6266D02*
X8298Y-7286D01*
G54D44*
X11199Y-15529D02*
X11200Y-15530D01*
X10728Y-17546D02*
X10728Y-16702D01*
X10728Y-16702D02*
X11196Y-16234D01*
X11200Y-16230D02*
X11196Y-16234D01*
X11200Y-15530D02*
X11200Y-16230D01*
G54D43*
X10728Y-17717D02*
X10378Y-18066D01*
X10378Y-18066D02*
X10378Y-18406D01*
X10728Y-17546D02*
X10728Y-17717D01*
X7143Y-22266D02*
X6693Y-22266D01*
G54D44*
X11196Y-15529D02*
X11199Y-15529D01*
X11396Y-16457D02*
X11023Y-16830D01*
X11023Y-16830D02*
X11023Y-17546D01*
X11396Y-15529D02*
X11396Y-16457D01*
G54D43*
X11023Y-18222D02*
X10878Y-18366D01*
X11023Y-17546D02*
X11023Y-18222D01*
X7168Y-23366D02*
X6693Y-23366D01*
X6713Y-23367D02*
X6712Y-23366D01*
G54D44*
X11391Y-15529D02*
X11396Y-15529D01*
G54D43*
X4118Y-24466D02*
X3768Y-24466D01*
X3143Y-21716D02*
X2438Y-21011D01*
X3143Y-23841D02*
X3143Y-21716D01*
X3768Y-24466D02*
X3143Y-23841D01*
X7519Y-23641D02*
X7219Y-23941D01*
X6093Y-24466D02*
X4118Y-24466D01*
X6618Y-23941D02*
X6093Y-24466D01*
X7219Y-23941D02*
X6618Y-23941D01*
X2338Y-10046D02*
X2818Y-9566D01*
X2338Y-14226D02*
X2338Y-10046D01*
X2438Y-14326D02*
X2338Y-14226D01*
X2438Y-21011D02*
X2438Y-14326D01*
X7519Y-21966D02*
X8138Y-21346D01*
X7519Y-23641D02*
X7519Y-21966D01*
X8138Y-20866D02*
X8138Y-21346D01*
X10393Y-17606D02*
X10393Y-17612D01*
X8138Y-18706D02*
X8138Y-20866D01*
X8778Y-18066D02*
X8138Y-18706D01*
X9938Y-18066D02*
X8778Y-18066D01*
X10393Y-17612D02*
X9938Y-18066D01*
G54D44*
X10403Y-16643D02*
X10393Y-16653D01*
X10393Y-16653D02*
X10393Y-17606D01*
X11002Y-15529D02*
X11002Y-16044D01*
X11002Y-16044D02*
X10403Y-16643D01*
G54D43*
X3418Y-22416D02*
X3418Y-21491D01*
X3043Y-19216D02*
X2798Y-18971D01*
X3043Y-21116D02*
X3043Y-19216D01*
X3418Y-21491D02*
X3043Y-21116D01*
X4218Y-24166D02*
X3843Y-24166D01*
X3418Y-23741D02*
X3418Y-22416D01*
X3843Y-24166D02*
X3418Y-23741D01*
X6318Y-23566D02*
X6318Y-23766D01*
X5918Y-24166D02*
X4218Y-24166D01*
X6318Y-23766D02*
X5918Y-24166D01*
X7298Y-21726D02*
X7258Y-21766D01*
X6318Y-21866D02*
X6318Y-23566D01*
X6418Y-21766D02*
X6318Y-21866D01*
X7258Y-21766D02*
X6418Y-21766D01*
X2798Y-14026D02*
X2738Y-13966D01*
X2798Y-18971D02*
X2798Y-14026D01*
X10000Y-17566D02*
X9998Y-17566D01*
X7838Y-21186D02*
X7298Y-21726D01*
X7838Y-18366D02*
X7838Y-21186D01*
X8458Y-17746D02*
X7838Y-18366D01*
X9818Y-17746D02*
X8458Y-17746D01*
X9998Y-17566D02*
X9818Y-17746D01*
X10000Y-16555D02*
X10000Y-17566D01*
G54D44*
X10805Y-15887D02*
X10433Y-16259D01*
X10805Y-15887D02*
X10805Y-15529D01*
X10295Y-16259D02*
X10000Y-16555D01*
X10433Y-16259D02*
X10295Y-16259D01*
G54D42*
X3918Y-22366D02*
X4918Y-22366D01*
X26618Y-19488D02*
X26618Y-18462D01*
X26618Y-18462D02*
X26344Y-18188D01*
X26196Y-21141D02*
X26196Y-19909D01*
X26196Y-19909D02*
X26618Y-19488D01*
X24152Y-17834D02*
X22933Y-17834D01*
G54D44*
X12181Y-15529D02*
X12181Y-16118D01*
X12598Y-16692D02*
X13070Y-17165D01*
X12598Y-16535D02*
X12598Y-16692D01*
X12181Y-16118D02*
X12598Y-16535D01*
G54D43*
X943Y-14516D02*
X993Y-14516D01*
X918Y-14541D02*
X943Y-14516D01*
X1043Y-10416D02*
X993Y-10466D01*
X993Y-10466D02*
X993Y-14516D01*
X993Y-14516D02*
X1018Y-14541D01*
G54D44*
X5358Y-6186D02*
X5358Y-7026D01*
X5358Y-7026D02*
X5298Y-7086D01*
X8923Y-13316D02*
X7828Y-13316D01*
X7828Y-13316D02*
X7678Y-13166D01*
X5358Y-5846D02*
X5358Y-6186D01*
X5737Y-5708D02*
X5497Y-5708D01*
X5497Y-5708D02*
X5358Y-5846D01*
G54D43*
X6820Y-17141D02*
X6820Y-17105D01*
G54D44*
X9821Y-16004D02*
X9821Y-15529D01*
X9518Y-16306D02*
X9821Y-16004D01*
G54D43*
X9098Y-16726D02*
X9518Y-16306D01*
X7198Y-16726D02*
X9098Y-16726D01*
X6820Y-17105D02*
X7198Y-16726D01*
G54D44*
X8923Y-14300D02*
X7661Y-14300D01*
X7661Y-14300D02*
X6820Y-15141D01*
G54D43*
X8558Y-9166D02*
X8558Y-8646D01*
X8518Y-9206D02*
X8558Y-9166D01*
G54D44*
X7705Y-5314D02*
X8306Y-5314D01*
X8195Y-13710D02*
X8923Y-13710D01*
X8038Y-13866D02*
X8195Y-13710D01*
G54D43*
X8558Y-6026D02*
X8558Y-8646D01*
X8558Y-5786D02*
X8558Y-6026D01*
X8558Y-5566D02*
X8558Y-5786D01*
G54D44*
X8306Y-5314D02*
X8558Y-5566D01*
G54D42*
X4918Y-15366D02*
X5518Y-15366D01*
G54D43*
X5518Y-15366D02*
X5818Y-15366D01*
X5818Y-15366D02*
X5918Y-15466D01*
X5918Y-15466D02*
X5918Y-18262D01*
X5918Y-18262D02*
X5943Y-18287D01*
G54D42*
X3918Y-15366D02*
X4918Y-15366D01*
G54D44*
X12952Y-10708D02*
X12909Y-10708D01*
X13366Y-10708D02*
X12952Y-10708D01*
X12909Y-10708D02*
X12774Y-10843D01*
G54D42*
X3918Y-16366D02*
X4918Y-16366D01*
G54D44*
X13691Y-11741D02*
X13609Y-11741D01*
X13897Y-11200D02*
X13897Y-11535D01*
X13897Y-11535D02*
X13691Y-11741D01*
G54D42*
X18346Y-19548D02*
X17912Y-19548D01*
X17912Y-19548D02*
X17696Y-19763D01*
X25060Y-14881D02*
X25137Y-14881D01*
X25137Y-14881D02*
X25511Y-15255D01*
X32342Y-17303D02*
X31909Y-17303D01*
X32381Y-17342D02*
X32342Y-17303D01*
X21086Y-21968D02*
X23370Y-21968D01*
X23370Y-21968D02*
X24196Y-21141D01*
X21086Y-21968D02*
X21086Y-22299D01*
X19937Y-23448D02*
X19937Y-23622D01*
X21086Y-22299D02*
X19937Y-23448D01*
X24196Y-21141D02*
X24196Y-20066D01*
X24196Y-20066D02*
X23618Y-19488D01*
X32087Y-17992D02*
X31909Y-17813D01*
X31298Y-16278D02*
X30669Y-16278D01*
X31909Y-16889D02*
X31298Y-16278D01*
X31909Y-17813D02*
X31909Y-17303D01*
X31909Y-17303D02*
X31909Y-16889D01*
X30669Y-16278D02*
X30500Y-16109D01*
X30500Y-16109D02*
X30500Y-15094D01*
X30614Y-3090D02*
X26456Y-3090D01*
X26456Y-3090D02*
X26269Y-3277D01*
X25729Y-2982D02*
X26014Y-2982D01*
X25869Y-4557D02*
X25009Y-4557D01*
X26269Y-3395D02*
X26269Y-4157D01*
X26269Y-4157D02*
X25869Y-4557D01*
X26269Y-3237D02*
X26269Y-3277D01*
X26269Y-3277D02*
X26269Y-3395D01*
X26014Y-2982D02*
X26269Y-3237D01*
X25684Y-2317D02*
X25684Y-2937D01*
X25684Y-2937D02*
X25729Y-2982D01*
X32166Y-21062D02*
X32696Y-21062D01*
X29881Y-16278D02*
X29329Y-16278D01*
X29329Y-16278D02*
X29291Y-16240D01*
X26653Y-13839D02*
X26653Y-14311D01*
X21910Y-16614D02*
X22362Y-16614D01*
X22362Y-16614D02*
X22460Y-16515D01*
X29881Y-16278D02*
X30000Y-16160D01*
X30000Y-16160D02*
X30000Y-15094D01*
X28409Y-7106D02*
X25669Y-7106D01*
X22141Y-5964D02*
X21472Y-5295D01*
X23267Y-5964D02*
X22141Y-5964D01*
X24251Y-6948D02*
X23267Y-5964D01*
X25511Y-6948D02*
X24251Y-6948D01*
X25669Y-7106D02*
X25511Y-6948D01*
X25452Y-24783D02*
X15570Y-24783D01*
X15078Y-22784D02*
X15781Y-22082D01*
X15078Y-24291D02*
X15078Y-22784D01*
X15570Y-24783D02*
X15078Y-24291D01*
X25433Y-24783D02*
X25452Y-24783D01*
X25452Y-24783D02*
X31515Y-24783D01*
X25496Y-18538D02*
X25433Y-18602D01*
X25433Y-18602D02*
X25433Y-24783D01*
X25544Y-18538D02*
X25496Y-18538D01*
X31515Y-24783D02*
X32677Y-23622D01*
G54D43*
X14350Y-15659D02*
X15364Y-15659D01*
X15591Y-15886D02*
X16363Y-15886D01*
X15364Y-15659D02*
X15591Y-15886D01*
X15781Y-22082D02*
X15890Y-22082D01*
X15890Y-22082D02*
X16181Y-21791D01*
X16181Y-21791D02*
X16181Y-21023D01*
X16181Y-21023D02*
X15964Y-20807D01*
X15964Y-20807D02*
X15964Y-17007D01*
X15964Y-17007D02*
X16574Y-16397D01*
G54D42*
X32677Y-23622D02*
X32775Y-23622D01*
X33719Y-7144D02*
X33267Y-7144D01*
X33917Y-7342D02*
X33719Y-7144D01*
X33917Y-22480D02*
X33917Y-7342D01*
X32775Y-23622D02*
X33917Y-22480D01*
X33267Y-7144D02*
X30447Y-7144D01*
X30447Y-7144D02*
X30409Y-7106D01*
G54D43*
X17793Y-14551D02*
X17793Y-16091D01*
X16363Y-16186D02*
X16574Y-16397D01*
X16363Y-16186D02*
X16363Y-15886D01*
X16574Y-16397D02*
X16593Y-16416D01*
X16593Y-16416D02*
X17468Y-16416D01*
X18458Y-13886D02*
X17793Y-14551D01*
X17793Y-16091D02*
X17468Y-16416D01*
G54D42*
X14350Y-15659D02*
X14350Y-17224D01*
X12192Y-19381D02*
X9718Y-19381D01*
X14350Y-17224D02*
X12192Y-19381D01*
X13485Y-8411D02*
X12718Y-8411D01*
G54D44*
X8088Y-10620D02*
X8088Y-10923D01*
X9616Y-11377D02*
X10021Y-11782D01*
X8543Y-11377D02*
X9616Y-11377D01*
X8088Y-10923D02*
X8543Y-11377D01*
G54D42*
X32614Y-3090D02*
X32614Y-1637D01*
X32614Y-1637D02*
X32677Y-1574D01*
G54D43*
X22353Y-1539D02*
X22270Y-1539D01*
X22270Y-1539D02*
X21822Y-1987D01*
X32614Y-3090D02*
X32242Y-3090D01*
X21960Y-766D02*
X21939Y-787D01*
X29918Y-766D02*
X21960Y-766D01*
X32242Y-3090D02*
X29918Y-766D01*
G54D42*
X19898Y-1166D02*
X20683Y-1166D01*
X21062Y-787D02*
X21939Y-787D01*
X20683Y-1166D02*
X21062Y-787D01*
X21939Y-787D02*
X22189Y-1037D01*
X22353Y-1201D02*
X22189Y-1037D01*
X22353Y-1201D02*
X22353Y-1539D01*
X3918Y-21366D02*
X3768Y-21366D01*
X3768Y-21366D02*
X3378Y-20976D01*
X3378Y-20976D02*
X3378Y-20366D01*
X26437Y-6397D02*
X29174Y-6397D01*
X29174Y-6397D02*
X29883Y-7106D01*
X29883Y-7106D02*
X30409Y-7106D01*
X4918Y-21366D02*
X4918Y-20366D01*
X4918Y-21366D02*
X3918Y-21366D01*
X3918Y-20366D02*
X3378Y-20366D01*
X4918Y-20366D02*
X3918Y-20366D01*
X3918Y-17366D02*
X3718Y-17366D01*
X3718Y-14366D02*
X3918Y-14366D01*
X3318Y-14766D02*
X3718Y-14366D01*
X3318Y-16966D02*
X3318Y-14766D01*
X3718Y-17366D02*
X3318Y-16966D01*
X3918Y-17366D02*
X3818Y-17366D01*
X3378Y-20366D02*
X3378Y-19514D01*
X3378Y-17806D02*
X3378Y-19514D01*
X3818Y-17366D02*
X3378Y-17806D01*
X3918Y-17366D02*
X4918Y-17366D01*
G54D43*
X4868Y-7716D02*
X4918Y-7766D01*
X5418Y-7766D02*
X5605Y-7953D01*
X4918Y-7766D02*
X5418Y-7766D01*
G54D42*
X32614Y-3090D02*
X32614Y-4901D01*
X32614Y-4901D02*
X30409Y-7106D01*
X22647Y-2300D02*
X22647Y-1834D01*
X22647Y-1834D02*
X22353Y-1539D01*
X24934Y-2317D02*
X24934Y-2947D01*
X24934Y-2947D02*
X24969Y-2982D01*
X23647Y-2777D02*
X23629Y-2777D01*
X22647Y-2835D02*
X22647Y-2300D01*
X22769Y-2957D02*
X22647Y-2835D01*
X23449Y-2957D02*
X22769Y-2957D01*
X23629Y-2777D02*
X23449Y-2957D01*
X24969Y-2982D02*
X23814Y-2982D01*
X23647Y-2815D02*
X23647Y-2777D01*
X23647Y-2777D02*
X23647Y-2300D01*
X23814Y-2982D02*
X23647Y-2815D01*
G54D43*
X3943Y-6026D02*
X3678Y-6026D01*
X3678Y-6026D02*
X3403Y-6301D01*
X6721Y-7953D02*
X5605Y-7953D01*
X4868Y-7716D02*
X4438Y-7286D01*
X4438Y-7286D02*
X3618Y-7286D01*
X3618Y-7286D02*
X3403Y-7071D01*
X3403Y-7071D02*
X3403Y-6301D01*
X3943Y-6026D02*
X3943Y-5871D01*
X3403Y-5331D02*
X3403Y-5166D01*
X3943Y-5871D02*
X3403Y-5331D01*
G54D42*
X13798Y-6746D02*
X13798Y-5986D01*
X13798Y-5986D02*
X13138Y-5326D01*
X13138Y-5326D02*
X13138Y-4409D01*
X13138Y-4409D02*
X13401Y-4146D01*
X13401Y-4146D02*
X14618Y-4146D01*
X14618Y-4146D02*
X16498Y-2266D01*
X16498Y-2266D02*
X16978Y-2266D01*
X17318Y-2266D02*
X17718Y-1866D01*
G54D43*
X17718Y-1866D02*
X18418Y-1166D01*
X18418Y-1166D02*
X19898Y-1166D01*
G54D42*
X16978Y-2266D02*
X17318Y-2266D01*
X13798Y-6746D02*
X13758Y-6746D01*
X13758Y-6746D02*
X13438Y-7066D01*
X12718Y-7786D02*
X12718Y-8411D01*
X13438Y-7066D02*
X12718Y-7786D01*
G54D43*
X18458Y-13886D02*
X18018Y-13886D01*
X17710Y-13578D02*
X17211Y-13578D01*
X18018Y-13886D02*
X17710Y-13578D01*
X17553Y-12726D02*
X17553Y-12296D01*
X17553Y-12296D02*
X17203Y-11946D01*
X16363Y-15886D02*
X16363Y-15092D01*
X16363Y-15092D02*
X16305Y-15034D01*
X17211Y-13578D02*
X17211Y-13473D01*
X17553Y-13131D02*
X17553Y-12726D01*
X17211Y-13473D02*
X17553Y-13131D01*
X3403Y-5166D02*
X3403Y-4921D01*
X3938Y-4386D02*
X4083Y-4386D01*
X3403Y-4921D02*
X3938Y-4386D01*
X4303Y-3566D02*
X4303Y-3981D01*
X4083Y-4201D02*
X4083Y-4386D01*
X4303Y-3981D02*
X4083Y-4201D01*
X4930Y-2755D02*
X4930Y-2975D01*
X4338Y-3566D02*
X4303Y-3566D01*
X4930Y-2975D02*
X4338Y-3566D01*
G54D44*
X6918Y-4527D02*
X6918Y-4267D01*
X9428Y-5056D02*
X9428Y-6692D01*
X9138Y-4766D02*
X9428Y-5056D01*
X8138Y-4766D02*
X9138Y-4766D01*
X7538Y-4166D02*
X8138Y-4766D01*
X7018Y-4166D02*
X7538Y-4166D01*
X6918Y-4267D02*
X7018Y-4166D01*
G54D43*
X13366Y-9872D02*
X13413Y-9872D01*
X13485Y-8433D02*
X13485Y-8411D01*
X13918Y-8866D02*
X13485Y-8433D01*
X13918Y-9366D02*
X13918Y-8866D01*
X13413Y-9872D02*
X13918Y-9366D01*
X14118Y-511D02*
X14363Y-511D01*
X14363Y-511D02*
X14678Y-826D01*
G54D44*
X19898Y-1166D02*
X19998Y-1166D01*
X9281Y-9438D02*
X9281Y-9104D01*
X10018Y-10314D02*
X10018Y-10843D01*
X10018Y-10175D02*
X9281Y-9438D01*
X10018Y-10314D02*
X10018Y-10175D01*
X9281Y-9104D02*
X9074Y-8897D01*
X9074Y-8897D02*
X9074Y-7046D01*
X9074Y-7046D02*
X9428Y-6692D01*
X12577Y-12214D02*
X12193Y-12598D01*
X12193Y-12598D02*
X11377Y-12598D01*
X6682Y-2755D02*
X6682Y-3119D01*
X6682Y-3119D02*
X6919Y-3356D01*
X12577Y-12214D02*
X12577Y-12215D01*
X8923Y-14494D02*
X8923Y-14497D01*
X10298Y-14494D02*
X8923Y-14494D01*
X12577Y-12215D02*
X10298Y-14494D01*
X12574Y-15529D02*
X12574Y-12928D01*
X12577Y-12925D02*
X12577Y-12214D01*
X12577Y-12214D02*
X12577Y-12213D01*
X12574Y-12928D02*
X12577Y-12925D01*
X12577Y-12213D02*
X10451Y-12213D01*
X10451Y-12213D02*
X10021Y-11782D01*
X10021Y-11782D02*
X10021Y-10843D01*
X10021Y-10843D02*
X10018Y-10843D01*
X12577Y-12213D02*
X12577Y-10843D01*
X3965Y-1358D02*
X1791Y-1358D01*
X1791Y-1358D02*
X1574Y-1574D01*
G54D43*
X8342Y-16310D02*
X7702Y-16310D01*
X7533Y-16141D02*
X6820Y-16141D01*
X7702Y-16310D02*
X7533Y-16141D01*
X12338Y-511D02*
X14118Y-511D01*
X10578Y-511D02*
X12338Y-511D01*
X9098Y-666D02*
X9758Y-666D01*
X9913Y-511D02*
X10578Y-511D01*
X9758Y-666D02*
X9913Y-511D01*
G54D44*
X8739Y-16310D02*
X8342Y-16310D01*
X8508Y-14497D02*
X8923Y-14497D01*
X8342Y-16310D02*
X8198Y-16166D01*
X8198Y-16166D02*
X8198Y-14806D01*
X8198Y-14806D02*
X8508Y-14497D01*
G54D43*
X8098Y-666D02*
X9098Y-666D01*
X8098Y-666D02*
X8038Y-666D01*
X7347Y-1358D02*
X6918Y-1358D01*
X8038Y-666D02*
X7347Y-1358D01*
G54D44*
X6918Y-4527D02*
X6918Y-5314D01*
X6918Y-5314D02*
X6721Y-5511D01*
X8088Y-10620D02*
X8088Y-9832D01*
X12577Y-10843D02*
X12577Y-10428D01*
X12577Y-10428D02*
X12658Y-10346D01*
X12658Y-10346D02*
X13078Y-10346D01*
X13078Y-10346D02*
X13366Y-10059D01*
X13366Y-10059D02*
X13366Y-9872D01*
X12574Y-15529D02*
X12574Y-15882D01*
X14350Y-15895D02*
X14350Y-15659D01*
X14138Y-16106D02*
X14350Y-15895D01*
X12798Y-16106D02*
X14138Y-16106D01*
X12574Y-15882D02*
X12798Y-16106D01*
G54D43*
X23647Y-2615D02*
X23647Y-2639D01*
X23647Y-2615D02*
X23647Y-2300D01*
X23647Y-2639D02*
X23449Y-2837D01*
X23449Y-2837D02*
X22809Y-2837D01*
X22809Y-2837D02*
X22647Y-2675D01*
X22647Y-2675D02*
X22647Y-2300D01*
X21822Y-1987D02*
X21822Y-2975D01*
X22647Y-1834D02*
X22353Y-1539D01*
G54D44*
X5914Y-1358D02*
X6918Y-1358D01*
X4969Y-1358D02*
X5914Y-1358D01*
X3965Y-1358D02*
X4969Y-1358D01*
X4202Y-2755D02*
X4202Y-1594D01*
X4202Y-1594D02*
X3965Y-1358D01*
X4930Y-2755D02*
X4202Y-2755D01*
G54D42*
X33267Y-8129D02*
X33267Y-7894D01*
X32893Y-8503D02*
X33267Y-8129D01*
X33267Y-7894D02*
X33267Y-16456D01*
X30669Y-17028D02*
X31337Y-17028D01*
X31337Y-17028D02*
X31377Y-16988D01*
X19369Y-10157D02*
X19271Y-10157D01*
X19271Y-10157D02*
X18917Y-10511D01*
G54D43*
X19172Y-7696D02*
X18622Y-7696D01*
G54D42*
X23367Y-13464D02*
X23464Y-13367D01*
X22618Y-13169D02*
X22913Y-13464D01*
X22913Y-13464D02*
X23367Y-13464D01*
G54D43*
X19782Y-16614D02*
X19782Y-16083D01*
X19369Y-10569D02*
X19369Y-10157D01*
X19566Y-10767D02*
X19369Y-10569D01*
X20019Y-10767D02*
X19566Y-10767D01*
X20472Y-11220D02*
X20019Y-10767D01*
X20472Y-15393D02*
X20472Y-11220D01*
X19782Y-16083D02*
X20472Y-15393D01*
X23464Y-13367D02*
X23464Y-15157D01*
X23464Y-15157D02*
X23937Y-15629D01*
X23937Y-15629D02*
X25767Y-15629D01*
X25767Y-15629D02*
X25905Y-15492D01*
X29999Y-17992D02*
X29862Y-17992D01*
X27696Y-16870D02*
X27696Y-16378D01*
X27421Y-17145D02*
X27696Y-16870D01*
X27421Y-18759D02*
X27421Y-17145D01*
X27559Y-18897D02*
X27421Y-18759D01*
X29271Y-18897D02*
X27559Y-18897D01*
X29370Y-18799D02*
X29271Y-18897D01*
X29370Y-18484D02*
X29370Y-18799D01*
X29862Y-17992D02*
X29370Y-18484D01*
G54D42*
X25905Y-13839D02*
X25905Y-15492D01*
X25905Y-15492D02*
X25905Y-15551D01*
X25905Y-15551D02*
X26733Y-16378D01*
X26733Y-16378D02*
X27696Y-16378D01*
X29527Y-23622D02*
X29527Y-21613D01*
X29527Y-21613D02*
X30077Y-21062D01*
X19107Y-17360D02*
X19107Y-16994D01*
X19107Y-16994D02*
X19488Y-16614D01*
X19488Y-16614D02*
X19782Y-16614D01*
X19107Y-17360D02*
X18485Y-17360D01*
X18485Y-17360D02*
X18346Y-17499D01*
X15256Y-11889D02*
X15256Y-11181D01*
X15256Y-11181D02*
X15256Y-10926D01*
X15256Y-10926D02*
X15078Y-10747D01*
X15078Y-10747D02*
X15078Y-10532D01*
X15078Y-10532D02*
X15194Y-10532D01*
X15194Y-10532D02*
X15845Y-9881D01*
X15845Y-9881D02*
X15845Y-9133D01*
X19172Y-7696D02*
X19172Y-6948D01*
X19369Y-9409D02*
X19369Y-10157D01*
X25060Y-14133D02*
X25413Y-14133D01*
X25413Y-14133D02*
X25707Y-13839D01*
X25707Y-13839D02*
X25905Y-13839D01*
X29881Y-17028D02*
X30669Y-17028D01*
X29999Y-17992D02*
X29999Y-17617D01*
X29881Y-17500D02*
X29881Y-17028D01*
X29999Y-17617D02*
X29881Y-17500D01*
X29999Y-17992D02*
X29625Y-17992D01*
X29625Y-17992D02*
X29231Y-17598D01*
X29231Y-17598D02*
X28878Y-17598D01*
G54D43*
X29547Y-17992D02*
X29153Y-17598D01*
X29153Y-17598D02*
X28878Y-17598D01*
X29625Y-17992D02*
X29547Y-17992D01*
X18485Y-17360D02*
X18346Y-17499D01*
X19782Y-16614D02*
X19488Y-16614D01*
X19488Y-16614D02*
X19107Y-16994D01*
X25707Y-13839D02*
X25905Y-13839D01*
X25413Y-14133D02*
X25707Y-13839D01*
X19172Y-7696D02*
X16476Y-7696D01*
X16476Y-7696D02*
X16220Y-7952D01*
X16220Y-7952D02*
X16220Y-8897D01*
X16220Y-8897D02*
X15984Y-9133D01*
X15984Y-9133D02*
X15845Y-9133D01*
X15194Y-10532D02*
X15845Y-9881D01*
X15078Y-10747D02*
X15078Y-10532D01*
X15256Y-10926D02*
X15078Y-10747D01*
G54D44*
X13609Y-12529D02*
X14163Y-12529D01*
X15256Y-12144D02*
X15256Y-11889D01*
X15039Y-12362D02*
X15256Y-12144D01*
X14330Y-12362D02*
X15039Y-12362D01*
X14163Y-12529D02*
X14330Y-12362D01*
X13609Y-13710D02*
X14747Y-13710D01*
X14747Y-13710D02*
X14903Y-13866D01*
G54D43*
X16305Y-13578D02*
X16305Y-13219D01*
X16798Y-12726D02*
X16803Y-12726D01*
X16305Y-13219D02*
X16798Y-12726D01*
X15653Y-13866D02*
X16017Y-13866D01*
X16017Y-13866D02*
X16305Y-13578D01*
X17113Y-15886D02*
X17113Y-15132D01*
G54D44*
X14238Y-13906D02*
X13609Y-13906D01*
X14698Y-14366D02*
X14238Y-13906D01*
X15638Y-14366D02*
X14698Y-14366D01*
X15698Y-14426D02*
X15638Y-14366D01*
G54D43*
X16798Y-14426D02*
X15698Y-14426D01*
X17113Y-14741D02*
X16798Y-14426D01*
X17113Y-15132D02*
X17113Y-14741D01*
X17953Y-11946D02*
X17953Y-11921D01*
X16858Y-11486D02*
X16798Y-11546D01*
X17518Y-11486D02*
X16858Y-11486D01*
X17953Y-11921D02*
X17518Y-11486D01*
X18458Y-12886D02*
X18458Y-12111D01*
X18458Y-12111D02*
X18623Y-11946D01*
X17953Y-11946D02*
X18623Y-11946D01*
G54D44*
X15518Y-13246D02*
X15638Y-13246D01*
X13609Y-13513D02*
X14338Y-13513D01*
X14532Y-13513D02*
X14798Y-13246D01*
X14798Y-13246D02*
X15518Y-13246D01*
X14338Y-13513D02*
X14532Y-13513D01*
X15638Y-13246D02*
X16478Y-12406D01*
X16478Y-12406D02*
X16478Y-12026D01*
X16478Y-12026D02*
X16798Y-11706D01*
G54D43*
X16798Y-11706D02*
X16798Y-11546D01*
X4018Y-23766D02*
X4118Y-23866D01*
X4118Y-23866D02*
X5318Y-23866D01*
X5943Y-23366D02*
X5818Y-23366D01*
X5418Y-23766D02*
X5318Y-23866D01*
X5818Y-23366D02*
X5418Y-23766D01*
X3918Y-23666D02*
X3918Y-23366D01*
X4018Y-23766D02*
X3918Y-23666D01*
X4918Y-23366D02*
X5943Y-22341D01*
X5943Y-22341D02*
X5943Y-22266D01*
X23147Y-2300D02*
X23147Y-1584D01*
X23147Y-1584D02*
X23103Y-1539D01*
G54D42*
X27677Y-4370D02*
X26929Y-4370D01*
X25334Y-5846D02*
X23976Y-5846D01*
X23976Y-5846D02*
X23772Y-5642D01*
X23772Y-5642D02*
X23772Y-5240D01*
X25452Y-5846D02*
X25334Y-5846D01*
X26929Y-4370D02*
X25452Y-5846D01*
X23772Y-5240D02*
X23772Y-5000D01*
X23772Y-5000D02*
X23647Y-4875D01*
X23647Y-4875D02*
X23647Y-4400D01*
G54D43*
X23647Y-4875D02*
X23647Y-4400D01*
X23772Y-5000D02*
X23647Y-4875D01*
G54D44*
X6721Y-7203D02*
X6721Y-6495D01*
G54D42*
X27677Y-2401D02*
X26771Y-2401D01*
X25927Y-1557D02*
X25009Y-1557D01*
X26771Y-2401D02*
X25927Y-1557D01*
X24147Y-2300D02*
X24147Y-1959D01*
X24549Y-1557D02*
X25009Y-1557D01*
X24147Y-1959D02*
X24549Y-1557D01*
X24289Y-1897D02*
X24147Y-2039D01*
X24147Y-2039D02*
X24147Y-2300D01*
G54D43*
X24147Y-2039D02*
X24147Y-2300D01*
X24289Y-1897D02*
X24147Y-2039D01*
G54D42*
X24969Y-3732D02*
X25729Y-3732D01*
X24969Y-3732D02*
X22814Y-3732D01*
X22647Y-3899D02*
X22647Y-4400D01*
X22814Y-3732D02*
X22647Y-3899D01*
G54D44*
X10609Y-9508D02*
X10609Y-7124D01*
X10609Y-7124D02*
X10178Y-6692D01*
X10609Y-9842D02*
X10609Y-9508D01*
X10609Y-10843D02*
X10609Y-9842D01*
G54D42*
X15781Y-21382D02*
X15143Y-21382D01*
X15143Y-21382D02*
X15138Y-21377D01*
G54D43*
X15143Y-21382D02*
X15138Y-21377D01*
G54D42*
X21937Y-23622D02*
X24015Y-23622D01*
G54D44*
X12288Y-16536D02*
X12358Y-16606D01*
X12358Y-16606D02*
X12358Y-16826D01*
X9853Y-18766D02*
X9718Y-18631D01*
X11038Y-18766D02*
X9853Y-18766D01*
X11278Y-18526D02*
X11038Y-18766D01*
X11278Y-17906D02*
X11278Y-18526D01*
X12358Y-16826D02*
X11278Y-17906D01*
G54D43*
X8758Y-18866D02*
X8998Y-18866D01*
X9233Y-18631D02*
X9718Y-18631D01*
X8998Y-18866D02*
X9233Y-18631D01*
G54D44*
X11984Y-15529D02*
X11984Y-16232D01*
X11984Y-16232D02*
X12288Y-16536D01*
X12288Y-16536D02*
X12358Y-16606D01*
G54D43*
X14118Y-1261D02*
X14118Y-2186D01*
X12338Y-1261D02*
X12338Y-2186D01*
X10578Y-1261D02*
X10578Y-2186D01*
G54D42*
X27696Y-15628D02*
X26931Y-15628D01*
X26931Y-15628D02*
X26929Y-15630D01*
X27696Y-15628D02*
X27965Y-15628D01*
X27965Y-15628D02*
X28500Y-15094D01*
G54D43*
X26931Y-15628D02*
X26929Y-15630D01*
G54D42*
X25544Y-17838D02*
X24906Y-17838D01*
X24906Y-17838D02*
X24902Y-17834D01*
G54D43*
X24906Y-17838D02*
X24902Y-17834D01*
G54D42*
X28128Y-17598D02*
X28128Y-17067D01*
X29000Y-15921D02*
X29000Y-15094D01*
X28838Y-16082D02*
X29000Y-15921D01*
X28838Y-16358D02*
X28838Y-16082D01*
X28128Y-17067D02*
X28838Y-16358D01*
X28779Y-18522D02*
X28031Y-18522D01*
X28031Y-18522D02*
X28031Y-17695D01*
X28031Y-17695D02*
X28128Y-17598D01*
G54D43*
X28031Y-17695D02*
X28128Y-17598D01*
X22824Y-8316D02*
X23257Y-8316D01*
X22322Y-7814D02*
X22824Y-8316D01*
X25224Y-12617D02*
X25453Y-12617D01*
X25453Y-12617D02*
X26023Y-12047D01*
X26023Y-12047D02*
X26023Y-11082D01*
X26023Y-11082D02*
X23257Y-8316D01*
G54D42*
X24784Y-11929D02*
X24784Y-11181D01*
G54D43*
X25224Y-13367D02*
X25355Y-13367D01*
X26929Y-14625D02*
X26929Y-14880D01*
X27362Y-14192D02*
X26929Y-14625D01*
X27362Y-13661D02*
X27362Y-14192D01*
X27165Y-13464D02*
X27362Y-13661D01*
X25452Y-13464D02*
X27165Y-13464D01*
X25355Y-13367D02*
X25452Y-13464D01*
X25224Y-13367D02*
X25040Y-13367D01*
X24784Y-13111D02*
X24784Y-11929D01*
X25040Y-13367D02*
X24784Y-13111D01*
G54D44*
X6693Y-11366D02*
X6818Y-11366D01*
X7784Y-12332D02*
X8395Y-12332D01*
X6818Y-11366D02*
X7784Y-12332D01*
X8395Y-12332D02*
X8923Y-12332D01*
X7118Y-10566D02*
X7218Y-10666D01*
X7218Y-11266D02*
X7318Y-11366D01*
X7218Y-10666D02*
X7218Y-11266D01*
X6693Y-10466D02*
X7018Y-10466D01*
X7318Y-11366D02*
X8087Y-12135D01*
X8923Y-12135D02*
X8087Y-12135D01*
X7018Y-10466D02*
X7118Y-10566D01*
X6693Y-9666D02*
X7218Y-9666D01*
X7518Y-11266D02*
X8190Y-11938D01*
X7518Y-9966D02*
X7518Y-11266D01*
X7218Y-9666D02*
X7518Y-9966D01*
X8923Y-11938D02*
X8190Y-11938D01*
X7718Y-9766D02*
X7718Y-9566D01*
X7718Y-9566D02*
X7018Y-8866D01*
X6693Y-8866D02*
X7018Y-8866D01*
X7718Y-10966D02*
X8493Y-11741D01*
X7718Y-9766D02*
X7718Y-10966D01*
X8493Y-11741D02*
X8493Y-11747D01*
X8493Y-11747D02*
X8493Y-11741D01*
X8923Y-11741D02*
X8493Y-11741D01*
G54D42*
X31337Y-17992D02*
X30749Y-17992D01*
X32112Y-19277D02*
X31659Y-19277D01*
X31659Y-19277D02*
X31337Y-18955D01*
X31337Y-18955D02*
X31337Y-17992D01*
G54D43*
X31337Y-17992D02*
X31337Y-18955D01*
X31337Y-18955D02*
X31659Y-19277D01*
G54D42*
X24034Y-11929D02*
X24034Y-11181D01*
X23464Y-12617D02*
X23464Y-12028D01*
X23464Y-12028D02*
X23346Y-11910D01*
X24034Y-11929D02*
X23365Y-11929D01*
X23365Y-11929D02*
X23346Y-11910D01*
X24224Y-12617D02*
X24224Y-12119D01*
X24224Y-12119D02*
X24034Y-11929D01*
G54D43*
X24224Y-12119D02*
X24034Y-11929D01*
X23464Y-12028D02*
X23346Y-11910D01*
X23365Y-11929D02*
X23346Y-11910D01*
G54D42*
X30827Y-21062D02*
X30827Y-20729D01*
X30827Y-20729D02*
X30375Y-20277D01*
X30375Y-20277D02*
X30012Y-20277D01*
X31416Y-21062D02*
X30827Y-21062D01*
G54D43*
X30827Y-20729D02*
X30375Y-20277D01*
X30375Y-20277D02*
X30012Y-20277D01*
G54D44*
X4693Y-6026D02*
X4693Y-5778D01*
X4693Y-5778D02*
X5354Y-5117D01*
X3943Y-6766D02*
X3958Y-6766D01*
X4693Y-6031D02*
X4693Y-6026D01*
X3958Y-6766D02*
X4693Y-6031D01*
X5737Y-5117D02*
X5354Y-5117D01*
X5442Y-2755D02*
X5442Y-2338D01*
X7443Y-3336D02*
X6721Y-4059D01*
X7443Y-2336D02*
X7443Y-3336D01*
X7208Y-2101D02*
X7443Y-2336D01*
X5678Y-2101D02*
X7208Y-2101D01*
X5442Y-2338D02*
X5678Y-2101D01*
X6721Y-4527D02*
X6721Y-4059D01*
X5698Y-2755D02*
X5698Y-3526D01*
X6378Y-3996D02*
X6524Y-4142D01*
X6168Y-3996D02*
X6378Y-3996D01*
X5698Y-3526D02*
X6168Y-3996D01*
X6524Y-4527D02*
X6524Y-4142D01*
G54D43*
X5186Y-2755D02*
X5186Y-3434D01*
X5186Y-3434D02*
X5053Y-3566D01*
G54D42*
X20542Y-19616D02*
X20797Y-19616D01*
X20797Y-19616D02*
X21207Y-19205D01*
X21207Y-19205D02*
X21207Y-18860D01*
G54D43*
X20807Y-19606D02*
X20532Y-19606D01*
X21207Y-18860D02*
X21207Y-19205D01*
X21207Y-19205D02*
X20807Y-19606D01*
G54D42*
X19792Y-19616D02*
X19537Y-19616D01*
X19537Y-19616D02*
X19107Y-19186D01*
X19107Y-19186D02*
X19107Y-18860D01*
G54D43*
X19107Y-18860D02*
X19107Y-19186D01*
X19527Y-19606D02*
X19782Y-19606D01*
X19107Y-19186D02*
X19527Y-19606D01*
G54D42*
X18346Y-18798D02*
X18346Y-18249D01*
X19107Y-18360D02*
X18457Y-18360D01*
X18457Y-18360D02*
X18346Y-18249D01*
G54D43*
X18457Y-18360D02*
X18346Y-18249D01*
G54D42*
X21207Y-17360D02*
X21207Y-16661D01*
X21207Y-16661D02*
X21160Y-16614D01*
X20532Y-16614D02*
X21160Y-16614D01*
X4379Y-5166D02*
X4153Y-5166D01*
X4606Y-5393D02*
X4379Y-5166D01*
X4203Y-5216D02*
X4153Y-5166D01*
X4203Y-5216D02*
X4153Y-5166D01*
X4918Y-13366D02*
X3918Y-13366D01*
G54D43*
X5008Y-7376D02*
X5098Y-7466D01*
X5098Y-7466D02*
X5518Y-7466D01*
X5518Y-7466D02*
X5618Y-7566D01*
X5798Y-6426D02*
X5798Y-7566D01*
X6138Y-7566D02*
X5798Y-7566D01*
X6138Y-7566D02*
X7511Y-7566D01*
X7511Y-7566D02*
X7864Y-7214D01*
X5798Y-7566D02*
X5618Y-7566D01*
X4693Y-7061D02*
X5008Y-7376D01*
X4693Y-6766D02*
X4693Y-7061D01*
G54D44*
X4693Y-6766D02*
X4878Y-6766D01*
X5451Y-5314D02*
X5098Y-5666D01*
X5098Y-5666D02*
X5098Y-6406D01*
X5451Y-5314D02*
X5737Y-5314D01*
X5098Y-6546D02*
X5098Y-6406D01*
X4878Y-6766D02*
X5098Y-6546D01*
X19373Y-11946D02*
X19373Y-11841D01*
G54D42*
X19373Y-11841D02*
X18938Y-11406D01*
X18938Y-11406D02*
X18198Y-11406D01*
X18198Y-11406D02*
X17878Y-11086D01*
X17878Y-11086D02*
X17358Y-11086D01*
X12123Y-9161D02*
X12118Y-9166D01*
G54D44*
X9163Y-9832D02*
X9360Y-10029D01*
G54D42*
X8618Y-3886D02*
X8612Y-3880D01*
X8612Y-3880D02*
X8612Y-3341D01*
G54D43*
X4153Y-5166D02*
X4153Y-5091D01*
X4153Y-5091D02*
X4318Y-4926D01*
X4318Y-4926D02*
X4618Y-4926D01*
X4678Y-4866D02*
X4833Y-4711D01*
X4618Y-4926D02*
X4678Y-4866D01*
X4833Y-4711D02*
X4833Y-4386D01*
X6130Y-4527D02*
X5819Y-4527D01*
X5678Y-4386D02*
X4833Y-4386D01*
X5819Y-4527D02*
X5678Y-4386D01*
G54D42*
X12718Y-9161D02*
X12123Y-9161D01*
X13485Y-9161D02*
X12718Y-9161D01*
X12616Y-9872D02*
X12616Y-9264D01*
X12616Y-9264D02*
X12718Y-9161D01*
X6693Y-20944D02*
X7185Y-20944D01*
G54D43*
X6693Y-19960D02*
X6693Y-20944D01*
X6693Y-18287D02*
X6693Y-19960D01*
X14230Y-15029D02*
X14389Y-15029D01*
X13600Y-15659D02*
X14230Y-15029D01*
G54D44*
X7638Y-6427D02*
X7864Y-6653D01*
X7864Y-6653D02*
X7864Y-7214D01*
X8739Y-15560D02*
X8985Y-15560D01*
X8985Y-15560D02*
X9330Y-15905D01*
X8838Y-9832D02*
X9163Y-9832D01*
G54D43*
X8098Y-3341D02*
X8612Y-3341D01*
X8612Y-3341D02*
X9098Y-3341D01*
G54D44*
X8923Y-14694D02*
X8923Y-14742D01*
X8739Y-14926D02*
X8739Y-15560D01*
X8923Y-14742D02*
X8739Y-14926D01*
X6327Y-4527D02*
X6130Y-4527D01*
X7558Y-6495D02*
X7570Y-6495D01*
X7570Y-6495D02*
X7638Y-6427D01*
X7638Y-6427D02*
X7705Y-6360D01*
X7312Y-6495D02*
X7558Y-6495D01*
X7705Y-6360D02*
X7705Y-6102D01*
X7115Y-6495D02*
X7312Y-6495D01*
X6918Y-6495D02*
X7115Y-6495D01*
X6327Y-6495D02*
X6524Y-6495D01*
X6130Y-6495D02*
X6327Y-6495D01*
X5737Y-6102D02*
X5737Y-6365D01*
X5737Y-6365D02*
X5798Y-6426D01*
X5867Y-6495D02*
X6130Y-6495D01*
X5803Y-6431D02*
X5867Y-6495D01*
X5798Y-6426D02*
X5803Y-6431D01*
X5737Y-5905D02*
X5737Y-6102D01*
X8838Y-10620D02*
X8838Y-9832D01*
X9821Y-10843D02*
X9415Y-10843D01*
X9192Y-10620D02*
X8838Y-10620D01*
X9415Y-10843D02*
X9192Y-10620D01*
X12380Y-10843D02*
X12380Y-10107D01*
X12380Y-10107D02*
X12616Y-9872D01*
X13600Y-15659D02*
X13600Y-14703D01*
X13600Y-14703D02*
X13609Y-14694D01*
X13600Y-15659D02*
X12901Y-15659D01*
X12901Y-15659D02*
X12771Y-15529D01*
G54D10*
G36*
X15314Y-11939D02*
X15306Y-11939D01*
X15306Y-11947D01*
X15206Y-11947D01*
X15206Y-11939D01*
X15199Y-11939D01*
X15199Y-11839D01*
X15206Y-11839D01*
X15206Y-11643D01*
X15206Y-11427D01*
X15206Y-11231D01*
X15199Y-11231D01*
X15199Y-11131D01*
X15206Y-11131D01*
X15206Y-11123D01*
X15306Y-11123D01*
X15306Y-11131D01*
X15314Y-11131D01*
X15314Y-11231D01*
X15306Y-11231D01*
X15306Y-11427D01*
X15306Y-11643D01*
X15306Y-11839D01*
X15314Y-11839D01*
X15314Y-11939D01*
X15314Y-11939D01*
G37*
G54D44*
X15314Y-11939D02*
X15306Y-11939D01*
X15306Y-11947D01*
X15206Y-11947D01*
X15206Y-11939D01*
X15199Y-11939D01*
X15199Y-11839D01*
X15206Y-11839D01*
X15206Y-11643D01*
X15206Y-11427D01*
X15206Y-11231D01*
X15199Y-11231D01*
X15199Y-11131D01*
X15206Y-11131D01*
X15206Y-11123D01*
X15306Y-11123D01*
X15306Y-11131D01*
X15314Y-11131D01*
X15314Y-11231D01*
X15306Y-11231D01*
X15306Y-11427D01*
X15306Y-11643D01*
X15306Y-11839D01*
X15314Y-11839D01*
X15314Y-11939D01*
G54D10*
G36*
X16076Y-10404D02*
X15665Y-10815D01*
X15643Y-10764D01*
X15573Y-10694D01*
X15525Y-10674D01*
X15525Y-10644D01*
X15463Y-10582D01*
X15128Y-10582D01*
X15128Y-10590D01*
X15028Y-10590D01*
X15028Y-10582D01*
X15020Y-10582D01*
X15020Y-10482D01*
X15028Y-10482D01*
X15028Y-10474D01*
X15128Y-10474D01*
X15128Y-10482D01*
X15463Y-10482D01*
X15525Y-10419D01*
X15525Y-10365D01*
X15529Y-10368D01*
X15620Y-10406D01*
X15732Y-10406D01*
X15795Y-10344D01*
X15795Y-9931D01*
X15787Y-9931D01*
X15787Y-9831D01*
X15795Y-9831D01*
X15795Y-9596D01*
X15795Y-9419D01*
X15795Y-9183D01*
X15482Y-9183D01*
X15420Y-9246D01*
X15420Y-9359D01*
X15420Y-9416D01*
X15417Y-9413D01*
X15407Y-9408D01*
X15407Y-8915D01*
X15420Y-8902D01*
X15420Y-8908D01*
X15420Y-9021D01*
X15482Y-9083D01*
X15795Y-9083D01*
X15795Y-9075D01*
X15895Y-9075D01*
X15895Y-9083D01*
X15903Y-9083D01*
X15903Y-9183D01*
X15895Y-9183D01*
X15895Y-9419D01*
X15895Y-9596D01*
X15895Y-9831D01*
X15903Y-9831D01*
X15903Y-9931D01*
X15895Y-9931D01*
X15895Y-10344D01*
X15957Y-10406D01*
X16069Y-10406D01*
X16076Y-10404D01*
X16076Y-10404D01*
G37*
G54D44*
X16076Y-10404D02*
X15665Y-10815D01*
X15643Y-10764D01*
X15573Y-10694D01*
X15525Y-10674D01*
X15525Y-10644D01*
X15463Y-10582D01*
X15128Y-10582D01*
X15128Y-10590D01*
X15028Y-10590D01*
X15028Y-10582D01*
X15020Y-10582D01*
X15020Y-10482D01*
X15028Y-10482D01*
X15028Y-10474D01*
X15128Y-10474D01*
X15128Y-10482D01*
X15463Y-10482D01*
X15525Y-10419D01*
X15525Y-10365D01*
X15529Y-10368D01*
X15620Y-10406D01*
X15732Y-10406D01*
X15795Y-10344D01*
X15795Y-9931D01*
X15787Y-9931D01*
X15787Y-9831D01*
X15795Y-9831D01*
X15795Y-9596D01*
X15795Y-9419D01*
X15795Y-9183D01*
X15482Y-9183D01*
X15420Y-9246D01*
X15420Y-9359D01*
X15420Y-9416D01*
X15417Y-9413D01*
X15407Y-9408D01*
X15407Y-8915D01*
X15420Y-8902D01*
X15420Y-8908D01*
X15420Y-9021D01*
X15482Y-9083D01*
X15795Y-9083D01*
X15795Y-9075D01*
X15895Y-9075D01*
X15895Y-9083D01*
X15903Y-9083D01*
X15903Y-9183D01*
X15895Y-9183D01*
X15895Y-9419D01*
X15895Y-9596D01*
X15895Y-9831D01*
X15903Y-9831D01*
X15903Y-9931D01*
X15895Y-9931D01*
X15895Y-10344D01*
X15957Y-10406D01*
X16069Y-10406D01*
X16076Y-10404D01*
G54D10*
G36*
X18404Y-17531D02*
X18288Y-17531D01*
X18288Y-17449D01*
X18296Y-17449D01*
X18296Y-17441D01*
X18396Y-17441D01*
X18396Y-17449D01*
X18404Y-17449D01*
X18404Y-17531D01*
X18404Y-17531D01*
G37*
G54D44*
X18404Y-17531D02*
X18288Y-17531D01*
X18288Y-17449D01*
X18296Y-17449D01*
X18296Y-17441D01*
X18396Y-17441D01*
X18396Y-17449D01*
X18404Y-17449D01*
X18404Y-17531D01*
G54D10*
G36*
X19230Y-7746D02*
X19222Y-7746D01*
X19222Y-7754D01*
X19122Y-7754D01*
X19122Y-7746D01*
X19122Y-7646D01*
X19122Y-7411D01*
X19122Y-7234D01*
X19122Y-6998D01*
X18809Y-6998D01*
X18747Y-7061D01*
X18747Y-7174D01*
X18747Y-7273D01*
X18767Y-7322D01*
X18747Y-7371D01*
X18747Y-7471D01*
X18747Y-7584D01*
X18809Y-7646D01*
X19122Y-7646D01*
X19122Y-7746D01*
X18809Y-7746D01*
X18747Y-7809D01*
X18747Y-7922D01*
X18747Y-8021D01*
X18761Y-8057D01*
X17795Y-8057D01*
X17669Y-8082D01*
X17616Y-8117D01*
X17562Y-8153D01*
X17287Y-8428D01*
X17215Y-8535D01*
X17201Y-8608D01*
X17020Y-8608D01*
X17020Y-8061D01*
X16982Y-7969D01*
X16912Y-7899D01*
X16820Y-7860D01*
X16720Y-7860D01*
X16370Y-7860D01*
X16279Y-7898D01*
X16220Y-7957D01*
X16213Y-7950D01*
X16213Y-7830D01*
X16491Y-7553D01*
X17421Y-7553D01*
X17562Y-7525D01*
X17681Y-7445D01*
X17990Y-7136D01*
X18327Y-7136D01*
X18747Y-6717D01*
X18747Y-6723D01*
X18747Y-6836D01*
X18809Y-6898D01*
X19122Y-6898D01*
X19122Y-6890D01*
X19222Y-6890D01*
X19222Y-6898D01*
X19230Y-6898D01*
X19230Y-6998D01*
X19222Y-6998D01*
X19222Y-7234D01*
X19222Y-7411D01*
X19222Y-7646D01*
X19230Y-7646D01*
X19230Y-7746D01*
X19230Y-7746D01*
G37*
G54D44*
X19230Y-7746D02*
X19222Y-7746D01*
X19222Y-7754D01*
X19122Y-7754D01*
X19122Y-7746D01*
X19122Y-7646D01*
X19122Y-7411D01*
X19122Y-7234D01*
X19122Y-6998D01*
X18809Y-6998D01*
X18747Y-7061D01*
X18747Y-7174D01*
X18747Y-7273D01*
X18767Y-7322D01*
X18747Y-7371D01*
X18747Y-7471D01*
X18747Y-7584D01*
X18809Y-7646D01*
X19122Y-7646D01*
X19122Y-7746D01*
X18809Y-7746D01*
X18747Y-7809D01*
X18747Y-7922D01*
X18747Y-8021D01*
X18761Y-8057D01*
X17795Y-8057D01*
X17669Y-8082D01*
X17616Y-8117D01*
X17562Y-8153D01*
X17287Y-8428D01*
X17215Y-8535D01*
X17201Y-8608D01*
X17020Y-8608D01*
X17020Y-8061D01*
X16982Y-7969D01*
X16912Y-7899D01*
X16820Y-7860D01*
X16720Y-7860D01*
X16370Y-7860D01*
X16279Y-7898D01*
X16220Y-7957D01*
X16213Y-7950D01*
X16213Y-7830D01*
X16491Y-7553D01*
X17421Y-7553D01*
X17562Y-7525D01*
X17681Y-7445D01*
X17990Y-7136D01*
X18327Y-7136D01*
X18747Y-6717D01*
X18747Y-6723D01*
X18747Y-6836D01*
X18809Y-6898D01*
X19122Y-6898D01*
X19122Y-6890D01*
X19222Y-6890D01*
X19222Y-6898D01*
X19230Y-6898D01*
X19230Y-6998D01*
X19222Y-6998D01*
X19222Y-7234D01*
X19222Y-7411D01*
X19222Y-7646D01*
X19230Y-7646D01*
X19230Y-7746D01*
G54D10*
G36*
X22643Y-16131D02*
X22545Y-16090D01*
X22376Y-16090D01*
X22244Y-16145D01*
X22227Y-16127D01*
X22135Y-16089D01*
X22035Y-16089D01*
X21685Y-16089D01*
X21594Y-16127D01*
X21535Y-16185D01*
X21477Y-16127D01*
X21385Y-16089D01*
X21285Y-16089D01*
X20935Y-16089D01*
X20846Y-16126D01*
X20757Y-16089D01*
X20657Y-16089D01*
X20307Y-16089D01*
X20216Y-16127D01*
X20157Y-16185D01*
X20098Y-16127D01*
X20006Y-16089D01*
X19894Y-16089D01*
X19832Y-16151D01*
X19832Y-16564D01*
X19840Y-16564D01*
X19840Y-16664D01*
X19832Y-16664D01*
X19832Y-17076D01*
X19894Y-17139D01*
X20006Y-17139D01*
X20098Y-17101D01*
X20157Y-17042D01*
X20215Y-17100D01*
X20307Y-17139D01*
X20406Y-17139D01*
X20704Y-17139D01*
X20682Y-17192D01*
X20681Y-17291D01*
X20681Y-17527D01*
X20716Y-17610D01*
X20682Y-17692D01*
X20681Y-17791D01*
X20681Y-18027D01*
X20716Y-18110D01*
X20682Y-18192D01*
X20681Y-18291D01*
X20681Y-18527D01*
X20716Y-18610D01*
X20682Y-18692D01*
X20681Y-18791D01*
X20681Y-19027D01*
X20708Y-19091D01*
X20667Y-19091D01*
X20317Y-19091D01*
X20225Y-19129D01*
X20167Y-19187D01*
X20109Y-19129D01*
X20017Y-19091D01*
X19917Y-19091D01*
X19732Y-19091D01*
X19732Y-17076D01*
X19732Y-16664D01*
X19419Y-16664D01*
X19357Y-16726D01*
X19357Y-16839D01*
X19357Y-16939D01*
X19379Y-16992D01*
X19333Y-16992D01*
X19219Y-16992D01*
X19157Y-17054D01*
X19157Y-17310D01*
X19570Y-17310D01*
X19632Y-17247D01*
X19633Y-17192D01*
X19610Y-17139D01*
X19669Y-17139D01*
X19732Y-17076D01*
X19732Y-19091D01*
X19606Y-19091D01*
X19632Y-19028D01*
X19633Y-18928D01*
X19633Y-18692D01*
X19598Y-18610D01*
X19632Y-18528D01*
X19633Y-18428D01*
X19633Y-18192D01*
X19598Y-18110D01*
X19632Y-18028D01*
X19633Y-17928D01*
X19633Y-17692D01*
X19598Y-17610D01*
X19633Y-17527D01*
X19632Y-17472D01*
X19570Y-17410D01*
X19157Y-17410D01*
X19157Y-17418D01*
X19057Y-17418D01*
X19057Y-17410D01*
X19049Y-17410D01*
X19049Y-17310D01*
X19057Y-17310D01*
X19057Y-17054D01*
X18994Y-16992D01*
X18881Y-16992D01*
X18782Y-16992D01*
X18690Y-17030D01*
X18646Y-17074D01*
X18571Y-17073D01*
X18537Y-17073D01*
X18629Y-17055D01*
X18629Y-17055D01*
X18736Y-16984D01*
X19357Y-16363D01*
X19357Y-16388D01*
X19357Y-16501D01*
X19419Y-16564D01*
X19732Y-16564D01*
X19732Y-16151D01*
X19669Y-16089D01*
X19631Y-16089D01*
X19661Y-16059D01*
X19661Y-16059D01*
X19732Y-15952D01*
X19757Y-15826D01*
X19757Y-15826D01*
X19757Y-14929D01*
X19931Y-14787D01*
X19931Y-12973D01*
X20212Y-12693D01*
X20212Y-12693D01*
X20212Y-12693D01*
X20284Y-12586D01*
X20309Y-12460D01*
X20309Y-12460D01*
X20309Y-11456D01*
X20309Y-11456D01*
X20284Y-11330D01*
X20212Y-11224D01*
X20212Y-11224D01*
X20149Y-11160D01*
X20149Y-11116D01*
X20084Y-10960D01*
X19965Y-10840D01*
X19809Y-10775D01*
X19640Y-10775D01*
X19483Y-10840D01*
X19364Y-10959D01*
X19319Y-11068D01*
X19299Y-11115D01*
X19299Y-11246D01*
X19199Y-11146D01*
X19079Y-11066D01*
X18938Y-11038D01*
X18351Y-11038D01*
X18139Y-10826D01*
X18019Y-10746D01*
X17878Y-10718D01*
X17600Y-10718D01*
X17695Y-10624D01*
X18444Y-10624D01*
X18570Y-10598D01*
X18570Y-10598D01*
X18677Y-10527D01*
X18997Y-10207D01*
X19006Y-10207D01*
X18944Y-10269D01*
X18944Y-10382D01*
X18944Y-10482D01*
X18982Y-10574D01*
X19052Y-10644D01*
X19144Y-10682D01*
X19256Y-10682D01*
X19319Y-10619D01*
X19319Y-10207D01*
X19311Y-10207D01*
X19311Y-10107D01*
X19319Y-10107D01*
X19319Y-9871D01*
X19319Y-9694D01*
X19319Y-9459D01*
X19311Y-9459D01*
X19311Y-9359D01*
X19319Y-9359D01*
X19319Y-9351D01*
X19419Y-9351D01*
X19419Y-9359D01*
X19426Y-9359D01*
X19426Y-9459D01*
X19419Y-9459D01*
X19419Y-9694D01*
X19419Y-9871D01*
X19419Y-10107D01*
X19426Y-10107D01*
X19426Y-10207D01*
X19419Y-10207D01*
X19419Y-10619D01*
X19481Y-10682D01*
X19593Y-10682D01*
X19685Y-10644D01*
X19744Y-10586D01*
X19802Y-10644D01*
X19894Y-10682D01*
X19993Y-10682D01*
X20343Y-10682D01*
X20435Y-10644D01*
X20505Y-10574D01*
X20544Y-10482D01*
X20544Y-10382D01*
X20544Y-9934D01*
X20582Y-9934D01*
X20932Y-9934D01*
X21024Y-9896D01*
X21082Y-9838D01*
X21128Y-9884D01*
X21128Y-14252D01*
X21153Y-14378D01*
X21225Y-14485D01*
X22643Y-15903D01*
X22643Y-16131D01*
X22643Y-16131D01*
G37*
G54D44*
X22643Y-16131D02*
X22545Y-16090D01*
X22376Y-16090D01*
X22244Y-16145D01*
X22227Y-16127D01*
X22135Y-16089D01*
X22035Y-16089D01*
X21685Y-16089D01*
X21594Y-16127D01*
X21535Y-16185D01*
X21477Y-16127D01*
X21385Y-16089D01*
X21285Y-16089D01*
X20935Y-16089D01*
X20846Y-16126D01*
X20757Y-16089D01*
X20657Y-16089D01*
X20307Y-16089D01*
X20216Y-16127D01*
X20157Y-16185D01*
X20098Y-16127D01*
X20006Y-16089D01*
X19894Y-16089D01*
X19832Y-16151D01*
X19832Y-16564D01*
X19840Y-16564D01*
X19840Y-16664D01*
X19832Y-16664D01*
X19832Y-17076D01*
X19894Y-17139D01*
X20006Y-17139D01*
X20098Y-17101D01*
X20157Y-17042D01*
X20215Y-17100D01*
X20307Y-17139D01*
X20406Y-17139D01*
X20704Y-17139D01*
X20682Y-17192D01*
X20681Y-17291D01*
X20681Y-17527D01*
X20716Y-17610D01*
X20682Y-17692D01*
X20681Y-17791D01*
X20681Y-18027D01*
X20716Y-18110D01*
X20682Y-18192D01*
X20681Y-18291D01*
X20681Y-18527D01*
X20716Y-18610D01*
X20682Y-18692D01*
X20681Y-18791D01*
X20681Y-19027D01*
X20708Y-19091D01*
X20667Y-19091D01*
X20317Y-19091D01*
X20225Y-19129D01*
X20167Y-19187D01*
X20109Y-19129D01*
X20017Y-19091D01*
X19917Y-19091D01*
X19732Y-19091D01*
X19732Y-17076D01*
X19732Y-16664D01*
X19419Y-16664D01*
X19357Y-16726D01*
X19357Y-16839D01*
X19357Y-16939D01*
X19379Y-16992D01*
X19333Y-16992D01*
X19219Y-16992D01*
X19157Y-17054D01*
X19157Y-17310D01*
X19570Y-17310D01*
X19632Y-17247D01*
X19633Y-17192D01*
X19610Y-17139D01*
X19669Y-17139D01*
X19732Y-17076D01*
X19732Y-19091D01*
X19606Y-19091D01*
X19632Y-19028D01*
X19633Y-18928D01*
X19633Y-18692D01*
X19598Y-18610D01*
X19632Y-18528D01*
X19633Y-18428D01*
X19633Y-18192D01*
X19598Y-18110D01*
X19632Y-18028D01*
X19633Y-17928D01*
X19633Y-17692D01*
X19598Y-17610D01*
X19633Y-17527D01*
X19632Y-17472D01*
X19570Y-17410D01*
X19157Y-17410D01*
X19157Y-17418D01*
X19057Y-17418D01*
X19057Y-17410D01*
X19049Y-17410D01*
X19049Y-17310D01*
X19057Y-17310D01*
X19057Y-17054D01*
X18994Y-16992D01*
X18881Y-16992D01*
X18782Y-16992D01*
X18690Y-17030D01*
X18646Y-17074D01*
X18571Y-17073D01*
X18537Y-17073D01*
X18629Y-17055D01*
X18629Y-17055D01*
X18736Y-16984D01*
X19357Y-16363D01*
X19357Y-16388D01*
X19357Y-16501D01*
X19419Y-16564D01*
X19732Y-16564D01*
X19732Y-16151D01*
X19669Y-16089D01*
X19631Y-16089D01*
X19661Y-16059D01*
X19661Y-16059D01*
X19732Y-15952D01*
X19757Y-15826D01*
X19757Y-15826D01*
X19757Y-14929D01*
X19931Y-14787D01*
X19931Y-12973D01*
X20212Y-12693D01*
X20212Y-12693D01*
X20212Y-12693D01*
X20284Y-12586D01*
X20309Y-12460D01*
X20309Y-12460D01*
X20309Y-11456D01*
X20309Y-11456D01*
X20284Y-11330D01*
X20212Y-11224D01*
X20212Y-11224D01*
X20149Y-11160D01*
X20149Y-11116D01*
X20084Y-10960D01*
X19965Y-10840D01*
X19809Y-10775D01*
X19640Y-10775D01*
X19483Y-10840D01*
X19364Y-10959D01*
X19319Y-11068D01*
X19299Y-11115D01*
X19299Y-11246D01*
X19199Y-11146D01*
X19079Y-11066D01*
X18938Y-11038D01*
X18351Y-11038D01*
X18139Y-10826D01*
X18019Y-10746D01*
X17878Y-10718D01*
X17600Y-10718D01*
X17695Y-10624D01*
X18444Y-10624D01*
X18570Y-10598D01*
X18570Y-10598D01*
X18677Y-10527D01*
X18997Y-10207D01*
X19006Y-10207D01*
X18944Y-10269D01*
X18944Y-10382D01*
X18944Y-10482D01*
X18982Y-10574D01*
X19052Y-10644D01*
X19144Y-10682D01*
X19256Y-10682D01*
X19319Y-10619D01*
X19319Y-10207D01*
X19311Y-10207D01*
X19311Y-10107D01*
X19319Y-10107D01*
X19319Y-9871D01*
X19319Y-9694D01*
X19319Y-9459D01*
X19311Y-9459D01*
X19311Y-9359D01*
X19319Y-9359D01*
X19319Y-9351D01*
X19419Y-9351D01*
X19419Y-9359D01*
X19426Y-9359D01*
X19426Y-9459D01*
X19419Y-9459D01*
X19419Y-9694D01*
X19419Y-9871D01*
X19419Y-10107D01*
X19426Y-10107D01*
X19426Y-10207D01*
X19419Y-10207D01*
X19419Y-10619D01*
X19481Y-10682D01*
X19593Y-10682D01*
X19685Y-10644D01*
X19744Y-10586D01*
X19802Y-10644D01*
X19894Y-10682D01*
X19993Y-10682D01*
X20343Y-10682D01*
X20435Y-10644D01*
X20505Y-10574D01*
X20544Y-10482D01*
X20544Y-10382D01*
X20544Y-9934D01*
X20582Y-9934D01*
X20932Y-9934D01*
X21024Y-9896D01*
X21082Y-9838D01*
X21128Y-9884D01*
X21128Y-14252D01*
X21153Y-14378D01*
X21225Y-14485D01*
X22643Y-15903D01*
X22643Y-16131D01*
G54D10*
G36*
X25117Y-14183D02*
X25110Y-14183D01*
X25110Y-14191D01*
X25010Y-14191D01*
X25010Y-14183D01*
X25002Y-14183D01*
X25002Y-14083D01*
X25010Y-14083D01*
X25010Y-14075D01*
X25110Y-14075D01*
X25110Y-14083D01*
X25117Y-14083D01*
X25117Y-14183D01*
X25117Y-14183D01*
G37*
G54D44*
X25117Y-14183D02*
X25110Y-14183D01*
X25110Y-14191D01*
X25010Y-14191D01*
X25010Y-14183D01*
X25002Y-14183D01*
X25002Y-14083D01*
X25010Y-14083D01*
X25010Y-14075D01*
X25110Y-14075D01*
X25110Y-14083D01*
X25117Y-14083D01*
X25117Y-14183D01*
G54D10*
G36*
X28817Y-19697D02*
X27936Y-20578D01*
X27856Y-20697D01*
X27853Y-20713D01*
X27734Y-20832D01*
X27651Y-21032D01*
X27651Y-21166D01*
X26511Y-22306D01*
X26431Y-22426D01*
X26403Y-22566D01*
X26403Y-22638D01*
X26177Y-22731D01*
X25882Y-23026D01*
X25801Y-23221D01*
X25801Y-21517D01*
X25887Y-21603D01*
X26087Y-21686D01*
X26304Y-21687D01*
X26505Y-21604D01*
X26658Y-21451D01*
X26742Y-21250D01*
X26742Y-21033D01*
X26659Y-20833D01*
X26564Y-20738D01*
X26564Y-20061D01*
X26613Y-20013D01*
X26722Y-20013D01*
X26915Y-19933D01*
X27062Y-19785D01*
X27143Y-19593D01*
X27143Y-19384D01*
X27063Y-19191D01*
X26986Y-19113D01*
X26986Y-18462D01*
X26958Y-18321D01*
X26878Y-18201D01*
X26774Y-18098D01*
X26774Y-17959D01*
X26736Y-17867D01*
X26666Y-17797D01*
X26574Y-17759D01*
X26475Y-17758D01*
X26115Y-17758D01*
X26023Y-17796D01*
X25974Y-17845D01*
X25974Y-17609D01*
X25936Y-17517D01*
X25866Y-17447D01*
X25774Y-17409D01*
X25675Y-17408D01*
X25315Y-17408D01*
X25290Y-17419D01*
X25289Y-17418D01*
X25219Y-17347D01*
X25127Y-17309D01*
X25028Y-17309D01*
X24678Y-17309D01*
X24586Y-17347D01*
X24527Y-17406D01*
X24469Y-17347D01*
X24377Y-17309D01*
X24278Y-17309D01*
X23928Y-17309D01*
X23836Y-17347D01*
X23765Y-17417D01*
X23745Y-17466D01*
X23154Y-17466D01*
X23017Y-17409D01*
X22848Y-17409D01*
X22692Y-17474D01*
X22572Y-17593D01*
X22508Y-17749D01*
X22507Y-17918D01*
X22572Y-18075D01*
X22692Y-18194D01*
X22848Y-18259D01*
X23017Y-18259D01*
X23155Y-18202D01*
X23745Y-18202D01*
X23765Y-18251D01*
X23835Y-18321D01*
X23927Y-18359D01*
X24027Y-18359D01*
X24377Y-18359D01*
X24468Y-18321D01*
X24527Y-18263D01*
X24585Y-18321D01*
X24677Y-18359D01*
X24777Y-18359D01*
X25114Y-18359D01*
X25114Y-18408D01*
X25114Y-18428D01*
X25092Y-18461D01*
X25064Y-18602D01*
X25064Y-23411D01*
X24906Y-23028D01*
X24611Y-22732D01*
X24225Y-22572D01*
X23807Y-22571D01*
X23421Y-22731D01*
X23126Y-23026D01*
X23031Y-23253D01*
X22340Y-23253D01*
X22246Y-23160D01*
X22045Y-23076D01*
X21829Y-23076D01*
X21628Y-23159D01*
X21475Y-23312D01*
X21391Y-23513D01*
X21391Y-23730D01*
X21474Y-23930D01*
X21627Y-24084D01*
X21828Y-24167D01*
X22044Y-24167D01*
X22245Y-24084D01*
X22340Y-23990D01*
X23031Y-23990D01*
X23125Y-24216D01*
X23324Y-24415D01*
X18664Y-24415D01*
X19391Y-23687D01*
X19391Y-23730D01*
X19474Y-23930D01*
X19627Y-24084D01*
X19828Y-24167D01*
X20044Y-24167D01*
X20245Y-24084D01*
X20399Y-23931D01*
X20482Y-23730D01*
X20482Y-23514D01*
X20456Y-23450D01*
X21346Y-22559D01*
X21346Y-22559D01*
X21346Y-22559D01*
X21390Y-22493D01*
X21411Y-22493D01*
X21503Y-22455D01*
X21573Y-22385D01*
X21593Y-22336D01*
X23370Y-22336D01*
X23510Y-22308D01*
X23630Y-22228D01*
X24172Y-21686D01*
X24304Y-21687D01*
X24505Y-21604D01*
X24658Y-21451D01*
X24742Y-21250D01*
X24742Y-21033D01*
X24659Y-20833D01*
X24564Y-20738D01*
X24564Y-20066D01*
X24564Y-20066D01*
X24564Y-20066D01*
X24560Y-20043D01*
X24536Y-19926D01*
X24457Y-19806D01*
X24457Y-19806D01*
X24143Y-19492D01*
X24143Y-19163D01*
X24105Y-19071D01*
X24034Y-19001D01*
X23943Y-18963D01*
X23843Y-18963D01*
X23293Y-18963D01*
X23201Y-19001D01*
X23131Y-19071D01*
X23093Y-19163D01*
X23093Y-19262D01*
X23093Y-19812D01*
X23131Y-19904D01*
X23201Y-19975D01*
X23293Y-20013D01*
X23392Y-20013D01*
X23622Y-20013D01*
X23828Y-20219D01*
X23828Y-20738D01*
X23734Y-20832D01*
X23651Y-21032D01*
X23651Y-21166D01*
X23217Y-21600D01*
X22509Y-21600D01*
X22658Y-21451D01*
X22742Y-21250D01*
X22742Y-21033D01*
X22659Y-20833D01*
X22564Y-20738D01*
X22564Y-18771D01*
X22536Y-18630D01*
X22457Y-18511D01*
X22045Y-18099D01*
X22022Y-18084D01*
X22661Y-17445D01*
X22779Y-17366D01*
X23124Y-17021D01*
X24522Y-17021D01*
X24659Y-17078D01*
X24828Y-17078D01*
X24984Y-17014D01*
X25104Y-16894D01*
X25169Y-16738D01*
X25169Y-16569D01*
X25104Y-16413D01*
X24985Y-16293D01*
X24829Y-16228D01*
X24659Y-16228D01*
X24522Y-16285D01*
X23414Y-16285D01*
X23414Y-13729D01*
X23414Y-13417D01*
X23002Y-13417D01*
X22939Y-13479D01*
X22939Y-13591D01*
X22977Y-13683D01*
X23047Y-13753D01*
X23139Y-13792D01*
X23239Y-13792D01*
X23352Y-13792D01*
X23414Y-13729D01*
X23414Y-16285D01*
X23301Y-16285D01*
X23301Y-15767D01*
X23276Y-15641D01*
X23204Y-15535D01*
X23204Y-15535D01*
X21786Y-14116D01*
X21786Y-9884D01*
X21844Y-9826D01*
X21882Y-9734D01*
X21882Y-9634D01*
X21882Y-9234D01*
X22978Y-10329D01*
X22978Y-10753D01*
X22930Y-10773D01*
X22859Y-10843D01*
X22821Y-10935D01*
X22821Y-11034D01*
X22821Y-11384D01*
X22859Y-11476D01*
X22917Y-11535D01*
X22859Y-11593D01*
X22821Y-11685D01*
X22821Y-11784D01*
X22821Y-12134D01*
X22859Y-12226D01*
X22929Y-12297D01*
X22971Y-12314D01*
X22939Y-12392D01*
X22939Y-12491D01*
X22939Y-12841D01*
X22977Y-12933D01*
X23035Y-12992D01*
X22977Y-13050D01*
X22939Y-13142D01*
X22939Y-13254D01*
X23002Y-13317D01*
X23414Y-13317D01*
X23414Y-13309D01*
X23514Y-13309D01*
X23514Y-13317D01*
X23522Y-13317D01*
X23522Y-13417D01*
X23514Y-13417D01*
X23514Y-13729D01*
X23577Y-13792D01*
X23690Y-13792D01*
X23789Y-13792D01*
X23881Y-13753D01*
X23914Y-13721D01*
X23918Y-13727D01*
X23885Y-13808D01*
X23884Y-13908D01*
X23884Y-14458D01*
X23905Y-14507D01*
X23885Y-14556D01*
X23884Y-14656D01*
X23884Y-15206D01*
X23922Y-15298D01*
X23993Y-15368D01*
X24085Y-15406D01*
X24184Y-15406D01*
X24534Y-15406D01*
X24626Y-15368D01*
X24685Y-15310D01*
X24743Y-15368D01*
X24835Y-15406D01*
X24934Y-15406D01*
X25114Y-15406D01*
X25151Y-15496D01*
X25270Y-15615D01*
X25426Y-15680D01*
X25595Y-15680D01*
X25752Y-15616D01*
X25871Y-15496D01*
X25936Y-15340D01*
X25936Y-15171D01*
X25872Y-15015D01*
X25752Y-14895D01*
X25615Y-14838D01*
X25485Y-14708D01*
X25485Y-14557D01*
X25464Y-14507D01*
X25484Y-14458D01*
X25485Y-14359D01*
X25485Y-14246D01*
X25422Y-14183D01*
X25446Y-14183D01*
X25488Y-14226D01*
X25580Y-14264D01*
X25680Y-14264D01*
X25793Y-14264D01*
X25855Y-14202D01*
X25855Y-13889D01*
X25847Y-13889D01*
X25847Y-13793D01*
X25963Y-13793D01*
X25963Y-13889D01*
X25955Y-13889D01*
X25955Y-14202D01*
X26018Y-14264D01*
X26131Y-14264D01*
X26228Y-14264D01*
X26228Y-14395D01*
X26293Y-14551D01*
X26404Y-14662D01*
X26404Y-14755D01*
X26404Y-15105D01*
X26442Y-15197D01*
X26500Y-15255D01*
X26442Y-15314D01*
X26404Y-15405D01*
X26404Y-15505D01*
X26404Y-15855D01*
X26442Y-15947D01*
X26512Y-16017D01*
X26604Y-16055D01*
X26703Y-16055D01*
X27216Y-16055D01*
X27209Y-16062D01*
X27171Y-16154D01*
X27171Y-16266D01*
X27234Y-16328D01*
X27646Y-16328D01*
X27646Y-16321D01*
X27746Y-16321D01*
X27746Y-16328D01*
X28159Y-16328D01*
X28221Y-16266D01*
X28221Y-16154D01*
X28183Y-16062D01*
X28125Y-16003D01*
X28183Y-15945D01*
X28199Y-15906D01*
X28201Y-15905D01*
X28272Y-15934D01*
X28372Y-15935D01*
X28502Y-15935D01*
X28498Y-15941D01*
X28470Y-16082D01*
X28470Y-16205D01*
X28203Y-16472D01*
X28159Y-16428D01*
X27746Y-16428D01*
X27746Y-16741D01*
X27809Y-16803D01*
X27872Y-16803D01*
X27868Y-16807D01*
X27788Y-16927D01*
X27760Y-17067D01*
X27760Y-17162D01*
X27742Y-17181D01*
X27703Y-17273D01*
X27703Y-17372D01*
X27703Y-17536D01*
X27691Y-17554D01*
X27663Y-17695D01*
X27663Y-18115D01*
X27646Y-18122D01*
X27646Y-16741D01*
X27646Y-16428D01*
X27234Y-16428D01*
X27171Y-16491D01*
X27171Y-16603D01*
X27209Y-16695D01*
X27280Y-16765D01*
X27371Y-16803D01*
X27471Y-16803D01*
X27584Y-16803D01*
X27646Y-16741D01*
X27646Y-18122D01*
X27615Y-18135D01*
X27544Y-18205D01*
X27506Y-18297D01*
X27506Y-18397D01*
X27506Y-18747D01*
X27544Y-18839D01*
X27602Y-18897D01*
X27544Y-18955D01*
X27506Y-19047D01*
X27506Y-19147D01*
X27506Y-19497D01*
X27544Y-19589D01*
X27614Y-19659D01*
X27706Y-19697D01*
X27806Y-19697D01*
X28356Y-19697D01*
X28405Y-19677D01*
X28454Y-19697D01*
X28554Y-19697D01*
X28817Y-19697D01*
X28817Y-19697D01*
G37*
G54D44*
X28817Y-19697D02*
X27936Y-20578D01*
X27856Y-20697D01*
X27853Y-20713D01*
X27734Y-20832D01*
X27651Y-21032D01*
X27651Y-21166D01*
X26511Y-22306D01*
X26431Y-22426D01*
X26403Y-22566D01*
X26403Y-22638D01*
X26177Y-22731D01*
X25882Y-23026D01*
X25801Y-23221D01*
X25801Y-21517D01*
X25887Y-21603D01*
X26087Y-21686D01*
X26304Y-21687D01*
X26505Y-21604D01*
X26658Y-21451D01*
X26742Y-21250D01*
X26742Y-21033D01*
X26659Y-20833D01*
X26564Y-20738D01*
X26564Y-20061D01*
X26613Y-20013D01*
X26722Y-20013D01*
X26915Y-19933D01*
X27062Y-19785D01*
X27143Y-19593D01*
X27143Y-19384D01*
X27063Y-19191D01*
X26986Y-19113D01*
X26986Y-18462D01*
X26958Y-18321D01*
X26878Y-18201D01*
X26774Y-18098D01*
X26774Y-17959D01*
X26736Y-17867D01*
X26666Y-17797D01*
X26574Y-17759D01*
X26475Y-17758D01*
X26115Y-17758D01*
X26023Y-17796D01*
X25974Y-17845D01*
X25974Y-17609D01*
X25936Y-17517D01*
X25866Y-17447D01*
X25774Y-17409D01*
X25675Y-17408D01*
X25315Y-17408D01*
X25290Y-17419D01*
X25289Y-17418D01*
X25219Y-17347D01*
X25127Y-17309D01*
X25028Y-17309D01*
X24678Y-17309D01*
X24586Y-17347D01*
X24527Y-17406D01*
X24469Y-17347D01*
X24377Y-17309D01*
X24278Y-17309D01*
X23928Y-17309D01*
X23836Y-17347D01*
X23765Y-17417D01*
X23745Y-17466D01*
X23154Y-17466D01*
X23017Y-17409D01*
X22848Y-17409D01*
X22692Y-17474D01*
X22572Y-17593D01*
X22508Y-17749D01*
X22507Y-17918D01*
X22572Y-18075D01*
X22692Y-18194D01*
X22848Y-18259D01*
X23017Y-18259D01*
X23155Y-18202D01*
X23745Y-18202D01*
X23765Y-18251D01*
X23835Y-18321D01*
X23927Y-18359D01*
X24027Y-18359D01*
X24377Y-18359D01*
X24468Y-18321D01*
X24527Y-18263D01*
X24585Y-18321D01*
X24677Y-18359D01*
X24777Y-18359D01*
X25114Y-18359D01*
X25114Y-18408D01*
X25114Y-18428D01*
X25092Y-18461D01*
X25064Y-18602D01*
X25064Y-23411D01*
X24906Y-23028D01*
X24611Y-22732D01*
X24225Y-22572D01*
X23807Y-22571D01*
X23421Y-22731D01*
X23126Y-23026D01*
X23031Y-23253D01*
X22340Y-23253D01*
X22246Y-23160D01*
X22045Y-23076D01*
X21829Y-23076D01*
X21628Y-23159D01*
X21475Y-23312D01*
X21391Y-23513D01*
X21391Y-23730D01*
X21474Y-23930D01*
X21627Y-24084D01*
X21828Y-24167D01*
X22044Y-24167D01*
X22245Y-24084D01*
X22340Y-23990D01*
X23031Y-23990D01*
X23125Y-24216D01*
X23324Y-24415D01*
X18664Y-24415D01*
X19391Y-23687D01*
X19391Y-23730D01*
X19474Y-23930D01*
X19627Y-24084D01*
X19828Y-24167D01*
X20044Y-24167D01*
X20245Y-24084D01*
X20399Y-23931D01*
X20482Y-23730D01*
X20482Y-23514D01*
X20456Y-23450D01*
X21346Y-22559D01*
X21346Y-22559D01*
X21346Y-22559D01*
X21390Y-22493D01*
X21411Y-22493D01*
X21503Y-22455D01*
X21573Y-22385D01*
X21593Y-22336D01*
X23370Y-22336D01*
X23510Y-22308D01*
X23630Y-22228D01*
X24172Y-21686D01*
X24304Y-21687D01*
X24505Y-21604D01*
X24658Y-21451D01*
X24742Y-21250D01*
X24742Y-21033D01*
X24659Y-20833D01*
X24564Y-20738D01*
X24564Y-20066D01*
X24564Y-20066D01*
X24564Y-20066D01*
X24560Y-20043D01*
X24536Y-19926D01*
X24457Y-19806D01*
X24457Y-19806D01*
X24143Y-19492D01*
X24143Y-19163D01*
X24105Y-19071D01*
X24034Y-19001D01*
X23943Y-18963D01*
X23843Y-18963D01*
X23293Y-18963D01*
X23201Y-19001D01*
X23131Y-19071D01*
X23093Y-19163D01*
X23093Y-19262D01*
X23093Y-19812D01*
X23131Y-19904D01*
X23201Y-19975D01*
X23293Y-20013D01*
X23392Y-20013D01*
X23622Y-20013D01*
X23828Y-20219D01*
X23828Y-20738D01*
X23734Y-20832D01*
X23651Y-21032D01*
X23651Y-21166D01*
X23217Y-21600D01*
X22509Y-21600D01*
X22658Y-21451D01*
X22742Y-21250D01*
X22742Y-21033D01*
X22659Y-20833D01*
X22564Y-20738D01*
X22564Y-18771D01*
X22536Y-18630D01*
X22457Y-18511D01*
X22045Y-18099D01*
X22022Y-18084D01*
X22661Y-17445D01*
X22779Y-17366D01*
X23124Y-17021D01*
X24522Y-17021D01*
X24659Y-17078D01*
X24828Y-17078D01*
X24984Y-17014D01*
X25104Y-16894D01*
X25169Y-16738D01*
X25169Y-16569D01*
X25104Y-16413D01*
X24985Y-16293D01*
X24829Y-16228D01*
X24659Y-16228D01*
X24522Y-16285D01*
X23414Y-16285D01*
X23414Y-13729D01*
X23414Y-13417D01*
X23002Y-13417D01*
X22939Y-13479D01*
X22939Y-13591D01*
X22977Y-13683D01*
X23047Y-13753D01*
X23139Y-13792D01*
X23239Y-13792D01*
X23352Y-13792D01*
X23414Y-13729D01*
X23414Y-16285D01*
X23301Y-16285D01*
X23301Y-15767D01*
X23276Y-15641D01*
X23204Y-15535D01*
X23204Y-15535D01*
X21786Y-14116D01*
X21786Y-9884D01*
X21844Y-9826D01*
X21882Y-9734D01*
X21882Y-9634D01*
X21882Y-9234D01*
X22978Y-10329D01*
X22978Y-10753D01*
X22930Y-10773D01*
X22859Y-10843D01*
X22821Y-10935D01*
X22821Y-11034D01*
X22821Y-11384D01*
X22859Y-11476D01*
X22917Y-11535D01*
X22859Y-11593D01*
X22821Y-11685D01*
X22821Y-11784D01*
X22821Y-12134D01*
X22859Y-12226D01*
X22929Y-12297D01*
X22971Y-12314D01*
X22939Y-12392D01*
X22939Y-12491D01*
X22939Y-12841D01*
X22977Y-12933D01*
X23035Y-12992D01*
X22977Y-13050D01*
X22939Y-13142D01*
X22939Y-13254D01*
X23002Y-13317D01*
X23414Y-13317D01*
X23414Y-13309D01*
X23514Y-13309D01*
X23514Y-13317D01*
X23522Y-13317D01*
X23522Y-13417D01*
X23514Y-13417D01*
X23514Y-13729D01*
X23577Y-13792D01*
X23690Y-13792D01*
X23789Y-13792D01*
X23881Y-13753D01*
X23914Y-13721D01*
X23918Y-13727D01*
X23885Y-13808D01*
X23884Y-13908D01*
X23884Y-14458D01*
X23905Y-14507D01*
X23885Y-14556D01*
X23884Y-14656D01*
X23884Y-15206D01*
X23922Y-15298D01*
X23993Y-15368D01*
X24085Y-15406D01*
X24184Y-15406D01*
X24534Y-15406D01*
X24626Y-15368D01*
X24685Y-15310D01*
X24743Y-15368D01*
X24835Y-15406D01*
X24934Y-15406D01*
X25114Y-15406D01*
X25151Y-15496D01*
X25270Y-15615D01*
X25426Y-15680D01*
X25595Y-15680D01*
X25752Y-15616D01*
X25871Y-15496D01*
X25936Y-15340D01*
X25936Y-15171D01*
X25872Y-15015D01*
X25752Y-14895D01*
X25615Y-14838D01*
X25485Y-14708D01*
X25485Y-14557D01*
X25464Y-14507D01*
X25484Y-14458D01*
X25485Y-14359D01*
X25485Y-14246D01*
X25422Y-14183D01*
X25446Y-14183D01*
X25488Y-14226D01*
X25580Y-14264D01*
X25680Y-14264D01*
X25793Y-14264D01*
X25855Y-14202D01*
X25855Y-13889D01*
X25847Y-13889D01*
X25847Y-13793D01*
X25963Y-13793D01*
X25963Y-13889D01*
X25955Y-13889D01*
X25955Y-14202D01*
X26018Y-14264D01*
X26131Y-14264D01*
X26228Y-14264D01*
X26228Y-14395D01*
X26293Y-14551D01*
X26404Y-14662D01*
X26404Y-14755D01*
X26404Y-15105D01*
X26442Y-15197D01*
X26500Y-15255D01*
X26442Y-15314D01*
X26404Y-15405D01*
X26404Y-15505D01*
X26404Y-15855D01*
X26442Y-15947D01*
X26512Y-16017D01*
X26604Y-16055D01*
X26703Y-16055D01*
X27216Y-16055D01*
X27209Y-16062D01*
X27171Y-16154D01*
X27171Y-16266D01*
X27234Y-16328D01*
X27646Y-16328D01*
X27646Y-16321D01*
X27746Y-16321D01*
X27746Y-16328D01*
X28159Y-16328D01*
X28221Y-16266D01*
X28221Y-16154D01*
X28183Y-16062D01*
X28125Y-16003D01*
X28183Y-15945D01*
X28199Y-15906D01*
X28201Y-15905D01*
X28272Y-15934D01*
X28372Y-15935D01*
X28502Y-15935D01*
X28498Y-15941D01*
X28470Y-16082D01*
X28470Y-16205D01*
X28203Y-16472D01*
X28159Y-16428D01*
X27746Y-16428D01*
X27746Y-16741D01*
X27809Y-16803D01*
X27872Y-16803D01*
X27868Y-16807D01*
X27788Y-16927D01*
X27760Y-17067D01*
X27760Y-17162D01*
X27742Y-17181D01*
X27703Y-17273D01*
X27703Y-17372D01*
X27703Y-17536D01*
X27691Y-17554D01*
X27663Y-17695D01*
X27663Y-18115D01*
X27646Y-18122D01*
X27646Y-16741D01*
X27646Y-16428D01*
X27234Y-16428D01*
X27171Y-16491D01*
X27171Y-16603D01*
X27209Y-16695D01*
X27280Y-16765D01*
X27371Y-16803D01*
X27471Y-16803D01*
X27584Y-16803D01*
X27646Y-16741D01*
X27646Y-18122D01*
X27615Y-18135D01*
X27544Y-18205D01*
X27506Y-18297D01*
X27506Y-18397D01*
X27506Y-18747D01*
X27544Y-18839D01*
X27602Y-18897D01*
X27544Y-18955D01*
X27506Y-19047D01*
X27506Y-19147D01*
X27506Y-19497D01*
X27544Y-19589D01*
X27614Y-19659D01*
X27706Y-19697D01*
X27806Y-19697D01*
X28356Y-19697D01*
X28405Y-19677D01*
X28454Y-19697D01*
X28554Y-19697D01*
X28817Y-19697D01*
G54D10*
G36*
X31541Y-17467D02*
X31463Y-17467D01*
X31194Y-17467D01*
X31194Y-17253D01*
X31194Y-17141D01*
X31131Y-17078D01*
X30719Y-17078D01*
X30719Y-17391D01*
X30781Y-17453D01*
X30894Y-17453D01*
X30994Y-17453D01*
X31086Y-17415D01*
X31156Y-17344D01*
X31194Y-17253D01*
X31194Y-17467D01*
X31113Y-17467D01*
X31043Y-17495D01*
X30973Y-17467D01*
X30874Y-17467D01*
X30619Y-17467D01*
X30619Y-17391D01*
X30619Y-17078D01*
X30344Y-17078D01*
X30206Y-17078D01*
X29931Y-17078D01*
X29931Y-17391D01*
X29994Y-17453D01*
X30107Y-17453D01*
X30206Y-17453D01*
X30275Y-17424D01*
X30344Y-17453D01*
X30443Y-17453D01*
X30556Y-17453D01*
X30619Y-17391D01*
X30619Y-17467D01*
X30524Y-17467D01*
X30432Y-17505D01*
X30374Y-17563D01*
X30315Y-17505D01*
X30223Y-17467D01*
X30111Y-17467D01*
X30049Y-17529D01*
X30049Y-17942D01*
X30056Y-17942D01*
X30056Y-18042D01*
X30049Y-18042D01*
X30049Y-18050D01*
X29949Y-18050D01*
X29949Y-18042D01*
X29949Y-17942D01*
X29949Y-17529D01*
X29886Y-17467D01*
X29831Y-17467D01*
X29831Y-17391D01*
X29831Y-17078D01*
X29419Y-17078D01*
X29356Y-17141D01*
X29356Y-17253D01*
X29394Y-17344D01*
X29465Y-17415D01*
X29556Y-17453D01*
X29656Y-17453D01*
X29769Y-17453D01*
X29831Y-17391D01*
X29831Y-17467D01*
X29774Y-17467D01*
X29682Y-17505D01*
X29612Y-17575D01*
X29574Y-17667D01*
X29573Y-17766D01*
X29574Y-17879D01*
X29636Y-17942D01*
X29949Y-17942D01*
X29949Y-18042D01*
X29636Y-18042D01*
X29574Y-18104D01*
X29573Y-18217D01*
X29574Y-18317D01*
X29612Y-18408D01*
X29634Y-18431D01*
X29596Y-18447D01*
X29525Y-18517D01*
X29487Y-18609D01*
X29487Y-18709D01*
X29487Y-18909D01*
X29219Y-18909D01*
X29208Y-18897D01*
X29266Y-18839D01*
X29304Y-18747D01*
X29304Y-18648D01*
X29304Y-18298D01*
X29266Y-18206D01*
X29196Y-18135D01*
X29135Y-18110D01*
X29195Y-18085D01*
X29265Y-18015D01*
X29303Y-17923D01*
X29303Y-17823D01*
X29303Y-17372D01*
X29303Y-17273D01*
X29265Y-17181D01*
X29195Y-17111D01*
X29103Y-17073D01*
X28991Y-17073D01*
X28928Y-17135D01*
X28928Y-17548D01*
X29241Y-17548D01*
X29303Y-17485D01*
X29303Y-17372D01*
X29303Y-17823D01*
X29303Y-17710D01*
X29241Y-17648D01*
X28928Y-17648D01*
X28928Y-17656D01*
X28828Y-17656D01*
X28828Y-17648D01*
X28821Y-17648D01*
X28821Y-17548D01*
X28828Y-17548D01*
X28828Y-17135D01*
X28766Y-17073D01*
X28654Y-17073D01*
X28636Y-17080D01*
X29097Y-16619D01*
X29206Y-16665D01*
X29375Y-16665D01*
X29420Y-16646D01*
X29446Y-16646D01*
X29453Y-16653D01*
X29394Y-16712D01*
X29356Y-16804D01*
X29356Y-16916D01*
X29419Y-16978D01*
X29831Y-16978D01*
X29831Y-16970D01*
X29931Y-16970D01*
X29931Y-16978D01*
X30206Y-16978D01*
X30344Y-16978D01*
X30619Y-16978D01*
X30619Y-16970D01*
X30719Y-16970D01*
X30719Y-16978D01*
X31131Y-16978D01*
X31194Y-16916D01*
X31194Y-16804D01*
X31156Y-16712D01*
X31097Y-16653D01*
X31104Y-16646D01*
X31145Y-16646D01*
X31541Y-17042D01*
X31541Y-17303D01*
X31541Y-17467D01*
X31541Y-17467D01*
G37*
G54D44*
X31541Y-17467D02*
X31463Y-17467D01*
X31194Y-17467D01*
X31194Y-17253D01*
X31194Y-17141D01*
X31131Y-17078D01*
X30719Y-17078D01*
X30719Y-17391D01*
X30781Y-17453D01*
X30894Y-17453D01*
X30994Y-17453D01*
X31086Y-17415D01*
X31156Y-17344D01*
X31194Y-17253D01*
X31194Y-17467D01*
X31113Y-17467D01*
X31043Y-17495D01*
X30973Y-17467D01*
X30874Y-17467D01*
X30619Y-17467D01*
X30619Y-17391D01*
X30619Y-17078D01*
X30344Y-17078D01*
X30206Y-17078D01*
X29931Y-17078D01*
X29931Y-17391D01*
X29994Y-17453D01*
X30107Y-17453D01*
X30206Y-17453D01*
X30275Y-17424D01*
X30344Y-17453D01*
X30443Y-17453D01*
X30556Y-17453D01*
X30619Y-17391D01*
X30619Y-17467D01*
X30524Y-17467D01*
X30432Y-17505D01*
X30374Y-17563D01*
X30315Y-17505D01*
X30223Y-17467D01*
X30111Y-17467D01*
X30049Y-17529D01*
X30049Y-17942D01*
X30056Y-17942D01*
X30056Y-18042D01*
X30049Y-18042D01*
X30049Y-18050D01*
X29949Y-18050D01*
X29949Y-18042D01*
X29949Y-17942D01*
X29949Y-17529D01*
X29886Y-17467D01*
X29831Y-17467D01*
X29831Y-17391D01*
X29831Y-17078D01*
X29419Y-17078D01*
X29356Y-17141D01*
X29356Y-17253D01*
X29394Y-17344D01*
X29465Y-17415D01*
X29556Y-17453D01*
X29656Y-17453D01*
X29769Y-17453D01*
X29831Y-17391D01*
X29831Y-17467D01*
X29774Y-17467D01*
X29682Y-17505D01*
X29612Y-17575D01*
X29574Y-17667D01*
X29573Y-17766D01*
X29574Y-17879D01*
X29636Y-17942D01*
X29949Y-17942D01*
X29949Y-18042D01*
X29636Y-18042D01*
X29574Y-18104D01*
X29573Y-18217D01*
X29574Y-18317D01*
X29612Y-18408D01*
X29634Y-18431D01*
X29596Y-18447D01*
X29525Y-18517D01*
X29487Y-18609D01*
X29487Y-18709D01*
X29487Y-18909D01*
X29219Y-18909D01*
X29208Y-18897D01*
X29266Y-18839D01*
X29304Y-18747D01*
X29304Y-18648D01*
X29304Y-18298D01*
X29266Y-18206D01*
X29196Y-18135D01*
X29135Y-18110D01*
X29195Y-18085D01*
X29265Y-18015D01*
X29303Y-17923D01*
X29303Y-17823D01*
X29303Y-17372D01*
X29303Y-17273D01*
X29265Y-17181D01*
X29195Y-17111D01*
X29103Y-17073D01*
X28991Y-17073D01*
X28928Y-17135D01*
X28928Y-17548D01*
X29241Y-17548D01*
X29303Y-17485D01*
X29303Y-17372D01*
X29303Y-17823D01*
X29303Y-17710D01*
X29241Y-17648D01*
X28928Y-17648D01*
X28928Y-17656D01*
X28828Y-17656D01*
X28828Y-17648D01*
X28821Y-17648D01*
X28821Y-17548D01*
X28828Y-17548D01*
X28828Y-17135D01*
X28766Y-17073D01*
X28654Y-17073D01*
X28636Y-17080D01*
X29097Y-16619D01*
X29206Y-16665D01*
X29375Y-16665D01*
X29420Y-16646D01*
X29446Y-16646D01*
X29453Y-16653D01*
X29394Y-16712D01*
X29356Y-16804D01*
X29356Y-16916D01*
X29419Y-16978D01*
X29831Y-16978D01*
X29831Y-16970D01*
X29931Y-16970D01*
X29931Y-16978D01*
X30206Y-16978D01*
X30344Y-16978D01*
X30619Y-16978D01*
X30619Y-16970D01*
X30719Y-16970D01*
X30719Y-16978D01*
X31131Y-16978D01*
X31194Y-16916D01*
X31194Y-16804D01*
X31156Y-16712D01*
X31097Y-16653D01*
X31104Y-16646D01*
X31145Y-16646D01*
X31541Y-17042D01*
X31541Y-17303D01*
X31541Y-17467D01*
G54D10*
G36*
X33549Y-22327D02*
X33323Y-22553D01*
X33217Y-22510D01*
X32923Y-22388D01*
X32432Y-22387D01*
X31978Y-22575D01*
X31631Y-22921D01*
X31443Y-23375D01*
X31442Y-23866D01*
X31579Y-24198D01*
X31363Y-24415D01*
X30579Y-24415D01*
X30579Y-23823D01*
X30575Y-23405D01*
X30422Y-23033D01*
X30274Y-22945D01*
X30204Y-23016D01*
X30204Y-22874D01*
X30115Y-22727D01*
X30027Y-22691D01*
X30027Y-21525D01*
X30027Y-21112D01*
X29715Y-21112D01*
X29652Y-21175D01*
X29652Y-21288D01*
X29652Y-21387D01*
X29690Y-21479D01*
X29761Y-21550D01*
X29853Y-21588D01*
X29965Y-21587D01*
X30027Y-21525D01*
X30027Y-22691D01*
X29728Y-22570D01*
X29310Y-22573D01*
X28939Y-22727D01*
X28850Y-22874D01*
X29527Y-23551D01*
X30204Y-22874D01*
X30204Y-23016D01*
X29598Y-23622D01*
X30274Y-24298D01*
X30422Y-24210D01*
X30579Y-23823D01*
X30579Y-24415D01*
X30176Y-24415D01*
X30204Y-24369D01*
X29527Y-23692D01*
X29456Y-23763D01*
X29456Y-23622D01*
X28780Y-22945D01*
X28633Y-23033D01*
X28476Y-23421D01*
X28479Y-23838D01*
X28633Y-24210D01*
X28780Y-24298D01*
X29456Y-23622D01*
X29456Y-23763D01*
X28850Y-24369D01*
X28878Y-24415D01*
X27463Y-24415D01*
X27661Y-24217D01*
X27821Y-23831D01*
X27821Y-23414D01*
X27662Y-23028D01*
X27367Y-22732D01*
X27197Y-22661D01*
X28172Y-21686D01*
X28304Y-21687D01*
X28505Y-21604D01*
X28658Y-21451D01*
X28742Y-21250D01*
X28742Y-21033D01*
X28677Y-20878D01*
X29306Y-20250D01*
X29487Y-20250D01*
X29487Y-20445D01*
X29525Y-20536D01*
X29595Y-20607D01*
X29687Y-20645D01*
X29691Y-20645D01*
X29690Y-20646D01*
X29652Y-20738D01*
X29652Y-20837D01*
X29652Y-20950D01*
X29715Y-21012D01*
X30027Y-21012D01*
X30027Y-21005D01*
X30127Y-21005D01*
X30127Y-21012D01*
X30135Y-21012D01*
X30135Y-21112D01*
X30127Y-21112D01*
X30127Y-21525D01*
X30190Y-21587D01*
X30302Y-21588D01*
X30394Y-21550D01*
X30452Y-21491D01*
X30510Y-21549D01*
X30602Y-21587D01*
X30702Y-21588D01*
X31052Y-21588D01*
X31122Y-21559D01*
X31191Y-21587D01*
X31290Y-21588D01*
X31640Y-21588D01*
X31732Y-21550D01*
X31791Y-21491D01*
X31849Y-21549D01*
X31941Y-21587D01*
X32040Y-21588D01*
X32390Y-21588D01*
X32482Y-21550D01*
X32553Y-21479D01*
X32558Y-21465D01*
X32611Y-21487D01*
X32781Y-21488D01*
X32937Y-21423D01*
X33056Y-21304D01*
X33121Y-21147D01*
X33121Y-20978D01*
X33057Y-20822D01*
X32937Y-20702D01*
X32781Y-20638D01*
X32612Y-20637D01*
X32558Y-20660D01*
X32553Y-20646D01*
X32519Y-20612D01*
X32529Y-20607D01*
X32600Y-20537D01*
X32638Y-20445D01*
X32638Y-20346D01*
X32638Y-20110D01*
X32636Y-20106D01*
X32663Y-20106D01*
X32789Y-20081D01*
X32789Y-20081D01*
X32895Y-20010D01*
X33047Y-19858D01*
X33118Y-19751D01*
X33118Y-19751D01*
X33143Y-19625D01*
X33143Y-15059D01*
X33143Y-15059D01*
X33118Y-14933D01*
X33047Y-14826D01*
X33047Y-14826D01*
X31630Y-13409D01*
X31523Y-13338D01*
X31397Y-13312D01*
X28541Y-13312D01*
X28289Y-13061D01*
X32098Y-13061D01*
X32190Y-13023D01*
X32261Y-12952D01*
X32299Y-12860D01*
X32299Y-12761D01*
X32299Y-10044D01*
X32261Y-9953D01*
X32191Y-9882D01*
X32099Y-9844D01*
X31999Y-9844D01*
X27901Y-9844D01*
X27809Y-9882D01*
X27738Y-9952D01*
X27700Y-10044D01*
X27700Y-10143D01*
X27700Y-12472D01*
X27612Y-12383D01*
X27612Y-11850D01*
X27587Y-11724D01*
X27587Y-11724D01*
X27551Y-11671D01*
X27515Y-11617D01*
X27515Y-11617D01*
X27336Y-11438D01*
X27336Y-11358D01*
X27336Y-11358D01*
X27311Y-11232D01*
X27240Y-11125D01*
X27240Y-11125D01*
X22830Y-6716D01*
X22724Y-6645D01*
X22598Y-6620D01*
X22539Y-6620D01*
X21644Y-6620D01*
X21608Y-6532D01*
X21538Y-6462D01*
X21446Y-6423D01*
X21346Y-6423D01*
X21146Y-6423D01*
X21096Y-6349D01*
X23131Y-6349D01*
X23991Y-7209D01*
X23991Y-7209D01*
X24111Y-7288D01*
X24228Y-7312D01*
X24251Y-7316D01*
X24251Y-7316D01*
X24251Y-7316D01*
X25359Y-7316D01*
X25408Y-7366D01*
X25528Y-7446D01*
X25669Y-7474D01*
X27929Y-7474D01*
X28069Y-7614D01*
X28289Y-7706D01*
X28528Y-7706D01*
X28748Y-7615D01*
X28917Y-7446D01*
X29009Y-7226D01*
X29009Y-6987D01*
X28918Y-6766D01*
X28917Y-6765D01*
X29022Y-6765D01*
X29622Y-7366D01*
X29742Y-7446D01*
X29809Y-7459D01*
X29809Y-7505D01*
X29847Y-7597D01*
X29917Y-7668D01*
X30009Y-7706D01*
X30108Y-7706D01*
X30808Y-7706D01*
X30900Y-7668D01*
X30971Y-7598D01*
X31006Y-7512D01*
X32528Y-7512D01*
X32528Y-7924D01*
X32742Y-7924D01*
X32742Y-7944D01*
X32805Y-7944D01*
X32742Y-8007D01*
X32742Y-8119D01*
X32780Y-8211D01*
X32850Y-8281D01*
X32942Y-8319D01*
X33042Y-8319D01*
X33155Y-8319D01*
X33217Y-8257D01*
X33217Y-7944D01*
X33209Y-7944D01*
X33209Y-7924D01*
X33325Y-7924D01*
X33325Y-7944D01*
X33317Y-7944D01*
X33317Y-8257D01*
X33380Y-8319D01*
X33493Y-8319D01*
X33549Y-8319D01*
X33549Y-22327D01*
X33549Y-22327D01*
G37*
G54D44*
X33549Y-22327D02*
X33323Y-22553D01*
X33217Y-22510D01*
X32923Y-22388D01*
X32432Y-22387D01*
X31978Y-22575D01*
X31631Y-22921D01*
X31443Y-23375D01*
X31442Y-23866D01*
X31579Y-24198D01*
X31363Y-24415D01*
X30579Y-24415D01*
X30579Y-23823D01*
X30575Y-23405D01*
X30422Y-23033D01*
X30274Y-22945D01*
X30204Y-23016D01*
X30204Y-22874D01*
X30115Y-22727D01*
X30027Y-22691D01*
X30027Y-21525D01*
X30027Y-21112D01*
X29715Y-21112D01*
X29652Y-21175D01*
X29652Y-21288D01*
X29652Y-21387D01*
X29690Y-21479D01*
X29761Y-21550D01*
X29853Y-21588D01*
X29965Y-21587D01*
X30027Y-21525D01*
X30027Y-22691D01*
X29728Y-22570D01*
X29310Y-22573D01*
X28939Y-22727D01*
X28850Y-22874D01*
X29527Y-23551D01*
X30204Y-22874D01*
X30204Y-23016D01*
X29598Y-23622D01*
X30274Y-24298D01*
X30422Y-24210D01*
X30579Y-23823D01*
X30579Y-24415D01*
X30176Y-24415D01*
X30204Y-24369D01*
X29527Y-23692D01*
X29456Y-23763D01*
X29456Y-23622D01*
X28780Y-22945D01*
X28633Y-23033D01*
X28476Y-23421D01*
X28479Y-23838D01*
X28633Y-24210D01*
X28780Y-24298D01*
X29456Y-23622D01*
X29456Y-23763D01*
X28850Y-24369D01*
X28878Y-24415D01*
X27463Y-24415D01*
X27661Y-24217D01*
X27821Y-23831D01*
X27821Y-23414D01*
X27662Y-23028D01*
X27367Y-22732D01*
X27197Y-22661D01*
X28172Y-21686D01*
X28304Y-21687D01*
X28505Y-21604D01*
X28658Y-21451D01*
X28742Y-21250D01*
X28742Y-21033D01*
X28677Y-20878D01*
X29306Y-20250D01*
X29487Y-20250D01*
X29487Y-20445D01*
X29525Y-20536D01*
X29595Y-20607D01*
X29687Y-20645D01*
X29691Y-20645D01*
X29690Y-20646D01*
X29652Y-20738D01*
X29652Y-20837D01*
X29652Y-20950D01*
X29715Y-21012D01*
X30027Y-21012D01*
X30027Y-21005D01*
X30127Y-21005D01*
X30127Y-21012D01*
X30135Y-21012D01*
X30135Y-21112D01*
X30127Y-21112D01*
X30127Y-21525D01*
X30190Y-21587D01*
X30302Y-21588D01*
X30394Y-21550D01*
X30452Y-21491D01*
X30510Y-21549D01*
X30602Y-21587D01*
X30702Y-21588D01*
X31052Y-21588D01*
X31122Y-21559D01*
X31191Y-21587D01*
X31290Y-21588D01*
X31640Y-21588D01*
X31732Y-21550D01*
X31791Y-21491D01*
X31849Y-21549D01*
X31941Y-21587D01*
X32040Y-21588D01*
X32390Y-21588D01*
X32482Y-21550D01*
X32553Y-21479D01*
X32558Y-21465D01*
X32611Y-21487D01*
X32781Y-21488D01*
X32937Y-21423D01*
X33056Y-21304D01*
X33121Y-21147D01*
X33121Y-20978D01*
X33057Y-20822D01*
X32937Y-20702D01*
X32781Y-20638D01*
X32612Y-20637D01*
X32558Y-20660D01*
X32553Y-20646D01*
X32519Y-20612D01*
X32529Y-20607D01*
X32600Y-20537D01*
X32638Y-20445D01*
X32638Y-20346D01*
X32638Y-20110D01*
X32636Y-20106D01*
X32663Y-20106D01*
X32789Y-20081D01*
X32789Y-20081D01*
X32895Y-20010D01*
X33047Y-19858D01*
X33118Y-19751D01*
X33118Y-19751D01*
X33143Y-19625D01*
X33143Y-15059D01*
X33143Y-15059D01*
X33118Y-14933D01*
X33047Y-14826D01*
X33047Y-14826D01*
X31630Y-13409D01*
X31523Y-13338D01*
X31397Y-13312D01*
X28541Y-13312D01*
X28289Y-13061D01*
X32098Y-13061D01*
X32190Y-13023D01*
X32261Y-12952D01*
X32299Y-12860D01*
X32299Y-12761D01*
X32299Y-10044D01*
X32261Y-9953D01*
X32191Y-9882D01*
X32099Y-9844D01*
X31999Y-9844D01*
X27901Y-9844D01*
X27809Y-9882D01*
X27738Y-9952D01*
X27700Y-10044D01*
X27700Y-10143D01*
X27700Y-12472D01*
X27612Y-12383D01*
X27612Y-11850D01*
X27587Y-11724D01*
X27587Y-11724D01*
X27551Y-11671D01*
X27515Y-11617D01*
X27515Y-11617D01*
X27336Y-11438D01*
X27336Y-11358D01*
X27336Y-11358D01*
X27311Y-11232D01*
X27240Y-11125D01*
X27240Y-11125D01*
X22830Y-6716D01*
X22724Y-6645D01*
X22598Y-6620D01*
X22539Y-6620D01*
X21644Y-6620D01*
X21608Y-6532D01*
X21538Y-6462D01*
X21446Y-6423D01*
X21346Y-6423D01*
X21146Y-6423D01*
X21096Y-6349D01*
X23131Y-6349D01*
X23991Y-7209D01*
X23991Y-7209D01*
X24111Y-7288D01*
X24228Y-7312D01*
X24251Y-7316D01*
X24251Y-7316D01*
X24251Y-7316D01*
X25359Y-7316D01*
X25408Y-7366D01*
X25528Y-7446D01*
X25669Y-7474D01*
X27929Y-7474D01*
X28069Y-7614D01*
X28289Y-7706D01*
X28528Y-7706D01*
X28748Y-7615D01*
X28917Y-7446D01*
X29009Y-7226D01*
X29009Y-6987D01*
X28918Y-6766D01*
X28917Y-6765D01*
X29022Y-6765D01*
X29622Y-7366D01*
X29742Y-7446D01*
X29809Y-7459D01*
X29809Y-7505D01*
X29847Y-7597D01*
X29917Y-7668D01*
X30009Y-7706D01*
X30108Y-7706D01*
X30808Y-7706D01*
X30900Y-7668D01*
X30971Y-7598D01*
X31006Y-7512D01*
X32528Y-7512D01*
X32528Y-7924D01*
X32742Y-7924D01*
X32742Y-7944D01*
X32805Y-7944D01*
X32742Y-8007D01*
X32742Y-8119D01*
X32780Y-8211D01*
X32850Y-8281D01*
X32942Y-8319D01*
X33042Y-8319D01*
X33155Y-8319D01*
X33217Y-8257D01*
X33217Y-7944D01*
X33209Y-7944D01*
X33209Y-7924D01*
X33325Y-7924D01*
X33325Y-7944D01*
X33317Y-7944D01*
X33317Y-8257D01*
X33380Y-8319D01*
X33493Y-8319D01*
X33549Y-8319D01*
X33549Y-22327D01*
G54D10*
G36*
X4976Y-20416D02*
X4968Y-20416D01*
X4968Y-20424D01*
X4868Y-20424D01*
X4868Y-20416D01*
X4861Y-20416D01*
X4861Y-20316D01*
X4868Y-20316D01*
X4868Y-20309D01*
X4968Y-20309D01*
X4968Y-20316D01*
X4976Y-20316D01*
X4976Y-20416D01*
X4976Y-20416D01*
G37*
G54D44*
X4976Y-20416D02*
X4968Y-20416D01*
X4968Y-20424D01*
X4868Y-20424D01*
X4868Y-20416D01*
X4861Y-20416D01*
X4861Y-20316D01*
X4868Y-20316D01*
X4868Y-20309D01*
X4968Y-20309D01*
X4968Y-20316D01*
X4976Y-20316D01*
X4976Y-20416D01*
G54D10*
G36*
X6740Y-2805D02*
X6732Y-2805D01*
X6732Y-2813D01*
X6632Y-2813D01*
X6632Y-2805D01*
X6624Y-2805D01*
X6624Y-2705D01*
X6632Y-2705D01*
X6632Y-2698D01*
X6732Y-2698D01*
X6732Y-2705D01*
X6740Y-2705D01*
X6740Y-2805D01*
X6740Y-2805D01*
G37*
G54D44*
X6740Y-2805D02*
X6732Y-2805D01*
X6732Y-2813D01*
X6632Y-2813D01*
X6632Y-2805D01*
X6624Y-2805D01*
X6624Y-2705D01*
X6632Y-2705D01*
X6632Y-2698D01*
X6732Y-2698D01*
X6732Y-2705D01*
X6740Y-2705D01*
X6740Y-2805D01*
G54D10*
G36*
X6779Y-5561D02*
X6771Y-5561D01*
X6771Y-5569D01*
X6671Y-5569D01*
X6671Y-5561D01*
X6663Y-5561D01*
X6663Y-5461D01*
X6671Y-5461D01*
X6671Y-5453D01*
X6771Y-5453D01*
X6771Y-5461D01*
X6779Y-5461D01*
X6779Y-5561D01*
X6779Y-5561D01*
G37*
G54D44*
X6779Y-5561D02*
X6771Y-5561D01*
X6771Y-5569D01*
X6671Y-5569D01*
X6671Y-5561D01*
X6663Y-5561D01*
X6663Y-5461D01*
X6671Y-5461D01*
X6671Y-5453D01*
X6771Y-5453D01*
X6771Y-5461D01*
X6779Y-5461D01*
X6779Y-5561D01*
G54D10*
G36*
X7040Y-3320D02*
X6901Y-3459D01*
X6873Y-3393D01*
X6801Y-3320D01*
X7040Y-3320D01*
X7040Y-3320D01*
G37*
G54D44*
X7040Y-3320D02*
X6901Y-3459D01*
X6873Y-3393D01*
X6801Y-3320D01*
X7040Y-3320D01*
G54D10*
G36*
X8233Y-8895D02*
X8161Y-8967D01*
X8097Y-9122D01*
X8096Y-9290D01*
X8138Y-9391D01*
X8138Y-9782D01*
X8146Y-9782D01*
X8146Y-9882D01*
X8138Y-9882D01*
X8138Y-10157D01*
X8138Y-10295D01*
X8138Y-10570D01*
X8146Y-10570D01*
X8146Y-10670D01*
X8138Y-10670D01*
X8138Y-10677D01*
X8038Y-10677D01*
X8038Y-10670D01*
X8030Y-10670D01*
X8030Y-10570D01*
X8038Y-10570D01*
X8038Y-10295D01*
X8038Y-10157D01*
X8038Y-9882D01*
X8030Y-9882D01*
X8030Y-9782D01*
X8038Y-9782D01*
X8038Y-9370D01*
X7976Y-9307D01*
X7879Y-9307D01*
X7256Y-8684D01*
X7343Y-8667D01*
X7449Y-8597D01*
X8233Y-7812D01*
X8233Y-8646D01*
X8233Y-8895D01*
X8233Y-8895D01*
G37*
G54D44*
X8233Y-8895D02*
X8161Y-8967D01*
X8097Y-9122D01*
X8096Y-9290D01*
X8138Y-9391D01*
X8138Y-9782D01*
X8146Y-9782D01*
X8146Y-9882D01*
X8138Y-9882D01*
X8138Y-10157D01*
X8138Y-10295D01*
X8138Y-10570D01*
X8146Y-10570D01*
X8146Y-10670D01*
X8138Y-10670D01*
X8138Y-10677D01*
X8038Y-10677D01*
X8038Y-10670D01*
X8030Y-10670D01*
X8030Y-10570D01*
X8038Y-10570D01*
X8038Y-10295D01*
X8038Y-10157D01*
X8038Y-9882D01*
X8030Y-9882D01*
X8030Y-9782D01*
X8038Y-9782D01*
X8038Y-9370D01*
X7976Y-9307D01*
X7879Y-9307D01*
X7256Y-8684D01*
X7343Y-8667D01*
X7449Y-8597D01*
X8233Y-7812D01*
X8233Y-8646D01*
X8233Y-8895D01*
G54D10*
G36*
X8797Y-16360D02*
X8789Y-16360D01*
X8789Y-16367D01*
X8689Y-16367D01*
X8689Y-16360D01*
X8276Y-16360D01*
X8235Y-16401D01*
X7311Y-16401D01*
X7374Y-16223D01*
X7364Y-16004D01*
X7301Y-15853D01*
X7206Y-15826D01*
X6890Y-16141D01*
X6896Y-16147D01*
X6825Y-16218D01*
X6820Y-16212D01*
X6749Y-16283D01*
X6749Y-16141D01*
X6434Y-15826D01*
X6338Y-15853D01*
X6265Y-16059D01*
X6276Y-16278D01*
X6338Y-16429D01*
X6434Y-16456D01*
X6749Y-16141D01*
X6749Y-16283D01*
X6504Y-16527D01*
X6532Y-16622D01*
X6592Y-16644D01*
X6510Y-16677D01*
X6356Y-16831D01*
X6273Y-17032D01*
X6273Y-17250D01*
X6328Y-17383D01*
X6248Y-17436D01*
X6244Y-17440D01*
X6244Y-15466D01*
X6219Y-15342D01*
X6149Y-15236D01*
X6049Y-15136D01*
X5943Y-15066D01*
X5818Y-15041D01*
X5675Y-15041D01*
X5658Y-15029D01*
X5518Y-15001D01*
X5473Y-15001D01*
X5473Y-14448D01*
X5462Y-14230D01*
X5400Y-14079D01*
X5304Y-14051D01*
X4989Y-14366D01*
X5304Y-14682D01*
X5400Y-14654D01*
X5473Y-14448D01*
X5473Y-15001D01*
X5327Y-15001D01*
X5229Y-14903D01*
X5151Y-14871D01*
X5206Y-14848D01*
X5234Y-14752D01*
X4918Y-14437D01*
X4848Y-14508D01*
X4848Y-14366D01*
X4532Y-14051D01*
X4437Y-14079D01*
X4420Y-14127D01*
X4400Y-14079D01*
X4304Y-14051D01*
X3989Y-14366D01*
X4304Y-14682D01*
X4400Y-14654D01*
X4417Y-14606D01*
X4437Y-14654D01*
X4532Y-14682D01*
X4848Y-14366D01*
X4848Y-14508D01*
X4603Y-14752D01*
X4631Y-14848D01*
X4690Y-14869D01*
X4609Y-14903D01*
X4510Y-15001D01*
X4327Y-15001D01*
X4229Y-14903D01*
X4151Y-14871D01*
X4206Y-14848D01*
X4234Y-14752D01*
X3918Y-14437D01*
X3848Y-14508D01*
X3848Y-14366D01*
X3532Y-14051D01*
X3437Y-14079D01*
X3364Y-14285D01*
X3375Y-14503D01*
X3437Y-14654D01*
X3532Y-14682D01*
X3848Y-14366D01*
X3848Y-14508D01*
X3603Y-14752D01*
X3631Y-14848D01*
X3690Y-14869D01*
X3609Y-14903D01*
X3455Y-15056D01*
X3372Y-15257D01*
X3371Y-15475D01*
X3455Y-15676D01*
X3608Y-15830D01*
X3697Y-15866D01*
X3609Y-15903D01*
X3455Y-16056D01*
X3372Y-16257D01*
X3371Y-16475D01*
X3455Y-16676D01*
X3608Y-16830D01*
X3686Y-16862D01*
X3631Y-16885D01*
X3603Y-16981D01*
X3918Y-17296D01*
X4234Y-16981D01*
X4206Y-16885D01*
X4147Y-16864D01*
X4228Y-16830D01*
X4327Y-16731D01*
X4510Y-16731D01*
X4608Y-16830D01*
X4686Y-16862D01*
X4631Y-16885D01*
X4603Y-16981D01*
X4918Y-17296D01*
X5234Y-16981D01*
X5206Y-16885D01*
X5147Y-16864D01*
X5228Y-16830D01*
X5382Y-16677D01*
X5465Y-16476D01*
X5465Y-16258D01*
X5382Y-16057D01*
X5229Y-15903D01*
X5140Y-15866D01*
X5228Y-15830D01*
X5327Y-15731D01*
X5518Y-15731D01*
X5593Y-15717D01*
X5593Y-17838D01*
X5559Y-17872D01*
X5522Y-17963D01*
X5522Y-18061D01*
X5522Y-18209D01*
X5473Y-18161D01*
X5473Y-17448D01*
X5462Y-17230D01*
X5400Y-17079D01*
X5304Y-17051D01*
X4989Y-17366D01*
X5304Y-17682D01*
X5400Y-17654D01*
X5473Y-17448D01*
X5473Y-18161D01*
X5449Y-18136D01*
X5402Y-18105D01*
X5382Y-18057D01*
X5229Y-17903D01*
X5151Y-17871D01*
X5206Y-17848D01*
X5234Y-17752D01*
X4918Y-17437D01*
X4848Y-17508D01*
X4848Y-17366D01*
X4532Y-17051D01*
X4437Y-17079D01*
X4420Y-17127D01*
X4400Y-17079D01*
X4304Y-17051D01*
X3989Y-17366D01*
X4304Y-17682D01*
X4400Y-17654D01*
X4417Y-17606D01*
X4437Y-17654D01*
X4532Y-17682D01*
X4848Y-17366D01*
X4848Y-17508D01*
X4603Y-17752D01*
X4631Y-17848D01*
X4690Y-17869D01*
X4609Y-17903D01*
X4510Y-18001D01*
X4327Y-18001D01*
X4229Y-17903D01*
X4151Y-17871D01*
X4206Y-17848D01*
X4234Y-17752D01*
X3918Y-17437D01*
X3848Y-17508D01*
X3848Y-17366D01*
X3532Y-17051D01*
X3437Y-17079D01*
X3364Y-17285D01*
X3375Y-17503D01*
X3437Y-17654D01*
X3532Y-17682D01*
X3848Y-17366D01*
X3848Y-17508D01*
X3603Y-17752D01*
X3631Y-17848D01*
X3690Y-17869D01*
X3609Y-17903D01*
X3455Y-18056D01*
X3372Y-18257D01*
X3371Y-18475D01*
X3455Y-18676D01*
X3608Y-18830D01*
X3697Y-18866D01*
X3609Y-18903D01*
X3455Y-19056D01*
X3372Y-19257D01*
X3371Y-19475D01*
X3455Y-19676D01*
X3608Y-19830D01*
X3686Y-19862D01*
X3631Y-19885D01*
X3603Y-19981D01*
X3918Y-20296D01*
X4234Y-19981D01*
X4206Y-19885D01*
X4147Y-19864D01*
X4228Y-19830D01*
X4327Y-19731D01*
X4510Y-19731D01*
X4595Y-19816D01*
X4568Y-19816D01*
X4477Y-19855D01*
X4406Y-19925D01*
X4368Y-20017D01*
X4368Y-20070D01*
X4304Y-20051D01*
X3989Y-20366D01*
X4304Y-20682D01*
X4368Y-20663D01*
X4368Y-20716D01*
X4406Y-20808D01*
X4477Y-20878D01*
X4568Y-20916D01*
X4622Y-20916D01*
X4603Y-20981D01*
X4918Y-21296D01*
X5234Y-20981D01*
X5215Y-20916D01*
X5268Y-20916D01*
X5296Y-20905D01*
X5482Y-21091D01*
X5482Y-21288D01*
X5520Y-21379D01*
X5589Y-21448D01*
X5680Y-21486D01*
X5778Y-21486D01*
X5797Y-21486D01*
X6008Y-21697D01*
X6008Y-21697D01*
X6036Y-21715D01*
X6018Y-21742D01*
X6017Y-21745D01*
X5720Y-21745D01*
X5629Y-21782D01*
X5559Y-21851D01*
X5522Y-21942D01*
X5522Y-22040D01*
X5522Y-22303D01*
X5473Y-22351D01*
X5473Y-21448D01*
X5462Y-21230D01*
X5400Y-21079D01*
X5304Y-21051D01*
X4989Y-21366D01*
X5304Y-21682D01*
X5400Y-21654D01*
X5473Y-21448D01*
X5473Y-22351D01*
X5465Y-22359D01*
X5465Y-22258D01*
X5382Y-22057D01*
X5229Y-21903D01*
X5151Y-21871D01*
X5206Y-21848D01*
X5234Y-21752D01*
X4918Y-21437D01*
X4848Y-21508D01*
X4848Y-21366D01*
X4532Y-21051D01*
X4437Y-21079D01*
X4420Y-21127D01*
X4400Y-21079D01*
X4304Y-21051D01*
X4234Y-21122D01*
X4234Y-20981D01*
X4206Y-20885D01*
X4158Y-20868D01*
X4206Y-20848D01*
X4234Y-20752D01*
X3918Y-20437D01*
X3603Y-20752D01*
X3631Y-20848D01*
X3679Y-20865D01*
X3631Y-20885D01*
X3603Y-20981D01*
X3918Y-21296D01*
X4234Y-20981D01*
X4234Y-21122D01*
X3989Y-21366D01*
X4304Y-21682D01*
X4400Y-21654D01*
X4417Y-21606D01*
X4437Y-21654D01*
X4532Y-21682D01*
X4848Y-21366D01*
X4848Y-21508D01*
X4603Y-21752D01*
X4631Y-21848D01*
X4690Y-21869D01*
X4609Y-21903D01*
X4510Y-22001D01*
X4327Y-22001D01*
X4229Y-21903D01*
X4151Y-21871D01*
X4206Y-21848D01*
X4234Y-21752D01*
X3918Y-21437D01*
X3913Y-21443D01*
X3842Y-21372D01*
X3848Y-21366D01*
X3532Y-21051D01*
X3460Y-21072D01*
X3369Y-20982D01*
X3369Y-20392D01*
X3375Y-20503D01*
X3437Y-20654D01*
X3532Y-20682D01*
X3848Y-20366D01*
X3532Y-20051D01*
X3437Y-20079D01*
X3369Y-20270D01*
X3369Y-19216D01*
X3344Y-19092D01*
X3274Y-18986D01*
X3124Y-18837D01*
X3124Y-14138D01*
X3160Y-14051D01*
X3160Y-13883D01*
X3096Y-13728D01*
X2978Y-13609D01*
X2823Y-13545D01*
X2664Y-13545D01*
X2664Y-10181D01*
X2857Y-9988D01*
X2902Y-9988D01*
X2973Y-9959D01*
X2973Y-11986D01*
X3001Y-12126D01*
X3080Y-12244D01*
X3414Y-12578D01*
X3455Y-12676D01*
X3608Y-12830D01*
X3697Y-12866D01*
X3609Y-12903D01*
X3455Y-13056D01*
X3372Y-13257D01*
X3371Y-13475D01*
X3455Y-13676D01*
X3608Y-13830D01*
X3686Y-13862D01*
X3631Y-13885D01*
X3603Y-13981D01*
X3918Y-14296D01*
X4234Y-13981D01*
X4206Y-13885D01*
X4147Y-13864D01*
X4228Y-13830D01*
X4327Y-13731D01*
X4510Y-13731D01*
X4608Y-13830D01*
X4686Y-13862D01*
X4631Y-13885D01*
X4603Y-13981D01*
X4918Y-14296D01*
X5234Y-13981D01*
X5206Y-13885D01*
X5147Y-13864D01*
X5228Y-13830D01*
X5382Y-13677D01*
X5465Y-13476D01*
X5465Y-13258D01*
X5382Y-13057D01*
X5229Y-12903D01*
X5140Y-12866D01*
X5228Y-12830D01*
X5382Y-12677D01*
X5465Y-12476D01*
X5465Y-12258D01*
X5382Y-12057D01*
X5229Y-11903D01*
X5140Y-11866D01*
X5228Y-11830D01*
X5327Y-11731D01*
X5538Y-11731D01*
X5559Y-11781D01*
X5628Y-11851D01*
X5719Y-11888D01*
X5817Y-11888D01*
X5993Y-11888D01*
X5993Y-13446D01*
X6018Y-13571D01*
X6088Y-13677D01*
X6421Y-14009D01*
X6421Y-14009D01*
X6526Y-14080D01*
X6526Y-14080D01*
X6547Y-14084D01*
X6651Y-14105D01*
X6678Y-14105D01*
X6803Y-14080D01*
X6809Y-14076D01*
X7007Y-14076D01*
X7007Y-14076D01*
X7007Y-14076D01*
X7121Y-14053D01*
X7205Y-13997D01*
X7224Y-13997D01*
X7224Y-13997D01*
X7224Y-13997D01*
X7338Y-13975D01*
X7434Y-13910D01*
X7534Y-13810D01*
X7559Y-13810D01*
X7617Y-13810D01*
X7616Y-13950D01*
X7640Y-14007D01*
X7547Y-14026D01*
X7509Y-14052D01*
X7451Y-14090D01*
X7451Y-14090D01*
X6947Y-14594D01*
X6471Y-14594D01*
X6380Y-14632D01*
X6311Y-14701D01*
X6273Y-14792D01*
X6273Y-14890D01*
X6273Y-15490D01*
X6310Y-15581D01*
X6380Y-15650D01*
X6470Y-15688D01*
X6524Y-15688D01*
X6504Y-15755D01*
X6820Y-16071D01*
X7135Y-15755D01*
X7116Y-15688D01*
X7169Y-15688D01*
X7259Y-15651D01*
X7329Y-15581D01*
X7366Y-15491D01*
X7367Y-15392D01*
X7367Y-15014D01*
X7784Y-14597D01*
X8385Y-14597D01*
X8365Y-14694D01*
X8388Y-14807D01*
X8448Y-14897D01*
X8442Y-14926D01*
X8442Y-14926D01*
X8442Y-15138D01*
X8415Y-15138D01*
X8324Y-15175D01*
X8255Y-15245D01*
X8217Y-15335D01*
X8217Y-15433D01*
X8217Y-15783D01*
X8255Y-15874D01*
X8313Y-15932D01*
X8252Y-15993D01*
X8214Y-16085D01*
X8214Y-16197D01*
X8276Y-16260D01*
X8689Y-16260D01*
X8689Y-16252D01*
X8789Y-16252D01*
X8789Y-16260D01*
X8797Y-16260D01*
X8797Y-16360D01*
X8797Y-16360D01*
G37*
G54D44*
X8797Y-16360D02*
X8789Y-16360D01*
X8789Y-16367D01*
X8689Y-16367D01*
X8689Y-16360D01*
X8276Y-16360D01*
X8235Y-16401D01*
X7311Y-16401D01*
X7374Y-16223D01*
X7364Y-16004D01*
X7301Y-15853D01*
X7206Y-15826D01*
X6890Y-16141D01*
X6896Y-16147D01*
X6825Y-16218D01*
X6820Y-16212D01*
X6749Y-16283D01*
X6749Y-16141D01*
X6434Y-15826D01*
X6338Y-15853D01*
X6265Y-16059D01*
X6276Y-16278D01*
X6338Y-16429D01*
X6434Y-16456D01*
X6749Y-16141D01*
X6749Y-16283D01*
X6504Y-16527D01*
X6532Y-16622D01*
X6592Y-16644D01*
X6510Y-16677D01*
X6356Y-16831D01*
X6273Y-17032D01*
X6273Y-17250D01*
X6328Y-17383D01*
X6248Y-17436D01*
X6244Y-17440D01*
X6244Y-15466D01*
X6219Y-15342D01*
X6149Y-15236D01*
X6049Y-15136D01*
X5943Y-15066D01*
X5818Y-15041D01*
X5675Y-15041D01*
X5658Y-15029D01*
X5518Y-15001D01*
X5473Y-15001D01*
X5473Y-14448D01*
X5462Y-14230D01*
X5400Y-14079D01*
X5304Y-14051D01*
X4989Y-14366D01*
X5304Y-14682D01*
X5400Y-14654D01*
X5473Y-14448D01*
X5473Y-15001D01*
X5327Y-15001D01*
X5229Y-14903D01*
X5151Y-14871D01*
X5206Y-14848D01*
X5234Y-14752D01*
X4918Y-14437D01*
X4848Y-14508D01*
X4848Y-14366D01*
X4532Y-14051D01*
X4437Y-14079D01*
X4420Y-14127D01*
X4400Y-14079D01*
X4304Y-14051D01*
X3989Y-14366D01*
X4304Y-14682D01*
X4400Y-14654D01*
X4417Y-14606D01*
X4437Y-14654D01*
X4532Y-14682D01*
X4848Y-14366D01*
X4848Y-14508D01*
X4603Y-14752D01*
X4631Y-14848D01*
X4690Y-14869D01*
X4609Y-14903D01*
X4510Y-15001D01*
X4327Y-15001D01*
X4229Y-14903D01*
X4151Y-14871D01*
X4206Y-14848D01*
X4234Y-14752D01*
X3918Y-14437D01*
X3848Y-14508D01*
X3848Y-14366D01*
X3532Y-14051D01*
X3437Y-14079D01*
X3364Y-14285D01*
X3375Y-14503D01*
X3437Y-14654D01*
X3532Y-14682D01*
X3848Y-14366D01*
X3848Y-14508D01*
X3603Y-14752D01*
X3631Y-14848D01*
X3690Y-14869D01*
X3609Y-14903D01*
X3455Y-15056D01*
X3372Y-15257D01*
X3371Y-15475D01*
X3455Y-15676D01*
X3608Y-15830D01*
X3697Y-15866D01*
X3609Y-15903D01*
X3455Y-16056D01*
X3372Y-16257D01*
X3371Y-16475D01*
X3455Y-16676D01*
X3608Y-16830D01*
X3686Y-16862D01*
X3631Y-16885D01*
X3603Y-16981D01*
X3918Y-17296D01*
X4234Y-16981D01*
X4206Y-16885D01*
X4147Y-16864D01*
X4228Y-16830D01*
X4327Y-16731D01*
X4510Y-16731D01*
X4608Y-16830D01*
X4686Y-16862D01*
X4631Y-16885D01*
X4603Y-16981D01*
X4918Y-17296D01*
X5234Y-16981D01*
X5206Y-16885D01*
X5147Y-16864D01*
X5228Y-16830D01*
X5382Y-16677D01*
X5465Y-16476D01*
X5465Y-16258D01*
X5382Y-16057D01*
X5229Y-15903D01*
X5140Y-15866D01*
X5228Y-15830D01*
X5327Y-15731D01*
X5518Y-15731D01*
X5593Y-15717D01*
X5593Y-17838D01*
X5559Y-17872D01*
X5522Y-17963D01*
X5522Y-18061D01*
X5522Y-18209D01*
X5473Y-18161D01*
X5473Y-17448D01*
X5462Y-17230D01*
X5400Y-17079D01*
X5304Y-17051D01*
X4989Y-17366D01*
X5304Y-17682D01*
X5400Y-17654D01*
X5473Y-17448D01*
X5473Y-18161D01*
X5449Y-18136D01*
X5402Y-18105D01*
X5382Y-18057D01*
X5229Y-17903D01*
X5151Y-17871D01*
X5206Y-17848D01*
X5234Y-17752D01*
X4918Y-17437D01*
X4848Y-17508D01*
X4848Y-17366D01*
X4532Y-17051D01*
X4437Y-17079D01*
X4420Y-17127D01*
X4400Y-17079D01*
X4304Y-17051D01*
X3989Y-17366D01*
X4304Y-17682D01*
X4400Y-17654D01*
X4417Y-17606D01*
X4437Y-17654D01*
X4532Y-17682D01*
X4848Y-17366D01*
X4848Y-17508D01*
X4603Y-17752D01*
X4631Y-17848D01*
X4690Y-17869D01*
X4609Y-17903D01*
X4510Y-18001D01*
X4327Y-18001D01*
X4229Y-17903D01*
X4151Y-17871D01*
X4206Y-17848D01*
X4234Y-17752D01*
X3918Y-17437D01*
X3848Y-17508D01*
X3848Y-17366D01*
X3532Y-17051D01*
X3437Y-17079D01*
X3364Y-17285D01*
X3375Y-17503D01*
X3437Y-17654D01*
X3532Y-17682D01*
X3848Y-17366D01*
X3848Y-17508D01*
X3603Y-17752D01*
X3631Y-17848D01*
X3690Y-17869D01*
X3609Y-17903D01*
X3455Y-18056D01*
X3372Y-18257D01*
X3371Y-18475D01*
X3455Y-18676D01*
X3608Y-18830D01*
X3697Y-18866D01*
X3609Y-18903D01*
X3455Y-19056D01*
X3372Y-19257D01*
X3371Y-19475D01*
X3455Y-19676D01*
X3608Y-19830D01*
X3686Y-19862D01*
X3631Y-19885D01*
X3603Y-19981D01*
X3918Y-20296D01*
X4234Y-19981D01*
X4206Y-19885D01*
X4147Y-19864D01*
X4228Y-19830D01*
X4327Y-19731D01*
X4510Y-19731D01*
X4595Y-19816D01*
X4568Y-19816D01*
X4477Y-19855D01*
X4406Y-19925D01*
X4368Y-20017D01*
X4368Y-20070D01*
X4304Y-20051D01*
X3989Y-20366D01*
X4304Y-20682D01*
X4368Y-20663D01*
X4368Y-20716D01*
X4406Y-20808D01*
X4477Y-20878D01*
X4568Y-20916D01*
X4622Y-20916D01*
X4603Y-20981D01*
X4918Y-21296D01*
X5234Y-20981D01*
X5215Y-20916D01*
X5268Y-20916D01*
X5296Y-20905D01*
X5482Y-21091D01*
X5482Y-21288D01*
X5520Y-21379D01*
X5589Y-21448D01*
X5680Y-21486D01*
X5778Y-21486D01*
X5797Y-21486D01*
X6008Y-21697D01*
X6008Y-21697D01*
X6036Y-21715D01*
X6018Y-21742D01*
X6017Y-21745D01*
X5720Y-21745D01*
X5629Y-21782D01*
X5559Y-21851D01*
X5522Y-21942D01*
X5522Y-22040D01*
X5522Y-22303D01*
X5473Y-22351D01*
X5473Y-21448D01*
X5462Y-21230D01*
X5400Y-21079D01*
X5304Y-21051D01*
X4989Y-21366D01*
X5304Y-21682D01*
X5400Y-21654D01*
X5473Y-21448D01*
X5473Y-22351D01*
X5465Y-22359D01*
X5465Y-22258D01*
X5382Y-22057D01*
X5229Y-21903D01*
X5151Y-21871D01*
X5206Y-21848D01*
X5234Y-21752D01*
X4918Y-21437D01*
X4848Y-21508D01*
X4848Y-21366D01*
X4532Y-21051D01*
X4437Y-21079D01*
X4420Y-21127D01*
X4400Y-21079D01*
X4304Y-21051D01*
X4234Y-21122D01*
X4234Y-20981D01*
X4206Y-20885D01*
X4158Y-20868D01*
X4206Y-20848D01*
X4234Y-20752D01*
X3918Y-20437D01*
X3603Y-20752D01*
X3631Y-20848D01*
X3679Y-20865D01*
X3631Y-20885D01*
X3603Y-20981D01*
X3918Y-21296D01*
X4234Y-20981D01*
X4234Y-21122D01*
X3989Y-21366D01*
X4304Y-21682D01*
X4400Y-21654D01*
X4417Y-21606D01*
X4437Y-21654D01*
X4532Y-21682D01*
X4848Y-21366D01*
X4848Y-21508D01*
X4603Y-21752D01*
X4631Y-21848D01*
X4690Y-21869D01*
X4609Y-21903D01*
X4510Y-22001D01*
X4327Y-22001D01*
X4229Y-21903D01*
X4151Y-21871D01*
X4206Y-21848D01*
X4234Y-21752D01*
X3918Y-21437D01*
X3913Y-21443D01*
X3842Y-21372D01*
X3848Y-21366D01*
X3532Y-21051D01*
X3460Y-21072D01*
X3369Y-20982D01*
X3369Y-20392D01*
X3375Y-20503D01*
X3437Y-20654D01*
X3532Y-20682D01*
X3848Y-20366D01*
X3532Y-20051D01*
X3437Y-20079D01*
X3369Y-20270D01*
X3369Y-19216D01*
X3344Y-19092D01*
X3274Y-18986D01*
X3124Y-18837D01*
X3124Y-14138D01*
X3160Y-14051D01*
X3160Y-13883D01*
X3096Y-13728D01*
X2978Y-13609D01*
X2823Y-13545D01*
X2664Y-13545D01*
X2664Y-10181D01*
X2857Y-9988D01*
X2902Y-9988D01*
X2973Y-9959D01*
X2973Y-11986D01*
X3001Y-12126D01*
X3080Y-12244D01*
X3414Y-12578D01*
X3455Y-12676D01*
X3608Y-12830D01*
X3697Y-12866D01*
X3609Y-12903D01*
X3455Y-13056D01*
X3372Y-13257D01*
X3371Y-13475D01*
X3455Y-13676D01*
X3608Y-13830D01*
X3686Y-13862D01*
X3631Y-13885D01*
X3603Y-13981D01*
X3918Y-14296D01*
X4234Y-13981D01*
X4206Y-13885D01*
X4147Y-13864D01*
X4228Y-13830D01*
X4327Y-13731D01*
X4510Y-13731D01*
X4608Y-13830D01*
X4686Y-13862D01*
X4631Y-13885D01*
X4603Y-13981D01*
X4918Y-14296D01*
X5234Y-13981D01*
X5206Y-13885D01*
X5147Y-13864D01*
X5228Y-13830D01*
X5382Y-13677D01*
X5465Y-13476D01*
X5465Y-13258D01*
X5382Y-13057D01*
X5229Y-12903D01*
X5140Y-12866D01*
X5228Y-12830D01*
X5382Y-12677D01*
X5465Y-12476D01*
X5465Y-12258D01*
X5382Y-12057D01*
X5229Y-11903D01*
X5140Y-11866D01*
X5228Y-11830D01*
X5327Y-11731D01*
X5538Y-11731D01*
X5559Y-11781D01*
X5628Y-11851D01*
X5719Y-11888D01*
X5817Y-11888D01*
X5993Y-11888D01*
X5993Y-13446D01*
X6018Y-13571D01*
X6088Y-13677D01*
X6421Y-14009D01*
X6421Y-14009D01*
X6526Y-14080D01*
X6526Y-14080D01*
X6547Y-14084D01*
X6651Y-14105D01*
X6678Y-14105D01*
X6803Y-14080D01*
X6809Y-14076D01*
X7007Y-14076D01*
X7007Y-14076D01*
X7007Y-14076D01*
X7121Y-14053D01*
X7205Y-13997D01*
X7224Y-13997D01*
X7224Y-13997D01*
X7224Y-13997D01*
X7338Y-13975D01*
X7434Y-13910D01*
X7534Y-13810D01*
X7559Y-13810D01*
X7617Y-13810D01*
X7616Y-13950D01*
X7640Y-14007D01*
X7547Y-14026D01*
X7509Y-14052D01*
X7451Y-14090D01*
X7451Y-14090D01*
X6947Y-14594D01*
X6471Y-14594D01*
X6380Y-14632D01*
X6311Y-14701D01*
X6273Y-14792D01*
X6273Y-14890D01*
X6273Y-15490D01*
X6310Y-15581D01*
X6380Y-15650D01*
X6470Y-15688D01*
X6524Y-15688D01*
X6504Y-15755D01*
X6820Y-16071D01*
X7135Y-15755D01*
X7116Y-15688D01*
X7169Y-15688D01*
X7259Y-15651D01*
X7329Y-15581D01*
X7366Y-15491D01*
X7367Y-15392D01*
X7367Y-15014D01*
X7784Y-14597D01*
X8385Y-14597D01*
X8365Y-14694D01*
X8388Y-14807D01*
X8448Y-14897D01*
X8442Y-14926D01*
X8442Y-14926D01*
X8442Y-15138D01*
X8415Y-15138D01*
X8324Y-15175D01*
X8255Y-15245D01*
X8217Y-15335D01*
X8217Y-15433D01*
X8217Y-15783D01*
X8255Y-15874D01*
X8313Y-15932D01*
X8252Y-15993D01*
X8214Y-16085D01*
X8214Y-16197D01*
X8276Y-16260D01*
X8689Y-16260D01*
X8689Y-16252D01*
X8789Y-16252D01*
X8789Y-16260D01*
X8797Y-16260D01*
X8797Y-16360D01*
G54D10*
G36*
X9913Y-5375D02*
X9881Y-5407D01*
X9817Y-5562D01*
X9816Y-5730D01*
X9833Y-5771D01*
X9766Y-5816D01*
X9572Y-6009D01*
X9502Y-6115D01*
X9479Y-6228D01*
X9478Y-6230D01*
X9478Y-6237D01*
X9477Y-6240D01*
X9478Y-6243D01*
X9478Y-6642D01*
X9486Y-6642D01*
X9486Y-6742D01*
X9478Y-6742D01*
X9478Y-6750D01*
X9378Y-6750D01*
X9378Y-6742D01*
X9378Y-6642D01*
X9378Y-6230D01*
X9315Y-6167D01*
X9203Y-6167D01*
X9111Y-6205D01*
X9041Y-6276D01*
X9003Y-6367D01*
X9003Y-6467D01*
X9003Y-6580D01*
X9065Y-6642D01*
X9378Y-6642D01*
X9378Y-6742D01*
X9065Y-6742D01*
X9003Y-6805D01*
X9003Y-6918D01*
X9003Y-7017D01*
X9041Y-7109D01*
X9111Y-7179D01*
X9203Y-7217D01*
X9232Y-7217D01*
X9197Y-7302D01*
X9196Y-7470D01*
X9261Y-7625D01*
X9379Y-7744D01*
X9398Y-7752D01*
X9398Y-9429D01*
X9423Y-9553D01*
X9465Y-9616D01*
X9444Y-9607D01*
X9350Y-9607D01*
X9276Y-9558D01*
X9260Y-9555D01*
X9260Y-9508D01*
X9223Y-9418D01*
X9153Y-9348D01*
X9063Y-9310D01*
X8964Y-9310D01*
X8932Y-9310D01*
X8940Y-9291D01*
X8940Y-9123D01*
X8884Y-8987D01*
X8884Y-8646D01*
X8884Y-6026D01*
X8884Y-5786D01*
X8884Y-5566D01*
X8859Y-5442D01*
X8789Y-5336D01*
X8683Y-5266D01*
X8676Y-5264D01*
X8516Y-5104D01*
X8420Y-5040D01*
X8306Y-5017D01*
X8306Y-5017D01*
X8138Y-5017D01*
X8158Y-4920D01*
X8135Y-4807D01*
X8071Y-4711D01*
X7975Y-4647D01*
X7862Y-4624D01*
X7608Y-4624D01*
X7608Y-4371D01*
X7586Y-4257D01*
X7521Y-4161D01*
X7425Y-4097D01*
X7312Y-4075D01*
X7214Y-4094D01*
X7123Y-4076D01*
X7593Y-3606D01*
X7614Y-3656D01*
X7683Y-3726D01*
X7774Y-3763D01*
X7872Y-3763D01*
X8213Y-3763D01*
X8197Y-3802D01*
X8196Y-3970D01*
X8261Y-4125D01*
X8379Y-4244D01*
X8534Y-4308D01*
X8702Y-4308D01*
X8857Y-4244D01*
X8976Y-4126D01*
X9040Y-3971D01*
X9040Y-3803D01*
X9024Y-3763D01*
X9422Y-3763D01*
X9438Y-3757D01*
X9438Y-3937D01*
X9462Y-4061D01*
X9533Y-4167D01*
X9769Y-4403D01*
X9785Y-4413D01*
X9913Y-4541D01*
X9913Y-5375D01*
X9913Y-5375D01*
G37*
G54D44*
X9913Y-5375D02*
X9881Y-5407D01*
X9817Y-5562D01*
X9816Y-5730D01*
X9833Y-5771D01*
X9766Y-5816D01*
X9572Y-6009D01*
X9502Y-6115D01*
X9479Y-6228D01*
X9478Y-6230D01*
X9478Y-6237D01*
X9477Y-6240D01*
X9478Y-6243D01*
X9478Y-6642D01*
X9486Y-6642D01*
X9486Y-6742D01*
X9478Y-6742D01*
X9478Y-6750D01*
X9378Y-6750D01*
X9378Y-6742D01*
X9378Y-6642D01*
X9378Y-6230D01*
X9315Y-6167D01*
X9203Y-6167D01*
X9111Y-6205D01*
X9041Y-6276D01*
X9003Y-6367D01*
X9003Y-6467D01*
X9003Y-6580D01*
X9065Y-6642D01*
X9378Y-6642D01*
X9378Y-6742D01*
X9065Y-6742D01*
X9003Y-6805D01*
X9003Y-6918D01*
X9003Y-7017D01*
X9041Y-7109D01*
X9111Y-7179D01*
X9203Y-7217D01*
X9232Y-7217D01*
X9197Y-7302D01*
X9196Y-7470D01*
X9261Y-7625D01*
X9379Y-7744D01*
X9398Y-7752D01*
X9398Y-9429D01*
X9423Y-9553D01*
X9465Y-9616D01*
X9444Y-9607D01*
X9350Y-9607D01*
X9276Y-9558D01*
X9260Y-9555D01*
X9260Y-9508D01*
X9223Y-9418D01*
X9153Y-9348D01*
X9063Y-9310D01*
X8964Y-9310D01*
X8932Y-9310D01*
X8940Y-9291D01*
X8940Y-9123D01*
X8884Y-8987D01*
X8884Y-8646D01*
X8884Y-6026D01*
X8884Y-5786D01*
X8884Y-5566D01*
X8859Y-5442D01*
X8789Y-5336D01*
X8683Y-5266D01*
X8676Y-5264D01*
X8516Y-5104D01*
X8420Y-5040D01*
X8306Y-5017D01*
X8306Y-5017D01*
X8138Y-5017D01*
X8158Y-4920D01*
X8135Y-4807D01*
X8071Y-4711D01*
X7975Y-4647D01*
X7862Y-4624D01*
X7608Y-4624D01*
X7608Y-4371D01*
X7586Y-4257D01*
X7521Y-4161D01*
X7425Y-4097D01*
X7312Y-4075D01*
X7214Y-4094D01*
X7123Y-4076D01*
X7593Y-3606D01*
X7614Y-3656D01*
X7683Y-3726D01*
X7774Y-3763D01*
X7872Y-3763D01*
X8213Y-3763D01*
X8197Y-3802D01*
X8196Y-3970D01*
X8261Y-4125D01*
X8379Y-4244D01*
X8534Y-4308D01*
X8702Y-4308D01*
X8857Y-4244D01*
X8976Y-4126D01*
X9040Y-3971D01*
X9040Y-3803D01*
X9024Y-3763D01*
X9422Y-3763D01*
X9438Y-3757D01*
X9438Y-3937D01*
X9462Y-4061D01*
X9533Y-4167D01*
X9769Y-4403D01*
X9785Y-4413D01*
X9913Y-4541D01*
X9913Y-5375D01*
G54D10*
G36*
X13546Y-11445D02*
X13347Y-11445D01*
X13234Y-11468D01*
X13138Y-11532D01*
X13074Y-11628D01*
X13051Y-11741D01*
X13071Y-11840D01*
X13051Y-11938D01*
X13071Y-12037D01*
X13067Y-12056D01*
X12843Y-12056D01*
X12843Y-12943D01*
X13056Y-12943D01*
X13071Y-13021D01*
X13051Y-13119D01*
X13071Y-13218D01*
X13051Y-13316D01*
X13071Y-13415D01*
X13051Y-13513D01*
X13071Y-13612D01*
X13051Y-13710D01*
X13071Y-13808D01*
X13051Y-13906D01*
X13071Y-14005D01*
X13051Y-14103D01*
X13071Y-14202D01*
X13051Y-14300D01*
X13071Y-14399D01*
X13051Y-14497D01*
X13068Y-14581D01*
X13062Y-14596D01*
X13062Y-14694D01*
X13062Y-14792D01*
X13100Y-14883D01*
X13169Y-14952D01*
X13260Y-14990D01*
X13303Y-14990D01*
X13303Y-15167D01*
X13286Y-15175D01*
X13216Y-15244D01*
X13178Y-15335D01*
X13178Y-15362D01*
X13067Y-15362D01*
X13067Y-15267D01*
X13044Y-15154D01*
X12980Y-15058D01*
X12884Y-14994D01*
X12771Y-14971D01*
X12660Y-14994D01*
X12645Y-14988D01*
X12616Y-15022D01*
X12575Y-15050D01*
X12531Y-15020D01*
X12503Y-14988D01*
X12489Y-14993D01*
X12378Y-14971D01*
X12280Y-14991D01*
X12181Y-14971D01*
X12083Y-14991D01*
X11984Y-14971D01*
X11886Y-14991D01*
X11787Y-14971D01*
X11690Y-14991D01*
X11593Y-14971D01*
X11495Y-14991D01*
X11396Y-14971D01*
X11298Y-14991D01*
X11199Y-14971D01*
X11101Y-14991D01*
X11002Y-14971D01*
X10904Y-14991D01*
X10805Y-14971D01*
X10707Y-14991D01*
X10609Y-14971D01*
X10511Y-14991D01*
X10412Y-14971D01*
X10299Y-14994D01*
X10297Y-14995D01*
X10215Y-14978D01*
X10133Y-14995D01*
X10131Y-14994D01*
X10018Y-14971D01*
X9920Y-14991D01*
X9821Y-14971D01*
X9708Y-14994D01*
X9612Y-15058D01*
X9548Y-15154D01*
X9525Y-15267D01*
X9525Y-15524D01*
X9524Y-15529D01*
X9414Y-15483D01*
X9328Y-15483D01*
X9261Y-15416D01*
X9261Y-15336D01*
X9223Y-15245D01*
X9154Y-15175D01*
X9063Y-15138D01*
X9036Y-15138D01*
X9036Y-15049D01*
X9095Y-14990D01*
X9185Y-14990D01*
X9298Y-14967D01*
X9394Y-14903D01*
X9458Y-14807D01*
X9481Y-14694D01*
X9458Y-14583D01*
X9464Y-14568D01*
X9430Y-14539D01*
X9402Y-14497D01*
X9430Y-14455D01*
X9464Y-14426D01*
X9458Y-14411D01*
X9481Y-14300D01*
X9461Y-14202D01*
X9481Y-14103D01*
X9461Y-14005D01*
X9481Y-13906D01*
X9461Y-13808D01*
X9481Y-13710D01*
X9461Y-13612D01*
X9481Y-13513D01*
X9461Y-13415D01*
X9481Y-13316D01*
X9461Y-13218D01*
X9481Y-13119D01*
X9461Y-13021D01*
X9481Y-12922D01*
X9461Y-12824D01*
X9481Y-12725D01*
X9461Y-12627D01*
X9481Y-12529D01*
X9461Y-12431D01*
X9481Y-12332D01*
X9461Y-12234D01*
X9481Y-12135D01*
X9461Y-12037D01*
X9481Y-11938D01*
X9461Y-11840D01*
X9481Y-11741D01*
X9458Y-11628D01*
X9394Y-11532D01*
X9298Y-11468D01*
X9185Y-11445D01*
X8928Y-11445D01*
X8923Y-11444D01*
X8616Y-11444D01*
X8315Y-11144D01*
X8405Y-11107D01*
X8466Y-11046D01*
X8523Y-11104D01*
X8614Y-11141D01*
X8712Y-11141D01*
X9062Y-11141D01*
X9153Y-11104D01*
X9205Y-11052D01*
X9205Y-11053D01*
X9205Y-11053D01*
X9263Y-11091D01*
X9301Y-11117D01*
X9301Y-11117D01*
X9415Y-11140D01*
X9415Y-11140D01*
X9415Y-11140D01*
X9532Y-11140D01*
X9548Y-11218D01*
X9612Y-11314D01*
X9708Y-11378D01*
X9821Y-11401D01*
X9932Y-11378D01*
X9947Y-11384D01*
X9976Y-11350D01*
X10018Y-11322D01*
X10060Y-11350D01*
X10089Y-11384D01*
X10104Y-11378D01*
X10215Y-11401D01*
X10314Y-11381D01*
X10412Y-11401D01*
X10511Y-11381D01*
X10609Y-11401D01*
X10707Y-11381D01*
X10805Y-11401D01*
X10904Y-11381D01*
X11002Y-11401D01*
X11101Y-11381D01*
X11199Y-11401D01*
X11298Y-11381D01*
X11396Y-11401D01*
X11495Y-11381D01*
X11593Y-11401D01*
X11692Y-11381D01*
X11790Y-11401D01*
X11888Y-11381D01*
X11986Y-11401D01*
X12085Y-11381D01*
X12183Y-11401D01*
X12282Y-11381D01*
X12380Y-11401D01*
X12491Y-11378D01*
X12506Y-11384D01*
X12535Y-11350D01*
X12577Y-11322D01*
X12619Y-11350D01*
X12648Y-11384D01*
X12663Y-11378D01*
X12774Y-11401D01*
X12887Y-11378D01*
X12983Y-11314D01*
X13047Y-11218D01*
X13070Y-11105D01*
X13070Y-11009D01*
X13126Y-11066D01*
X13281Y-11130D01*
X13449Y-11130D01*
X13475Y-11119D01*
X13475Y-11284D01*
X13539Y-11439D01*
X13546Y-11445D01*
X13546Y-11445D01*
G37*
G54D44*
X13546Y-11445D02*
X13347Y-11445D01*
X13234Y-11468D01*
X13138Y-11532D01*
X13074Y-11628D01*
X13051Y-11741D01*
X13071Y-11840D01*
X13051Y-11938D01*
X13071Y-12037D01*
X13067Y-12056D01*
X12843Y-12056D01*
X12843Y-12943D01*
X13056Y-12943D01*
X13071Y-13021D01*
X13051Y-13119D01*
X13071Y-13218D01*
X13051Y-13316D01*
X13071Y-13415D01*
X13051Y-13513D01*
X13071Y-13612D01*
X13051Y-13710D01*
X13071Y-13808D01*
X13051Y-13906D01*
X13071Y-14005D01*
X13051Y-14103D01*
X13071Y-14202D01*
X13051Y-14300D01*
X13071Y-14399D01*
X13051Y-14497D01*
X13068Y-14581D01*
X13062Y-14596D01*
X13062Y-14694D01*
X13062Y-14792D01*
X13100Y-14883D01*
X13169Y-14952D01*
X13260Y-14990D01*
X13303Y-14990D01*
X13303Y-15167D01*
X13286Y-15175D01*
X13216Y-15244D01*
X13178Y-15335D01*
X13178Y-15362D01*
X13067Y-15362D01*
X13067Y-15267D01*
X13044Y-15154D01*
X12980Y-15058D01*
X12884Y-14994D01*
X12771Y-14971D01*
X12660Y-14994D01*
X12645Y-14988D01*
X12616Y-15022D01*
X12575Y-15050D01*
X12531Y-15020D01*
X12503Y-14988D01*
X12489Y-14993D01*
X12378Y-14971D01*
X12280Y-14991D01*
X12181Y-14971D01*
X12083Y-14991D01*
X11984Y-14971D01*
X11886Y-14991D01*
X11787Y-14971D01*
X11690Y-14991D01*
X11593Y-14971D01*
X11495Y-14991D01*
X11396Y-14971D01*
X11298Y-14991D01*
X11199Y-14971D01*
X11101Y-14991D01*
X11002Y-14971D01*
X10904Y-14991D01*
X10805Y-14971D01*
X10707Y-14991D01*
X10609Y-14971D01*
X10511Y-14991D01*
X10412Y-14971D01*
X10299Y-14994D01*
X10297Y-14995D01*
X10215Y-14978D01*
X10133Y-14995D01*
X10131Y-14994D01*
X10018Y-14971D01*
X9920Y-14991D01*
X9821Y-14971D01*
X9708Y-14994D01*
X9612Y-15058D01*
X9548Y-15154D01*
X9525Y-15267D01*
X9525Y-15524D01*
X9524Y-15529D01*
X9414Y-15483D01*
X9328Y-15483D01*
X9261Y-15416D01*
X9261Y-15336D01*
X9223Y-15245D01*
X9154Y-15175D01*
X9063Y-15138D01*
X9036Y-15138D01*
X9036Y-15049D01*
X9095Y-14990D01*
X9185Y-14990D01*
X9298Y-14967D01*
X9394Y-14903D01*
X9458Y-14807D01*
X9481Y-14694D01*
X9458Y-14583D01*
X9464Y-14568D01*
X9430Y-14539D01*
X9402Y-14497D01*
X9430Y-14455D01*
X9464Y-14426D01*
X9458Y-14411D01*
X9481Y-14300D01*
X9461Y-14202D01*
X9481Y-14103D01*
X9461Y-14005D01*
X9481Y-13906D01*
X9461Y-13808D01*
X9481Y-13710D01*
X9461Y-13612D01*
X9481Y-13513D01*
X9461Y-13415D01*
X9481Y-13316D01*
X9461Y-13218D01*
X9481Y-13119D01*
X9461Y-13021D01*
X9481Y-12922D01*
X9461Y-12824D01*
X9481Y-12725D01*
X9461Y-12627D01*
X9481Y-12529D01*
X9461Y-12431D01*
X9481Y-12332D01*
X9461Y-12234D01*
X9481Y-12135D01*
X9461Y-12037D01*
X9481Y-11938D01*
X9461Y-11840D01*
X9481Y-11741D01*
X9458Y-11628D01*
X9394Y-11532D01*
X9298Y-11468D01*
X9185Y-11445D01*
X8928Y-11445D01*
X8923Y-11444D01*
X8616Y-11444D01*
X8315Y-11144D01*
X8405Y-11107D01*
X8466Y-11046D01*
X8523Y-11104D01*
X8614Y-11141D01*
X8712Y-11141D01*
X9062Y-11141D01*
X9153Y-11104D01*
X9205Y-11052D01*
X9205Y-11053D01*
X9205Y-11053D01*
X9263Y-11091D01*
X9301Y-11117D01*
X9301Y-11117D01*
X9415Y-11140D01*
X9415Y-11140D01*
X9415Y-11140D01*
X9532Y-11140D01*
X9548Y-11218D01*
X9612Y-11314D01*
X9708Y-11378D01*
X9821Y-11401D01*
X9932Y-11378D01*
X9947Y-11384D01*
X9976Y-11350D01*
X10018Y-11322D01*
X10060Y-11350D01*
X10089Y-11384D01*
X10104Y-11378D01*
X10215Y-11401D01*
X10314Y-11381D01*
X10412Y-11401D01*
X10511Y-11381D01*
X10609Y-11401D01*
X10707Y-11381D01*
X10805Y-11401D01*
X10904Y-11381D01*
X11002Y-11401D01*
X11101Y-11381D01*
X11199Y-11401D01*
X11298Y-11381D01*
X11396Y-11401D01*
X11495Y-11381D01*
X11593Y-11401D01*
X11692Y-11381D01*
X11790Y-11401D01*
X11888Y-11381D01*
X11986Y-11401D01*
X12085Y-11381D01*
X12183Y-11401D01*
X12282Y-11381D01*
X12380Y-11401D01*
X12491Y-11378D01*
X12506Y-11384D01*
X12535Y-11350D01*
X12577Y-11322D01*
X12619Y-11350D01*
X12648Y-11384D01*
X12663Y-11378D01*
X12774Y-11401D01*
X12887Y-11378D01*
X12983Y-11314D01*
X13047Y-11218D01*
X13070Y-11105D01*
X13070Y-11009D01*
X13126Y-11066D01*
X13281Y-11130D01*
X13449Y-11130D01*
X13475Y-11119D01*
X13475Y-11284D01*
X13539Y-11439D01*
X13546Y-11445D01*
G54D10*
G36*
X13847Y-9818D02*
X13806Y-9859D01*
X13768Y-9950D01*
X13768Y-9961D01*
X13728Y-9922D01*
X13416Y-9922D01*
X13416Y-9929D01*
X13316Y-9929D01*
X13316Y-9922D01*
X13308Y-9922D01*
X13308Y-9822D01*
X13316Y-9822D01*
X13316Y-9814D01*
X13416Y-9814D01*
X13416Y-9822D01*
X13728Y-9822D01*
X13791Y-9759D01*
X13791Y-9646D01*
X13791Y-9547D01*
X13789Y-9542D01*
X13822Y-9528D01*
X13824Y-9526D01*
X13822Y-9532D01*
X13821Y-9700D01*
X13847Y-9762D01*
X13847Y-9818D01*
X13847Y-9818D01*
G37*
G54D44*
X13847Y-9818D02*
X13806Y-9859D01*
X13768Y-9950D01*
X13768Y-9961D01*
X13728Y-9922D01*
X13416Y-9922D01*
X13416Y-9929D01*
X13316Y-9929D01*
X13316Y-9922D01*
X13308Y-9922D01*
X13308Y-9822D01*
X13316Y-9822D01*
X13316Y-9814D01*
X13416Y-9814D01*
X13416Y-9822D01*
X13728Y-9822D01*
X13791Y-9759D01*
X13791Y-9646D01*
X13791Y-9547D01*
X13789Y-9542D01*
X13822Y-9528D01*
X13824Y-9526D01*
X13822Y-9532D01*
X13821Y-9700D01*
X13847Y-9762D01*
X13847Y-9818D01*
G54D10*
G36*
X14023Y-7680D02*
X14014Y-7694D01*
X13986Y-7833D01*
X13986Y-8448D01*
X13945Y-8489D01*
X13932Y-8520D01*
X13932Y-8204D01*
X13894Y-8113D01*
X13824Y-8042D01*
X13732Y-8004D01*
X13633Y-8004D01*
X13598Y-8004D01*
X13535Y-8066D01*
X13535Y-8361D01*
X13870Y-8361D01*
X13932Y-8299D01*
X13932Y-8204D01*
X13932Y-8520D01*
X13931Y-8523D01*
X13870Y-8461D01*
X13535Y-8461D01*
X13535Y-8469D01*
X13435Y-8469D01*
X13435Y-8461D01*
X13435Y-8361D01*
X13435Y-8066D01*
X13373Y-8004D01*
X13338Y-8004D01*
X13238Y-8004D01*
X13151Y-8040D01*
X13135Y-8025D01*
X13043Y-7986D01*
X12944Y-7986D01*
X12831Y-7986D01*
X12768Y-8049D01*
X12768Y-8361D01*
X13101Y-8361D01*
X13181Y-8361D01*
X13435Y-8361D01*
X13435Y-8461D01*
X13181Y-8461D01*
X13101Y-8461D01*
X12768Y-8461D01*
X12768Y-8469D01*
X12668Y-8469D01*
X12668Y-8461D01*
X12256Y-8461D01*
X12193Y-8524D01*
X12193Y-8636D01*
X12231Y-8728D01*
X12280Y-8777D01*
X12203Y-8745D01*
X12068Y-8745D01*
X12068Y-8508D01*
X12235Y-8341D01*
X12256Y-8361D01*
X12668Y-8361D01*
X12668Y-8049D01*
X12651Y-8032D01*
X12665Y-7997D01*
X12666Y-7829D01*
X12622Y-7725D01*
X12681Y-7725D01*
X12837Y-7660D01*
X12955Y-7542D01*
X13020Y-7387D01*
X13020Y-7219D01*
X12956Y-7064D01*
X12837Y-6945D01*
X12682Y-6881D01*
X12514Y-6881D01*
X12359Y-6945D01*
X12298Y-7006D01*
X11830Y-7006D01*
X11830Y-7006D01*
X11808Y-7010D01*
X11742Y-7023D01*
X11826Y-6939D01*
X11833Y-6938D01*
X11939Y-6867D01*
X12010Y-6761D01*
X12034Y-6637D01*
X12034Y-4571D01*
X12123Y-4482D01*
X12156Y-4562D01*
X12302Y-4709D01*
X12408Y-4752D01*
X12283Y-4804D01*
X12136Y-4950D01*
X12057Y-5142D01*
X12056Y-5350D01*
X12136Y-5542D01*
X12282Y-5689D01*
X12474Y-5768D01*
X12682Y-5768D01*
X12874Y-5689D01*
X13021Y-5542D01*
X13100Y-5351D01*
X13100Y-5143D01*
X13021Y-4951D01*
X12874Y-4804D01*
X12769Y-4761D01*
X12894Y-4709D01*
X13041Y-4562D01*
X13049Y-4543D01*
X13076Y-4524D01*
X13202Y-4399D01*
X13202Y-4445D01*
X13202Y-5145D01*
X13239Y-5236D01*
X13308Y-5306D01*
X13399Y-5343D01*
X13449Y-5343D01*
X13461Y-5406D01*
X13540Y-5524D01*
X14023Y-6008D01*
X14023Y-6190D01*
X13892Y-6142D01*
X13654Y-6152D01*
X13480Y-6224D01*
X13447Y-6324D01*
X13798Y-6676D01*
X13804Y-6670D01*
X13875Y-6741D01*
X13869Y-6746D01*
X13875Y-6752D01*
X13804Y-6823D01*
X13798Y-6817D01*
X13728Y-6888D01*
X13728Y-6746D01*
X13376Y-6395D01*
X13276Y-6429D01*
X13194Y-6653D01*
X13204Y-6891D01*
X13276Y-7064D01*
X13376Y-7098D01*
X13728Y-6746D01*
X13728Y-6888D01*
X13447Y-7169D01*
X13480Y-7269D01*
X13705Y-7351D01*
X13943Y-7341D01*
X14023Y-7308D01*
X14023Y-7680D01*
X14023Y-7680D01*
G37*
G54D44*
X14023Y-7680D02*
X14014Y-7694D01*
X13986Y-7833D01*
X13986Y-8448D01*
X13945Y-8489D01*
X13932Y-8520D01*
X13932Y-8204D01*
X13894Y-8113D01*
X13824Y-8042D01*
X13732Y-8004D01*
X13633Y-8004D01*
X13598Y-8004D01*
X13535Y-8066D01*
X13535Y-8361D01*
X13870Y-8361D01*
X13932Y-8299D01*
X13932Y-8204D01*
X13932Y-8520D01*
X13931Y-8523D01*
X13870Y-8461D01*
X13535Y-8461D01*
X13535Y-8469D01*
X13435Y-8469D01*
X13435Y-8461D01*
X13435Y-8361D01*
X13435Y-8066D01*
X13373Y-8004D01*
X13338Y-8004D01*
X13238Y-8004D01*
X13151Y-8040D01*
X13135Y-8025D01*
X13043Y-7986D01*
X12944Y-7986D01*
X12831Y-7986D01*
X12768Y-8049D01*
X12768Y-8361D01*
X13101Y-8361D01*
X13181Y-8361D01*
X13435Y-8361D01*
X13435Y-8461D01*
X13181Y-8461D01*
X13101Y-8461D01*
X12768Y-8461D01*
X12768Y-8469D01*
X12668Y-8469D01*
X12668Y-8461D01*
X12256Y-8461D01*
X12193Y-8524D01*
X12193Y-8636D01*
X12231Y-8728D01*
X12280Y-8777D01*
X12203Y-8745D01*
X12068Y-8745D01*
X12068Y-8508D01*
X12235Y-8341D01*
X12256Y-8361D01*
X12668Y-8361D01*
X12668Y-8049D01*
X12651Y-8032D01*
X12665Y-7997D01*
X12666Y-7829D01*
X12622Y-7725D01*
X12681Y-7725D01*
X12837Y-7660D01*
X12955Y-7542D01*
X13020Y-7387D01*
X13020Y-7219D01*
X12956Y-7064D01*
X12837Y-6945D01*
X12682Y-6881D01*
X12514Y-6881D01*
X12359Y-6945D01*
X12298Y-7006D01*
X11830Y-7006D01*
X11830Y-7006D01*
X11808Y-7010D01*
X11742Y-7023D01*
X11826Y-6939D01*
X11833Y-6938D01*
X11939Y-6867D01*
X12010Y-6761D01*
X12034Y-6637D01*
X12034Y-4571D01*
X12123Y-4482D01*
X12156Y-4562D01*
X12302Y-4709D01*
X12408Y-4752D01*
X12283Y-4804D01*
X12136Y-4950D01*
X12057Y-5142D01*
X12056Y-5350D01*
X12136Y-5542D01*
X12282Y-5689D01*
X12474Y-5768D01*
X12682Y-5768D01*
X12874Y-5689D01*
X13021Y-5542D01*
X13100Y-5351D01*
X13100Y-5143D01*
X13021Y-4951D01*
X12874Y-4804D01*
X12769Y-4761D01*
X12894Y-4709D01*
X13041Y-4562D01*
X13049Y-4543D01*
X13076Y-4524D01*
X13202Y-4399D01*
X13202Y-4445D01*
X13202Y-5145D01*
X13239Y-5236D01*
X13308Y-5306D01*
X13399Y-5343D01*
X13449Y-5343D01*
X13461Y-5406D01*
X13540Y-5524D01*
X14023Y-6008D01*
X14023Y-6190D01*
X13892Y-6142D01*
X13654Y-6152D01*
X13480Y-6224D01*
X13447Y-6324D01*
X13798Y-6676D01*
X13804Y-6670D01*
X13875Y-6741D01*
X13869Y-6746D01*
X13875Y-6752D01*
X13804Y-6823D01*
X13798Y-6817D01*
X13728Y-6888D01*
X13728Y-6746D01*
X13376Y-6395D01*
X13276Y-6429D01*
X13194Y-6653D01*
X13204Y-6891D01*
X13276Y-7064D01*
X13376Y-7098D01*
X13728Y-6746D01*
X13728Y-6888D01*
X13447Y-7169D01*
X13480Y-7269D01*
X13705Y-7351D01*
X13943Y-7341D01*
X14023Y-7308D01*
X14023Y-7680D01*
G54D10*
G36*
X16336Y-266D02*
X16306Y-278D01*
X16011Y-573D01*
X15916Y-801D01*
X15838Y-801D01*
X15699Y-829D01*
X15580Y-908D01*
X14980Y-1508D01*
X14901Y-1627D01*
X14873Y-1766D01*
X14873Y-2775D01*
X14661Y-2988D01*
X14608Y-2860D01*
X14446Y-2698D01*
X14419Y-2687D01*
X14445Y-2676D01*
X14607Y-2514D01*
X14695Y-2302D01*
X14695Y-2072D01*
X14608Y-1860D01*
X14446Y-1698D01*
X14444Y-1697D01*
X14444Y-1683D01*
X14533Y-1646D01*
X14603Y-1576D01*
X14640Y-1486D01*
X14640Y-1388D01*
X14640Y-1038D01*
X14603Y-947D01*
X14545Y-889D01*
X14605Y-828D01*
X14643Y-736D01*
X14643Y-624D01*
X14581Y-561D01*
X14168Y-561D01*
X14168Y-569D01*
X14068Y-569D01*
X14068Y-561D01*
X13656Y-561D01*
X13593Y-624D01*
X13593Y-736D01*
X13631Y-828D01*
X13692Y-889D01*
X13634Y-946D01*
X13597Y-1037D01*
X13597Y-1135D01*
X13597Y-1485D01*
X13634Y-1576D01*
X13703Y-1646D01*
X13793Y-1683D01*
X13793Y-1697D01*
X13792Y-1697D01*
X13630Y-1859D01*
X13542Y-2071D01*
X13541Y-2301D01*
X13629Y-2513D01*
X13791Y-2675D01*
X13818Y-2686D01*
X13792Y-2697D01*
X13630Y-2859D01*
X13629Y-2861D01*
X13218Y-2861D01*
X13094Y-2886D01*
X12988Y-2956D01*
X12903Y-3042D01*
X12828Y-2860D01*
X12666Y-2698D01*
X12639Y-2687D01*
X12665Y-2676D01*
X12827Y-2514D01*
X12915Y-2302D01*
X12915Y-2072D01*
X12828Y-1860D01*
X12666Y-1698D01*
X12664Y-1697D01*
X12664Y-1683D01*
X12753Y-1646D01*
X12823Y-1576D01*
X12860Y-1486D01*
X12860Y-1388D01*
X12860Y-1038D01*
X12823Y-947D01*
X12765Y-889D01*
X12825Y-828D01*
X12863Y-736D01*
X12863Y-624D01*
X12801Y-561D01*
X12388Y-561D01*
X12388Y-569D01*
X12288Y-569D01*
X12288Y-561D01*
X11876Y-561D01*
X11813Y-624D01*
X11813Y-736D01*
X11851Y-828D01*
X11912Y-889D01*
X11854Y-946D01*
X11817Y-1037D01*
X11817Y-1135D01*
X11817Y-1485D01*
X11854Y-1576D01*
X11923Y-1646D01*
X12013Y-1683D01*
X12013Y-1697D01*
X12012Y-1697D01*
X11850Y-1859D01*
X11762Y-2071D01*
X11761Y-2301D01*
X11849Y-2513D01*
X12011Y-2675D01*
X12038Y-2686D01*
X12012Y-2697D01*
X11850Y-2859D01*
X11762Y-3071D01*
X11761Y-3301D01*
X11780Y-3345D01*
X11368Y-3756D01*
X11368Y-3562D01*
X11368Y-3562D01*
X11344Y-3438D01*
X11344Y-3438D01*
X11320Y-3403D01*
X11273Y-3332D01*
X11273Y-3332D01*
X11155Y-3214D01*
X11155Y-3072D01*
X11068Y-2860D01*
X10906Y-2698D01*
X10879Y-2687D01*
X10905Y-2676D01*
X11067Y-2514D01*
X11155Y-2302D01*
X11155Y-2072D01*
X11068Y-1860D01*
X10906Y-1698D01*
X10904Y-1697D01*
X10904Y-1683D01*
X10993Y-1646D01*
X11063Y-1576D01*
X11100Y-1486D01*
X11100Y-1388D01*
X11100Y-1038D01*
X11063Y-947D01*
X11005Y-889D01*
X11065Y-828D01*
X11103Y-736D01*
X11103Y-624D01*
X11041Y-561D01*
X10628Y-561D01*
X10628Y-569D01*
X10528Y-569D01*
X10528Y-561D01*
X10116Y-561D01*
X10053Y-624D01*
X10053Y-736D01*
X10091Y-828D01*
X10152Y-889D01*
X10094Y-946D01*
X10057Y-1037D01*
X10057Y-1135D01*
X10057Y-1485D01*
X10094Y-1576D01*
X10163Y-1646D01*
X10253Y-1683D01*
X10253Y-1697D01*
X10252Y-1697D01*
X10090Y-1859D01*
X10002Y-2071D01*
X10001Y-2301D01*
X10089Y-2513D01*
X10251Y-2675D01*
X10278Y-2686D01*
X10252Y-2697D01*
X10171Y-2778D01*
X9754Y-2361D01*
X9648Y-2291D01*
X9583Y-2278D01*
X9583Y-2277D01*
X9513Y-2207D01*
X9424Y-2170D01*
X9424Y-2114D01*
X9562Y-1977D01*
X9645Y-1776D01*
X9645Y-1558D01*
X9562Y-1357D01*
X9422Y-1216D01*
X9448Y-1216D01*
X9540Y-1178D01*
X9610Y-1108D01*
X9648Y-1016D01*
X9648Y-779D01*
X9586Y-716D01*
X9148Y-716D01*
X9148Y-724D01*
X9048Y-724D01*
X9048Y-716D01*
X8611Y-716D01*
X8598Y-729D01*
X8586Y-716D01*
X8148Y-716D01*
X8148Y-724D01*
X8048Y-724D01*
X8048Y-716D01*
X7611Y-716D01*
X7548Y-779D01*
X7548Y-1016D01*
X7586Y-1108D01*
X7657Y-1178D01*
X7748Y-1216D01*
X7775Y-1216D01*
X7635Y-1356D01*
X7552Y-1557D01*
X7551Y-1775D01*
X7635Y-1976D01*
X7773Y-2114D01*
X7773Y-2170D01*
X7702Y-2199D01*
X7653Y-2127D01*
X7653Y-2127D01*
X7452Y-1925D01*
X7504Y-1874D01*
X7542Y-1782D01*
X7542Y-1682D01*
X7542Y-1033D01*
X7542Y-934D01*
X7504Y-842D01*
X7434Y-772D01*
X7342Y-734D01*
X7031Y-734D01*
X6968Y-796D01*
X6968Y-1308D01*
X7480Y-1308D01*
X7542Y-1245D01*
X7542Y-1033D01*
X7542Y-1682D01*
X7542Y-1470D01*
X7480Y-1408D01*
X6968Y-1408D01*
X6968Y-1416D01*
X6868Y-1416D01*
X6868Y-1408D01*
X6868Y-1308D01*
X6868Y-796D01*
X6806Y-734D01*
X6495Y-734D01*
X6416Y-766D01*
X6338Y-734D01*
X6027Y-734D01*
X5964Y-796D01*
X5964Y-1308D01*
X6357Y-1308D01*
X6476Y-1308D01*
X6868Y-1308D01*
X6868Y-1408D01*
X6476Y-1408D01*
X6357Y-1408D01*
X5964Y-1408D01*
X5964Y-1416D01*
X5864Y-1416D01*
X5864Y-1408D01*
X5864Y-1308D01*
X5864Y-796D01*
X5802Y-734D01*
X5491Y-734D01*
X5442Y-754D01*
X5393Y-734D01*
X5082Y-734D01*
X5019Y-796D01*
X5019Y-1308D01*
X5353Y-1308D01*
X5531Y-1308D01*
X5864Y-1308D01*
X5864Y-1408D01*
X5531Y-1408D01*
X5353Y-1408D01*
X5019Y-1408D01*
X5019Y-1919D01*
X5082Y-1982D01*
X5378Y-1982D01*
X5232Y-2128D01*
X5167Y-2225D01*
X5164Y-2243D01*
X5066Y-2243D01*
X5058Y-2240D01*
X5032Y-2240D01*
X5008Y-2264D01*
X4967Y-2280D01*
X4919Y-2328D01*
X4919Y-1919D01*
X4919Y-1408D01*
X4919Y-1308D01*
X4919Y-796D01*
X4857Y-734D01*
X4546Y-734D01*
X4467Y-766D01*
X4389Y-734D01*
X4078Y-734D01*
X4015Y-796D01*
X4015Y-1308D01*
X4408Y-1308D01*
X4527Y-1308D01*
X4919Y-1308D01*
X4919Y-1408D01*
X4527Y-1408D01*
X4408Y-1408D01*
X4015Y-1408D01*
X4015Y-1919D01*
X4078Y-1982D01*
X4389Y-1982D01*
X4467Y-1949D01*
X4546Y-1982D01*
X4857Y-1982D01*
X4919Y-1919D01*
X4919Y-2328D01*
X4898Y-2350D01*
X4891Y-2367D01*
X4891Y-2302D01*
X4828Y-2240D01*
X4802Y-2240D01*
X4764Y-2255D01*
X4737Y-2228D01*
X4645Y-2190D01*
X4314Y-2190D01*
X4252Y-2253D01*
X4252Y-2705D01*
X4664Y-2705D01*
X4783Y-2705D01*
X4860Y-2705D01*
X4860Y-2805D01*
X4783Y-2805D01*
X4664Y-2805D01*
X4252Y-2805D01*
X4252Y-2813D01*
X4152Y-2813D01*
X4152Y-2805D01*
X4152Y-2705D01*
X4152Y-2253D01*
X4089Y-2190D01*
X3915Y-2190D01*
X3915Y-1919D01*
X3915Y-1408D01*
X3915Y-1308D01*
X3915Y-796D01*
X3853Y-734D01*
X3542Y-734D01*
X3450Y-772D01*
X3379Y-842D01*
X3341Y-934D01*
X3341Y-1033D01*
X3341Y-1245D01*
X3404Y-1308D01*
X3915Y-1308D01*
X3915Y-1408D01*
X3404Y-1408D01*
X3341Y-1470D01*
X3341Y-1682D01*
X3341Y-1782D01*
X3379Y-1874D01*
X3450Y-1944D01*
X3542Y-1982D01*
X3853Y-1982D01*
X3915Y-1919D01*
X3915Y-2190D01*
X3758Y-2190D01*
X3666Y-2228D01*
X3596Y-2299D01*
X3558Y-2390D01*
X3558Y-2490D01*
X3558Y-2643D01*
X3620Y-2705D01*
X4152Y-2705D01*
X4152Y-2805D01*
X3620Y-2805D01*
X3558Y-2868D01*
X3558Y-3021D01*
X3558Y-3120D01*
X3596Y-3212D01*
X3666Y-3282D01*
X3758Y-3320D01*
X3878Y-3320D01*
X3878Y-3341D01*
X3878Y-3454D01*
X3941Y-3516D01*
X4253Y-3516D01*
X4253Y-3509D01*
X4353Y-3509D01*
X4353Y-3516D01*
X4361Y-3516D01*
X4361Y-3616D01*
X4353Y-3616D01*
X4353Y-3624D01*
X4253Y-3624D01*
X4253Y-3616D01*
X3941Y-3616D01*
X3878Y-3679D01*
X3878Y-3792D01*
X3878Y-3861D01*
X3859Y-3861D01*
X3767Y-3899D01*
X3697Y-3970D01*
X3658Y-4061D01*
X3658Y-4161D01*
X3658Y-4274D01*
X3721Y-4336D01*
X4033Y-4336D01*
X4033Y-4329D01*
X4133Y-4329D01*
X4133Y-4336D01*
X4141Y-4336D01*
X4141Y-4436D01*
X4133Y-4436D01*
X4133Y-4444D01*
X4033Y-4444D01*
X4033Y-4436D01*
X3721Y-4436D01*
X3658Y-4499D01*
X3658Y-4612D01*
X3658Y-4654D01*
X3628Y-4641D01*
X3516Y-4641D01*
X3453Y-4704D01*
X3453Y-5116D01*
X3461Y-5116D01*
X3461Y-5216D01*
X3453Y-5216D01*
X3453Y-5629D01*
X3516Y-5691D01*
X3523Y-5691D01*
X3518Y-5701D01*
X3518Y-5801D01*
X3518Y-5914D01*
X3581Y-5976D01*
X3893Y-5976D01*
X3893Y-5969D01*
X3993Y-5969D01*
X3993Y-5976D01*
X4001Y-5976D01*
X4001Y-6076D01*
X3993Y-6076D01*
X3993Y-6084D01*
X3893Y-6084D01*
X3893Y-6076D01*
X3581Y-6076D01*
X3518Y-6139D01*
X3518Y-6252D01*
X3518Y-6351D01*
X3539Y-6401D01*
X3522Y-6442D01*
X3522Y-6540D01*
X3522Y-7090D01*
X3559Y-7181D01*
X3628Y-7251D01*
X3719Y-7288D01*
X3817Y-7288D01*
X4167Y-7288D01*
X4258Y-7251D01*
X4318Y-7191D01*
X4378Y-7251D01*
X4458Y-7284D01*
X4463Y-7292D01*
X4778Y-7607D01*
X4868Y-7697D01*
X4974Y-7767D01*
X5098Y-7792D01*
X5384Y-7792D01*
X5388Y-7797D01*
X5494Y-7867D01*
X5618Y-7892D01*
X5798Y-7892D01*
X6138Y-7892D01*
X6248Y-7892D01*
X6259Y-7903D01*
X6671Y-7903D01*
X6671Y-7895D01*
X6771Y-7895D01*
X6771Y-7903D01*
X6779Y-7903D01*
X6779Y-8003D01*
X6771Y-8003D01*
X6771Y-8011D01*
X6671Y-8011D01*
X6671Y-8003D01*
X6259Y-8003D01*
X6196Y-8066D01*
X6196Y-8131D01*
X6188Y-8136D01*
X6088Y-8236D01*
X6018Y-8342D01*
X6017Y-8345D01*
X5938Y-8345D01*
X5701Y-8108D01*
X5583Y-8029D01*
X5443Y-8001D01*
X5327Y-8001D01*
X5229Y-7903D01*
X5028Y-7820D01*
X4810Y-7819D01*
X4609Y-7903D01*
X4510Y-8001D01*
X4327Y-8001D01*
X4229Y-7903D01*
X4028Y-7820D01*
X3810Y-7819D01*
X3609Y-7903D01*
X3455Y-8056D01*
X3372Y-8257D01*
X3371Y-8475D01*
X3455Y-8676D01*
X3608Y-8830D01*
X3697Y-8866D01*
X3609Y-8903D01*
X3455Y-9056D01*
X3434Y-9106D01*
X3353Y-9025D01*
X3353Y-5629D01*
X3353Y-5216D01*
X3353Y-5116D01*
X3353Y-4704D01*
X3291Y-4641D01*
X3179Y-4641D01*
X3087Y-4679D01*
X3017Y-4750D01*
X2978Y-4841D01*
X2978Y-4941D01*
X2978Y-5054D01*
X3041Y-5116D01*
X3353Y-5116D01*
X3353Y-5216D01*
X3041Y-5216D01*
X2978Y-5279D01*
X2978Y-5392D01*
X2978Y-5491D01*
X3017Y-5583D01*
X3087Y-5653D01*
X3179Y-5691D01*
X3291Y-5691D01*
X3353Y-5629D01*
X3353Y-9025D01*
X3216Y-8888D01*
X3098Y-8809D01*
X2958Y-8781D01*
X2809Y-8781D01*
X2809Y-1819D01*
X2808Y-1328D01*
X2621Y-876D01*
X2455Y-765D01*
X1645Y-1574D01*
X2455Y-2384D01*
X2621Y-2273D01*
X2809Y-1819D01*
X2809Y-8781D01*
X2678Y-8781D01*
X2539Y-8809D01*
X2420Y-8888D01*
X2420Y-8888D01*
X2420Y-8888D01*
X2384Y-8925D01*
X2384Y-2455D01*
X1574Y-1645D01*
X765Y-2455D01*
X876Y-2621D01*
X1329Y-2809D01*
X1820Y-2808D01*
X2273Y-2621D01*
X2384Y-2455D01*
X2384Y-8925D01*
X1300Y-10008D01*
X1270Y-10054D01*
X1128Y-9995D01*
X960Y-9995D01*
X805Y-10059D01*
X686Y-10177D01*
X622Y-10332D01*
X621Y-10500D01*
X668Y-10612D01*
X668Y-14196D01*
X561Y-14302D01*
X497Y-14457D01*
X496Y-14625D01*
X561Y-14780D01*
X679Y-14899D01*
X834Y-14963D01*
X1002Y-14963D01*
X1157Y-14899D01*
X1193Y-14863D01*
X1193Y-15026D01*
X1221Y-15166D01*
X1300Y-15284D01*
X1633Y-15618D01*
X1633Y-21246D01*
X1661Y-21386D01*
X1740Y-21504D01*
X2478Y-22243D01*
X2478Y-22631D01*
X2455Y-22615D01*
X2384Y-22686D01*
X2384Y-22544D01*
X2273Y-22378D01*
X1819Y-22190D01*
X1328Y-22191D01*
X876Y-22378D01*
X765Y-22544D01*
X1574Y-23354D01*
X2384Y-22544D01*
X2384Y-22686D01*
X1645Y-23425D01*
X2455Y-24234D01*
X2550Y-24171D01*
X2550Y-24171D01*
X2585Y-24224D01*
X3291Y-24930D01*
X2384Y-24930D01*
X2384Y-24305D01*
X1574Y-23495D01*
X1504Y-23566D01*
X1504Y-23425D01*
X694Y-22615D01*
X528Y-22726D01*
X340Y-23180D01*
X340Y-23671D01*
X528Y-24123D01*
X694Y-24234D01*
X1504Y-23425D01*
X1504Y-23566D01*
X765Y-24305D01*
X876Y-24471D01*
X1329Y-24659D01*
X1820Y-24659D01*
X2273Y-24471D01*
X2384Y-24305D01*
X2384Y-24930D01*
X1291Y-24930D01*
X266Y-23905D01*
X266Y-1291D01*
X419Y-1138D01*
X340Y-1329D01*
X340Y-1820D01*
X528Y-2273D01*
X694Y-2384D01*
X1504Y-1574D01*
X1498Y-1569D01*
X1569Y-1498D01*
X1574Y-1504D01*
X2384Y-694D01*
X2273Y-528D01*
X1819Y-340D01*
X1328Y-340D01*
X1138Y-419D01*
X1291Y-266D01*
X7569Y-266D01*
X7548Y-317D01*
X7548Y-554D01*
X7611Y-616D01*
X8048Y-616D01*
X8048Y-609D01*
X8148Y-609D01*
X8148Y-616D01*
X8586Y-616D01*
X8598Y-604D01*
X8611Y-616D01*
X9048Y-616D01*
X9048Y-609D01*
X9148Y-609D01*
X9148Y-616D01*
X9586Y-616D01*
X9648Y-554D01*
X9648Y-317D01*
X9627Y-266D01*
X10062Y-266D01*
X10053Y-287D01*
X10053Y-399D01*
X10116Y-461D01*
X10528Y-461D01*
X10528Y-454D01*
X10628Y-454D01*
X10628Y-461D01*
X11041Y-461D01*
X11103Y-399D01*
X11103Y-287D01*
X11095Y-266D01*
X11822Y-266D01*
X11813Y-287D01*
X11813Y-399D01*
X11876Y-461D01*
X12288Y-461D01*
X12288Y-454D01*
X12388Y-454D01*
X12388Y-461D01*
X12801Y-461D01*
X12863Y-399D01*
X12863Y-287D01*
X12855Y-266D01*
X13602Y-266D01*
X13593Y-287D01*
X13593Y-399D01*
X13656Y-461D01*
X14068Y-461D01*
X14068Y-454D01*
X14168Y-454D01*
X14168Y-461D01*
X14581Y-461D01*
X14643Y-399D01*
X14643Y-287D01*
X14635Y-266D01*
X16336Y-266D01*
X16336Y-266D01*
G37*
G54D44*
X16336Y-266D02*
X16306Y-278D01*
X16011Y-573D01*
X15916Y-801D01*
X15838Y-801D01*
X15699Y-829D01*
X15580Y-908D01*
X14980Y-1508D01*
X14901Y-1627D01*
X14873Y-1766D01*
X14873Y-2775D01*
X14661Y-2988D01*
X14608Y-2860D01*
X14446Y-2698D01*
X14419Y-2687D01*
X14445Y-2676D01*
X14607Y-2514D01*
X14695Y-2302D01*
X14695Y-2072D01*
X14608Y-1860D01*
X14446Y-1698D01*
X14444Y-1697D01*
X14444Y-1683D01*
X14533Y-1646D01*
X14603Y-1576D01*
X14640Y-1486D01*
X14640Y-1388D01*
X14640Y-1038D01*
X14603Y-947D01*
X14545Y-889D01*
X14605Y-828D01*
X14643Y-736D01*
X14643Y-624D01*
X14581Y-561D01*
X14168Y-561D01*
X14168Y-569D01*
X14068Y-569D01*
X14068Y-561D01*
X13656Y-561D01*
X13593Y-624D01*
X13593Y-736D01*
X13631Y-828D01*
X13692Y-889D01*
X13634Y-946D01*
X13597Y-1037D01*
X13597Y-1135D01*
X13597Y-1485D01*
X13634Y-1576D01*
X13703Y-1646D01*
X13793Y-1683D01*
X13793Y-1697D01*
X13792Y-1697D01*
X13630Y-1859D01*
X13542Y-2071D01*
X13541Y-2301D01*
X13629Y-2513D01*
X13791Y-2675D01*
X13818Y-2686D01*
X13792Y-2697D01*
X13630Y-2859D01*
X13629Y-2861D01*
X13218Y-2861D01*
X13094Y-2886D01*
X12988Y-2956D01*
X12903Y-3042D01*
X12828Y-2860D01*
X12666Y-2698D01*
X12639Y-2687D01*
X12665Y-2676D01*
X12827Y-2514D01*
X12915Y-2302D01*
X12915Y-2072D01*
X12828Y-1860D01*
X12666Y-1698D01*
X12664Y-1697D01*
X12664Y-1683D01*
X12753Y-1646D01*
X12823Y-1576D01*
X12860Y-1486D01*
X12860Y-1388D01*
X12860Y-1038D01*
X12823Y-947D01*
X12765Y-889D01*
X12825Y-828D01*
X12863Y-736D01*
X12863Y-624D01*
X12801Y-561D01*
X12388Y-561D01*
X12388Y-569D01*
X12288Y-569D01*
X12288Y-561D01*
X11876Y-561D01*
X11813Y-624D01*
X11813Y-736D01*
X11851Y-828D01*
X11912Y-889D01*
X11854Y-946D01*
X11817Y-1037D01*
X11817Y-1135D01*
X11817Y-1485D01*
X11854Y-1576D01*
X11923Y-1646D01*
X12013Y-1683D01*
X12013Y-1697D01*
X12012Y-1697D01*
X11850Y-1859D01*
X11762Y-2071D01*
X11761Y-2301D01*
X11849Y-2513D01*
X12011Y-2675D01*
X12038Y-2686D01*
X12012Y-2697D01*
X11850Y-2859D01*
X11762Y-3071D01*
X11761Y-3301D01*
X11780Y-3345D01*
X11368Y-3756D01*
X11368Y-3562D01*
X11368Y-3562D01*
X11344Y-3438D01*
X11344Y-3438D01*
X11320Y-3403D01*
X11273Y-3332D01*
X11273Y-3332D01*
X11155Y-3214D01*
X11155Y-3072D01*
X11068Y-2860D01*
X10906Y-2698D01*
X10879Y-2687D01*
X10905Y-2676D01*
X11067Y-2514D01*
X11155Y-2302D01*
X11155Y-2072D01*
X11068Y-1860D01*
X10906Y-1698D01*
X10904Y-1697D01*
X10904Y-1683D01*
X10993Y-1646D01*
X11063Y-1576D01*
X11100Y-1486D01*
X11100Y-1388D01*
X11100Y-1038D01*
X11063Y-947D01*
X11005Y-889D01*
X11065Y-828D01*
X11103Y-736D01*
X11103Y-624D01*
X11041Y-561D01*
X10628Y-561D01*
X10628Y-569D01*
X10528Y-569D01*
X10528Y-561D01*
X10116Y-561D01*
X10053Y-624D01*
X10053Y-736D01*
X10091Y-828D01*
X10152Y-889D01*
X10094Y-946D01*
X10057Y-1037D01*
X10057Y-1135D01*
X10057Y-1485D01*
X10094Y-1576D01*
X10163Y-1646D01*
X10253Y-1683D01*
X10253Y-1697D01*
X10252Y-1697D01*
X10090Y-1859D01*
X10002Y-2071D01*
X10001Y-2301D01*
X10089Y-2513D01*
X10251Y-2675D01*
X10278Y-2686D01*
X10252Y-2697D01*
X10171Y-2778D01*
X9754Y-2361D01*
X9648Y-2291D01*
X9583Y-2278D01*
X9583Y-2277D01*
X9513Y-2207D01*
X9424Y-2170D01*
X9424Y-2114D01*
X9562Y-1977D01*
X9645Y-1776D01*
X9645Y-1558D01*
X9562Y-1357D01*
X9422Y-1216D01*
X9448Y-1216D01*
X9540Y-1178D01*
X9610Y-1108D01*
X9648Y-1016D01*
X9648Y-779D01*
X9586Y-716D01*
X9148Y-716D01*
X9148Y-724D01*
X9048Y-724D01*
X9048Y-716D01*
X8611Y-716D01*
X8598Y-729D01*
X8586Y-716D01*
X8148Y-716D01*
X8148Y-724D01*
X8048Y-724D01*
X8048Y-716D01*
X7611Y-716D01*
X7548Y-779D01*
X7548Y-1016D01*
X7586Y-1108D01*
X7657Y-1178D01*
X7748Y-1216D01*
X7775Y-1216D01*
X7635Y-1356D01*
X7552Y-1557D01*
X7551Y-1775D01*
X7635Y-1976D01*
X7773Y-2114D01*
X7773Y-2170D01*
X7702Y-2199D01*
X7653Y-2127D01*
X7653Y-2127D01*
X7452Y-1925D01*
X7504Y-1874D01*
X7542Y-1782D01*
X7542Y-1682D01*
X7542Y-1033D01*
X7542Y-934D01*
X7504Y-842D01*
X7434Y-772D01*
X7342Y-734D01*
X7031Y-734D01*
X6968Y-796D01*
X6968Y-1308D01*
X7480Y-1308D01*
X7542Y-1245D01*
X7542Y-1033D01*
X7542Y-1682D01*
X7542Y-1470D01*
X7480Y-1408D01*
X6968Y-1408D01*
X6968Y-1416D01*
X6868Y-1416D01*
X6868Y-1408D01*
X6868Y-1308D01*
X6868Y-796D01*
X6806Y-734D01*
X6495Y-734D01*
X6416Y-766D01*
X6338Y-734D01*
X6027Y-734D01*
X5964Y-796D01*
X5964Y-1308D01*
X6357Y-1308D01*
X6476Y-1308D01*
X6868Y-1308D01*
X6868Y-1408D01*
X6476Y-1408D01*
X6357Y-1408D01*
X5964Y-1408D01*
X5964Y-1416D01*
X5864Y-1416D01*
X5864Y-1408D01*
X5864Y-1308D01*
X5864Y-796D01*
X5802Y-734D01*
X5491Y-734D01*
X5442Y-754D01*
X5393Y-734D01*
X5082Y-734D01*
X5019Y-796D01*
X5019Y-1308D01*
X5353Y-1308D01*
X5531Y-1308D01*
X5864Y-1308D01*
X5864Y-1408D01*
X5531Y-1408D01*
X5353Y-1408D01*
X5019Y-1408D01*
X5019Y-1919D01*
X5082Y-1982D01*
X5378Y-1982D01*
X5232Y-2128D01*
X5167Y-2225D01*
X5164Y-2243D01*
X5066Y-2243D01*
X5058Y-2240D01*
X5032Y-2240D01*
X5008Y-2264D01*
X4967Y-2280D01*
X4919Y-2328D01*
X4919Y-1919D01*
X4919Y-1408D01*
X4919Y-1308D01*
X4919Y-796D01*
X4857Y-734D01*
X4546Y-734D01*
X4467Y-766D01*
X4389Y-734D01*
X4078Y-734D01*
X4015Y-796D01*
X4015Y-1308D01*
X4408Y-1308D01*
X4527Y-1308D01*
X4919Y-1308D01*
X4919Y-1408D01*
X4527Y-1408D01*
X4408Y-1408D01*
X4015Y-1408D01*
X4015Y-1919D01*
X4078Y-1982D01*
X4389Y-1982D01*
X4467Y-1949D01*
X4546Y-1982D01*
X4857Y-1982D01*
X4919Y-1919D01*
X4919Y-2328D01*
X4898Y-2350D01*
X4891Y-2367D01*
X4891Y-2302D01*
X4828Y-2240D01*
X4802Y-2240D01*
X4764Y-2255D01*
X4737Y-2228D01*
X4645Y-2190D01*
X4314Y-2190D01*
X4252Y-2253D01*
X4252Y-2705D01*
X4664Y-2705D01*
X4783Y-2705D01*
X4860Y-2705D01*
X4860Y-2805D01*
X4783Y-2805D01*
X4664Y-2805D01*
X4252Y-2805D01*
X4252Y-2813D01*
X4152Y-2813D01*
X4152Y-2805D01*
X4152Y-2705D01*
X4152Y-2253D01*
X4089Y-2190D01*
X3915Y-2190D01*
X3915Y-1919D01*
X3915Y-1408D01*
X3915Y-1308D01*
X3915Y-796D01*
X3853Y-734D01*
X3542Y-734D01*
X3450Y-772D01*
X3379Y-842D01*
X3341Y-934D01*
X3341Y-1033D01*
X3341Y-1245D01*
X3404Y-1308D01*
X3915Y-1308D01*
X3915Y-1408D01*
X3404Y-1408D01*
X3341Y-1470D01*
X3341Y-1682D01*
X3341Y-1782D01*
X3379Y-1874D01*
X3450Y-1944D01*
X3542Y-1982D01*
X3853Y-1982D01*
X3915Y-1919D01*
X3915Y-2190D01*
X3758Y-2190D01*
X3666Y-2228D01*
X3596Y-2299D01*
X3558Y-2390D01*
X3558Y-2490D01*
X3558Y-2643D01*
X3620Y-2705D01*
X4152Y-2705D01*
X4152Y-2805D01*
X3620Y-2805D01*
X3558Y-2868D01*
X3558Y-3021D01*
X3558Y-3120D01*
X3596Y-3212D01*
X3666Y-3282D01*
X3758Y-3320D01*
X3878Y-3320D01*
X3878Y-3341D01*
X3878Y-3454D01*
X3941Y-3516D01*
X4253Y-3516D01*
X4253Y-3509D01*
X4353Y-3509D01*
X4353Y-3516D01*
X4361Y-3516D01*
X4361Y-3616D01*
X4353Y-3616D01*
X4353Y-3624D01*
X4253Y-3624D01*
X4253Y-3616D01*
X3941Y-3616D01*
X3878Y-3679D01*
X3878Y-3792D01*
X3878Y-3861D01*
X3859Y-3861D01*
X3767Y-3899D01*
X3697Y-3970D01*
X3658Y-4061D01*
X3658Y-4161D01*
X3658Y-4274D01*
X3721Y-4336D01*
X4033Y-4336D01*
X4033Y-4329D01*
X4133Y-4329D01*
X4133Y-4336D01*
X4141Y-4336D01*
X4141Y-4436D01*
X4133Y-4436D01*
X4133Y-4444D01*
X4033Y-4444D01*
X4033Y-4436D01*
X3721Y-4436D01*
X3658Y-4499D01*
X3658Y-4612D01*
X3658Y-4654D01*
X3628Y-4641D01*
X3516Y-4641D01*
X3453Y-4704D01*
X3453Y-5116D01*
X3461Y-5116D01*
X3461Y-5216D01*
X3453Y-5216D01*
X3453Y-5629D01*
X3516Y-5691D01*
X3523Y-5691D01*
X3518Y-5701D01*
X3518Y-5801D01*
X3518Y-5914D01*
X3581Y-5976D01*
X3893Y-5976D01*
X3893Y-5969D01*
X3993Y-5969D01*
X3993Y-5976D01*
X4001Y-5976D01*
X4001Y-6076D01*
X3993Y-6076D01*
X3993Y-6084D01*
X3893Y-6084D01*
X3893Y-6076D01*
X3581Y-6076D01*
X3518Y-6139D01*
X3518Y-6252D01*
X3518Y-6351D01*
X3539Y-6401D01*
X3522Y-6442D01*
X3522Y-6540D01*
X3522Y-7090D01*
X3559Y-7181D01*
X3628Y-7251D01*
X3719Y-7288D01*
X3817Y-7288D01*
X4167Y-7288D01*
X4258Y-7251D01*
X4318Y-7191D01*
X4378Y-7251D01*
X4458Y-7284D01*
X4463Y-7292D01*
X4778Y-7607D01*
X4868Y-7697D01*
X4974Y-7767D01*
X5098Y-7792D01*
X5384Y-7792D01*
X5388Y-7797D01*
X5494Y-7867D01*
X5618Y-7892D01*
X5798Y-7892D01*
X6138Y-7892D01*
X6248Y-7892D01*
X6259Y-7903D01*
X6671Y-7903D01*
X6671Y-7895D01*
X6771Y-7895D01*
X6771Y-7903D01*
X6779Y-7903D01*
X6779Y-8003D01*
X6771Y-8003D01*
X6771Y-8011D01*
X6671Y-8011D01*
X6671Y-8003D01*
X6259Y-8003D01*
X6196Y-8066D01*
X6196Y-8131D01*
X6188Y-8136D01*
X6088Y-8236D01*
X6018Y-8342D01*
X6017Y-8345D01*
X5938Y-8345D01*
X5701Y-8108D01*
X5583Y-8029D01*
X5443Y-8001D01*
X5327Y-8001D01*
X5229Y-7903D01*
X5028Y-7820D01*
X4810Y-7819D01*
X4609Y-7903D01*
X4510Y-8001D01*
X4327Y-8001D01*
X4229Y-7903D01*
X4028Y-7820D01*
X3810Y-7819D01*
X3609Y-7903D01*
X3455Y-8056D01*
X3372Y-8257D01*
X3371Y-8475D01*
X3455Y-8676D01*
X3608Y-8830D01*
X3697Y-8866D01*
X3609Y-8903D01*
X3455Y-9056D01*
X3434Y-9106D01*
X3353Y-9025D01*
X3353Y-5629D01*
X3353Y-5216D01*
X3353Y-5116D01*
X3353Y-4704D01*
X3291Y-4641D01*
X3179Y-4641D01*
X3087Y-4679D01*
X3017Y-4750D01*
X2978Y-4841D01*
X2978Y-4941D01*
X2978Y-5054D01*
X3041Y-5116D01*
X3353Y-5116D01*
X3353Y-5216D01*
X3041Y-5216D01*
X2978Y-5279D01*
X2978Y-5392D01*
X2978Y-5491D01*
X3017Y-5583D01*
X3087Y-5653D01*
X3179Y-5691D01*
X3291Y-5691D01*
X3353Y-5629D01*
X3353Y-9025D01*
X3216Y-8888D01*
X3098Y-8809D01*
X2958Y-8781D01*
X2809Y-8781D01*
X2809Y-1819D01*
X2808Y-1328D01*
X2621Y-876D01*
X2455Y-765D01*
X1645Y-1574D01*
X2455Y-2384D01*
X2621Y-2273D01*
X2809Y-1819D01*
X2809Y-8781D01*
X2678Y-8781D01*
X2539Y-8809D01*
X2420Y-8888D01*
X2420Y-8888D01*
X2420Y-8888D01*
X2384Y-8925D01*
X2384Y-2455D01*
X1574Y-1645D01*
X765Y-2455D01*
X876Y-2621D01*
X1329Y-2809D01*
X1820Y-2808D01*
X2273Y-2621D01*
X2384Y-2455D01*
X2384Y-8925D01*
X1300Y-10008D01*
X1270Y-10054D01*
X1128Y-9995D01*
X960Y-9995D01*
X805Y-10059D01*
X686Y-10177D01*
X622Y-10332D01*
X621Y-10500D01*
X668Y-10612D01*
X668Y-14196D01*
X561Y-14302D01*
X497Y-14457D01*
X496Y-14625D01*
X561Y-14780D01*
X679Y-14899D01*
X834Y-14963D01*
X1002Y-14963D01*
X1157Y-14899D01*
X1193Y-14863D01*
X1193Y-15026D01*
X1221Y-15166D01*
X1300Y-15284D01*
X1633Y-15618D01*
X1633Y-21246D01*
X1661Y-21386D01*
X1740Y-21504D01*
X2478Y-22243D01*
X2478Y-22631D01*
X2455Y-22615D01*
X2384Y-22686D01*
X2384Y-22544D01*
X2273Y-22378D01*
X1819Y-22190D01*
X1328Y-22191D01*
X876Y-22378D01*
X765Y-22544D01*
X1574Y-23354D01*
X2384Y-22544D01*
X2384Y-22686D01*
X1645Y-23425D01*
X2455Y-24234D01*
X2550Y-24171D01*
X2550Y-24171D01*
X2585Y-24224D01*
X3291Y-24930D01*
X2384Y-24930D01*
X2384Y-24305D01*
X1574Y-23495D01*
X1504Y-23566D01*
X1504Y-23425D01*
X694Y-22615D01*
X528Y-22726D01*
X340Y-23180D01*
X340Y-23671D01*
X528Y-24123D01*
X694Y-24234D01*
X1504Y-23425D01*
X1504Y-23566D01*
X765Y-24305D01*
X876Y-24471D01*
X1329Y-24659D01*
X1820Y-24659D01*
X2273Y-24471D01*
X2384Y-24305D01*
X2384Y-24930D01*
X1291Y-24930D01*
X266Y-23905D01*
X266Y-1291D01*
X419Y-1138D01*
X340Y-1329D01*
X340Y-1820D01*
X528Y-2273D01*
X694Y-2384D01*
X1504Y-1574D01*
X1498Y-1569D01*
X1569Y-1498D01*
X1574Y-1504D01*
X2384Y-694D01*
X2273Y-528D01*
X1819Y-340D01*
X1328Y-340D01*
X1138Y-419D01*
X1291Y-266D01*
X7569Y-266D01*
X7548Y-317D01*
X7548Y-554D01*
X7611Y-616D01*
X8048Y-616D01*
X8048Y-609D01*
X8148Y-609D01*
X8148Y-616D01*
X8586Y-616D01*
X8598Y-604D01*
X8611Y-616D01*
X9048Y-616D01*
X9048Y-609D01*
X9148Y-609D01*
X9148Y-616D01*
X9586Y-616D01*
X9648Y-554D01*
X9648Y-317D01*
X9627Y-266D01*
X10062Y-266D01*
X10053Y-287D01*
X10053Y-399D01*
X10116Y-461D01*
X10528Y-461D01*
X10528Y-454D01*
X10628Y-454D01*
X10628Y-461D01*
X11041Y-461D01*
X11103Y-399D01*
X11103Y-287D01*
X11095Y-266D01*
X11822Y-266D01*
X11813Y-287D01*
X11813Y-399D01*
X11876Y-461D01*
X12288Y-461D01*
X12288Y-454D01*
X12388Y-454D01*
X12388Y-461D01*
X12801Y-461D01*
X12863Y-399D01*
X12863Y-287D01*
X12855Y-266D01*
X13602Y-266D01*
X13593Y-287D01*
X13593Y-399D01*
X13656Y-461D01*
X14068Y-461D01*
X14068Y-454D01*
X14168Y-454D01*
X14168Y-461D01*
X14581Y-461D01*
X14643Y-399D01*
X14643Y-287D01*
X14635Y-266D01*
X16336Y-266D01*
G54D10*
G36*
X17416Y-16376D02*
X17371Y-16413D01*
X17371Y-16920D01*
X17356Y-16942D01*
X17331Y-17066D01*
X17331Y-17342D01*
X17351Y-17441D01*
X17351Y-17716D01*
X17371Y-17815D01*
X17371Y-18976D01*
X16513Y-19930D01*
X16313Y-19930D01*
X16313Y-16349D01*
X16313Y-15936D01*
X16001Y-15936D01*
X15938Y-15999D01*
X15938Y-16112D01*
X15938Y-16211D01*
X15977Y-16303D01*
X16047Y-16373D01*
X16139Y-16411D01*
X16251Y-16411D01*
X16313Y-16349D01*
X16313Y-19930D01*
X14714Y-19930D01*
X14714Y-19644D01*
X14689Y-19520D01*
X14619Y-19414D01*
X14619Y-19414D01*
X14522Y-19317D01*
X14555Y-19237D01*
X14555Y-19070D01*
X14491Y-18914D01*
X14373Y-18796D01*
X14218Y-18731D01*
X14050Y-18731D01*
X13895Y-18795D01*
X13776Y-18914D01*
X13712Y-19069D01*
X13711Y-19237D01*
X13776Y-19392D01*
X13816Y-19433D01*
X13833Y-19514D01*
X13903Y-19619D01*
X14063Y-19779D01*
X14063Y-20904D01*
X14004Y-20962D01*
X13966Y-21053D01*
X13966Y-21151D01*
X13966Y-21701D01*
X14004Y-21792D01*
X14073Y-21862D01*
X14164Y-21899D01*
X14262Y-21899D01*
X14612Y-21899D01*
X14615Y-21898D01*
X14615Y-24930D01*
X7672Y-24930D01*
X15626Y-16975D01*
X15626Y-16975D01*
X15626Y-16975D01*
X15706Y-16857D01*
X15733Y-16717D01*
X15733Y-16717D01*
X15733Y-16563D01*
X15790Y-16426D01*
X15790Y-16258D01*
X15726Y-16103D01*
X15608Y-15984D01*
X15453Y-15920D01*
X15285Y-15920D01*
X15130Y-15984D01*
X15011Y-16102D01*
X14947Y-16257D01*
X14946Y-16425D01*
X15003Y-16563D01*
X15003Y-16566D01*
X14775Y-16794D01*
X14775Y-15884D01*
X14775Y-15771D01*
X14713Y-15709D01*
X14400Y-15709D01*
X14400Y-16121D01*
X14463Y-16184D01*
X14575Y-16184D01*
X14667Y-16146D01*
X14737Y-16076D01*
X14775Y-15984D01*
X14775Y-15884D01*
X14775Y-16794D01*
X10243Y-21326D01*
X10243Y-19606D01*
X10243Y-19494D01*
X10181Y-19431D01*
X9768Y-19431D01*
X9768Y-19744D01*
X9831Y-19806D01*
X9944Y-19806D01*
X10043Y-19806D01*
X10135Y-19768D01*
X10205Y-19698D01*
X10243Y-19606D01*
X10243Y-21326D01*
X7824Y-23745D01*
X7845Y-23641D01*
X7845Y-23641D01*
X7845Y-22101D01*
X8369Y-21577D01*
X8439Y-21471D01*
X8464Y-21346D01*
X8464Y-20866D01*
X8464Y-20413D01*
X8507Y-20413D01*
X9107Y-20413D01*
X9198Y-20376D01*
X9268Y-20306D01*
X9305Y-20216D01*
X9305Y-20118D01*
X9305Y-19770D01*
X9393Y-19806D01*
X9493Y-19806D01*
X9606Y-19806D01*
X9668Y-19744D01*
X9668Y-19431D01*
X9661Y-19431D01*
X9661Y-19331D01*
X9668Y-19331D01*
X9668Y-19324D01*
X9768Y-19324D01*
X9768Y-19331D01*
X10181Y-19331D01*
X10243Y-19269D01*
X10243Y-19157D01*
X10205Y-19065D01*
X10204Y-19063D01*
X11038Y-19063D01*
X11038Y-19063D01*
X11038Y-19063D01*
X11152Y-19041D01*
X11248Y-18976D01*
X11488Y-18736D01*
X11488Y-18736D01*
X11488Y-18736D01*
X11553Y-18640D01*
X11553Y-18640D01*
X11575Y-18526D01*
X11575Y-18029D01*
X12545Y-17059D01*
X12649Y-17163D01*
X12648Y-17248D01*
X12713Y-17404D01*
X12831Y-17522D01*
X12986Y-17587D01*
X13154Y-17587D01*
X13309Y-17523D01*
X13385Y-17447D01*
X13422Y-17483D01*
X13577Y-17547D01*
X13744Y-17547D01*
X13900Y-17483D01*
X14018Y-17365D01*
X14083Y-17210D01*
X14083Y-17042D01*
X14019Y-16887D01*
X13900Y-16768D01*
X13745Y-16704D01*
X13577Y-16704D01*
X13555Y-16713D01*
X12897Y-16055D01*
X12980Y-16000D01*
X13010Y-15956D01*
X13178Y-15956D01*
X13178Y-15983D01*
X13216Y-16074D01*
X13285Y-16143D01*
X13376Y-16181D01*
X13474Y-16181D01*
X13824Y-16181D01*
X13915Y-16143D01*
X13973Y-16085D01*
X14034Y-16146D01*
X14126Y-16184D01*
X14238Y-16184D01*
X14300Y-16121D01*
X14300Y-15709D01*
X14292Y-15709D01*
X14292Y-15609D01*
X14300Y-15609D01*
X14300Y-15601D01*
X14400Y-15601D01*
X14400Y-15609D01*
X14713Y-15609D01*
X14775Y-15546D01*
X14775Y-15433D01*
X14775Y-15334D01*
X14747Y-15267D01*
X14811Y-15113D01*
X14811Y-14945D01*
X14747Y-14790D01*
X14629Y-14672D01*
X14474Y-14607D01*
X14306Y-14607D01*
X14156Y-14669D01*
X14156Y-14596D01*
X14150Y-14581D01*
X14167Y-14497D01*
X14147Y-14399D01*
X14167Y-14300D01*
X14155Y-14243D01*
X14488Y-14576D01*
X14488Y-14576D01*
X14585Y-14641D01*
X14585Y-14641D01*
X14698Y-14663D01*
X15478Y-14663D01*
X15574Y-14727D01*
X15698Y-14752D01*
X15839Y-14752D01*
X15839Y-14922D01*
X15901Y-14984D01*
X16255Y-14984D01*
X16255Y-14977D01*
X16355Y-14977D01*
X16355Y-14984D01*
X16363Y-14984D01*
X16363Y-15084D01*
X16355Y-15084D01*
X16355Y-15092D01*
X16255Y-15092D01*
X16255Y-15084D01*
X15901Y-15084D01*
X15839Y-15147D01*
X15839Y-15458D01*
X15877Y-15550D01*
X15938Y-15612D01*
X15938Y-15661D01*
X15938Y-15774D01*
X16001Y-15836D01*
X16313Y-15836D01*
X16313Y-15829D01*
X16413Y-15829D01*
X16413Y-15836D01*
X16421Y-15836D01*
X16421Y-15936D01*
X16413Y-15936D01*
X16413Y-16349D01*
X16476Y-16411D01*
X16588Y-16411D01*
X16680Y-16373D01*
X16741Y-16313D01*
X16798Y-16371D01*
X16889Y-16408D01*
X16987Y-16408D01*
X17337Y-16408D01*
X17416Y-16376D01*
X17416Y-16376D01*
G37*
G54D44*
X17416Y-16376D02*
X17371Y-16413D01*
X17371Y-16920D01*
X17356Y-16942D01*
X17331Y-17066D01*
X17331Y-17342D01*
X17351Y-17441D01*
X17351Y-17716D01*
X17371Y-17815D01*
X17371Y-18976D01*
X16513Y-19930D01*
X16313Y-19930D01*
X16313Y-16349D01*
X16313Y-15936D01*
X16001Y-15936D01*
X15938Y-15999D01*
X15938Y-16112D01*
X15938Y-16211D01*
X15977Y-16303D01*
X16047Y-16373D01*
X16139Y-16411D01*
X16251Y-16411D01*
X16313Y-16349D01*
X16313Y-19930D01*
X14714Y-19930D01*
X14714Y-19644D01*
X14689Y-19520D01*
X14619Y-19414D01*
X14619Y-19414D01*
X14522Y-19317D01*
X14555Y-19237D01*
X14555Y-19070D01*
X14491Y-18914D01*
X14373Y-18796D01*
X14218Y-18731D01*
X14050Y-18731D01*
X13895Y-18795D01*
X13776Y-18914D01*
X13712Y-19069D01*
X13711Y-19237D01*
X13776Y-19392D01*
X13816Y-19433D01*
X13833Y-19514D01*
X13903Y-19619D01*
X14063Y-19779D01*
X14063Y-20904D01*
X14004Y-20962D01*
X13966Y-21053D01*
X13966Y-21151D01*
X13966Y-21701D01*
X14004Y-21792D01*
X14073Y-21862D01*
X14164Y-21899D01*
X14262Y-21899D01*
X14612Y-21899D01*
X14615Y-21898D01*
X14615Y-24930D01*
X7672Y-24930D01*
X15626Y-16975D01*
X15626Y-16975D01*
X15626Y-16975D01*
X15706Y-16857D01*
X15733Y-16717D01*
X15733Y-16717D01*
X15733Y-16563D01*
X15790Y-16426D01*
X15790Y-16258D01*
X15726Y-16103D01*
X15608Y-15984D01*
X15453Y-15920D01*
X15285Y-15920D01*
X15130Y-15984D01*
X15011Y-16102D01*
X14947Y-16257D01*
X14946Y-16425D01*
X15003Y-16563D01*
X15003Y-16566D01*
X14775Y-16794D01*
X14775Y-15884D01*
X14775Y-15771D01*
X14713Y-15709D01*
X14400Y-15709D01*
X14400Y-16121D01*
X14463Y-16184D01*
X14575Y-16184D01*
X14667Y-16146D01*
X14737Y-16076D01*
X14775Y-15984D01*
X14775Y-15884D01*
X14775Y-16794D01*
X10243Y-21326D01*
X10243Y-19606D01*
X10243Y-19494D01*
X10181Y-19431D01*
X9768Y-19431D01*
X9768Y-19744D01*
X9831Y-19806D01*
X9944Y-19806D01*
X10043Y-19806D01*
X10135Y-19768D01*
X10205Y-19698D01*
X10243Y-19606D01*
X10243Y-21326D01*
X7824Y-23745D01*
X7845Y-23641D01*
X7845Y-23641D01*
X7845Y-22101D01*
X8369Y-21577D01*
X8439Y-21471D01*
X8464Y-21346D01*
X8464Y-20866D01*
X8464Y-20413D01*
X8507Y-20413D01*
X9107Y-20413D01*
X9198Y-20376D01*
X9268Y-20306D01*
X9305Y-20216D01*
X9305Y-20118D01*
X9305Y-19770D01*
X9393Y-19806D01*
X9493Y-19806D01*
X9606Y-19806D01*
X9668Y-19744D01*
X9668Y-19431D01*
X9661Y-19431D01*
X9661Y-19331D01*
X9668Y-19331D01*
X9668Y-19324D01*
X9768Y-19324D01*
X9768Y-19331D01*
X10181Y-19331D01*
X10243Y-19269D01*
X10243Y-19157D01*
X10205Y-19065D01*
X10204Y-19063D01*
X11038Y-19063D01*
X11038Y-19063D01*
X11038Y-19063D01*
X11152Y-19041D01*
X11248Y-18976D01*
X11488Y-18736D01*
X11488Y-18736D01*
X11488Y-18736D01*
X11553Y-18640D01*
X11553Y-18640D01*
X11575Y-18526D01*
X11575Y-18029D01*
X12545Y-17059D01*
X12649Y-17163D01*
X12648Y-17248D01*
X12713Y-17404D01*
X12831Y-17522D01*
X12986Y-17587D01*
X13154Y-17587D01*
X13309Y-17523D01*
X13385Y-17447D01*
X13422Y-17483D01*
X13577Y-17547D01*
X13744Y-17547D01*
X13900Y-17483D01*
X14018Y-17365D01*
X14083Y-17210D01*
X14083Y-17042D01*
X14019Y-16887D01*
X13900Y-16768D01*
X13745Y-16704D01*
X13577Y-16704D01*
X13555Y-16713D01*
X12897Y-16055D01*
X12980Y-16000D01*
X13010Y-15956D01*
X13178Y-15956D01*
X13178Y-15983D01*
X13216Y-16074D01*
X13285Y-16143D01*
X13376Y-16181D01*
X13474Y-16181D01*
X13824Y-16181D01*
X13915Y-16143D01*
X13973Y-16085D01*
X14034Y-16146D01*
X14126Y-16184D01*
X14238Y-16184D01*
X14300Y-16121D01*
X14300Y-15709D01*
X14292Y-15709D01*
X14292Y-15609D01*
X14300Y-15609D01*
X14300Y-15601D01*
X14400Y-15601D01*
X14400Y-15609D01*
X14713Y-15609D01*
X14775Y-15546D01*
X14775Y-15433D01*
X14775Y-15334D01*
X14747Y-15267D01*
X14811Y-15113D01*
X14811Y-14945D01*
X14747Y-14790D01*
X14629Y-14672D01*
X14474Y-14607D01*
X14306Y-14607D01*
X14156Y-14669D01*
X14156Y-14596D01*
X14150Y-14581D01*
X14167Y-14497D01*
X14147Y-14399D01*
X14167Y-14300D01*
X14155Y-14243D01*
X14488Y-14576D01*
X14488Y-14576D01*
X14585Y-14641D01*
X14585Y-14641D01*
X14698Y-14663D01*
X15478Y-14663D01*
X15574Y-14727D01*
X15698Y-14752D01*
X15839Y-14752D01*
X15839Y-14922D01*
X15901Y-14984D01*
X16255Y-14984D01*
X16255Y-14977D01*
X16355Y-14977D01*
X16355Y-14984D01*
X16363Y-14984D01*
X16363Y-15084D01*
X16355Y-15084D01*
X16355Y-15092D01*
X16255Y-15092D01*
X16255Y-15084D01*
X15901Y-15084D01*
X15839Y-15147D01*
X15839Y-15458D01*
X15877Y-15550D01*
X15938Y-15612D01*
X15938Y-15661D01*
X15938Y-15774D01*
X16001Y-15836D01*
X16313Y-15836D01*
X16313Y-15829D01*
X16413Y-15829D01*
X16413Y-15836D01*
X16421Y-15836D01*
X16421Y-15936D01*
X16413Y-15936D01*
X16413Y-16349D01*
X16476Y-16411D01*
X16588Y-16411D01*
X16680Y-16373D01*
X16741Y-16313D01*
X16798Y-16371D01*
X16889Y-16408D01*
X16987Y-16408D01*
X17337Y-16408D01*
X17416Y-16376D01*
G54D10*
G36*
X19117Y-12943D02*
X19103Y-13011D01*
X19103Y-14995D01*
X19013Y-15069D01*
X19013Y-13968D01*
X19002Y-13750D01*
X18940Y-13599D01*
X18844Y-13571D01*
X18529Y-13886D01*
X18844Y-14202D01*
X18940Y-14174D01*
X19013Y-13968D01*
X19013Y-15069D01*
X18774Y-15265D01*
X18774Y-14272D01*
X18458Y-13957D01*
X18388Y-14028D01*
X18388Y-13886D01*
X18072Y-13571D01*
X17977Y-13599D01*
X17904Y-13805D01*
X17915Y-14023D01*
X17977Y-14174D01*
X18072Y-14202D01*
X18388Y-13886D01*
X18388Y-14028D01*
X18143Y-14272D01*
X18171Y-14368D01*
X18377Y-14441D01*
X18595Y-14430D01*
X18746Y-14368D01*
X18774Y-14272D01*
X18774Y-15265D01*
X17678Y-16161D01*
X17678Y-14002D01*
X17678Y-13691D01*
X17615Y-13628D01*
X17261Y-13628D01*
X17261Y-14140D01*
X17324Y-14202D01*
X17378Y-14202D01*
X17478Y-14202D01*
X17570Y-14164D01*
X17640Y-14094D01*
X17678Y-14002D01*
X17678Y-16161D01*
X17455Y-16344D01*
X17498Y-16301D01*
X17535Y-16211D01*
X17535Y-16113D01*
X17535Y-15631D01*
X17568Y-15618D01*
X17637Y-15548D01*
X17675Y-15458D01*
X17675Y-15360D01*
X17675Y-14612D01*
X17637Y-14521D01*
X17568Y-14451D01*
X17477Y-14414D01*
X17379Y-14414D01*
X17246Y-14414D01*
X17035Y-14202D01*
X17044Y-14202D01*
X17099Y-14202D01*
X17161Y-14140D01*
X17161Y-13628D01*
X17154Y-13628D01*
X17154Y-13528D01*
X17161Y-13528D01*
X17161Y-13521D01*
X17261Y-13521D01*
X17261Y-13528D01*
X17615Y-13528D01*
X17678Y-13466D01*
X17678Y-13251D01*
X17778Y-13251D01*
X17870Y-13213D01*
X17912Y-13172D01*
X17912Y-13235D01*
X17949Y-13326D01*
X18018Y-13396D01*
X18109Y-13433D01*
X18162Y-13433D01*
X18143Y-13501D01*
X18458Y-13816D01*
X18774Y-13501D01*
X18754Y-13433D01*
X18807Y-13433D01*
X18898Y-13396D01*
X18968Y-13326D01*
X19005Y-13236D01*
X19005Y-13138D01*
X19005Y-12943D01*
X19117Y-12943D01*
X19117Y-12943D01*
G37*
G54D44*
X19117Y-12943D02*
X19103Y-13011D01*
X19103Y-14995D01*
X19013Y-15069D01*
X19013Y-13968D01*
X19002Y-13750D01*
X18940Y-13599D01*
X18844Y-13571D01*
X18529Y-13886D01*
X18844Y-14202D01*
X18940Y-14174D01*
X19013Y-13968D01*
X19013Y-15069D01*
X18774Y-15265D01*
X18774Y-14272D01*
X18458Y-13957D01*
X18388Y-14028D01*
X18388Y-13886D01*
X18072Y-13571D01*
X17977Y-13599D01*
X17904Y-13805D01*
X17915Y-14023D01*
X17977Y-14174D01*
X18072Y-14202D01*
X18388Y-13886D01*
X18388Y-14028D01*
X18143Y-14272D01*
X18171Y-14368D01*
X18377Y-14441D01*
X18595Y-14430D01*
X18746Y-14368D01*
X18774Y-14272D01*
X18774Y-15265D01*
X17678Y-16161D01*
X17678Y-14002D01*
X17678Y-13691D01*
X17615Y-13628D01*
X17261Y-13628D01*
X17261Y-14140D01*
X17324Y-14202D01*
X17378Y-14202D01*
X17478Y-14202D01*
X17570Y-14164D01*
X17640Y-14094D01*
X17678Y-14002D01*
X17678Y-16161D01*
X17455Y-16344D01*
X17498Y-16301D01*
X17535Y-16211D01*
X17535Y-16113D01*
X17535Y-15631D01*
X17568Y-15618D01*
X17637Y-15548D01*
X17675Y-15458D01*
X17675Y-15360D01*
X17675Y-14612D01*
X17637Y-14521D01*
X17568Y-14451D01*
X17477Y-14414D01*
X17379Y-14414D01*
X17246Y-14414D01*
X17035Y-14202D01*
X17044Y-14202D01*
X17099Y-14202D01*
X17161Y-14140D01*
X17161Y-13628D01*
X17154Y-13628D01*
X17154Y-13528D01*
X17161Y-13528D01*
X17161Y-13521D01*
X17261Y-13521D01*
X17261Y-13528D01*
X17615Y-13528D01*
X17678Y-13466D01*
X17678Y-13251D01*
X17778Y-13251D01*
X17870Y-13213D01*
X17912Y-13172D01*
X17912Y-13235D01*
X17949Y-13326D01*
X18018Y-13396D01*
X18109Y-13433D01*
X18162Y-13433D01*
X18143Y-13501D01*
X18458Y-13816D01*
X18774Y-13501D01*
X18754Y-13433D01*
X18807Y-13433D01*
X18898Y-13396D01*
X18968Y-13326D01*
X19005Y-13236D01*
X19005Y-13138D01*
X19005Y-12943D01*
X19117Y-12943D01*
G54D10*
G36*
X33985Y-7135D02*
X33792Y-7135D01*
X33792Y-7135D01*
X33792Y-7094D01*
X33730Y-7094D01*
X33792Y-7032D01*
X33792Y-6920D01*
X33754Y-6828D01*
X33684Y-6757D01*
X33592Y-6719D01*
X33493Y-6719D01*
X33486Y-6719D01*
X33486Y-2455D01*
X32677Y-1645D01*
X32606Y-1716D01*
X32606Y-1574D01*
X31796Y-765D01*
X31630Y-876D01*
X31442Y-1329D01*
X31443Y-1820D01*
X31630Y-2273D01*
X31796Y-2384D01*
X32606Y-1574D01*
X32606Y-1716D01*
X31867Y-2455D01*
X31978Y-2621D01*
X32148Y-2691D01*
X32146Y-2694D01*
X32192Y-2739D01*
X32091Y-2772D01*
X32009Y-2996D01*
X32019Y-3235D01*
X32091Y-3408D01*
X32192Y-3441D01*
X32543Y-3090D01*
X32537Y-3084D01*
X32608Y-3014D01*
X32614Y-3019D01*
X32619Y-3014D01*
X32690Y-3084D01*
X32684Y-3090D01*
X33036Y-3441D01*
X33136Y-3408D01*
X33218Y-3184D01*
X33208Y-2945D01*
X33136Y-2772D01*
X33067Y-2749D01*
X33375Y-2621D01*
X33486Y-2455D01*
X33486Y-6719D01*
X33380Y-6719D01*
X33317Y-6782D01*
X33317Y-7094D01*
X33325Y-7094D01*
X33325Y-7135D01*
X33209Y-7135D01*
X33209Y-7094D01*
X33217Y-7094D01*
X33217Y-6782D01*
X33155Y-6719D01*
X33042Y-6719D01*
X32965Y-6719D01*
X32965Y-3512D01*
X32614Y-3161D01*
X32543Y-3231D01*
X32262Y-3512D01*
X32296Y-3613D01*
X32520Y-3695D01*
X32758Y-3684D01*
X32932Y-3613D01*
X32965Y-3512D01*
X32965Y-6719D01*
X32942Y-6719D01*
X32924Y-6727D01*
X32924Y-4182D01*
X28186Y-4182D01*
X28137Y-4063D01*
X27984Y-3910D01*
X27785Y-3828D01*
X27569Y-3827D01*
X27370Y-3910D01*
X27275Y-4005D01*
X26929Y-4005D01*
X26789Y-4032D01*
X26671Y-4112D01*
X26671Y-4112D01*
X26671Y-4112D01*
X26634Y-4148D01*
X26634Y-3455D01*
X30017Y-3455D01*
X30017Y-3489D01*
X30054Y-3580D01*
X30124Y-3649D01*
X30214Y-3687D01*
X30313Y-3687D01*
X31013Y-3687D01*
X31103Y-3649D01*
X31173Y-3580D01*
X31210Y-3489D01*
X31211Y-3391D01*
X31211Y-2691D01*
X31173Y-2600D01*
X31104Y-2531D01*
X31013Y-2493D01*
X30915Y-2493D01*
X30215Y-2493D01*
X30124Y-2531D01*
X30055Y-2600D01*
X30017Y-2691D01*
X30017Y-2725D01*
X28119Y-2725D01*
X28136Y-2709D01*
X28219Y-2509D01*
X28219Y-2294D01*
X28137Y-2094D01*
X27984Y-1942D01*
X27785Y-1859D01*
X27569Y-1859D01*
X27370Y-1941D01*
X27275Y-2036D01*
X26922Y-2036D01*
X26185Y-1299D01*
X26067Y-1220D01*
X25927Y-1192D01*
X25382Y-1192D01*
X25305Y-1115D01*
X25114Y-1035D01*
X24906Y-1035D01*
X24714Y-1114D01*
X24636Y-1192D01*
X24549Y-1192D01*
X24549Y-1192D01*
X24410Y-1220D01*
X24291Y-1299D01*
X24291Y-1299D01*
X24291Y-1299D01*
X23889Y-1701D01*
X23834Y-1783D01*
X23815Y-1775D01*
X23760Y-1775D01*
X23697Y-1837D01*
X23697Y-2250D01*
X23705Y-2250D01*
X23705Y-2350D01*
X23697Y-2350D01*
X23697Y-2763D01*
X23760Y-2826D01*
X23815Y-2826D01*
X23901Y-2790D01*
X23980Y-2823D01*
X24078Y-2823D01*
X24314Y-2823D01*
X24405Y-2785D01*
X24452Y-2738D01*
X24444Y-2757D01*
X24444Y-2869D01*
X24507Y-2932D01*
X24919Y-2932D01*
X24919Y-2619D01*
X24884Y-2584D01*
X24884Y-2367D01*
X24876Y-2367D01*
X24876Y-2267D01*
X24884Y-2267D01*
X24884Y-2259D01*
X24984Y-2259D01*
X24984Y-2267D01*
X24992Y-2267D01*
X24992Y-2367D01*
X24984Y-2367D01*
X24984Y-2779D01*
X25019Y-2814D01*
X25019Y-2932D01*
X25027Y-2932D01*
X25027Y-3032D01*
X25019Y-3032D01*
X25019Y-3040D01*
X24919Y-3040D01*
X24919Y-3032D01*
X24507Y-3032D01*
X24444Y-3094D01*
X24444Y-3206D01*
X24482Y-3298D01*
X24543Y-3359D01*
X24535Y-3367D01*
X23597Y-3367D01*
X23597Y-2763D01*
X23597Y-2350D01*
X23589Y-2350D01*
X23589Y-2250D01*
X23597Y-2250D01*
X23597Y-1837D01*
X23535Y-1775D01*
X23525Y-1775D01*
X23525Y-1765D01*
X23525Y-1215D01*
X23487Y-1125D01*
X23418Y-1055D01*
X23327Y-1018D01*
X23229Y-1017D01*
X22879Y-1017D01*
X22788Y-1055D01*
X22730Y-1113D01*
X22669Y-1052D01*
X22577Y-1014D01*
X22465Y-1014D01*
X22403Y-1077D01*
X22403Y-1489D01*
X22411Y-1489D01*
X22411Y-1589D01*
X22403Y-1589D01*
X22403Y-1597D01*
X22303Y-1597D01*
X22303Y-1589D01*
X22303Y-1489D01*
X22303Y-1077D01*
X22240Y-1014D01*
X22128Y-1014D01*
X22036Y-1052D01*
X21966Y-1123D01*
X21928Y-1214D01*
X21928Y-1314D01*
X21928Y-1427D01*
X21990Y-1489D01*
X22303Y-1489D01*
X22303Y-1589D01*
X21990Y-1589D01*
X21928Y-1652D01*
X21928Y-1765D01*
X21928Y-1864D01*
X21966Y-1956D01*
X22036Y-2026D01*
X22128Y-2064D01*
X22240Y-2064D01*
X22279Y-2026D01*
X22279Y-2074D01*
X22279Y-2188D01*
X22342Y-2250D01*
X22597Y-2250D01*
X22597Y-2242D01*
X22697Y-2242D01*
X22697Y-2250D01*
X22705Y-2250D01*
X22705Y-2350D01*
X22697Y-2350D01*
X22697Y-2763D01*
X22760Y-2826D01*
X22815Y-2826D01*
X22901Y-2790D01*
X22980Y-2823D01*
X23078Y-2823D01*
X23314Y-2823D01*
X23393Y-2790D01*
X23480Y-2826D01*
X23535Y-2826D01*
X23597Y-2763D01*
X23597Y-3367D01*
X22814Y-3367D01*
X22675Y-3395D01*
X22597Y-3447D01*
X22597Y-2763D01*
X22597Y-2350D01*
X22342Y-2350D01*
X22279Y-2413D01*
X22279Y-2526D01*
X22279Y-2626D01*
X22281Y-2631D01*
X22239Y-2589D01*
X22147Y-2550D01*
X22048Y-2550D01*
X21935Y-2550D01*
X21872Y-2613D01*
X21872Y-2925D01*
X22285Y-2925D01*
X22347Y-2863D01*
X22347Y-2751D01*
X22345Y-2745D01*
X22388Y-2788D01*
X22480Y-2826D01*
X22535Y-2826D01*
X22597Y-2763D01*
X22597Y-3447D01*
X22556Y-3474D01*
X22389Y-3641D01*
X22344Y-3708D01*
X22344Y-3501D01*
X22307Y-3411D01*
X22249Y-3353D01*
X22309Y-3292D01*
X22347Y-3200D01*
X22347Y-3088D01*
X22285Y-3025D01*
X21872Y-3025D01*
X21872Y-3033D01*
X21772Y-3033D01*
X21772Y-3025D01*
X21772Y-2925D01*
X21772Y-2613D01*
X21710Y-2550D01*
X21597Y-2550D01*
X21497Y-2550D01*
X21406Y-2589D01*
X21335Y-2659D01*
X21297Y-2751D01*
X21297Y-2863D01*
X21360Y-2925D01*
X21772Y-2925D01*
X21772Y-3025D01*
X21360Y-3025D01*
X21297Y-3088D01*
X21297Y-3200D01*
X21335Y-3292D01*
X21396Y-3353D01*
X21338Y-3410D01*
X21301Y-3501D01*
X21300Y-3599D01*
X21300Y-3652D01*
X20950Y-3652D01*
X20950Y-1367D01*
X20947Y-950D01*
X20793Y-578D01*
X20646Y-490D01*
X19969Y-1166D01*
X20646Y-1843D01*
X20793Y-1755D01*
X20950Y-1367D01*
X20950Y-3652D01*
X20866Y-3652D01*
X20789Y-3652D01*
X20575Y-3652D01*
X20575Y-1914D01*
X19898Y-1237D01*
X19828Y-1308D01*
X19828Y-1166D01*
X19151Y-490D01*
X19004Y-578D01*
X18847Y-965D01*
X18850Y-1383D01*
X19004Y-1755D01*
X19151Y-1843D01*
X19828Y-1166D01*
X19828Y-1308D01*
X19222Y-1914D01*
X19310Y-2061D01*
X19697Y-2218D01*
X20115Y-2215D01*
X20487Y-2061D01*
X20575Y-1914D01*
X20575Y-3652D01*
X18029Y-3652D01*
X17890Y-3680D01*
X17771Y-3759D01*
X17771Y-3759D01*
X17771Y-3759D01*
X16104Y-5426D01*
X16100Y-5426D01*
X16100Y-4923D01*
X16063Y-4832D01*
X15993Y-4762D01*
X15989Y-4761D01*
X16013Y-4751D01*
X16083Y-4681D01*
X16120Y-4591D01*
X16120Y-4493D01*
X16120Y-3943D01*
X16083Y-3852D01*
X16013Y-3782D01*
X15923Y-3745D01*
X15825Y-3745D01*
X15275Y-3745D01*
X15184Y-3782D01*
X15114Y-3851D01*
X15077Y-3942D01*
X15077Y-4040D01*
X15077Y-4381D01*
X14395Y-4381D01*
X14395Y-4348D01*
X14358Y-4257D01*
X14288Y-4187D01*
X14202Y-4151D01*
X14378Y-4151D01*
X14518Y-4124D01*
X14518Y-4124D01*
X14636Y-4044D01*
X15496Y-3184D01*
X15576Y-3066D01*
X15576Y-3066D01*
X15603Y-2926D01*
X15603Y-1918D01*
X15938Y-1583D01*
X16010Y-1759D01*
X16305Y-2053D01*
X16689Y-2213D01*
X17106Y-2213D01*
X17491Y-2054D01*
X17785Y-1760D01*
X17945Y-1376D01*
X17945Y-959D01*
X17786Y-574D01*
X17492Y-279D01*
X17460Y-266D01*
X19324Y-266D01*
X19310Y-272D01*
X19222Y-419D01*
X19898Y-1096D01*
X20575Y-419D01*
X20487Y-272D01*
X20472Y-266D01*
X32960Y-266D01*
X33113Y-419D01*
X32922Y-340D01*
X32431Y-340D01*
X31978Y-528D01*
X31867Y-694D01*
X32677Y-1504D01*
X32682Y-1498D01*
X32753Y-1569D01*
X32747Y-1574D01*
X33557Y-2384D01*
X33723Y-2273D01*
X33911Y-1819D01*
X33911Y-1328D01*
X33832Y-1138D01*
X33985Y-1291D01*
X33985Y-7135D01*
X33985Y-7135D01*
G37*
G54D44*
X33985Y-7135D02*
X33792Y-7135D01*
X33792Y-7135D01*
X33792Y-7094D01*
X33730Y-7094D01*
X33792Y-7032D01*
X33792Y-6920D01*
X33754Y-6828D01*
X33684Y-6757D01*
X33592Y-6719D01*
X33493Y-6719D01*
X33486Y-6719D01*
X33486Y-2455D01*
X32677Y-1645D01*
X32606Y-1716D01*
X32606Y-1574D01*
X31796Y-765D01*
X31630Y-876D01*
X31442Y-1329D01*
X31443Y-1820D01*
X31630Y-2273D01*
X31796Y-2384D01*
X32606Y-1574D01*
X32606Y-1716D01*
X31867Y-2455D01*
X31978Y-2621D01*
X32148Y-2691D01*
X32146Y-2694D01*
X32192Y-2739D01*
X32091Y-2772D01*
X32009Y-2996D01*
X32019Y-3235D01*
X32091Y-3408D01*
X32192Y-3441D01*
X32543Y-3090D01*
X32537Y-3084D01*
X32608Y-3014D01*
X32614Y-3019D01*
X32619Y-3014D01*
X32690Y-3084D01*
X32684Y-3090D01*
X33036Y-3441D01*
X33136Y-3408D01*
X33218Y-3184D01*
X33208Y-2945D01*
X33136Y-2772D01*
X33067Y-2749D01*
X33375Y-2621D01*
X33486Y-2455D01*
X33486Y-6719D01*
X33380Y-6719D01*
X33317Y-6782D01*
X33317Y-7094D01*
X33325Y-7094D01*
X33325Y-7135D01*
X33209Y-7135D01*
X33209Y-7094D01*
X33217Y-7094D01*
X33217Y-6782D01*
X33155Y-6719D01*
X33042Y-6719D01*
X32965Y-6719D01*
X32965Y-3512D01*
X32614Y-3161D01*
X32543Y-3231D01*
X32262Y-3512D01*
X32296Y-3613D01*
X32520Y-3695D01*
X32758Y-3684D01*
X32932Y-3613D01*
X32965Y-3512D01*
X32965Y-6719D01*
X32942Y-6719D01*
X32924Y-6727D01*
X32924Y-4182D01*
X28186Y-4182D01*
X28137Y-4063D01*
X27984Y-3910D01*
X27785Y-3828D01*
X27569Y-3827D01*
X27370Y-3910D01*
X27275Y-4005D01*
X26929Y-4005D01*
X26789Y-4032D01*
X26671Y-4112D01*
X26671Y-4112D01*
X26671Y-4112D01*
X26634Y-4148D01*
X26634Y-3455D01*
X30017Y-3455D01*
X30017Y-3489D01*
X30054Y-3580D01*
X30124Y-3649D01*
X30214Y-3687D01*
X30313Y-3687D01*
X31013Y-3687D01*
X31103Y-3649D01*
X31173Y-3580D01*
X31210Y-3489D01*
X31211Y-3391D01*
X31211Y-2691D01*
X31173Y-2600D01*
X31104Y-2531D01*
X31013Y-2493D01*
X30915Y-2493D01*
X30215Y-2493D01*
X30124Y-2531D01*
X30055Y-2600D01*
X30017Y-2691D01*
X30017Y-2725D01*
X28119Y-2725D01*
X28136Y-2709D01*
X28219Y-2509D01*
X28219Y-2294D01*
X28137Y-2094D01*
X27984Y-1942D01*
X27785Y-1859D01*
X27569Y-1859D01*
X27370Y-1941D01*
X27275Y-2036D01*
X26922Y-2036D01*
X26185Y-1299D01*
X26067Y-1220D01*
X25927Y-1192D01*
X25382Y-1192D01*
X25305Y-1115D01*
X25114Y-1035D01*
X24906Y-1035D01*
X24714Y-1114D01*
X24636Y-1192D01*
X24549Y-1192D01*
X24549Y-1192D01*
X24410Y-1220D01*
X24291Y-1299D01*
X24291Y-1299D01*
X24291Y-1299D01*
X23889Y-1701D01*
X23834Y-1783D01*
X23815Y-1775D01*
X23760Y-1775D01*
X23697Y-1837D01*
X23697Y-2250D01*
X23705Y-2250D01*
X23705Y-2350D01*
X23697Y-2350D01*
X23697Y-2763D01*
X23760Y-2826D01*
X23815Y-2826D01*
X23901Y-2790D01*
X23980Y-2823D01*
X24078Y-2823D01*
X24314Y-2823D01*
X24405Y-2785D01*
X24452Y-2738D01*
X24444Y-2757D01*
X24444Y-2869D01*
X24507Y-2932D01*
X24919Y-2932D01*
X24919Y-2619D01*
X24884Y-2584D01*
X24884Y-2367D01*
X24876Y-2367D01*
X24876Y-2267D01*
X24884Y-2267D01*
X24884Y-2259D01*
X24984Y-2259D01*
X24984Y-2267D01*
X24992Y-2267D01*
X24992Y-2367D01*
X24984Y-2367D01*
X24984Y-2779D01*
X25019Y-2814D01*
X25019Y-2932D01*
X25027Y-2932D01*
X25027Y-3032D01*
X25019Y-3032D01*
X25019Y-3040D01*
X24919Y-3040D01*
X24919Y-3032D01*
X24507Y-3032D01*
X24444Y-3094D01*
X24444Y-3206D01*
X24482Y-3298D01*
X24543Y-3359D01*
X24535Y-3367D01*
X23597Y-3367D01*
X23597Y-2763D01*
X23597Y-2350D01*
X23589Y-2350D01*
X23589Y-2250D01*
X23597Y-2250D01*
X23597Y-1837D01*
X23535Y-1775D01*
X23525Y-1775D01*
X23525Y-1765D01*
X23525Y-1215D01*
X23487Y-1125D01*
X23418Y-1055D01*
X23327Y-1018D01*
X23229Y-1017D01*
X22879Y-1017D01*
X22788Y-1055D01*
X22730Y-1113D01*
X22669Y-1052D01*
X22577Y-1014D01*
X22465Y-1014D01*
X22403Y-1077D01*
X22403Y-1489D01*
X22411Y-1489D01*
X22411Y-1589D01*
X22403Y-1589D01*
X22403Y-1597D01*
X22303Y-1597D01*
X22303Y-1589D01*
X22303Y-1489D01*
X22303Y-1077D01*
X22240Y-1014D01*
X22128Y-1014D01*
X22036Y-1052D01*
X21966Y-1123D01*
X21928Y-1214D01*
X21928Y-1314D01*
X21928Y-1427D01*
X21990Y-1489D01*
X22303Y-1489D01*
X22303Y-1589D01*
X21990Y-1589D01*
X21928Y-1652D01*
X21928Y-1765D01*
X21928Y-1864D01*
X21966Y-1956D01*
X22036Y-2026D01*
X22128Y-2064D01*
X22240Y-2064D01*
X22279Y-2026D01*
X22279Y-2074D01*
X22279Y-2188D01*
X22342Y-2250D01*
X22597Y-2250D01*
X22597Y-2242D01*
X22697Y-2242D01*
X22697Y-2250D01*
X22705Y-2250D01*
X22705Y-2350D01*
X22697Y-2350D01*
X22697Y-2763D01*
X22760Y-2826D01*
X22815Y-2826D01*
X22901Y-2790D01*
X22980Y-2823D01*
X23078Y-2823D01*
X23314Y-2823D01*
X23393Y-2790D01*
X23480Y-2826D01*
X23535Y-2826D01*
X23597Y-2763D01*
X23597Y-3367D01*
X22814Y-3367D01*
X22675Y-3395D01*
X22597Y-3447D01*
X22597Y-2763D01*
X22597Y-2350D01*
X22342Y-2350D01*
X22279Y-2413D01*
X22279Y-2526D01*
X22279Y-2626D01*
X22281Y-2631D01*
X22239Y-2589D01*
X22147Y-2550D01*
X22048Y-2550D01*
X21935Y-2550D01*
X21872Y-2613D01*
X21872Y-2925D01*
X22285Y-2925D01*
X22347Y-2863D01*
X22347Y-2751D01*
X22345Y-2745D01*
X22388Y-2788D01*
X22480Y-2826D01*
X22535Y-2826D01*
X22597Y-2763D01*
X22597Y-3447D01*
X22556Y-3474D01*
X22389Y-3641D01*
X22344Y-3708D01*
X22344Y-3501D01*
X22307Y-3411D01*
X22249Y-3353D01*
X22309Y-3292D01*
X22347Y-3200D01*
X22347Y-3088D01*
X22285Y-3025D01*
X21872Y-3025D01*
X21872Y-3033D01*
X21772Y-3033D01*
X21772Y-3025D01*
X21772Y-2925D01*
X21772Y-2613D01*
X21710Y-2550D01*
X21597Y-2550D01*
X21497Y-2550D01*
X21406Y-2589D01*
X21335Y-2659D01*
X21297Y-2751D01*
X21297Y-2863D01*
X21360Y-2925D01*
X21772Y-2925D01*
X21772Y-3025D01*
X21360Y-3025D01*
X21297Y-3088D01*
X21297Y-3200D01*
X21335Y-3292D01*
X21396Y-3353D01*
X21338Y-3410D01*
X21301Y-3501D01*
X21300Y-3599D01*
X21300Y-3652D01*
X20950Y-3652D01*
X20950Y-1367D01*
X20947Y-950D01*
X20793Y-578D01*
X20646Y-490D01*
X19969Y-1166D01*
X20646Y-1843D01*
X20793Y-1755D01*
X20950Y-1367D01*
X20950Y-3652D01*
X20866Y-3652D01*
X20789Y-3652D01*
X20575Y-3652D01*
X20575Y-1914D01*
X19898Y-1237D01*
X19828Y-1308D01*
X19828Y-1166D01*
X19151Y-490D01*
X19004Y-578D01*
X18847Y-965D01*
X18850Y-1383D01*
X19004Y-1755D01*
X19151Y-1843D01*
X19828Y-1166D01*
X19828Y-1308D01*
X19222Y-1914D01*
X19310Y-2061D01*
X19697Y-2218D01*
X20115Y-2215D01*
X20487Y-2061D01*
X20575Y-1914D01*
X20575Y-3652D01*
X18029Y-3652D01*
X17890Y-3680D01*
X17771Y-3759D01*
X17771Y-3759D01*
X17771Y-3759D01*
X16104Y-5426D01*
X16100Y-5426D01*
X16100Y-4923D01*
X16063Y-4832D01*
X15993Y-4762D01*
X15989Y-4761D01*
X16013Y-4751D01*
X16083Y-4681D01*
X16120Y-4591D01*
X16120Y-4493D01*
X16120Y-3943D01*
X16083Y-3852D01*
X16013Y-3782D01*
X15923Y-3745D01*
X15825Y-3745D01*
X15275Y-3745D01*
X15184Y-3782D01*
X15114Y-3851D01*
X15077Y-3942D01*
X15077Y-4040D01*
X15077Y-4381D01*
X14395Y-4381D01*
X14395Y-4348D01*
X14358Y-4257D01*
X14288Y-4187D01*
X14202Y-4151D01*
X14378Y-4151D01*
X14518Y-4124D01*
X14518Y-4124D01*
X14636Y-4044D01*
X15496Y-3184D01*
X15576Y-3066D01*
X15576Y-3066D01*
X15603Y-2926D01*
X15603Y-1918D01*
X15938Y-1583D01*
X16010Y-1759D01*
X16305Y-2053D01*
X16689Y-2213D01*
X17106Y-2213D01*
X17491Y-2054D01*
X17785Y-1760D01*
X17945Y-1376D01*
X17945Y-959D01*
X17786Y-574D01*
X17492Y-279D01*
X17460Y-266D01*
X19324Y-266D01*
X19310Y-272D01*
X19222Y-419D01*
X19898Y-1096D01*
X20575Y-419D01*
X20487Y-272D01*
X20472Y-266D01*
X32960Y-266D01*
X33113Y-419D01*
X32922Y-340D01*
X32431Y-340D01*
X31978Y-528D01*
X31867Y-694D01*
X32677Y-1504D01*
X32682Y-1498D01*
X32753Y-1569D01*
X32747Y-1574D01*
X33557Y-2384D01*
X33723Y-2273D01*
X33911Y-1819D01*
X33911Y-1328D01*
X33832Y-1138D01*
X33985Y-1291D01*
X33985Y-7135D01*
M02*
