M48
;DRILL file {Pcbnew (2013-07-07 BZR 4022)-stable} date 1/12/2015 10:14:06 AM
;FORMAT={-:-/ absolute / metric / decimal}
FMAT,2
METRIC,TZ
T1C0.600
T2C0.635
T3C0.813
T4C1.016
T5C3.048
T6C3.300
%
G90
G05
M71
T1
X40.48Y-60.
X45.56Y-60.
X50.64Y-60.
X55.72Y-60.
X56.38Y-53.7
X61.46Y-53.7
X62.15Y-16.25
X66.54Y-53.7
X67.15Y-16.25
X70.3Y-6.1
X70.3Y-11.1
X71.62Y-53.7
T2
X2.334Y-36.936
X2.651Y-26.459
X3.96Y-26.535
X3.96Y-37.
X6.957Y-35.476
X7.16Y-24.3
X11.7Y-13.7
X13.408Y-12.159
X13.459Y-18.001
X16.55Y-9.225
X17.575Y-8.525
X18.145Y-56.558
X18.209Y-59.352
X18.25Y-53.2
X19.504Y-33.444
X19.975Y-18.325
X20.419Y-35.222
X21.638Y-23.386
X21.892Y-9.873
X23.7Y-40.4
X23.775Y-25.475
X24.127Y-43.045
X24.432Y-18.763
X24.483Y-44.163
X26.007Y-14.343
X26.362Y-46.754
X27.632Y-46.652
X28.852Y-43.045
X28.9Y-32.
X30.426Y-42.385
X30.782Y-23.284
X31.1Y-20.1
X32.Y-18.55
X33.2Y-43.6
X33.95Y-27.2
X34.7Y-43.5
X35.3Y-28.45
X35.9Y-48.65
X36.179Y-24.427
X36.55Y-38.175
X39.037Y-41.508
X44.092Y-28.161
X44.95Y-50.2
X45.65Y-24.75
X47.3Y-19.55
X48.05Y-26.7
X50.1Y-28.45
X56.7Y-19.85
X57.05Y-41.95
X57.45Y-33.45
X58.25Y-45.3
X62.85Y-42.3
X64.8Y-38.75
X67.7Y-36.35
X70.45Y-37.95
X74.4Y-41.25
X76.2Y-24.85
X79.7Y-43.15
X82.25Y-44.05
X83.05Y-53.5
X83.55Y-21.6
X84.5Y-41.8
T3
X26.87Y-5.555
X26.87Y-8.095
X31.341Y-5.555
X31.341Y-8.095
X31.95Y-13.327
X32.001Y-10.838
X35.862Y-5.555
X35.862Y-8.095
X39.57Y-13.327
X39.621Y-10.838
X45.94Y-55.8
X53.56Y-55.8
X54.54Y-13.45
X59.99Y-49.5
X62.16Y-13.45
X63.525Y-3.956
X63.525Y-11.576
X67.61Y-49.5
T4
X9.954Y-21.252
X9.954Y-23.792
X9.954Y-26.332
X9.954Y-28.872
X9.954Y-31.412
X9.954Y-33.952
X9.954Y-36.492
X9.954Y-39.032
X9.954Y-41.572
X9.954Y-44.112
X9.954Y-46.652
X9.954Y-49.192
X9.954Y-51.732
X9.954Y-54.272
X9.954Y-56.812
X9.954Y-59.352
X12.494Y-21.252
X12.494Y-23.792
X12.494Y-26.332
X12.494Y-28.872
X12.494Y-31.412
X12.494Y-33.952
X12.494Y-36.492
X12.494Y-39.032
X12.494Y-41.572
X12.494Y-44.112
X12.494Y-46.652
X12.494Y-49.192
X12.494Y-51.732
X12.494Y-54.272
X12.494Y-56.812
X12.494Y-59.352
X17.323Y-38.46
X17.323Y-41.
X17.323Y-43.54
X20.571Y-1.694
X20.571Y-4.234
X22.248Y-47.922
X22.248Y-50.462
X23.111Y-1.694
X23.111Y-4.234
X35.049Y-12.057
X35.049Y-17.137
X42.435Y-52.95
X46.886Y-32.733
X46.886Y-35.273
X53.865Y-52.95
X72.16Y-18.05
X77.24Y-18.05
X77.76Y-7.85
X82.84Y-7.85
T5
X42.923Y-2.964
X50.543Y-2.964
X61.Y-60.
X68.Y-60.
X75.Y-60.
T6
X4.Y-4.
X4.Y-59.5
X83.Y-4.
X83.Y-60.
T0
M30
