G04 (created by PCBNEW (2013-07-07 BZR 4022)-stable) date Sun 21 Dec 2014 12:52:01 PM MSK*
%MOIN*%
G04 Gerber Fmt 3.4, Leading zero omitted, Abs format*
%FSLAX34Y34*%
G01*
G70*
G90*
G04 APERTURE LIST*
%ADD10C,0.00590551*%
%ADD11C,0.0039*%
%ADD12C,0.006*%
%ADD13C,0.01*%
%ADD14C,0.008*%
%ADD15C,0.0031*%
%ADD16C,0.005*%
%ADD17C,0.012*%
%ADD18C,0.015*%
%ADD19C,0.0059*%
%ADD20C,0.0079*%
%ADD21C,0.0043*%
%ADD22C,0.0035*%
%ADD23C,0.0047*%
%ADD24C,0.00492126*%
%ADD25C,0.00985*%
%ADD26C,0.19685*%
%ADD27R,0.055X0.035*%
%ADD28R,0.06X0.06*%
%ADD29C,0.06*%
%ADD30C,0.066*%
%ADD31R,0.06X0.0098*%
%ADD32O,0.06X0.0098*%
%ADD33O,0.0098X0.06*%
%ADD34R,0.0315X0.0394*%
%ADD35R,0.0394X0.0315*%
%ADD36R,0.0236X0.0551*%
%ADD37R,0.035X0.055*%
%ADD38C,0.0590551*%
%ADD39R,0.015748X0.0531496*%
%ADD40R,0.0787402X0.0629921*%
%ADD41R,0.0748031X0.0748031*%
%ADD42R,0.055X0.055*%
%ADD43C,0.055*%
%ADD44R,0.0433X0.0748*%
%ADD45R,0.07X0.07*%
%ADD46C,0.07*%
%ADD47C,0.16*%
%ADD48O,0.0098X0.0394*%
%ADD49O,0.0394X0.0098*%
%ADD50R,0.11811X0.11811*%
G04 APERTURE END LIST*
G54D10*
G54D11*
X14468Y-1536D02*
G75*
G03X14468Y-1536I-50J0D01*
G74*
G01*
X14418Y-1086D02*
X14418Y-1486D01*
X14418Y-1486D02*
X13818Y-1486D01*
X13818Y-1486D02*
X13818Y-1086D01*
X13818Y-686D02*
X13818Y-286D01*
X13818Y-286D02*
X14418Y-286D01*
X14418Y-286D02*
X14418Y-686D01*
X12688Y-1536D02*
G75*
G03X12688Y-1536I-50J0D01*
G74*
G01*
X12638Y-1086D02*
X12638Y-1486D01*
X12638Y-1486D02*
X12038Y-1486D01*
X12038Y-1486D02*
X12038Y-1086D01*
X12038Y-686D02*
X12038Y-286D01*
X12038Y-286D02*
X12638Y-286D01*
X12638Y-286D02*
X12638Y-686D01*
X10928Y-1536D02*
G75*
G03X10928Y-1536I-50J0D01*
G74*
G01*
X10878Y-1086D02*
X10878Y-1486D01*
X10878Y-1486D02*
X10278Y-1486D01*
X10278Y-1486D02*
X10278Y-1086D01*
X10278Y-686D02*
X10278Y-286D01*
X10278Y-286D02*
X10878Y-286D01*
X10878Y-286D02*
X10878Y-686D01*
X8448Y-3616D02*
G75*
G03X8448Y-3616I-50J0D01*
G74*
G01*
X8398Y-3166D02*
X8398Y-3566D01*
X8398Y-3566D02*
X7798Y-3566D01*
X7798Y-3566D02*
X7798Y-3166D01*
X7798Y-2766D02*
X7798Y-2366D01*
X7798Y-2366D02*
X8398Y-2366D01*
X8398Y-2366D02*
X8398Y-2766D01*
X9448Y-3616D02*
G75*
G03X9448Y-3616I-50J0D01*
G74*
G01*
X9398Y-3166D02*
X9398Y-3566D01*
X9398Y-3566D02*
X8798Y-3566D01*
X8798Y-3566D02*
X8798Y-3166D01*
X8798Y-2766D02*
X8798Y-2366D01*
X8798Y-2366D02*
X9398Y-2366D01*
X9398Y-2366D02*
X9398Y-2766D01*
G54D12*
X7598Y-166D02*
X8598Y-166D01*
X8598Y-166D02*
X8598Y-2166D01*
X8598Y-2166D02*
X7598Y-2166D01*
X7598Y-2166D02*
X7598Y-166D01*
X8598Y-166D02*
X9598Y-166D01*
X9598Y-166D02*
X9598Y-2166D01*
X9598Y-2166D02*
X8598Y-2166D01*
X8598Y-2166D02*
X8598Y-166D01*
G54D13*
X14618Y-1966D02*
X13618Y-1966D01*
G54D12*
X13734Y-3047D02*
G75*
G03X14118Y-3186I384J460D01*
G74*
G01*
X14118Y-3186D02*
G75*
G03X14516Y-3035I0J599D01*
G74*
G01*
X14118Y-1987D02*
G75*
G03X13728Y-2131I0J-599D01*
G74*
G01*
X14502Y-2125D02*
G75*
G03X14118Y-1986I-384J-460D01*
G74*
G01*
X13769Y-2099D02*
G75*
G03X13518Y-2586I349J-487D01*
G74*
G01*
X13518Y-2586D02*
G75*
G03X13758Y-3066I600J0D01*
G74*
G01*
X14718Y-2586D02*
G75*
G03X14487Y-2114I-599J0D01*
G74*
G01*
X14487Y-3060D02*
G75*
G03X14718Y-2586I-368J473D01*
G74*
G01*
X13868Y-2586D02*
G75*
G03X14118Y-2836I250J0D01*
G74*
G01*
X13718Y-2586D02*
G75*
G03X14118Y-2986I400J0D01*
G74*
G01*
X14368Y-2586D02*
G75*
G03X14118Y-2336I-250J0D01*
G74*
G01*
X14518Y-2586D02*
G75*
G03X14118Y-2186I-400J0D01*
G74*
G01*
G54D13*
X13605Y-1973D02*
G75*
G03X13318Y-2586I513J-613D01*
G74*
G01*
X13319Y-2586D02*
G75*
G03X13742Y-3291I799J0D01*
G74*
G01*
X14917Y-2585D02*
G75*
G03X14634Y-1976I-798J-1D01*
G74*
G01*
X14516Y-3281D02*
G75*
G03X14918Y-2586I-397J694D01*
G74*
G01*
X13739Y-3291D02*
G75*
G03X14118Y-3386I379J704D01*
G74*
G01*
X14118Y-3386D02*
G75*
G03X14537Y-3267I0J799D01*
G74*
G01*
X12838Y-1966D02*
X11838Y-1966D01*
G54D12*
X11954Y-3047D02*
G75*
G03X12338Y-3186I384J460D01*
G74*
G01*
X12338Y-3186D02*
G75*
G03X12736Y-3035I0J599D01*
G74*
G01*
X12338Y-1987D02*
G75*
G03X11948Y-2131I0J-599D01*
G74*
G01*
X12722Y-2125D02*
G75*
G03X12338Y-1986I-384J-460D01*
G74*
G01*
X11989Y-2099D02*
G75*
G03X11738Y-2586I349J-487D01*
G74*
G01*
X11738Y-2586D02*
G75*
G03X11978Y-3066I600J0D01*
G74*
G01*
X12938Y-2586D02*
G75*
G03X12707Y-2114I-599J0D01*
G74*
G01*
X12707Y-3060D02*
G75*
G03X12938Y-2586I-368J473D01*
G74*
G01*
X12088Y-2586D02*
G75*
G03X12338Y-2836I250J0D01*
G74*
G01*
X11938Y-2586D02*
G75*
G03X12338Y-2986I400J0D01*
G74*
G01*
X12588Y-2586D02*
G75*
G03X12338Y-2336I-250J0D01*
G74*
G01*
X12738Y-2586D02*
G75*
G03X12338Y-2186I-400J0D01*
G74*
G01*
G54D13*
X11825Y-1973D02*
G75*
G03X11538Y-2586I513J-613D01*
G74*
G01*
X11539Y-2586D02*
G75*
G03X11962Y-3291I799J0D01*
G74*
G01*
X13137Y-2585D02*
G75*
G03X12854Y-1976I-798J-1D01*
G74*
G01*
X12736Y-3281D02*
G75*
G03X13138Y-2586I-397J694D01*
G74*
G01*
X11959Y-3291D02*
G75*
G03X12338Y-3386I379J704D01*
G74*
G01*
X12338Y-3386D02*
G75*
G03X12757Y-3267I0J799D01*
G74*
G01*
X11078Y-1966D02*
X10078Y-1966D01*
G54D12*
X10194Y-3047D02*
G75*
G03X10578Y-3186I384J460D01*
G74*
G01*
X10578Y-3186D02*
G75*
G03X10976Y-3035I0J599D01*
G74*
G01*
X10578Y-1987D02*
G75*
G03X10188Y-2131I0J-599D01*
G74*
G01*
X10962Y-2125D02*
G75*
G03X10578Y-1986I-384J-460D01*
G74*
G01*
X10229Y-2099D02*
G75*
G03X9978Y-2586I349J-487D01*
G74*
G01*
X9978Y-2586D02*
G75*
G03X10218Y-3066I600J0D01*
G74*
G01*
X11178Y-2586D02*
G75*
G03X10947Y-2114I-599J0D01*
G74*
G01*
X10947Y-3060D02*
G75*
G03X11178Y-2586I-368J473D01*
G74*
G01*
X10328Y-2586D02*
G75*
G03X10578Y-2836I250J0D01*
G74*
G01*
X10178Y-2586D02*
G75*
G03X10578Y-2986I400J0D01*
G74*
G01*
X10828Y-2586D02*
G75*
G03X10578Y-2336I-250J0D01*
G74*
G01*
X10978Y-2586D02*
G75*
G03X10578Y-2186I-400J0D01*
G74*
G01*
G54D13*
X10065Y-1973D02*
G75*
G03X9778Y-2586I513J-613D01*
G74*
G01*
X9779Y-2586D02*
G75*
G03X10202Y-3291I799J0D01*
G74*
G01*
X11377Y-2585D02*
G75*
G03X11094Y-1976I-798J-1D01*
G74*
G01*
X10976Y-3281D02*
G75*
G03X11378Y-2586I-397J694D01*
G74*
G01*
X10199Y-3291D02*
G75*
G03X10578Y-3386I379J704D01*
G74*
G01*
X10578Y-3386D02*
G75*
G03X10997Y-3267I0J799D01*
G74*
G01*
G54D14*
X13016Y-14786D02*
G75*
G03X13016Y-14786I-150J0D01*
G74*
G01*
X9266Y-11186D02*
X9266Y-15186D01*
X9266Y-15186D02*
X13016Y-15186D01*
X13016Y-15186D02*
X13266Y-14936D01*
X13266Y-14936D02*
X13266Y-11186D01*
X13266Y-11186D02*
X9266Y-11186D01*
G54D15*
X14498Y-10104D02*
G75*
G03X14498Y-10104I-62J0D01*
G74*
G01*
X15398Y-9766D02*
X15398Y-10166D01*
X14373Y-9766D02*
X14373Y-10166D01*
X15398Y-10166D02*
X14373Y-10166D01*
X14373Y-9766D02*
X15398Y-9766D01*
X13843Y-8323D02*
G75*
G03X13843Y-8323I-62J0D01*
G74*
G01*
X14118Y-9286D02*
X13718Y-9286D01*
X14118Y-8261D02*
X13718Y-8261D01*
X13718Y-9286D02*
X13718Y-8261D01*
X14118Y-8261D02*
X14118Y-9286D01*
G54D16*
X24447Y-2650D02*
X24447Y-2600D01*
X24447Y-2600D02*
X22347Y-2600D01*
X22347Y-4100D02*
X24447Y-4100D01*
X24447Y-4100D02*
X24447Y-2650D01*
X24447Y-3550D02*
X24247Y-3550D01*
X24247Y-3550D02*
X24247Y-3150D01*
X24247Y-3150D02*
X24447Y-3150D01*
X22347Y-4100D02*
X22347Y-2600D01*
G54D11*
X21348Y-8836D02*
G75*
G03X21348Y-8836I-50J0D01*
G74*
G01*
X21298Y-8386D02*
X21298Y-8786D01*
X21298Y-8786D02*
X20698Y-8786D01*
X20698Y-8786D02*
X20698Y-8386D01*
X20698Y-7986D02*
X20698Y-7586D01*
X20698Y-7586D02*
X21298Y-7586D01*
X21298Y-7586D02*
X21298Y-7986D01*
X23696Y-9409D02*
G75*
G03X23696Y-9409I-50J0D01*
G74*
G01*
X23646Y-8959D02*
X23646Y-9359D01*
X23646Y-9359D02*
X23046Y-9359D01*
X23046Y-9359D02*
X23046Y-8959D01*
X23046Y-8559D02*
X23046Y-8159D01*
X23046Y-8159D02*
X23646Y-8159D01*
X23646Y-8159D02*
X23646Y-8559D01*
X20588Y-8836D02*
G75*
G03X20588Y-8836I-50J0D01*
G74*
G01*
X20538Y-8386D02*
X20538Y-8786D01*
X20538Y-8786D02*
X19938Y-8786D01*
X19938Y-8786D02*
X19938Y-8386D01*
X19938Y-7986D02*
X19938Y-7586D01*
X19938Y-7586D02*
X20538Y-7586D01*
X20538Y-7586D02*
X20538Y-7986D01*
X18558Y-8486D02*
G75*
G03X18558Y-8486I-50J0D01*
G74*
G01*
X18958Y-8486D02*
X18558Y-8486D01*
X18558Y-8486D02*
X18558Y-7886D01*
X18558Y-7886D02*
X18958Y-7886D01*
X19358Y-7886D02*
X19758Y-7886D01*
X19758Y-7886D02*
X19758Y-8486D01*
X19758Y-8486D02*
X19358Y-8486D01*
X16268Y-9176D02*
G75*
G03X16268Y-9176I-50J0D01*
G74*
G01*
X16218Y-8726D02*
X16218Y-9126D01*
X16218Y-9126D02*
X15618Y-9126D01*
X15618Y-9126D02*
X15618Y-8726D01*
X15618Y-8326D02*
X15618Y-7926D01*
X15618Y-7926D02*
X16218Y-7926D01*
X16218Y-7926D02*
X16218Y-8326D01*
X22909Y-9409D02*
G75*
G03X22909Y-9409I-50J0D01*
G74*
G01*
X22859Y-8959D02*
X22859Y-9359D01*
X22859Y-9359D02*
X22259Y-9359D01*
X22259Y-9359D02*
X22259Y-8959D01*
X22259Y-8559D02*
X22259Y-8159D01*
X22259Y-8159D02*
X22859Y-8159D01*
X22859Y-8159D02*
X22859Y-8559D01*
X22161Y-9567D02*
G75*
G03X22161Y-9567I-50J0D01*
G74*
G01*
X22111Y-9117D02*
X22111Y-9517D01*
X22111Y-9517D02*
X21511Y-9517D01*
X21511Y-9517D02*
X21511Y-9117D01*
X21511Y-8717D02*
X21511Y-8317D01*
X21511Y-8317D02*
X22111Y-8317D01*
X22111Y-8317D02*
X22111Y-8717D01*
X18558Y-9206D02*
G75*
G03X18558Y-9206I-50J0D01*
G74*
G01*
X18958Y-9206D02*
X18558Y-9206D01*
X18558Y-9206D02*
X18558Y-8606D01*
X18558Y-8606D02*
X18958Y-8606D01*
X19358Y-8606D02*
X19758Y-8606D01*
X19758Y-8606D02*
X19758Y-9206D01*
X19758Y-9206D02*
X19358Y-9206D01*
X17008Y-9176D02*
G75*
G03X17008Y-9176I-50J0D01*
G74*
G01*
X16958Y-8726D02*
X16958Y-9126D01*
X16958Y-9126D02*
X16358Y-9126D01*
X16358Y-9126D02*
X16358Y-8726D01*
X16358Y-8326D02*
X16358Y-7926D01*
X16358Y-7926D02*
X16958Y-7926D01*
X16958Y-7926D02*
X16958Y-8326D01*
X10503Y-6392D02*
G75*
G03X10503Y-6392I-50J0D01*
G74*
G01*
X10003Y-6392D02*
X10403Y-6392D01*
X10403Y-6392D02*
X10403Y-6992D01*
X10403Y-6992D02*
X10003Y-6992D01*
X9603Y-6992D02*
X9203Y-6992D01*
X9203Y-6992D02*
X9203Y-6392D01*
X9203Y-6392D02*
X9603Y-6392D01*
X9468Y-18356D02*
G75*
G03X9468Y-18356I-50J0D01*
G74*
G01*
X9418Y-18806D02*
X9418Y-18406D01*
X9418Y-18406D02*
X10018Y-18406D01*
X10018Y-18406D02*
X10018Y-18806D01*
X10018Y-19206D02*
X10018Y-19606D01*
X10018Y-19606D02*
X9418Y-19606D01*
X9418Y-19606D02*
X9418Y-19206D01*
X25207Y-8656D02*
G75*
G03X25207Y-8656I-50J0D01*
G74*
G01*
X24707Y-8656D02*
X25107Y-8656D01*
X25107Y-8656D02*
X25107Y-9256D01*
X25107Y-9256D02*
X24707Y-9256D01*
X24307Y-9256D02*
X23907Y-9256D01*
X23907Y-9256D02*
X23907Y-8656D01*
X23907Y-8656D02*
X24307Y-8656D01*
X5718Y-23666D02*
G75*
G03X5718Y-23666I-50J0D01*
G74*
G01*
X6118Y-23666D02*
X5718Y-23666D01*
X5718Y-23666D02*
X5718Y-23066D01*
X5718Y-23066D02*
X6118Y-23066D01*
X6518Y-23066D02*
X6918Y-23066D01*
X6918Y-23066D02*
X6918Y-23666D01*
X6918Y-23666D02*
X6518Y-23666D01*
X5718Y-22566D02*
G75*
G03X5718Y-22566I-50J0D01*
G74*
G01*
X6118Y-22566D02*
X5718Y-22566D01*
X5718Y-22566D02*
X5718Y-21966D01*
X5718Y-21966D02*
X6118Y-21966D01*
X6518Y-21966D02*
X6918Y-21966D01*
X6918Y-21966D02*
X6918Y-22566D01*
X6918Y-22566D02*
X6518Y-22566D01*
X26079Y-4007D02*
G75*
G03X26079Y-4007I-50J0D01*
G74*
G01*
X26029Y-3557D02*
X26029Y-3957D01*
X26029Y-3957D02*
X25429Y-3957D01*
X25429Y-3957D02*
X25429Y-3557D01*
X25429Y-3157D02*
X25429Y-2757D01*
X25429Y-2757D02*
X26029Y-2757D01*
X26029Y-2757D02*
X26029Y-3157D01*
X9163Y-10320D02*
G75*
G03X9163Y-10320I-50J0D01*
G74*
G01*
X8663Y-10320D02*
X9063Y-10320D01*
X9063Y-10320D02*
X9063Y-10920D01*
X9063Y-10920D02*
X8663Y-10920D01*
X8263Y-10920D02*
X7863Y-10920D01*
X7863Y-10920D02*
X7863Y-10320D01*
X7863Y-10320D02*
X8263Y-10320D01*
X15598Y-10866D02*
G75*
G03X15598Y-10866I-50J0D01*
G74*
G01*
X15098Y-10866D02*
X15498Y-10866D01*
X15498Y-10866D02*
X15498Y-11466D01*
X15498Y-11466D02*
X15098Y-11466D01*
X14698Y-11466D02*
X14298Y-11466D01*
X14298Y-11466D02*
X14298Y-10866D01*
X14298Y-10866D02*
X14698Y-10866D01*
X23641Y-13272D02*
G75*
G03X23641Y-13272I-50J0D01*
G74*
G01*
X23591Y-13722D02*
X23591Y-13322D01*
X23591Y-13322D02*
X24191Y-13322D01*
X24191Y-13322D02*
X24191Y-13722D01*
X24191Y-14122D02*
X24191Y-14522D01*
X24191Y-14522D02*
X23591Y-14522D01*
X23591Y-14522D02*
X23591Y-14122D01*
X24429Y-13272D02*
G75*
G03X24429Y-13272I-50J0D01*
G74*
G01*
X24379Y-13722D02*
X24379Y-13322D01*
X24379Y-13322D02*
X24979Y-13322D01*
X24979Y-13322D02*
X24979Y-13722D01*
X24979Y-14122D02*
X24979Y-14522D01*
X24979Y-14522D02*
X24379Y-14522D01*
X24379Y-14522D02*
X24379Y-14122D01*
X13068Y-9436D02*
G75*
G03X13068Y-9436I-50J0D01*
G74*
G01*
X13018Y-8986D02*
X13018Y-9386D01*
X13018Y-9386D02*
X12418Y-9386D01*
X12418Y-9386D02*
X12418Y-8986D01*
X12418Y-8586D02*
X12418Y-8186D01*
X12418Y-8186D02*
X13018Y-8186D01*
X13018Y-8186D02*
X13018Y-8586D01*
X15978Y-13566D02*
G75*
G03X15978Y-13566I-50J0D01*
G74*
G01*
X15478Y-13566D02*
X15878Y-13566D01*
X15878Y-13566D02*
X15878Y-14166D01*
X15878Y-14166D02*
X15478Y-14166D01*
X15078Y-14166D02*
X14678Y-14166D01*
X14678Y-14166D02*
X14678Y-13566D01*
X14678Y-13566D02*
X15078Y-13566D01*
X16138Y-16186D02*
G75*
G03X16138Y-16186I-50J0D01*
G74*
G01*
X16538Y-16186D02*
X16138Y-16186D01*
X16138Y-16186D02*
X16138Y-15586D01*
X16138Y-15586D02*
X16538Y-15586D01*
X16938Y-15586D02*
X17338Y-15586D01*
X17338Y-15586D02*
X17338Y-16186D01*
X17338Y-16186D02*
X16938Y-16186D01*
X17878Y-12426D02*
G75*
G03X17878Y-12426I-50J0D01*
G74*
G01*
X17378Y-12426D02*
X17778Y-12426D01*
X17778Y-12426D02*
X17778Y-13026D01*
X17778Y-13026D02*
X17378Y-13026D01*
X16978Y-13026D02*
X16578Y-13026D01*
X16578Y-13026D02*
X16578Y-12426D01*
X16578Y-12426D02*
X16978Y-12426D01*
X19698Y-11646D02*
G75*
G03X19698Y-11646I-50J0D01*
G74*
G01*
X19198Y-11646D02*
X19598Y-11646D01*
X19598Y-11646D02*
X19598Y-12246D01*
X19598Y-12246D02*
X19198Y-12246D01*
X18798Y-12246D02*
X18398Y-12246D01*
X18398Y-12246D02*
X18398Y-11646D01*
X18398Y-11646D02*
X18798Y-11646D01*
X18278Y-11646D02*
G75*
G03X18278Y-11646I-50J0D01*
G74*
G01*
X17778Y-11646D02*
X18178Y-11646D01*
X18178Y-11646D02*
X18178Y-12246D01*
X18178Y-12246D02*
X17778Y-12246D01*
X17378Y-12246D02*
X16978Y-12246D01*
X16978Y-12246D02*
X16978Y-11646D01*
X16978Y-11646D02*
X17378Y-11646D01*
X9163Y-9532D02*
G75*
G03X9163Y-9532I-50J0D01*
G74*
G01*
X8663Y-9532D02*
X9063Y-9532D01*
X9063Y-9532D02*
X9063Y-10132D01*
X9063Y-10132D02*
X8663Y-10132D01*
X8263Y-10132D02*
X7863Y-10132D01*
X7863Y-10132D02*
X7863Y-9532D01*
X7863Y-9532D02*
X8263Y-9532D01*
X8489Y-15285D02*
G75*
G03X8489Y-15285I-50J0D01*
G74*
G01*
X8439Y-15735D02*
X8439Y-15335D01*
X8439Y-15335D02*
X9039Y-15335D01*
X9039Y-15335D02*
X9039Y-15735D01*
X9039Y-16135D02*
X9039Y-16535D01*
X9039Y-16535D02*
X8439Y-16535D01*
X8439Y-16535D02*
X8439Y-16135D01*
X12391Y-10172D02*
G75*
G03X12391Y-10172I-50J0D01*
G74*
G01*
X12791Y-10172D02*
X12391Y-10172D01*
X12391Y-10172D02*
X12391Y-9572D01*
X12391Y-9572D02*
X12791Y-9572D01*
X13191Y-9572D02*
X13591Y-9572D01*
X13591Y-9572D02*
X13591Y-10172D01*
X13591Y-10172D02*
X13191Y-10172D01*
X13375Y-15959D02*
G75*
G03X13375Y-15959I-50J0D01*
G74*
G01*
X13775Y-15959D02*
X13375Y-15959D01*
X13375Y-15959D02*
X13375Y-15359D01*
X13375Y-15359D02*
X13775Y-15359D01*
X14175Y-15359D02*
X14575Y-15359D01*
X14575Y-15359D02*
X14575Y-15959D01*
X14575Y-15959D02*
X14175Y-15959D01*
X15601Y-11589D02*
G75*
G03X15601Y-11589I-50J0D01*
G74*
G01*
X15101Y-11589D02*
X15501Y-11589D01*
X15501Y-11589D02*
X15501Y-12189D01*
X15501Y-12189D02*
X15101Y-12189D01*
X14701Y-12189D02*
X14301Y-12189D01*
X14301Y-12189D02*
X14301Y-11589D01*
X14301Y-11589D02*
X14701Y-11589D01*
X4478Y-4866D02*
G75*
G03X4478Y-4866I-50J0D01*
G74*
G01*
X3978Y-4866D02*
X4378Y-4866D01*
X4378Y-4866D02*
X4378Y-5466D01*
X4378Y-5466D02*
X3978Y-5466D01*
X3578Y-5466D02*
X3178Y-5466D01*
X3178Y-5466D02*
X3178Y-4866D01*
X3178Y-4866D02*
X3578Y-4866D01*
X5378Y-3266D02*
G75*
G03X5378Y-3266I-50J0D01*
G74*
G01*
X4878Y-3266D02*
X5278Y-3266D01*
X5278Y-3266D02*
X5278Y-3866D01*
X5278Y-3866D02*
X4878Y-3866D01*
X4478Y-3866D02*
X4078Y-3866D01*
X4078Y-3866D02*
X4078Y-3266D01*
X4078Y-3266D02*
X4478Y-3266D01*
X5158Y-4086D02*
G75*
G03X5158Y-4086I-50J0D01*
G74*
G01*
X4658Y-4086D02*
X5058Y-4086D01*
X5058Y-4086D02*
X5058Y-4686D01*
X5058Y-4686D02*
X4658Y-4686D01*
X4258Y-4686D02*
X3858Y-4686D01*
X3858Y-4686D02*
X3858Y-4086D01*
X3858Y-4086D02*
X4258Y-4086D01*
X5018Y-5726D02*
G75*
G03X5018Y-5726I-50J0D01*
G74*
G01*
X4518Y-5726D02*
X4918Y-5726D01*
X4918Y-5726D02*
X4918Y-6326D01*
X4918Y-6326D02*
X4518Y-6326D01*
X4118Y-6326D02*
X3718Y-6326D01*
X3718Y-6326D02*
X3718Y-5726D01*
X3718Y-5726D02*
X4118Y-5726D01*
X5018Y-6466D02*
G75*
G03X5018Y-6466I-50J0D01*
G74*
G01*
X4518Y-6466D02*
X4918Y-6466D01*
X4918Y-6466D02*
X4918Y-7066D01*
X4918Y-7066D02*
X4518Y-7066D01*
X4118Y-7066D02*
X3718Y-7066D01*
X3718Y-7066D02*
X3718Y-6466D01*
X3718Y-6466D02*
X4118Y-6466D01*
X25319Y-4007D02*
G75*
G03X25319Y-4007I-50J0D01*
G74*
G01*
X25269Y-3557D02*
X25269Y-3957D01*
X25269Y-3957D02*
X24669Y-3957D01*
X24669Y-3957D02*
X24669Y-3557D01*
X24669Y-3157D02*
X24669Y-2757D01*
X24669Y-2757D02*
X25269Y-2757D01*
X25269Y-2757D02*
X25269Y-3157D01*
X26009Y-2017D02*
G75*
G03X26009Y-2017I-50J0D01*
G74*
G01*
X25509Y-2017D02*
X25909Y-2017D01*
X25909Y-2017D02*
X25909Y-2617D01*
X25909Y-2617D02*
X25509Y-2617D01*
X25109Y-2617D02*
X24709Y-2617D01*
X24709Y-2617D02*
X24709Y-2017D01*
X24709Y-2017D02*
X25109Y-2017D01*
X23428Y-1239D02*
G75*
G03X23428Y-1239I-50J0D01*
G74*
G01*
X22928Y-1239D02*
X23328Y-1239D01*
X23328Y-1239D02*
X23328Y-1839D01*
X23328Y-1839D02*
X22928Y-1839D01*
X22528Y-1839D02*
X22128Y-1839D01*
X22128Y-1839D02*
X22128Y-1239D01*
X22128Y-1239D02*
X22528Y-1239D01*
X22172Y-4000D02*
G75*
G03X22172Y-4000I-50J0D01*
G74*
G01*
X22122Y-3550D02*
X22122Y-3950D01*
X22122Y-3950D02*
X21522Y-3950D01*
X21522Y-3950D02*
X21522Y-3550D01*
X21522Y-3150D02*
X21522Y-2750D01*
X21522Y-2750D02*
X22122Y-2750D01*
X22122Y-2750D02*
X22122Y-3150D01*
X24097Y-4940D02*
G75*
G03X24097Y-4940I-50J0D01*
G74*
G01*
X23597Y-4940D02*
X23997Y-4940D01*
X23997Y-4940D02*
X23997Y-5540D01*
X23997Y-5540D02*
X23597Y-5540D01*
X23197Y-5540D02*
X22797Y-5540D01*
X22797Y-5540D02*
X22797Y-4940D01*
X22797Y-4940D02*
X23197Y-4940D01*
X18578Y-10446D02*
G75*
G03X18578Y-10446I-50J0D01*
G74*
G01*
X18978Y-10446D02*
X18578Y-10446D01*
X18578Y-10446D02*
X18578Y-9846D01*
X18578Y-9846D02*
X18978Y-9846D01*
X19378Y-9846D02*
X19778Y-9846D01*
X19778Y-9846D02*
X19778Y-10446D01*
X19778Y-10446D02*
X19378Y-10446D01*
X17238Y-8486D02*
G75*
G03X17238Y-8486I-50J0D01*
G74*
G01*
X17638Y-8486D02*
X17238Y-8486D01*
X17238Y-8486D02*
X17238Y-7886D01*
X17238Y-7886D02*
X17638Y-7886D01*
X18038Y-7886D02*
X18438Y-7886D01*
X18438Y-7886D02*
X18438Y-8486D01*
X18438Y-8486D02*
X18038Y-8486D01*
X16378Y-9846D02*
G75*
G03X16378Y-9846I-50J0D01*
G74*
G01*
X16778Y-9846D02*
X16378Y-9846D01*
X16378Y-9846D02*
X16378Y-9246D01*
X16378Y-9246D02*
X16778Y-9246D01*
X17178Y-9246D02*
X17578Y-9246D01*
X17578Y-9246D02*
X17578Y-9846D01*
X17578Y-9846D02*
X17178Y-9846D01*
X16268Y-10516D02*
G75*
G03X16268Y-10516I-50J0D01*
G74*
G01*
X16218Y-10066D02*
X16218Y-10466D01*
X16218Y-10466D02*
X15618Y-10466D01*
X15618Y-10466D02*
X15618Y-10066D01*
X15618Y-9666D02*
X15618Y-9266D01*
X15618Y-9266D02*
X16218Y-9266D01*
X16218Y-9266D02*
X16218Y-9666D01*
X19988Y-8896D02*
G75*
G03X19988Y-8896I-50J0D01*
G74*
G01*
X19938Y-9346D02*
X19938Y-8946D01*
X19938Y-8946D02*
X20538Y-8946D01*
X20538Y-8946D02*
X20538Y-9346D01*
X20538Y-9746D02*
X20538Y-10146D01*
X20538Y-10146D02*
X19938Y-10146D01*
X19938Y-10146D02*
X19938Y-9746D01*
X20748Y-8896D02*
G75*
G03X20748Y-8896I-50J0D01*
G74*
G01*
X20698Y-9346D02*
X20698Y-8946D01*
X20698Y-8946D02*
X21298Y-8946D01*
X21298Y-8946D02*
X21298Y-9346D01*
X21298Y-9746D02*
X21298Y-10146D01*
X21298Y-10146D02*
X20698Y-10146D01*
X20698Y-10146D02*
X20698Y-9746D01*
G54D10*
X29311Y-3385D02*
G75*
G03X29311Y-3385I-1633J0D01*
G74*
G01*
X27086Y-6397D02*
G75*
G03X27086Y-6397I-1633J0D01*
G74*
G01*
G54D12*
X5418Y-23866D02*
X4418Y-23866D01*
X4418Y-23866D02*
X4418Y-20866D01*
X4418Y-20866D02*
X5418Y-20866D01*
X5418Y-20866D02*
X5418Y-23866D01*
X4418Y-22866D02*
X5418Y-22866D01*
X6320Y-14641D02*
X7320Y-14641D01*
X7320Y-14641D02*
X7320Y-17641D01*
X7320Y-17641D02*
X6320Y-17641D01*
X6320Y-17641D02*
X6320Y-14641D01*
X7320Y-15641D02*
X6320Y-15641D01*
X4418Y-23866D02*
X3418Y-23866D01*
X3418Y-23866D02*
X3418Y-20866D01*
X3418Y-20866D02*
X4418Y-20866D01*
X4418Y-20866D02*
X4418Y-23866D01*
X3418Y-22866D02*
X4418Y-22866D01*
X9258Y-20366D02*
X8258Y-20366D01*
X8258Y-20366D02*
X8258Y-18366D01*
X8258Y-18366D02*
X9258Y-18366D01*
X9258Y-18366D02*
X9258Y-20366D01*
X17958Y-12386D02*
X18958Y-12386D01*
X18958Y-12386D02*
X18958Y-14386D01*
X18958Y-14386D02*
X17958Y-14386D01*
X17958Y-14386D02*
X17958Y-12386D01*
G54D10*
X7331Y236D02*
X7331Y-2913D01*
X7331Y-2913D02*
X3552Y-2913D01*
X3552Y-2913D02*
X3552Y236D01*
X7331Y236D02*
X3552Y236D01*
G54D16*
X16641Y-15398D02*
X16875Y-15398D01*
X17421Y-14540D02*
X17421Y-14072D01*
X16641Y-13214D02*
X16875Y-13214D01*
X16095Y-14540D02*
X16095Y-14072D01*
G54D17*
X33809Y-3090D02*
G75*
G03X33809Y-3090I-2195J0D01*
G74*
G01*
X31604Y-7106D02*
G75*
G03X31604Y-7106I-2195J0D01*
G74*
G01*
X15994Y-5746D02*
G75*
G03X15994Y-5746I-2195J0D01*
G74*
G01*
G54D18*
X20798Y-1166D02*
G75*
G03X20798Y-1166I-900J0D01*
G74*
G01*
X17798Y-1166D02*
G75*
G03X17798Y-1166I-900J0D01*
G74*
G01*
X30518Y-18566D02*
G75*
G03X30518Y-18566I-900J0D01*
G74*
G01*
X27718Y-18566D02*
G75*
G03X27718Y-18566I-900J0D01*
G74*
G01*
X24918Y-18566D02*
G75*
G03X24918Y-18566I-900J0D01*
G74*
G01*
G54D10*
X26057Y-13174D02*
X26057Y-9828D01*
X21962Y-13174D02*
X21962Y-9828D01*
X21962Y-11403D02*
X26057Y-11403D01*
X21962Y-9828D02*
X26057Y-9828D01*
X21962Y-13174D02*
X26057Y-13174D01*
X31263Y-9507D02*
X31263Y-16318D01*
X33263Y-9507D02*
X33263Y-16318D01*
X33263Y-16318D02*
X31263Y-16318D01*
X33263Y-9507D02*
X31263Y-9507D01*
X28645Y-9547D02*
X28645Y-16358D01*
X30645Y-9547D02*
X30645Y-16358D01*
X30645Y-16358D02*
X28645Y-16358D01*
X30645Y-9547D02*
X28645Y-9547D01*
X24980Y-14787D02*
X18169Y-14787D01*
X24980Y-16787D02*
X18169Y-16787D01*
X18169Y-16787D02*
X18169Y-14787D01*
X24980Y-16787D02*
X24980Y-14787D01*
G54D11*
X6471Y-6928D02*
G75*
G03X6471Y-6928I-50J0D01*
G74*
G01*
X6421Y-7378D02*
X6421Y-6978D01*
X6421Y-6978D02*
X7021Y-6978D01*
X7021Y-6978D02*
X7021Y-7378D01*
X7021Y-7778D02*
X7021Y-8178D01*
X7021Y-8178D02*
X6421Y-8178D01*
X6421Y-8178D02*
X6421Y-7778D01*
G54D19*
X5461Y-4251D02*
X5461Y-6771D01*
X5461Y-6771D02*
X7981Y-6771D01*
X7981Y-6771D02*
X7981Y-4645D01*
X7981Y-4645D02*
X7587Y-4251D01*
X7587Y-4251D02*
X5461Y-4251D01*
G54D20*
X7705Y-4724D02*
X7705Y-4527D01*
X7705Y-4527D02*
X7508Y-4527D01*
X7508Y-6495D02*
X7705Y-6495D01*
X7705Y-6495D02*
X7705Y-6298D01*
X5737Y-6298D02*
X5737Y-6495D01*
X5737Y-6495D02*
X5934Y-6495D01*
X5934Y-4527D02*
X5737Y-4527D01*
X5737Y-4527D02*
X5737Y-4724D01*
G54D11*
X6979Y-19680D02*
G75*
G03X6979Y-19680I-50J0D01*
G74*
G01*
X6479Y-19680D02*
X6879Y-19680D01*
X6879Y-19680D02*
X6879Y-20280D01*
X6879Y-20280D02*
X6479Y-20280D01*
X6079Y-20280D02*
X5679Y-20280D01*
X5679Y-20280D02*
X5679Y-19680D01*
X5679Y-19680D02*
X6079Y-19680D01*
X6979Y-20664D02*
G75*
G03X6979Y-20664I-50J0D01*
G74*
G01*
X6479Y-20664D02*
X6879Y-20664D01*
X6879Y-20664D02*
X6879Y-21264D01*
X6879Y-21264D02*
X6479Y-21264D01*
X6079Y-21264D02*
X5679Y-21264D01*
X5679Y-21264D02*
X5679Y-20664D01*
X5679Y-20664D02*
X6079Y-20664D01*
X7018Y-17987D02*
G75*
G03X7018Y-17987I-50J0D01*
G74*
G01*
X6518Y-17987D02*
X6918Y-17987D01*
X6918Y-17987D02*
X6918Y-18587D01*
X6918Y-18587D02*
X6518Y-18587D01*
X6118Y-18587D02*
X5718Y-18587D01*
X5718Y-18587D02*
X5718Y-17987D01*
X5718Y-17987D02*
X6118Y-17987D01*
X7018Y-8566D02*
G75*
G03X7018Y-8566I-50J0D01*
G74*
G01*
X6518Y-8566D02*
X6918Y-8566D01*
X6918Y-8566D02*
X6918Y-9166D01*
X6918Y-9166D02*
X6518Y-9166D01*
X6118Y-9166D02*
X5718Y-9166D01*
X5718Y-9166D02*
X5718Y-8566D01*
X5718Y-8566D02*
X6118Y-8566D01*
X7018Y-9366D02*
G75*
G03X7018Y-9366I-50J0D01*
G74*
G01*
X6518Y-9366D02*
X6918Y-9366D01*
X6918Y-9366D02*
X6918Y-9966D01*
X6918Y-9966D02*
X6518Y-9966D01*
X6118Y-9966D02*
X5718Y-9966D01*
X5718Y-9966D02*
X5718Y-9366D01*
X5718Y-9366D02*
X6118Y-9366D01*
X7018Y-10166D02*
G75*
G03X7018Y-10166I-50J0D01*
G74*
G01*
X6518Y-10166D02*
X6918Y-10166D01*
X6918Y-10166D02*
X6918Y-10766D01*
X6918Y-10766D02*
X6518Y-10766D01*
X6118Y-10766D02*
X5718Y-10766D01*
X5718Y-10766D02*
X5718Y-10166D01*
X5718Y-10166D02*
X6118Y-10166D01*
X7018Y-11066D02*
G75*
G03X7018Y-11066I-50J0D01*
G74*
G01*
X6518Y-11066D02*
X6918Y-11066D01*
X6918Y-11066D02*
X6918Y-11666D01*
X6918Y-11666D02*
X6518Y-11666D01*
X6118Y-11666D02*
X5718Y-11666D01*
X5718Y-11666D02*
X5718Y-11066D01*
X5718Y-11066D02*
X6118Y-11066D01*
G54D14*
X5418Y-20866D02*
X5418Y-7866D01*
X3418Y-7866D02*
X3418Y-20866D01*
X3418Y-20866D02*
X5418Y-20866D01*
X5418Y-7866D02*
X3418Y-7866D01*
G54D13*
X32323Y-17528D02*
X32323Y-17128D01*
X32476Y-17128D01*
X32514Y-17147D01*
X32533Y-17166D01*
X32552Y-17205D01*
X32552Y-17262D01*
X32533Y-17300D01*
X32514Y-17319D01*
X32476Y-17338D01*
X32323Y-17338D01*
X32742Y-17528D02*
X32818Y-17528D01*
X32856Y-17509D01*
X32876Y-17490D01*
X32914Y-17433D01*
X32933Y-17357D01*
X32933Y-17205D01*
X32914Y-17166D01*
X32895Y-17147D01*
X32856Y-17128D01*
X32780Y-17128D01*
X32742Y-17147D01*
X32723Y-17166D01*
X32704Y-17205D01*
X32704Y-17300D01*
X32723Y-17338D01*
X32742Y-17357D01*
X32780Y-17376D01*
X32856Y-17376D01*
X32895Y-17357D01*
X32914Y-17338D01*
X32933Y-17300D01*
X1089Y-22387D02*
X1089Y-21987D01*
X1241Y-21987D01*
X1279Y-22006D01*
X1298Y-22025D01*
X1317Y-22063D01*
X1317Y-22120D01*
X1298Y-22158D01*
X1279Y-22177D01*
X1241Y-22196D01*
X1089Y-22196D01*
X1698Y-22387D02*
X1470Y-22387D01*
X1584Y-22387D02*
X1584Y-21987D01*
X1546Y-22044D01*
X1508Y-22082D01*
X1470Y-22101D01*
X1946Y-21987D02*
X1984Y-21987D01*
X2022Y-22006D01*
X2041Y-22025D01*
X2060Y-22063D01*
X2079Y-22139D01*
X2079Y-22234D01*
X2060Y-22310D01*
X2041Y-22349D01*
X2022Y-22368D01*
X1984Y-22387D01*
X1946Y-22387D01*
X1908Y-22368D01*
X1889Y-22349D01*
X1870Y-22310D01*
X1850Y-22234D01*
X1850Y-22139D01*
X1870Y-22063D01*
X1889Y-22025D01*
X1908Y-22006D01*
X1946Y-21987D01*
X32191Y-536D02*
X32191Y-136D01*
X32343Y-136D01*
X32381Y-155D01*
X32400Y-174D01*
X32420Y-212D01*
X32420Y-270D01*
X32400Y-308D01*
X32381Y-327D01*
X32343Y-346D01*
X32191Y-346D01*
X32800Y-536D02*
X32572Y-536D01*
X32686Y-536D02*
X32686Y-136D01*
X32648Y-193D01*
X32610Y-231D01*
X32572Y-250D01*
X33181Y-536D02*
X32953Y-536D01*
X33067Y-536D02*
X33067Y-136D01*
X33029Y-193D01*
X32991Y-231D01*
X32953Y-250D01*
X1279Y-536D02*
X1279Y-136D01*
X1431Y-136D01*
X1470Y-155D01*
X1489Y-174D01*
X1508Y-212D01*
X1508Y-270D01*
X1489Y-308D01*
X1470Y-327D01*
X1431Y-346D01*
X1279Y-346D01*
X1736Y-308D02*
X1698Y-289D01*
X1679Y-270D01*
X1660Y-231D01*
X1660Y-212D01*
X1679Y-174D01*
X1698Y-155D01*
X1736Y-136D01*
X1812Y-136D01*
X1850Y-155D01*
X1870Y-174D01*
X1889Y-212D01*
X1889Y-231D01*
X1870Y-270D01*
X1850Y-289D01*
X1812Y-308D01*
X1736Y-308D01*
X1698Y-327D01*
X1679Y-346D01*
X1660Y-384D01*
X1660Y-460D01*
X1679Y-498D01*
X1698Y-517D01*
X1736Y-536D01*
X1812Y-536D01*
X1850Y-517D01*
X1870Y-498D01*
X1889Y-460D01*
X1889Y-384D01*
X1870Y-346D01*
X1850Y-327D01*
X1812Y-308D01*
G54D21*
X14073Y-1013D02*
X13979Y-1079D01*
X14073Y-1126D02*
X13876Y-1126D01*
X13876Y-1051D01*
X13886Y-1032D01*
X13895Y-1022D01*
X13914Y-1013D01*
X13942Y-1013D01*
X13961Y-1022D01*
X13970Y-1032D01*
X13979Y-1051D01*
X13979Y-1126D01*
X13942Y-844D02*
X14073Y-844D01*
X13867Y-891D02*
X14007Y-938D01*
X14007Y-816D01*
X13942Y-657D02*
X14073Y-657D01*
X13867Y-704D02*
X14007Y-750D01*
X14007Y-628D01*
X14348Y-910D02*
X14348Y-1022D01*
X14348Y-966D02*
X14151Y-966D01*
X14179Y-985D01*
X14198Y-1004D01*
X14207Y-1022D01*
X14348Y-825D02*
X14151Y-825D01*
X14273Y-807D02*
X14348Y-750D01*
X14217Y-750D02*
X14292Y-825D01*
X12293Y-1013D02*
X12199Y-1079D01*
X12293Y-1126D02*
X12096Y-1126D01*
X12096Y-1051D01*
X12106Y-1032D01*
X12115Y-1022D01*
X12134Y-1013D01*
X12162Y-1013D01*
X12181Y-1022D01*
X12190Y-1032D01*
X12199Y-1051D01*
X12199Y-1126D01*
X12162Y-844D02*
X12293Y-844D01*
X12087Y-891D02*
X12227Y-938D01*
X12227Y-816D01*
X12096Y-647D02*
X12096Y-741D01*
X12190Y-750D01*
X12181Y-741D01*
X12171Y-722D01*
X12171Y-675D01*
X12181Y-657D01*
X12190Y-647D01*
X12209Y-638D01*
X12256Y-638D01*
X12274Y-647D01*
X12284Y-657D01*
X12293Y-675D01*
X12293Y-722D01*
X12284Y-741D01*
X12274Y-750D01*
X12568Y-910D02*
X12568Y-1022D01*
X12568Y-966D02*
X12371Y-966D01*
X12399Y-985D01*
X12418Y-1004D01*
X12427Y-1022D01*
X12568Y-825D02*
X12371Y-825D01*
X12493Y-807D02*
X12568Y-750D01*
X12437Y-750D02*
X12512Y-825D01*
X10533Y-1013D02*
X10439Y-1079D01*
X10533Y-1126D02*
X10336Y-1126D01*
X10336Y-1051D01*
X10346Y-1032D01*
X10355Y-1022D01*
X10374Y-1013D01*
X10402Y-1013D01*
X10421Y-1022D01*
X10430Y-1032D01*
X10439Y-1051D01*
X10439Y-1126D01*
X10402Y-844D02*
X10533Y-844D01*
X10327Y-891D02*
X10467Y-938D01*
X10467Y-816D01*
X10336Y-657D02*
X10336Y-694D01*
X10346Y-713D01*
X10355Y-722D01*
X10383Y-741D01*
X10421Y-750D01*
X10496Y-750D01*
X10514Y-741D01*
X10524Y-732D01*
X10533Y-713D01*
X10533Y-675D01*
X10524Y-657D01*
X10514Y-647D01*
X10496Y-638D01*
X10449Y-638D01*
X10430Y-647D01*
X10421Y-657D01*
X10411Y-675D01*
X10411Y-713D01*
X10421Y-732D01*
X10430Y-741D01*
X10449Y-750D01*
X10808Y-910D02*
X10808Y-1022D01*
X10808Y-966D02*
X10611Y-966D01*
X10639Y-985D01*
X10658Y-1004D01*
X10667Y-1022D01*
X10808Y-825D02*
X10611Y-825D01*
X10733Y-807D02*
X10808Y-750D01*
X10677Y-750D02*
X10752Y-825D01*
X8053Y-3093D02*
X7959Y-3159D01*
X8053Y-3206D02*
X7856Y-3206D01*
X7856Y-3131D01*
X7866Y-3112D01*
X7875Y-3102D01*
X7894Y-3093D01*
X7922Y-3093D01*
X7941Y-3102D01*
X7950Y-3112D01*
X7959Y-3131D01*
X7959Y-3206D01*
X7922Y-2924D02*
X8053Y-2924D01*
X7847Y-2971D02*
X7987Y-3018D01*
X7987Y-2896D01*
X7856Y-2840D02*
X7856Y-2708D01*
X8053Y-2793D01*
X8328Y-3084D02*
X8328Y-3196D01*
X8328Y-3140D02*
X8131Y-3140D01*
X8159Y-3159D01*
X8178Y-3178D01*
X8187Y-3196D01*
X8131Y-2962D02*
X8131Y-2943D01*
X8141Y-2924D01*
X8150Y-2915D01*
X8169Y-2905D01*
X8206Y-2896D01*
X8253Y-2896D01*
X8291Y-2905D01*
X8309Y-2915D01*
X8319Y-2924D01*
X8328Y-2943D01*
X8328Y-2962D01*
X8319Y-2981D01*
X8309Y-2990D01*
X8291Y-2999D01*
X8253Y-3009D01*
X8206Y-3009D01*
X8169Y-2999D01*
X8150Y-2990D01*
X8141Y-2981D01*
X8131Y-2962D01*
X8328Y-2812D02*
X8131Y-2812D01*
X8253Y-2793D02*
X8328Y-2737D01*
X8197Y-2737D02*
X8272Y-2812D01*
X9053Y-3093D02*
X8959Y-3159D01*
X9053Y-3206D02*
X8856Y-3206D01*
X8856Y-3131D01*
X8866Y-3112D01*
X8875Y-3102D01*
X8894Y-3093D01*
X8922Y-3093D01*
X8941Y-3102D01*
X8950Y-3112D01*
X8959Y-3131D01*
X8959Y-3206D01*
X8922Y-2924D02*
X9053Y-2924D01*
X8847Y-2971D02*
X8987Y-3018D01*
X8987Y-2896D01*
X8941Y-2793D02*
X8931Y-2812D01*
X8922Y-2821D01*
X8903Y-2830D01*
X8894Y-2830D01*
X8875Y-2821D01*
X8866Y-2812D01*
X8856Y-2793D01*
X8856Y-2755D01*
X8866Y-2737D01*
X8875Y-2727D01*
X8894Y-2718D01*
X8903Y-2718D01*
X8922Y-2727D01*
X8931Y-2737D01*
X8941Y-2755D01*
X8941Y-2793D01*
X8950Y-2812D01*
X8959Y-2821D01*
X8978Y-2830D01*
X9016Y-2830D01*
X9034Y-2821D01*
X9044Y-2812D01*
X9053Y-2793D01*
X9053Y-2755D01*
X9044Y-2737D01*
X9034Y-2727D01*
X9016Y-2718D01*
X8978Y-2718D01*
X8959Y-2727D01*
X8950Y-2737D01*
X8941Y-2755D01*
X9328Y-3084D02*
X9328Y-3196D01*
X9328Y-3140D02*
X9131Y-3140D01*
X9159Y-3159D01*
X9178Y-3178D01*
X9187Y-3196D01*
X9131Y-2962D02*
X9131Y-2943D01*
X9141Y-2924D01*
X9150Y-2915D01*
X9169Y-2905D01*
X9206Y-2896D01*
X9253Y-2896D01*
X9291Y-2905D01*
X9309Y-2915D01*
X9319Y-2924D01*
X9328Y-2943D01*
X9328Y-2962D01*
X9319Y-2981D01*
X9309Y-2990D01*
X9291Y-2999D01*
X9253Y-3009D01*
X9206Y-3009D01*
X9169Y-2999D01*
X9150Y-2990D01*
X9141Y-2981D01*
X9131Y-2962D01*
X9328Y-2812D02*
X9131Y-2812D01*
X9253Y-2793D02*
X9328Y-2737D01*
X9197Y-2737D02*
X9272Y-2812D01*
G54D12*
X8956Y-1566D02*
X8970Y-1524D01*
X8970Y-1452D01*
X8956Y-1424D01*
X8941Y-1409D01*
X8913Y-1395D01*
X8884Y-1395D01*
X8856Y-1409D01*
X8841Y-1424D01*
X8827Y-1452D01*
X8813Y-1509D01*
X8798Y-1538D01*
X8784Y-1552D01*
X8756Y-1566D01*
X8727Y-1566D01*
X8698Y-1552D01*
X8684Y-1538D01*
X8670Y-1509D01*
X8670Y-1438D01*
X8684Y-1395D01*
X8670Y-1295D02*
X8970Y-1224D01*
X8756Y-1166D01*
X8970Y-1109D01*
X8670Y-1038D01*
X8970Y-766D02*
X8970Y-938D01*
X8970Y-852D02*
X8670Y-852D01*
X8713Y-881D01*
X8741Y-909D01*
X8756Y-938D01*
X9956Y-1566D02*
X9970Y-1524D01*
X9970Y-1452D01*
X9956Y-1424D01*
X9941Y-1409D01*
X9913Y-1395D01*
X9884Y-1395D01*
X9856Y-1409D01*
X9841Y-1424D01*
X9827Y-1452D01*
X9813Y-1509D01*
X9798Y-1538D01*
X9784Y-1552D01*
X9756Y-1566D01*
X9727Y-1566D01*
X9698Y-1552D01*
X9684Y-1538D01*
X9670Y-1509D01*
X9670Y-1438D01*
X9684Y-1395D01*
X9670Y-1295D02*
X9970Y-1224D01*
X9756Y-1166D01*
X9970Y-1109D01*
X9670Y-1038D01*
X9698Y-938D02*
X9684Y-924D01*
X9670Y-895D01*
X9670Y-824D01*
X9684Y-795D01*
X9698Y-781D01*
X9727Y-766D01*
X9756Y-766D01*
X9798Y-781D01*
X9970Y-952D01*
X9970Y-766D01*
G54D22*
X13140Y-2351D02*
X12840Y-2351D01*
X12840Y-2279D01*
X12854Y-2236D01*
X12883Y-2208D01*
X12911Y-2194D01*
X12968Y-2179D01*
X13011Y-2179D01*
X13068Y-2194D01*
X13097Y-2208D01*
X13126Y-2236D01*
X13140Y-2279D01*
X13140Y-2351D01*
X13140Y-1894D02*
X13140Y-2065D01*
X13140Y-1979D02*
X12840Y-1979D01*
X12883Y-2008D01*
X12911Y-2036D01*
X12926Y-2065D01*
X12840Y-1708D02*
X12840Y-1679D01*
X12854Y-1651D01*
X12868Y-1636D01*
X12897Y-1622D01*
X12954Y-1608D01*
X13026Y-1608D01*
X13083Y-1622D01*
X13111Y-1636D01*
X13126Y-1651D01*
X13140Y-1679D01*
X13140Y-1708D01*
X13126Y-1736D01*
X13111Y-1751D01*
X13083Y-1765D01*
X13026Y-1779D01*
X12954Y-1779D01*
X12897Y-1765D01*
X12868Y-1751D01*
X12854Y-1736D01*
X12840Y-1708D01*
X15240Y-3244D02*
X15226Y-3272D01*
X15197Y-3286D01*
X14940Y-3286D01*
X15226Y-3015D02*
X15240Y-3044D01*
X15240Y-3101D01*
X15226Y-3129D01*
X15197Y-3144D01*
X15083Y-3144D01*
X15054Y-3129D01*
X15040Y-3101D01*
X15040Y-3044D01*
X15054Y-3015D01*
X15083Y-3001D01*
X15111Y-3001D01*
X15140Y-3144D01*
X15240Y-2744D02*
X14940Y-2744D01*
X15226Y-2744D02*
X15240Y-2772D01*
X15240Y-2829D01*
X15226Y-2858D01*
X15211Y-2872D01*
X15183Y-2886D01*
X15097Y-2886D01*
X15068Y-2872D01*
X15054Y-2858D01*
X15040Y-2829D01*
X15040Y-2772D01*
X15054Y-2744D01*
X15126Y-2601D02*
X15126Y-2372D01*
X14940Y-2172D02*
X14940Y-2144D01*
X14954Y-2115D01*
X14968Y-2101D01*
X14997Y-2086D01*
X15054Y-2072D01*
X15126Y-2072D01*
X15183Y-2086D01*
X15211Y-2101D01*
X15226Y-2115D01*
X15240Y-2144D01*
X15240Y-2172D01*
X15226Y-2201D01*
X15211Y-2215D01*
X15183Y-2229D01*
X15126Y-2244D01*
X15054Y-2244D01*
X14997Y-2229D01*
X14968Y-2215D01*
X14954Y-2201D01*
X14940Y-2172D01*
X11360Y-2351D02*
X11060Y-2351D01*
X11060Y-2279D01*
X11074Y-2236D01*
X11103Y-2208D01*
X11131Y-2194D01*
X11188Y-2179D01*
X11231Y-2179D01*
X11288Y-2194D01*
X11317Y-2208D01*
X11346Y-2236D01*
X11360Y-2279D01*
X11360Y-2351D01*
X11360Y-1894D02*
X11360Y-2065D01*
X11360Y-1979D02*
X11060Y-1979D01*
X11103Y-2008D01*
X11131Y-2036D01*
X11146Y-2065D01*
X11360Y-1608D02*
X11360Y-1779D01*
X11360Y-1694D02*
X11060Y-1694D01*
X11103Y-1722D01*
X11131Y-1751D01*
X11146Y-1779D01*
X13460Y-3244D02*
X13446Y-3272D01*
X13417Y-3286D01*
X13160Y-3286D01*
X13446Y-3015D02*
X13460Y-3044D01*
X13460Y-3101D01*
X13446Y-3129D01*
X13417Y-3144D01*
X13303Y-3144D01*
X13274Y-3129D01*
X13260Y-3101D01*
X13260Y-3044D01*
X13274Y-3015D01*
X13303Y-3001D01*
X13331Y-3001D01*
X13360Y-3144D01*
X13460Y-2744D02*
X13160Y-2744D01*
X13446Y-2744D02*
X13460Y-2772D01*
X13460Y-2829D01*
X13446Y-2858D01*
X13431Y-2872D01*
X13403Y-2886D01*
X13317Y-2886D01*
X13288Y-2872D01*
X13274Y-2858D01*
X13260Y-2829D01*
X13260Y-2772D01*
X13274Y-2744D01*
X13346Y-2601D02*
X13346Y-2372D01*
X13460Y-2072D02*
X13460Y-2244D01*
X13460Y-2158D02*
X13160Y-2158D01*
X13203Y-2186D01*
X13231Y-2215D01*
X13246Y-2244D01*
X9600Y-2351D02*
X9300Y-2351D01*
X9300Y-2279D01*
X9314Y-2236D01*
X9343Y-2208D01*
X9371Y-2194D01*
X9428Y-2179D01*
X9471Y-2179D01*
X9528Y-2194D01*
X9557Y-2208D01*
X9586Y-2236D01*
X9600Y-2279D01*
X9600Y-2351D01*
X9600Y-1894D02*
X9600Y-2065D01*
X9600Y-1979D02*
X9300Y-1979D01*
X9343Y-2008D01*
X9371Y-2036D01*
X9386Y-2065D01*
X9328Y-1779D02*
X9314Y-1765D01*
X9300Y-1736D01*
X9300Y-1665D01*
X9314Y-1636D01*
X9328Y-1622D01*
X9357Y-1608D01*
X9386Y-1608D01*
X9428Y-1622D01*
X9600Y-1794D01*
X9600Y-1608D01*
X11700Y-3244D02*
X11686Y-3272D01*
X11657Y-3286D01*
X11400Y-3286D01*
X11686Y-3015D02*
X11700Y-3044D01*
X11700Y-3101D01*
X11686Y-3129D01*
X11657Y-3144D01*
X11543Y-3144D01*
X11514Y-3129D01*
X11500Y-3101D01*
X11500Y-3044D01*
X11514Y-3015D01*
X11543Y-3001D01*
X11571Y-3001D01*
X11600Y-3144D01*
X11700Y-2744D02*
X11400Y-2744D01*
X11686Y-2744D02*
X11700Y-2772D01*
X11700Y-2829D01*
X11686Y-2858D01*
X11671Y-2872D01*
X11643Y-2886D01*
X11557Y-2886D01*
X11528Y-2872D01*
X11514Y-2858D01*
X11500Y-2829D01*
X11500Y-2772D01*
X11514Y-2744D01*
X11586Y-2601D02*
X11586Y-2372D01*
X11428Y-2244D02*
X11414Y-2229D01*
X11400Y-2201D01*
X11400Y-2129D01*
X11414Y-2101D01*
X11428Y-2086D01*
X11457Y-2072D01*
X11486Y-2072D01*
X11528Y-2086D01*
X11700Y-2258D01*
X11700Y-2072D01*
G54D16*
X10873Y-13962D02*
X10440Y-13962D01*
X10750Y-13818D01*
X10440Y-13673D01*
X10873Y-13673D01*
X10832Y-13220D02*
X10853Y-13240D01*
X10873Y-13302D01*
X10873Y-13343D01*
X10853Y-13405D01*
X10811Y-13446D01*
X10770Y-13467D01*
X10688Y-13488D01*
X10626Y-13488D01*
X10543Y-13467D01*
X10502Y-13446D01*
X10461Y-13405D01*
X10440Y-13343D01*
X10440Y-13302D01*
X10461Y-13240D01*
X10482Y-13220D01*
X10440Y-13034D02*
X10791Y-13034D01*
X10832Y-13013D01*
X10853Y-12993D01*
X10873Y-12952D01*
X10873Y-12869D01*
X10853Y-12828D01*
X10832Y-12807D01*
X10791Y-12787D01*
X10440Y-12787D01*
X10873Y-12354D02*
X10873Y-12601D01*
X10873Y-12477D02*
X10440Y-12477D01*
X10502Y-12519D01*
X10543Y-12560D01*
X10564Y-12601D01*
G54D12*
X12089Y-15741D02*
X12107Y-15685D01*
X12107Y-15591D01*
X12089Y-15554D01*
X12070Y-15535D01*
X12032Y-15516D01*
X11995Y-15516D01*
X11957Y-15535D01*
X11939Y-15554D01*
X11920Y-15591D01*
X11901Y-15666D01*
X11882Y-15704D01*
X11864Y-15723D01*
X11826Y-15741D01*
X11789Y-15741D01*
X11751Y-15723D01*
X11732Y-15704D01*
X11713Y-15666D01*
X11713Y-15573D01*
X11732Y-15516D01*
X11713Y-15404D02*
X11713Y-15179D01*
X12107Y-15291D02*
X11713Y-15291D01*
X12107Y-15047D02*
X11713Y-15047D01*
X11995Y-14916D01*
X11713Y-14785D01*
X12107Y-14785D01*
X11713Y-14635D02*
X11713Y-14391D01*
X11864Y-14522D01*
X11864Y-14466D01*
X11882Y-14428D01*
X11901Y-14409D01*
X11939Y-14391D01*
X12032Y-14391D01*
X12070Y-14409D01*
X12089Y-14428D01*
X12107Y-14466D01*
X12107Y-14578D01*
X12089Y-14616D01*
X12070Y-14635D01*
X11751Y-14241D02*
X11732Y-14222D01*
X11713Y-14184D01*
X11713Y-14090D01*
X11732Y-14053D01*
X11751Y-14034D01*
X11789Y-14015D01*
X11826Y-14015D01*
X11882Y-14034D01*
X12107Y-14259D01*
X12107Y-14015D01*
X11901Y-13715D02*
X11901Y-13847D01*
X12107Y-13847D02*
X11713Y-13847D01*
X11713Y-13659D01*
X12107Y-13302D02*
X12107Y-13528D01*
X12107Y-13415D02*
X11713Y-13415D01*
X11770Y-13453D01*
X11807Y-13490D01*
X11826Y-13528D01*
X11713Y-13059D02*
X11713Y-13021D01*
X11732Y-12983D01*
X11751Y-12965D01*
X11789Y-12946D01*
X11864Y-12927D01*
X11957Y-12927D01*
X12032Y-12946D01*
X12070Y-12965D01*
X12089Y-12983D01*
X12107Y-13021D01*
X12107Y-13059D01*
X12089Y-13096D01*
X12070Y-13115D01*
X12032Y-13134D01*
X11957Y-13152D01*
X11864Y-13152D01*
X11789Y-13134D01*
X11751Y-13115D01*
X11732Y-13096D01*
X11713Y-13059D01*
X11713Y-12683D02*
X11713Y-12646D01*
X11732Y-12608D01*
X11751Y-12589D01*
X11789Y-12571D01*
X11864Y-12552D01*
X11957Y-12552D01*
X12032Y-12571D01*
X12070Y-12589D01*
X12089Y-12608D01*
X12107Y-12646D01*
X12107Y-12683D01*
X12089Y-12721D01*
X12070Y-12740D01*
X12032Y-12758D01*
X11957Y-12777D01*
X11864Y-12777D01*
X11789Y-12758D01*
X11751Y-12740D01*
X11732Y-12721D01*
X11713Y-12683D01*
X12107Y-12158D02*
X11920Y-12289D01*
X12107Y-12383D02*
X11713Y-12383D01*
X11713Y-12233D01*
X11732Y-12195D01*
X11751Y-12177D01*
X11789Y-12158D01*
X11845Y-12158D01*
X11882Y-12177D01*
X11901Y-12195D01*
X11920Y-12233D01*
X11920Y-12383D01*
X12070Y-11764D02*
X12089Y-11783D01*
X12107Y-11839D01*
X12107Y-11877D01*
X12089Y-11933D01*
X12051Y-11970D01*
X12014Y-11989D01*
X11939Y-12008D01*
X11882Y-12008D01*
X11807Y-11989D01*
X11770Y-11970D01*
X11732Y-11933D01*
X11713Y-11877D01*
X11713Y-11839D01*
X11732Y-11783D01*
X11751Y-11764D01*
X11713Y-11651D02*
X11713Y-11426D01*
X12107Y-11539D02*
X11713Y-11539D01*
X11713Y-11126D02*
X11713Y-11201D01*
X11732Y-11239D01*
X11751Y-11257D01*
X11807Y-11295D01*
X11882Y-11314D01*
X12032Y-11314D01*
X12070Y-11295D01*
X12089Y-11276D01*
X12107Y-11239D01*
X12107Y-11164D01*
X12089Y-11126D01*
X12070Y-11107D01*
X12032Y-11089D01*
X11939Y-11089D01*
X11901Y-11107D01*
X11882Y-11126D01*
X11864Y-11164D01*
X11864Y-11239D01*
X11882Y-11276D01*
X11901Y-11295D01*
X11939Y-11314D01*
X11901Y-10788D02*
X11920Y-10732D01*
X11939Y-10713D01*
X11976Y-10695D01*
X12032Y-10695D01*
X12070Y-10713D01*
X12089Y-10732D01*
X12107Y-10770D01*
X12107Y-10920D01*
X11713Y-10920D01*
X11713Y-10788D01*
X11732Y-10751D01*
X11751Y-10732D01*
X11789Y-10713D01*
X11826Y-10713D01*
X11864Y-10732D01*
X11882Y-10751D01*
X11901Y-10788D01*
X11901Y-10920D01*
G54D23*
X15507Y-10156D02*
X15750Y-10156D01*
X15778Y-10142D01*
X15793Y-10127D01*
X15807Y-10099D01*
X15807Y-10042D01*
X15793Y-10013D01*
X15778Y-9999D01*
X15750Y-9985D01*
X15507Y-9985D01*
X15507Y-9699D02*
X15507Y-9842D01*
X15650Y-9856D01*
X15635Y-9842D01*
X15621Y-9813D01*
X15621Y-9742D01*
X15635Y-9713D01*
X15650Y-9699D01*
X15678Y-9685D01*
X15750Y-9685D01*
X15778Y-9699D01*
X15793Y-9713D01*
X15807Y-9742D01*
X15807Y-9813D01*
X15793Y-9842D01*
X15778Y-9856D01*
G54D11*
X13324Y-10046D02*
X13324Y-9849D01*
X13390Y-9990D01*
X13455Y-9849D01*
X13455Y-10046D01*
X13662Y-10027D02*
X13652Y-10037D01*
X13624Y-10046D01*
X13605Y-10046D01*
X13577Y-10037D01*
X13558Y-10018D01*
X13549Y-9999D01*
X13540Y-9962D01*
X13540Y-9934D01*
X13549Y-9896D01*
X13558Y-9877D01*
X13577Y-9859D01*
X13605Y-9849D01*
X13624Y-9849D01*
X13652Y-9859D01*
X13662Y-9868D01*
X13746Y-10046D02*
X13746Y-9849D01*
X13821Y-9849D01*
X13840Y-9859D01*
X13849Y-9868D01*
X13859Y-9887D01*
X13859Y-9915D01*
X13849Y-9934D01*
X13840Y-9943D01*
X13821Y-9952D01*
X13746Y-9952D01*
X14046Y-10046D02*
X13934Y-10046D01*
X13990Y-10046D02*
X13990Y-9849D01*
X13971Y-9877D01*
X13952Y-9896D01*
X13934Y-9905D01*
X14112Y-9849D02*
X14243Y-9849D01*
X14159Y-10046D01*
X14356Y-9849D02*
X14375Y-9849D01*
X14393Y-9859D01*
X14403Y-9868D01*
X14412Y-9887D01*
X14422Y-9924D01*
X14422Y-9971D01*
X14412Y-10009D01*
X14403Y-10027D01*
X14393Y-10037D01*
X14375Y-10046D01*
X14356Y-10046D01*
X14337Y-10037D01*
X14328Y-10027D01*
X14318Y-10009D01*
X14309Y-9971D01*
X14309Y-9924D01*
X14318Y-9887D01*
X14328Y-9868D01*
X14337Y-9859D01*
X14356Y-9849D01*
X14487Y-9849D02*
X14609Y-9849D01*
X14543Y-9924D01*
X14572Y-9924D01*
X14590Y-9934D01*
X14600Y-9943D01*
X14609Y-9962D01*
X14609Y-10009D01*
X14600Y-10027D01*
X14590Y-10037D01*
X14572Y-10046D01*
X14515Y-10046D01*
X14497Y-10037D01*
X14487Y-10027D01*
X14665Y-9849D02*
X14778Y-9849D01*
X14722Y-10046D02*
X14722Y-9849D01*
X14844Y-9971D02*
X14994Y-9971D01*
X15069Y-9849D02*
X15191Y-9849D01*
X15125Y-9924D01*
X15153Y-9924D01*
X15172Y-9934D01*
X15181Y-9943D01*
X15191Y-9962D01*
X15191Y-10009D01*
X15181Y-10027D01*
X15172Y-10037D01*
X15153Y-10046D01*
X15097Y-10046D01*
X15078Y-10037D01*
X15069Y-10027D01*
X15256Y-9849D02*
X15378Y-9849D01*
X15313Y-9924D01*
X15341Y-9924D01*
X15360Y-9934D01*
X15369Y-9943D01*
X15378Y-9962D01*
X15378Y-10009D01*
X15369Y-10027D01*
X15360Y-10037D01*
X15341Y-10046D01*
X15285Y-10046D01*
X15266Y-10037D01*
X15256Y-10027D01*
X15500Y-9849D02*
X15519Y-9849D01*
X15538Y-9859D01*
X15547Y-9868D01*
X15557Y-9887D01*
X15566Y-9924D01*
X15566Y-9971D01*
X15557Y-10009D01*
X15547Y-10027D01*
X15538Y-10037D01*
X15519Y-10046D01*
X15500Y-10046D01*
X15482Y-10037D01*
X15472Y-10027D01*
X15463Y-10009D01*
X15453Y-9971D01*
X15453Y-9924D01*
X15463Y-9887D01*
X15472Y-9868D01*
X15482Y-9859D01*
X15500Y-9849D01*
X15641Y-9868D02*
X15650Y-9859D01*
X15669Y-9849D01*
X15716Y-9849D01*
X15735Y-9859D01*
X15744Y-9868D01*
X15754Y-9887D01*
X15754Y-9905D01*
X15744Y-9934D01*
X15632Y-10046D01*
X15754Y-10046D01*
X15838Y-9943D02*
X15904Y-9943D01*
X15932Y-10046D02*
X15838Y-10046D01*
X15838Y-9849D01*
X15932Y-9849D01*
X16157Y-9840D02*
X15988Y-10093D01*
X16335Y-10027D02*
X16326Y-10037D01*
X16298Y-10046D01*
X16279Y-10046D01*
X16251Y-10037D01*
X16232Y-10018D01*
X16223Y-9999D01*
X16213Y-9962D01*
X16213Y-9934D01*
X16223Y-9896D01*
X16232Y-9877D01*
X16251Y-9859D01*
X16279Y-9849D01*
X16298Y-9849D01*
X16326Y-9859D01*
X16335Y-9868D01*
X16485Y-9943D02*
X16513Y-9952D01*
X16523Y-9962D01*
X16532Y-9981D01*
X16532Y-10009D01*
X16523Y-10027D01*
X16513Y-10037D01*
X16495Y-10046D01*
X16420Y-10046D01*
X16420Y-9849D01*
X16485Y-9849D01*
X16504Y-9859D01*
X16513Y-9868D01*
X16523Y-9887D01*
X16523Y-9905D01*
X16513Y-9924D01*
X16504Y-9934D01*
X16485Y-9943D01*
X16420Y-9943D01*
G54D23*
X13729Y-9395D02*
X13729Y-9638D01*
X13743Y-9666D01*
X13757Y-9681D01*
X13786Y-9695D01*
X13843Y-9695D01*
X13872Y-9681D01*
X13886Y-9666D01*
X13900Y-9638D01*
X13900Y-9395D01*
X14172Y-9495D02*
X14172Y-9695D01*
X14100Y-9381D02*
X14029Y-9595D01*
X14215Y-9595D01*
G54D11*
X13998Y-10411D02*
X13801Y-10411D01*
X13942Y-10345D01*
X13801Y-10280D01*
X13998Y-10280D01*
X13979Y-10073D02*
X13989Y-10083D01*
X13998Y-10111D01*
X13998Y-10129D01*
X13989Y-10158D01*
X13970Y-10176D01*
X13951Y-10186D01*
X13914Y-10195D01*
X13886Y-10195D01*
X13848Y-10186D01*
X13829Y-10176D01*
X13811Y-10158D01*
X13801Y-10129D01*
X13801Y-10111D01*
X13811Y-10083D01*
X13820Y-10073D01*
X13998Y-9989D02*
X13801Y-9989D01*
X13801Y-9914D01*
X13811Y-9895D01*
X13820Y-9886D01*
X13839Y-9876D01*
X13867Y-9876D01*
X13886Y-9886D01*
X13895Y-9895D01*
X13904Y-9914D01*
X13904Y-9989D01*
X13998Y-9689D02*
X13998Y-9801D01*
X13998Y-9745D02*
X13801Y-9745D01*
X13829Y-9764D01*
X13848Y-9782D01*
X13857Y-9801D01*
X13801Y-9623D02*
X13801Y-9492D01*
X13998Y-9576D01*
X13801Y-9379D02*
X13801Y-9360D01*
X13811Y-9341D01*
X13820Y-9332D01*
X13839Y-9323D01*
X13876Y-9313D01*
X13923Y-9313D01*
X13961Y-9323D01*
X13979Y-9332D01*
X13989Y-9341D01*
X13998Y-9360D01*
X13998Y-9379D01*
X13989Y-9398D01*
X13979Y-9407D01*
X13961Y-9417D01*
X13923Y-9426D01*
X13876Y-9426D01*
X13839Y-9417D01*
X13820Y-9407D01*
X13811Y-9398D01*
X13801Y-9379D01*
X13801Y-9248D02*
X13801Y-9126D01*
X13876Y-9191D01*
X13876Y-9163D01*
X13886Y-9144D01*
X13895Y-9135D01*
X13914Y-9126D01*
X13961Y-9126D01*
X13979Y-9135D01*
X13989Y-9144D01*
X13998Y-9163D01*
X13998Y-9220D01*
X13989Y-9238D01*
X13979Y-9248D01*
X13801Y-9069D02*
X13801Y-8957D01*
X13998Y-9013D02*
X13801Y-9013D01*
X13923Y-8891D02*
X13923Y-8741D01*
X13801Y-8666D02*
X13801Y-8544D01*
X13876Y-8610D01*
X13876Y-8582D01*
X13886Y-8563D01*
X13895Y-8553D01*
X13914Y-8544D01*
X13961Y-8544D01*
X13979Y-8553D01*
X13989Y-8563D01*
X13998Y-8582D01*
X13998Y-8638D01*
X13989Y-8657D01*
X13979Y-8666D01*
X13801Y-8478D02*
X13801Y-8356D01*
X13876Y-8422D01*
X13876Y-8394D01*
X13886Y-8375D01*
X13895Y-8366D01*
X13914Y-8356D01*
X13961Y-8356D01*
X13979Y-8366D01*
X13989Y-8375D01*
X13998Y-8394D01*
X13998Y-8450D01*
X13989Y-8469D01*
X13979Y-8478D01*
X13801Y-8235D02*
X13801Y-8216D01*
X13811Y-8197D01*
X13820Y-8188D01*
X13839Y-8178D01*
X13876Y-8169D01*
X13923Y-8169D01*
X13961Y-8178D01*
X13979Y-8188D01*
X13989Y-8197D01*
X13998Y-8216D01*
X13998Y-8235D01*
X13989Y-8253D01*
X13979Y-8263D01*
X13961Y-8272D01*
X13923Y-8281D01*
X13876Y-8281D01*
X13839Y-8272D01*
X13820Y-8263D01*
X13811Y-8253D01*
X13801Y-8235D01*
X13820Y-8094D02*
X13811Y-8084D01*
X13801Y-8066D01*
X13801Y-8019D01*
X13811Y-8000D01*
X13820Y-7991D01*
X13839Y-7981D01*
X13857Y-7981D01*
X13886Y-7991D01*
X13998Y-8103D01*
X13998Y-7981D01*
X13895Y-7897D02*
X13895Y-7831D01*
X13998Y-7803D02*
X13998Y-7897D01*
X13801Y-7897D01*
X13801Y-7803D01*
X13792Y-7578D02*
X14045Y-7747D01*
X13979Y-7400D02*
X13989Y-7409D01*
X13998Y-7437D01*
X13998Y-7456D01*
X13989Y-7484D01*
X13970Y-7503D01*
X13951Y-7512D01*
X13914Y-7522D01*
X13886Y-7522D01*
X13848Y-7512D01*
X13829Y-7503D01*
X13811Y-7484D01*
X13801Y-7456D01*
X13801Y-7437D01*
X13811Y-7409D01*
X13820Y-7400D01*
X13895Y-7250D02*
X13904Y-7221D01*
X13914Y-7212D01*
X13932Y-7203D01*
X13961Y-7203D01*
X13979Y-7212D01*
X13989Y-7221D01*
X13998Y-7240D01*
X13998Y-7315D01*
X13801Y-7315D01*
X13801Y-7250D01*
X13811Y-7231D01*
X13820Y-7221D01*
X13839Y-7212D01*
X13857Y-7212D01*
X13876Y-7221D01*
X13886Y-7231D01*
X13895Y-7250D01*
X13895Y-7315D01*
G54D12*
X23054Y-3433D02*
X23054Y-3797D01*
X23076Y-3840D01*
X23097Y-3861D01*
X23140Y-3883D01*
X23226Y-3883D01*
X23269Y-3861D01*
X23290Y-3840D01*
X23311Y-3797D01*
X23311Y-3433D01*
X23719Y-3433D02*
X23633Y-3433D01*
X23590Y-3454D01*
X23569Y-3475D01*
X23526Y-3540D01*
X23504Y-3625D01*
X23504Y-3797D01*
X23526Y-3840D01*
X23547Y-3861D01*
X23590Y-3883D01*
X23676Y-3883D01*
X23719Y-3861D01*
X23740Y-3840D01*
X23761Y-3797D01*
X23761Y-3690D01*
X23740Y-3647D01*
X23719Y-3625D01*
X23676Y-3604D01*
X23590Y-3604D01*
X23547Y-3625D01*
X23526Y-3647D01*
X23504Y-3690D01*
X22280Y-3092D02*
X22280Y-2742D01*
X22480Y-3092D01*
X22480Y-2742D01*
X22847Y-3059D02*
X22830Y-3075D01*
X22780Y-3092D01*
X22747Y-3092D01*
X22697Y-3075D01*
X22664Y-3042D01*
X22647Y-3009D01*
X22630Y-2942D01*
X22630Y-2892D01*
X22647Y-2825D01*
X22664Y-2792D01*
X22697Y-2759D01*
X22747Y-2742D01*
X22780Y-2742D01*
X22830Y-2759D01*
X22847Y-2775D01*
X22997Y-3092D02*
X22997Y-2742D01*
X23130Y-2742D01*
X23164Y-2759D01*
X23180Y-2775D01*
X23197Y-2809D01*
X23197Y-2859D01*
X23180Y-2892D01*
X23164Y-2909D01*
X23130Y-2925D01*
X22997Y-2925D01*
X23314Y-2742D02*
X23530Y-2742D01*
X23414Y-2875D01*
X23464Y-2875D01*
X23497Y-2892D01*
X23514Y-2909D01*
X23530Y-2942D01*
X23530Y-3025D01*
X23514Y-3059D01*
X23497Y-3075D01*
X23464Y-3092D01*
X23364Y-3092D01*
X23330Y-3075D01*
X23314Y-3059D01*
X23747Y-2742D02*
X23780Y-2742D01*
X23814Y-2759D01*
X23830Y-2775D01*
X23847Y-2809D01*
X23864Y-2875D01*
X23864Y-2959D01*
X23847Y-3025D01*
X23830Y-3059D01*
X23814Y-3075D01*
X23780Y-3092D01*
X23747Y-3092D01*
X23714Y-3075D01*
X23697Y-3059D01*
X23680Y-3025D01*
X23664Y-2959D01*
X23664Y-2875D01*
X23680Y-2809D01*
X23697Y-2775D01*
X23714Y-2759D01*
X23747Y-2742D01*
X24164Y-2742D02*
X24097Y-2742D01*
X24064Y-2759D01*
X24047Y-2775D01*
X24014Y-2825D01*
X23997Y-2892D01*
X23997Y-3025D01*
X24014Y-3059D01*
X24030Y-3075D01*
X24064Y-3092D01*
X24130Y-3092D01*
X24164Y-3075D01*
X24180Y-3059D01*
X24197Y-3025D01*
X24197Y-2942D01*
X24180Y-2909D01*
X24164Y-2892D01*
X24130Y-2875D01*
X24064Y-2875D01*
X24030Y-2892D01*
X24014Y-2909D01*
X23997Y-2942D01*
X24314Y-2742D02*
X24530Y-2742D01*
X24414Y-2875D01*
X24464Y-2875D01*
X24497Y-2892D01*
X24514Y-2909D01*
X24530Y-2942D01*
X24530Y-3025D01*
X24514Y-3059D01*
X24497Y-3075D01*
X24464Y-3092D01*
X24364Y-3092D01*
X24330Y-3075D01*
X24314Y-3059D01*
G54D21*
X20953Y-8313D02*
X20859Y-8379D01*
X20953Y-8426D02*
X20756Y-8426D01*
X20756Y-8351D01*
X20766Y-8332D01*
X20775Y-8322D01*
X20794Y-8313D01*
X20822Y-8313D01*
X20841Y-8322D01*
X20850Y-8332D01*
X20859Y-8351D01*
X20859Y-8426D01*
X20756Y-8247D02*
X20756Y-8125D01*
X20831Y-8191D01*
X20831Y-8163D01*
X20841Y-8144D01*
X20850Y-8135D01*
X20869Y-8125D01*
X20916Y-8125D01*
X20934Y-8135D01*
X20944Y-8144D01*
X20953Y-8163D01*
X20953Y-8219D01*
X20944Y-8238D01*
X20934Y-8247D01*
X20775Y-8050D02*
X20766Y-8041D01*
X20756Y-8022D01*
X20756Y-7975D01*
X20766Y-7957D01*
X20775Y-7947D01*
X20794Y-7938D01*
X20812Y-7938D01*
X20841Y-7947D01*
X20953Y-8060D01*
X20953Y-7938D01*
X21228Y-8398D02*
X21228Y-8510D01*
X21228Y-8454D02*
X21031Y-8454D01*
X21059Y-8473D01*
X21078Y-8491D01*
X21087Y-8510D01*
X21228Y-8313D02*
X21031Y-8313D01*
X21153Y-8294D02*
X21228Y-8238D01*
X21097Y-8238D02*
X21172Y-8313D01*
X21031Y-8172D02*
X21031Y-8050D01*
X21106Y-8116D01*
X21106Y-8088D01*
X21116Y-8069D01*
X21125Y-8060D01*
X21144Y-8050D01*
X21191Y-8050D01*
X21209Y-8060D01*
X21219Y-8069D01*
X21228Y-8088D01*
X21228Y-8144D01*
X21219Y-8163D01*
X21209Y-8172D01*
X21031Y-7985D02*
X21031Y-7863D01*
X21106Y-7928D01*
X21106Y-7900D01*
X21116Y-7882D01*
X21125Y-7872D01*
X21144Y-7863D01*
X21191Y-7863D01*
X21209Y-7872D01*
X21219Y-7882D01*
X21228Y-7900D01*
X21228Y-7957D01*
X21219Y-7975D01*
X21209Y-7985D01*
X23282Y-8886D02*
X23291Y-8895D01*
X23301Y-8924D01*
X23301Y-8942D01*
X23291Y-8970D01*
X23273Y-8989D01*
X23254Y-8999D01*
X23216Y-9008D01*
X23188Y-9008D01*
X23151Y-8999D01*
X23132Y-8989D01*
X23113Y-8970D01*
X23104Y-8942D01*
X23104Y-8924D01*
X23113Y-8895D01*
X23122Y-8886D01*
X23104Y-8820D02*
X23104Y-8698D01*
X23179Y-8764D01*
X23179Y-8736D01*
X23188Y-8717D01*
X23198Y-8708D01*
X23216Y-8698D01*
X23263Y-8698D01*
X23282Y-8708D01*
X23291Y-8717D01*
X23301Y-8736D01*
X23301Y-8792D01*
X23291Y-8811D01*
X23282Y-8820D01*
X23104Y-8633D02*
X23104Y-8501D01*
X23301Y-8586D01*
X23576Y-8980D02*
X23576Y-9092D01*
X23576Y-9036D02*
X23379Y-9036D01*
X23407Y-9055D01*
X23426Y-9074D01*
X23435Y-9092D01*
X23379Y-8858D02*
X23379Y-8839D01*
X23388Y-8820D01*
X23397Y-8811D01*
X23416Y-8802D01*
X23454Y-8792D01*
X23501Y-8792D01*
X23538Y-8802D01*
X23557Y-8811D01*
X23566Y-8820D01*
X23576Y-8839D01*
X23576Y-8858D01*
X23566Y-8877D01*
X23557Y-8886D01*
X23538Y-8895D01*
X23501Y-8905D01*
X23454Y-8905D01*
X23416Y-8895D01*
X23397Y-8886D01*
X23388Y-8877D01*
X23379Y-8858D01*
X23379Y-8670D02*
X23379Y-8651D01*
X23388Y-8633D01*
X23397Y-8623D01*
X23416Y-8614D01*
X23454Y-8605D01*
X23501Y-8605D01*
X23538Y-8614D01*
X23557Y-8623D01*
X23566Y-8633D01*
X23576Y-8651D01*
X23576Y-8670D01*
X23566Y-8689D01*
X23557Y-8698D01*
X23538Y-8708D01*
X23501Y-8717D01*
X23454Y-8717D01*
X23416Y-8708D01*
X23397Y-8698D01*
X23388Y-8689D01*
X23379Y-8670D01*
X23444Y-8520D02*
X23576Y-8520D01*
X23463Y-8520D02*
X23454Y-8511D01*
X23444Y-8492D01*
X23444Y-8464D01*
X23454Y-8445D01*
X23473Y-8436D01*
X23576Y-8436D01*
X20174Y-8313D02*
X20184Y-8322D01*
X20193Y-8351D01*
X20193Y-8369D01*
X20184Y-8398D01*
X20165Y-8416D01*
X20146Y-8426D01*
X20109Y-8435D01*
X20081Y-8435D01*
X20043Y-8426D01*
X20024Y-8416D01*
X20006Y-8398D01*
X19996Y-8369D01*
X19996Y-8351D01*
X20006Y-8322D01*
X20015Y-8313D01*
X20015Y-8238D02*
X20006Y-8229D01*
X19996Y-8210D01*
X19996Y-8163D01*
X20006Y-8144D01*
X20015Y-8135D01*
X20034Y-8125D01*
X20052Y-8125D01*
X20081Y-8135D01*
X20193Y-8247D01*
X20193Y-8125D01*
X20193Y-8032D02*
X20193Y-7994D01*
X20184Y-7975D01*
X20174Y-7966D01*
X20146Y-7947D01*
X20109Y-7938D01*
X20034Y-7938D01*
X20015Y-7947D01*
X20006Y-7957D01*
X19996Y-7975D01*
X19996Y-8013D01*
X20006Y-8032D01*
X20015Y-8041D01*
X20034Y-8050D01*
X20081Y-8050D01*
X20099Y-8041D01*
X20109Y-8032D01*
X20118Y-8013D01*
X20118Y-7975D01*
X20109Y-7957D01*
X20099Y-7947D01*
X20081Y-7938D01*
X20271Y-8435D02*
X20271Y-8313D01*
X20346Y-8379D01*
X20346Y-8351D01*
X20356Y-8332D01*
X20365Y-8322D01*
X20384Y-8313D01*
X20431Y-8313D01*
X20449Y-8322D01*
X20459Y-8332D01*
X20468Y-8351D01*
X20468Y-8407D01*
X20459Y-8426D01*
X20449Y-8435D01*
X20271Y-8191D02*
X20271Y-8172D01*
X20281Y-8154D01*
X20290Y-8144D01*
X20309Y-8135D01*
X20346Y-8125D01*
X20393Y-8125D01*
X20431Y-8135D01*
X20449Y-8144D01*
X20459Y-8154D01*
X20468Y-8172D01*
X20468Y-8191D01*
X20459Y-8210D01*
X20449Y-8219D01*
X20431Y-8229D01*
X20393Y-8238D01*
X20346Y-8238D01*
X20309Y-8229D01*
X20290Y-8219D01*
X20281Y-8210D01*
X20271Y-8191D01*
X20337Y-8041D02*
X20468Y-8041D01*
X20356Y-8041D02*
X20346Y-8032D01*
X20337Y-8013D01*
X20337Y-7985D01*
X20346Y-7966D01*
X20365Y-7957D01*
X20468Y-7957D01*
X19032Y-8122D02*
X19022Y-8132D01*
X18994Y-8141D01*
X18975Y-8141D01*
X18947Y-8132D01*
X18929Y-8113D01*
X18919Y-8094D01*
X18910Y-8057D01*
X18910Y-8029D01*
X18919Y-7991D01*
X18929Y-7972D01*
X18947Y-7954D01*
X18975Y-7944D01*
X18994Y-7944D01*
X19022Y-7954D01*
X19032Y-7963D01*
X19097Y-7944D02*
X19219Y-7944D01*
X19154Y-8019D01*
X19182Y-8019D01*
X19201Y-8029D01*
X19210Y-8038D01*
X19219Y-8057D01*
X19219Y-8104D01*
X19210Y-8122D01*
X19201Y-8132D01*
X19182Y-8141D01*
X19126Y-8141D01*
X19107Y-8132D01*
X19097Y-8122D01*
X19285Y-7944D02*
X19407Y-7944D01*
X19341Y-8019D01*
X19369Y-8019D01*
X19388Y-8029D01*
X19398Y-8038D01*
X19407Y-8057D01*
X19407Y-8104D01*
X19398Y-8122D01*
X19388Y-8132D01*
X19369Y-8141D01*
X19313Y-8141D01*
X19294Y-8132D01*
X19285Y-8122D01*
X18910Y-8219D02*
X19032Y-8219D01*
X18966Y-8294D01*
X18994Y-8294D01*
X19013Y-8304D01*
X19022Y-8313D01*
X19032Y-8332D01*
X19032Y-8379D01*
X19022Y-8397D01*
X19013Y-8407D01*
X18994Y-8416D01*
X18938Y-8416D01*
X18919Y-8407D01*
X18910Y-8397D01*
X19154Y-8219D02*
X19172Y-8219D01*
X19191Y-8229D01*
X19201Y-8238D01*
X19210Y-8257D01*
X19219Y-8294D01*
X19219Y-8341D01*
X19210Y-8379D01*
X19201Y-8397D01*
X19191Y-8407D01*
X19172Y-8416D01*
X19154Y-8416D01*
X19135Y-8407D01*
X19126Y-8397D01*
X19116Y-8379D01*
X19107Y-8341D01*
X19107Y-8294D01*
X19116Y-8257D01*
X19126Y-8238D01*
X19135Y-8229D01*
X19154Y-8219D01*
X19304Y-8285D02*
X19304Y-8416D01*
X19304Y-8304D02*
X19313Y-8294D01*
X19332Y-8285D01*
X19360Y-8285D01*
X19379Y-8294D01*
X19388Y-8313D01*
X19388Y-8416D01*
X15854Y-8653D02*
X15864Y-8662D01*
X15873Y-8691D01*
X15873Y-8709D01*
X15864Y-8738D01*
X15845Y-8756D01*
X15826Y-8766D01*
X15789Y-8775D01*
X15761Y-8775D01*
X15723Y-8766D01*
X15704Y-8756D01*
X15686Y-8738D01*
X15676Y-8709D01*
X15676Y-8691D01*
X15686Y-8662D01*
X15695Y-8653D01*
X15742Y-8484D02*
X15873Y-8484D01*
X15667Y-8531D02*
X15807Y-8578D01*
X15807Y-8456D01*
X15676Y-8344D02*
X15676Y-8325D01*
X15686Y-8306D01*
X15695Y-8297D01*
X15714Y-8287D01*
X15751Y-8278D01*
X15798Y-8278D01*
X15836Y-8287D01*
X15854Y-8297D01*
X15864Y-8306D01*
X15873Y-8325D01*
X15873Y-8344D01*
X15864Y-8362D01*
X15854Y-8372D01*
X15836Y-8381D01*
X15798Y-8390D01*
X15751Y-8390D01*
X15714Y-8381D01*
X15695Y-8372D01*
X15686Y-8362D01*
X15676Y-8344D01*
X15951Y-8775D02*
X15951Y-8653D01*
X16026Y-8719D01*
X16026Y-8691D01*
X16036Y-8672D01*
X16045Y-8662D01*
X16064Y-8653D01*
X16111Y-8653D01*
X16129Y-8662D01*
X16139Y-8672D01*
X16148Y-8691D01*
X16148Y-8747D01*
X16139Y-8766D01*
X16129Y-8775D01*
X15951Y-8531D02*
X15951Y-8512D01*
X15961Y-8494D01*
X15970Y-8484D01*
X15989Y-8475D01*
X16026Y-8465D01*
X16073Y-8465D01*
X16111Y-8475D01*
X16129Y-8484D01*
X16139Y-8494D01*
X16148Y-8512D01*
X16148Y-8531D01*
X16139Y-8550D01*
X16129Y-8559D01*
X16111Y-8569D01*
X16073Y-8578D01*
X16026Y-8578D01*
X15989Y-8569D01*
X15970Y-8559D01*
X15961Y-8550D01*
X15951Y-8531D01*
X16017Y-8381D02*
X16148Y-8381D01*
X16036Y-8381D02*
X16026Y-8372D01*
X16017Y-8353D01*
X16017Y-8325D01*
X16026Y-8306D01*
X16045Y-8297D01*
X16148Y-8297D01*
X22495Y-8886D02*
X22504Y-8895D01*
X22513Y-8924D01*
X22513Y-8942D01*
X22504Y-8970D01*
X22485Y-8989D01*
X22466Y-8999D01*
X22429Y-9008D01*
X22401Y-9008D01*
X22363Y-8999D01*
X22344Y-8989D01*
X22326Y-8970D01*
X22316Y-8942D01*
X22316Y-8924D01*
X22326Y-8895D01*
X22335Y-8886D01*
X22316Y-8820D02*
X22316Y-8698D01*
X22391Y-8764D01*
X22391Y-8736D01*
X22401Y-8717D01*
X22410Y-8708D01*
X22429Y-8698D01*
X22476Y-8698D01*
X22495Y-8708D01*
X22504Y-8717D01*
X22513Y-8736D01*
X22513Y-8792D01*
X22504Y-8811D01*
X22495Y-8820D01*
X22316Y-8576D02*
X22316Y-8558D01*
X22326Y-8539D01*
X22335Y-8530D01*
X22354Y-8520D01*
X22391Y-8511D01*
X22438Y-8511D01*
X22476Y-8520D01*
X22495Y-8530D01*
X22504Y-8539D01*
X22513Y-8558D01*
X22513Y-8576D01*
X22504Y-8595D01*
X22495Y-8605D01*
X22476Y-8614D01*
X22438Y-8623D01*
X22391Y-8623D01*
X22354Y-8614D01*
X22335Y-8605D01*
X22326Y-8595D01*
X22316Y-8576D01*
X22788Y-8886D02*
X22788Y-8999D01*
X22788Y-8942D02*
X22591Y-8942D01*
X22619Y-8961D01*
X22638Y-8980D01*
X22648Y-8999D01*
X22591Y-8764D02*
X22591Y-8745D01*
X22601Y-8727D01*
X22610Y-8717D01*
X22629Y-8708D01*
X22666Y-8698D01*
X22713Y-8698D01*
X22751Y-8708D01*
X22770Y-8717D01*
X22779Y-8727D01*
X22788Y-8745D01*
X22788Y-8764D01*
X22779Y-8783D01*
X22770Y-8792D01*
X22751Y-8802D01*
X22713Y-8811D01*
X22666Y-8811D01*
X22629Y-8802D01*
X22610Y-8792D01*
X22601Y-8783D01*
X22591Y-8764D01*
X22657Y-8614D02*
X22788Y-8614D01*
X22676Y-8614D02*
X22666Y-8605D01*
X22657Y-8586D01*
X22657Y-8558D01*
X22666Y-8539D01*
X22685Y-8530D01*
X22788Y-8530D01*
X21765Y-9043D02*
X21671Y-9109D01*
X21765Y-9156D02*
X21568Y-9156D01*
X21568Y-9081D01*
X21578Y-9062D01*
X21587Y-9053D01*
X21606Y-9043D01*
X21634Y-9043D01*
X21653Y-9053D01*
X21662Y-9062D01*
X21671Y-9081D01*
X21671Y-9156D01*
X21568Y-8978D02*
X21568Y-8856D01*
X21643Y-8922D01*
X21643Y-8893D01*
X21653Y-8875D01*
X21662Y-8865D01*
X21681Y-8856D01*
X21728Y-8856D01*
X21747Y-8865D01*
X21756Y-8875D01*
X21765Y-8893D01*
X21765Y-8950D01*
X21756Y-8968D01*
X21747Y-8978D01*
X21568Y-8734D02*
X21568Y-8715D01*
X21578Y-8696D01*
X21587Y-8687D01*
X21606Y-8678D01*
X21643Y-8668D01*
X21690Y-8668D01*
X21728Y-8678D01*
X21747Y-8687D01*
X21756Y-8696D01*
X21765Y-8715D01*
X21765Y-8734D01*
X21756Y-8753D01*
X21747Y-8762D01*
X21728Y-8771D01*
X21690Y-8781D01*
X21643Y-8781D01*
X21606Y-8771D01*
X21587Y-8762D01*
X21578Y-8753D01*
X21568Y-8734D01*
X22040Y-8940D02*
X22040Y-9053D01*
X22040Y-8997D02*
X21843Y-8997D01*
X21871Y-9015D01*
X21890Y-9034D01*
X21900Y-9053D01*
X22040Y-8856D02*
X21843Y-8856D01*
X21965Y-8837D02*
X22040Y-8781D01*
X21909Y-8781D02*
X21984Y-8856D01*
X19032Y-8861D02*
X18966Y-8767D01*
X18919Y-8861D02*
X18919Y-8664D01*
X18994Y-8664D01*
X19013Y-8674D01*
X19022Y-8683D01*
X19032Y-8702D01*
X19032Y-8730D01*
X19022Y-8749D01*
X19013Y-8758D01*
X18994Y-8767D01*
X18919Y-8767D01*
X19097Y-8664D02*
X19219Y-8664D01*
X19154Y-8739D01*
X19182Y-8739D01*
X19201Y-8749D01*
X19210Y-8758D01*
X19219Y-8777D01*
X19219Y-8824D01*
X19210Y-8842D01*
X19201Y-8852D01*
X19182Y-8861D01*
X19126Y-8861D01*
X19107Y-8852D01*
X19097Y-8842D01*
X19285Y-8664D02*
X19416Y-8664D01*
X19332Y-8861D01*
X18947Y-9136D02*
X18835Y-9136D01*
X18891Y-9136D02*
X18891Y-8939D01*
X18872Y-8967D01*
X18854Y-8986D01*
X18835Y-8995D01*
X19032Y-9136D02*
X19032Y-8939D01*
X19051Y-9061D02*
X19107Y-9136D01*
X19107Y-9005D02*
X19032Y-9080D01*
X19172Y-8939D02*
X19294Y-8939D01*
X19229Y-9014D01*
X19257Y-9014D01*
X19276Y-9024D01*
X19285Y-9033D01*
X19294Y-9052D01*
X19294Y-9099D01*
X19285Y-9117D01*
X19276Y-9127D01*
X19257Y-9136D01*
X19201Y-9136D01*
X19182Y-9127D01*
X19172Y-9117D01*
X19360Y-8939D02*
X19482Y-8939D01*
X19416Y-9014D01*
X19445Y-9014D01*
X19463Y-9024D01*
X19473Y-9033D01*
X19482Y-9052D01*
X19482Y-9099D01*
X19473Y-9117D01*
X19463Y-9127D01*
X19445Y-9136D01*
X19388Y-9136D01*
X19369Y-9127D01*
X19360Y-9117D01*
X16613Y-8653D02*
X16519Y-8719D01*
X16613Y-8766D02*
X16416Y-8766D01*
X16416Y-8691D01*
X16426Y-8672D01*
X16435Y-8662D01*
X16454Y-8653D01*
X16482Y-8653D01*
X16501Y-8662D01*
X16510Y-8672D01*
X16519Y-8691D01*
X16519Y-8766D01*
X16482Y-8484D02*
X16613Y-8484D01*
X16407Y-8531D02*
X16547Y-8578D01*
X16547Y-8456D01*
X16435Y-8390D02*
X16426Y-8381D01*
X16416Y-8362D01*
X16416Y-8315D01*
X16426Y-8297D01*
X16435Y-8287D01*
X16454Y-8278D01*
X16472Y-8278D01*
X16501Y-8287D01*
X16613Y-8400D01*
X16613Y-8278D01*
X16888Y-8738D02*
X16888Y-8850D01*
X16888Y-8794D02*
X16691Y-8794D01*
X16719Y-8813D01*
X16738Y-8831D01*
X16747Y-8850D01*
X16888Y-8653D02*
X16691Y-8653D01*
X16813Y-8634D02*
X16888Y-8578D01*
X16757Y-8578D02*
X16832Y-8653D01*
X16691Y-8512D02*
X16691Y-8390D01*
X16766Y-8456D01*
X16766Y-8428D01*
X16776Y-8409D01*
X16785Y-8400D01*
X16804Y-8390D01*
X16851Y-8390D01*
X16869Y-8400D01*
X16879Y-8409D01*
X16888Y-8428D01*
X16888Y-8484D01*
X16879Y-8503D01*
X16869Y-8512D01*
X16691Y-8325D02*
X16691Y-8203D01*
X16766Y-8268D01*
X16766Y-8240D01*
X16776Y-8222D01*
X16785Y-8212D01*
X16804Y-8203D01*
X16851Y-8203D01*
X16869Y-8212D01*
X16879Y-8222D01*
X16888Y-8240D01*
X16888Y-8297D01*
X16879Y-8315D01*
X16869Y-8325D01*
X9770Y-6897D02*
X9704Y-6803D01*
X9657Y-6897D02*
X9657Y-6700D01*
X9732Y-6700D01*
X9751Y-6710D01*
X9760Y-6719D01*
X9770Y-6738D01*
X9770Y-6766D01*
X9760Y-6785D01*
X9751Y-6794D01*
X9732Y-6803D01*
X9657Y-6803D01*
X9948Y-6700D02*
X9854Y-6700D01*
X9845Y-6794D01*
X9854Y-6785D01*
X9873Y-6775D01*
X9920Y-6775D01*
X9939Y-6785D01*
X9948Y-6794D01*
X9957Y-6813D01*
X9957Y-6860D01*
X9948Y-6878D01*
X9939Y-6888D01*
X9920Y-6897D01*
X9873Y-6897D01*
X9854Y-6888D01*
X9845Y-6878D01*
X9685Y-6622D02*
X9573Y-6622D01*
X9629Y-6622D02*
X9629Y-6425D01*
X9610Y-6453D01*
X9592Y-6472D01*
X9573Y-6481D01*
X9807Y-6425D02*
X9826Y-6425D01*
X9845Y-6435D01*
X9854Y-6444D01*
X9864Y-6463D01*
X9873Y-6500D01*
X9873Y-6547D01*
X9864Y-6585D01*
X9854Y-6603D01*
X9845Y-6613D01*
X9826Y-6622D01*
X9807Y-6622D01*
X9789Y-6613D01*
X9779Y-6603D01*
X9770Y-6585D01*
X9760Y-6547D01*
X9760Y-6500D01*
X9770Y-6463D01*
X9779Y-6444D01*
X9789Y-6435D01*
X9807Y-6425D01*
X9957Y-6622D02*
X9957Y-6425D01*
X9976Y-6547D02*
X10032Y-6622D01*
X10032Y-6491D02*
X9957Y-6566D01*
X9923Y-19039D02*
X9829Y-19105D01*
X9923Y-19152D02*
X9726Y-19152D01*
X9726Y-19077D01*
X9736Y-19058D01*
X9745Y-19049D01*
X9764Y-19039D01*
X9792Y-19039D01*
X9811Y-19049D01*
X9820Y-19058D01*
X9829Y-19077D01*
X9829Y-19152D01*
X9745Y-18964D02*
X9736Y-18955D01*
X9726Y-18936D01*
X9726Y-18889D01*
X9736Y-18870D01*
X9745Y-18861D01*
X9764Y-18852D01*
X9782Y-18852D01*
X9811Y-18861D01*
X9923Y-18974D01*
X9923Y-18852D01*
X9648Y-19124D02*
X9648Y-19236D01*
X9648Y-19180D02*
X9451Y-19180D01*
X9479Y-19199D01*
X9498Y-19218D01*
X9507Y-19236D01*
X9451Y-19002D02*
X9451Y-18983D01*
X9461Y-18964D01*
X9470Y-18955D01*
X9489Y-18945D01*
X9526Y-18936D01*
X9573Y-18936D01*
X9611Y-18945D01*
X9629Y-18955D01*
X9639Y-18964D01*
X9648Y-18983D01*
X9648Y-19002D01*
X9639Y-19021D01*
X9629Y-19030D01*
X9611Y-19039D01*
X9573Y-19049D01*
X9526Y-19049D01*
X9489Y-19039D01*
X9470Y-19030D01*
X9461Y-19021D01*
X9451Y-19002D01*
X9648Y-18852D02*
X9451Y-18852D01*
X9573Y-18833D02*
X9648Y-18777D01*
X9517Y-18777D02*
X9592Y-18852D01*
X24381Y-9142D02*
X24371Y-9152D01*
X24343Y-9161D01*
X24324Y-9161D01*
X24296Y-9152D01*
X24278Y-9133D01*
X24268Y-9114D01*
X24259Y-9077D01*
X24259Y-9048D01*
X24268Y-9011D01*
X24278Y-8992D01*
X24296Y-8973D01*
X24324Y-8964D01*
X24343Y-8964D01*
X24371Y-8973D01*
X24381Y-8983D01*
X24446Y-8964D02*
X24568Y-8964D01*
X24503Y-9039D01*
X24531Y-9039D01*
X24550Y-9048D01*
X24559Y-9058D01*
X24568Y-9077D01*
X24568Y-9123D01*
X24559Y-9142D01*
X24550Y-9152D01*
X24531Y-9161D01*
X24475Y-9161D01*
X24456Y-9152D01*
X24446Y-9142D01*
X24747Y-8964D02*
X24653Y-8964D01*
X24643Y-9058D01*
X24653Y-9048D01*
X24672Y-9039D01*
X24718Y-9039D01*
X24737Y-9048D01*
X24747Y-9058D01*
X24756Y-9077D01*
X24756Y-9123D01*
X24747Y-9142D01*
X24737Y-9152D01*
X24718Y-9161D01*
X24672Y-9161D01*
X24653Y-9152D01*
X24643Y-9142D01*
X24287Y-8886D02*
X24174Y-8886D01*
X24231Y-8886D02*
X24231Y-8689D01*
X24212Y-8717D01*
X24193Y-8736D01*
X24174Y-8745D01*
X24409Y-8689D02*
X24428Y-8689D01*
X24446Y-8698D01*
X24456Y-8708D01*
X24465Y-8726D01*
X24475Y-8764D01*
X24475Y-8811D01*
X24465Y-8848D01*
X24456Y-8867D01*
X24446Y-8877D01*
X24428Y-8886D01*
X24409Y-8886D01*
X24390Y-8877D01*
X24381Y-8867D01*
X24371Y-8848D01*
X24362Y-8811D01*
X24362Y-8764D01*
X24371Y-8726D01*
X24381Y-8708D01*
X24390Y-8698D01*
X24409Y-8689D01*
X24596Y-8689D02*
X24615Y-8689D01*
X24634Y-8698D01*
X24643Y-8708D01*
X24653Y-8726D01*
X24662Y-8764D01*
X24662Y-8811D01*
X24653Y-8848D01*
X24643Y-8867D01*
X24634Y-8877D01*
X24615Y-8886D01*
X24596Y-8886D01*
X24578Y-8877D01*
X24568Y-8867D01*
X24559Y-8848D01*
X24550Y-8811D01*
X24550Y-8764D01*
X24559Y-8726D01*
X24568Y-8708D01*
X24578Y-8698D01*
X24596Y-8689D01*
X24747Y-8755D02*
X24747Y-8886D01*
X24747Y-8773D02*
X24756Y-8764D01*
X24775Y-8755D01*
X24803Y-8755D01*
X24822Y-8764D01*
X24831Y-8783D01*
X24831Y-8886D01*
X6192Y-23321D02*
X6126Y-23227D01*
X6079Y-23321D02*
X6079Y-23124D01*
X6154Y-23124D01*
X6173Y-23134D01*
X6182Y-23143D01*
X6192Y-23162D01*
X6192Y-23190D01*
X6182Y-23209D01*
X6173Y-23218D01*
X6154Y-23227D01*
X6079Y-23227D01*
X6267Y-23143D02*
X6276Y-23134D01*
X6295Y-23124D01*
X6342Y-23124D01*
X6361Y-23134D01*
X6370Y-23143D01*
X6379Y-23162D01*
X6379Y-23180D01*
X6370Y-23209D01*
X6257Y-23321D01*
X6379Y-23321D01*
X6548Y-23190D02*
X6548Y-23321D01*
X6501Y-23115D02*
X6454Y-23256D01*
X6576Y-23256D01*
X6187Y-23596D02*
X6074Y-23596D01*
X6131Y-23596D02*
X6131Y-23399D01*
X6112Y-23427D01*
X6093Y-23446D01*
X6074Y-23455D01*
X6309Y-23399D02*
X6328Y-23399D01*
X6347Y-23409D01*
X6356Y-23418D01*
X6365Y-23437D01*
X6375Y-23474D01*
X6375Y-23521D01*
X6365Y-23559D01*
X6356Y-23577D01*
X6347Y-23587D01*
X6328Y-23596D01*
X6309Y-23596D01*
X6290Y-23587D01*
X6281Y-23577D01*
X6271Y-23559D01*
X6262Y-23521D01*
X6262Y-23474D01*
X6271Y-23437D01*
X6281Y-23418D01*
X6290Y-23409D01*
X6309Y-23399D01*
X6497Y-23399D02*
X6515Y-23399D01*
X6534Y-23409D01*
X6544Y-23418D01*
X6553Y-23437D01*
X6562Y-23474D01*
X6562Y-23521D01*
X6553Y-23559D01*
X6544Y-23577D01*
X6534Y-23587D01*
X6515Y-23596D01*
X6497Y-23596D01*
X6478Y-23587D01*
X6468Y-23577D01*
X6459Y-23559D01*
X6450Y-23521D01*
X6450Y-23474D01*
X6459Y-23437D01*
X6468Y-23418D01*
X6478Y-23409D01*
X6497Y-23399D01*
X6192Y-22221D02*
X6126Y-22127D01*
X6079Y-22221D02*
X6079Y-22024D01*
X6154Y-22024D01*
X6173Y-22034D01*
X6182Y-22043D01*
X6192Y-22062D01*
X6192Y-22090D01*
X6182Y-22109D01*
X6173Y-22118D01*
X6154Y-22127D01*
X6079Y-22127D01*
X6267Y-22043D02*
X6276Y-22034D01*
X6295Y-22024D01*
X6342Y-22024D01*
X6361Y-22034D01*
X6370Y-22043D01*
X6379Y-22062D01*
X6379Y-22080D01*
X6370Y-22109D01*
X6257Y-22221D01*
X6379Y-22221D01*
X6445Y-22024D02*
X6567Y-22024D01*
X6501Y-22099D01*
X6529Y-22099D01*
X6548Y-22109D01*
X6558Y-22118D01*
X6567Y-22137D01*
X6567Y-22184D01*
X6558Y-22202D01*
X6548Y-22212D01*
X6529Y-22221D01*
X6473Y-22221D01*
X6454Y-22212D01*
X6445Y-22202D01*
X6187Y-22496D02*
X6074Y-22496D01*
X6131Y-22496D02*
X6131Y-22299D01*
X6112Y-22327D01*
X6093Y-22346D01*
X6074Y-22355D01*
X6309Y-22299D02*
X6328Y-22299D01*
X6347Y-22309D01*
X6356Y-22318D01*
X6365Y-22337D01*
X6375Y-22374D01*
X6375Y-22421D01*
X6365Y-22459D01*
X6356Y-22477D01*
X6347Y-22487D01*
X6328Y-22496D01*
X6309Y-22496D01*
X6290Y-22487D01*
X6281Y-22477D01*
X6271Y-22459D01*
X6262Y-22421D01*
X6262Y-22374D01*
X6271Y-22337D01*
X6281Y-22318D01*
X6290Y-22309D01*
X6309Y-22299D01*
X6497Y-22299D02*
X6515Y-22299D01*
X6534Y-22309D01*
X6544Y-22318D01*
X6553Y-22337D01*
X6562Y-22374D01*
X6562Y-22421D01*
X6553Y-22459D01*
X6544Y-22477D01*
X6534Y-22487D01*
X6515Y-22496D01*
X6497Y-22496D01*
X6478Y-22487D01*
X6468Y-22477D01*
X6459Y-22459D01*
X6450Y-22421D01*
X6450Y-22374D01*
X6459Y-22337D01*
X6468Y-22318D01*
X6478Y-22309D01*
X6497Y-22299D01*
X25684Y-3484D02*
X25590Y-3549D01*
X25684Y-3596D02*
X25487Y-3596D01*
X25487Y-3521D01*
X25496Y-3502D01*
X25506Y-3493D01*
X25525Y-3484D01*
X25553Y-3484D01*
X25571Y-3493D01*
X25581Y-3502D01*
X25590Y-3521D01*
X25590Y-3596D01*
X25684Y-3296D02*
X25684Y-3409D01*
X25684Y-3352D02*
X25487Y-3352D01*
X25515Y-3371D01*
X25534Y-3390D01*
X25543Y-3409D01*
X25487Y-3127D02*
X25487Y-3165D01*
X25496Y-3183D01*
X25506Y-3193D01*
X25534Y-3212D01*
X25571Y-3221D01*
X25646Y-3221D01*
X25665Y-3212D01*
X25675Y-3202D01*
X25684Y-3183D01*
X25684Y-3146D01*
X25675Y-3127D01*
X25665Y-3118D01*
X25646Y-3108D01*
X25600Y-3108D01*
X25581Y-3118D01*
X25571Y-3127D01*
X25562Y-3146D01*
X25562Y-3183D01*
X25571Y-3202D01*
X25581Y-3212D01*
X25600Y-3221D01*
X25959Y-3474D02*
X25959Y-3587D01*
X25959Y-3531D02*
X25762Y-3531D01*
X25790Y-3549D01*
X25809Y-3568D01*
X25818Y-3587D01*
X25762Y-3352D02*
X25762Y-3334D01*
X25771Y-3315D01*
X25781Y-3305D01*
X25800Y-3296D01*
X25837Y-3287D01*
X25884Y-3287D01*
X25921Y-3296D01*
X25940Y-3305D01*
X25950Y-3315D01*
X25959Y-3334D01*
X25959Y-3352D01*
X25950Y-3371D01*
X25940Y-3380D01*
X25921Y-3390D01*
X25884Y-3399D01*
X25837Y-3399D01*
X25800Y-3390D01*
X25781Y-3380D01*
X25771Y-3371D01*
X25762Y-3352D01*
X25959Y-3202D02*
X25762Y-3202D01*
X25884Y-3183D02*
X25959Y-3127D01*
X25828Y-3127D02*
X25903Y-3202D01*
X8337Y-10806D02*
X8327Y-10815D01*
X8299Y-10824D01*
X8280Y-10824D01*
X8252Y-10815D01*
X8234Y-10796D01*
X8224Y-10777D01*
X8215Y-10740D01*
X8215Y-10712D01*
X8224Y-10674D01*
X8234Y-10655D01*
X8252Y-10637D01*
X8280Y-10627D01*
X8299Y-10627D01*
X8327Y-10637D01*
X8337Y-10646D01*
X8524Y-10824D02*
X8412Y-10824D01*
X8468Y-10824D02*
X8468Y-10627D01*
X8449Y-10655D01*
X8431Y-10674D01*
X8412Y-10684D01*
X8693Y-10693D02*
X8693Y-10824D01*
X8646Y-10618D02*
X8599Y-10759D01*
X8721Y-10759D01*
X8243Y-10549D02*
X8130Y-10549D01*
X8187Y-10549D02*
X8187Y-10352D01*
X8168Y-10380D01*
X8149Y-10399D01*
X8130Y-10409D01*
X8365Y-10352D02*
X8384Y-10352D01*
X8402Y-10362D01*
X8412Y-10371D01*
X8421Y-10390D01*
X8431Y-10427D01*
X8431Y-10474D01*
X8421Y-10512D01*
X8412Y-10531D01*
X8402Y-10540D01*
X8384Y-10549D01*
X8365Y-10549D01*
X8346Y-10540D01*
X8337Y-10531D01*
X8327Y-10512D01*
X8318Y-10474D01*
X8318Y-10427D01*
X8327Y-10390D01*
X8337Y-10371D01*
X8346Y-10362D01*
X8365Y-10352D01*
X8552Y-10352D02*
X8571Y-10352D01*
X8590Y-10362D01*
X8599Y-10371D01*
X8609Y-10390D01*
X8618Y-10427D01*
X8618Y-10474D01*
X8609Y-10512D01*
X8599Y-10531D01*
X8590Y-10540D01*
X8571Y-10549D01*
X8552Y-10549D01*
X8534Y-10540D01*
X8524Y-10531D01*
X8515Y-10512D01*
X8506Y-10474D01*
X8506Y-10427D01*
X8515Y-10390D01*
X8524Y-10371D01*
X8534Y-10362D01*
X8552Y-10352D01*
X8703Y-10418D02*
X8703Y-10549D01*
X8703Y-10437D02*
X8712Y-10427D01*
X8731Y-10418D01*
X8759Y-10418D01*
X8778Y-10427D01*
X8787Y-10446D01*
X8787Y-10549D01*
X14772Y-11352D02*
X14762Y-11362D01*
X14734Y-11371D01*
X14715Y-11371D01*
X14687Y-11362D01*
X14669Y-11343D01*
X14659Y-11324D01*
X14650Y-11287D01*
X14650Y-11259D01*
X14659Y-11221D01*
X14669Y-11202D01*
X14687Y-11184D01*
X14715Y-11174D01*
X14734Y-11174D01*
X14762Y-11184D01*
X14772Y-11193D01*
X14959Y-11371D02*
X14847Y-11371D01*
X14903Y-11371D02*
X14903Y-11174D01*
X14884Y-11202D01*
X14866Y-11221D01*
X14847Y-11230D01*
X15025Y-11174D02*
X15156Y-11174D01*
X15072Y-11371D01*
X14753Y-10965D02*
X14753Y-11096D01*
X14706Y-10890D02*
X14659Y-11031D01*
X14781Y-11031D01*
X14941Y-10965D02*
X14941Y-11096D01*
X14856Y-10965D02*
X14856Y-11068D01*
X14866Y-11087D01*
X14884Y-11096D01*
X14912Y-11096D01*
X14931Y-11087D01*
X14941Y-11077D01*
X15016Y-10899D02*
X15147Y-10899D01*
X15063Y-11096D01*
X24077Y-14049D02*
X24087Y-14058D01*
X24096Y-14087D01*
X24096Y-14105D01*
X24087Y-14133D01*
X24068Y-14152D01*
X24049Y-14162D01*
X24011Y-14171D01*
X23983Y-14171D01*
X23946Y-14162D01*
X23927Y-14152D01*
X23908Y-14133D01*
X23899Y-14105D01*
X23899Y-14087D01*
X23908Y-14058D01*
X23918Y-14049D01*
X23899Y-13983D02*
X23899Y-13861D01*
X23974Y-13927D01*
X23974Y-13899D01*
X23983Y-13880D01*
X23993Y-13871D01*
X24011Y-13861D01*
X24058Y-13861D01*
X24077Y-13871D01*
X24087Y-13880D01*
X24096Y-13899D01*
X24096Y-13955D01*
X24087Y-13974D01*
X24077Y-13983D01*
X23983Y-13749D02*
X23974Y-13768D01*
X23965Y-13777D01*
X23946Y-13786D01*
X23936Y-13786D01*
X23918Y-13777D01*
X23908Y-13768D01*
X23899Y-13749D01*
X23899Y-13711D01*
X23908Y-13693D01*
X23918Y-13683D01*
X23936Y-13674D01*
X23946Y-13674D01*
X23965Y-13683D01*
X23974Y-13693D01*
X23983Y-13711D01*
X23983Y-13749D01*
X23993Y-13768D01*
X24002Y-13777D01*
X24021Y-13786D01*
X24058Y-13786D01*
X24077Y-13777D01*
X24087Y-13768D01*
X24096Y-13749D01*
X24096Y-13711D01*
X24087Y-13693D01*
X24077Y-13683D01*
X24058Y-13674D01*
X24021Y-13674D01*
X24002Y-13683D01*
X23993Y-13693D01*
X23983Y-13711D01*
X23821Y-13955D02*
X23821Y-14068D01*
X23821Y-14011D02*
X23624Y-14011D01*
X23652Y-14030D01*
X23671Y-14049D01*
X23680Y-14068D01*
X23690Y-13786D02*
X23821Y-13786D01*
X23690Y-13871D02*
X23793Y-13871D01*
X23812Y-13861D01*
X23821Y-13843D01*
X23821Y-13814D01*
X23812Y-13796D01*
X23802Y-13786D01*
X24883Y-14049D02*
X24789Y-14115D01*
X24883Y-14162D02*
X24686Y-14162D01*
X24686Y-14087D01*
X24696Y-14068D01*
X24705Y-14058D01*
X24724Y-14049D01*
X24752Y-14049D01*
X24771Y-14058D01*
X24780Y-14068D01*
X24789Y-14087D01*
X24789Y-14162D01*
X24686Y-13983D02*
X24686Y-13861D01*
X24761Y-13927D01*
X24761Y-13899D01*
X24771Y-13880D01*
X24780Y-13871D01*
X24799Y-13861D01*
X24846Y-13861D01*
X24865Y-13871D01*
X24874Y-13880D01*
X24883Y-13899D01*
X24883Y-13955D01*
X24874Y-13974D01*
X24865Y-13983D01*
X24883Y-13768D02*
X24883Y-13730D01*
X24874Y-13711D01*
X24865Y-13702D01*
X24836Y-13683D01*
X24799Y-13674D01*
X24724Y-13674D01*
X24705Y-13683D01*
X24696Y-13693D01*
X24686Y-13711D01*
X24686Y-13749D01*
X24696Y-13768D01*
X24705Y-13777D01*
X24724Y-13786D01*
X24771Y-13786D01*
X24789Y-13777D01*
X24799Y-13768D01*
X24808Y-13749D01*
X24808Y-13711D01*
X24799Y-13693D01*
X24789Y-13683D01*
X24771Y-13674D01*
X24608Y-13960D02*
X24608Y-14072D01*
X24608Y-14016D02*
X24411Y-14016D01*
X24439Y-14035D01*
X24458Y-14054D01*
X24468Y-14072D01*
X24411Y-13838D02*
X24411Y-13819D01*
X24421Y-13800D01*
X24430Y-13791D01*
X24449Y-13782D01*
X24486Y-13772D01*
X24533Y-13772D01*
X24571Y-13782D01*
X24590Y-13791D01*
X24599Y-13800D01*
X24608Y-13819D01*
X24608Y-13838D01*
X24599Y-13857D01*
X24590Y-13866D01*
X24571Y-13875D01*
X24533Y-13885D01*
X24486Y-13885D01*
X24449Y-13875D01*
X24430Y-13866D01*
X24421Y-13857D01*
X24411Y-13838D01*
X12654Y-8913D02*
X12664Y-8922D01*
X12673Y-8951D01*
X12673Y-8969D01*
X12664Y-8998D01*
X12645Y-9016D01*
X12626Y-9026D01*
X12589Y-9035D01*
X12561Y-9035D01*
X12523Y-9026D01*
X12504Y-9016D01*
X12486Y-8998D01*
X12476Y-8969D01*
X12476Y-8951D01*
X12486Y-8922D01*
X12495Y-8913D01*
X12673Y-8725D02*
X12673Y-8838D01*
X12673Y-8782D02*
X12476Y-8782D01*
X12504Y-8801D01*
X12523Y-8819D01*
X12532Y-8838D01*
X12476Y-8557D02*
X12476Y-8594D01*
X12486Y-8613D01*
X12495Y-8622D01*
X12523Y-8641D01*
X12561Y-8650D01*
X12636Y-8650D01*
X12654Y-8641D01*
X12664Y-8632D01*
X12673Y-8613D01*
X12673Y-8575D01*
X12664Y-8557D01*
X12654Y-8547D01*
X12636Y-8538D01*
X12589Y-8538D01*
X12570Y-8547D01*
X12561Y-8557D01*
X12551Y-8575D01*
X12551Y-8613D01*
X12561Y-8632D01*
X12570Y-8641D01*
X12589Y-8650D01*
X12817Y-8932D02*
X12948Y-8932D01*
X12742Y-8979D02*
X12882Y-9026D01*
X12882Y-8904D01*
X12817Y-8744D02*
X12948Y-8744D01*
X12817Y-8829D02*
X12920Y-8829D01*
X12939Y-8819D01*
X12948Y-8801D01*
X12948Y-8772D01*
X12939Y-8754D01*
X12929Y-8744D01*
X12751Y-8669D02*
X12751Y-8538D01*
X12948Y-8622D01*
X15246Y-14071D02*
X15180Y-13977D01*
X15133Y-14071D02*
X15133Y-13874D01*
X15208Y-13874D01*
X15227Y-13884D01*
X15236Y-13893D01*
X15246Y-13912D01*
X15246Y-13940D01*
X15236Y-13959D01*
X15227Y-13968D01*
X15208Y-13977D01*
X15133Y-13977D01*
X15311Y-13874D02*
X15433Y-13874D01*
X15368Y-13949D01*
X15396Y-13949D01*
X15414Y-13959D01*
X15424Y-13968D01*
X15433Y-13987D01*
X15433Y-14034D01*
X15424Y-14052D01*
X15414Y-14062D01*
X15396Y-14071D01*
X15339Y-14071D01*
X15321Y-14062D01*
X15311Y-14052D01*
X15147Y-13796D02*
X15034Y-13796D01*
X15091Y-13796D02*
X15091Y-13599D01*
X15072Y-13627D01*
X15053Y-13646D01*
X15034Y-13655D01*
X15269Y-13599D02*
X15288Y-13599D01*
X15307Y-13609D01*
X15316Y-13618D01*
X15325Y-13637D01*
X15335Y-13674D01*
X15335Y-13721D01*
X15325Y-13759D01*
X15316Y-13777D01*
X15307Y-13787D01*
X15288Y-13796D01*
X15269Y-13796D01*
X15250Y-13787D01*
X15241Y-13777D01*
X15231Y-13759D01*
X15222Y-13721D01*
X15222Y-13674D01*
X15231Y-13637D01*
X15241Y-13618D01*
X15250Y-13609D01*
X15269Y-13599D01*
X15457Y-13599D02*
X15475Y-13599D01*
X15494Y-13609D01*
X15504Y-13618D01*
X15513Y-13637D01*
X15522Y-13674D01*
X15522Y-13721D01*
X15513Y-13759D01*
X15504Y-13777D01*
X15494Y-13787D01*
X15475Y-13796D01*
X15457Y-13796D01*
X15438Y-13787D01*
X15428Y-13777D01*
X15419Y-13759D01*
X15410Y-13721D01*
X15410Y-13674D01*
X15419Y-13637D01*
X15428Y-13618D01*
X15438Y-13609D01*
X15457Y-13599D01*
X16706Y-15822D02*
X16696Y-15832D01*
X16668Y-15841D01*
X16649Y-15841D01*
X16621Y-15832D01*
X16602Y-15813D01*
X16593Y-15794D01*
X16584Y-15757D01*
X16584Y-15729D01*
X16593Y-15691D01*
X16602Y-15672D01*
X16621Y-15654D01*
X16649Y-15644D01*
X16668Y-15644D01*
X16696Y-15654D01*
X16706Y-15663D01*
X16781Y-15663D02*
X16790Y-15654D01*
X16809Y-15644D01*
X16856Y-15644D01*
X16874Y-15654D01*
X16884Y-15663D01*
X16893Y-15682D01*
X16893Y-15700D01*
X16884Y-15729D01*
X16771Y-15841D01*
X16893Y-15841D01*
X16612Y-16116D02*
X16499Y-16116D01*
X16555Y-16116D02*
X16555Y-15919D01*
X16537Y-15947D01*
X16518Y-15966D01*
X16499Y-15975D01*
X16724Y-16004D02*
X16706Y-15994D01*
X16696Y-15985D01*
X16687Y-15966D01*
X16687Y-15957D01*
X16696Y-15938D01*
X16706Y-15929D01*
X16724Y-15919D01*
X16762Y-15919D01*
X16781Y-15929D01*
X16790Y-15938D01*
X16799Y-15957D01*
X16799Y-15966D01*
X16790Y-15985D01*
X16781Y-15994D01*
X16762Y-16004D01*
X16724Y-16004D01*
X16706Y-16013D01*
X16696Y-16022D01*
X16687Y-16041D01*
X16687Y-16079D01*
X16696Y-16097D01*
X16706Y-16107D01*
X16724Y-16116D01*
X16762Y-16116D01*
X16781Y-16107D01*
X16790Y-16097D01*
X16799Y-16079D01*
X16799Y-16041D01*
X16790Y-16022D01*
X16781Y-16013D01*
X16762Y-16004D01*
X16884Y-15985D02*
X16884Y-16182D01*
X16884Y-15994D02*
X16903Y-15985D01*
X16940Y-15985D01*
X16959Y-15994D01*
X16968Y-16004D01*
X16978Y-16022D01*
X16978Y-16079D01*
X16968Y-16097D01*
X16959Y-16107D01*
X16940Y-16116D01*
X16903Y-16116D01*
X16884Y-16107D01*
X17146Y-12912D02*
X17136Y-12922D01*
X17108Y-12931D01*
X17089Y-12931D01*
X17061Y-12922D01*
X17042Y-12903D01*
X17033Y-12884D01*
X17024Y-12847D01*
X17024Y-12819D01*
X17033Y-12781D01*
X17042Y-12762D01*
X17061Y-12744D01*
X17089Y-12734D01*
X17108Y-12734D01*
X17136Y-12744D01*
X17146Y-12753D01*
X17211Y-12734D02*
X17333Y-12734D01*
X17268Y-12809D01*
X17296Y-12809D01*
X17314Y-12819D01*
X17324Y-12828D01*
X17333Y-12847D01*
X17333Y-12894D01*
X17324Y-12912D01*
X17314Y-12922D01*
X17296Y-12931D01*
X17239Y-12931D01*
X17221Y-12922D01*
X17211Y-12912D01*
X17052Y-12656D02*
X16939Y-12656D01*
X16995Y-12656D02*
X16995Y-12459D01*
X16977Y-12487D01*
X16958Y-12506D01*
X16939Y-12515D01*
X17164Y-12544D02*
X17146Y-12534D01*
X17136Y-12525D01*
X17127Y-12506D01*
X17127Y-12497D01*
X17136Y-12478D01*
X17146Y-12469D01*
X17164Y-12459D01*
X17202Y-12459D01*
X17221Y-12469D01*
X17230Y-12478D01*
X17239Y-12497D01*
X17239Y-12506D01*
X17230Y-12525D01*
X17221Y-12534D01*
X17202Y-12544D01*
X17164Y-12544D01*
X17146Y-12553D01*
X17136Y-12562D01*
X17127Y-12581D01*
X17127Y-12619D01*
X17136Y-12637D01*
X17146Y-12647D01*
X17164Y-12656D01*
X17202Y-12656D01*
X17221Y-12647D01*
X17230Y-12637D01*
X17239Y-12619D01*
X17239Y-12581D01*
X17230Y-12562D01*
X17221Y-12553D01*
X17202Y-12544D01*
X17324Y-12525D02*
X17324Y-12722D01*
X17324Y-12534D02*
X17343Y-12525D01*
X17380Y-12525D01*
X17399Y-12534D01*
X17408Y-12544D01*
X17418Y-12562D01*
X17418Y-12619D01*
X17408Y-12637D01*
X17399Y-12647D01*
X17380Y-12656D01*
X17343Y-12656D01*
X17324Y-12647D01*
X18966Y-12151D02*
X18900Y-12057D01*
X18853Y-12151D02*
X18853Y-11954D01*
X18928Y-11954D01*
X18947Y-11964D01*
X18956Y-11973D01*
X18966Y-11992D01*
X18966Y-12020D01*
X18956Y-12039D01*
X18947Y-12048D01*
X18928Y-12057D01*
X18853Y-12057D01*
X19134Y-12020D02*
X19134Y-12151D01*
X19088Y-11945D02*
X19041Y-12086D01*
X19163Y-12086D01*
X18881Y-11876D02*
X18769Y-11876D01*
X18825Y-11876D02*
X18825Y-11679D01*
X18806Y-11707D01*
X18787Y-11726D01*
X18769Y-11735D01*
X19003Y-11679D02*
X19022Y-11679D01*
X19041Y-11689D01*
X19050Y-11698D01*
X19059Y-11717D01*
X19069Y-11754D01*
X19069Y-11801D01*
X19059Y-11839D01*
X19050Y-11857D01*
X19041Y-11867D01*
X19022Y-11876D01*
X19003Y-11876D01*
X18984Y-11867D01*
X18975Y-11857D01*
X18966Y-11839D01*
X18956Y-11801D01*
X18956Y-11754D01*
X18966Y-11717D01*
X18975Y-11698D01*
X18984Y-11689D01*
X19003Y-11679D01*
X19153Y-11876D02*
X19153Y-11679D01*
X19172Y-11801D02*
X19228Y-11876D01*
X19228Y-11745D02*
X19153Y-11820D01*
X17546Y-12132D02*
X17536Y-12142D01*
X17508Y-12151D01*
X17489Y-12151D01*
X17461Y-12142D01*
X17442Y-12123D01*
X17433Y-12104D01*
X17424Y-12067D01*
X17424Y-12039D01*
X17433Y-12001D01*
X17442Y-11982D01*
X17461Y-11964D01*
X17489Y-11954D01*
X17508Y-11954D01*
X17536Y-11964D01*
X17546Y-11973D01*
X17714Y-12020D02*
X17714Y-12151D01*
X17668Y-11945D02*
X17621Y-12086D01*
X17743Y-12086D01*
X17358Y-11876D02*
X17245Y-11876D01*
X17302Y-11876D02*
X17302Y-11679D01*
X17283Y-11707D01*
X17264Y-11726D01*
X17245Y-11735D01*
X17480Y-11679D02*
X17499Y-11679D01*
X17517Y-11689D01*
X17527Y-11698D01*
X17536Y-11717D01*
X17546Y-11754D01*
X17546Y-11801D01*
X17536Y-11839D01*
X17527Y-11857D01*
X17517Y-11867D01*
X17499Y-11876D01*
X17480Y-11876D01*
X17461Y-11867D01*
X17452Y-11857D01*
X17442Y-11839D01*
X17433Y-11801D01*
X17433Y-11754D01*
X17442Y-11717D01*
X17452Y-11698D01*
X17461Y-11689D01*
X17480Y-11679D01*
X17668Y-11679D02*
X17686Y-11679D01*
X17705Y-11689D01*
X17714Y-11698D01*
X17724Y-11717D01*
X17733Y-11754D01*
X17733Y-11801D01*
X17724Y-11839D01*
X17714Y-11857D01*
X17705Y-11867D01*
X17686Y-11876D01*
X17668Y-11876D01*
X17649Y-11867D01*
X17639Y-11857D01*
X17630Y-11839D01*
X17621Y-11801D01*
X17621Y-11754D01*
X17630Y-11717D01*
X17639Y-11698D01*
X17649Y-11689D01*
X17668Y-11679D01*
X17818Y-11745D02*
X17818Y-11876D01*
X17818Y-11764D02*
X17827Y-11754D01*
X17846Y-11745D01*
X17874Y-11745D01*
X17893Y-11754D01*
X17902Y-11773D01*
X17902Y-11876D01*
X8431Y-10018D02*
X8421Y-10028D01*
X8393Y-10037D01*
X8374Y-10037D01*
X8346Y-10028D01*
X8327Y-10009D01*
X8318Y-9990D01*
X8309Y-9952D01*
X8309Y-9924D01*
X8318Y-9887D01*
X8327Y-9868D01*
X8346Y-9849D01*
X8374Y-9840D01*
X8393Y-9840D01*
X8421Y-9849D01*
X8431Y-9859D01*
X8496Y-9840D02*
X8628Y-9840D01*
X8543Y-10037D01*
X8318Y-9631D02*
X8318Y-9762D01*
X8271Y-9556D02*
X8224Y-9696D01*
X8346Y-9696D01*
X8506Y-9631D02*
X8506Y-9762D01*
X8421Y-9631D02*
X8421Y-9734D01*
X8431Y-9753D01*
X8449Y-9762D01*
X8477Y-9762D01*
X8496Y-9753D01*
X8506Y-9743D01*
X8581Y-9565D02*
X8712Y-9565D01*
X8628Y-9762D01*
X8925Y-16061D02*
X8934Y-16071D01*
X8944Y-16099D01*
X8944Y-16117D01*
X8934Y-16146D01*
X8916Y-16164D01*
X8897Y-16174D01*
X8859Y-16183D01*
X8831Y-16183D01*
X8794Y-16174D01*
X8775Y-16164D01*
X8756Y-16146D01*
X8747Y-16117D01*
X8747Y-16099D01*
X8756Y-16071D01*
X8765Y-16061D01*
X8944Y-15874D02*
X8944Y-15986D01*
X8944Y-15930D02*
X8747Y-15930D01*
X8775Y-15949D01*
X8794Y-15967D01*
X8803Y-15986D01*
X8747Y-15808D02*
X8747Y-15686D01*
X8822Y-15752D01*
X8822Y-15723D01*
X8831Y-15705D01*
X8840Y-15695D01*
X8859Y-15686D01*
X8906Y-15686D01*
X8925Y-15695D01*
X8934Y-15705D01*
X8944Y-15723D01*
X8944Y-15780D01*
X8934Y-15799D01*
X8925Y-15808D01*
X8669Y-16155D02*
X8669Y-16268D01*
X8669Y-16211D02*
X8472Y-16211D01*
X8500Y-16230D01*
X8519Y-16249D01*
X8528Y-16268D01*
X8472Y-16033D02*
X8472Y-16014D01*
X8481Y-15996D01*
X8490Y-15986D01*
X8509Y-15977D01*
X8547Y-15967D01*
X8594Y-15967D01*
X8631Y-15977D01*
X8650Y-15986D01*
X8659Y-15996D01*
X8669Y-16014D01*
X8669Y-16033D01*
X8659Y-16052D01*
X8650Y-16061D01*
X8631Y-16071D01*
X8594Y-16080D01*
X8547Y-16080D01*
X8509Y-16071D01*
X8490Y-16061D01*
X8481Y-16052D01*
X8472Y-16033D01*
X8472Y-15845D02*
X8472Y-15827D01*
X8481Y-15808D01*
X8490Y-15799D01*
X8509Y-15789D01*
X8547Y-15780D01*
X8594Y-15780D01*
X8631Y-15789D01*
X8650Y-15799D01*
X8659Y-15808D01*
X8669Y-15827D01*
X8669Y-15845D01*
X8659Y-15864D01*
X8650Y-15874D01*
X8631Y-15883D01*
X8594Y-15892D01*
X8547Y-15892D01*
X8509Y-15883D01*
X8490Y-15874D01*
X8481Y-15864D01*
X8472Y-15845D01*
X8537Y-15695D02*
X8669Y-15695D01*
X8556Y-15695D02*
X8547Y-15686D01*
X8537Y-15667D01*
X8537Y-15639D01*
X8547Y-15620D01*
X8565Y-15611D01*
X8669Y-15611D01*
X12864Y-9808D02*
X12855Y-9817D01*
X12827Y-9826D01*
X12808Y-9826D01*
X12780Y-9817D01*
X12761Y-9798D01*
X12752Y-9779D01*
X12742Y-9742D01*
X12742Y-9714D01*
X12752Y-9676D01*
X12761Y-9657D01*
X12780Y-9639D01*
X12808Y-9629D01*
X12827Y-9629D01*
X12855Y-9639D01*
X12864Y-9648D01*
X13052Y-9826D02*
X12939Y-9826D01*
X12996Y-9826D02*
X12996Y-9629D01*
X12977Y-9657D01*
X12958Y-9676D01*
X12939Y-9686D01*
X13240Y-9826D02*
X13127Y-9826D01*
X13183Y-9826D02*
X13183Y-9629D01*
X13164Y-9657D01*
X13146Y-9676D01*
X13127Y-9686D01*
X12770Y-10101D02*
X12658Y-10101D01*
X12714Y-10101D02*
X12714Y-9904D01*
X12695Y-9932D01*
X12677Y-9951D01*
X12658Y-9961D01*
X12892Y-9904D02*
X12911Y-9904D01*
X12930Y-9914D01*
X12939Y-9923D01*
X12949Y-9942D01*
X12958Y-9979D01*
X12958Y-10026D01*
X12949Y-10064D01*
X12939Y-10083D01*
X12930Y-10092D01*
X12911Y-10101D01*
X12892Y-10101D01*
X12874Y-10092D01*
X12864Y-10083D01*
X12855Y-10064D01*
X12846Y-10026D01*
X12846Y-9979D01*
X12855Y-9942D01*
X12864Y-9923D01*
X12874Y-9914D01*
X12892Y-9904D01*
X13080Y-9904D02*
X13099Y-9904D01*
X13118Y-9914D01*
X13127Y-9923D01*
X13136Y-9942D01*
X13146Y-9979D01*
X13146Y-10026D01*
X13136Y-10064D01*
X13127Y-10083D01*
X13118Y-10092D01*
X13099Y-10101D01*
X13080Y-10101D01*
X13061Y-10092D01*
X13052Y-10083D01*
X13043Y-10064D01*
X13033Y-10026D01*
X13033Y-9979D01*
X13043Y-9942D01*
X13052Y-9923D01*
X13061Y-9914D01*
X13080Y-9904D01*
X13230Y-9970D02*
X13230Y-10101D01*
X13230Y-9989D02*
X13240Y-9979D01*
X13258Y-9970D01*
X13286Y-9970D01*
X13305Y-9979D01*
X13315Y-9998D01*
X13315Y-10101D01*
X13942Y-15595D02*
X13933Y-15604D01*
X13905Y-15614D01*
X13886Y-15614D01*
X13858Y-15604D01*
X13839Y-15586D01*
X13830Y-15567D01*
X13820Y-15529D01*
X13820Y-15501D01*
X13830Y-15464D01*
X13839Y-15445D01*
X13858Y-15426D01*
X13886Y-15417D01*
X13905Y-15417D01*
X13933Y-15426D01*
X13942Y-15435D01*
X14036Y-15614D02*
X14074Y-15614D01*
X14092Y-15604D01*
X14102Y-15595D01*
X14121Y-15567D01*
X14130Y-15529D01*
X14130Y-15454D01*
X14121Y-15435D01*
X14111Y-15426D01*
X14092Y-15417D01*
X14055Y-15417D01*
X14036Y-15426D01*
X14027Y-15435D01*
X14017Y-15454D01*
X14017Y-15501D01*
X14027Y-15520D01*
X14036Y-15529D01*
X14055Y-15539D01*
X14092Y-15539D01*
X14111Y-15529D01*
X14121Y-15520D01*
X14130Y-15501D01*
X13755Y-15889D02*
X13642Y-15889D01*
X13698Y-15889D02*
X13698Y-15692D01*
X13680Y-15720D01*
X13661Y-15739D01*
X13642Y-15748D01*
X13877Y-15692D02*
X13895Y-15692D01*
X13914Y-15701D01*
X13924Y-15710D01*
X13933Y-15729D01*
X13942Y-15767D01*
X13942Y-15814D01*
X13933Y-15851D01*
X13924Y-15870D01*
X13914Y-15879D01*
X13895Y-15889D01*
X13877Y-15889D01*
X13858Y-15879D01*
X13849Y-15870D01*
X13839Y-15851D01*
X13830Y-15814D01*
X13830Y-15767D01*
X13839Y-15729D01*
X13849Y-15710D01*
X13858Y-15701D01*
X13877Y-15692D01*
X14064Y-15692D02*
X14083Y-15692D01*
X14102Y-15701D01*
X14111Y-15710D01*
X14121Y-15729D01*
X14130Y-15767D01*
X14130Y-15814D01*
X14121Y-15851D01*
X14111Y-15870D01*
X14102Y-15879D01*
X14083Y-15889D01*
X14064Y-15889D01*
X14046Y-15879D01*
X14036Y-15870D01*
X14027Y-15851D01*
X14017Y-15814D01*
X14017Y-15767D01*
X14027Y-15729D01*
X14036Y-15710D01*
X14046Y-15701D01*
X14064Y-15692D01*
X14214Y-15757D02*
X14214Y-15889D01*
X14214Y-15776D02*
X14224Y-15767D01*
X14243Y-15757D01*
X14271Y-15757D01*
X14289Y-15767D01*
X14299Y-15785D01*
X14299Y-15889D01*
X14868Y-12075D02*
X14859Y-12085D01*
X14831Y-12094D01*
X14812Y-12094D01*
X14784Y-12085D01*
X14765Y-12066D01*
X14756Y-12047D01*
X14746Y-12010D01*
X14746Y-11981D01*
X14756Y-11944D01*
X14765Y-11925D01*
X14784Y-11906D01*
X14812Y-11897D01*
X14831Y-11897D01*
X14859Y-11906D01*
X14868Y-11916D01*
X15046Y-11897D02*
X14953Y-11897D01*
X14943Y-11991D01*
X14953Y-11981D01*
X14971Y-11972D01*
X15018Y-11972D01*
X15037Y-11981D01*
X15046Y-11991D01*
X15056Y-12010D01*
X15056Y-12056D01*
X15046Y-12075D01*
X15037Y-12085D01*
X15018Y-12094D01*
X14971Y-12094D01*
X14953Y-12085D01*
X14943Y-12075D01*
X14681Y-11819D02*
X14568Y-11819D01*
X14624Y-11819D02*
X14624Y-11622D01*
X14606Y-11650D01*
X14587Y-11669D01*
X14568Y-11678D01*
X14803Y-11622D02*
X14821Y-11622D01*
X14840Y-11631D01*
X14849Y-11641D01*
X14859Y-11660D01*
X14868Y-11697D01*
X14868Y-11744D01*
X14859Y-11781D01*
X14849Y-11800D01*
X14840Y-11810D01*
X14821Y-11819D01*
X14803Y-11819D01*
X14784Y-11810D01*
X14774Y-11800D01*
X14765Y-11781D01*
X14756Y-11744D01*
X14756Y-11697D01*
X14765Y-11660D01*
X14774Y-11641D01*
X14784Y-11631D01*
X14803Y-11622D01*
X14990Y-11622D02*
X15009Y-11622D01*
X15028Y-11631D01*
X15037Y-11641D01*
X15046Y-11660D01*
X15056Y-11697D01*
X15056Y-11744D01*
X15046Y-11781D01*
X15037Y-11800D01*
X15028Y-11810D01*
X15009Y-11819D01*
X14990Y-11819D01*
X14971Y-11810D01*
X14962Y-11800D01*
X14953Y-11781D01*
X14943Y-11744D01*
X14943Y-11697D01*
X14953Y-11660D01*
X14962Y-11641D01*
X14971Y-11631D01*
X14990Y-11622D01*
X15140Y-11688D02*
X15140Y-11819D01*
X15140Y-11706D02*
X15150Y-11697D01*
X15168Y-11688D01*
X15197Y-11688D01*
X15215Y-11697D01*
X15225Y-11716D01*
X15225Y-11819D01*
X3746Y-5352D02*
X3736Y-5362D01*
X3708Y-5371D01*
X3689Y-5371D01*
X3661Y-5362D01*
X3642Y-5343D01*
X3633Y-5324D01*
X3624Y-5287D01*
X3624Y-5259D01*
X3633Y-5221D01*
X3642Y-5202D01*
X3661Y-5184D01*
X3689Y-5174D01*
X3708Y-5174D01*
X3736Y-5184D01*
X3746Y-5193D01*
X3858Y-5259D02*
X3839Y-5249D01*
X3830Y-5240D01*
X3821Y-5221D01*
X3821Y-5212D01*
X3830Y-5193D01*
X3839Y-5184D01*
X3858Y-5174D01*
X3896Y-5174D01*
X3914Y-5184D01*
X3924Y-5193D01*
X3933Y-5212D01*
X3933Y-5221D01*
X3924Y-5240D01*
X3914Y-5249D01*
X3896Y-5259D01*
X3858Y-5259D01*
X3839Y-5268D01*
X3830Y-5277D01*
X3821Y-5296D01*
X3821Y-5334D01*
X3830Y-5352D01*
X3839Y-5362D01*
X3858Y-5371D01*
X3896Y-5371D01*
X3914Y-5362D01*
X3924Y-5352D01*
X3933Y-5334D01*
X3933Y-5296D01*
X3924Y-5277D01*
X3914Y-5268D01*
X3896Y-5259D01*
X3633Y-4965D02*
X3633Y-5096D01*
X3586Y-4890D02*
X3539Y-5031D01*
X3661Y-5031D01*
X3821Y-4965D02*
X3821Y-5096D01*
X3736Y-4965D02*
X3736Y-5068D01*
X3746Y-5087D01*
X3764Y-5096D01*
X3792Y-5096D01*
X3811Y-5087D01*
X3821Y-5077D01*
X3896Y-4899D02*
X4027Y-4899D01*
X3943Y-5096D01*
X4646Y-3771D02*
X4580Y-3677D01*
X4533Y-3771D02*
X4533Y-3574D01*
X4608Y-3574D01*
X4627Y-3584D01*
X4636Y-3593D01*
X4646Y-3612D01*
X4646Y-3640D01*
X4636Y-3659D01*
X4627Y-3668D01*
X4608Y-3677D01*
X4533Y-3677D01*
X4814Y-3574D02*
X4777Y-3574D01*
X4758Y-3584D01*
X4749Y-3593D01*
X4730Y-3621D01*
X4721Y-3659D01*
X4721Y-3734D01*
X4730Y-3752D01*
X4739Y-3762D01*
X4758Y-3771D01*
X4796Y-3771D01*
X4814Y-3762D01*
X4824Y-3752D01*
X4833Y-3734D01*
X4833Y-3687D01*
X4824Y-3668D01*
X4814Y-3659D01*
X4796Y-3649D01*
X4758Y-3649D01*
X4739Y-3659D01*
X4730Y-3668D01*
X4721Y-3687D01*
X4467Y-3496D02*
X4355Y-3496D01*
X4411Y-3496D02*
X4411Y-3299D01*
X4392Y-3327D01*
X4374Y-3346D01*
X4355Y-3355D01*
X4589Y-3299D02*
X4608Y-3299D01*
X4627Y-3309D01*
X4636Y-3318D01*
X4646Y-3337D01*
X4655Y-3374D01*
X4655Y-3421D01*
X4646Y-3459D01*
X4636Y-3477D01*
X4627Y-3487D01*
X4608Y-3496D01*
X4589Y-3496D01*
X4571Y-3487D01*
X4561Y-3477D01*
X4552Y-3459D01*
X4542Y-3421D01*
X4542Y-3374D01*
X4552Y-3337D01*
X4561Y-3318D01*
X4571Y-3309D01*
X4589Y-3299D01*
X4777Y-3299D02*
X4796Y-3299D01*
X4814Y-3309D01*
X4824Y-3318D01*
X4833Y-3337D01*
X4843Y-3374D01*
X4843Y-3421D01*
X4833Y-3459D01*
X4824Y-3477D01*
X4814Y-3487D01*
X4796Y-3496D01*
X4777Y-3496D01*
X4758Y-3487D01*
X4749Y-3477D01*
X4739Y-3459D01*
X4730Y-3421D01*
X4730Y-3374D01*
X4739Y-3337D01*
X4749Y-3318D01*
X4758Y-3309D01*
X4777Y-3299D01*
X4927Y-3496D02*
X4927Y-3299D01*
X4946Y-3421D02*
X5002Y-3496D01*
X5002Y-3365D02*
X4927Y-3440D01*
X4426Y-4572D02*
X4416Y-4582D01*
X4388Y-4591D01*
X4369Y-4591D01*
X4341Y-4582D01*
X4322Y-4563D01*
X4313Y-4544D01*
X4304Y-4507D01*
X4304Y-4479D01*
X4313Y-4441D01*
X4322Y-4422D01*
X4341Y-4404D01*
X4369Y-4394D01*
X4388Y-4394D01*
X4416Y-4404D01*
X4426Y-4413D01*
X4594Y-4394D02*
X4557Y-4394D01*
X4538Y-4404D01*
X4529Y-4413D01*
X4510Y-4441D01*
X4501Y-4479D01*
X4501Y-4554D01*
X4510Y-4572D01*
X4519Y-4582D01*
X4538Y-4591D01*
X4576Y-4591D01*
X4594Y-4582D01*
X4604Y-4572D01*
X4613Y-4554D01*
X4613Y-4507D01*
X4604Y-4488D01*
X4594Y-4479D01*
X4576Y-4469D01*
X4538Y-4469D01*
X4519Y-4479D01*
X4510Y-4488D01*
X4501Y-4507D01*
X4238Y-4316D02*
X4125Y-4316D01*
X4182Y-4316D02*
X4182Y-4119D01*
X4163Y-4147D01*
X4144Y-4166D01*
X4125Y-4175D01*
X4360Y-4119D02*
X4379Y-4119D01*
X4397Y-4129D01*
X4407Y-4138D01*
X4416Y-4157D01*
X4426Y-4194D01*
X4426Y-4241D01*
X4416Y-4279D01*
X4407Y-4297D01*
X4397Y-4307D01*
X4379Y-4316D01*
X4360Y-4316D01*
X4341Y-4307D01*
X4332Y-4297D01*
X4322Y-4279D01*
X4313Y-4241D01*
X4313Y-4194D01*
X4322Y-4157D01*
X4332Y-4138D01*
X4341Y-4129D01*
X4360Y-4119D01*
X4548Y-4119D02*
X4566Y-4119D01*
X4585Y-4129D01*
X4594Y-4138D01*
X4604Y-4157D01*
X4613Y-4194D01*
X4613Y-4241D01*
X4604Y-4279D01*
X4594Y-4297D01*
X4585Y-4307D01*
X4566Y-4316D01*
X4548Y-4316D01*
X4529Y-4307D01*
X4519Y-4297D01*
X4510Y-4279D01*
X4501Y-4241D01*
X4501Y-4194D01*
X4510Y-4157D01*
X4519Y-4138D01*
X4529Y-4129D01*
X4548Y-4119D01*
X4698Y-4185D02*
X4698Y-4316D01*
X4698Y-4204D02*
X4707Y-4194D01*
X4726Y-4185D01*
X4754Y-4185D01*
X4773Y-4194D01*
X4782Y-4213D01*
X4782Y-4316D01*
X4286Y-6212D02*
X4276Y-6222D01*
X4248Y-6231D01*
X4229Y-6231D01*
X4201Y-6222D01*
X4182Y-6203D01*
X4173Y-6184D01*
X4164Y-6147D01*
X4164Y-6119D01*
X4173Y-6081D01*
X4182Y-6062D01*
X4201Y-6044D01*
X4229Y-6034D01*
X4248Y-6034D01*
X4276Y-6044D01*
X4286Y-6053D01*
X4473Y-6231D02*
X4361Y-6231D01*
X4417Y-6231D02*
X4417Y-6034D01*
X4398Y-6062D01*
X4379Y-6081D01*
X4361Y-6090D01*
X4098Y-5956D02*
X3985Y-5956D01*
X4042Y-5956D02*
X4042Y-5759D01*
X4023Y-5787D01*
X4004Y-5806D01*
X3985Y-5815D01*
X4220Y-5759D02*
X4239Y-5759D01*
X4257Y-5769D01*
X4267Y-5778D01*
X4276Y-5797D01*
X4286Y-5834D01*
X4286Y-5881D01*
X4276Y-5919D01*
X4267Y-5937D01*
X4257Y-5947D01*
X4239Y-5956D01*
X4220Y-5956D01*
X4201Y-5947D01*
X4192Y-5937D01*
X4182Y-5919D01*
X4173Y-5881D01*
X4173Y-5834D01*
X4182Y-5797D01*
X4192Y-5778D01*
X4201Y-5769D01*
X4220Y-5759D01*
X4408Y-5759D02*
X4426Y-5759D01*
X4445Y-5769D01*
X4454Y-5778D01*
X4464Y-5797D01*
X4473Y-5834D01*
X4473Y-5881D01*
X4464Y-5919D01*
X4454Y-5937D01*
X4445Y-5947D01*
X4426Y-5956D01*
X4408Y-5956D01*
X4389Y-5947D01*
X4379Y-5937D01*
X4370Y-5919D01*
X4361Y-5881D01*
X4361Y-5834D01*
X4370Y-5797D01*
X4379Y-5778D01*
X4389Y-5769D01*
X4408Y-5759D01*
X4558Y-5825D02*
X4558Y-5956D01*
X4558Y-5844D02*
X4567Y-5834D01*
X4586Y-5825D01*
X4614Y-5825D01*
X4633Y-5834D01*
X4642Y-5853D01*
X4642Y-5956D01*
X4286Y-6971D02*
X4220Y-6877D01*
X4173Y-6971D02*
X4173Y-6774D01*
X4248Y-6774D01*
X4267Y-6784D01*
X4276Y-6793D01*
X4286Y-6812D01*
X4286Y-6840D01*
X4276Y-6859D01*
X4267Y-6868D01*
X4248Y-6877D01*
X4173Y-6877D01*
X4473Y-6971D02*
X4361Y-6971D01*
X4417Y-6971D02*
X4417Y-6774D01*
X4398Y-6802D01*
X4379Y-6821D01*
X4361Y-6830D01*
X4201Y-6696D02*
X4089Y-6696D01*
X4145Y-6696D02*
X4145Y-6499D01*
X4126Y-6527D01*
X4107Y-6546D01*
X4089Y-6555D01*
X4323Y-6499D02*
X4342Y-6499D01*
X4361Y-6509D01*
X4370Y-6518D01*
X4379Y-6537D01*
X4389Y-6574D01*
X4389Y-6621D01*
X4379Y-6659D01*
X4370Y-6677D01*
X4361Y-6687D01*
X4342Y-6696D01*
X4323Y-6696D01*
X4304Y-6687D01*
X4295Y-6677D01*
X4286Y-6659D01*
X4276Y-6621D01*
X4276Y-6574D01*
X4286Y-6537D01*
X4295Y-6518D01*
X4304Y-6509D01*
X4323Y-6499D01*
X4473Y-6696D02*
X4473Y-6499D01*
X4492Y-6621D02*
X4548Y-6696D01*
X4548Y-6565D02*
X4473Y-6640D01*
X24924Y-3484D02*
X24830Y-3549D01*
X24924Y-3596D02*
X24727Y-3596D01*
X24727Y-3521D01*
X24736Y-3502D01*
X24746Y-3493D01*
X24765Y-3484D01*
X24793Y-3484D01*
X24811Y-3493D01*
X24821Y-3502D01*
X24830Y-3521D01*
X24830Y-3596D01*
X24924Y-3296D02*
X24924Y-3409D01*
X24924Y-3352D02*
X24727Y-3352D01*
X24755Y-3371D01*
X24774Y-3390D01*
X24783Y-3409D01*
X24793Y-3127D02*
X24924Y-3127D01*
X24718Y-3174D02*
X24858Y-3221D01*
X24858Y-3099D01*
X25199Y-3474D02*
X25199Y-3587D01*
X25199Y-3531D02*
X25002Y-3531D01*
X25030Y-3549D01*
X25049Y-3568D01*
X25058Y-3587D01*
X25199Y-3390D02*
X25002Y-3390D01*
X25124Y-3371D02*
X25199Y-3315D01*
X25068Y-3315D02*
X25143Y-3390D01*
X25199Y-3127D02*
X25199Y-3240D01*
X25199Y-3183D02*
X25002Y-3183D01*
X25030Y-3202D01*
X25049Y-3221D01*
X25058Y-3240D01*
X25183Y-2503D02*
X25173Y-2512D01*
X25145Y-2522D01*
X25126Y-2522D01*
X25098Y-2512D01*
X25079Y-2494D01*
X25070Y-2475D01*
X25061Y-2437D01*
X25061Y-2409D01*
X25070Y-2372D01*
X25079Y-2353D01*
X25098Y-2334D01*
X25126Y-2325D01*
X25145Y-2325D01*
X25173Y-2334D01*
X25183Y-2343D01*
X25258Y-2343D02*
X25267Y-2334D01*
X25286Y-2325D01*
X25333Y-2325D01*
X25351Y-2334D01*
X25361Y-2343D01*
X25370Y-2362D01*
X25370Y-2381D01*
X25361Y-2409D01*
X25248Y-2522D01*
X25370Y-2522D01*
X25445Y-2343D02*
X25455Y-2334D01*
X25473Y-2325D01*
X25520Y-2325D01*
X25539Y-2334D01*
X25548Y-2343D01*
X25558Y-2362D01*
X25558Y-2381D01*
X25548Y-2409D01*
X25436Y-2522D01*
X25558Y-2522D01*
X25089Y-2247D02*
X24976Y-2247D01*
X25033Y-2247D02*
X25033Y-2050D01*
X25014Y-2078D01*
X24995Y-2097D01*
X24976Y-2106D01*
X25211Y-2050D02*
X25230Y-2050D01*
X25248Y-2059D01*
X25258Y-2068D01*
X25267Y-2087D01*
X25276Y-2125D01*
X25276Y-2172D01*
X25267Y-2209D01*
X25258Y-2228D01*
X25248Y-2237D01*
X25230Y-2247D01*
X25211Y-2247D01*
X25192Y-2237D01*
X25183Y-2228D01*
X25173Y-2209D01*
X25164Y-2172D01*
X25164Y-2125D01*
X25173Y-2087D01*
X25183Y-2068D01*
X25192Y-2059D01*
X25211Y-2050D01*
X25398Y-2050D02*
X25417Y-2050D01*
X25436Y-2059D01*
X25445Y-2068D01*
X25455Y-2087D01*
X25464Y-2125D01*
X25464Y-2172D01*
X25455Y-2209D01*
X25445Y-2228D01*
X25436Y-2237D01*
X25417Y-2247D01*
X25398Y-2247D01*
X25380Y-2237D01*
X25370Y-2228D01*
X25361Y-2209D01*
X25351Y-2172D01*
X25351Y-2125D01*
X25361Y-2087D01*
X25370Y-2068D01*
X25380Y-2059D01*
X25398Y-2050D01*
X25548Y-2115D02*
X25548Y-2247D01*
X25548Y-2134D02*
X25558Y-2125D01*
X25577Y-2115D01*
X25605Y-2115D01*
X25624Y-2125D01*
X25633Y-2144D01*
X25633Y-2247D01*
X22601Y-1725D02*
X22592Y-1735D01*
X22564Y-1744D01*
X22545Y-1744D01*
X22517Y-1735D01*
X22498Y-1716D01*
X22489Y-1697D01*
X22479Y-1660D01*
X22479Y-1632D01*
X22489Y-1594D01*
X22498Y-1575D01*
X22517Y-1556D01*
X22545Y-1547D01*
X22564Y-1547D01*
X22592Y-1556D01*
X22601Y-1566D01*
X22676Y-1566D02*
X22686Y-1556D01*
X22704Y-1547D01*
X22751Y-1547D01*
X22770Y-1556D01*
X22779Y-1566D01*
X22789Y-1585D01*
X22789Y-1603D01*
X22779Y-1632D01*
X22667Y-1744D01*
X22789Y-1744D01*
X22976Y-1744D02*
X22864Y-1744D01*
X22920Y-1744D02*
X22920Y-1547D01*
X22901Y-1575D01*
X22883Y-1594D01*
X22864Y-1603D01*
X22489Y-1291D02*
X22498Y-1281D01*
X22517Y-1272D01*
X22564Y-1272D01*
X22582Y-1281D01*
X22592Y-1291D01*
X22601Y-1310D01*
X22601Y-1328D01*
X22592Y-1357D01*
X22479Y-1469D01*
X22601Y-1469D01*
X22686Y-1338D02*
X22686Y-1469D01*
X22686Y-1357D02*
X22695Y-1347D01*
X22714Y-1338D01*
X22742Y-1338D01*
X22761Y-1347D01*
X22770Y-1366D01*
X22770Y-1469D01*
X22854Y-1291D02*
X22864Y-1281D01*
X22883Y-1272D01*
X22930Y-1272D01*
X22948Y-1281D01*
X22958Y-1291D01*
X22967Y-1310D01*
X22967Y-1328D01*
X22958Y-1357D01*
X22845Y-1469D01*
X22967Y-1469D01*
X21758Y-3477D02*
X21768Y-3486D01*
X21777Y-3515D01*
X21777Y-3533D01*
X21768Y-3561D01*
X21749Y-3580D01*
X21730Y-3590D01*
X21693Y-3599D01*
X21665Y-3599D01*
X21627Y-3590D01*
X21608Y-3580D01*
X21589Y-3561D01*
X21580Y-3533D01*
X21580Y-3515D01*
X21589Y-3486D01*
X21599Y-3477D01*
X21777Y-3289D02*
X21777Y-3402D01*
X21777Y-3346D02*
X21580Y-3346D01*
X21608Y-3364D01*
X21627Y-3383D01*
X21636Y-3402D01*
X21777Y-3196D02*
X21777Y-3158D01*
X21768Y-3139D01*
X21758Y-3130D01*
X21730Y-3111D01*
X21693Y-3102D01*
X21618Y-3102D01*
X21599Y-3111D01*
X21589Y-3121D01*
X21580Y-3139D01*
X21580Y-3177D01*
X21589Y-3196D01*
X21599Y-3205D01*
X21618Y-3214D01*
X21665Y-3214D01*
X21683Y-3205D01*
X21693Y-3196D01*
X21702Y-3177D01*
X21702Y-3139D01*
X21693Y-3121D01*
X21683Y-3111D01*
X21665Y-3102D01*
X22052Y-3571D02*
X22052Y-3683D01*
X22052Y-3627D02*
X21855Y-3627D01*
X21883Y-3646D01*
X21902Y-3665D01*
X21911Y-3683D01*
X21855Y-3449D02*
X21855Y-3430D01*
X21864Y-3411D01*
X21874Y-3402D01*
X21893Y-3393D01*
X21930Y-3383D01*
X21977Y-3383D01*
X22015Y-3393D01*
X22033Y-3402D01*
X22043Y-3411D01*
X22052Y-3430D01*
X22052Y-3449D01*
X22043Y-3468D01*
X22033Y-3477D01*
X22015Y-3486D01*
X21977Y-3496D01*
X21930Y-3496D01*
X21893Y-3486D01*
X21874Y-3477D01*
X21864Y-3468D01*
X21855Y-3449D01*
X21855Y-3261D02*
X21855Y-3242D01*
X21864Y-3224D01*
X21874Y-3214D01*
X21893Y-3205D01*
X21930Y-3196D01*
X21977Y-3196D01*
X22015Y-3205D01*
X22033Y-3214D01*
X22043Y-3224D01*
X22052Y-3242D01*
X22052Y-3261D01*
X22043Y-3280D01*
X22033Y-3289D01*
X22015Y-3299D01*
X21977Y-3308D01*
X21930Y-3308D01*
X21893Y-3299D01*
X21874Y-3289D01*
X21864Y-3280D01*
X21855Y-3261D01*
X21921Y-3111D02*
X22052Y-3111D01*
X21940Y-3111D02*
X21930Y-3102D01*
X21921Y-3083D01*
X21921Y-3055D01*
X21930Y-3036D01*
X21949Y-3027D01*
X22052Y-3027D01*
X23270Y-5445D02*
X23205Y-5351D01*
X23158Y-5445D02*
X23158Y-5248D01*
X23233Y-5248D01*
X23252Y-5257D01*
X23261Y-5267D01*
X23270Y-5285D01*
X23270Y-5314D01*
X23261Y-5332D01*
X23252Y-5342D01*
X23233Y-5351D01*
X23158Y-5351D01*
X23458Y-5445D02*
X23346Y-5445D01*
X23402Y-5445D02*
X23402Y-5248D01*
X23383Y-5276D01*
X23364Y-5295D01*
X23346Y-5304D01*
X23524Y-5248D02*
X23646Y-5248D01*
X23580Y-5323D01*
X23608Y-5323D01*
X23627Y-5332D01*
X23636Y-5342D01*
X23646Y-5360D01*
X23646Y-5407D01*
X23636Y-5426D01*
X23627Y-5435D01*
X23608Y-5445D01*
X23552Y-5445D01*
X23533Y-5435D01*
X23524Y-5426D01*
X23153Y-4973D02*
X23172Y-4973D01*
X23191Y-4982D01*
X23200Y-4992D01*
X23210Y-5010D01*
X23219Y-5048D01*
X23219Y-5095D01*
X23210Y-5132D01*
X23200Y-5151D01*
X23191Y-5160D01*
X23172Y-5170D01*
X23153Y-5170D01*
X23134Y-5160D01*
X23125Y-5151D01*
X23116Y-5132D01*
X23106Y-5095D01*
X23106Y-5048D01*
X23116Y-5010D01*
X23125Y-4992D01*
X23134Y-4982D01*
X23153Y-4973D01*
X23303Y-5151D02*
X23313Y-5160D01*
X23303Y-5170D01*
X23294Y-5160D01*
X23303Y-5151D01*
X23303Y-5170D01*
X23500Y-5170D02*
X23388Y-5170D01*
X23444Y-5170D02*
X23444Y-4973D01*
X23425Y-5001D01*
X23407Y-5020D01*
X23388Y-5029D01*
X23679Y-4973D02*
X23585Y-4973D01*
X23575Y-5067D01*
X23585Y-5057D01*
X23604Y-5048D01*
X23650Y-5048D01*
X23669Y-5057D01*
X23679Y-5067D01*
X23688Y-5085D01*
X23688Y-5132D01*
X23679Y-5151D01*
X23669Y-5160D01*
X23650Y-5170D01*
X23604Y-5170D01*
X23585Y-5160D01*
X23575Y-5151D01*
X19052Y-10101D02*
X18986Y-10007D01*
X18939Y-10101D02*
X18939Y-9904D01*
X19014Y-9904D01*
X19033Y-9914D01*
X19042Y-9923D01*
X19052Y-9942D01*
X19052Y-9970D01*
X19042Y-9989D01*
X19033Y-9998D01*
X19014Y-10007D01*
X18939Y-10007D01*
X19117Y-9904D02*
X19239Y-9904D01*
X19174Y-9979D01*
X19202Y-9979D01*
X19221Y-9989D01*
X19230Y-9998D01*
X19239Y-10017D01*
X19239Y-10064D01*
X19230Y-10082D01*
X19221Y-10092D01*
X19202Y-10101D01*
X19146Y-10101D01*
X19127Y-10092D01*
X19117Y-10082D01*
X19352Y-9989D02*
X19333Y-9979D01*
X19324Y-9970D01*
X19314Y-9951D01*
X19314Y-9942D01*
X19324Y-9923D01*
X19333Y-9914D01*
X19352Y-9904D01*
X19389Y-9904D01*
X19408Y-9914D01*
X19418Y-9923D01*
X19427Y-9942D01*
X19427Y-9951D01*
X19418Y-9970D01*
X19408Y-9979D01*
X19389Y-9989D01*
X19352Y-9989D01*
X19333Y-9998D01*
X19324Y-10007D01*
X19314Y-10026D01*
X19314Y-10064D01*
X19324Y-10082D01*
X19333Y-10092D01*
X19352Y-10101D01*
X19389Y-10101D01*
X19408Y-10092D01*
X19418Y-10082D01*
X19427Y-10064D01*
X19427Y-10026D01*
X19418Y-10007D01*
X19408Y-9998D01*
X19389Y-9989D01*
X19136Y-10245D02*
X19136Y-10376D01*
X19089Y-10170D02*
X19042Y-10311D01*
X19164Y-10311D01*
X19239Y-10376D02*
X19239Y-10179D01*
X19258Y-10301D02*
X19314Y-10376D01*
X19314Y-10245D02*
X19239Y-10320D01*
X17712Y-8141D02*
X17646Y-8047D01*
X17599Y-8141D02*
X17599Y-7944D01*
X17674Y-7944D01*
X17693Y-7954D01*
X17702Y-7963D01*
X17712Y-7982D01*
X17712Y-8010D01*
X17702Y-8029D01*
X17693Y-8038D01*
X17674Y-8047D01*
X17599Y-8047D01*
X17777Y-7944D02*
X17899Y-7944D01*
X17834Y-8019D01*
X17862Y-8019D01*
X17881Y-8029D01*
X17890Y-8038D01*
X17899Y-8057D01*
X17899Y-8104D01*
X17890Y-8122D01*
X17881Y-8132D01*
X17862Y-8141D01*
X17806Y-8141D01*
X17787Y-8132D01*
X17777Y-8122D01*
X18068Y-7944D02*
X18031Y-7944D01*
X18012Y-7954D01*
X18003Y-7963D01*
X17984Y-7991D01*
X17974Y-8029D01*
X17974Y-8104D01*
X17984Y-8122D01*
X17993Y-8132D01*
X18012Y-8141D01*
X18049Y-8141D01*
X18068Y-8132D01*
X18078Y-8122D01*
X18087Y-8104D01*
X18087Y-8057D01*
X18078Y-8038D01*
X18068Y-8029D01*
X18049Y-8019D01*
X18012Y-8019D01*
X17993Y-8029D01*
X17984Y-8038D01*
X17974Y-8057D01*
X17815Y-8416D02*
X17702Y-8416D01*
X17759Y-8416D02*
X17759Y-8219D01*
X17740Y-8247D01*
X17721Y-8266D01*
X17702Y-8275D01*
X17899Y-8416D02*
X17899Y-8219D01*
X17918Y-8341D02*
X17974Y-8416D01*
X17974Y-8285D02*
X17899Y-8360D01*
X16852Y-9501D02*
X16786Y-9407D01*
X16739Y-9501D02*
X16739Y-9304D01*
X16814Y-9304D01*
X16833Y-9314D01*
X16842Y-9323D01*
X16852Y-9342D01*
X16852Y-9370D01*
X16842Y-9389D01*
X16833Y-9398D01*
X16814Y-9407D01*
X16739Y-9407D01*
X17021Y-9370D02*
X17021Y-9501D01*
X16974Y-9295D02*
X16927Y-9436D01*
X17049Y-9436D01*
X17105Y-9304D02*
X17227Y-9304D01*
X17161Y-9379D01*
X17189Y-9379D01*
X17208Y-9389D01*
X17218Y-9398D01*
X17227Y-9417D01*
X17227Y-9464D01*
X17218Y-9482D01*
X17208Y-9492D01*
X17189Y-9501D01*
X17133Y-9501D01*
X17114Y-9492D01*
X17105Y-9482D01*
X16936Y-9645D02*
X16936Y-9776D01*
X16889Y-9570D02*
X16842Y-9711D01*
X16964Y-9711D01*
X17039Y-9776D02*
X17039Y-9579D01*
X17058Y-9701D02*
X17114Y-9776D01*
X17114Y-9645D02*
X17039Y-9720D01*
X15873Y-9993D02*
X15779Y-10059D01*
X15873Y-10106D02*
X15676Y-10106D01*
X15676Y-10031D01*
X15686Y-10012D01*
X15695Y-10002D01*
X15714Y-9993D01*
X15742Y-9993D01*
X15761Y-10002D01*
X15770Y-10012D01*
X15779Y-10031D01*
X15779Y-10106D01*
X15742Y-9824D02*
X15873Y-9824D01*
X15667Y-9871D02*
X15807Y-9918D01*
X15807Y-9796D01*
X15873Y-9618D02*
X15873Y-9730D01*
X15873Y-9674D02*
X15676Y-9674D01*
X15704Y-9693D01*
X15723Y-9712D01*
X15732Y-9730D01*
X16148Y-9890D02*
X16148Y-10002D01*
X16148Y-9946D02*
X15951Y-9946D01*
X15979Y-9965D01*
X15998Y-9984D01*
X16007Y-10002D01*
X16148Y-9805D02*
X15951Y-9805D01*
X16073Y-9787D02*
X16148Y-9730D01*
X16017Y-9730D02*
X16092Y-9805D01*
X20443Y-9673D02*
X20349Y-9739D01*
X20443Y-9786D02*
X20246Y-9786D01*
X20246Y-9711D01*
X20256Y-9692D01*
X20265Y-9682D01*
X20284Y-9673D01*
X20312Y-9673D01*
X20331Y-9682D01*
X20340Y-9692D01*
X20349Y-9711D01*
X20349Y-9786D01*
X20246Y-9607D02*
X20246Y-9485D01*
X20321Y-9551D01*
X20321Y-9523D01*
X20331Y-9504D01*
X20340Y-9495D01*
X20359Y-9485D01*
X20406Y-9485D01*
X20424Y-9495D01*
X20434Y-9504D01*
X20443Y-9523D01*
X20443Y-9579D01*
X20434Y-9598D01*
X20424Y-9607D01*
X20443Y-9298D02*
X20443Y-9410D01*
X20443Y-9354D02*
X20246Y-9354D01*
X20274Y-9373D01*
X20293Y-9392D01*
X20302Y-9410D01*
X20168Y-9570D02*
X20168Y-9682D01*
X20168Y-9626D02*
X19971Y-9626D01*
X19999Y-9645D01*
X20018Y-9664D01*
X20027Y-9682D01*
X20168Y-9485D02*
X19971Y-9485D01*
X20093Y-9467D02*
X20168Y-9410D01*
X20037Y-9410D02*
X20112Y-9485D01*
X21203Y-9673D02*
X21109Y-9739D01*
X21203Y-9786D02*
X21006Y-9786D01*
X21006Y-9711D01*
X21016Y-9692D01*
X21025Y-9682D01*
X21044Y-9673D01*
X21072Y-9673D01*
X21091Y-9682D01*
X21100Y-9692D01*
X21109Y-9711D01*
X21109Y-9786D01*
X21006Y-9607D02*
X21006Y-9485D01*
X21081Y-9551D01*
X21081Y-9523D01*
X21091Y-9504D01*
X21100Y-9495D01*
X21119Y-9485D01*
X21166Y-9485D01*
X21184Y-9495D01*
X21194Y-9504D01*
X21203Y-9523D01*
X21203Y-9579D01*
X21194Y-9598D01*
X21184Y-9607D01*
X21006Y-9420D02*
X21006Y-9298D01*
X21081Y-9364D01*
X21081Y-9335D01*
X21091Y-9317D01*
X21100Y-9307D01*
X21119Y-9298D01*
X21166Y-9298D01*
X21184Y-9307D01*
X21194Y-9317D01*
X21203Y-9335D01*
X21203Y-9392D01*
X21194Y-9410D01*
X21184Y-9420D01*
X20797Y-9589D02*
X20928Y-9589D01*
X20722Y-9636D02*
X20862Y-9682D01*
X20862Y-9561D01*
X20928Y-9485D02*
X20731Y-9485D01*
X20853Y-9467D02*
X20928Y-9410D01*
X20797Y-9410D02*
X20872Y-9485D01*
G54D10*
X27068Y-3431D02*
X27068Y-3619D01*
X26675Y-3619D01*
X27068Y-3094D02*
X27068Y-3319D01*
X27068Y-3206D02*
X26675Y-3206D01*
X26731Y-3244D01*
X26768Y-3281D01*
X26787Y-3319D01*
X28269Y-3844D02*
X28269Y-4031D01*
X28457Y-4050D01*
X28438Y-4031D01*
X28419Y-3994D01*
X28419Y-3900D01*
X28438Y-3862D01*
X28457Y-3844D01*
X28494Y-3825D01*
X28588Y-3825D01*
X28625Y-3844D01*
X28644Y-3862D01*
X28663Y-3900D01*
X28663Y-3994D01*
X28644Y-4031D01*
X28625Y-4050D01*
X28269Y-3581D02*
X28269Y-3544D01*
X28288Y-3506D01*
X28307Y-3488D01*
X28344Y-3469D01*
X28419Y-3450D01*
X28513Y-3450D01*
X28588Y-3469D01*
X28625Y-3488D01*
X28644Y-3506D01*
X28663Y-3544D01*
X28663Y-3581D01*
X28644Y-3619D01*
X28625Y-3637D01*
X28588Y-3656D01*
X28513Y-3675D01*
X28419Y-3675D01*
X28344Y-3656D01*
X28307Y-3637D01*
X28288Y-3619D01*
X28269Y-3581D01*
X28400Y-3113D02*
X28663Y-3113D01*
X28400Y-3281D02*
X28607Y-3281D01*
X28644Y-3263D01*
X28663Y-3225D01*
X28663Y-3169D01*
X28644Y-3131D01*
X28625Y-3113D01*
X28663Y-2925D02*
X28269Y-2925D01*
X28457Y-2925D02*
X28457Y-2700D01*
X28663Y-2700D02*
X28269Y-2700D01*
X25367Y-7324D02*
X25179Y-7324D01*
X25179Y-6931D01*
X25479Y-6968D02*
X25498Y-6949D01*
X25536Y-6931D01*
X25629Y-6931D01*
X25667Y-6949D01*
X25686Y-6968D01*
X25704Y-7005D01*
X25704Y-7043D01*
X25686Y-7099D01*
X25461Y-7324D01*
X25704Y-7324D01*
X24955Y-5336D02*
X24767Y-5336D01*
X24748Y-5523D01*
X24767Y-5505D01*
X24805Y-5486D01*
X24898Y-5486D01*
X24936Y-5505D01*
X24955Y-5523D01*
X24973Y-5561D01*
X24973Y-5655D01*
X24955Y-5692D01*
X24936Y-5711D01*
X24898Y-5730D01*
X24805Y-5730D01*
X24767Y-5711D01*
X24748Y-5692D01*
X25217Y-5336D02*
X25254Y-5336D01*
X25292Y-5355D01*
X25311Y-5374D01*
X25329Y-5411D01*
X25348Y-5486D01*
X25348Y-5580D01*
X25329Y-5655D01*
X25311Y-5692D01*
X25292Y-5711D01*
X25254Y-5730D01*
X25217Y-5730D01*
X25179Y-5711D01*
X25161Y-5692D01*
X25142Y-5655D01*
X25123Y-5580D01*
X25123Y-5486D01*
X25142Y-5411D01*
X25161Y-5374D01*
X25179Y-5355D01*
X25217Y-5336D01*
X25686Y-5467D02*
X25686Y-5730D01*
X25517Y-5467D02*
X25517Y-5673D01*
X25536Y-5711D01*
X25573Y-5730D01*
X25629Y-5730D01*
X25667Y-5711D01*
X25686Y-5692D01*
X25873Y-5730D02*
X25873Y-5336D01*
X25873Y-5523D02*
X26098Y-5523D01*
X26098Y-5730D02*
X26098Y-5336D01*
G54D12*
X4230Y-22562D02*
X3830Y-22562D01*
X4230Y-22333D02*
X4002Y-22505D01*
X3830Y-22333D02*
X4059Y-22562D01*
X3868Y-22181D02*
X3849Y-22162D01*
X3830Y-22124D01*
X3830Y-22028D01*
X3849Y-21990D01*
X3868Y-21971D01*
X3906Y-21952D01*
X3945Y-21952D01*
X4002Y-21971D01*
X4230Y-22200D01*
X4230Y-21952D01*
X7832Y-16536D02*
X7432Y-16536D01*
X7832Y-16308D02*
X7603Y-16479D01*
X7432Y-16308D02*
X7660Y-16536D01*
X7832Y-15927D02*
X7832Y-16156D01*
X7832Y-16041D02*
X7432Y-16041D01*
X7489Y-16079D01*
X7527Y-16117D01*
X7546Y-16156D01*
X3230Y-22562D02*
X2830Y-22562D01*
X3230Y-22333D02*
X3002Y-22505D01*
X2830Y-22333D02*
X3059Y-22562D01*
X2830Y-22200D02*
X2830Y-21952D01*
X2983Y-22085D01*
X2983Y-22028D01*
X3002Y-21990D01*
X3021Y-21971D01*
X3059Y-21952D01*
X3154Y-21952D01*
X3192Y-21971D01*
X3211Y-21990D01*
X3230Y-22028D01*
X3230Y-22143D01*
X3211Y-22181D01*
X3192Y-22200D01*
X8130Y-19588D02*
X7830Y-19588D01*
X7830Y-19474D01*
X7844Y-19445D01*
X7858Y-19431D01*
X7887Y-19416D01*
X7930Y-19416D01*
X7958Y-19431D01*
X7973Y-19445D01*
X7987Y-19474D01*
X7987Y-19588D01*
X8130Y-19131D02*
X8130Y-19302D01*
X8130Y-19216D02*
X7830Y-19216D01*
X7873Y-19245D01*
X7901Y-19274D01*
X7916Y-19302D01*
X19330Y-13608D02*
X19030Y-13608D01*
X19030Y-13494D01*
X19044Y-13465D01*
X19058Y-13451D01*
X19087Y-13436D01*
X19130Y-13436D01*
X19158Y-13451D01*
X19173Y-13465D01*
X19187Y-13494D01*
X19187Y-13608D01*
X19058Y-13322D02*
X19044Y-13308D01*
X19030Y-13279D01*
X19030Y-13208D01*
X19044Y-13179D01*
X19058Y-13165D01*
X19087Y-13151D01*
X19116Y-13151D01*
X19158Y-13165D01*
X19330Y-13336D01*
X19330Y-13151D01*
G54D24*
X5292Y-434D02*
X5292Y-593D01*
X5301Y-612D01*
X5310Y-621D01*
X5329Y-630D01*
X5367Y-630D01*
X5385Y-621D01*
X5395Y-612D01*
X5404Y-593D01*
X5404Y-434D01*
X5479Y-434D02*
X5601Y-434D01*
X5535Y-508D01*
X5564Y-508D01*
X5582Y-518D01*
X5592Y-527D01*
X5601Y-546D01*
X5601Y-593D01*
X5592Y-612D01*
X5582Y-621D01*
X5564Y-630D01*
X5507Y-630D01*
X5489Y-621D01*
X5479Y-612D01*
X4392Y-237D02*
X4392Y-40D01*
X4457Y-180D01*
X4523Y-40D01*
X4523Y-237D01*
X4617Y-237D02*
X4617Y-40D01*
X4823Y-218D02*
X4814Y-227D01*
X4786Y-237D01*
X4767Y-237D01*
X4739Y-227D01*
X4720Y-209D01*
X4711Y-190D01*
X4701Y-152D01*
X4701Y-124D01*
X4711Y-87D01*
X4720Y-68D01*
X4739Y-49D01*
X4767Y-40D01*
X4786Y-40D01*
X4814Y-49D01*
X4823Y-59D01*
X5020Y-237D02*
X4954Y-143D01*
X4907Y-237D02*
X4907Y-40D01*
X4982Y-40D01*
X5001Y-49D01*
X5011Y-59D01*
X5020Y-77D01*
X5020Y-105D01*
X5011Y-124D01*
X5001Y-134D01*
X4982Y-143D01*
X4907Y-143D01*
X5142Y-40D02*
X5179Y-40D01*
X5198Y-49D01*
X5217Y-68D01*
X5226Y-105D01*
X5226Y-171D01*
X5217Y-209D01*
X5198Y-227D01*
X5179Y-237D01*
X5142Y-237D01*
X5123Y-227D01*
X5104Y-209D01*
X5095Y-171D01*
X5095Y-105D01*
X5104Y-68D01*
X5123Y-49D01*
X5142Y-40D01*
X5310Y-162D02*
X5460Y-162D01*
X5554Y-40D02*
X5554Y-199D01*
X5564Y-218D01*
X5573Y-227D01*
X5592Y-237D01*
X5629Y-237D01*
X5648Y-227D01*
X5657Y-218D01*
X5667Y-199D01*
X5667Y-40D01*
X5751Y-227D02*
X5779Y-237D01*
X5826Y-237D01*
X5845Y-227D01*
X5854Y-218D01*
X5864Y-199D01*
X5864Y-180D01*
X5854Y-162D01*
X5845Y-152D01*
X5826Y-143D01*
X5789Y-134D01*
X5770Y-124D01*
X5760Y-115D01*
X5751Y-96D01*
X5751Y-77D01*
X5760Y-59D01*
X5770Y-49D01*
X5789Y-40D01*
X5835Y-40D01*
X5864Y-49D01*
X6014Y-134D02*
X6042Y-143D01*
X6051Y-152D01*
X6060Y-171D01*
X6060Y-199D01*
X6051Y-218D01*
X6042Y-227D01*
X6023Y-237D01*
X5948Y-237D01*
X5948Y-40D01*
X6014Y-40D01*
X6032Y-49D01*
X6042Y-59D01*
X6051Y-77D01*
X6051Y-96D01*
X6042Y-115D01*
X6032Y-124D01*
X6014Y-134D01*
X5948Y-134D01*
X6145Y-162D02*
X6295Y-162D01*
X6454Y-134D02*
X6482Y-143D01*
X6492Y-152D01*
X6501Y-171D01*
X6501Y-199D01*
X6492Y-218D01*
X6482Y-227D01*
X6463Y-237D01*
X6388Y-237D01*
X6388Y-40D01*
X6454Y-40D01*
X6473Y-49D01*
X6482Y-59D01*
X6492Y-77D01*
X6492Y-96D01*
X6482Y-115D01*
X6473Y-124D01*
X6454Y-134D01*
X6388Y-134D01*
G54D13*
X31292Y-4245D02*
X31268Y-4269D01*
X31197Y-4292D01*
X31149Y-4292D01*
X31078Y-4269D01*
X31030Y-4221D01*
X31007Y-4173D01*
X30983Y-4078D01*
X30983Y-4007D01*
X31007Y-3911D01*
X31030Y-3864D01*
X31078Y-3816D01*
X31149Y-3792D01*
X31197Y-3792D01*
X31268Y-3816D01*
X31292Y-3840D01*
X31483Y-3840D02*
X31507Y-3816D01*
X31554Y-3792D01*
X31673Y-3792D01*
X31721Y-3816D01*
X31745Y-3840D01*
X31768Y-3888D01*
X31768Y-3935D01*
X31745Y-4007D01*
X31459Y-4292D01*
X31768Y-4292D01*
X32197Y-3959D02*
X32197Y-4292D01*
X32078Y-3769D02*
X31959Y-4126D01*
X32268Y-4126D01*
X30745Y-1792D02*
X31054Y-1792D01*
X30887Y-1983D01*
X30959Y-1983D01*
X31007Y-2007D01*
X31030Y-2031D01*
X31054Y-2078D01*
X31054Y-2197D01*
X31030Y-2245D01*
X31007Y-2269D01*
X30959Y-2292D01*
X30816Y-2292D01*
X30768Y-2269D01*
X30745Y-2245D01*
X31221Y-1792D02*
X31530Y-1792D01*
X31364Y-1983D01*
X31435Y-1983D01*
X31483Y-2007D01*
X31507Y-2031D01*
X31530Y-2078D01*
X31530Y-2197D01*
X31507Y-2245D01*
X31483Y-2269D01*
X31435Y-2292D01*
X31292Y-2292D01*
X31245Y-2269D01*
X31221Y-2245D01*
X31840Y-1792D02*
X31887Y-1792D01*
X31935Y-1816D01*
X31959Y-1840D01*
X31983Y-1888D01*
X32007Y-1983D01*
X32007Y-2102D01*
X31983Y-2197D01*
X31959Y-2245D01*
X31935Y-2269D01*
X31887Y-2292D01*
X31840Y-2292D01*
X31792Y-2269D01*
X31768Y-2245D01*
X31745Y-2197D01*
X31721Y-2102D01*
X31721Y-1983D01*
X31745Y-1888D01*
X31768Y-1840D01*
X31792Y-1816D01*
X31840Y-1792D01*
X32435Y-1959D02*
X32435Y-2292D01*
X32221Y-1959D02*
X32221Y-2221D01*
X32245Y-2269D01*
X32292Y-2292D01*
X32364Y-2292D01*
X32411Y-2269D01*
X32435Y-2245D01*
X29088Y-6261D02*
X29064Y-6284D01*
X28992Y-6308D01*
X28945Y-6308D01*
X28873Y-6284D01*
X28826Y-6237D01*
X28802Y-6189D01*
X28778Y-6094D01*
X28778Y-6022D01*
X28802Y-5927D01*
X28826Y-5880D01*
X28873Y-5832D01*
X28945Y-5808D01*
X28992Y-5808D01*
X29064Y-5832D01*
X29088Y-5856D01*
X29254Y-5808D02*
X29564Y-5808D01*
X29397Y-5999D01*
X29468Y-5999D01*
X29516Y-6022D01*
X29540Y-6046D01*
X29564Y-6094D01*
X29564Y-6213D01*
X29540Y-6261D01*
X29516Y-6284D01*
X29468Y-6308D01*
X29326Y-6308D01*
X29278Y-6284D01*
X29254Y-6261D01*
X29992Y-5808D02*
X29897Y-5808D01*
X29849Y-5832D01*
X29826Y-5856D01*
X29778Y-5927D01*
X29754Y-6022D01*
X29754Y-6213D01*
X29778Y-6261D01*
X29802Y-6284D01*
X29849Y-6308D01*
X29945Y-6308D01*
X29992Y-6284D01*
X30016Y-6261D01*
X30040Y-6213D01*
X30040Y-6094D01*
X30016Y-6046D01*
X29992Y-6022D01*
X29945Y-5999D01*
X29849Y-5999D01*
X29802Y-6022D01*
X29778Y-6046D01*
X29754Y-6094D01*
X28540Y-7808D02*
X28849Y-7808D01*
X28683Y-7999D01*
X28754Y-7999D01*
X28802Y-8022D01*
X28826Y-8046D01*
X28849Y-8094D01*
X28849Y-8213D01*
X28826Y-8261D01*
X28802Y-8284D01*
X28754Y-8308D01*
X28611Y-8308D01*
X28564Y-8284D01*
X28540Y-8261D01*
X29016Y-7808D02*
X29326Y-7808D01*
X29159Y-7999D01*
X29230Y-7999D01*
X29278Y-8022D01*
X29302Y-8046D01*
X29326Y-8094D01*
X29326Y-8213D01*
X29302Y-8261D01*
X29278Y-8284D01*
X29230Y-8308D01*
X29088Y-8308D01*
X29040Y-8284D01*
X29016Y-8261D01*
X29635Y-7808D02*
X29683Y-7808D01*
X29730Y-7832D01*
X29754Y-7856D01*
X29778Y-7903D01*
X29802Y-7999D01*
X29802Y-8118D01*
X29778Y-8213D01*
X29754Y-8261D01*
X29730Y-8284D01*
X29683Y-8308D01*
X29635Y-8308D01*
X29588Y-8284D01*
X29564Y-8261D01*
X29540Y-8213D01*
X29516Y-8118D01*
X29516Y-7999D01*
X29540Y-7903D01*
X29564Y-7856D01*
X29588Y-7832D01*
X29635Y-7808D01*
X30230Y-7975D02*
X30230Y-8308D01*
X30016Y-7975D02*
X30016Y-8237D01*
X30040Y-8284D01*
X30088Y-8308D01*
X30159Y-8308D01*
X30207Y-8284D01*
X30230Y-8261D01*
X12953Y-6068D02*
X12977Y-6092D01*
X13001Y-6163D01*
X13001Y-6211D01*
X12977Y-6282D01*
X12929Y-6330D01*
X12882Y-6354D01*
X12786Y-6377D01*
X12715Y-6377D01*
X12620Y-6354D01*
X12572Y-6330D01*
X12525Y-6282D01*
X12501Y-6211D01*
X12501Y-6163D01*
X12525Y-6092D01*
X12548Y-6068D01*
X13001Y-5592D02*
X13001Y-5877D01*
X13001Y-5735D02*
X12501Y-5735D01*
X12572Y-5782D01*
X12620Y-5830D01*
X12644Y-5877D01*
X12501Y-5139D02*
X12501Y-5377D01*
X12739Y-5401D01*
X12715Y-5377D01*
X12691Y-5330D01*
X12691Y-5211D01*
X12715Y-5163D01*
X12739Y-5139D01*
X12786Y-5115D01*
X12906Y-5115D01*
X12953Y-5139D01*
X12977Y-5163D01*
X13001Y-5211D01*
X13001Y-5330D01*
X12977Y-5377D01*
X12953Y-5401D01*
X14501Y-6615D02*
X14501Y-6306D01*
X14691Y-6473D01*
X14691Y-6401D01*
X14715Y-6354D01*
X14739Y-6330D01*
X14786Y-6306D01*
X14906Y-6306D01*
X14953Y-6330D01*
X14977Y-6354D01*
X15001Y-6401D01*
X15001Y-6544D01*
X14977Y-6592D01*
X14953Y-6615D01*
X14501Y-6139D02*
X14501Y-5830D01*
X14691Y-5996D01*
X14691Y-5925D01*
X14715Y-5877D01*
X14739Y-5854D01*
X14786Y-5830D01*
X14906Y-5830D01*
X14953Y-5854D01*
X14977Y-5877D01*
X15001Y-5925D01*
X15001Y-6068D01*
X14977Y-6115D01*
X14953Y-6139D01*
X14501Y-5520D02*
X14501Y-5473D01*
X14525Y-5425D01*
X14548Y-5401D01*
X14596Y-5377D01*
X14691Y-5354D01*
X14810Y-5354D01*
X14906Y-5377D01*
X14953Y-5401D01*
X14977Y-5425D01*
X15001Y-5473D01*
X15001Y-5520D01*
X14977Y-5568D01*
X14953Y-5592D01*
X14906Y-5615D01*
X14810Y-5639D01*
X14691Y-5639D01*
X14596Y-5615D01*
X14548Y-5592D01*
X14525Y-5568D01*
X14501Y-5520D01*
X14667Y-4925D02*
X15001Y-4925D01*
X14667Y-5139D02*
X14929Y-5139D01*
X14977Y-5115D01*
X15001Y-5068D01*
X15001Y-4996D01*
X14977Y-4949D01*
X14953Y-4925D01*
X19603Y-128D02*
X19603Y271D01*
X19756Y271D01*
X19794Y252D01*
X19813Y233D01*
X19832Y194D01*
X19832Y137D01*
X19813Y99D01*
X19794Y80D01*
X19756Y61D01*
X19603Y61D01*
X19965Y271D02*
X20213Y271D01*
X20079Y118D01*
X20136Y118D01*
X20175Y99D01*
X20194Y80D01*
X20213Y42D01*
X20213Y-52D01*
X20194Y-90D01*
X20175Y-109D01*
X20136Y-128D01*
X20022Y-128D01*
X19984Y-109D01*
X19965Y-90D01*
X16603Y-128D02*
X16603Y271D01*
X16756Y271D01*
X16794Y252D01*
X16813Y233D01*
X16832Y194D01*
X16832Y137D01*
X16813Y99D01*
X16794Y80D01*
X16756Y61D01*
X16603Y61D01*
X17175Y137D02*
X17175Y-128D01*
X17079Y290D02*
X16984Y4D01*
X17232Y4D01*
X29323Y-17528D02*
X29323Y-17128D01*
X29476Y-17128D01*
X29514Y-17147D01*
X29533Y-17166D01*
X29552Y-17205D01*
X29552Y-17262D01*
X29533Y-17300D01*
X29514Y-17319D01*
X29476Y-17338D01*
X29323Y-17338D01*
X29914Y-17128D02*
X29723Y-17128D01*
X29704Y-17319D01*
X29723Y-17300D01*
X29761Y-17281D01*
X29856Y-17281D01*
X29895Y-17300D01*
X29914Y-17319D01*
X29933Y-17357D01*
X29933Y-17452D01*
X29914Y-17490D01*
X29895Y-17509D01*
X29856Y-17528D01*
X29761Y-17528D01*
X29723Y-17509D01*
X29704Y-17490D01*
X26523Y-17528D02*
X26523Y-17128D01*
X26676Y-17128D01*
X26714Y-17147D01*
X26733Y-17166D01*
X26752Y-17205D01*
X26752Y-17262D01*
X26733Y-17300D01*
X26714Y-17319D01*
X26676Y-17338D01*
X26523Y-17338D01*
X26885Y-17128D02*
X27152Y-17128D01*
X26980Y-17528D01*
X23723Y-19928D02*
X23723Y-19528D01*
X23876Y-19528D01*
X23914Y-19547D01*
X23933Y-19566D01*
X23952Y-19605D01*
X23952Y-19662D01*
X23933Y-19700D01*
X23914Y-19719D01*
X23876Y-19738D01*
X23723Y-19738D01*
X24295Y-19528D02*
X24218Y-19528D01*
X24180Y-19547D01*
X24161Y-19566D01*
X24123Y-19624D01*
X24104Y-19700D01*
X24104Y-19852D01*
X24123Y-19890D01*
X24142Y-19909D01*
X24180Y-19928D01*
X24256Y-19928D01*
X24295Y-19909D01*
X24314Y-19890D01*
X24333Y-19852D01*
X24333Y-19757D01*
X24314Y-19719D01*
X24295Y-19700D01*
X24256Y-19681D01*
X24180Y-19681D01*
X24142Y-19700D01*
X24123Y-19719D01*
X24104Y-19757D01*
G54D10*
X23522Y-10168D02*
X23522Y-10487D01*
X23541Y-10525D01*
X23559Y-10543D01*
X23597Y-10562D01*
X23672Y-10562D01*
X23709Y-10543D01*
X23728Y-10525D01*
X23747Y-10487D01*
X23747Y-10168D01*
X24140Y-10562D02*
X23916Y-10562D01*
X24028Y-10562D02*
X24028Y-10168D01*
X23991Y-10225D01*
X23953Y-10262D01*
X23916Y-10281D01*
X24384Y-10168D02*
X24422Y-10168D01*
X24459Y-10187D01*
X24478Y-10206D01*
X24497Y-10243D01*
X24515Y-10318D01*
X24515Y-10412D01*
X24497Y-10487D01*
X24478Y-10525D01*
X24459Y-10543D01*
X24422Y-10562D01*
X24384Y-10562D01*
X24347Y-10543D01*
X24328Y-10525D01*
X24309Y-10487D01*
X24290Y-10412D01*
X24290Y-10318D01*
X24309Y-10243D01*
X24328Y-10206D01*
X24347Y-10187D01*
X24384Y-10168D01*
X22613Y-12168D02*
X22838Y-12168D01*
X22725Y-12562D02*
X22725Y-12168D01*
X22969Y-12562D02*
X22969Y-12168D01*
X23063Y-12168D01*
X23119Y-12187D01*
X23156Y-12225D01*
X23175Y-12262D01*
X23194Y-12337D01*
X23194Y-12393D01*
X23175Y-12468D01*
X23156Y-12506D01*
X23119Y-12543D01*
X23063Y-12562D01*
X22969Y-12562D01*
X23344Y-12450D02*
X23531Y-12450D01*
X23306Y-12562D02*
X23437Y-12168D01*
X23569Y-12562D01*
X23681Y-12206D02*
X23700Y-12187D01*
X23737Y-12168D01*
X23831Y-12168D01*
X23869Y-12187D01*
X23887Y-12206D01*
X23906Y-12243D01*
X23906Y-12281D01*
X23887Y-12337D01*
X23662Y-12562D01*
X23906Y-12562D01*
X24150Y-12168D02*
X24187Y-12168D01*
X24225Y-12187D01*
X24244Y-12206D01*
X24262Y-12243D01*
X24281Y-12318D01*
X24281Y-12412D01*
X24262Y-12487D01*
X24244Y-12525D01*
X24225Y-12543D01*
X24187Y-12562D01*
X24150Y-12562D01*
X24112Y-12543D01*
X24094Y-12525D01*
X24075Y-12487D01*
X24056Y-12412D01*
X24056Y-12318D01*
X24075Y-12243D01*
X24094Y-12206D01*
X24112Y-12187D01*
X24150Y-12168D01*
X24412Y-12168D02*
X24656Y-12168D01*
X24525Y-12318D01*
X24581Y-12318D01*
X24619Y-12337D01*
X24637Y-12356D01*
X24656Y-12393D01*
X24656Y-12487D01*
X24637Y-12525D01*
X24619Y-12543D01*
X24581Y-12562D01*
X24469Y-12562D01*
X24431Y-12543D01*
X24412Y-12525D01*
X24900Y-12168D02*
X24937Y-12168D01*
X24975Y-12187D01*
X24994Y-12206D01*
X25012Y-12243D01*
X25031Y-12318D01*
X25031Y-12412D01*
X25012Y-12487D01*
X24994Y-12525D01*
X24975Y-12543D01*
X24937Y-12562D01*
X24900Y-12562D01*
X24862Y-12543D01*
X24844Y-12525D01*
X24825Y-12487D01*
X24806Y-12412D01*
X24806Y-12318D01*
X24825Y-12243D01*
X24844Y-12206D01*
X24862Y-12187D01*
X24900Y-12168D01*
X25181Y-12450D02*
X25368Y-12450D01*
X25143Y-12562D02*
X25275Y-12168D01*
X25406Y-12562D01*
X32729Y-13213D02*
X33048Y-13213D01*
X33085Y-13194D01*
X33104Y-13175D01*
X33123Y-13138D01*
X33123Y-13063D01*
X33104Y-13025D01*
X33085Y-13007D01*
X33048Y-12988D01*
X32729Y-12988D01*
X33123Y-12782D02*
X33123Y-12707D01*
X33104Y-12669D01*
X33085Y-12650D01*
X33029Y-12613D01*
X32954Y-12594D01*
X32804Y-12594D01*
X32766Y-12613D01*
X32748Y-12632D01*
X32729Y-12669D01*
X32729Y-12744D01*
X32748Y-12782D01*
X32766Y-12800D01*
X32804Y-12819D01*
X32898Y-12819D01*
X32935Y-12800D01*
X32954Y-12782D01*
X32973Y-12744D01*
X32973Y-12669D01*
X32954Y-12632D01*
X32935Y-12613D01*
X32898Y-12594D01*
X31904Y-15828D02*
X31923Y-15772D01*
X31923Y-15678D01*
X31904Y-15641D01*
X31885Y-15622D01*
X31848Y-15603D01*
X31810Y-15603D01*
X31773Y-15622D01*
X31754Y-15641D01*
X31735Y-15678D01*
X31716Y-15753D01*
X31698Y-15791D01*
X31679Y-15809D01*
X31641Y-15828D01*
X31604Y-15828D01*
X31566Y-15809D01*
X31548Y-15791D01*
X31529Y-15753D01*
X31529Y-15659D01*
X31548Y-15603D01*
X31923Y-15434D02*
X31529Y-15434D01*
X31529Y-15284D01*
X31548Y-15247D01*
X31566Y-15228D01*
X31604Y-15209D01*
X31660Y-15209D01*
X31698Y-15228D01*
X31716Y-15247D01*
X31735Y-15284D01*
X31735Y-15434D01*
X31810Y-15059D02*
X31810Y-14872D01*
X31923Y-15097D02*
X31529Y-14966D01*
X31923Y-14835D01*
X31923Y-14478D02*
X31735Y-14610D01*
X31923Y-14703D02*
X31529Y-14703D01*
X31529Y-14553D01*
X31548Y-14516D01*
X31566Y-14497D01*
X31604Y-14478D01*
X31660Y-14478D01*
X31698Y-14497D01*
X31716Y-14516D01*
X31735Y-14553D01*
X31735Y-14703D01*
X31529Y-14366D02*
X31529Y-14141D01*
X31923Y-14253D02*
X31529Y-14253D01*
X31810Y-14028D02*
X31810Y-13841D01*
X31923Y-14066D02*
X31529Y-13935D01*
X31923Y-13803D01*
X31923Y-13672D02*
X31529Y-13672D01*
X31923Y-13447D01*
X31529Y-13447D01*
X31773Y-13260D02*
X31773Y-12960D01*
X31904Y-12791D02*
X31923Y-12735D01*
X31923Y-12641D01*
X31904Y-12604D01*
X31885Y-12585D01*
X31848Y-12566D01*
X31810Y-12566D01*
X31773Y-12585D01*
X31754Y-12604D01*
X31735Y-12641D01*
X31716Y-12716D01*
X31698Y-12754D01*
X31679Y-12772D01*
X31641Y-12791D01*
X31604Y-12791D01*
X31566Y-12772D01*
X31548Y-12754D01*
X31529Y-12716D01*
X31529Y-12622D01*
X31548Y-12566D01*
X31923Y-12397D02*
X31529Y-12397D01*
X31923Y-12210D02*
X31529Y-12210D01*
X31529Y-12060D01*
X31548Y-12022D01*
X31566Y-12004D01*
X31604Y-11985D01*
X31660Y-11985D01*
X31698Y-12004D01*
X31716Y-12022D01*
X31735Y-12060D01*
X31735Y-12210D01*
X31773Y-11816D02*
X31773Y-11516D01*
X31923Y-11310D02*
X31923Y-11235D01*
X31904Y-11197D01*
X31885Y-11179D01*
X31829Y-11141D01*
X31754Y-11122D01*
X31604Y-11122D01*
X31566Y-11141D01*
X31548Y-11160D01*
X31529Y-11197D01*
X31529Y-11272D01*
X31548Y-11310D01*
X31566Y-11329D01*
X31604Y-11347D01*
X31698Y-11347D01*
X31735Y-11329D01*
X31754Y-11310D01*
X31773Y-11272D01*
X31773Y-11197D01*
X31754Y-11160D01*
X31735Y-11141D01*
X31698Y-11122D01*
X31529Y-10879D02*
X31529Y-10841D01*
X31548Y-10804D01*
X31566Y-10785D01*
X31604Y-10766D01*
X31679Y-10748D01*
X31773Y-10748D01*
X31848Y-10766D01*
X31885Y-10785D01*
X31904Y-10804D01*
X31923Y-10841D01*
X31923Y-10879D01*
X31904Y-10916D01*
X31885Y-10935D01*
X31848Y-10954D01*
X31773Y-10973D01*
X31679Y-10973D01*
X31604Y-10954D01*
X31566Y-10935D01*
X31548Y-10916D01*
X31529Y-10879D01*
X31529Y-10504D02*
X31529Y-10466D01*
X31548Y-10429D01*
X31566Y-10410D01*
X31604Y-10391D01*
X31679Y-10373D01*
X31773Y-10373D01*
X31848Y-10391D01*
X31885Y-10410D01*
X31904Y-10429D01*
X31923Y-10466D01*
X31923Y-10504D01*
X31904Y-10541D01*
X31885Y-10560D01*
X31848Y-10579D01*
X31773Y-10598D01*
X31679Y-10598D01*
X31604Y-10579D01*
X31566Y-10560D01*
X31548Y-10541D01*
X31529Y-10504D01*
X31529Y-10241D02*
X31529Y-9979D01*
X31923Y-10148D01*
X30111Y-13252D02*
X30430Y-13252D01*
X30467Y-13233D01*
X30486Y-13215D01*
X30505Y-13177D01*
X30505Y-13102D01*
X30486Y-13065D01*
X30467Y-13046D01*
X30430Y-13027D01*
X30111Y-13027D01*
X30111Y-12877D02*
X30111Y-12615D01*
X30505Y-12784D01*
X29286Y-15868D02*
X29305Y-15811D01*
X29305Y-15718D01*
X29286Y-15680D01*
X29267Y-15661D01*
X29230Y-15643D01*
X29192Y-15643D01*
X29155Y-15661D01*
X29136Y-15680D01*
X29117Y-15718D01*
X29098Y-15793D01*
X29080Y-15830D01*
X29061Y-15849D01*
X29023Y-15868D01*
X28986Y-15868D01*
X28948Y-15849D01*
X28930Y-15830D01*
X28911Y-15793D01*
X28911Y-15699D01*
X28930Y-15643D01*
X29305Y-15474D02*
X28911Y-15474D01*
X28911Y-15324D01*
X28930Y-15286D01*
X28948Y-15268D01*
X28986Y-15249D01*
X29042Y-15249D01*
X29080Y-15268D01*
X29098Y-15286D01*
X29117Y-15324D01*
X29117Y-15474D01*
X29192Y-15099D02*
X29192Y-14911D01*
X29305Y-15136D02*
X28911Y-15005D01*
X29305Y-14874D01*
X29305Y-14518D02*
X29117Y-14649D01*
X29305Y-14743D02*
X28911Y-14743D01*
X28911Y-14593D01*
X28930Y-14555D01*
X28948Y-14536D01*
X28986Y-14518D01*
X29042Y-14518D01*
X29080Y-14536D01*
X29098Y-14555D01*
X29117Y-14593D01*
X29117Y-14743D01*
X28911Y-14405D02*
X28911Y-14180D01*
X29305Y-14293D02*
X28911Y-14293D01*
X29192Y-14068D02*
X29192Y-13880D01*
X29305Y-14105D02*
X28911Y-13974D01*
X29305Y-13843D01*
X29305Y-13712D02*
X28911Y-13712D01*
X29305Y-13487D01*
X28911Y-13487D01*
X29155Y-13299D02*
X29155Y-12999D01*
X29286Y-12830D02*
X29305Y-12774D01*
X29305Y-12680D01*
X29286Y-12643D01*
X29267Y-12624D01*
X29230Y-12605D01*
X29192Y-12605D01*
X29155Y-12624D01*
X29136Y-12643D01*
X29117Y-12680D01*
X29098Y-12755D01*
X29080Y-12793D01*
X29061Y-12812D01*
X29023Y-12830D01*
X28986Y-12830D01*
X28948Y-12812D01*
X28930Y-12793D01*
X28911Y-12755D01*
X28911Y-12662D01*
X28930Y-12605D01*
X29305Y-12437D02*
X28911Y-12437D01*
X29305Y-12249D02*
X28911Y-12249D01*
X28911Y-12099D01*
X28930Y-12062D01*
X28948Y-12043D01*
X28986Y-12024D01*
X29042Y-12024D01*
X29080Y-12043D01*
X29098Y-12062D01*
X29117Y-12099D01*
X29117Y-12249D01*
X29155Y-11856D02*
X29155Y-11556D01*
X29305Y-11349D02*
X29305Y-11274D01*
X29286Y-11237D01*
X29267Y-11218D01*
X29211Y-11181D01*
X29136Y-11162D01*
X28986Y-11162D01*
X28948Y-11181D01*
X28930Y-11199D01*
X28911Y-11237D01*
X28911Y-11312D01*
X28930Y-11349D01*
X28948Y-11368D01*
X28986Y-11387D01*
X29080Y-11387D01*
X29117Y-11368D01*
X29136Y-11349D01*
X29155Y-11312D01*
X29155Y-11237D01*
X29136Y-11199D01*
X29117Y-11181D01*
X29080Y-11162D01*
X28911Y-10918D02*
X28911Y-10881D01*
X28930Y-10843D01*
X28948Y-10824D01*
X28986Y-10806D01*
X29061Y-10787D01*
X29155Y-10787D01*
X29230Y-10806D01*
X29267Y-10824D01*
X29286Y-10843D01*
X29305Y-10881D01*
X29305Y-10918D01*
X29286Y-10956D01*
X29267Y-10974D01*
X29230Y-10993D01*
X29155Y-11012D01*
X29061Y-11012D01*
X28986Y-10993D01*
X28948Y-10974D01*
X28930Y-10956D01*
X28911Y-10918D01*
X28911Y-10543D02*
X28911Y-10506D01*
X28930Y-10468D01*
X28948Y-10449D01*
X28986Y-10431D01*
X29061Y-10412D01*
X29155Y-10412D01*
X29230Y-10431D01*
X29267Y-10449D01*
X29286Y-10468D01*
X29305Y-10506D01*
X29305Y-10543D01*
X29286Y-10581D01*
X29267Y-10599D01*
X29230Y-10618D01*
X29155Y-10637D01*
X29061Y-10637D01*
X28986Y-10618D01*
X28948Y-10599D01*
X28930Y-10581D01*
X28911Y-10543D01*
X28911Y-10281D02*
X28911Y-10018D01*
X29305Y-10187D01*
X21087Y-16253D02*
X21087Y-16571D01*
X21106Y-16609D01*
X21124Y-16628D01*
X21162Y-16646D01*
X21237Y-16646D01*
X21274Y-16628D01*
X21293Y-16609D01*
X21312Y-16571D01*
X21312Y-16253D01*
X21706Y-16646D02*
X21481Y-16646D01*
X21593Y-16646D02*
X21593Y-16253D01*
X21556Y-16309D01*
X21518Y-16346D01*
X21481Y-16365D01*
X21856Y-16290D02*
X21874Y-16271D01*
X21912Y-16253D01*
X22005Y-16253D01*
X22043Y-16271D01*
X22062Y-16290D01*
X22080Y-16328D01*
X22080Y-16365D01*
X22062Y-16421D01*
X21837Y-16646D01*
X22080Y-16646D01*
X18659Y-15428D02*
X18715Y-15446D01*
X18809Y-15446D01*
X18847Y-15428D01*
X18865Y-15409D01*
X18884Y-15371D01*
X18884Y-15334D01*
X18865Y-15296D01*
X18847Y-15278D01*
X18809Y-15259D01*
X18734Y-15240D01*
X18697Y-15221D01*
X18678Y-15203D01*
X18659Y-15165D01*
X18659Y-15128D01*
X18678Y-15090D01*
X18697Y-15071D01*
X18734Y-15053D01*
X18828Y-15053D01*
X18884Y-15071D01*
X19053Y-15446D02*
X19053Y-15053D01*
X19203Y-15053D01*
X19240Y-15071D01*
X19259Y-15090D01*
X19278Y-15128D01*
X19278Y-15184D01*
X19259Y-15221D01*
X19240Y-15240D01*
X19203Y-15259D01*
X19053Y-15259D01*
X19428Y-15334D02*
X19615Y-15334D01*
X19390Y-15446D02*
X19521Y-15053D01*
X19653Y-15446D01*
X20009Y-15446D02*
X19878Y-15259D01*
X19784Y-15446D02*
X19784Y-15053D01*
X19934Y-15053D01*
X19971Y-15071D01*
X19990Y-15090D01*
X20009Y-15128D01*
X20009Y-15184D01*
X19990Y-15221D01*
X19971Y-15240D01*
X19934Y-15259D01*
X19784Y-15259D01*
X20121Y-15053D02*
X20346Y-15053D01*
X20234Y-15446D02*
X20234Y-15053D01*
X20459Y-15334D02*
X20646Y-15334D01*
X20421Y-15446D02*
X20553Y-15053D01*
X20684Y-15446D01*
X20815Y-15446D02*
X20815Y-15053D01*
X21040Y-15446D01*
X21040Y-15053D01*
X21227Y-15296D02*
X21527Y-15296D01*
X21696Y-15428D02*
X21752Y-15446D01*
X21846Y-15446D01*
X21884Y-15428D01*
X21902Y-15409D01*
X21921Y-15371D01*
X21921Y-15334D01*
X21902Y-15296D01*
X21884Y-15278D01*
X21846Y-15259D01*
X21771Y-15240D01*
X21734Y-15221D01*
X21715Y-15203D01*
X21696Y-15165D01*
X21696Y-15128D01*
X21715Y-15090D01*
X21734Y-15071D01*
X21771Y-15053D01*
X21865Y-15053D01*
X21921Y-15071D01*
X22090Y-15446D02*
X22090Y-15053D01*
X22277Y-15446D02*
X22277Y-15053D01*
X22427Y-15053D01*
X22465Y-15071D01*
X22484Y-15090D01*
X22502Y-15128D01*
X22502Y-15184D01*
X22484Y-15221D01*
X22465Y-15240D01*
X22427Y-15259D01*
X22277Y-15259D01*
X22671Y-15296D02*
X22971Y-15296D01*
X23177Y-15446D02*
X23252Y-15446D01*
X23290Y-15428D01*
X23308Y-15409D01*
X23346Y-15353D01*
X23365Y-15278D01*
X23365Y-15128D01*
X23346Y-15090D01*
X23327Y-15071D01*
X23290Y-15053D01*
X23215Y-15053D01*
X23177Y-15071D01*
X23158Y-15090D01*
X23140Y-15128D01*
X23140Y-15221D01*
X23158Y-15259D01*
X23177Y-15278D01*
X23215Y-15296D01*
X23290Y-15296D01*
X23327Y-15278D01*
X23346Y-15259D01*
X23365Y-15221D01*
X23608Y-15053D02*
X23646Y-15053D01*
X23683Y-15071D01*
X23702Y-15090D01*
X23721Y-15128D01*
X23740Y-15203D01*
X23740Y-15296D01*
X23721Y-15371D01*
X23702Y-15409D01*
X23683Y-15428D01*
X23646Y-15446D01*
X23608Y-15446D01*
X23571Y-15428D01*
X23552Y-15409D01*
X23533Y-15371D01*
X23515Y-15296D01*
X23515Y-15203D01*
X23533Y-15128D01*
X23552Y-15090D01*
X23571Y-15071D01*
X23608Y-15053D01*
X23983Y-15053D02*
X24021Y-15053D01*
X24058Y-15071D01*
X24077Y-15090D01*
X24096Y-15128D01*
X24115Y-15203D01*
X24115Y-15296D01*
X24096Y-15371D01*
X24077Y-15409D01*
X24058Y-15428D01*
X24021Y-15446D01*
X23983Y-15446D01*
X23946Y-15428D01*
X23927Y-15409D01*
X23908Y-15371D01*
X23890Y-15296D01*
X23890Y-15203D01*
X23908Y-15128D01*
X23927Y-15090D01*
X23946Y-15071D01*
X23983Y-15053D01*
X24246Y-15053D02*
X24508Y-15053D01*
X24340Y-15446D01*
G54D21*
X6907Y-7705D02*
X6917Y-7714D01*
X6926Y-7742D01*
X6926Y-7761D01*
X6917Y-7789D01*
X6898Y-7808D01*
X6879Y-7817D01*
X6842Y-7827D01*
X6813Y-7827D01*
X6776Y-7817D01*
X6757Y-7808D01*
X6738Y-7789D01*
X6729Y-7761D01*
X6729Y-7742D01*
X6738Y-7714D01*
X6748Y-7705D01*
X6926Y-7517D02*
X6926Y-7630D01*
X6926Y-7574D02*
X6729Y-7574D01*
X6757Y-7592D01*
X6776Y-7611D01*
X6785Y-7630D01*
X6729Y-7395D02*
X6729Y-7377D01*
X6738Y-7358D01*
X6748Y-7348D01*
X6766Y-7339D01*
X6804Y-7330D01*
X6851Y-7330D01*
X6888Y-7339D01*
X6907Y-7348D01*
X6917Y-7358D01*
X6926Y-7377D01*
X6926Y-7395D01*
X6917Y-7414D01*
X6907Y-7423D01*
X6888Y-7433D01*
X6851Y-7442D01*
X6804Y-7442D01*
X6766Y-7433D01*
X6748Y-7423D01*
X6738Y-7414D01*
X6729Y-7395D01*
X6520Y-7724D02*
X6651Y-7724D01*
X6445Y-7771D02*
X6585Y-7817D01*
X6585Y-7696D01*
X6520Y-7536D02*
X6651Y-7536D01*
X6520Y-7620D02*
X6623Y-7620D01*
X6642Y-7611D01*
X6651Y-7592D01*
X6651Y-7564D01*
X6642Y-7545D01*
X6632Y-7536D01*
X6454Y-7461D02*
X6454Y-7330D01*
X6651Y-7414D01*
G54D25*
X8141Y-5812D02*
X8460Y-5812D01*
X8497Y-5793D01*
X8516Y-5774D01*
X8535Y-5736D01*
X8535Y-5661D01*
X8516Y-5624D01*
X8497Y-5605D01*
X8460Y-5586D01*
X8141Y-5586D01*
X8178Y-5418D02*
X8159Y-5399D01*
X8141Y-5361D01*
X8141Y-5267D01*
X8159Y-5230D01*
X8178Y-5211D01*
X8216Y-5192D01*
X8253Y-5192D01*
X8310Y-5211D01*
X8535Y-5436D01*
X8535Y-5192D01*
G54D17*
G54D25*
X5111Y-6337D02*
X5130Y-6356D01*
X5149Y-6412D01*
X5149Y-6449D01*
X5130Y-6506D01*
X5092Y-6543D01*
X5055Y-6562D01*
X4980Y-6581D01*
X4924Y-6581D01*
X4849Y-6562D01*
X4811Y-6543D01*
X4773Y-6506D01*
X4755Y-6449D01*
X4755Y-6412D01*
X4773Y-6356D01*
X4792Y-6337D01*
X5149Y-6168D02*
X4755Y-6168D01*
X4755Y-6018D01*
X4773Y-5980D01*
X4792Y-5962D01*
X4830Y-5943D01*
X4886Y-5943D01*
X4924Y-5962D01*
X4942Y-5980D01*
X4961Y-6018D01*
X4961Y-6168D01*
X4792Y-5793D02*
X4773Y-5774D01*
X4755Y-5736D01*
X4755Y-5643D01*
X4773Y-5605D01*
X4792Y-5586D01*
X4830Y-5568D01*
X4867Y-5568D01*
X4924Y-5586D01*
X5149Y-5812D01*
X5149Y-5568D01*
X5149Y-5192D02*
X5149Y-5418D01*
X5149Y-5305D02*
X4755Y-5305D01*
X4811Y-5342D01*
X4849Y-5380D01*
X4867Y-5418D01*
X4755Y-4948D02*
X4755Y-4911D01*
X4773Y-4873D01*
X4792Y-4855D01*
X4830Y-4836D01*
X4905Y-4817D01*
X4999Y-4817D01*
X5074Y-4836D01*
X5111Y-4855D01*
X5130Y-4873D01*
X5149Y-4911D01*
X5149Y-4948D01*
X5130Y-4986D01*
X5111Y-5005D01*
X5074Y-5024D01*
X4999Y-5042D01*
X4905Y-5042D01*
X4830Y-5024D01*
X4792Y-5005D01*
X4773Y-4986D01*
X4755Y-4948D01*
X4792Y-4667D02*
X4773Y-4648D01*
X4755Y-4611D01*
X4755Y-4517D01*
X4773Y-4479D01*
X4792Y-4461D01*
X4830Y-4442D01*
X4867Y-4442D01*
X4924Y-4461D01*
X5149Y-4686D01*
X5149Y-4442D01*
G54D17*
G54D21*
X6152Y-20185D02*
X6087Y-20091D01*
X6040Y-20185D02*
X6040Y-19988D01*
X6115Y-19988D01*
X6134Y-19997D01*
X6143Y-20006D01*
X6152Y-20025D01*
X6152Y-20053D01*
X6143Y-20072D01*
X6134Y-20081D01*
X6115Y-20091D01*
X6040Y-20091D01*
X6321Y-20053D02*
X6321Y-20185D01*
X6274Y-19978D02*
X6227Y-20119D01*
X6349Y-20119D01*
X6434Y-20185D02*
X6471Y-20185D01*
X6490Y-20175D01*
X6499Y-20166D01*
X6518Y-20138D01*
X6528Y-20100D01*
X6528Y-20025D01*
X6518Y-20006D01*
X6509Y-19997D01*
X6490Y-19988D01*
X6453Y-19988D01*
X6434Y-19997D01*
X6424Y-20006D01*
X6415Y-20025D01*
X6415Y-20072D01*
X6424Y-20091D01*
X6434Y-20100D01*
X6453Y-20110D01*
X6490Y-20110D01*
X6509Y-20100D01*
X6518Y-20091D01*
X6528Y-20072D01*
X6162Y-19910D02*
X6049Y-19910D01*
X6105Y-19910D02*
X6105Y-19713D01*
X6087Y-19741D01*
X6068Y-19759D01*
X6049Y-19769D01*
X6284Y-19713D02*
X6302Y-19713D01*
X6321Y-19722D01*
X6331Y-19731D01*
X6340Y-19750D01*
X6349Y-19788D01*
X6349Y-19835D01*
X6340Y-19872D01*
X6331Y-19891D01*
X6321Y-19900D01*
X6302Y-19910D01*
X6284Y-19910D01*
X6265Y-19900D01*
X6256Y-19891D01*
X6246Y-19872D01*
X6237Y-19835D01*
X6237Y-19788D01*
X6246Y-19750D01*
X6256Y-19731D01*
X6265Y-19722D01*
X6284Y-19713D01*
X6434Y-19910D02*
X6434Y-19713D01*
X6453Y-19835D02*
X6509Y-19910D01*
X6509Y-19778D02*
X6434Y-19853D01*
X6152Y-21169D02*
X6087Y-21075D01*
X6040Y-21169D02*
X6040Y-20972D01*
X6115Y-20972D01*
X6134Y-20981D01*
X6143Y-20991D01*
X6152Y-21009D01*
X6152Y-21037D01*
X6143Y-21056D01*
X6134Y-21066D01*
X6115Y-21075D01*
X6040Y-21075D01*
X6331Y-20972D02*
X6237Y-20972D01*
X6227Y-21066D01*
X6237Y-21056D01*
X6256Y-21047D01*
X6302Y-21047D01*
X6321Y-21056D01*
X6331Y-21066D01*
X6340Y-21084D01*
X6340Y-21131D01*
X6331Y-21150D01*
X6321Y-21159D01*
X6302Y-21169D01*
X6256Y-21169D01*
X6237Y-21159D01*
X6227Y-21150D01*
X6528Y-21169D02*
X6415Y-21169D01*
X6471Y-21169D02*
X6471Y-20972D01*
X6453Y-21000D01*
X6434Y-21019D01*
X6415Y-21028D01*
X6162Y-20894D02*
X6049Y-20894D01*
X6105Y-20894D02*
X6105Y-20697D01*
X6087Y-20725D01*
X6068Y-20744D01*
X6049Y-20753D01*
X6284Y-20697D02*
X6302Y-20697D01*
X6321Y-20706D01*
X6331Y-20716D01*
X6340Y-20734D01*
X6349Y-20772D01*
X6349Y-20819D01*
X6340Y-20856D01*
X6331Y-20875D01*
X6321Y-20884D01*
X6302Y-20894D01*
X6284Y-20894D01*
X6265Y-20884D01*
X6256Y-20875D01*
X6246Y-20856D01*
X6237Y-20819D01*
X6237Y-20772D01*
X6246Y-20734D01*
X6256Y-20716D01*
X6265Y-20706D01*
X6284Y-20697D01*
X6434Y-20894D02*
X6434Y-20697D01*
X6453Y-20819D02*
X6509Y-20894D01*
X6509Y-20762D02*
X6434Y-20838D01*
X6192Y-18492D02*
X6126Y-18398D01*
X6079Y-18492D02*
X6079Y-18295D01*
X6154Y-18295D01*
X6173Y-18304D01*
X6182Y-18313D01*
X6192Y-18332D01*
X6192Y-18360D01*
X6182Y-18379D01*
X6173Y-18388D01*
X6154Y-18398D01*
X6079Y-18398D01*
X6370Y-18295D02*
X6276Y-18295D01*
X6267Y-18388D01*
X6276Y-18379D01*
X6295Y-18370D01*
X6342Y-18370D01*
X6361Y-18379D01*
X6370Y-18388D01*
X6379Y-18407D01*
X6379Y-18454D01*
X6370Y-18473D01*
X6361Y-18482D01*
X6342Y-18492D01*
X6295Y-18492D01*
X6276Y-18482D01*
X6267Y-18473D01*
X6501Y-18295D02*
X6520Y-18295D01*
X6539Y-18304D01*
X6548Y-18313D01*
X6558Y-18332D01*
X6567Y-18370D01*
X6567Y-18417D01*
X6558Y-18454D01*
X6548Y-18473D01*
X6539Y-18482D01*
X6520Y-18492D01*
X6501Y-18492D01*
X6483Y-18482D01*
X6473Y-18473D01*
X6464Y-18454D01*
X6454Y-18417D01*
X6454Y-18370D01*
X6464Y-18332D01*
X6473Y-18313D01*
X6483Y-18304D01*
X6501Y-18295D01*
X6201Y-18217D02*
X6089Y-18217D01*
X6145Y-18217D02*
X6145Y-18020D01*
X6126Y-18048D01*
X6107Y-18067D01*
X6089Y-18076D01*
X6323Y-18020D02*
X6342Y-18020D01*
X6361Y-18029D01*
X6370Y-18038D01*
X6379Y-18057D01*
X6389Y-18095D01*
X6389Y-18142D01*
X6379Y-18179D01*
X6370Y-18198D01*
X6361Y-18207D01*
X6342Y-18217D01*
X6323Y-18217D01*
X6304Y-18207D01*
X6295Y-18198D01*
X6286Y-18179D01*
X6276Y-18142D01*
X6276Y-18095D01*
X6286Y-18057D01*
X6295Y-18038D01*
X6304Y-18029D01*
X6323Y-18020D01*
X6473Y-18217D02*
X6473Y-18020D01*
X6492Y-18142D02*
X6548Y-18217D01*
X6548Y-18085D02*
X6473Y-18160D01*
X6192Y-9071D02*
X6126Y-8977D01*
X6079Y-9071D02*
X6079Y-8874D01*
X6154Y-8874D01*
X6173Y-8884D01*
X6182Y-8893D01*
X6192Y-8912D01*
X6192Y-8940D01*
X6182Y-8959D01*
X6173Y-8968D01*
X6154Y-8977D01*
X6079Y-8977D01*
X6370Y-8874D02*
X6276Y-8874D01*
X6267Y-8968D01*
X6276Y-8959D01*
X6295Y-8949D01*
X6342Y-8949D01*
X6361Y-8959D01*
X6370Y-8968D01*
X6379Y-8987D01*
X6379Y-9034D01*
X6370Y-9052D01*
X6361Y-9062D01*
X6342Y-9071D01*
X6295Y-9071D01*
X6276Y-9062D01*
X6267Y-9052D01*
X6454Y-8893D02*
X6464Y-8884D01*
X6483Y-8874D01*
X6529Y-8874D01*
X6548Y-8884D01*
X6558Y-8893D01*
X6567Y-8912D01*
X6567Y-8930D01*
X6558Y-8959D01*
X6445Y-9071D01*
X6567Y-9071D01*
X6295Y-8796D02*
X6182Y-8796D01*
X6239Y-8796D02*
X6239Y-8599D01*
X6220Y-8627D01*
X6201Y-8646D01*
X6182Y-8655D01*
X6379Y-8796D02*
X6379Y-8599D01*
X6398Y-8721D02*
X6454Y-8796D01*
X6454Y-8665D02*
X6379Y-8740D01*
X6192Y-9871D02*
X6126Y-9777D01*
X6079Y-9871D02*
X6079Y-9674D01*
X6154Y-9674D01*
X6173Y-9684D01*
X6182Y-9693D01*
X6192Y-9712D01*
X6192Y-9740D01*
X6182Y-9759D01*
X6173Y-9768D01*
X6154Y-9777D01*
X6079Y-9777D01*
X6370Y-9674D02*
X6276Y-9674D01*
X6267Y-9768D01*
X6276Y-9759D01*
X6295Y-9749D01*
X6342Y-9749D01*
X6361Y-9759D01*
X6370Y-9768D01*
X6379Y-9787D01*
X6379Y-9834D01*
X6370Y-9852D01*
X6361Y-9862D01*
X6342Y-9871D01*
X6295Y-9871D01*
X6276Y-9862D01*
X6267Y-9852D01*
X6445Y-9674D02*
X6567Y-9674D01*
X6501Y-9749D01*
X6529Y-9749D01*
X6548Y-9759D01*
X6558Y-9768D01*
X6567Y-9787D01*
X6567Y-9834D01*
X6558Y-9852D01*
X6548Y-9862D01*
X6529Y-9871D01*
X6473Y-9871D01*
X6454Y-9862D01*
X6445Y-9852D01*
X6295Y-9596D02*
X6182Y-9596D01*
X6239Y-9596D02*
X6239Y-9399D01*
X6220Y-9427D01*
X6201Y-9446D01*
X6182Y-9455D01*
X6379Y-9596D02*
X6379Y-9399D01*
X6398Y-9521D02*
X6454Y-9596D01*
X6454Y-9465D02*
X6379Y-9540D01*
X6192Y-10671D02*
X6126Y-10577D01*
X6079Y-10671D02*
X6079Y-10474D01*
X6154Y-10474D01*
X6173Y-10484D01*
X6182Y-10493D01*
X6192Y-10512D01*
X6192Y-10540D01*
X6182Y-10559D01*
X6173Y-10568D01*
X6154Y-10577D01*
X6079Y-10577D01*
X6370Y-10474D02*
X6276Y-10474D01*
X6267Y-10568D01*
X6276Y-10559D01*
X6295Y-10549D01*
X6342Y-10549D01*
X6361Y-10559D01*
X6370Y-10568D01*
X6379Y-10587D01*
X6379Y-10634D01*
X6370Y-10652D01*
X6361Y-10662D01*
X6342Y-10671D01*
X6295Y-10671D01*
X6276Y-10662D01*
X6267Y-10652D01*
X6548Y-10540D02*
X6548Y-10671D01*
X6501Y-10465D02*
X6454Y-10606D01*
X6576Y-10606D01*
X6295Y-10396D02*
X6182Y-10396D01*
X6239Y-10396D02*
X6239Y-10199D01*
X6220Y-10227D01*
X6201Y-10246D01*
X6182Y-10255D01*
X6379Y-10396D02*
X6379Y-10199D01*
X6398Y-10321D02*
X6454Y-10396D01*
X6454Y-10265D02*
X6379Y-10340D01*
X6192Y-11571D02*
X6126Y-11477D01*
X6079Y-11571D02*
X6079Y-11374D01*
X6154Y-11374D01*
X6173Y-11384D01*
X6182Y-11393D01*
X6192Y-11412D01*
X6192Y-11440D01*
X6182Y-11459D01*
X6173Y-11468D01*
X6154Y-11477D01*
X6079Y-11477D01*
X6370Y-11374D02*
X6276Y-11374D01*
X6267Y-11468D01*
X6276Y-11459D01*
X6295Y-11449D01*
X6342Y-11449D01*
X6361Y-11459D01*
X6370Y-11468D01*
X6379Y-11487D01*
X6379Y-11534D01*
X6370Y-11552D01*
X6361Y-11562D01*
X6342Y-11571D01*
X6295Y-11571D01*
X6276Y-11562D01*
X6267Y-11552D01*
X6558Y-11374D02*
X6464Y-11374D01*
X6454Y-11468D01*
X6464Y-11459D01*
X6483Y-11449D01*
X6529Y-11449D01*
X6548Y-11459D01*
X6558Y-11468D01*
X6567Y-11487D01*
X6567Y-11534D01*
X6558Y-11552D01*
X6548Y-11562D01*
X6529Y-11571D01*
X6483Y-11571D01*
X6464Y-11562D01*
X6454Y-11552D01*
X6295Y-11296D02*
X6182Y-11296D01*
X6239Y-11296D02*
X6239Y-11099D01*
X6220Y-11127D01*
X6201Y-11146D01*
X6182Y-11155D01*
X6379Y-11296D02*
X6379Y-11099D01*
X6398Y-11221D02*
X6454Y-11296D01*
X6454Y-11165D02*
X6379Y-11240D01*
G54D14*
X3080Y-17852D02*
X2680Y-17852D01*
X2680Y-17700D01*
X2699Y-17662D01*
X2718Y-17643D01*
X2756Y-17624D01*
X2814Y-17624D01*
X2852Y-17643D01*
X2871Y-17662D01*
X2890Y-17700D01*
X2890Y-17852D01*
X3080Y-17243D02*
X3080Y-17471D01*
X3080Y-17357D02*
X2680Y-17357D01*
X2737Y-17395D01*
X2776Y-17433D01*
X2795Y-17471D01*
X2718Y-17090D02*
X2699Y-17071D01*
X2680Y-17033D01*
X2680Y-16938D01*
X2699Y-16900D01*
X2718Y-16881D01*
X2756Y-16862D01*
X2795Y-16862D01*
X2852Y-16881D01*
X3080Y-17109D01*
X3080Y-16862D01*
X3042Y-12785D02*
X3061Y-12805D01*
X3080Y-12862D01*
X3080Y-12900D01*
X3061Y-12957D01*
X3023Y-12995D01*
X2985Y-13014D01*
X2909Y-13033D01*
X2852Y-13033D01*
X2776Y-13014D01*
X2737Y-12995D01*
X2699Y-12957D01*
X2680Y-12900D01*
X2680Y-12862D01*
X2699Y-12805D01*
X2718Y-12785D01*
X2680Y-12538D02*
X2680Y-12462D01*
X2699Y-12424D01*
X2737Y-12385D01*
X2814Y-12366D01*
X2947Y-12366D01*
X3023Y-12385D01*
X3061Y-12424D01*
X3080Y-12462D01*
X3080Y-12538D01*
X3061Y-12576D01*
X3023Y-12614D01*
X2947Y-12633D01*
X2814Y-12633D01*
X2737Y-12614D01*
X2699Y-12576D01*
X2680Y-12538D01*
X3080Y-12195D02*
X2680Y-12195D01*
X3080Y-11966D01*
X2680Y-11966D01*
X3080Y-11776D02*
X2680Y-11776D01*
X3080Y-11547D01*
X2680Y-11547D01*
X3118Y-11452D02*
X3118Y-11147D01*
X3080Y-10843D02*
X3080Y-11071D01*
X3080Y-10957D02*
X2680Y-10957D01*
X2737Y-10995D01*
X2776Y-11033D01*
X2795Y-11071D01*
X2680Y-10709D02*
X2680Y-10462D01*
X2833Y-10595D01*
X2833Y-10538D01*
X2852Y-10500D01*
X2871Y-10481D01*
X2909Y-10462D01*
X3004Y-10462D01*
X3042Y-10481D01*
X3061Y-10500D01*
X3080Y-10538D01*
X3080Y-10652D01*
X3061Y-10690D01*
X3042Y-10709D01*
X2680Y-10328D02*
X3080Y-10062D01*
X2680Y-10062D02*
X3080Y-10328D01*
X2718Y-9928D02*
X2699Y-9909D01*
X2680Y-9871D01*
X2680Y-9776D01*
X2699Y-9738D01*
X2718Y-9719D01*
X2756Y-9700D01*
X2795Y-9700D01*
X2852Y-9719D01*
X3080Y-9947D01*
X3080Y-9700D01*
%LPC*%
G54D26*
X32618Y-18566D03*
X1574Y-23425D03*
X32677Y-1574D03*
X1574Y-1574D03*
G54D27*
X14118Y-1261D03*
X14118Y-511D03*
X12338Y-1261D03*
X12338Y-511D03*
X10578Y-1261D03*
X10578Y-511D03*
X8098Y-3341D03*
X8098Y-2591D03*
X9098Y-3341D03*
X9098Y-2591D03*
G54D28*
X8098Y-666D03*
G54D29*
X8098Y-1666D03*
G54D28*
X9098Y-666D03*
G54D29*
X9098Y-1666D03*
G54D30*
X14118Y-3186D03*
X14118Y-2186D03*
X12338Y-3186D03*
X12338Y-2186D03*
X10578Y-3186D03*
X10578Y-2186D03*
G54D31*
X13609Y-14694D03*
G54D32*
X13609Y-14497D03*
X13609Y-14300D03*
X13609Y-14103D03*
X13609Y-13906D03*
X13609Y-13710D03*
X13609Y-13513D03*
X13609Y-13316D03*
X13609Y-13119D03*
X13609Y-12922D03*
X13609Y-12725D03*
X13609Y-12529D03*
X13609Y-12332D03*
X13609Y-12135D03*
X13609Y-11938D03*
X13609Y-11741D03*
G54D33*
X12774Y-10843D03*
X12577Y-10843D03*
X12380Y-10843D03*
X12183Y-10843D03*
X11986Y-10843D03*
X11790Y-10843D03*
X11593Y-10843D03*
X11396Y-10843D03*
X11199Y-10843D03*
X11002Y-10843D03*
X10805Y-10843D03*
X10609Y-10843D03*
X10412Y-10843D03*
X10215Y-10843D03*
X10018Y-10843D03*
X9821Y-10843D03*
G54D32*
X8923Y-11741D03*
X8923Y-11938D03*
X8923Y-12135D03*
X8923Y-12332D03*
X8923Y-12529D03*
X8923Y-12725D03*
X8923Y-12922D03*
X8923Y-13119D03*
X8923Y-13316D03*
X8923Y-13513D03*
X8923Y-13710D03*
X8923Y-13906D03*
X8923Y-14103D03*
X8923Y-14300D03*
X8923Y-14497D03*
X8923Y-14694D03*
G54D33*
X9821Y-15529D03*
X10018Y-15529D03*
X10412Y-15529D03*
X10215Y-15536D03*
X10609Y-15529D03*
X10805Y-15529D03*
X11002Y-15529D03*
X11199Y-15529D03*
X11396Y-15529D03*
X11593Y-15529D03*
X11787Y-15529D03*
X11984Y-15529D03*
X12181Y-15529D03*
X12378Y-15529D03*
X12574Y-15529D03*
X12771Y-15529D03*
G54D34*
X14898Y-9533D03*
X15273Y-10399D03*
X14523Y-10399D03*
G54D35*
X14351Y-8786D03*
X13485Y-9161D03*
X13485Y-8411D03*
G54D36*
X24147Y-4400D03*
X24147Y-2300D03*
X23647Y-4400D03*
X23147Y-4400D03*
X22647Y-4400D03*
X23647Y-2300D03*
X23147Y-2300D03*
X22647Y-2300D03*
G54D27*
X20998Y-8561D03*
X20998Y-7811D03*
X23346Y-9134D03*
X23346Y-8384D03*
X20238Y-8561D03*
X20238Y-7811D03*
G54D37*
X18783Y-8186D03*
X19533Y-8186D03*
G54D27*
X15918Y-8901D03*
X15918Y-8151D03*
X22559Y-9134D03*
X22559Y-8384D03*
X21811Y-9292D03*
X21811Y-8542D03*
G54D37*
X18783Y-8906D03*
X19533Y-8906D03*
G54D27*
X16658Y-8901D03*
X16658Y-8151D03*
G54D37*
X10178Y-6692D03*
X9428Y-6692D03*
G54D27*
X9718Y-18631D03*
X9718Y-19381D03*
G54D37*
X24882Y-8956D03*
X24132Y-8956D03*
X5943Y-23366D03*
X6693Y-23366D03*
X5943Y-22266D03*
X6693Y-22266D03*
G54D27*
X25729Y-3732D03*
X25729Y-2982D03*
G54D37*
X8838Y-10620D03*
X8088Y-10620D03*
X15273Y-11166D03*
X14523Y-11166D03*
G54D27*
X23891Y-13547D03*
X23891Y-14297D03*
X24679Y-13547D03*
X24679Y-14297D03*
X12718Y-9161D03*
X12718Y-8411D03*
G54D37*
X15653Y-13866D03*
X14903Y-13866D03*
X16363Y-15886D03*
X17113Y-15886D03*
X17553Y-12726D03*
X16803Y-12726D03*
X19373Y-11946D03*
X18623Y-11946D03*
X17953Y-11946D03*
X17203Y-11946D03*
X8838Y-9832D03*
X8088Y-9832D03*
G54D27*
X8739Y-15560D03*
X8739Y-16310D03*
G54D37*
X12616Y-9872D03*
X13366Y-9872D03*
X13600Y-15659D03*
X14350Y-15659D03*
X15276Y-11889D03*
X14526Y-11889D03*
X4153Y-5166D03*
X3403Y-5166D03*
X5053Y-3566D03*
X4303Y-3566D03*
X4833Y-4386D03*
X4083Y-4386D03*
X4693Y-6026D03*
X3943Y-6026D03*
X4693Y-6766D03*
X3943Y-6766D03*
G54D27*
X24969Y-3732D03*
X24969Y-2982D03*
G54D37*
X25684Y-2317D03*
X24934Y-2317D03*
X23103Y-1539D03*
X22353Y-1539D03*
G54D27*
X21822Y-3725D03*
X21822Y-2975D03*
G54D37*
X23772Y-5240D03*
X23022Y-5240D03*
X18803Y-10146D03*
X19553Y-10146D03*
X17463Y-8186D03*
X18213Y-8186D03*
X16603Y-9546D03*
X17353Y-9546D03*
G54D27*
X15918Y-10241D03*
X15918Y-9491D03*
X20238Y-9171D03*
X20238Y-9921D03*
X20998Y-9171D03*
X20998Y-9921D03*
G54D38*
X27677Y-4370D03*
X27677Y-2401D03*
X26437Y-6397D03*
X24468Y-6397D03*
G54D28*
X4918Y-23366D03*
G54D29*
X4918Y-22366D03*
X4918Y-21366D03*
G54D28*
X6820Y-15141D03*
G54D29*
X6820Y-16141D03*
X6820Y-17141D03*
G54D28*
X3918Y-23366D03*
G54D29*
X3918Y-22366D03*
X3918Y-21366D03*
G54D28*
X8758Y-19866D03*
G54D29*
X8758Y-18866D03*
G54D28*
X18458Y-12886D03*
G54D29*
X18458Y-13886D03*
G54D39*
X5954Y-2755D03*
X5698Y-2755D03*
X5442Y-2755D03*
X5186Y-2755D03*
X4930Y-2755D03*
G54D40*
X6682Y-2755D03*
X4202Y-2755D03*
G54D41*
X6918Y-1358D03*
X3965Y-1358D03*
X5914Y-1358D03*
X4969Y-1358D03*
G54D42*
X33484Y-10685D03*
G54D43*
X33484Y-13685D03*
G54D42*
X30826Y-10744D03*
G54D43*
X30826Y-13744D03*
G54D42*
X19996Y-16633D03*
G54D43*
X22996Y-16633D03*
G54D42*
X24472Y-5295D03*
G54D43*
X21472Y-5295D03*
G54D42*
X15598Y-4266D03*
G54D43*
X12598Y-4266D03*
G54D42*
X25009Y-4557D03*
G54D43*
X25009Y-1557D03*
G54D42*
X15578Y-5246D03*
G54D43*
X12578Y-5246D03*
G54D44*
X17211Y-15034D03*
X17211Y-13578D03*
X16305Y-13578D03*
X16305Y-15034D03*
G54D45*
X30614Y-3090D03*
G54D46*
X32614Y-3090D03*
G54D45*
X30409Y-7106D03*
G54D46*
X28409Y-7106D03*
G54D45*
X13798Y-4746D03*
G54D46*
X13798Y-6746D03*
G54D47*
X19898Y-1166D03*
X16898Y-1166D03*
X29618Y-18566D03*
X26818Y-18566D03*
X24018Y-18566D03*
G54D38*
X22671Y-9828D03*
X24009Y-9828D03*
X25348Y-9828D03*
X23340Y-11403D03*
X24679Y-11403D03*
X32263Y-11913D03*
X32263Y-13913D03*
X32263Y-9913D03*
X32263Y-15913D03*
X29645Y-11952D03*
X29645Y-13952D03*
X29645Y-9952D03*
X29645Y-15952D03*
X22574Y-15787D03*
X20574Y-15787D03*
X24574Y-15787D03*
X18574Y-15787D03*
G54D27*
X6721Y-7203D03*
X6721Y-7953D03*
G54D48*
X7312Y-4527D03*
X7115Y-4527D03*
X6918Y-4527D03*
X6721Y-4527D03*
X6524Y-4527D03*
X6327Y-4527D03*
X6130Y-4527D03*
G54D49*
X5737Y-4920D03*
X5737Y-5117D03*
X5737Y-5314D03*
X5737Y-5511D03*
X5737Y-5708D03*
X5737Y-5905D03*
X5737Y-6102D03*
G54D48*
X6130Y-6495D03*
X6327Y-6495D03*
X6524Y-6495D03*
X6721Y-6495D03*
X6918Y-6495D03*
X7115Y-6495D03*
X7312Y-6495D03*
G54D49*
X7705Y-6102D03*
X7705Y-5905D03*
X7705Y-5708D03*
X7705Y-5511D03*
X7705Y-5314D03*
X7705Y-5117D03*
X7705Y-4920D03*
G54D50*
X6721Y-5511D03*
G54D37*
X6654Y-19980D03*
X5904Y-19980D03*
X6654Y-20964D03*
X5904Y-20964D03*
X6693Y-18287D03*
X5943Y-18287D03*
X6693Y-8866D03*
X5943Y-8866D03*
X6693Y-9666D03*
X5943Y-9666D03*
X6693Y-10466D03*
X5943Y-10466D03*
X6693Y-11366D03*
X5943Y-11366D03*
G54D28*
X4918Y-20366D03*
G54D29*
X3918Y-20366D03*
X4918Y-19366D03*
X3918Y-19366D03*
X4918Y-18366D03*
X3918Y-18366D03*
X4918Y-17366D03*
X3918Y-17366D03*
X4918Y-16366D03*
X3918Y-16366D03*
X4918Y-15366D03*
X3918Y-15366D03*
X4918Y-14366D03*
X3918Y-14366D03*
X4918Y-13366D03*
X3918Y-13366D03*
X4918Y-12366D03*
X3918Y-12366D03*
X4918Y-11366D03*
X3918Y-11366D03*
X4918Y-10366D03*
X3918Y-10366D03*
X4918Y-9366D03*
X3918Y-9366D03*
X4918Y-8366D03*
X3918Y-8366D03*
M02*
