M48
;DRILL file {kicad 0.201504161001+5603~22~ubuntu14.04.1-product} date Mon 20 Apr 2015 11:06:22 AM MSK
;FORMAT={-:-/ absolute / metric / decimal}
FMAT,2
METRIC,TZ
T1C0.400
T2C0.813
T3C1.016
%
G90
G05
M71
T1
X99.4Y-101.1
X100.8Y-102.2
X101.1Y-100.1
X106.5Y-109.6
X108.3Y-111.2
X110.3Y-110.5
X115.7Y-89.1
X119.2Y-99.9
X119.2Y-102.1
X120.2Y-105.1
X120.5Y-111.2
X120.6Y-102.3
X122.2Y-111.8
X132.5Y-110.6
T2
X117.03Y-107.
X119.57Y-107.
X138.23Y-95.5
X139.73Y-104.
X140.77Y-95.5
X142.27Y-104.
X145.23Y-99.
X147.77Y-99.
T3
X99.7Y-85.2
X99.7Y-87.5
X99.7Y-89.8
X99.7Y-92.1
X99.7Y-94.4
X99.7Y-96.7
X122.9Y-87.06
X122.9Y-92.14
X127.1Y-103.
X127.1Y-105.54
X127.1Y-108.08
X129.64Y-103.
X129.64Y-105.54
X129.64Y-108.08
X143.5Y-85.5
X146.04Y-85.5
X148.58Y-85.5
T0
M30
