M48
;DRILL file {kicad 0.201504161001+5603~22~ubuntu14.04.1-product} date Mon 20 Apr 2015 11:53:27 AM MSK
;FORMAT={-:-/ absolute / metric / decimal}
FMAT,2
METRIC,TZ
T1C0.400
T2C0.813
T3C1.016
%
G90
G05
M71
T1
X0.9Y11.4
X2.3Y10.3
X2.6Y12.4
X8.5Y2.5
X9.8Y1.3
X11.8Y2.
X17.2Y23.4
X20.7Y12.6
X20.7Y10.4
X21.7Y7.4
X22.Y1.3
X22.1Y10.2
X23.7Y0.7
X34.Y1.9
T2
X18.53Y5.5
X21.07Y5.5
X37.23Y11.5
X39.23Y3.5
X39.77Y11.5
X41.77Y3.5
X45.23Y9.5
X47.77Y9.5
T3
X1.2Y27.3
X1.2Y25.
X1.2Y22.7
X1.2Y20.4
X1.2Y18.1
X1.2Y15.8
X24.4Y25.44
X24.4Y20.36
X28.6Y9.5
X28.6Y6.96
X28.6Y4.42
X31.14Y9.5
X31.14Y6.96
X31.14Y4.42
X45.Y20.
X47.54Y20.
X50.08Y20.
T0
M30
