  0
SECTION
  2
HEADER
  9
$ANGBASE
  50
0.0
  9
$ANGDIR
  70
  1
  9
$MEASUREMENT
  70
0
  0
ENDSEC
  0
SECTION
  2
TABLES
  0
TABLE
  2
LTYPE
  70
1
  0
LTYPE
  2
CONTINUOUS
  70
0
  3
Solid line
  72
65
  73
0
  40
0.0
  0
ENDTAB
  0
TABLE
  2
STYLE
  70
4
  0
STYLE
  2
KICAD
  70
0
  40
0
  41
1
  42
1
  50
0
  71
0
  3
isocp.shx
  0
STYLE
  2
KICADB
  70
0
  40
0
  41
1
  42
1
  50
0
  71
0
  3
isocp.shx
  0
STYLE
  2
KICADI
  70
0
  40
0
  41
1
  42
1
  50
15
  71
0
  3
isocp.shx
  0
STYLE
  2
KICADBI
  70
0
  40
0
  41
1
  42
1
  50
15
  71
0
  3
isocp.shx
  0
ENDTAB
  0
TABLE
  2
LAYER
  70
30
  0
LAYER
  2
BLACK
  70
0
  62
7
  6
CONTINUOUS
  0
LAYER
  2
GRAY1
  70
0
  62
251
  6
CONTINUOUS
  0
LAYER
  2
GRAY2
  70
0
  62
8
  6
CONTINUOUS
  0
LAYER
  2
GRAY3
  70
0
  62
9
  6
CONTINUOUS
  0
LAYER
  2
WHITE
  70
0
  62
7
  6
CONTINUOUS
  0
LAYER
  2
LYELLOW
  70
0
  62
51
  6
CONTINUOUS
  0
LAYER
  2
BLUE1
  70
0
  62
178
  6
CONTINUOUS
  0
LAYER
  2
GREEN1
  70
0
  62
98
  6
CONTINUOUS
  0
LAYER
  2
CYAN1
  70
0
  62
138
  6
CONTINUOUS
  0
LAYER
  2
RED1
  70
0
  62
18
  6
CONTINUOUS
  0
LAYER
  2
MAGENTA1
  70
0
  62
228
  6
CONTINUOUS
  0
LAYER
  2
BROWN1
  70
0
  62
58
  6
CONTINUOUS
  0
LAYER
  2
BLUE2
  70
0
  62
5
  6
CONTINUOUS
  0
LAYER
  2
GREEN2
  70
0
  62
3
  6
CONTINUOUS
  0
LAYER
  2
CYAN2
  70
0
  62
4
  6
CONTINUOUS
  0
LAYER
  2
RED2
  70
0
  62
1
  6
CONTINUOUS
  0
LAYER
  2
MAGENTA2
  70
0
  62
6
  6
CONTINUOUS
  0
LAYER
  2
BROWN2
  70
0
  62
54
  6
CONTINUOUS
  0
LAYER
  2
BLUE3
  70
0
  62
171
  6
CONTINUOUS
  0
LAYER
  2
GREEN3
  70
0
  62
91
  6
CONTINUOUS
  0
LAYER
  2
CYAN3
  70
0
  62
131
  6
CONTINUOUS
  0
LAYER
  2
RED3
  70
0
  62
11
  6
CONTINUOUS
  0
LAYER
  2
MAGENTA3
  70
0
  62
221
  6
CONTINUOUS
  0
LAYER
  2
YELLOW3
  70
0
  62
2
  6
CONTINUOUS
  0
LAYER
  2
BLUE4
  70
0
  62
5
  6
CONTINUOUS
  0
LAYER
  2
GREEN4
  70
0
  62
3
  6
CONTINUOUS
  0
LAYER
  2
CYAN4
  70
0
  62
4
  6
CONTINUOUS
  0
LAYER
  2
RED4
  70
0
  62
1
  6
CONTINUOUS
  0
LAYER
  2
MAGENTA4
  70
0
  62
6
  6
CONTINUOUS
  0
LAYER
  2
YELLOW4
  70
0
  62
2
  6
CONTINUOUS
  0
ENDTAB
  0
ENDSEC
  0
SECTION
  2
ENTITIES
0
LINE
8
Black
10
2.2
20
26.3
11
0.2
21
26.3
0
LINE
8
Black
10
0.2
20
26.3
11
0.2
21
28.3
0
LINE
8
Black
10
0.2
20
28.3
11
2.2
21
28.3
0
LINE
8
Black
10
2.2
20
28.3
11
2.2
21
26.3
0
LINE
8
Black
10
2.2
20
24
11
0.2
21
24
0
LINE
8
Black
10
0.2
20
24
11
0.2
21
26
0
LINE
8
Black
10
0.2
20
26
11
2.2
21
26
0
LINE
8
Black
10
2.2
20
26
11
2.2
21
24
0
LINE
8
Black
10
2.2
20
21.7
11
0.2
21
21.7
0
LINE
8
Black
10
0.2
20
21.7
11
0.2
21
23.7
0
LINE
8
Black
10
0.2
20
23.7
11
2.2
21
23.7
0
LINE
8
Black
10
2.2
20
23.7
11
2.2
21
21.7
0
LINE
8
Black
10
2.2
20
14.8
11
0.2
21
14.8
0
LINE
8
Black
10
0.2
20
14.8
11
0.2
21
16.8
0
LINE
8
Black
10
0.2
20
16.8
11
2.2
21
16.8
0
LINE
8
Black
10
2.2
20
16.8
11
2.2
21
14.8
0
LINE
8
Black
10
2.2
20
18.354
11
2.62364
21
18.354
0
LINE
8
Black
10
2.62364
20
18.354
11
2.708
21
18.4384
0
LINE
8
Black
10
2.708
20
18.4384
11
2.708
21
18.8841
0
LINE
8
Black
10
2.708
20
18.8841
11
2.71088
21
18.9005
0
LINE
8
Black
10
2.71088
20
18.9005
11
2.71233
21
18.917
0
LINE
8
Black
10
2.71233
20
18.917
11
2.71469
21
18.9221
0
LINE
8
Black
10
2.71469
20
18.9221
11
2.71566
21
18.9276
0
LINE
8
Black
10
2.71566
20
18.9276
11
2.72396
21
18.9419
0
LINE
8
Black
10
2.72396
20
18.9419
11
2.73097
21
18.957
0
LINE
8
Black
10
2.73097
20
18.957
11
2.73492
21
18.9609
0
LINE
8
Black
10
2.73492
20
18.9609
11
2.73771
21
18.9658
0
LINE
8
Black
10
2.73771
20
18.9658
11
2.75042
21
18.9764
0
LINE
8
Black
10
2.75042
20
18.9764
11
2.76216
21
18.9882
0
LINE
8
Black
10
2.76216
20
18.9882
11
2.76722
21
18.9905
0
LINE
8
Black
10
2.76722
20
18.9905
11
2.7715
21
18.9941
0
LINE
8
Black
10
2.7715
20
18.9941
11
2.7871
21
18.9998
0
LINE
8
Black
10
2.7871
20
18.9998
11
2.80213
21
19.0068
0
LINE
8
Black
10
2.80213
20
19.0068
11
2.80769
21
19.0073
0
LINE
8
Black
10
2.80769
20
19.0073
11
2.81295
21
19.0092
0
LINE
8
Black
10
2.81295
20
19.0092
11
2.82954
21
19.0092
0
LINE
8
Black
10
2.82954
20
19.0092
11
2.84607
21
19.0106
0
LINE
8
Black
10
2.84607
20
19.0106
11
2.85147
21
19.0092
0
LINE
8
Black
10
2.85147
20
19.0092
11
2.85705
21
19.0092
0
LINE
8
Black
10
2.85705
20
19.0092
11
2.87265
21
19.0035
0
LINE
8
Black
10
2.87265
20
19.0035
11
2.88867
21
18.9992
0
LINE
8
Black
10
2.88867
20
18.9992
11
2.89325
21
18.996
0
LINE
8
Black
10
2.89325
20
18.996
11
2.8985
21
18.9941
0
LINE
8
Black
10
2.8985
20
18.9941
11
2.91121
21
18.9835
0
LINE
8
Black
10
2.91121
20
18.9835
11
2.9248
21
18.9739
0
LINE
8
Black
10
2.9248
20
18.9739
11
2.9548
21
18.9439
0
LINE
8
Black
10
2.9548
20
18.9439
11
2.95801
21
18.9394
0
LINE
8
Black
10
2.95801
20
18.9394
11
2.96229
21
18.9358
0
LINE
8
Black
10
2.96229
20
18.9358
11
2.97059
21
18.9214
0
LINE
8
Black
10
2.97059
20
18.9214
11
2.9801
21
18.9078
0
LINE
8
Black
10
2.9801
20
18.9078
11
2.98155
21
18.9024
0
LINE
8
Black
10
2.98155
20
18.9024
11
2.98434
21
18.8976
0
LINE
8
Black
10
2.98434
20
18.8976
11
2.98722
21
18.8812
0
LINE
8
Black
10
2.98722
20
18.8812
11
2.99152
21
18.8652
0
LINE
8
Black
10
2.99152
20
18.8652
11
2.99103
21
18.8596
0
LINE
8
Black
10
2.99103
20
18.8596
11
2.992
21
18.8541
0
LINE
8
Black
10
2.992
20
18.8541
11
2.992
21
17.8908
0
LINE
8
Black
10
2.992
20
17.8908
11
3.04142
21
17.8414
0
LINE
8
Black
10
3.04142
20
17.8414
11
3.04647
21
17.8342
0
LINE
8
Black
10
3.04647
20
17.8342
11
3.05321
21
17.8286
0
LINE
8
Black
10
3.05321
20
17.8286
11
3.06627
21
17.8059
0
LINE
8
Black
10
3.06627
20
17.8059
11
3.08126
21
17.7845
0
LINE
8
Black
10
3.08126
20
17.7845
11
3.08354
21
17.776
0
LINE
8
Black
10
3.08354
20
17.776
11
3.08794
21
17.7684
0
LINE
8
Black
10
3.08794
20
17.7684
11
3.09248
21
17.7427
0
LINE
8
Black
10
3.09248
20
17.7427
11
3.09924
21
17.7174
0
LINE
8
Black
10
3.09924
20
17.7174
11
3.09847
21
17.7087
0
LINE
8
Black
10
3.09847
20
17.7087
11
3.1
21
17.7
0
LINE
8
Black
10
3.1
20
17.7
11
3.1
21
14.7
0
LINE
8
Black
10
3.1
20
14.7
11
3.09847
21
14.6913
0
LINE
8
Black
10
3.09847
20
14.6913
11
3.09924
21
14.6826
0
LINE
8
Black
10
3.09924
20
14.6826
11
3.09248
21
14.6573
0
LINE
8
Black
10
3.09248
20
14.6573
11
3.08794
21
14.6316
0
LINE
8
Black
10
3.08794
20
14.6316
11
3.08354
21
14.624
0
LINE
8
Black
10
3.08354
20
14.624
11
3.08126
21
14.6155
0
LINE
8
Black
10
3.08126
20
14.6155
11
3.06627
21
14.5941
0
LINE
8
Black
10
3.06627
20
14.5941
11
3.05321
21
14.5714
0
LINE
8
Black
10
3.05321
20
14.5714
11
3.04647
21
14.5658
0
LINE
8
Black
10
3.04647
20
14.5658
11
3.04142
21
14.5586
0
LINE
8
Black
10
3.04142
20
14.5586
11
2.54142
21
14.0586
0
LINE
8
Black
10
2.54142
20
14.0586
11
2.53422
21
14.0535
0
LINE
8
Black
10
2.53422
20
14.0535
11
2.52856
21
14.0468
0
LINE
8
Black
10
2.52856
20
14.0468
11
2.50593
21
14.0337
0
LINE
8
Black
10
2.50593
20
14.0337
11
2.48452
21
14.0187
0
LINE
8
Black
10
2.48452
20
14.0187
11
2.47602
21
14.0165
0
LINE
8
Black
10
2.47602
20
14.0165
11
2.4684
21
14.0121
0
LINE
8
Black
10
2.4684
20
14.0121
11
2.44267
21
14.0075
0
LINE
8
Black
10
2.44267
20
14.0075
11
2.41743
21
14.0008
0
LINE
8
Black
10
2.41743
20
14.0008
11
2.40867
21
14.0015
0
LINE
8
Black
10
2.40867
20
14.0015
11
2.4
21
14
0
LINE
8
Black
10
2.4
20
14
11
2.08284
21
14
0
LINE
8
Black
10
2.08284
20
14
11
1.1
21
13.0172
0
LINE
8
Black
10
1.1
20
13.0172
11
1.1
21
11.623
0
LINE
8
Black
10
1.1
20
11.623
11
1.1608
21
11.5506
0
LINE
8
Black
10
1.1608
20
11.5506
11
1.19657
21
11.4523
0
LINE
8
Black
10
1.19657
20
11.4523
11
1.19657
21
11.3477
0
LINE
8
Black
10
1.19657
20
11.3477
11
1.1608
21
11.2494
0
LINE
8
Black
10
1.1608
20
11.2494
11
1.09357
21
11.1693
0
LINE
8
Black
10
1.09357
20
11.1693
11
1.003
21
11.117
0
LINE
8
Black
10
1.003
20
11.117
11
0.901264
21
11.0991
0
LINE
8
Black
10
0.901264
20
11.0991
11
0.790597
21
10.9335
0
LINE
8
Black
10
0.790597
20
10.9335
11
0.785775
21
10.9284
0
LINE
8
Black
10
0.785775
20
10.9284
11
0.782288
21
10.9224
0
LINE
8
Black
10
0.782288
20
10.9224
11
0.770624
21
10.9126
0
LINE
8
Black
10
0.770624
20
10.9126
11
0.760096
21
10.9016
0
LINE
8
Black
10
0.760096
20
10.9016
11
0.75384
21
10.8985
0
LINE
8
Black
10
0.75384
20
10.8985
11
0.7485
21
10.894
0
LINE
8
Black
10
0.7485
20
10.894
11
0.734199
21
10.8888
0
LINE
8
Black
10
0.734199
20
10.8888
11
0.720539
21
10.8821
0
LINE
8
Black
10
0.720539
20
10.8821
11
0.713604
21
10.8813
0
LINE
8
Black
10
0.713604
20
10.8813
11
0.707053
21
10.8789
0
LINE
8
Black
10
0.707053
20
10.8789
11
0.691826
21
10.8789
0
LINE
8
Black
10
0.691826
20
10.8789
11
0.676694
21
10.8773
0
LINE
8
Black
10
0.676694
20
10.8773
11
0.669922
21
10.8789
0
LINE
8
Black
10
0.669922
20
10.8789
11
0.662947
21
10.8789
0
LINE
8
Black
10
0.662947
20
10.8789
11
0.648641
21
10.8841
0
LINE
8
Black
10
0.648641
20
10.8841
11
0.633851
21
10.8878
0
LINE
8
Black
10
0.633851
20
10.8878
11
0.62805
21
10.8916
0
LINE
8
Black
10
0.62805
20
10.8916
11
0.6215
21
10.894
0
LINE
8
Black
10
0.6215
20
10.894
11
0.60984
21
10.9038
0
LINE
8
Black
10
0.60984
20
10.9038
11
0.597178
21
10.9123
0
LINE
8
Black
10
0.597178
20
10.9123
11
0.593053
21
10.9179
0
LINE
8
Black
10
0.593053
20
10.9179
11
0.587712
21
10.9224
0
LINE
8
Black
10
0.587712
20
10.9224
11
0.580098
21
10.9356
0
LINE
8
Black
10
0.580098
20
10.9356
11
0.571097
21
10.9478
0
LINE
8
Black
10
0.571097
20
10.9478
11
0.569146
21
10.9545
0
LINE
8
Black
10
0.569146
20
10.9545
11
0.565659
21
10.9606
0
LINE
8
Black
10
0.565659
20
10.9606
11
0.563014
21
10.9756
0
LINE
8
Black
10
0.563014
20
10.9756
11
0.558755
21
10.9902
0
LINE
8
Black
10
0.558755
20
10.9902
11
0.55921
21
10.9971
0
LINE
8
Black
10
0.55921
20
10.9971
11
0.558
21
11.004
0
LINE
8
Black
10
0.558
20
11.004
11
0.558
21
14.1526
0
LINE
8
Black
10
0.558
20
14.1526
11
0.559929
21
14.1635
0
LINE
8
Black
10
0.559929
20
14.1635
11
0.559929
21
14.1746
0
LINE
8
Black
10
0.559929
20
14.1746
11
0.563729
21
14.1851
0
LINE
8
Black
10
0.563729
20
14.1851
11
0.565659
21
14.196
0
LINE
8
Black
10
0.565659
20
14.196
11
0.571215
21
14.2056
0
LINE
8
Black
10
0.571215
20
14.2056
11
0.575015
21
14.2161
0
LINE
8
Black
10
0.575015
20
14.2161
11
0.582155
21
14.2246
0
LINE
8
Black
10
0.582155
20
14.2246
11
0.587712
21
14.2342
0
LINE
8
Black
10
0.587712
20
14.2342
11
0.596223
21
14.2413
0
LINE
8
Black
10
0.596223
20
14.2413
11
0.603366
21
14.2498
0
LINE
8
Black
10
0.603366
20
14.2498
11
0.61299
21
14.2554
0
LINE
8
Black
10
0.61299
20
14.2554
11
0.6215
21
14.2625
0
LINE
8
Black
10
0.6215
20
14.2625
11
0.631939
21
14.2663
0
LINE
8
Black
10
0.631939
20
14.2663
11
0.641563
21
14.2719
0
LINE
8
Black
10
0.641563
20
14.2719
11
0.652505
21
14.2738
0
LINE
8
Black
10
0.652505
20
14.2738
11
0.662947
21
14.2776
0
LINE
8
Black
10
0.662947
20
14.2776
11
0.674059
21
14.2776
0
LINE
8
Black
10
0.674059
20
14.2776
11
0.685
21
14.2796
0
LINE
8
Black
10
0.685
20
14.2796
11
1.79672
21
14.2796
0
LINE
8
Black
10
1.79672
20
14.2796
11
1.85858
21
14.3414
0
LINE
8
Black
10
1.85858
20
14.3414
11
1.86578
21
14.3465
0
LINE
8
Black
10
1.86578
20
14.3465
11
1.87144
21
14.3532
0
LINE
8
Black
10
1.87144
20
14.3532
11
1.89407
21
14.3663
0
LINE
8
Black
10
1.89407
20
14.3663
11
1.91548
21
14.3813
0
LINE
8
Black
10
1.91548
20
14.3813
11
1.92398
21
14.3835
0
LINE
8
Black
10
1.92398
20
14.3835
11
1.9316
21
14.3879
0
LINE
8
Black
10
1.9316
20
14.3879
11
1.95733
21
14.3925
0
LINE
8
Black
10
1.95733
20
14.3925
11
1.98257
21
14.3992
0
LINE
8
Black
10
1.98257
20
14.3992
11
1.99133
21
14.3985
0
LINE
8
Black
10
1.99133
20
14.3985
11
2
21
14.4
0
LINE
8
Black
10
2
20
14.4
11
2.31716
21
14.4
0
LINE
8
Black
10
2.31716
20
14.4
11
2.7
21
14.7828
0
LINE
8
Black
10
2.7
20
14.7828
11
2.7
21
16.8931
0
LINE
8
Black
10
2.7
20
16.8931
11
2.69585
21
16.9145
0
LINE
8
Black
10
2.69585
20
16.9145
11
2.69559
21
16.9295
0
LINE
8
Black
10
2.69559
20
16.9295
11
2.69364
21
16.9443
0
LINE
8
Black
10
2.69364
20
16.9443
11
2.69522
21
16.9514
0
LINE
8
Black
10
2.69522
20
16.9514
11
2.69509
21
16.9586
0
LINE
8
Black
10
2.69509
20
16.9586
11
2.69996
21
16.9728
0
LINE
8
Black
10
2.69996
20
16.9728
11
2.7
21
16.973
0
LINE
8
Black
10
2.7
20
16.973
11
2.7
21
17.6172
0
LINE
8
Black
10
2.7
20
17.6172
11
2.47116
21
17.846
0
LINE
8
Black
10
2.47116
20
17.846
11
2.2
21
17.846
0
LINE
8
Black
10
2.2
20
17.846
11
2.2
21
17.1
0
LINE
8
Black
10
2.2
20
17.1
11
0.2
21
17.1
0
LINE
8
Black
10
0.2
20
17.1
11
0.2
21
19.1
0
LINE
8
Black
10
0.2
20
19.1
11
2.2
21
19.1
0
LINE
8
Black
10
2.2
20
19.1
11
2.2
21
18.354
0
LINE
8
Black
10
2.2
20
20.6
11
2.5
21
20.6
0
LINE
8
Black
10
2.5
20
20.6
11
2.50867
21
20.5985
0
LINE
8
Black
10
2.50867
20
20.5985
11
2.51743
21
20.5992
0
LINE
8
Black
10
2.51743
20
20.5992
11
2.54267
21
20.5925
0
LINE
8
Black
10
2.54267
20
20.5925
11
2.5684
21
20.5879
0
LINE
8
Black
10
2.5684
20
20.5879
11
2.57602
21
20.5835
0
LINE
8
Black
10
2.57602
20
20.5835
11
2.58452
21
20.5813
0
LINE
8
Black
10
2.58452
20
20.5813
11
2.60593
21
20.5663
0
LINE
8
Black
10
2.60593
20
20.5663
11
2.62856
21
20.5532
0
LINE
8
Black
10
2.62856
20
20.5532
11
2.63422
21
20.5465
0
LINE
8
Black
10
2.63422
20
20.5465
11
2.64142
21
20.5414
0
LINE
8
Black
10
2.64142
20
20.5414
11
3.84142
21
19.3414
0
LINE
8
Black
10
3.84142
20
19.3414
11
3.84647
21
19.3342
0
LINE
8
Black
10
3.84647
20
19.3342
11
3.85321
21
19.3286
0
LINE
8
Black
10
3.85321
20
19.3286
11
3.86627
21
19.3059
0
LINE
8
Black
10
3.86627
20
19.3059
11
3.88126
21
19.2845
0
LINE
8
Black
10
3.88126
20
19.2845
11
3.88354
21
19.276
0
LINE
8
Black
10
3.88354
20
19.276
11
3.88794
21
19.2684
0
LINE
8
Black
10
3.88794
20
19.2684
11
3.89248
21
19.2427
0
LINE
8
Black
10
3.89248
20
19.2427
11
3.89924
21
19.2174
0
LINE
8
Black
10
3.89924
20
19.2174
11
3.89847
21
19.2087
0
LINE
8
Black
10
3.89847
20
19.2087
11
3.9
21
19.2
0
LINE
8
Black
10
3.9
20
19.2
11
3.9
21
14.5
0
LINE
8
Black
10
3.9
20
14.5
11
3.89847
21
14.4913
0
LINE
8
Black
10
3.89847
20
14.4913
11
3.89924
21
14.4826
0
LINE
8
Black
10
3.89924
20
14.4826
11
3.89248
21
14.4573
0
LINE
8
Black
10
3.89248
20
14.4573
11
3.88794
21
14.4316
0
LINE
8
Black
10
3.88794
20
14.4316
11
3.88354
21
14.424
0
LINE
8
Black
10
3.88354
20
14.424
11
3.88126
21
14.4155
0
LINE
8
Black
10
3.88126
20
14.4155
11
3.86627
21
14.3941
0
LINE
8
Black
10
3.86627
20
14.3941
11
3.85321
21
14.3714
0
LINE
8
Black
10
3.85321
20
14.3714
11
3.84647
21
14.3658
0
LINE
8
Black
10
3.84647
20
14.3658
11
3.84142
21
14.3586
0
LINE
8
Black
10
3.84142
20
14.3586
11
2.84142
21
13.3586
0
LINE
8
Black
10
2.84142
20
13.3586
11
2.83422
21
13.3535
0
LINE
8
Black
10
2.83422
20
13.3535
11
2.82856
21
13.3468
0
LINE
8
Black
10
2.82856
20
13.3468
11
2.80593
21
13.3337
0
LINE
8
Black
10
2.80593
20
13.3337
11
2.78452
21
13.3187
0
LINE
8
Black
10
2.78452
20
13.3187
11
2.77602
21
13.3165
0
LINE
8
Black
10
2.77602
20
13.3165
11
2.7684
21
13.3121
0
LINE
8
Black
10
2.7684
20
13.3121
11
2.74267
21
13.3075
0
LINE
8
Black
10
2.74267
20
13.3075
11
2.71743
21
13.3008
0
LINE
8
Black
10
2.71743
20
13.3008
11
2.70867
21
13.3015
0
LINE
8
Black
10
2.70867
20
13.3015
11
2.7
21
13.3
0
LINE
8
Black
10
2.7
20
13.3
11
2.38284
21
13.3
0
LINE
8
Black
10
2.38284
20
13.3
11
1.9
21
12.8172
0
LINE
8
Black
10
1.9
20
12.8172
11
1.9
21
10.9
0
LINE
8
Black
10
1.9
20
10.9
11
1.89847
21
10.8913
0
LINE
8
Black
10
1.89847
20
10.8913
11
1.89924
21
10.8826
0
LINE
8
Black
10
1.89924
20
10.8826
11
1.89248
21
10.8573
0
LINE
8
Black
10
1.89248
20
10.8573
11
1.88794
21
10.8316
0
LINE
8
Black
10
1.88794
20
10.8316
11
1.88354
21
10.824
0
LINE
8
Black
10
1.88354
20
10.824
11
1.88126
21
10.8155
0
LINE
8
Black
10
1.88126
20
10.8155
11
1.86628
21
10.7941
0
LINE
8
Black
10
1.86628
20
10.7941
11
1.85321
21
10.7714
0
LINE
8
Black
10
1.85321
20
10.7714
11
1.84647
21
10.7658
0
LINE
8
Black
10
1.84647
20
10.7658
11
1.84142
21
10.7586
0
LINE
8
Black
10
1.84142
20
10.7586
11
1.6
21
10.5172
0
LINE
8
Black
10
1.6
20
10.5172
11
1.6
21
9.68284
0
LINE
8
Black
10
1.6
20
9.68284
11
1.79142
21
9.49142
0
LINE
8
Black
10
1.79142
20
9.49142
11
1.79647
21
9.48422
0
LINE
8
Black
10
1.79647
20
9.48422
11
1.80321
21
9.47856
0
LINE
8
Black
10
1.80321
20
9.47856
11
1.81627
21
9.45593
0
LINE
8
Black
10
1.81627
20
9.45593
11
1.83126
21
9.43452
0
LINE
8
Black
10
1.83126
20
9.43452
11
1.83354
21
9.42603
0
LINE
8
Black
10
1.83354
20
9.42603
11
1.83794
21
9.4184
0
LINE
8
Black
10
1.83794
20
9.4184
11
1.84248
21
9.39267
0
LINE
8
Black
10
1.84248
20
9.39267
11
1.84924
21
9.36743
0
LINE
8
Black
10
1.84924
20
9.36743
11
1.84847
21
9.35867
0
LINE
8
Black
10
1.84847
20
9.35867
11
1.85
21
9.35
0
LINE
8
Black
10
1.85
20
9.35
11
1.85
21
7.33284
0
LINE
8
Black
10
1.85
20
7.33284
11
4.28284
21
4.9
0
LINE
8
Black
10
4.28284
20
4.9
11
9.1
21
4.9
0
LINE
8
Black
10
9.1
20
4.9
11
9.10867
21
4.89847
0
LINE
8
Black
10
9.10867
20
4.89847
11
9.11743
21
4.89924
0
LINE
8
Black
10
9.11743
20
4.89924
11
9.14267
21
4.89248
0
LINE
8
Black
10
9.14267
20
4.89248
11
9.1684
21
4.88794
0
LINE
8
Black
10
9.1684
20
4.88794
11
9.17602
21
4.88354
0
LINE
8
Black
10
9.17602
20
4.88354
11
9.18452
21
4.88126
0
LINE
8
Black
10
9.18452
20
4.88126
11
9.20593
21
4.86628
0
LINE
8
Black
10
9.20593
20
4.86628
11
9.22856
21
4.85321
0
LINE
8
Black
10
9.22856
20
4.85321
11
9.23422
21
4.84647
0
LINE
8
Black
10
9.23422
20
4.84647
11
9.24142
21
4.84142
0
LINE
8
Black
10
9.24142
20
4.84142
11
11.7844
21
2.2984
0
LINE
8
Black
10
11.7844
20
2.2984
11
11.8
21
2.30115
0
LINE
8
Black
10
11.8
20
2.30115
11
11.903
21
2.28299
0
LINE
8
Black
10
11.903
20
2.28299
11
11.9936
21
2.23069
0
LINE
8
Black
10
11.9936
20
2.23069
11
12.0608
21
2.15057
0
LINE
8
Black
10
12.0608
20
2.15057
11
12.0966
21
2.05229
0
LINE
8
Black
10
12.0966
20
2.05229
11
12.0966
21
1.94771
0
LINE
8
Black
10
12.0966
20
1.94771
11
12.0608
21
1.84943
0
LINE
8
Black
10
12.0608
20
1.84943
11
11.9936
21
1.76931
0
LINE
8
Black
10
11.9936
20
1.76931
11
11.903
21
1.71702
0
LINE
8
Black
10
11.903
20
1.71702
11
11.8
21
1.69885
0
LINE
8
Black
10
11.8
20
1.69885
11
11.697
21
1.71702
0
LINE
8
Black
10
11.697
20
1.71702
11
11.6064
21
1.76931
0
LINE
8
Black
10
11.6064
20
1.76931
11
11.5392
21
1.84943
0
LINE
8
Black
10
11.5392
20
1.84943
11
11.5034
21
1.94771
0
LINE
8
Black
10
11.5034
20
1.94771
11
11.5034
21
2.01373
0
LINE
8
Black
10
11.5034
20
2.01373
11
9.01716
21
4.5
0
LINE
8
Black
10
9.01716
20
4.5
11
4.2
21
4.5
0
LINE
8
Black
10
4.2
20
4.5
11
4.19134
21
4.50153
0
LINE
8
Black
10
4.19134
20
4.50153
11
4.18257
21
4.50076
0
LINE
8
Black
10
4.18257
20
4.50076
11
4.15732
21
4.50753
0
LINE
8
Black
10
4.15732
20
4.50753
11
4.1316
21
4.51206
0
LINE
8
Black
10
4.1316
20
4.51206
11
4.12398
21
4.51646
0
LINE
8
Black
10
4.12398
20
4.51646
11
4.11548
21
4.51874
0
LINE
8
Black
10
4.11548
20
4.51874
11
4.09407
21
4.53373
0
LINE
8
Black
10
4.09407
20
4.53373
11
4.07144
21
4.54679
0
LINE
8
Black
10
4.07144
20
4.54679
11
4.06579
21
4.55353
0
LINE
8
Black
10
4.06579
20
4.55353
11
4.05858
21
4.55858
0
LINE
8
Black
10
4.05858
20
4.55858
11
1.50858
21
7.10858
0
LINE
8
Black
10
1.50858
20
7.10858
11
1.50353
21
7.11579
0
LINE
8
Black
10
1.50353
20
7.11579
11
1.49679
21
7.12144
0
LINE
8
Black
10
1.49679
20
7.12144
11
1.48372
21
7.14407
0
LINE
8
Black
10
1.48372
20
7.14407
11
1.46874
21
7.16548
0
LINE
8
Black
10
1.46874
20
7.16548
11
1.46646
21
7.17398
0
LINE
8
Black
10
1.46646
20
7.17398
11
1.46206
21
7.1816
0
LINE
8
Black
10
1.46206
20
7.1816
11
1.45752
21
7.20733
0
LINE
8
Black
10
1.45752
20
7.20733
11
1.45076
21
7.23257
0
LINE
8
Black
10
1.45076
20
7.23257
11
1.45153
21
7.24134
0
LINE
8
Black
10
1.45153
20
7.24134
11
1.45
21
7.25
0
LINE
8
Black
10
1.45
20
7.25
11
1.45
21
9.26716
0
LINE
8
Black
10
1.45
20
9.26716
11
1.25858
21
9.45858
0
LINE
8
Black
10
1.25858
20
9.45858
11
1.25353
21
9.46579
0
LINE
8
Black
10
1.25353
20
9.46579
11
1.24679
21
9.47144
0
LINE
8
Black
10
1.24679
20
9.47144
11
1.23372
21
9.49407
0
LINE
8
Black
10
1.23372
20
9.49407
11
1.21874
21
9.51548
0
LINE
8
Black
10
1.21874
20
9.51548
11
1.21646
21
9.52398
0
LINE
8
Black
10
1.21646
20
9.52398
11
1.21206
21
9.5316
0
LINE
8
Black
10
1.21206
20
9.5316
11
1.20752
21
9.55733
0
LINE
8
Black
10
1.20752
20
9.55733
11
1.20076
21
9.58257
0
LINE
8
Black
10
1.20076
20
9.58257
11
1.20153
21
9.59134
0
LINE
8
Black
10
1.20153
20
9.59134
11
1.2
21
9.6
0
LINE
8
Black
10
1.2
20
9.6
11
1.2
21
10.6
0
LINE
8
Black
10
1.2
20
10.6
11
1.20153
21
10.6087
0
LINE
8
Black
10
1.20153
20
10.6087
11
1.20076
21
10.6174
0
LINE
8
Black
10
1.20076
20
10.6174
11
1.20752
21
10.6427
0
LINE
8
Black
10
1.20752
20
10.6427
11
1.21206
21
10.6684
0
LINE
8
Black
10
1.21206
20
10.6684
11
1.21646
21
10.676
0
LINE
8
Black
10
1.21646
20
10.676
11
1.21874
21
10.6845
0
LINE
8
Black
10
1.21874
20
10.6845
11
1.23372
21
10.7059
0
LINE
8
Black
10
1.23372
20
10.7059
11
1.24679
21
10.7286
0
LINE
8
Black
10
1.24679
20
10.7286
11
1.25353
21
10.7342
0
LINE
8
Black
10
1.25353
20
10.7342
11
1.25858
21
10.7414
0
LINE
8
Black
10
1.25858
20
10.7414
11
1.5
21
10.9828
0
LINE
8
Black
10
1.5
20
10.9828
11
1.5
21
12.9
0
LINE
8
Black
10
1.5
20
12.9
11
1.50153
21
12.9087
0
LINE
8
Black
10
1.50153
20
12.9087
11
1.50076
21
12.9174
0
LINE
8
Black
10
1.50076
20
12.9174
11
1.50752
21
12.9427
0
LINE
8
Black
10
1.50752
20
12.9427
11
1.51206
21
12.9684
0
LINE
8
Black
10
1.51206
20
12.9684
11
1.51646
21
12.976
0
LINE
8
Black
10
1.51646
20
12.976
11
1.51874
21
12.9845
0
LINE
8
Black
10
1.51874
20
12.9845
11
1.53372
21
13.0059
0
LINE
8
Black
10
1.53372
20
13.0059
11
1.54679
21
13.0286
0
LINE
8
Black
10
1.54679
20
13.0286
11
1.55353
21
13.0342
0
LINE
8
Black
10
1.55353
20
13.0342
11
1.55858
21
13.0414
0
LINE
8
Black
10
1.55858
20
13.0414
11
2.15858
21
13.6414
0
LINE
8
Black
10
2.15858
20
13.6414
11
2.16578
21
13.6465
0
LINE
8
Black
10
2.16578
20
13.6465
11
2.17144
21
13.6532
0
LINE
8
Black
10
2.17144
20
13.6532
11
2.19407
21
13.6663
0
LINE
8
Black
10
2.19407
20
13.6663
11
2.21548
21
13.6813
0
LINE
8
Black
10
2.21548
20
13.6813
11
2.22398
21
13.6835
0
LINE
8
Black
10
2.22398
20
13.6835
11
2.2316
21
13.6879
0
LINE
8
Black
10
2.2316
20
13.6879
11
2.25733
21
13.6925
0
LINE
8
Black
10
2.25733
20
13.6925
11
2.28257
21
13.6992
0
LINE
8
Black
10
2.28257
20
13.6992
11
2.29133
21
13.6985
0
LINE
8
Black
10
2.29133
20
13.6985
11
2.3
21
13.7
0
LINE
8
Black
10
2.3
20
13.7
11
2.61716
21
13.7
0
LINE
8
Black
10
2.61716
20
13.7
11
3.5
21
14.5828
0
LINE
8
Black
10
3.5
20
14.5828
11
3.5
21
19.1172
0
LINE
8
Black
10
3.5
20
19.1172
11
2.41716
21
20.2
0
LINE
8
Black
10
2.41716
20
20.2
11
2.2
21
20.2
0
LINE
8
Black
10
2.2
20
20.2
11
2.2
21
19.4
0
LINE
8
Black
10
2.2
20
19.4
11
0.2
21
19.4
0
LINE
8
Black
10
0.2
20
19.4
11
0.2
21
21.4
0
LINE
8
Black
10
0.2
20
21.4
11
2.2
21
21.4
0
LINE
8
Black
10
2.2
20
21.4
11
2.2
21
20.6
0
LINE
8
Black
10
18.8178
20
6.29066
11
19.0708
21
6.14455
0
LINE
8
Black
10
19.0708
20
6.14455
11
19.2587
21
5.9207
0
LINE
8
Black
10
19.2587
20
5.9207
11
19.3586
21
5.64611
0
LINE
8
Black
10
19.3586
20
5.64611
11
19.3586
21
5.35389
0
LINE
8
Black
10
19.3586
20
5.35389
11
19.2587
21
5.0793
0
LINE
8
Black
10
19.2587
20
5.0793
11
19.0708
21
4.85545
0
LINE
8
Black
10
19.0708
20
4.85545
11
18.8178
21
4.70934
0
LINE
8
Black
10
18.8178
20
4.70934
11
18.53
21
4.6586
0
LINE
8
Black
10
18.53
20
4.6586
11
18.2422
21
4.70934
0
LINE
8
Black
10
18.2422
20
4.70934
11
17.9892
21
4.85545
0
LINE
8
Black
10
17.9892
20
4.85545
11
17.8013
21
5.0793
0
LINE
8
Black
10
17.8013
20
5.0793
11
17.7014
21
5.35389
0
LINE
8
Black
10
17.7014
20
5.35389
11
17.7014
21
5.64611
0
LINE
8
Black
10
17.7014
20
5.64611
11
17.8013
21
5.9207
0
LINE
8
Black
10
17.8013
20
5.9207
11
17.9892
21
6.14455
0
LINE
8
Black
10
17.9892
20
6.14455
11
18.2422
21
6.29066
0
LINE
8
Black
10
18.2422
20
6.29066
11
18.53
21
6.3414
0
LINE
8
Black
10
18.53
20
6.3414
11
18.8178
21
6.29066
0
LINE
8
Black
10
17.303
20
23.683
11
17.3936
21
23.6307
0
LINE
8
Black
10
17.3936
20
23.6307
11
17.4608
21
23.5506
0
LINE
8
Black
10
17.4608
20
23.5506
11
17.4966
21
23.4523
0
LINE
8
Black
10
17.4966
20
23.4523
11
17.4966
21
23.3863
0
LINE
8
Black
10
17.4966
20
23.3863
11
17.9414
21
22.9414
0
LINE
8
Black
10
17.9414
20
22.9414
11
17.9465
21
22.9342
0
LINE
8
Black
10
17.9465
20
22.9342
11
17.9532
21
22.9286
0
LINE
8
Black
10
17.9532
20
22.9286
11
17.9663
21
22.9059
0
LINE
8
Black
10
17.9663
20
22.9059
11
17.9813
21
22.8845
0
LINE
8
Black
10
17.9813
20
22.8845
11
17.9835
21
22.876
0
LINE
8
Black
10
17.9835
20
22.876
11
17.9879
21
22.8684
0
LINE
8
Black
10
17.9879
20
22.8684
11
17.9925
21
22.8427
0
LINE
8
Black
10
17.9925
20
22.8427
11
17.9992
21
22.8174
0
LINE
8
Black
10
17.9992
20
22.8174
11
17.9985
21
22.8087
0
LINE
8
Black
10
17.9985
20
22.8087
11
18
21
22.8
0
LINE
8
Black
10
18
20
22.8
11
18
21
20.3828
0
LINE
8
Black
10
18
20
20.3828
11
20.8414
21
17.5414
0
LINE
8
Black
10
20.8414
20
17.5414
11
20.8465
21
17.5342
0
LINE
8
Black
10
20.8465
20
17.5342
11
20.8532
21
17.5286
0
LINE
8
Black
10
20.8532
20
17.5286
11
20.8663
21
17.5059
0
LINE
8
Black
10
20.8663
20
17.5059
11
20.8813
21
17.4845
0
LINE
8
Black
10
20.8813
20
17.4845
11
20.8835
21
17.476
0
LINE
8
Black
10
20.8835
20
17.476
11
20.8879
21
17.4684
0
LINE
8
Black
10
20.8879
20
17.4684
11
20.8925
21
17.4427
0
LINE
8
Black
10
20.8925
20
17.4427
11
20.8992
21
17.4174
0
LINE
8
Black
10
20.8992
20
17.4174
11
20.8985
21
17.4087
0
LINE
8
Black
10
20.8985
20
17.4087
11
20.9
21
17.4
0
LINE
8
Black
10
20.9
20
17.4
11
20.9
21
12.823
0
LINE
8
Black
10
20.9
20
12.823
11
20.9608
21
12.7506
0
LINE
8
Black
10
20.9608
20
12.7506
11
20.9966
21
12.6523
0
LINE
8
Black
10
20.9966
20
12.6523
11
20.9966
21
12.5477
0
LINE
8
Black
10
20.9966
20
12.5477
11
20.9608
21
12.4494
0
LINE
8
Black
10
20.9608
20
12.4494
11
20.9
21
12.377
0
LINE
8
Black
10
20.9
20
12.377
11
20.9
21
10.623
0
LINE
8
Black
10
20.9
20
10.623
11
20.9608
21
10.5506
0
LINE
8
Black
10
20.9608
20
10.5506
11
20.9966
21
10.4523
0
LINE
8
Black
10
20.9966
20
10.4523
11
20.9966
21
10.3477
0
LINE
8
Black
10
20.9966
20
10.3477
11
20.9608
21
10.2494
0
LINE
8
Black
10
20.9608
20
10.2494
11
20.9
21
10.177
0
LINE
8
Black
10
20.9
20
10.177
11
20.9
21
8.48284
0
LINE
8
Black
10
20.9
20
8.48284
11
21.6844
21
7.6984
0
LINE
8
Black
10
21.6844
20
7.6984
11
21.7
21
7.70115
0
LINE
8
Black
10
21.7
20
7.70115
11
21.803
21
7.68299
0
LINE
8
Black
10
21.803
20
7.68299
11
21.8936
21
7.63069
0
LINE
8
Black
10
21.8936
20
7.63069
11
21.9608
21
7.55057
0
LINE
8
Black
10
21.9608
20
7.55057
11
21.9966
21
7.45229
0
LINE
8
Black
10
21.9966
20
7.45229
11
21.9966
21
7.34771
0
LINE
8
Black
10
21.9966
20
7.34771
11
21.9608
21
7.24943
0
LINE
8
Black
10
21.9608
20
7.24943
11
21.8936
21
7.16931
0
LINE
8
Black
10
21.8936
20
7.16931
11
21.803
21
7.11702
0
LINE
8
Black
10
21.803
20
7.11702
11
21.7
21
7.09885
0
LINE
8
Black
10
21.7
20
7.09885
11
21.597
21
7.11702
0
LINE
8
Black
10
21.597
20
7.11702
11
21.5064
21
7.16931
0
LINE
8
Black
10
21.5064
20
7.16931
11
21.4392
21
7.24943
0
LINE
8
Black
10
21.4392
20
7.24943
11
21.4034
21
7.34771
0
LINE
8
Black
10
21.4034
20
7.34771
11
21.4034
21
7.41373
0
LINE
8
Black
10
21.4034
20
7.41373
11
20.5586
21
8.25858
0
LINE
8
Black
10
20.5586
20
8.25858
11
20.5535
21
8.26579
0
LINE
8
Black
10
20.5535
20
8.26579
11
20.5468
21
8.27144
0
LINE
8
Black
10
20.5468
20
8.27144
11
20.5337
21
8.29407
0
LINE
8
Black
10
20.5337
20
8.29407
11
20.5187
21
8.31548
0
LINE
8
Black
10
20.5187
20
8.31548
11
20.5165
21
8.32398
0
LINE
8
Black
10
20.5165
20
8.32398
11
20.5121
21
8.3316
0
LINE
8
Black
10
20.5121
20
8.3316
11
20.5075
21
8.35733
0
LINE
8
Black
10
20.5075
20
8.35733
11
20.5008
21
8.38257
0
LINE
8
Black
10
20.5008
20
8.38257
11
20.5015
21
8.39134
0
LINE
8
Black
10
20.5015
20
8.39134
11
20.5
21
8.4
0
LINE
8
Black
10
20.5
20
8.4
11
20.5
21
10.177
0
LINE
8
Black
10
20.5
20
10.177
11
20.4392
21
10.2494
0
LINE
8
Black
10
20.4392
20
10.2494
11
20.4034
21
10.3477
0
LINE
8
Black
10
20.4034
20
10.3477
11
20.4034
21
10.4523
0
LINE
8
Black
10
20.4034
20
10.4523
11
20.4392
21
10.5506
0
LINE
8
Black
10
20.4392
20
10.5506
11
20.5
21
10.623
0
LINE
8
Black
10
20.5
20
10.623
11
20.5
21
12.377
0
LINE
8
Black
10
20.5
20
12.377
11
20.4392
21
12.4494
0
LINE
8
Black
10
20.4392
20
12.4494
11
20.4034
21
12.5477
0
LINE
8
Black
10
20.4034
20
12.5477
11
20.4034
21
12.6523
0
LINE
8
Black
10
20.4034
20
12.6523
11
20.4392
21
12.7506
0
LINE
8
Black
10
20.4392
20
12.7506
11
20.5
21
12.823
0
LINE
8
Black
10
20.5
20
12.823
11
20.5
21
17.3172
0
LINE
8
Black
10
20.5
20
17.3172
11
17.6586
21
20.1586
0
LINE
8
Black
10
17.6586
20
20.1586
11
17.6535
21
20.1658
0
LINE
8
Black
10
17.6535
20
20.1658
11
17.6468
21
20.1714
0
LINE
8
Black
10
17.6468
20
20.1714
11
17.6337
21
20.1941
0
LINE
8
Black
10
17.6337
20
20.1941
11
17.6187
21
20.2155
0
LINE
8
Black
10
17.6187
20
20.2155
11
17.6165
21
20.224
0
LINE
8
Black
10
17.6165
20
20.224
11
17.6121
21
20.2316
0
LINE
8
Black
10
17.6121
20
20.2316
11
17.6075
21
20.2573
0
LINE
8
Black
10
17.6075
20
20.2573
11
17.6008
21
20.2826
0
LINE
8
Black
10
17.6008
20
20.2826
11
17.6015
21
20.2913
0
LINE
8
Black
10
17.6015
20
20.2913
11
17.6
21
20.3
0
LINE
8
Black
10
17.6
20
20.3
11
17.6
21
22.7172
0
LINE
8
Black
10
17.6
20
22.7172
11
17.4
21
22.9172
0
LINE
8
Black
10
17.4
20
22.9172
11
17.4
21
20.1
0
LINE
8
Black
10
17.4
20
20.1
11
17.3985
21
20.0913
0
LINE
8
Black
10
17.3985
20
20.0913
11
17.3992
21
20.0826
0
LINE
8
Black
10
17.3992
20
20.0826
11
17.3925
21
20.0573
0
LINE
8
Black
10
17.3925
20
20.0573
11
17.3879
21
20.0316
0
LINE
8
Black
10
17.3879
20
20.0316
11
17.3835
21
20.024
0
LINE
8
Black
10
17.3835
20
20.024
11
17.3813
21
20.0155
0
LINE
8
Black
10
17.3813
20
20.0155
11
17.3663
21
19.9941
0
LINE
8
Black
10
17.3663
20
19.9941
11
17.3532
21
19.9714
0
LINE
8
Black
10
17.3532
20
19.9714
11
17.3465
21
19.9658
0
LINE
8
Black
10
17.3465
20
19.9658
11
17.3414
21
19.9586
0
LINE
8
Black
10
17.3414
20
19.9586
11
14.4414
21
17.0586
0
LINE
8
Black
10
14.4414
20
17.0586
11
14.4342
21
17.0535
0
LINE
8
Black
10
14.4342
20
17.0535
11
14.4286
21
17.0468
0
LINE
8
Black
10
14.4286
20
17.0468
11
14.4059
21
17.0337
0
LINE
8
Black
10
14.4059
20
17.0337
11
14.3845
21
17.0187
0
LINE
8
Black
10
14.3845
20
17.0187
11
14.376
21
17.0165
0
LINE
8
Black
10
14.376
20
17.0165
11
14.3684
21
17.0121
0
LINE
8
Black
10
14.3684
20
17.0121
11
14.3427
21
17.0075
0
LINE
8
Black
10
14.3427
20
17.0075
11
14.3174
21
17.0008
0
LINE
8
Black
10
14.3174
20
17.0008
11
14.3087
21
17.0015
0
LINE
8
Black
10
14.3087
20
17.0015
11
14.3
21
17
0
LINE
8
Black
10
14.3
20
17
11
9.28284
21
17
0
LINE
8
Black
10
9.28284
20
17
11
5.74142
21
13.4586
0
LINE
8
Black
10
5.74142
20
13.4586
11
5.74142
21
13.4586
0
LINE
8
Black
10
5.74142
20
13.4586
11
5.74142
21
13.4586
0
LINE
8
Black
10
5.74142
20
13.4586
11
2.59657
21
10.3137
0
LINE
8
Black
10
2.59657
20
10.3137
11
2.59657
21
10.2477
0
LINE
8
Black
10
2.59657
20
10.2477
11
2.5608
21
10.1494
0
LINE
8
Black
10
2.5608
20
10.1494
11
2.49357
21
10.0693
0
LINE
8
Black
10
2.49357
20
10.0693
11
2.403
21
10.017
0
LINE
8
Black
10
2.403
20
10.017
11
2.3
21
9.99885
0
LINE
8
Black
10
2.3
20
9.99885
11
2.197
21
10.017
0
LINE
8
Black
10
2.197
20
10.017
11
2.10643
21
10.0693
0
LINE
8
Black
10
2.10643
20
10.0693
11
2.0392
21
10.1494
0
LINE
8
Black
10
2.0392
20
10.1494
11
2.00343
21
10.2477
0
LINE
8
Black
10
2.00343
20
10.2477
11
2.00343
21
10.3523
0
LINE
8
Black
10
2.00343
20
10.3523
11
2.0392
21
10.4506
0
LINE
8
Black
10
2.0392
20
10.4506
11
2.10643
21
10.5307
0
LINE
8
Black
10
2.10643
20
10.5307
11
2.197
21
10.583
0
LINE
8
Black
10
2.197
20
10.583
11
2.3
21
10.6011
0
LINE
8
Black
10
2.3
20
10.6011
11
2.31556
21
10.5984
0
LINE
8
Black
10
2.31556
20
10.5984
11
5.45858
21
13.7414
0
LINE
8
Black
10
5.45858
20
13.7414
11
9.05858
21
17.3414
0
LINE
8
Black
10
9.05858
20
17.3414
11
9.06578
21
17.3465
0
LINE
8
Black
10
9.06578
20
17.3465
11
9.07144
21
17.3532
0
LINE
8
Black
10
9.07144
20
17.3532
11
9.09407
21
17.3663
0
LINE
8
Black
10
9.09407
20
17.3663
11
9.11548
21
17.3813
0
LINE
8
Black
10
9.11548
20
17.3813
11
9.12398
21
17.3835
0
LINE
8
Black
10
9.12398
20
17.3835
11
9.1316
21
17.3879
0
LINE
8
Black
10
9.1316
20
17.3879
11
9.15733
21
17.3925
0
LINE
8
Black
10
9.15733
20
17.3925
11
9.18257
21
17.3992
0
LINE
8
Black
10
9.18257
20
17.3992
11
9.19133
21
17.3985
0
LINE
8
Black
10
9.19133
20
17.3985
11
9.2
21
17.4
0
LINE
8
Black
10
9.2
20
17.4
11
14.2172
21
17.4
0
LINE
8
Black
10
14.2172
20
17.4
11
17
21
20.1828
0
LINE
8
Black
10
17
20
20.1828
11
17
21
23.177
0
LINE
8
Black
10
17
20
23.177
11
16.9392
21
23.2494
0
LINE
8
Black
10
16.9392
20
23.2494
11
16.9034
21
23.3477
0
LINE
8
Black
10
16.9034
20
23.3477
11
16.9034
21
23.4523
0
LINE
8
Black
10
16.9034
20
23.4523
11
16.9392
21
23.5506
0
LINE
8
Black
10
16.9392
20
23.5506
11
17.0064
21
23.6307
0
LINE
8
Black
10
17.0064
20
23.6307
11
17.097
21
23.683
0
LINE
8
Black
10
17.097
20
23.683
11
17.2
21
23.7011
0
LINE
8
Black
10
17.2
20
23.7011
11
17.303
21
23.683
0
LINE
8
Black
10
22.103
20
1.58299
11
22.1936
21
1.53069
0
LINE
8
Black
10
22.1936
20
1.53069
11
22.2193
21
1.5
0
LINE
8
Black
10
22.2193
20
1.5
11
23.1
21
1.5
0
LINE
8
Black
10
23.1
20
1.5
11
23.1087
21
1.49847
0
LINE
8
Black
10
23.1087
20
1.49847
11
23.1174
21
1.49924
0
LINE
8
Black
10
23.1174
20
1.49924
11
23.1427
21
1.49248
0
LINE
8
Black
10
23.1427
20
1.49248
11
23.1684
21
1.48794
0
LINE
8
Black
10
23.1684
20
1.48794
11
23.176
21
1.48354
0
LINE
8
Black
10
23.176
20
1.48354
11
23.1845
21
1.48126
0
LINE
8
Black
10
23.1845
20
1.48126
11
23.2059
21
1.46628
0
LINE
8
Black
10
23.2059
20
1.46628
11
23.2286
21
1.45321
0
LINE
8
Black
10
23.2286
20
1.45321
11
23.2342
21
1.44647
0
LINE
8
Black
10
23.2342
20
1.44647
11
23.2414
21
1.44142
0
LINE
8
Black
10
23.2414
20
1.44142
11
23.6844
21
0.998403
0
LINE
8
Black
10
23.6844
20
0.998403
11
23.7
21
1.00115
0
LINE
8
Black
10
23.7
20
1.00115
11
23.803
21
0.982985
0
LINE
8
Black
10
23.803
20
0.982985
11
23.8936
21
0.930691
0
LINE
8
Black
10
23.8936
20
0.930691
11
23.9608
21
0.850573
0
LINE
8
Black
10
23.9608
20
0.850573
11
23.9966
21
0.752293
0
LINE
8
Black
10
23.9966
20
0.752293
11
23.9966
21
0.647707
0
LINE
8
Black
10
23.9966
20
0.647707
11
23.9608
21
0.549427
0
LINE
8
Black
10
23.9608
20
0.549427
11
23.8936
21
0.469309
0
LINE
8
Black
10
23.8936
20
0.469309
11
23.803
21
0.417015
0
LINE
8
Black
10
23.803
20
0.417015
11
23.7
21
0.398854
0
LINE
8
Black
10
23.7
20
0.398854
11
23.597
21
0.417015
0
LINE
8
Black
10
23.597
20
0.417015
11
23.5064
21
0.469309
0
LINE
8
Black
10
23.5064
20
0.469309
11
23.4392
21
0.549427
0
LINE
8
Black
10
23.4392
20
0.549427
11
23.4034
21
0.647707
0
LINE
8
Black
10
23.4034
20
0.647707
11
23.4034
21
0.713729
0
LINE
8
Black
10
23.4034
20
0.713729
11
23.0172
21
1.1
0
LINE
8
Black
10
23.0172
20
1.1
11
22.2193
21
1.1
0
LINE
8
Black
10
22.2193
20
1.1
11
22.1936
21
1.06931
0
LINE
8
Black
10
22.1936
20
1.06931
11
22.103
21
1.01702
0
LINE
8
Black
10
22.103
20
1.01702
11
22
21
0.998854
0
LINE
8
Black
10
22
20
0.998854
11
21.897
21
1.01702
0
LINE
8
Black
10
21.897
20
1.01702
11
21.8064
21
1.06931
0
LINE
8
Black
10
21.8064
20
1.06931
11
21.7392
21
1.14943
0
LINE
8
Black
10
21.7392
20
1.14943
11
21.7034
21
1.24771
0
LINE
8
Black
10
21.7034
20
1.24771
11
21.7034
21
1.35229
0
LINE
8
Black
10
21.7034
20
1.35229
11
21.7392
21
1.45057
0
LINE
8
Black
10
21.7392
20
1.45057
11
21.8064
21
1.53069
0
LINE
8
Black
10
21.8064
20
1.53069
11
21.897
21
1.58299
0
LINE
8
Black
10
21.897
20
1.58299
11
22
21
1.60115
0
LINE
8
Black
10
22
20
1.60115
11
22.103
21
1.58299
0
LINE
8
Black
10
25.289
20
19.471
11
24.6
21
19.471
0
LINE
8
Black
10
24.6
20
19.471
11
24.6
21
10.1828
0
LINE
8
Black
10
24.6
20
10.1828
11
27.6228
21
7.16
0
LINE
8
Black
10
27.6228
20
7.16
11
27.7644
21
7.16
0
LINE
8
Black
10
27.7644
20
7.16
11
27.8488
21
7.3918
0
LINE
8
Black
10
27.8488
20
7.3918
11
28.0416
21
7.62156
0
LINE
8
Black
10
28.0416
20
7.62156
11
28.3013
21
7.77152
0
LINE
8
Black
10
28.3013
20
7.77152
11
28.5967
21
7.8236
0
LINE
8
Black
10
28.5967
20
7.8236
11
28.6033
21
7.8236
0
LINE
8
Black
10
28.6033
20
7.8236
11
28.8987
21
7.77152
0
LINE
8
Black
10
28.8987
20
7.77152
11
29.1584
21
7.62156
0
LINE
8
Black
10
29.1584
20
7.62156
11
29.3512
21
7.3918
0
LINE
8
Black
10
29.3512
20
7.3918
11
29.4538
21
7.10996
0
LINE
8
Black
10
29.4538
20
7.10996
11
29.4538
21
6.81004
0
LINE
8
Black
10
29.4538
20
6.81004
11
29.3512
21
6.5282
0
LINE
8
Black
10
29.3512
20
6.5282
11
29.1584
21
6.29844
0
LINE
8
Black
10
29.1584
20
6.29844
11
28.8987
21
6.14848
0
LINE
8
Black
10
28.8987
20
6.14848
11
28.6033
21
6.0964
0
LINE
8
Black
10
28.6033
20
6.0964
11
28.5967
21
6.0964
0
LINE
8
Black
10
28.5967
20
6.0964
11
28.3013
21
6.14848
0
LINE
8
Black
10
28.3013
20
6.14848
11
28.0416
21
6.29844
0
LINE
8
Black
10
28.0416
20
6.29844
11
27.8488
21
6.5282
0
LINE
8
Black
10
27.8488
20
6.5282
11
27.7644
21
6.76
0
LINE
8
Black
10
27.7644
20
6.76
11
27.54
21
6.76
0
LINE
8
Black
10
27.54
20
6.76
11
27.5313
21
6.76153
0
LINE
8
Black
10
27.5313
20
6.76153
11
27.5226
21
6.76076
0
LINE
8
Black
10
27.5226
20
6.76076
11
27.4973
21
6.76753
0
LINE
8
Black
10
27.4973
20
6.76753
11
27.4716
21
6.77206
0
LINE
8
Black
10
27.4716
20
6.77206
11
27.464
21
6.77646
0
LINE
8
Black
10
27.464
20
6.77646
11
27.4555
21
6.77874
0
LINE
8
Black
10
27.4555
20
6.77874
11
27.4341
21
6.79373
0
LINE
8
Black
10
27.4341
20
6.79373
11
27.4114
21
6.80679
0
LINE
8
Black
10
27.4114
20
6.80679
11
27.4058
21
6.81353
0
LINE
8
Black
10
27.4058
20
6.81353
11
27.3986
21
6.81858
0
LINE
8
Black
10
27.3986
20
6.81858
11
24.2586
21
9.95858
0
LINE
8
Black
10
24.2586
20
9.95858
11
24.2535
21
9.96579
0
LINE
8
Black
10
24.2535
20
9.96579
11
24.2468
21
9.97144
0
LINE
8
Black
10
24.2468
20
9.97144
11
24.2337
21
9.99407
0
LINE
8
Black
10
24.2337
20
9.99407
11
24.2187
21
10.0155
0
LINE
8
Black
10
24.2187
20
10.0155
11
24.2165
21
10.024
0
LINE
8
Black
10
24.2165
20
10.024
11
24.2121
21
10.0316
0
LINE
8
Black
10
24.2121
20
10.0316
11
24.2075
21
10.0573
0
LINE
8
Black
10
24.2075
20
10.0573
11
24.2008
21
10.0826
0
LINE
8
Black
10
24.2008
20
10.0826
11
24.2015
21
10.0913
0
LINE
8
Black
10
24.2015
20
10.0913
11
24.2
21
10.1
0
LINE
8
Black
10
24.2
20
10.1
11
24.2
21
19.471
0
LINE
8
Black
10
24.2
20
19.471
11
23.511
21
19.471
0
LINE
8
Black
10
23.511
20
19.471
11
23.511
21
21.249
0
LINE
8
Black
10
23.511
20
21.249
11
25.289
21
21.249
0
LINE
8
Black
10
25.289
20
21.249
11
25.289
21
19.471
0
LINE
8
Black
10
28.8987
20
5.23152
11
29.1584
21
5.08156
0
LINE
8
Black
10
29.1584
20
5.08156
11
29.3512
21
4.8518
0
LINE
8
Black
10
29.3512
20
4.8518
11
29.4538
21
4.56996
0
LINE
8
Black
10
29.4538
20
4.56996
11
29.4538
21
4.27004
0
LINE
8
Black
10
29.4538
20
4.27004
11
29.3512
21
3.9882
0
LINE
8
Black
10
29.3512
20
3.9882
11
29.1584
21
3.75844
0
LINE
8
Black
10
29.1584
20
3.75844
11
28.8987
21
3.60848
0
LINE
8
Black
10
28.8987
20
3.60848
11
28.6033
21
3.5564
0
LINE
8
Black
10
28.6033
20
3.5564
11
28.5967
21
3.5564
0
LINE
8
Black
10
28.5967
20
3.5564
11
28.3013
21
3.60848
0
LINE
8
Black
10
28.3013
20
3.60848
11
28.0416
21
3.75844
0
LINE
8
Black
10
28.0416
20
3.75844
11
27.8488
21
3.9882
0
LINE
8
Black
10
27.8488
20
3.9882
11
27.7462
21
4.27004
0
LINE
8
Black
10
27.7462
20
4.27004
11
27.7462
21
4.56996
0
LINE
8
Black
10
27.7462
20
4.56996
11
27.8488
21
4.8518
0
LINE
8
Black
10
27.8488
20
4.8518
11
28.0416
21
5.08156
0
LINE
8
Black
10
28.0416
20
5.08156
11
28.3013
21
5.23152
0
LINE
8
Black
10
28.3013
20
5.23152
11
28.5967
21
5.2836
0
LINE
8
Black
10
28.5967
20
5.2836
11
28.6033
21
5.2836
0
LINE
8
Black
10
28.6033
20
5.2836
11
28.8987
21
5.23152
0
LINE
8
Black
10
31.4387
20
7.77152
11
31.6984
21
7.62156
0
LINE
8
Black
10
31.6984
20
7.62156
11
31.8912
21
7.3918
0
LINE
8
Black
10
31.8912
20
7.3918
11
31.9938
21
7.10996
0
LINE
8
Black
10
31.9938
20
7.10996
11
31.9938
21
6.81004
0
LINE
8
Black
10
31.9938
20
6.81004
11
31.8912
21
6.5282
0
LINE
8
Black
10
31.8912
20
6.5282
11
31.6984
21
6.29844
0
LINE
8
Black
10
31.6984
20
6.29844
11
31.4387
21
6.14848
0
LINE
8
Black
10
31.4387
20
6.14848
11
31.1433
21
6.0964
0
LINE
8
Black
10
31.1433
20
6.0964
11
31.1367
21
6.0964
0
LINE
8
Black
10
31.1367
20
6.0964
11
30.8413
21
6.14848
0
LINE
8
Black
10
30.8413
20
6.14848
11
30.5816
21
6.29844
0
LINE
8
Black
10
30.5816
20
6.29844
11
30.3888
21
6.5282
0
LINE
8
Black
10
30.3888
20
6.5282
11
30.2862
21
6.81004
0
LINE
8
Black
10
30.2862
20
6.81004
11
30.2862
21
7.10996
0
LINE
8
Black
10
30.2862
20
7.10996
11
30.3888
21
7.3918
0
LINE
8
Black
10
30.3888
20
7.3918
11
30.5816
21
7.62156
0
LINE
8
Black
10
30.5816
20
7.62156
11
30.8413
21
7.77152
0
LINE
8
Black
10
30.8413
20
7.77152
11
31.1367
21
7.8236
0
LINE
8
Black
10
31.1367
20
7.8236
11
31.1433
21
7.8236
0
LINE
8
Black
10
31.1433
20
7.8236
11
31.4387
21
7.77152
0
LINE
8
Black
10
31.4387
20
5.23152
11
31.6984
21
5.08156
0
LINE
8
Black
10
31.6984
20
5.08156
11
31.8912
21
4.8518
0
LINE
8
Black
10
31.8912
20
4.8518
11
31.9938
21
4.56996
0
LINE
8
Black
10
31.9938
20
4.56996
11
31.9938
21
4.27004
0
LINE
8
Black
10
31.9938
20
4.27004
11
31.8912
21
3.9882
0
LINE
8
Black
10
31.8912
20
3.9882
11
31.6984
21
3.75844
0
LINE
8
Black
10
31.6984
20
3.75844
11
31.4387
21
3.60848
0
LINE
8
Black
10
31.4387
20
3.60848
11
31.1433
21
3.5564
0
LINE
8
Black
10
31.1433
20
3.5564
11
31.1367
21
3.5564
0
LINE
8
Black
10
31.1367
20
3.5564
11
30.8413
21
3.60848
0
LINE
8
Black
10
30.8413
20
3.60848
11
30.5816
21
3.75844
0
LINE
8
Black
10
30.5816
20
3.75844
11
30.3888
21
3.9882
0
LINE
8
Black
10
30.3888
20
3.9882
11
30.2862
21
4.27004
0
LINE
8
Black
10
30.2862
20
4.27004
11
30.2862
21
4.56996
0
LINE
8
Black
10
30.2862
20
4.56996
11
30.3888
21
4.8518
0
LINE
8
Black
10
30.3888
20
4.8518
11
30.5816
21
5.08156
0
LINE
8
Black
10
30.5816
20
5.08156
11
30.8413
21
5.23152
0
LINE
8
Black
10
30.8413
20
5.23152
11
31.1367
21
5.2836
0
LINE
8
Black
10
31.1367
20
5.2836
11
31.1433
21
5.2836
0
LINE
8
Black
10
31.1433
20
5.2836
11
31.4387
21
5.23152
0
LINE
8
Black
10
23.5087
20
2.29847
11
23.5174
21
2.29924
0
LINE
8
Black
10
23.5174
20
2.29924
11
23.5427
21
2.29248
0
LINE
8
Black
10
23.5427
20
2.29248
11
23.5684
21
2.28794
0
LINE
8
Black
10
23.5684
20
2.28794
11
23.576
21
2.28354
0
LINE
8
Black
10
23.576
20
2.28354
11
23.5845
21
2.28126
0
LINE
8
Black
10
23.5845
20
2.28126
11
23.6059
21
2.26628
0
LINE
8
Black
10
23.6059
20
2.26628
11
23.6286
21
2.25321
0
LINE
8
Black
10
23.6286
20
2.25321
11
23.6342
21
2.24647
0
LINE
8
Black
10
23.6342
20
2.24647
11
23.6414
21
2.24142
0
LINE
8
Black
10
23.6414
20
2.24142
11
25.0828
21
0.8
0
LINE
8
Black
10
25.0828
20
0.8
11
27.9172
21
0.8
0
LINE
8
Black
10
27.9172
20
0.8
11
29.1586
21
2.04142
0
LINE
8
Black
10
29.1586
20
2.04142
11
29.1658
21
2.04647
0
LINE
8
Black
10
29.1658
20
2.04647
11
29.1714
21
2.05321
0
LINE
8
Black
10
29.1714
20
2.05321
11
29.1941
21
2.06627
0
LINE
8
Black
10
29.1941
20
2.06627
11
29.2155
21
2.08126
0
LINE
8
Black
10
29.2155
20
2.08126
11
29.224
21
2.08354
0
LINE
8
Black
10
29.224
20
2.08354
11
29.2316
21
2.08794
0
LINE
8
Black
10
29.2316
20
2.08794
11
29.2573
21
2.09248
0
LINE
8
Black
10
29.2573
20
2.09248
11
29.2826
21
2.09924
0
LINE
8
Black
10
29.2826
20
2.09924
11
29.2913
21
2.09847
0
LINE
8
Black
10
29.2913
20
2.09847
11
29.3
21
2.1
0
LINE
8
Black
10
29.3
20
2.1
11
33.7807
21
2.1
0
LINE
8
Black
10
33.7807
20
2.1
11
33.8064
21
2.13069
0
LINE
8
Black
10
33.8064
20
2.13069
11
33.897
21
2.18299
0
LINE
8
Black
10
33.897
20
2.18299
11
34
21
2.20115
0
LINE
8
Black
10
34
20
2.20115
11
34.103
21
2.18299
0
LINE
8
Black
10
34.103
20
2.18299
11
34.1936
21
2.13069
0
LINE
8
Black
10
34.1936
20
2.13069
11
34.2608
21
2.05057
0
LINE
8
Black
10
34.2608
20
2.05057
11
34.2966
21
1.95229
0
LINE
8
Black
10
34.2966
20
1.95229
11
34.2966
21
1.84771
0
LINE
8
Black
10
34.2966
20
1.84771
11
34.2608
21
1.74943
0
LINE
8
Black
10
34.2608
20
1.74943
11
34.1936
21
1.66931
0
LINE
8
Black
10
34.1936
20
1.66931
11
34.103
21
1.61702
0
LINE
8
Black
10
34.103
20
1.61702
11
34
21
1.59885
0
LINE
8
Black
10
34
20
1.59885
11
33.897
21
1.61702
0
LINE
8
Black
10
33.897
20
1.61702
11
33.8064
21
1.66931
0
LINE
8
Black
10
33.8064
20
1.66931
11
33.7807
21
1.7
0
LINE
8
Black
10
33.7807
20
1.7
11
29.3828
21
1.7
0
LINE
8
Black
10
29.3828
20
1.7
11
28.1414
21
0.458579
0
LINE
8
Black
10
28.1414
20
0.458579
11
28.1342
21
0.453534
0
LINE
8
Black
10
28.1342
20
0.453534
11
28.1286
21
0.446791
0
LINE
8
Black
10
28.1286
20
0.446791
11
28.1059
21
0.433725
0
LINE
8
Black
10
28.1059
20
0.433725
11
28.0845
21
0.418738
0
LINE
8
Black
10
28.0845
20
0.418738
11
28.076
21
0.416461
0
LINE
8
Black
10
28.076
20
0.416461
11
28.0684
21
0.412061
0
LINE
8
Black
10
28.0684
20
0.412061
11
28.0427
21
0.407524
0
LINE
8
Black
10
28.0427
20
0.407524
11
28.0174
21
0.400761
0
LINE
8
Black
10
28.0174
20
0.400761
11
28.0087
21
0.401528
0
LINE
8
Black
10
28.0087
20
0.401528
11
28
21
0.4
0
LINE
8
Black
10
28
20
0.4
11
25
21
0.4
0
LINE
8
Black
10
25
20
0.4
11
24.9913
21
0.401528
0
LINE
8
Black
10
24.9913
20
0.401528
11
24.9826
21
0.400761
0
LINE
8
Black
10
24.9826
20
0.400761
11
24.9573
21
0.407524
0
LINE
8
Black
10
24.9573
20
0.407524
11
24.9316
21
0.412061
0
LINE
8
Black
10
24.9316
20
0.412061
11
24.924
21
0.416461
0
LINE
8
Black
10
24.924
20
0.416461
11
24.9155
21
0.418738
0
LINE
8
Black
10
24.9155
20
0.418738
11
24.8941
21
0.433726
0
LINE
8
Black
10
24.8941
20
0.433726
11
24.8714
21
0.446791
0
LINE
8
Black
10
24.8714
20
0.446791
11
24.8658
21
0.453533
0
LINE
8
Black
10
24.8658
20
0.453533
11
24.8586
21
0.458579
0
LINE
8
Black
10
24.8586
20
0.458579
11
23.4172
21
1.9
0
LINE
8
Black
10
23.4172
20
1.9
11
21.6828
21
1.9
0
LINE
8
Black
10
21.6828
20
1.9
11
20.0414
21
0.258579
0
LINE
8
Black
10
20.0414
20
0.258579
11
20.0342
21
0.253534
0
LINE
8
Black
10
20.0342
20
0.253534
11
20.0286
21
0.246791
0
LINE
8
Black
10
20.0286
20
0.246791
11
20.0059
21
0.233725
0
LINE
8
Black
10
20.0059
20
0.233725
11
19.9845
21
0.218738
0
LINE
8
Black
10
19.9845
20
0.218738
11
19.976
21
0.216461
0
LINE
8
Black
10
19.976
20
0.216461
11
19.9684
21
0.212061
0
LINE
8
Black
10
19.9684
20
0.212061
11
19.9427
21
0.207524
0
LINE
8
Black
10
19.9427
20
0.207524
11
19.9174
21
0.200761
0
LINE
8
Black
10
19.9174
20
0.200761
11
19.9087
21
0.201528
0
LINE
8
Black
10
19.9087
20
0.201528
11
19.9
21
0.2
0
LINE
8
Black
10
19.9
20
0.2
11
10.7
21
0.2
0
LINE
8
Black
10
10.7
20
0.2
11
10.6913
21
0.201528
0
LINE
8
Black
10
10.6913
20
0.201528
11
10.6826
21
0.200761
0
LINE
8
Black
10
10.6826
20
0.200761
11
10.6573
21
0.207524
0
LINE
8
Black
10
10.6573
20
0.207524
11
10.6316
21
0.212061
0
LINE
8
Black
10
10.6316
20
0.212061
11
10.624
21
0.216461
0
LINE
8
Black
10
10.624
20
0.216461
11
10.6155
21
0.218738
0
LINE
8
Black
10
10.6155
20
0.218738
11
10.5941
21
0.233726
0
LINE
8
Black
10
10.5941
20
0.233726
11
10.5714
21
0.246791
0
LINE
8
Black
10
10.5714
20
0.246791
11
10.5658
21
0.253533
0
LINE
8
Black
10
10.5658
20
0.253533
11
10.5586
21
0.258579
0
LINE
8
Black
10
10.5586
20
0.258579
11
9.81556
21
1.0016
0
LINE
8
Black
10
9.81556
20
1.0016
11
9.8
21
0.998854
0
LINE
8
Black
10
9.8
20
0.998854
11
9.697
21
1.01702
0
LINE
8
Black
10
9.697
20
1.01702
11
9.60643
21
1.06931
0
LINE
8
Black
10
9.60643
20
1.06931
11
9.5392
21
1.14943
0
LINE
8
Black
10
9.5392
20
1.14943
11
9.50343
21
1.24771
0
LINE
8
Black
10
9.50343
20
1.24771
11
9.50343
21
1.35229
0
LINE
8
Black
10
9.50343
20
1.35229
11
9.5392
21
1.45057
0
LINE
8
Black
10
9.5392
20
1.45057
11
9.60643
21
1.53069
0
LINE
8
Black
10
9.60643
20
1.53069
11
9.697
21
1.58299
0
LINE
8
Black
10
9.697
20
1.58299
11
9.8
21
1.60115
0
LINE
8
Black
10
9.8
20
1.60115
11
9.903
21
1.58299
0
LINE
8
Black
10
9.903
20
1.58299
11
9.99357
21
1.53069
0
LINE
8
Black
10
9.99357
20
1.53069
11
10.0608
21
1.45057
0
LINE
8
Black
10
10.0608
20
1.45057
11
10.0966
21
1.35229
0
LINE
8
Black
10
10.0966
20
1.35229
11
10.0966
21
1.28627
0
LINE
8
Black
10
10.0966
20
1.28627
11
10.7828
21
0.6
0
LINE
8
Black
10
10.7828
20
0.6
11
19.8172
21
0.6
0
LINE
8
Black
10
19.8172
20
0.6
11
21.4586
21
2.24142
0
LINE
8
Black
10
21.4586
20
2.24142
11
21.4658
21
2.24647
0
LINE
8
Black
10
21.4658
20
2.24647
11
21.4714
21
2.25321
0
LINE
8
Black
10
21.4714
20
2.25321
11
21.4941
21
2.26628
0
LINE
8
Black
10
21.4941
20
2.26628
11
21.5155
21
2.28126
0
LINE
8
Black
10
21.5155
20
2.28126
11
21.524
21
2.28354
0
LINE
8
Black
10
21.524
20
2.28354
11
21.5316
21
2.28794
0
LINE
8
Black
10
21.5316
20
2.28794
11
21.5573
21
2.29248
0
LINE
8
Black
10
21.5573
20
2.29248
11
21.5826
21
2.29924
0
LINE
8
Black
10
21.5826
20
2.29924
11
21.5913
21
2.29847
0
LINE
8
Black
10
21.5913
20
2.29847
11
21.6
21
2.3
0
LINE
8
Black
10
21.6
20
2.3
11
23.5
21
2.3
0
LINE
8
Black
10
23.5
20
2.3
11
23.5087
21
2.29847
0
LINE
8
Black
10
40.0178
20
17.7907
11
40.2708
21
17.6446
0
LINE
8
Black
10
40.2708
20
17.6446
11
40.4587
21
17.4207
0
LINE
8
Black
10
40.4587
20
17.4207
11
40.5586
21
17.1461
0
LINE
8
Black
10
40.5586
20
17.1461
11
40.5586
21
16.8539
0
LINE
8
Black
10
40.5586
20
16.8539
11
40.4587
21
16.5793
0
LINE
8
Black
10
40.4587
20
16.5793
11
40.2708
21
16.3554
0
LINE
8
Black
10
40.2708
20
16.3554
11
40.0178
21
16.2093
0
LINE
8
Black
10
40.0178
20
16.2093
11
39.73
21
16.1586
0
LINE
8
Black
10
39.73
20
16.1586
11
39.4422
21
16.2093
0
LINE
8
Black
10
39.4422
20
16.2093
11
39.1892
21
16.3554
0
LINE
8
Black
10
39.1892
20
16.3554
11
39.0013
21
16.5793
0
LINE
8
Black
10
39.0013
20
16.5793
11
38.9014
21
16.8539
0
LINE
8
Black
10
38.9014
20
16.8539
11
38.9014
21
17.1461
0
LINE
8
Black
10
38.9014
20
17.1461
11
39.0013
21
17.4207
0
LINE
8
Black
10
39.0013
20
17.4207
11
39.1892
21
17.6446
0
LINE
8
Black
10
39.1892
20
17.6446
11
39.4422
21
17.7907
0
LINE
8
Black
10
39.4422
20
17.7907
11
39.73
21
17.8414
0
LINE
8
Black
10
39.73
20
17.8414
11
40.0178
21
17.7907
0
LINE
8
Black
10
41.5178
20
9.29066
11
41.7708
21
9.14455
0
LINE
8
Black
10
41.7708
20
9.14455
11
41.9587
21
8.9207
0
LINE
8
Black
10
41.9587
20
8.9207
11
42.0586
21
8.64611
0
LINE
8
Black
10
42.0586
20
8.64611
11
42.0586
21
8.35389
0
LINE
8
Black
10
42.0586
20
8.35389
11
41.9587
21
8.0793
0
LINE
8
Black
10
41.9587
20
8.0793
11
41.7708
21
7.85545
0
LINE
8
Black
10
41.7708
20
7.85545
11
41.5178
21
7.70934
0
LINE
8
Black
10
41.5178
20
7.70934
11
41.23
21
7.6586
0
LINE
8
Black
10
41.23
20
7.6586
11
40.9422
21
7.70934
0
LINE
8
Black
10
40.9422
20
7.70934
11
40.6892
21
7.85545
0
LINE
8
Black
10
40.6892
20
7.85545
11
40.5013
21
8.0793
0
LINE
8
Black
10
40.5013
20
8.0793
11
40.4014
21
8.35389
0
LINE
8
Black
10
40.4014
20
8.35389
11
40.4014
21
8.64611
0
LINE
8
Black
10
40.4014
20
8.64611
11
40.5013
21
8.9207
0
LINE
8
Black
10
40.5013
20
8.9207
11
40.6892
21
9.14455
0
LINE
8
Black
10
40.6892
20
9.14455
11
40.9422
21
9.29066
0
LINE
8
Black
10
40.9422
20
9.29066
11
41.23
21
9.3414
0
LINE
8
Black
10
41.23
20
9.3414
11
41.5178
21
9.29066
0
LINE
8
Black
10
45.8636
20
25.984
11
44.1364
21
25.984
0
LINE
8
Black
10
44.1364
20
25.984
11
44.1364
21
28.016
0
LINE
8
Black
10
44.1364
20
28.016
11
45.8636
21
28.016
0
LINE
8
Black
10
45.8636
20
28.016
11
45.8636
21
25.984
0
LINE
8
Black
10
47.0178
20
14.2907
11
47.2708
21
14.1446
0
LINE
8
Black
10
47.2708
20
14.1446
11
47.4587
21
13.9207
0
LINE
8
Black
10
47.4587
20
13.9207
11
47.5586
21
13.6461
0
LINE
8
Black
10
47.5586
20
13.6461
11
47.5586
21
13.3539
0
LINE
8
Black
10
47.5586
20
13.3539
11
47.4587
21
13.0793
0
LINE
8
Black
10
47.4587
20
13.0793
11
47.2708
21
12.8554
0
LINE
8
Black
10
47.2708
20
12.8554
11
47.0178
21
12.7093
0
LINE
8
Black
10
47.0178
20
12.7093
11
46.73
21
12.6586
0
LINE
8
Black
10
46.73
20
12.6586
11
46.4422
21
12.7093
0
LINE
8
Black
10
46.4422
20
12.7093
11
46.1892
21
12.8554
0
LINE
8
Black
10
46.1892
20
12.8554
11
46.0013
21
13.0793
0
LINE
8
Black
10
46.0013
20
13.0793
11
45.9014
21
13.3539
0
LINE
8
Black
10
45.9014
20
13.3539
11
45.9014
21
13.6461
0
LINE
8
Black
10
45.9014
20
13.6461
11
46.0013
21
13.9207
0
LINE
8
Black
10
46.0013
20
13.9207
11
46.1892
21
14.1446
0
LINE
8
Black
10
46.1892
20
14.1446
11
46.4422
21
14.2907
0
LINE
8
Black
10
46.4422
20
14.2907
11
46.73
21
14.3414
0
LINE
8
Black
10
46.73
20
14.3414
11
47.0178
21
14.2907
0
LINE
8
Black
10
21.2651
20
3.91134
11
21.246
21
3.91381
0
LINE
8
Black
10
21.246
20
3.91381
11
21.2434
21
3.91515
0
LINE
8
Black
10
21.2434
20
3.91515
11
21.2406
21
3.91566
0
LINE
8
Black
10
21.2406
20
3.91566
11
21.2239
21
3.92527
0
LINE
8
Black
10
21.2239
20
3.92527
11
21.2069
21
3.93411
0
LINE
8
Black
10
21.2069
20
3.93411
11
21.2049
21
3.93625
0
LINE
8
Black
10
21.2049
20
3.93625
11
21.2024
21
3.93771
0
LINE
8
Black
10
21.2024
20
3.93771
11
21.19
21
3.95244
0
LINE
8
Black
10
21.19
20
3.95244
11
21.177
21
3.96658
0
LINE
8
Black
10
21.177
20
3.96658
11
21.1759
21
3.96927
0
LINE
8
Black
10
21.1759
20
3.96927
11
21.174
21
3.9715
0
LINE
8
Black
10
21.174
20
3.9715
11
21.1674
21
3.98956
0
LINE
8
Black
10
21.1674
20
3.98956
11
21.1601
21
4.0073
0
LINE
8
Black
10
21.1601
20
4.0073
11
21.1599
21
4.01021
0
LINE
8
Black
10
21.1599
20
4.01021
11
21.1589
21
4.01295
0
LINE
8
Black
10
21.1589
20
4.01295
11
21.1589
21
4.03216
0
LINE
8
Black
10
21.1589
20
4.03216
11
21.1581
21
4.05136
0
LINE
8
Black
10
21.1581
20
4.05136
11
21.1589
21
4.05414
0
LINE
8
Black
10
21.1589
20
4.05414
11
21.1589
21
4.05705
0
LINE
8
Black
10
21.1589
20
4.05705
11
21.1655
21
4.0751
0
LINE
8
Black
10
21.1655
20
4.0751
11
21.1712
21
4.09345
0
LINE
8
Black
10
21.1712
20
4.09345
11
21.173
21
4.09576
0
LINE
8
Black
10
21.173
20
4.09576
11
21.174
21
4.0985
0
LINE
8
Black
10
21.174
20
4.0985
11
21.1864
21
4.11322
0
LINE
8
Black
10
21.1864
20
4.11322
11
21.198
21
4.12848
0
LINE
8
Black
10
21.198
20
4.12848
11
21.2005
21
4.13006
0
LINE
8
Black
10
21.2005
20
4.13006
11
21.2024
21
4.13229
0
LINE
8
Black
10
21.2024
20
4.13229
11
21.219
21
4.1419
0
LINE
8
Black
10
21.219
20
4.1419
11
21.2352
21
4.15225
0
LINE
8
Black
10
21.2352
20
4.15225
11
21.238
21
4.15288
0
LINE
8
Black
10
21.238
20
4.15288
11
21.2406
21
4.15434
0
LINE
8
Black
10
21.2406
20
4.15434
11
21.2595
21
4.15768
0
LINE
8
Black
10
21.2595
20
4.15768
11
21.2782
21
4.16187
0
LINE
8
Black
10
21.2782
20
4.16187
11
21.4015
21
4.16747
0
LINE
8
Black
10
21.4015
20
4.16747
11
21.7437
21
4.30918
0
LINE
8
Black
10
21.7437
20
4.30918
11
21.7815
21
4.42927
0
LINE
8
Black
10
21.7815
20
4.42927
11
21.4489
21
4.76193
0
LINE
8
Black
10
21.4489
20
4.76193
11
21.3578
21
4.70934
0
LINE
8
Black
10
21.3578
20
4.70934
11
21.07
21
4.6586
0
LINE
8
Black
10
21.07
20
4.6586
11
20.7822
21
4.70934
0
LINE
8
Black
10
20.7822
20
4.70934
11
20.6911
21
4.76193
0
LINE
8
Black
10
20.6911
20
4.76193
11
20.3585
21
4.42927
0
LINE
8
Black
10
20.3585
20
4.42927
11
20.3953
21
4.31256
0
LINE
8
Black
10
20.3953
20
4.31256
11
20.8321
21
4.15442
0
LINE
8
Black
10
20.8321
20
4.15442
11
20.8322
21
4.15436
0
LINE
8
Black
10
20.8322
20
4.15436
11
20.8323
21
4.15434
0
LINE
8
Black
10
20.8323
20
4.15434
11
20.8513
21
4.1434
0
LINE
8
Black
10
20.8513
20
4.1434
11
20.8704
21
4.13243
0
LINE
8
Black
10
20.8704
20
4.13243
11
20.8704
21
4.13234
0
LINE
8
Black
10
20.8704
20
4.13234
11
20.8705
21
4.13229
0
LINE
8
Black
10
20.8705
20
4.13229
11
20.8845
21
4.1156
0
LINE
8
Black
10
20.8845
20
4.1156
11
20.8988
21
4.09869
0
LINE
8
Black
10
20.8988
20
4.09869
11
20.8988
21
4.09859
0
LINE
8
Black
10
20.8988
20
4.09859
11
20.8989
21
4.0985
0
LINE
8
Black
10
20.8989
20
4.0985
11
20.9064
21
4.07788
0
LINE
8
Black
10
20.9064
20
4.07788
11
20.9139
21
4.05727
0
LINE
8
Black
10
20.9139
20
4.05727
11
20.9139
21
4.05716
0
LINE
8
Black
10
20.9139
20
4.05716
11
20.914
21
4.05705
0
LINE
8
Black
10
20.914
20
4.05705
11
20.914
21
4.03493
0
LINE
8
Black
10
20.914
20
4.03493
11
20.914
21
4.01317
0
LINE
8
Black
10
20.914
20
4.01317
11
20.914
21
4.01306
0
LINE
8
Black
10
20.914
20
4.01306
11
20.914
21
4.01295
0
LINE
8
Black
10
20.914
20
4.01295
11
20.9066
21
3.99262
0
LINE
8
Black
10
20.9066
20
3.99262
11
20.899
21
3.97169
0
LINE
8
Black
10
20.899
20
3.97169
11
20.8989
21
3.9716
0
LINE
8
Black
10
20.8989
20
3.9716
11
20.8989
21
3.9715
0
LINE
8
Black
10
20.8989
20
3.9715
11
20.885
21
3.95493
0
LINE
8
Black
10
20.885
20
3.95493
11
20.8707
21
3.93786
0
LINE
8
Black
10
20.8707
20
3.93786
11
20.8706
21
3.9378
0
LINE
8
Black
10
20.8706
20
3.9378
11
20.8705
21
3.93771
0
LINE
8
Black
10
20.8705
20
3.93771
11
20.8515
21
3.9267
0
LINE
8
Black
10
20.8515
20
3.9267
11
20.8326
21
3.91574
0
LINE
8
Black
10
20.8326
20
3.91574
11
20.8324
21
3.91572
0
LINE
8
Black
10
20.8324
20
3.91572
11
20.8323
21
3.91566
0
LINE
8
Black
10
20.8323
20
3.91566
11
20.8108
21
3.91186
0
LINE
8
Black
10
20.8108
20
3.91186
11
20.7891
21
3.908
0
LINE
8
Black
10
20.7891
20
3.908
11
20.789
21
3.90802
0
LINE
8
Black
10
20.789
20
3.90802
11
20.7889
21
3.908
0
LINE
8
Black
10
20.7889
20
3.908
11
19.9125
21
3.908
0
LINE
8
Black
10
19.9125
20
3.908
11
19.63
21
3.85181
0
LINE
8
Black
10
19.63
20
3.85181
11
19.3905
21
3.69179
0
LINE
8
Black
10
19.3905
20
3.69179
11
18.2439
21
2.5452
0
LINE
8
Black
10
18.2439
20
2.5452
11
18.2394
21
2.54199
0
LINE
8
Black
10
18.2394
20
2.54199
11
18.2358
21
2.53771
0
LINE
8
Black
10
18.2358
20
2.53771
11
18.2214
21
2.52942
0
LINE
8
Black
10
18.2214
20
2.52942
11
18.2078
21
2.5199
0
LINE
8
Black
10
18.2078
20
2.5199
11
18.2024
21
2.51845
0
LINE
8
Black
10
18.2024
20
2.51845
11
18.1976
21
2.51566
0
LINE
8
Black
10
18.1976
20
2.51566
11
18.1812
21
2.51278
0
LINE
8
Black
10
18.1812
20
2.51278
11
18.1652
21
2.50848
0
LINE
8
Black
10
18.1652
20
2.50848
11
18.1596
21
2.50897
0
LINE
8
Black
10
18.1596
20
2.50897
11
18.1541
21
2.508
0
LINE
8
Black
10
18.1541
20
2.508
11
13.6125
21
2.508
0
LINE
8
Black
10
13.6125
20
2.508
11
13.33
21
2.45181
0
LINE
8
Black
10
13.33
20
2.45181
11
13.0905
21
2.29179
0
LINE
8
Black
10
13.0905
20
2.29179
11
12.8249
21
2.02617
0
LINE
8
Black
10
12.8249
20
2.02617
11
12.8113
21
2.01662
0
LINE
8
Black
10
12.8113
20
2.01662
11
12.7985
21
2.00593
0
LINE
8
Black
10
12.7985
20
2.00593
11
12.7933
21
2.00404
0
LINE
8
Black
10
12.7933
20
2.00404
11
12.7888
21
2.00087
0
LINE
8
Black
10
12.7888
20
2.00087
11
12.7727
21
1.99656
0
LINE
8
Black
10
12.7727
20
1.99656
11
12.757
21
1.99088
0
LINE
8
Black
10
12.757
20
1.99088
11
12.7515
21
1.99089
0
LINE
8
Black
10
12.7515
20
1.99089
11
12.7462
21
1.98945
0
LINE
8
Black
10
12.7462
20
1.98945
11
12.7296
21
1.9909
0
LINE
8
Black
10
12.7296
20
1.9909
11
12.7129
21
1.99092
0
LINE
8
Black
10
12.7129
20
1.99092
11
12.7077
21
1.99282
0
LINE
8
Black
10
12.7077
20
1.99282
11
12.7022
21
1.9933
0
LINE
8
Black
10
12.7022
20
1.9933
11
12.6871
21
2.00033
0
LINE
8
Black
10
12.6871
20
2.00033
11
12.6715
21
2.00604
0
LINE
8
Black
10
12.6715
20
2.00604
11
12.6673
21
2.0096
0
LINE
8
Black
10
12.6673
20
2.0096
11
12.6623
21
2.01194
0
LINE
8
Black
10
12.6623
20
2.01194
11
12.6505
21
2.02371
0
LINE
8
Black
10
12.6505
20
2.02371
11
12.6377
21
2.03442
0
LINE
8
Black
10
12.6377
20
2.03442
11
12.635
21
2.03921
0
LINE
8
Black
10
12.635
20
2.03921
11
12.6311
21
2.04313
0
LINE
8
Black
10
12.6311
20
2.04313
11
12.624
21
2.05822
0
LINE
8
Black
10
12.624
20
2.05822
11
12.6157
21
2.07264
0
LINE
8
Black
10
12.6157
20
2.07264
11
12.6148
21
2.07809
0
LINE
8
Black
10
12.6148
20
2.07809
11
12.6124
21
2.0831
0
LINE
8
Black
10
12.6124
20
2.0831
11
12.611
21
2.09968
0
LINE
8
Black
10
12.611
20
2.09968
11
12.6081
21
2.11608
0
LINE
8
Black
10
12.6081
20
2.11608
11
12.6081
21
2.16002
0
LINE
8
Black
10
12.6081
20
2.16002
11
12.4854
21
2.4571
0
LINE
8
Black
10
12.4854
20
2.4571
11
12.2583
21
2.68459
0
LINE
8
Black
10
12.2583
20
2.68459
11
12.0394
21
2.77549
0
LINE
8
Black
10
12.0394
20
2.77549
11
12.0371
21
2.77697
0
LINE
8
Black
10
12.0371
20
2.77697
11
12.0344
21
2.77768
0
LINE
8
Black
10
12.0344
20
2.77768
11
12.0185
21
2.78879
0
LINE
8
Black
10
12.0185
20
2.78879
11
12.0022
21
2.79922
0
LINE
8
Black
10
12.0022
20
2.79922
11
12.0005
21
2.8014
0
LINE
8
Black
10
12.0005
20
2.8014
11
11.9983
21
2.80298
0
LINE
8
Black
10
11.9983
20
2.80298
11
9.60947
21
5.19179
0
LINE
8
Black
10
9.60947
20
5.19179
11
9.36999
21
5.35181
0
LINE
8
Black
10
9.36999
20
5.35181
11
9.08749
21
5.408
0
LINE
8
Black
10
9.08749
20
5.408
11
4.54587
21
5.408
0
LINE
8
Black
10
4.54587
20
5.408
11
4.54037
21
5.40897
0
LINE
8
Black
10
4.54037
20
5.40897
11
4.5348
21
5.40848
0
LINE
8
Black
10
4.5348
20
5.40848
11
4.51877
21
5.41278
0
LINE
8
Black
10
4.51877
20
5.41278
11
4.50243
21
5.41566
0
LINE
8
Black
10
4.50243
20
5.41566
11
4.49759
21
5.41845
0
LINE
8
Black
10
4.49759
20
5.41845
11
4.4922
21
5.4199
0
LINE
8
Black
10
4.4922
20
5.4199
11
4.47861
21
5.42942
0
LINE
8
Black
10
4.47861
20
5.42942
11
4.46423
21
5.43771
0
LINE
8
Black
10
4.46423
20
5.43771
11
4.46064
21
5.44199
0
LINE
8
Black
10
4.46064
20
5.44199
11
4.45607
21
5.4452
0
LINE
8
Black
10
4.45607
20
5.4452
11
2.3952
21
7.50607
0
LINE
8
Black
10
2.3952
20
7.50607
11
2.39199
21
7.51064
0
LINE
8
Black
10
2.39199
20
7.51064
11
2.38771
21
7.51423
0
LINE
8
Black
10
2.38771
20
7.51423
11
2.37941
21
7.52861
0
LINE
8
Black
10
2.37941
20
7.52861
11
2.3699
21
7.5422
0
LINE
8
Black
10
2.3699
20
7.5422
11
2.36845
21
7.54759
0
LINE
8
Black
10
2.36845
20
7.54759
11
2.36566
21
7.55243
0
LINE
8
Black
10
2.36566
20
7.55243
11
2.36278
21
7.56877
0
LINE
8
Black
10
2.36278
20
7.56877
11
2.35848
21
7.5848
0
LINE
8
Black
10
2.35848
20
7.5848
11
2.35897
21
7.59037
0
LINE
8
Black
10
2.35897
20
7.59037
11
2.358
21
7.59587
0
LINE
8
Black
10
2.358
20
7.59587
11
2.358
21
9.33749
0
LINE
8
Black
10
2.358
20
9.33749
11
2.35749
21
9.34006
0
LINE
8
Black
10
2.35749
20
9.34006
11
2.35746
21
9.34153
0
LINE
8
Black
10
2.35746
20
9.34153
11
2.35696
21
9.34291
0
LINE
8
Black
10
2.35696
20
9.34291
11
2.35697
21
9.36356
0
LINE
8
Black
10
2.35697
20
9.36356
11
2.35652
21
9.38415
0
LINE
8
Black
10
2.35652
20
9.38415
11
2.357
21
9.38554
0
LINE
8
Black
10
2.357
20
9.38554
11
2.357
21
9.38701
0
LINE
8
Black
10
2.357
20
9.38701
11
2.36407
21
9.4064
0
LINE
8
Black
10
2.36407
20
9.4064
11
2.3707
21
9.42592
0
LINE
8
Black
10
2.3707
20
9.42592
11
2.37162
21
9.42707
0
LINE
8
Black
10
2.37162
20
9.42707
11
2.37212
21
9.42845
0
LINE
8
Black
10
2.37212
20
9.42845
11
2.38539
21
9.44423
0
LINE
8
Black
10
2.38539
20
9.44423
11
2.3983
21
9.46032
0
LINE
8
Black
10
2.3983
20
9.46032
11
2.39956
21
9.46108
0
LINE
8
Black
10
2.39956
20
9.46108
11
2.40051
21
9.46221
0
LINE
8
Black
10
2.40051
20
9.46221
11
2.41837
21
9.4725
0
LINE
8
Black
10
2.41837
20
9.4725
11
2.43601
21
9.4832
0
LINE
8
Black
10
2.43601
20
9.4832
11
2.43745
21
9.48349
0
LINE
8
Black
10
2.43745
20
9.48349
11
2.43873
21
9.48422
0
LINE
8
Black
10
2.43873
20
9.48422
11
2.44361
21
9.48508
0
LINE
8
Black
10
2.44361
20
9.48508
11
2.7571
21
9.61461
0
LINE
8
Black
10
2.7571
20
9.61461
11
2.98459
21
9.84171
0
LINE
8
Black
10
2.98459
20
9.84171
11
3.07549
21
10.0606
0
LINE
8
Black
10
3.07549
20
10.0606
11
3.07697
21
10.0629
0
LINE
8
Black
10
3.07697
20
10.0629
11
3.07768
21
10.0656
0
LINE
8
Black
10
3.07768
20
10.0656
11
3.0888
21
10.0815
0
LINE
8
Black
10
3.0888
20
10.0815
11
3.09922
21
10.0978
0
LINE
8
Black
10
3.09922
20
10.0978
11
3.1014
21
10.0995
0
LINE
8
Black
10
3.1014
20
10.0995
11
3.10298
21
10.1017
0
LINE
8
Black
10
3.10298
20
10.1017
11
6.10063
21
13.0994
0
LINE
8
Black
10
6.10063
20
13.0994
11
9.45607
21
16.4548
0
LINE
8
Black
10
9.45607
20
16.4548
11
9.46064
21
16.458
0
LINE
8
Black
10
9.46064
20
16.458
11
9.46423
21
16.4623
0
LINE
8
Black
10
9.46423
20
16.4623
11
9.47861
21
16.4706
0
LINE
8
Black
10
9.47861
20
16.4706
11
9.4922
21
16.4801
0
LINE
8
Black
10
9.4922
20
16.4801
11
9.49759
21
16.4815
0
LINE
8
Black
10
9.49759
20
16.4815
11
9.50243
21
16.4843
0
LINE
8
Black
10
9.50243
20
16.4843
11
9.51877
21
16.4872
0
LINE
8
Black
10
9.51877
20
16.4872
11
9.5348
21
16.4915
0
LINE
8
Black
10
9.5348
20
16.4915
11
9.54037
21
16.491
0
LINE
8
Black
10
9.54037
20
16.491
11
9.54587
21
16.492
0
LINE
8
Black
10
9.54587
20
16.492
11
14.2875
21
16.492
0
LINE
8
Black
10
14.2875
20
16.492
11
14.57
21
16.5482
0
LINE
8
Black
10
14.57
20
16.5482
11
14.8095
21
16.7082
0
LINE
8
Black
10
14.8095
20
16.7082
11
17.5102
21
19.4089
0
LINE
8
Black
10
17.5102
20
19.4089
11
17.5193
21
19.4153
0
LINE
8
Black
10
17.5193
20
19.4153
11
17.5272
21
19.4232
0
LINE
8
Black
10
17.5272
20
19.4232
11
17.5372
21
19.4279
0
LINE
8
Black
10
17.5372
20
19.4279
11
17.5463
21
19.4342
0
LINE
8
Black
10
17.5463
20
19.4342
11
17.5571
21
19.4371
0
LINE
8
Black
10
17.5571
20
19.4371
11
17.5671
21
19.4418
0
LINE
8
Black
10
17.5671
20
19.4418
11
17.5782
21
19.4428
0
LINE
8
Black
10
17.5782
20
19.4428
11
17.5889
21
19.4456
0
LINE
8
Black
10
17.5889
20
19.4456
11
17.6
21
19.4447
0
LINE
8
Black
10
17.6
20
19.4447
11
17.6111
21
19.4456
0
LINE
8
Black
10
17.6111
20
19.4456
11
17.6218
21
19.4428
0
LINE
8
Black
10
17.6218
20
19.4428
11
17.6329
21
19.4418
0
LINE
8
Black
10
17.6329
20
19.4418
11
17.6429
21
19.4371
0
LINE
8
Black
10
17.6429
20
19.4371
11
17.6537
21
19.4342
0
LINE
8
Black
10
17.6537
20
19.4342
11
17.6628
21
19.4279
0
LINE
8
Black
10
17.6628
20
19.4279
11
17.6728
21
19.4232
0
LINE
8
Black
10
17.6728
20
19.4232
11
17.6807
21
19.4153
0
LINE
8
Black
10
17.6807
20
19.4153
11
17.6898
21
19.4089
0
LINE
8
Black
10
17.6898
20
19.4089
11
19.9548
21
17.1439
0
LINE
8
Black
10
19.9548
20
17.1439
11
19.958
21
17.1394
0
LINE
8
Black
10
19.958
20
17.1394
11
19.9623
21
17.1358
0
LINE
8
Black
10
19.9623
20
17.1358
11
19.9706
21
17.1214
0
LINE
8
Black
10
19.9706
20
17.1214
11
19.9801
21
17.1078
0
LINE
8
Black
10
19.9801
20
17.1078
11
19.9815
21
17.1024
0
LINE
8
Black
10
19.9815
20
17.1024
11
19.9843
21
17.0976
0
LINE
8
Black
10
19.9843
20
17.0976
11
19.9872
21
17.0812
0
LINE
8
Black
10
19.9872
20
17.0812
11
19.9915
21
17.0652
0
LINE
8
Black
10
19.9915
20
17.0652
11
19.991
21
17.0596
0
LINE
8
Black
10
19.991
20
17.0596
11
19.992
21
17.0541
0
LINE
8
Black
10
19.992
20
17.0541
11
19.992
21
13.0272
0
LINE
8
Black
10
19.992
20
13.0272
11
19.9915
21
13.0244
0
LINE
8
Black
10
19.9915
20
13.0244
11
19.9919
21
13.0216
0
LINE
8
Black
10
19.9919
20
13.0216
11
19.9877
21
13.0028
0
LINE
8
Black
10
19.9877
20
13.0028
11
19.9843
21
12.9838
0
LINE
8
Black
10
19.9843
20
12.9838
11
19.9829
21
12.9813
0
LINE
8
Black
10
19.9829
20
12.9813
11
19.9823
21
12.9785
0
LINE
8
Black
10
19.9823
20
12.9785
11
19.8921
21
12.7614
0
LINE
8
Black
10
19.8921
20
12.7614
11
19.8919
21
12.44
0
LINE
8
Black
10
19.8919
20
12.44
11
19.9824
21
12.2209
0
LINE
8
Black
10
19.9824
20
12.2209
11
19.983
21
12.2182
0
LINE
8
Black
10
19.983
20
12.2182
11
19.9843
21
12.2159
0
LINE
8
Black
10
19.9843
20
12.2159
11
19.9877
21
12.1968
0
LINE
8
Black
10
19.9877
20
12.1968
11
19.9919
21
12.1779
0
LINE
8
Black
10
19.9919
20
12.1779
11
19.9915
21
12.1751
0
LINE
8
Black
10
19.9915
20
12.1751
11
19.992
21
12.1724
0
LINE
8
Black
10
19.992
20
12.1724
11
19.992
21
10.8272
0
LINE
8
Black
10
19.992
20
10.8272
11
19.9915
21
10.8244
0
LINE
8
Black
10
19.9915
20
10.8244
11
19.9919
21
10.8216
0
LINE
8
Black
10
19.9919
20
10.8216
11
19.9877
21
10.8028
0
LINE
8
Black
10
19.9877
20
10.8028
11
19.9843
21
10.7838
0
LINE
8
Black
10
19.9843
20
10.7838
11
19.9829
21
10.7813
0
LINE
8
Black
10
19.9829
20
10.7813
11
19.9823
21
10.7785
0
LINE
8
Black
10
19.9823
20
10.7785
11
19.8921
21
10.5614
0
LINE
8
Black
10
19.8921
20
10.5614
11
19.8919
21
10.24
0
LINE
8
Black
10
19.8919
20
10.24
11
19.9824
21
10.0209
0
LINE
8
Black
10
19.9824
20
10.0209
11
19.983
21
10.0182
0
LINE
8
Black
10
19.983
20
10.0182
11
19.9843
21
10.0159
0
LINE
8
Black
10
19.9843
20
10.0159
11
19.9877
21
9.99677
0
LINE
8
Black
10
19.9877
20
9.99677
11
19.9919
21
9.97785
0
LINE
8
Black
10
19.9919
20
9.97785
11
19.9915
21
9.97513
0
LINE
8
Black
10
19.9915
20
9.97513
11
19.992
21
9.97242
0
LINE
8
Black
10
19.992
20
9.97242
11
19.992
21
8.41251
0
LINE
8
Black
10
19.992
20
8.41251
11
20.0482
21
8.13001
0
LINE
8
Black
10
20.0482
20
8.13001
11
20.2082
21
7.89053
0
LINE
8
Black
10
20.2082
20
7.89053
11
20.8973
21
7.20147
0
LINE
8
Black
10
20.8973
20
7.20147
11
20.8989
21
7.19913
0
LINE
8
Black
10
20.8989
20
7.19913
11
20.9012
21
7.19739
0
LINE
8
Black
10
20.9012
20
7.19739
11
20.9115
21
7.18112
0
LINE
8
Black
10
20.9115
20
7.18112
11
20.9226
21
7.16534
0
LINE
8
Black
10
20.9226
20
7.16534
11
20.9233
21
7.16258
0
LINE
8
Black
10
20.9233
20
7.16258
11
20.9248
21
7.16017
0
LINE
8
Black
10
20.9248
20
7.16017
11
20.9852
21
7.01404
0
LINE
8
Black
10
20.9852
20
7.01404
11
20.9876
21
7.00335
0
LINE
8
Black
10
20.9876
20
7.00335
11
20.9918
21
6.99324
0
LINE
8
Black
10
20.9918
20
6.99324
11
20.9923
21
6.98198
0
LINE
8
Black
10
20.9923
20
6.98198
11
20.9947
21
6.97097
0
LINE
8
Black
10
20.9947
20
6.97097
11
20.9933
21
6.96011
0
LINE
8
Black
10
20.9933
20
6.96011
11
20.9938
21
6.94918
0
LINE
8
Black
10
20.9938
20
6.94918
11
20.9904
21
6.93843
0
LINE
8
Black
10
20.9904
20
6.93843
11
20.9889
21
6.92724
0
LINE
8
Black
10
20.9889
20
6.92724
11
20.9839
21
6.91753
0
LINE
8
Black
10
20.9839
20
6.91753
11
20.9806
21
6.90709
0
LINE
8
Black
10
20.9806
20
6.90709
11
20.9737
21
6.89814
0
LINE
8
Black
10
20.9737
20
6.89814
11
20.9685
21
6.88814
0
LINE
8
Black
10
20.9685
20
6.88814
11
20.9605
21
6.88075
0
LINE
8
Black
10
20.9605
20
6.88075
11
20.9538
21
6.87205
0
LINE
8
Black
10
20.9538
20
6.87205
11
20.9443
21
6.86598
0
LINE
8
Black
10
20.9443
20
6.86598
11
20.936
21
6.85837
0
LINE
8
Black
10
20.936
20
6.85837
11
20.9259
21
6.85419
0
LINE
8
Black
10
20.9259
20
6.85419
11
20.9167
21
6.84829
0
LINE
8
Black
10
20.9167
20
6.84829
11
20.9057
21
6.84583
0
LINE
8
Black
10
20.9057
20
6.84583
11
20.8952
21
6.84152
0
LINE
8
Black
10
20.8952
20
6.84152
11
20.8843
21
6.84106
0
LINE
8
Black
10
20.8843
20
6.84106
11
20.8736
21
6.83867
0
LINE
8
Black
10
20.8736
20
6.83867
11
20.7385
21
6.83253
0
LINE
8
Black
10
20.7385
20
6.83253
11
20.3963
21
6.69082
0
LINE
8
Black
10
20.3963
20
6.69082
11
20.3585
21
6.57073
0
LINE
8
Black
10
20.3585
20
6.57073
11
20.6911
21
6.23807
0
LINE
8
Black
10
20.6911
20
6.23807
11
20.7822
21
6.29066
0
LINE
8
Black
10
20.7822
20
6.29066
11
21.07
21
6.3414
0
LINE
8
Black
10
21.07
20
6.3414
11
21.3578
21
6.29066
0
LINE
8
Black
10
21.3578
20
6.29066
11
21.4489
21
6.23807
0
LINE
8
Black
10
21.4489
20
6.23807
11
21.7655
21
6.55467
0
LINE
8
Black
10
21.7655
20
6.55467
11
21.7701
21
6.55791
0
LINE
8
Black
10
21.7701
20
6.55791
11
21.7737
21
6.56223
0
LINE
8
Black
10
21.7737
20
6.56223
11
21.788
21
6.57048
0
LINE
8
Black
10
21.788
20
6.57048
11
21.8016
21
6.57997
0
LINE
8
Black
10
21.8016
20
6.57997
11
21.807
21
6.58143
0
LINE
8
Black
10
21.807
20
6.58143
11
21.8119
21
6.58425
0
LINE
8
Black
10
21.8119
20
6.58425
11
21.8282
21
6.5871
0
LINE
8
Black
10
21.8282
20
6.5871
11
21.8442
21
6.59138
0
LINE
8
Black
10
21.8442
20
6.59138
11
21.8498
21
6.59089
0
LINE
8
Black
10
21.8498
20
6.59089
11
21.8554
21
6.59187
0
LINE
8
Black
10
21.8554
20
6.59187
11
21.86
21
6.59186
0
LINE
8
Black
10
21.86
20
6.59186
11
21.8924
21
6.60524
0
LINE
8
Black
10
21.8924
20
6.60524
11
22.3
21
7.01284
0
LINE
8
Black
10
22.3
20
7.01284
11
22.3
21
7.94264
0
LINE
8
Black
10
22.3
20
7.94264
11
22.1583
21
8.08459
0
LINE
8
Black
10
22.1583
20
8.08459
11
21.9394
21
8.17549
0
LINE
8
Black
10
21.9394
20
8.17549
11
21.9371
21
8.17697
0
LINE
8
Black
10
21.9371
20
8.17697
11
21.9344
21
8.17768
0
LINE
8
Black
10
21.9344
20
8.17768
11
21.9185
21
8.1888
0
LINE
8
Black
10
21.9185
20
8.1888
11
21.9022
21
8.19922
0
LINE
8
Black
10
21.9022
20
8.19922
11
21.9005
21
8.2014
0
LINE
8
Black
10
21.9005
20
8.2014
11
21.8983
21
8.20298
0
LINE
8
Black
10
21.8983
20
8.20298
11
21.4452
21
8.65607
0
LINE
8
Black
10
21.4452
20
8.65607
11
21.442
21
8.66064
0
LINE
8
Black
10
21.442
20
8.66064
11
21.4377
21
8.66423
0
LINE
8
Black
10
21.4377
20
8.66423
11
21.4294
21
8.67861
0
LINE
8
Black
10
21.4294
20
8.67861
11
21.4199
21
8.6922
0
LINE
8
Black
10
21.4199
20
8.6922
11
21.4185
21
8.69759
0
LINE
8
Black
10
21.4185
20
8.69759
11
21.4157
21
8.70243
0
LINE
8
Black
10
21.4157
20
8.70243
11
21.4128
21
8.71877
0
LINE
8
Black
10
21.4128
20
8.71877
11
21.4085
21
8.7348
0
LINE
8
Black
10
21.4085
20
8.7348
11
21.409
21
8.74037
0
LINE
8
Black
10
21.409
20
8.74037
11
21.408
21
8.74587
0
LINE
8
Black
10
21.408
20
8.74587
11
21.408
21
9.97277
0
LINE
8
Black
10
21.408
20
9.97277
11
21.4085
21
9.97558
0
LINE
8
Black
10
21.4085
20
9.97558
11
21.4081
21
9.97842
0
LINE
8
Black
10
21.4081
20
9.97842
11
21.4123
21
9.99722
0
LINE
8
Black
10
21.4123
20
9.99722
11
21.4157
21
10.0162
0
LINE
8
Black
10
21.4157
20
10.0162
11
21.4171
21
10.0187
0
LINE
8
Black
10
21.4171
20
10.0187
11
21.4177
21
10.0215
0
LINE
8
Black
10
21.4177
20
10.0215
11
21.5079
21
10.2386
0
LINE
8
Black
10
21.5079
20
10.2386
11
21.5081
21
10.56
0
LINE
8
Black
10
21.5081
20
10.56
11
21.4176
21
10.7791
0
LINE
8
Black
10
21.4176
20
10.7791
11
21.417
21
10.7818
0
LINE
8
Black
10
21.417
20
10.7818
11
21.4157
21
10.7841
0
LINE
8
Black
10
21.4157
20
10.7841
11
21.4123
21
10.8032
0
LINE
8
Black
10
21.4123
20
10.8032
11
21.4081
21
10.8222
0
LINE
8
Black
10
21.4081
20
10.8222
11
21.4085
21
10.8249
0
LINE
8
Black
10
21.4085
20
10.8249
11
21.408
21
10.8276
0
LINE
8
Black
10
21.408
20
10.8276
11
21.408
21
12.1728
0
LINE
8
Black
10
21.408
20
12.1728
11
21.4085
21
12.1756
0
LINE
8
Black
10
21.4085
20
12.1756
11
21.4081
21
12.1784
0
LINE
8
Black
10
21.4081
20
12.1784
11
21.4123
21
12.1972
0
LINE
8
Black
10
21.4123
20
12.1972
11
21.4157
21
12.2162
0
LINE
8
Black
10
21.4157
20
12.2162
11
21.4171
21
12.2187
0
LINE
8
Black
10
21.4171
20
12.2187
11
21.4177
21
12.2215
0
LINE
8
Black
10
21.4177
20
12.2215
11
21.5079
21
12.4386
0
LINE
8
Black
10
21.5079
20
12.4386
11
21.5081
21
12.76
0
LINE
8
Black
10
21.5081
20
12.76
11
21.4176
21
12.9791
0
LINE
8
Black
10
21.4176
20
12.9791
11
21.417
21
12.9818
0
LINE
8
Black
10
21.417
20
12.9818
11
21.4157
21
12.9841
0
LINE
8
Black
10
21.4157
20
12.9841
11
21.4123
21
13.0032
0
LINE
8
Black
10
21.4123
20
13.0032
11
21.4081
21
13.0222
0
LINE
8
Black
10
21.4081
20
13.0222
11
21.4085
21
13.0249
0
LINE
8
Black
10
21.4085
20
13.0249
11
21.408
21
13.0276
0
LINE
8
Black
10
21.408
20
13.0276
11
21.408
21
17.3875
0
LINE
8
Black
10
21.408
20
17.3875
11
21.3518
21
17.67
0
LINE
8
Black
10
21.3518
20
17.67
11
21.1918
21
17.9095
0
LINE
8
Black
10
21.1918
20
17.9095
11
18.5452
21
20.5561
0
LINE
8
Black
10
18.5452
20
20.5561
11
18.542
21
20.5606
0
LINE
8
Black
10
18.542
20
20.5606
11
18.5377
21
20.5642
0
LINE
8
Black
10
18.5377
20
20.5642
11
18.5294
21
20.5786
0
LINE
8
Black
10
18.5294
20
20.5786
11
18.5199
21
20.5922
0
LINE
8
Black
10
18.5199
20
20.5922
11
18.5185
21
20.5976
0
LINE
8
Black
10
18.5185
20
20.5976
11
18.5157
21
20.6024
0
LINE
8
Black
10
18.5157
20
20.6024
11
18.5128
21
20.6188
0
LINE
8
Black
10
18.5128
20
20.6188
11
18.5085
21
20.6348
0
LINE
8
Black
10
18.5085
20
20.6348
11
18.509
21
20.6404
0
LINE
8
Black
10
18.509
20
20.6404
11
18.508
21
20.6459
0
LINE
8
Black
10
18.508
20
20.6459
11
18.508
21
22.7875
0
LINE
8
Black
10
18.508
20
22.7875
11
18.4518
21
23.07
0
LINE
8
Black
10
18.4518
20
23.07
11
18.2918
21
23.3095
0
LINE
8
Black
10
18.2918
20
23.3095
11
18.0027
21
23.5985
0
LINE
8
Black
10
18.0027
20
23.5985
11
18.0011
21
23.6009
0
LINE
8
Black
10
18.0011
20
23.6009
11
17.9988
21
23.6026
0
LINE
8
Black
10
17.9988
20
23.6026
11
17.9885
21
23.6189
0
LINE
8
Black
10
17.9885
20
23.6189
11
17.9774
21
23.6347
0
LINE
8
Black
10
17.9774
20
23.6347
11
17.9767
21
23.6374
0
LINE
8
Black
10
17.9767
20
23.6374
11
17.9752
21
23.6398
0
LINE
8
Black
10
17.9752
20
23.6398
11
17.8854
21
23.8571
0
LINE
8
Black
10
17.8854
20
23.8571
11
17.6583
21
24.0846
0
LINE
8
Black
10
17.6583
20
24.0846
11
17.3614
21
24.2079
0
LINE
8
Black
10
17.3614
20
24.2079
11
17.04
21
24.2081
0
LINE
8
Black
10
17.04
20
24.2081
11
16.7429
21
24.0854
0
LINE
8
Black
10
16.7429
20
24.0854
11
16.5154
21
23.8583
0
LINE
8
Black
10
16.5154
20
23.8583
11
16.3921
21
23.5614
0
LINE
8
Black
10
16.3921
20
23.5614
11
16.3919
21
23.24
0
LINE
8
Black
10
16.3919
20
23.24
11
16.4824
21
23.0209
0
LINE
8
Black
10
16.4824
20
23.0209
11
16.483
21
23.0182
0
LINE
8
Black
10
16.483
20
23.0182
11
16.4843
21
23.0159
0
LINE
8
Black
10
16.4843
20
23.0159
11
16.4877
21
22.9968
0
LINE
8
Black
10
16.4877
20
22.9968
11
16.4919
21
22.9779
0
LINE
8
Black
10
16.4919
20
22.9779
11
16.4915
21
22.9751
0
LINE
8
Black
10
16.4915
20
22.9751
11
16.492
21
22.9724
0
LINE
8
Black
10
16.492
20
22.9724
11
16.492
21
20.4459
0
LINE
8
Black
10
16.492
20
20.4459
11
16.491
21
20.4404
0
LINE
8
Black
10
16.491
20
20.4404
11
16.4915
21
20.4348
0
LINE
8
Black
10
16.4915
20
20.4348
11
16.4872
21
20.4188
0
LINE
8
Black
10
16.4872
20
20.4188
11
16.4843
21
20.4024
0
LINE
8
Black
10
16.4843
20
20.4024
11
16.4815
21
20.3976
0
LINE
8
Black
10
16.4815
20
20.3976
11
16.4801
21
20.3922
0
LINE
8
Black
10
16.4801
20
20.3922
11
16.4706
21
20.3786
0
LINE
8
Black
10
16.4706
20
20.3786
11
16.4623
21
20.3642
0
LINE
8
Black
10
16.4623
20
20.3642
11
16.458
21
20.3606
0
LINE
8
Black
10
16.458
20
20.3606
11
16.4548
21
20.3561
0
LINE
8
Black
10
16.4548
20
20.3561
11
14.0439
21
17.9452
0
LINE
8
Black
10
14.0439
20
17.9452
11
14.0394
21
17.942
0
LINE
8
Black
10
14.0394
20
17.942
11
14.0358
21
17.9377
0
LINE
8
Black
10
14.0358
20
17.9377
11
14.0214
21
17.9294
0
LINE
8
Black
10
14.0214
20
17.9294
11
14.0078
21
17.9199
0
LINE
8
Black
10
14.0078
20
17.9199
11
14.0024
21
17.9185
0
LINE
8
Black
10
14.0024
20
17.9185
11
13.9976
21
17.9157
0
LINE
8
Black
10
13.9976
20
17.9157
11
13.9812
21
17.9128
0
LINE
8
Black
10
13.9812
20
17.9128
11
13.9652
21
17.9085
0
LINE
8
Black
10
13.9652
20
17.9085
11
13.9596
21
17.909
0
LINE
8
Black
10
13.9596
20
17.909
11
13.9541
21
17.908
0
LINE
8
Black
10
13.9541
20
17.908
11
9.21251
21
17.908
0
LINE
8
Black
10
9.21251
20
17.908
11
8.93001
21
17.8518
0
LINE
8
Black
10
8.93001
20
17.8518
11
8.69052
21
17.6918
0
LINE
8
Black
10
8.69052
20
17.6918
11
5.2
21
14.2013
0
LINE
8
Black
10
5.2
20
14.2013
11
5.2
21
14.2
0
LINE
8
Black
10
5.2
20
14.2
11
5.19847
21
14.1913
0
LINE
8
Black
10
5.19847
20
14.1913
11
5.19924
21
14.1826
0
LINE
8
Black
10
5.19924
20
14.1826
11
5.19248
21
14.1573
0
LINE
8
Black
10
5.19248
20
14.1573
11
5.18794
21
14.1316
0
LINE
8
Black
10
5.18794
20
14.1316
11
5.18354
21
14.124
0
LINE
8
Black
10
5.18354
20
14.124
11
5.18126
21
14.1155
0
LINE
8
Black
10
5.18126
20
14.1155
11
5.16628
21
14.0941
0
LINE
8
Black
10
5.16628
20
14.0941
11
5.15321
21
14.0714
0
LINE
8
Black
10
5.15321
20
14.0714
11
5.14647
21
14.0658
0
LINE
8
Black
10
5.14647
20
14.0658
11
5.14142
21
14.0586
0
LINE
8
Black
10
5.14142
20
14.0586
11
3.44142
21
12.3586
0
LINE
8
Black
10
3.44142
20
12.3586
11
3.43422
21
12.3535
0
LINE
8
Black
10
3.43422
20
12.3535
11
3.42856
21
12.3468
0
LINE
8
Black
10
3.42856
20
12.3468
11
3.40593
21
12.3337
0
LINE
8
Black
10
3.40593
20
12.3337
11
3.38452
21
12.3187
0
LINE
8
Black
10
3.38452
20
12.3187
11
3.37602
21
12.3165
0
LINE
8
Black
10
3.37602
20
12.3165
11
3.3684
21
12.3121
0
LINE
8
Black
10
3.3684
20
12.3121
11
3.34267
21
12.3075
0
LINE
8
Black
10
3.34267
20
12.3075
11
3.31743
21
12.3008
0
LINE
8
Black
10
3.31743
20
12.3008
11
3.30867
21
12.3015
0
LINE
8
Black
10
3.30867
20
12.3015
11
3.3
21
12.3
0
LINE
8
Black
10
3.3
20
12.3
11
3.29874
21
12.3
0
LINE
8
Black
10
3.29874
20
12.3
11
2.6248
21
11.6261
0
LINE
8
Black
10
2.6248
20
11.6261
11
2.61121
21
11.6165
0
LINE
8
Black
10
2.61121
20
11.6165
11
2.5985
21
11.6059
0
LINE
8
Black
10
2.5985
20
11.6059
11
2.59325
21
11.604
0
LINE
8
Black
10
2.59325
20
11.604
11
2.58867
21
11.6008
0
LINE
8
Black
10
2.58867
20
11.6008
11
2.57265
21
11.5965
0
LINE
8
Black
10
2.57265
20
11.5965
11
2.55705
21
11.5908
0
LINE
8
Black
10
2.55705
20
11.5908
11
2.55147
21
11.5908
0
LINE
8
Black
10
2.55147
20
11.5908
11
2.54607
21
11.5894
0
LINE
8
Black
10
2.54607
20
11.5894
11
2.52954
21
11.5908
0
LINE
8
Black
10
2.52954
20
11.5908
11
2.51295
21
11.5908
0
LINE
8
Black
10
2.51295
20
11.5908
11
2.50769
21
11.5927
0
LINE
8
Black
10
2.50769
20
11.5927
11
2.50213
21
11.5932
0
LINE
8
Black
10
2.50213
20
11.5932
11
2.4871
21
11.6002
0
LINE
8
Black
10
2.4871
20
11.6002
11
2.4715
21
11.6059
0
LINE
8
Black
10
2.4715
20
11.6059
11
2.46722
21
11.6095
0
LINE
8
Black
10
2.46722
20
11.6095
11
2.46216
21
11.6118
0
LINE
8
Black
10
2.46216
20
11.6118
11
2.45042
21
11.6236
0
LINE
8
Black
10
2.45042
20
11.6236
11
2.43771
21
11.6342
0
LINE
8
Black
10
2.43771
20
11.6342
11
2.43492
21
11.6391
0
LINE
8
Black
10
2.43492
20
11.6391
11
2.43097
21
11.643
0
LINE
8
Black
10
2.43097
20
11.643
11
2.42396
21
11.6581
0
LINE
8
Black
10
2.42396
20
11.6581
11
2.41566
21
11.6724
0
LINE
8
Black
10
2.41566
20
11.6724
11
2.41469
21
11.6779
0
LINE
8
Black
10
2.41469
20
11.6779
11
2.41233
21
11.683
0
LINE
8
Black
10
2.41233
20
11.683
11
2.41088
21
11.6995
0
LINE
8
Black
10
2.41088
20
11.6995
11
2.408
21
11.7159
0
LINE
8
Black
10
2.408
20
11.7159
11
2.408
21
12.1684
0
LINE
8
Black
10
2.408
20
12.1684
11
2.40643
21
12.1693
0
LINE
8
Black
10
2.40643
20
12.1693
11
2.3392
21
12.2494
0
LINE
8
Black
10
2.3392
20
12.2494
11
2.30343
21
12.3477
0
LINE
8
Black
10
2.30343
20
12.3477
11
2.30343
21
12.4523
0
LINE
8
Black
10
2.30343
20
12.4523
11
2.3392
21
12.5506
0
LINE
8
Black
10
2.3392
20
12.5506
11
2.40643
21
12.6307
0
LINE
8
Black
10
2.40643
20
12.6307
11
2.46682
21
12.6656
0
LINE
8
Black
10
2.46682
20
12.6656
11
2.55607
21
12.7548
0
LINE
8
Black
10
2.55607
20
12.7548
11
2.56064
21
12.758
0
LINE
8
Black
10
2.56064
20
12.758
11
2.56423
21
12.7623
0
LINE
8
Black
10
2.56423
20
12.7623
11
2.57861
21
12.7706
0
LINE
8
Black
10
2.57861
20
12.7706
11
2.5922
21
12.7801
0
LINE
8
Black
10
2.5922
20
12.7801
11
2.59759
21
12.7815
0
LINE
8
Black
10
2.59759
20
12.7815
11
2.60243
21
12.7843
0
LINE
8
Black
10
2.60243
20
12.7843
11
2.61877
21
12.7872
0
LINE
8
Black
10
2.61877
20
12.7872
11
2.6348
21
12.7915
0
LINE
8
Black
10
2.6348
20
12.7915
11
2.64037
21
12.791
0
LINE
8
Black
10
2.64037
20
12.791
11
2.64587
21
12.792
0
LINE
8
Black
10
2.64587
20
12.792
11
2.68749
21
12.792
0
LINE
8
Black
10
2.68749
20
12.792
11
2.96999
21
12.8482
0
LINE
8
Black
10
2.96999
20
12.8482
11
3.20947
21
13.0082
0
LINE
8
Black
10
3.20947
20
13.0082
11
4.19179
21
13.9905
0
LINE
8
Black
10
4.19179
20
13.9905
11
4.35181
21
14.23
0
LINE
8
Black
10
4.35181
20
14.23
11
4.408
21
14.5125
0
LINE
8
Black
10
4.408
20
14.5125
11
4.408
21
19.1875
0
LINE
8
Black
10
4.408
20
19.1875
11
4.35181
21
19.47
0
LINE
8
Black
10
4.35181
20
19.47
11
4.19179
21
19.7095
0
LINE
8
Black
10
4.19179
20
19.7095
11
3.00947
21
20.8918
0
LINE
8
Black
10
3.00947
20
20.8918
11
2.77688
21
21.0472
0
LINE
8
Black
10
2.77688
20
21.0472
11
2.76391
21
21.0596
0
LINE
8
Black
10
2.76391
20
21.0596
11
2.75015
21
21.0712
0
LINE
8
Black
10
2.75015
20
21.0712
11
2.74805
21
21.0748
0
LINE
8
Black
10
2.74805
20
21.0748
11
2.74502
21
21.0777
0
LINE
8
Black
10
2.74502
20
21.0777
11
2.73708
21
21.0938
0
LINE
8
Black
10
2.73708
20
21.0938
11
2.73708
21
21.0938
0
LINE
8
Black
10
2.73708
20
21.0938
11
2.7281
21
21.1094
0
LINE
8
Black
10
2.7281
20
21.1094
11
2.72737
21
21.1135
0
LINE
8
Black
10
2.72737
20
21.1135
11
2.72737
21
21.1135
0
LINE
8
Black
10
2.72737
20
21.1135
11
2.72551
21
21.1173
0
LINE
8
Black
10
2.72551
20
21.1173
11
2.72356
21
21.1351
0
LINE
8
Black
10
2.72356
20
21.1351
11
2.72356
21
21.1351
0
LINE
8
Black
10
2.72356
20
21.1351
11
2.72044
21
21.1528
0
LINE
8
Black
10
2.72044
20
21.1528
11
2.72044
21
21.3878
0
LINE
8
Black
10
2.72044
20
21.3878
11
2.69318
21
21.5283
0
LINE
8
Black
10
2.69318
20
21.5283
11
2.69314
21
21.5309
0
LINE
8
Black
10
2.69314
20
21.5309
11
2.6923
21
21.5334
0
LINE
8
Black
10
2.6923
20
21.5334
11
2.69276
21
21.5529
0
LINE
8
Black
10
2.69276
20
21.5529
11
2.69243
21
21.5724
0
LINE
8
Black
10
2.69243
20
21.5724
11
2.69327
21
21.5749
0
LINE
8
Black
10
2.69327
20
21.5749
11
2.69333
21
21.5775
0
LINE
8
Black
10
2.69333
20
21.5775
11
2.72044
21
21.7126
0
LINE
8
Black
10
2.72044
20
21.7126
11
2.72044
21
23.6878
0
LINE
8
Black
10
2.72044
20
23.6878
11
2.69318
21
23.8283
0
LINE
8
Black
10
2.69318
20
23.8283
11
2.69314
21
23.8309
0
LINE
8
Black
10
2.69314
20
23.8309
11
2.6923
21
23.8334
0
LINE
8
Black
10
2.6923
20
23.8334
11
2.69276
21
23.8529
0
LINE
8
Black
10
2.69276
20
23.8529
11
2.69243
21
23.8724
0
LINE
8
Black
10
2.69243
20
23.8724
11
2.69327
21
23.8749
0
LINE
8
Black
10
2.69327
20
23.8749
11
2.69333
21
23.8775
0
LINE
8
Black
10
2.69333
20
23.8775
11
2.72044
21
24.0126
0
LINE
8
Black
10
2.72044
20
24.0126
11
2.72044
21
25.9878
0
LINE
8
Black
10
2.72044
20
25.9878
11
2.69318
21
26.1283
0
LINE
8
Black
10
2.69318
20
26.1283
11
2.69314
21
26.1309
0
LINE
8
Black
10
2.69314
20
26.1309
11
2.6923
21
26.1334
0
LINE
8
Black
10
2.6923
20
26.1334
11
2.69276
21
26.1529
0
LINE
8
Black
10
2.69276
20
26.1529
11
2.69243
21
26.1724
0
LINE
8
Black
10
2.69243
20
26.1724
11
2.69327
21
26.1749
0
LINE
8
Black
10
2.69327
20
26.1749
11
2.69333
21
26.1775
0
LINE
8
Black
10
2.69333
20
26.1775
11
2.72044
21
26.3126
0
LINE
8
Black
10
2.72044
20
26.3126
11
2.72044
21
27.815
0
LINE
8
Black
10
2.72044
20
27.815
11
2.72237
21
27.8259
0
LINE
8
Black
10
2.72237
20
27.8259
11
2.72237
21
27.8371
0
LINE
8
Black
10
2.72237
20
27.8371
11
2.72617
21
27.8475
0
LINE
8
Black
10
2.72617
20
27.8475
11
2.7281
21
27.8584
0
LINE
8
Black
10
2.7281
20
27.8584
11
2.73366
21
27.8681
0
LINE
8
Black
10
2.73366
20
27.8681
11
2.73746
21
27.8785
0
LINE
8
Black
10
2.73746
20
27.8785
11
2.7446
21
27.887
0
LINE
8
Black
10
2.7446
20
27.887
11
2.75015
21
27.8966
0
LINE
8
Black
10
2.75015
20
27.8966
11
2.75866
21
27.9038
0
LINE
8
Black
10
2.75866
20
27.9038
11
2.76581
21
27.9123
0
LINE
8
Black
10
2.76581
20
27.9123
11
2.77543
21
27.9178
0
LINE
8
Black
10
2.77543
20
27.9178
11
2.78394
21
27.925
0
LINE
8
Black
10
2.78394
20
27.925
11
2.79438
21
27.9288
0
LINE
8
Black
10
2.79438
20
27.9288
11
2.804
21
27.9343
0
LINE
8
Black
10
2.804
20
27.9343
11
2.81495
21
27.9363
0
LINE
8
Black
10
2.81495
20
27.9363
11
2.82539
21
27.9401
0
LINE
8
Black
10
2.82539
20
27.9401
11
2.8365
21
27.9401
0
LINE
8
Black
10
2.8365
20
27.9401
11
2.84744
21
27.942
0
LINE
8
Black
10
2.84744
20
27.942
11
43.489
21
27.942
0
LINE
8
Black
10
43.489
20
27.942
11
43.4999
21
27.9401
0
LINE
8
Black
10
43.4999
20
27.9401
11
43.511
21
27.9401
0
LINE
8
Black
10
43.511
20
27.9401
11
43.5215
21
27.9363
0
LINE
8
Black
10
43.5215
20
27.9363
11
43.5324
21
27.9343
0
LINE
8
Black
10
43.5324
20
27.9343
11
43.542
21
27.9288
0
LINE
8
Black
10
43.542
20
27.9288
11
43.5525
21
27.925
0
LINE
8
Black
10
43.5525
20
27.925
11
43.561
21
27.9178
0
LINE
8
Black
10
43.561
20
27.9178
11
43.5706
21
27.9123
0
LINE
8
Black
10
43.5706
20
27.9123
11
43.5777
21
27.9038
0
LINE
8
Black
10
43.5777
20
27.9038
11
43.5862
21
27.8966
0
LINE
8
Black
10
43.5862
20
27.8966
11
43.5918
21
27.887
0
LINE
8
Black
10
43.5918
20
27.887
11
43.5989
21
27.8785
0
LINE
8
Black
10
43.5989
20
27.8785
11
43.6027
21
27.8681
0
LINE
8
Black
10
43.6027
20
27.8681
11
43.6083
21
27.8584
0
LINE
8
Black
10
43.6083
20
27.8584
11
43.6102
21
27.8475
0
LINE
8
Black
10
43.6102
20
27.8475
11
43.614
21
27.8371
0
LINE
8
Black
10
43.614
20
27.8371
11
43.614
21
27.8259
0
LINE
8
Black
10
43.614
20
27.8259
11
43.616
21
27.815
0
LINE
8
Black
10
43.616
20
27.815
11
43.616
21
25.9962
0
LINE
8
Black
10
43.616
20
25.9962
11
43.6558
21
25.7907
0
LINE
8
Black
10
43.6558
20
25.7907
11
43.7679
21
25.6201
0
LINE
8
Black
10
43.7679
20
25.6201
11
43.9367
21
25.5061
0
LINE
8
Black
10
43.9367
20
25.5061
11
44.149
21
25.4636
0
LINE
8
Black
10
44.149
20
25.4636
11
45.8514
21
25.4636
0
LINE
8
Black
10
45.8514
20
25.4636
11
46.0569
21
25.5034
0
LINE
8
Black
10
46.0569
20
25.5034
11
46.2275
21
25.6155
0
LINE
8
Black
10
46.2275
20
25.6155
11
46.3415
21
25.7843
0
LINE
8
Black
10
46.3415
20
25.7843
11
46.3442
21
25.7979
0
LINE
8
Black
10
46.3442
20
25.7979
11
46.3502
21
25.8133
0
LINE
8
Black
10
46.3502
20
25.8133
11
46.3548
21
25.8291
0
LINE
8
Black
10
46.3548
20
25.8291
11
46.3582
21
25.8337
0
LINE
8
Black
10
46.3582
20
25.8337
11
46.3602
21
25.839
0
LINE
8
Black
10
46.3602
20
25.839
11
46.3711
21
25.8514
0
LINE
8
Black
10
46.3711
20
25.8514
11
46.3809
21
25.8647
0
LINE
8
Black
10
46.3809
20
25.8647
11
46.3856
21
25.8679
0
LINE
8
Black
10
46.3856
20
25.8679
11
46.3894
21
25.8721
0
LINE
8
Black
10
46.3894
20
25.8721
11
46.4038
21
25.88
0
LINE
8
Black
10
46.4038
20
25.88
11
46.4176
21
25.8892
0
LINE
8
Black
10
46.4176
20
25.8892
11
46.4231
21
25.8906
0
LINE
8
Black
10
46.4231
20
25.8906
11
46.4281
21
25.8933
0
LINE
8
Black
10
46.4281
20
25.8933
11
46.4444
21
25.8958
0
LINE
8
Black
10
46.4444
20
25.8958
11
46.4604
21
25.8997
0
LINE
8
Black
10
46.4604
20
25.8997
11
46.4661
21
25.8991
0
LINE
8
Black
10
46.4661
20
25.8991
11
46.4717
21
25.8999
0
LINE
8
Black
10
46.4717
20
25.8999
11
46.4879
21
25.8967
0
LINE
8
Black
10
46.4879
20
25.8967
11
46.5043
21
25.8949
0
LINE
8
Black
10
46.5043
20
25.8949
11
46.5094
21
25.8924
0
LINE
8
Black
10
46.5094
20
25.8924
11
46.5149
21
25.8913
0
LINE
8
Black
10
46.5149
20
25.8913
11
46.529
21
25.8827
0
LINE
8
Black
10
46.529
20
25.8827
11
46.5438
21
25.8754
0
LINE
8
Black
10
46.5438
20
25.8754
11
46.5477
21
25.8713
0
LINE
8
Black
10
46.5477
20
25.8713
11
46.5526
21
25.8683
0
LINE
8
Black
10
46.5526
20
25.8683
11
46.5629
21
25.8554
0
LINE
8
Black
10
46.5629
20
25.8554
11
46.569
21
25.8491
0
LINE
8
Black
10
46.569
20
25.8491
11
46.7756
21
25.7111
0
LINE
8
Black
10
46.7756
20
25.7111
11
46.7885
21
25.6986
0
LINE
8
Black
10
46.7885
20
25.6986
11
46.8023
21
25.6871
0
LINE
8
Black
10
46.8023
20
25.6871
11
46.8044
21
25.6835
0
LINE
8
Black
10
46.8044
20
25.6835
11
46.8074
21
25.6806
0
LINE
8
Black
10
46.8074
20
25.6806
11
46.8154
21
25.6645
0
LINE
8
Black
10
46.8154
20
25.6645
11
46.8243
21
25.6489
0
LINE
8
Black
10
46.8243
20
25.6489
11
46.8251
21
25.6448
0
LINE
8
Black
10
46.8251
20
25.6448
11
46.8269
21
25.641
0
LINE
8
Black
10
46.8269
20
25.641
11
46.8289
21
25.6232
0
LINE
8
Black
10
46.8289
20
25.6232
11
46.832
21
25.6055
0
LINE
8
Black
10
46.832
20
25.6055
11
46.832
21
25.4725
0
LINE
8
Black
10
46.832
20
25.4725
11
46.8882
21
25.19
0
LINE
8
Black
10
46.8882
20
25.19
11
47.0482
21
24.9505
0
LINE
8
Black
10
47.0482
20
24.9505
11
47.3548
21
24.6439
0
LINE
8
Black
10
47.3548
20
24.6439
11
47.358
21
24.6394
0
LINE
8
Black
10
47.358
20
24.6394
11
47.3623
21
24.6358
0
LINE
8
Black
10
47.3623
20
24.6358
11
47.3706
21
24.6214
0
LINE
8
Black
10
47.3706
20
24.6214
11
47.3801
21
24.6078
0
LINE
8
Black
10
47.3801
20
24.6078
11
47.3815
21
24.6024
0
LINE
8
Black
10
47.3815
20
24.6024
11
47.3843
21
24.5976
0
LINE
8
Black
10
47.3843
20
24.5976
11
47.3872
21
24.5812
0
LINE
8
Black
10
47.3872
20
24.5812
11
47.3915
21
24.5652
0
LINE
8
Black
10
47.3915
20
24.5652
11
47.391
21
24.5596
0
LINE
8
Black
10
47.391
20
24.5596
11
47.392
21
24.5541
0
LINE
8
Black
10
47.392
20
24.5541
11
47.392
21
24.0125
0
LINE
8
Black
10
47.392
20
24.0125
11
47.4482
21
23.73
0
LINE
8
Black
10
47.4482
20
23.73
11
47.6082
21
23.4905
0
LINE
8
Black
10
47.6082
20
23.4905
11
49.8548
21
21.2439
0
LINE
8
Black
10
49.8548
20
21.2439
11
49.858
21
21.2394
0
LINE
8
Black
10
49.858
20
21.2394
11
49.8623
21
21.2358
0
LINE
8
Black
10
49.8623
20
21.2358
11
49.8706
21
21.2214
0
LINE
8
Black
10
49.8706
20
21.2214
11
49.8801
21
21.2078
0
LINE
8
Black
10
49.8801
20
21.2078
11
49.8815
21
21.2024
0
LINE
8
Black
10
49.8815
20
21.2024
11
49.8843
21
21.1976
0
LINE
8
Black
10
49.8843
20
21.1976
11
49.8872
21
21.1812
0
LINE
8
Black
10
49.8872
20
21.1812
11
49.8915
21
21.1652
0
LINE
8
Black
10
49.8915
20
21.1652
11
49.891
21
21.1596
0
LINE
8
Black
10
49.891
20
21.1596
11
49.892
21
21.1541
0
LINE
8
Black
10
49.892
20
21.1541
11
49.892
21
14.8876
0
LINE
8
Black
10
49.892
20
14.8876
11
49.8901
21
14.8767
0
LINE
8
Black
10
49.8901
20
14.8767
11
49.8901
21
14.8657
0
LINE
8
Black
10
49.8901
20
14.8657
11
49.8863
21
14.8552
0
LINE
8
Black
10
49.8863
20
14.8552
11
49.8843
21
14.8441
0
LINE
8
Black
10
49.8843
20
14.8441
11
49.8788
21
14.8346
0
LINE
8
Black
10
49.8788
20
14.8346
11
49.8751
21
14.8243
0
LINE
8
Black
10
49.8751
20
14.8243
11
49.8679
21
14.8157
0
LINE
8
Black
10
49.8679
20
14.8157
11
49.8623
21
14.8059
0
LINE
8
Black
10
49.8623
20
14.8059
11
49.8539
21
14.7989
0
LINE
8
Black
10
49.8539
20
14.7989
11
49.8468
21
14.7904
0
LINE
8
Black
10
49.8468
20
14.7904
11
49.8371
21
14.7848
0
LINE
8
Black
10
49.8371
20
14.7848
11
49.8285
21
14.7776
0
LINE
8
Black
10
49.8285
20
14.7776
11
49.8182
21
14.7738
0
LINE
8
Black
10
49.8182
20
14.7738
11
49.8086
21
14.7683
0
LINE
8
Black
10
49.8086
20
14.7683
11
49.7976
21
14.7663
0
LINE
8
Black
10
49.7976
20
14.7663
11
49.7871
21
14.7625
0
LINE
8
Black
10
49.7871
20
14.7625
11
49.7761
21
14.7625
0
LINE
8
Black
10
49.7761
20
14.7625
11
49.7652
21
14.7606
0
LINE
8
Black
10
49.7652
20
14.7606
11
49.7542
21
14.7625
0
LINE
8
Black
10
49.7542
20
14.7625
11
49.7429
21
14.7625
0
LINE
8
Black
10
49.7429
20
14.7625
11
49.7326
21
14.7663
0
LINE
8
Black
10
49.7326
20
14.7663
11
49.7218
21
14.7681
0
LINE
8
Black
10
49.7218
20
14.7681
11
49.4764
21
14.857
0
LINE
8
Black
10
49.4764
20
14.857
11
48.9385
21
14.8325
0
LINE
8
Black
10
48.9385
20
14.8325
11
48.5963
21
14.6908
0
LINE
8
Black
10
48.5963
20
14.6908
11
48.5713
21
14.6115
0
LINE
8
Black
10
48.5713
20
14.6115
11
48.9251
21
14.2577
0
LINE
8
Black
10
48.9251
20
14.2577
11
48.9822
21
14.2907
0
LINE
8
Black
10
48.9822
20
14.2907
11
49.27
21
14.3414
0
LINE
8
Black
10
49.27
20
14.3414
11
49.5578
21
14.2907
0
LINE
8
Black
10
49.5578
20
14.2907
11
49.8108
21
14.1446
0
LINE
8
Black
10
49.8108
20
14.1446
11
49.9987
21
13.9207
0
LINE
8
Black
10
49.9987
20
13.9207
11
50.0986
21
13.6461
0
LINE
8
Black
10
50.0986
20
13.6461
11
50.0986
21
13.3539
0
LINE
8
Black
10
50.0986
20
13.3539
11
49.9987
21
13.0793
0
LINE
8
Black
10
49.9987
20
13.0793
11
49.8108
21
12.8554
0
LINE
8
Black
10
49.8108
20
12.8554
11
49.5578
21
12.7093
0
LINE
8
Black
10
49.5578
20
12.7093
11
49.27
21
12.6586
0
LINE
8
Black
10
49.27
20
12.6586
11
48.9822
21
12.7093
0
LINE
8
Black
10
48.9822
20
12.7093
11
48.8911
21
12.7619
0
LINE
8
Black
10
48.8911
20
12.7619
11
48.5585
21
12.4293
0
LINE
8
Black
10
48.5585
20
12.4293
11
48.5953
21
12.3126
0
LINE
8
Black
10
48.5953
20
12.3126
11
49.0636
21
12.143
0
LINE
8
Black
10
49.0636
20
12.143
11
49.6015
21
12.1675
0
LINE
8
Black
10
49.6015
20
12.1675
11
49.7164
21
12.215
0
LINE
8
Black
10
49.7164
20
12.215
11
49.7299
21
12.218
0
LINE
8
Black
10
49.7299
20
12.218
11
49.7429
21
12.2228
0
LINE
8
Black
10
49.7429
20
12.2228
11
49.7513
21
12.2228
0
LINE
8
Black
10
49.7513
20
12.2228
11
49.7595
21
12.2246
0
LINE
8
Black
10
49.7595
20
12.2246
11
49.7732
21
12.2228
0
LINE
8
Black
10
49.7732
20
12.2228
11
49.7871
21
12.2228
0
LINE
8
Black
10
49.7871
20
12.2228
11
49.7949
21
12.2199
0
LINE
8
Black
10
49.7949
20
12.2199
11
49.8032
21
12.2188
0
LINE
8
Black
10
49.8032
20
12.2188
11
49.8155
21
12.2124
0
LINE
8
Black
10
49.8155
20
12.2124
11
49.8285
21
12.2077
0
LINE
8
Black
10
49.8285
20
12.2077
11
49.8349
21
12.2023
0
LINE
8
Black
10
49.8349
20
12.2023
11
49.8423
21
12.1985
0
LINE
8
Black
10
49.8423
20
12.1985
11
49.8517
21
12.1883
0
LINE
8
Black
10
49.8517
20
12.1883
11
49.8623
21
12.1793
0
LINE
8
Black
10
49.8623
20
12.1793
11
49.8665
21
12.1721
0
LINE
8
Black
10
49.8665
20
12.1721
11
49.8721
21
12.1659
0
LINE
8
Black
10
49.8721
20
12.1659
11
49.8774
21
12.1531
0
LINE
8
Black
10
49.8774
20
12.1531
11
49.8843
21
12.1411
0
LINE
8
Black
10
49.8843
20
12.1411
11
49.8858
21
12.1329
0
LINE
8
Black
10
49.8858
20
12.1329
11
49.889
21
12.1252
0
LINE
8
Black
10
49.889
20
12.1252
11
49.8896
21
12.1114
0
LINE
8
Black
10
49.8896
20
12.1114
11
49.892
21
12.0977
0
LINE
8
Black
10
49.892
20
12.0977
11
49.892
21
11.9459
0
LINE
8
Black
10
49.892
20
11.9459
11
49.891
21
11.9404
0
LINE
8
Black
10
49.891
20
11.9404
11
49.8915
21
11.9348
0
LINE
8
Black
10
49.8915
20
11.9348
11
49.8901
21
11.9294
0
LINE
8
Black
10
49.8901
20
11.9294
11
49.8901
21
11.9238
0
LINE
8
Black
10
49.8901
20
11.9238
11
49.8863
21
11.9134
0
LINE
8
Black
10
49.8863
20
11.9134
11
49.8843
21
11.9024
0
LINE
8
Black
10
49.8843
20
11.9024
11
49.8815
21
11.8976
0
LINE
8
Black
10
49.8815
20
11.8976
11
49.8801
21
11.8922
0
LINE
8
Black
10
49.8801
20
11.8922
11
49.8769
21
11.8876
0
LINE
8
Black
10
49.8769
20
11.8876
11
49.875
21
11.8824
0
LINE
8
Black
10
49.875
20
11.8824
11
49.8678
21
11.8739
0
LINE
8
Black
10
49.8678
20
11.8739
11
49.8623
21
11.8642
0
LINE
8
Black
10
49.8623
20
11.8642
11
49.858
21
11.8606
0
LINE
8
Black
10
49.858
20
11.8606
11
49.8548
21
11.8561
0
LINE
8
Black
10
49.8548
20
11.8561
11
49.1082
21
11.1095
0
LINE
8
Black
10
49.1082
20
11.1095
11
48.9482
21
10.87
0
LINE
8
Black
10
48.9482
20
10.87
11
48.892
21
10.5875
0
LINE
8
Black
10
48.892
20
10.5875
11
48.892
21
9.54587
0
LINE
8
Black
10
48.892
20
9.54587
11
48.891
21
9.54037
0
LINE
8
Black
10
48.891
20
9.54037
11
48.8915
21
9.5348
0
LINE
8
Black
10
48.8915
20
9.5348
11
48.8872
21
9.51877
0
LINE
8
Black
10
48.8872
20
9.51877
11
48.8843
21
9.50243
0
LINE
8
Black
10
48.8843
20
9.50243
11
48.8815
21
9.49759
0
LINE
8
Black
10
48.8815
20
9.49759
11
48.8801
21
9.4922
0
LINE
8
Black
10
48.8801
20
9.4922
11
48.8706
21
9.47861
0
LINE
8
Black
10
48.8706
20
9.47861
11
48.8623
21
9.46423
0
LINE
8
Black
10
48.8623
20
9.46423
11
48.858
21
9.46064
0
LINE
8
Black
10
48.858
20
9.46064
11
48.8548
21
9.45607
0
LINE
8
Black
10
48.8548
20
9.45607
11
48.5277
21
9.12892
0
LINE
8
Black
10
48.5277
20
9.12892
11
45.3448
21
5.94604
0
LINE
8
Black
10
45.3448
20
5.94604
11
45.3448
21
5.94604
0
LINE
8
Black
10
45.3448
20
5.94604
11
45.3448
21
5.94604
0
LINE
8
Black
10
45.3448
20
5.94604
11
45.127
21
5.72823
0
LINE
8
Black
10
45.127
20
5.72823
11
44.7156
21
5.31687
0
LINE
8
Black
10
44.7156
20
5.31687
11
44.7156
21
5.31687
0
LINE
8
Black
10
44.7156
20
5.31687
11
44.7156
21
5.31687
0
LINE
8
Black
10
44.7156
20
5.31687
11
44.4815
21
5.08278
0
LINE
8
Black
10
44.4815
20
5.08278
11
43.0277
21
3.62892
0
LINE
8
Black
10
43.0277
20
3.62892
11
42.9439
21
3.5452
0
LINE
8
Black
10
42.9439
20
3.5452
11
42.9394
21
3.54199
0
LINE
8
Black
10
42.9394
20
3.54199
11
42.9358
21
3.53771
0
LINE
8
Black
10
42.9358
20
3.53771
11
42.9214
21
3.52942
0
LINE
8
Black
10
42.9214
20
3.52942
11
42.9078
21
3.5199
0
LINE
8
Black
10
42.9078
20
3.5199
11
42.9024
21
3.51845
0
LINE
8
Black
10
42.9024
20
3.51845
11
42.8976
21
3.51566
0
LINE
8
Black
10
42.8976
20
3.51566
11
42.8812
21
3.51278
0
LINE
8
Black
10
42.8812
20
3.51278
11
42.8652
21
3.50848
0
LINE
8
Black
10
42.8652
20
3.50848
11
42.8596
21
3.50897
0
LINE
8
Black
10
42.8596
20
3.50897
11
42.8541
21
3.508
0
LINE
8
Black
10
42.8541
20
3.508
11
32.4126
21
3.508
0
LINE
8
Black
10
32.4126
20
3.508
11
32.4084
21
3.50873
0
LINE
8
Black
10
32.4084
20
3.50873
11
32.4043
21
3.50827
0
LINE
8
Black
10
32.4043
20
3.50827
11
32.3868
21
3.51254
0
LINE
8
Black
10
32.3868
20
3.51254
11
32.3691
21
3.51566
0
LINE
8
Black
10
32.3691
20
3.51566
11
32.3655
21
3.51776
0
LINE
8
Black
10
32.3655
20
3.51776
11
32.3614
21
3.51876
0
LINE
8
Black
10
32.3614
20
3.51876
11
32.3465
21
3.52874
0
LINE
8
Black
10
32.3465
20
3.52874
11
32.3309
21
3.53771
0
LINE
8
Black
10
32.3309
20
3.53771
11
32.3282
21
3.54093
0
LINE
8
Black
10
32.3282
20
3.54093
11
32.3247
21
3.54326
0
LINE
8
Black
10
32.3247
20
3.54326
11
32.3141
21
3.55774
0
LINE
8
Black
10
32.3141
20
3.55774
11
32.3026
21
3.5715
0
LINE
8
Black
10
32.3026
20
3.5715
11
32.3011
21
3.57545
0
LINE
8
Black
10
32.3011
20
3.57545
11
32.2987
21
3.57883
0
LINE
8
Black
10
32.2987
20
3.57883
11
32.2936
21
3.59607
0
LINE
8
Black
10
32.2936
20
3.59607
11
32.2875
21
3.61295
0
LINE
8
Black
10
32.2875
20
3.61295
11
32.2875
21
3.61715
0
LINE
8
Black
10
32.2875
20
3.61715
11
32.2863
21
3.62117
0
LINE
8
Black
10
32.2863
20
3.62117
11
32.2875
21
3.63909
0
LINE
8
Black
10
32.2875
20
3.63909
11
32.2875
21
3.65705
0
LINE
8
Black
10
32.2875
20
3.65705
11
32.2889
21
3.661
0
LINE
8
Black
10
32.2889
20
3.661
11
32.2892
21
3.66519
0
LINE
8
Black
10
32.2892
20
3.66519
11
32.2964
21
3.68163
0
LINE
8
Black
10
32.2964
20
3.68163
11
32.3026
21
3.6985
0
LINE
8
Black
10
32.3026
20
3.6985
11
32.3053
21
3.70172
0
LINE
8
Black
10
32.3053
20
3.70172
11
32.307
21
3.70556
0
LINE
8
Black
10
32.307
20
3.70556
11
32.4343
21
3.89606
0
LINE
8
Black
10
32.4343
20
3.89606
11
32.5385
21
4.42
0
LINE
8
Black
10
32.5385
20
4.42
11
32.4343
21
4.94394
0
LINE
8
Black
10
32.4343
20
4.94394
11
32.1375
21
5.38811
0
LINE
8
Black
10
32.1375
20
5.38811
11
31.8437
21
5.5844
0
LINE
8
Black
10
31.8437
20
5.5844
11
31.8337
21
5.59399
0
LINE
8
Black
10
31.8337
20
5.59399
11
31.8225
21
5.60218
0
LINE
8
Black
10
31.8225
20
5.60218
11
31.8179
21
5.60913
0
LINE
8
Black
10
31.8179
20
5.60913
11
31.8118
21
5.6149
0
LINE
8
Black
10
31.8118
20
5.6149
11
31.8057
21
5.62733
0
LINE
8
Black
10
31.8057
20
5.62733
11
31.798
21
5.63885
0
LINE
8
Black
10
31.798
20
5.63885
11
31.796
21
5.64697
0
LINE
8
Black
10
31.796
20
5.64697
11
31.7923
21
5.65446
0
LINE
8
Black
10
31.7923
20
5.65446
11
31.7908
21
5.66824
0
LINE
8
Black
10
31.7908
20
5.66824
11
31.7875
21
5.68169
0
LINE
8
Black
10
31.7875
20
5.68169
11
31.7884
21
5.69
0
LINE
8
Black
10
31.7884
20
5.69
11
31.7875
21
5.69831
0
LINE
8
Black
10
31.7875
20
5.69831
11
31.7908
21
5.71176
0
LINE
8
Black
10
31.7908
20
5.71176
11
31.7923
21
5.72554
0
LINE
8
Black
10
31.7923
20
5.72554
11
31.796
21
5.73304
0
LINE
8
Black
10
31.796
20
5.73304
11
31.798
21
5.74115
0
LINE
8
Black
10
31.798
20
5.74115
11
31.8057
21
5.75267
0
LINE
8
Black
10
31.8057
20
5.75267
11
31.8118
21
5.7651
0
LINE
8
Black
10
31.8118
20
5.7651
11
31.8179
21
5.77087
0
LINE
8
Black
10
31.8179
20
5.77087
11
31.8225
21
5.77782
0
LINE
8
Black
10
31.8225
20
5.77782
11
31.8337
21
5.78602
0
LINE
8
Black
10
31.8337
20
5.78602
11
31.8437
21
5.7956
0
LINE
8
Black
10
31.8437
20
5.7956
11
32.1375
21
5.99189
0
LINE
8
Black
10
32.1375
20
5.99189
11
32.4343
21
6.43606
0
LINE
8
Black
10
32.4343
20
6.43606
11
32.5385
21
6.96
0
LINE
8
Black
10
32.5385
20
6.96
11
32.4343
21
7.48394
0
LINE
8
Black
10
32.4343
20
7.48394
11
32.1375
21
7.92811
0
LINE
8
Black
10
32.1375
20
7.92811
11
31.8352
21
8.13007
0
LINE
8
Black
10
31.8352
20
8.13007
11
31.8343
21
8.13095
0
LINE
8
Black
10
31.8343
20
8.13095
11
31.8331
21
8.13149
0
LINE
8
Black
10
31.8331
20
8.13149
11
31.8184
21
8.14617
0
LINE
8
Black
10
31.8184
20
8.14617
11
31.8034
21
8.16057
0
LINE
8
Black
10
31.8034
20
8.16057
11
31.8028
21
8.16172
0
LINE
8
Black
10
31.8028
20
8.16172
11
31.8019
21
8.16262
0
LINE
8
Black
10
31.8019
20
8.16262
11
31.7931
21
8.18145
0
LINE
8
Black
10
31.7931
20
8.18145
11
31.7838
21
8.20013
0
LINE
8
Black
10
31.7838
20
8.20013
11
31.7837
21
8.2014
0
LINE
8
Black
10
31.7837
20
8.2014
11
31.7832
21
8.20256
0
LINE
8
Black
10
31.7832
20
8.20256
11
31.7813
21
8.22328
0
LINE
8
Black
10
31.7813
20
8.22328
11
31.779
21
8.24397
0
LINE
8
Black
10
31.779
20
8.24397
11
31.7793
21
8.24521
0
LINE
8
Black
10
31.7793
20
8.24521
11
31.7792
21
8.24649
0
LINE
8
Black
10
31.7792
20
8.24649
11
31.7846
21
8.26659
0
LINE
8
Black
10
31.7846
20
8.26659
11
31.7895
21
8.28681
0
LINE
8
Black
10
31.7895
20
8.28681
11
31.7902
21
8.28788
0
LINE
8
Black
10
31.7902
20
8.28788
11
31.7906
21
8.28911
0
LINE
8
Black
10
31.7906
20
8.28911
11
31.8025
21
8.30617
0
LINE
8
Black
10
31.8025
20
8.30617
11
31.814
21
8.32349
0
LINE
8
Black
10
31.814
20
8.32349
11
31.8151
21
8.32424
0
LINE
8
Black
10
31.8151
20
8.32424
11
31.8158
21
8.32529
0
LINE
8
Black
10
31.8158
20
8.32529
11
31.8328
21
8.33727
0
LINE
8
Black
10
31.8328
20
8.33727
11
31.8496
21
8.34957
0
LINE
8
Black
10
31.8496
20
8.34957
11
31.8508
21
8.34993
0
LINE
8
Black
10
31.8508
20
8.34993
11
31.8519
21
8.35066
0
LINE
8
Black
10
31.8519
20
8.35066
11
31.9517
21
8.39746
0
LINE
8
Black
10
31.9517
20
8.39746
11
32.3139
21
8.79423
0
LINE
8
Black
10
32.3139
20
8.79423
11
32.4549
21
9.13478
0
LINE
8
Black
10
32.4549
20
9.13478
11
32.3969
21
9.246
0
LINE
8
Black
10
32.3969
20
9.246
11
31.9559
21
9.246
0
LINE
8
Black
10
31.9559
20
9.246
11
31.8912
21
9.0682
0
LINE
8
Black
10
31.8912
20
9.0682
11
31.6984
21
8.83844
0
LINE
8
Black
10
31.6984
20
8.83844
11
31.4387
21
8.68848
0
LINE
8
Black
10
31.4387
20
8.68848
11
31.1433
21
8.6364
0
LINE
8
Black
10
31.1433
20
8.6364
11
31.1367
21
8.6364
0
LINE
8
Black
10
31.1367
20
8.6364
11
30.886
21
8.68061
0
LINE
8
Black
10
30.886
20
8.68061
11
30.8413
21
8.68848
0
LINE
8
Black
10
30.8413
20
8.68848
11
30.5816
21
8.83844
0
LINE
8
Black
10
30.5816
20
8.83844
11
30.3888
21
9.0682
0
LINE
8
Black
10
30.3888
20
9.0682
11
30.3241
21
9.246
0
LINE
8
Black
10
30.3241
20
9.246
11
29.4636
21
9.246
0
LINE
8
Black
10
29.4636
20
9.246
11
29.4636
21
8.6364
0
LINE
8
Black
10
29.4636
20
8.6364
11
27.7364
21
8.6364
0
LINE
8
Black
10
27.7364
20
8.6364
11
27.7364
21
9.246
0
LINE
8
Black
10
27.7364
20
9.246
11
27.3128
21
9.246
0
LINE
8
Black
10
27.3128
20
9.246
11
27.2284
21
9.16165
0
LINE
8
Black
10
27.2284
20
9.16165
11
27.2284
21
8.57947
0
LINE
8
Black
10
27.2284
20
8.57947
11
27.2255
21
8.56312
0
LINE
8
Black
10
27.2255
20
8.56312
11
27.2241
21
8.5466
0
LINE
8
Black
10
27.2241
20
8.5466
11
27.2217
21
8.54154
0
LINE
8
Black
10
27.2217
20
8.54154
11
27.2207
21
8.53603
0
LINE
8
Black
10
27.2207
20
8.53603
11
27.2124
21
8.52166
0
LINE
8
Black
10
27.2124
20
8.52166
11
27.2054
21
8.50662
0
LINE
8
Black
10
27.2054
20
8.50662
11
27.2015
21
8.50267
0
LINE
8
Black
10
27.2015
20
8.50267
11
27.1987
21
8.49783
0
LINE
8
Black
10
27.1987
20
8.49783
11
27.186
21
8.48717
0
LINE
8
Black
10
27.186
20
8.48717
11
27.1742
21
8.47544
0
LINE
8
Black
10
27.1742
20
8.47544
11
27.1692
21
8.47308
0
LINE
8
Black
10
27.1692
20
8.47308
11
27.1649
21
8.46948
0
LINE
8
Black
10
27.1649
20
8.46948
11
27.1493
21
8.46381
0
LINE
8
Black
10
27.1493
20
8.46381
11
27.1343
21
8.4568
0
LINE
8
Black
10
27.1343
20
8.4568
11
27.1287
21
8.45631
0
LINE
8
Black
10
27.1287
20
8.45631
11
27.1235
21
8.4544
0
LINE
8
Black
10
27.1235
20
8.4544
11
27.1069
21
8.4544
0
LINE
8
Black
10
27.1069
20
8.4544
11
27.0903
21
8.45295
0
LINE
8
Black
10
27.0903
20
8.45295
11
27.0849
21
8.4544
0
LINE
8
Black
10
27.0849
20
8.4544
11
27.0793
21
8.4544
0
LINE
8
Black
10
27.0793
20
8.4544
11
27.0638
21
8.46007
0
LINE
8
Black
10
27.0638
20
8.46007
11
27.0477
21
8.46437
0
LINE
8
Black
10
27.0477
20
8.46437
11
27.0432
21
8.46757
0
LINE
8
Black
10
27.0432
20
8.46757
11
27.0379
21
8.46948
0
LINE
8
Black
10
27.0379
20
8.46948
11
27.0252
21
8.48015
0
LINE
8
Black
10
27.0252
20
8.48015
11
27.0116
21
8.48967
0
LINE
8
Black
10
27.0116
20
8.48967
11
25.1452
21
10.3561
0
LINE
8
Black
10
25.1452
20
10.3561
11
25.142
21
10.3606
0
LINE
8
Black
10
25.142
20
10.3606
11
25.1377
21
10.3642
0
LINE
8
Black
10
25.1377
20
10.3642
11
25.1294
21
10.3786
0
LINE
8
Black
10
25.1294
20
10.3786
11
25.1199
21
10.3922
0
LINE
8
Black
10
25.1199
20
10.3922
11
25.1185
21
10.3976
0
LINE
8
Black
10
25.1185
20
10.3976
11
25.1157
21
10.4024
0
LINE
8
Black
10
25.1157
20
10.4024
11
25.1128
21
10.4188
0
LINE
8
Black
10
25.1128
20
10.4188
11
25.1085
21
10.4348
0
LINE
8
Black
10
25.1085
20
10.4348
11
25.109
21
10.4404
0
LINE
8
Black
10
25.109
20
10.4404
11
25.108
21
10.4459
0
LINE
8
Black
10
25.108
20
10.4459
11
25.108
21
18.8236
0
LINE
8
Black
10
25.108
20
18.8236
11
25.1099
21
18.8345
0
LINE
8
Black
10
25.1099
20
18.8345
11
25.1099
21
18.8456
0
LINE
8
Black
10
25.1099
20
18.8456
11
25.1137
21
18.8561
0
LINE
8
Black
10
25.1137
20
18.8561
11
25.1157
21
18.867
0
LINE
8
Black
10
25.1157
20
18.867
11
25.1212
21
18.8766
0
LINE
8
Black
10
25.1212
20
18.8766
11
25.125
21
18.8871
0
LINE
8
Black
10
25.125
20
18.8871
11
25.1322
21
18.8956
0
LINE
8
Black
10
25.1322
20
18.8956
11
25.1377
21
18.9052
0
LINE
8
Black
10
25.1377
20
18.9052
11
25.1462
21
18.9123
0
LINE
8
Black
10
25.1462
20
18.9123
11
25.1534
21
18.9208
0
LINE
8
Black
10
25.1534
20
18.9208
11
25.163
21
18.9264
0
LINE
8
Black
10
25.163
20
18.9264
11
25.1715
21
18.9335
0
LINE
8
Black
10
25.1715
20
18.9335
11
25.1819
21
18.9373
0
LINE
8
Black
10
25.1819
20
18.9373
11
25.1916
21
18.9429
0
LINE
8
Black
10
25.1916
20
18.9429
11
25.2025
21
18.9448
0
LINE
8
Black
10
25.2025
20
18.9448
11
25.2129
21
18.9486
0
LINE
8
Black
10
25.2129
20
18.9486
11
25.2241
21
18.9486
0
LINE
8
Black
10
25.2241
20
18.9486
11
25.235
21
18.9506
0
LINE
8
Black
10
25.235
20
18.9506
11
25.2768
21
18.9506
0
LINE
8
Black
10
25.2768
20
18.9506
11
25.4823
21
18.9904
0
LINE
8
Black
10
25.4823
20
18.9904
11
25.6529
21
19.1025
0
LINE
8
Black
10
25.6529
20
19.1025
11
25.7669
21
19.2713
0
LINE
8
Black
10
25.7669
20
19.2713
11
25.8094
21
19.4836
0
LINE
8
Black
10
25.8094
20
19.4836
11
25.8094
21
21.2368
0
LINE
8
Black
10
25.8094
20
21.2368
11
25.8076
21
21.2465
0
LINE
8
Black
10
25.8076
20
21.2465
11
25.7696
21
21.4423
0
LINE
8
Black
10
25.7696
20
21.4423
11
25.6575
21
21.6129
0
LINE
8
Black
10
25.6575
20
21.6129
11
25.4887
21
21.7269
0
LINE
8
Black
10
25.4887
20
21.7269
11
25.2764
21
21.7694
0
LINE
8
Black
10
25.2764
20
21.7694
11
23.5232
21
21.7694
0
LINE
8
Black
10
23.5232
20
21.7694
11
23.3177
21
21.7296
0
LINE
8
Black
10
23.3177
20
21.7296
11
23.1471
21
21.6175
0
LINE
8
Black
10
23.1471
20
21.6175
11
23.0331
21
21.4487
0
LINE
8
Black
10
23.0331
20
21.4487
11
22.9906
21
21.2364
0
LINE
8
Black
10
22.9906
20
21.2364
11
22.9906
21
19.4832
0
LINE
8
Black
10
22.9906
20
19.4832
11
23.0304
21
19.2777
0
LINE
8
Black
10
23.0304
20
19.2777
11
23.1425
21
19.1071
0
LINE
8
Black
10
23.1425
20
19.1071
11
23.3113
21
18.9931
0
LINE
8
Black
10
23.3113
20
18.9931
11
23.5236
21
18.9506
0
LINE
8
Black
10
23.5236
20
18.9506
11
23.565
21
18.9506
0
LINE
8
Black
10
23.565
20
18.9506
11
23.5759
21
18.9486
0
LINE
8
Black
10
23.5759
20
18.9486
11
23.5871
21
18.9486
0
LINE
8
Black
10
23.5871
20
18.9486
11
23.5975
21
18.9448
0
LINE
8
Black
10
23.5975
20
18.9448
11
23.6084
21
18.9429
0
LINE
8
Black
10
23.6084
20
18.9429
11
23.6181
21
18.9373
0
LINE
8
Black
10
23.6181
20
18.9373
11
23.6285
21
18.9335
0
LINE
8
Black
10
23.6285
20
18.9335
11
23.637
21
18.9264
0
LINE
8
Black
10
23.637
20
18.9264
11
23.6466
21
18.9208
0
LINE
8
Black
10
23.6466
20
18.9208
11
23.6538
21
18.9123
0
LINE
8
Black
10
23.6538
20
18.9123
11
23.6623
21
18.9052
0
LINE
8
Black
10
23.6623
20
18.9052
11
23.6678
21
18.8956
0
LINE
8
Black
10
23.6678
20
18.8956
11
23.675
21
18.8871
0
LINE
8
Black
10
23.675
20
18.8871
11
23.6788
21
18.8766
0
LINE
8
Black
10
23.6788
20
18.8766
11
23.6843
21
18.867
0
LINE
8
Black
10
23.6843
20
18.867
11
23.6863
21
18.8561
0
LINE
8
Black
10
23.6863
20
18.8561
11
23.6901
21
18.8456
0
LINE
8
Black
10
23.6901
20
18.8456
11
23.6901
21
18.8345
0
LINE
8
Black
10
23.6901
20
18.8345
11
23.692
21
18.8236
0
LINE
8
Black
10
23.692
20
18.8236
11
23.692
21
10.1125
0
LINE
8
Black
10
23.692
20
10.1125
11
23.7482
21
9.83001
0
LINE
8
Black
10
23.7482
20
9.83001
11
23.9082
21
9.59053
0
LINE
8
Black
10
23.9082
20
9.59053
11
27.0305
21
6.46821
0
LINE
8
Black
10
27.0305
20
6.46821
11
27.27
21
6.30819
0
LINE
8
Black
10
27.27
20
6.30819
11
27.3582
21
6.29066
0
LINE
8
Black
10
27.3582
20
6.29066
11
27.3634
21
6.28863
0
LINE
8
Black
10
27.3634
20
6.28863
11
27.3689
21
6.28802
0
LINE
8
Black
10
27.3689
20
6.28802
11
27.3838
21
6.28068
0
LINE
8
Black
10
27.3838
20
6.28068
11
27.3993
21
6.27467
0
LINE
8
Black
10
27.3993
20
6.27467
11
27.4035
21
6.27099
0
LINE
8
Black
10
27.4035
20
6.27099
11
27.4085
21
6.26852
0
LINE
8
Black
10
27.4085
20
6.26852
11
27.42
21
6.25653
0
LINE
8
Black
10
27.42
20
6.25653
11
27.4324
21
6.24559
0
LINE
8
Black
10
27.4324
20
6.24559
11
27.4351
21
6.24069
0
LINE
8
Black
10
27.4351
20
6.24069
11
27.439
21
6.23665
0
LINE
8
Black
10
27.439
20
6.23665
11
27.6025
21
5.99189
0
LINE
8
Black
10
27.6025
20
5.99189
11
27.8963
21
5.7956
0
LINE
8
Black
10
27.8963
20
5.7956
11
27.9063
21
5.78601
0
LINE
8
Black
10
27.9063
20
5.78601
11
27.9175
21
5.77782
0
LINE
8
Black
10
27.9175
20
5.77782
11
27.9221
21
5.77087
0
LINE
8
Black
10
27.9221
20
5.77087
11
27.9282
21
5.7651
0
LINE
8
Black
10
27.9282
20
5.7651
11
27.9343
21
5.75267
0
LINE
8
Black
10
27.9343
20
5.75267
11
27.942
21
5.74115
0
LINE
8
Black
10
27.942
20
5.74115
11
27.944
21
5.73303
0
LINE
8
Black
10
27.944
20
5.73303
11
27.9477
21
5.72554
0
LINE
8
Black
10
27.9477
20
5.72554
11
27.9492
21
5.71177
0
LINE
8
Black
10
27.9492
20
5.71177
11
27.9525
21
5.69831
0
LINE
8
Black
10
27.9525
20
5.69831
11
27.9516
21
5.69
0
LINE
8
Black
10
27.9516
20
5.69
11
27.9525
21
5.68169
0
LINE
8
Black
10
27.9525
20
5.68169
11
27.9492
21
5.66823
0
LINE
8
Black
10
27.9492
20
5.66823
11
27.9477
21
5.65446
0
LINE
8
Black
10
27.9477
20
5.65446
11
27.944
21
5.64697
0
LINE
8
Black
10
27.944
20
5.64697
11
27.942
21
5.63885
0
LINE
8
Black
10
27.942
20
5.63885
11
27.9343
21
5.62733
0
LINE
8
Black
10
27.9343
20
5.62733
11
27.9282
21
5.6149
0
LINE
8
Black
10
27.9282
20
5.6149
11
27.9221
21
5.60913
0
LINE
8
Black
10
27.9221
20
5.60913
11
27.9175
21
5.60218
0
LINE
8
Black
10
27.9175
20
5.60218
11
27.9063
21
5.59399
0
LINE
8
Black
10
27.9063
20
5.59399
11
27.8963
21
5.5844
0
LINE
8
Black
10
27.8963
20
5.5844
11
27.6025
21
5.38811
0
LINE
8
Black
10
27.6025
20
5.38811
11
27.3057
21
4.94394
0
LINE
8
Black
10
27.3057
20
4.94394
11
27.2015
21
4.42
0
LINE
8
Black
10
27.2015
20
4.42
11
27.3057
21
3.89606
0
LINE
8
Black
10
27.3057
20
3.89606
11
27.433
21
3.70556
0
LINE
8
Black
10
27.433
20
3.70556
11
27.4347
21
3.70172
0
LINE
8
Black
10
27.4347
20
3.70172
11
27.4374
21
3.6985
0
LINE
8
Black
10
27.4374
20
3.6985
11
27.4436
21
3.68163
0
LINE
8
Black
10
27.4436
20
3.68163
11
27.4508
21
3.66519
0
LINE
8
Black
10
27.4508
20
3.66519
11
27.4511
21
3.661
0
LINE
8
Black
10
27.4511
20
3.661
11
27.4525
21
3.65705
0
LINE
8
Black
10
27.4525
20
3.65705
11
27.4525
21
3.63909
0
LINE
8
Black
10
27.4525
20
3.63909
11
27.4537
21
3.62117
0
LINE
8
Black
10
27.4537
20
3.62117
11
27.4525
21
3.61715
0
LINE
8
Black
10
27.4525
20
3.61715
11
27.4525
21
3.61295
0
LINE
8
Black
10
27.4525
20
3.61295
11
27.4464
21
3.59607
0
LINE
8
Black
10
27.4464
20
3.59607
11
27.4413
21
3.57883
0
LINE
8
Black
10
27.4413
20
3.57883
11
27.4389
21
3.57545
0
LINE
8
Black
10
27.4389
20
3.57545
11
27.4374
21
3.5715
0
LINE
8
Black
10
27.4374
20
3.5715
11
27.4259
21
3.55774
0
LINE
8
Black
10
27.4259
20
3.55774
11
27.4153
21
3.54326
0
LINE
8
Black
10
27.4153
20
3.54326
11
27.4118
21
3.54093
0
LINE
8
Black
10
27.4118
20
3.54093
11
27.4091
21
3.53771
0
LINE
8
Black
10
27.4091
20
3.53771
11
27.3935
21
3.52874
0
LINE
8
Black
10
27.3935
20
3.52874
11
27.3786
21
3.51876
0
LINE
8
Black
10
27.3786
20
3.51876
11
27.3745
21
3.51776
0
LINE
8
Black
10
27.3745
20
3.51776
11
27.3709
21
3.51566
0
LINE
8
Black
10
27.3709
20
3.51566
11
27.3532
21
3.51254
0
LINE
8
Black
10
27.3532
20
3.51254
11
27.3357
21
3.50827
0
LINE
8
Black
10
27.3357
20
3.50827
11
27.3316
21
3.50873
0
LINE
8
Black
10
27.3316
20
3.50873
11
27.3274
21
3.508
0
LINE
8
Black
10
27.3274
20
3.508
11
25.5459
21
3.508
0
LINE
8
Black
10
25.5459
20
3.508
11
25.5404
21
3.50897
0
LINE
8
Black
10
25.5404
20
3.50897
11
25.5348
21
3.50848
0
LINE
8
Black
10
25.5348
20
3.50848
11
25.5188
21
3.51278
0
LINE
8
Black
10
25.5188
20
3.51278
11
25.5024
21
3.51566
0
LINE
8
Black
10
25.5024
20
3.51566
11
25.4976
21
3.51845
0
LINE
8
Black
10
25.4976
20
3.51845
11
25.4922
21
3.5199
0
LINE
8
Black
10
25.4922
20
3.5199
11
25.4786
21
3.52942
0
LINE
8
Black
10
25.4786
20
3.52942
11
25.4642
21
3.53771
0
LINE
8
Black
10
25.4642
20
3.53771
11
25.4606
21
3.54199
0
LINE
8
Black
10
25.4606
20
3.54199
11
25.4561
21
3.5452
0
LINE
8
Black
10
25.4561
20
3.5452
11
25.3095
21
3.69179
0
LINE
8
Black
10
25.3095
20
3.69179
11
25.07
21
3.85181
0
LINE
8
Black
10
25.07
20
3.85181
11
24.7875
21
3.908
0
LINE
8
Black
10
24.7875
20
3.908
11
21.284
21
3.908
0
LINE
8
Black
10
21.284
20
3.908
11
21.2651
21
3.91134
0
LINE
8
Black
10
21.8123
20
5.88314
11
21.8986
21
5.64611
0
LINE
8
Black
10
21.8986
20
5.64611
11
21.8986
21
5.35389
0
LINE
8
Black
10
21.8986
20
5.35389
11
21.8123
21
5.11686
0
LINE
8
Black
10
21.8123
20
5.11686
11
22.1407
21
4.78848
0
LINE
8
Black
10
22.1407
20
4.78848
11
22.2574
21
4.82527
0
LINE
8
Black
10
22.2574
20
4.82527
11
22.427
21
5.29357
0
LINE
8
Black
10
22.427
20
5.29357
11
22.4025
21
5.83155
0
LINE
8
Black
10
22.4025
20
5.83155
11
22.2608
21
6.17366
0
LINE
8
Black
10
22.2608
20
6.17366
11
22.1407
21
6.21152
0
LINE
8
Black
10
22.1407
20
6.21152
11
21.8123
21
5.88314
0
LINE
8
Black
10
43.4385
20
9.83253
11
43.1744
21
9.72316
0
LINE
8
Black
10
43.1744
20
9.72316
11
43.0963
21
9.69082
0
LINE
8
Black
10
43.0963
20
9.69082
11
43.0585
21
9.57073
0
LINE
8
Black
10
43.0585
20
9.57073
11
43.3911
21
9.23807
0
LINE
8
Black
10
43.3911
20
9.23807
11
43.4822
21
9.29066
0
LINE
8
Black
10
43.4822
20
9.29066
11
43.77
21
9.3414
0
LINE
8
Black
10
43.77
20
9.3414
11
44.0578
21
9.29066
0
LINE
8
Black
10
44.0578
20
9.29066
11
44.1489
21
9.23807
0
LINE
8
Black
10
44.1489
20
9.23807
11
44.4815
21
9.57073
0
LINE
8
Black
10
44.4815
20
9.57073
11
44.4447
21
9.68744
0
LINE
8
Black
10
44.4447
20
9.68744
11
43.9764
21
9.85696
0
LINE
8
Black
10
43.9764
20
9.85696
11
43.7607
21
9.84717
0
LINE
8
Black
10
43.7607
20
9.84717
11
43.627
21
9.84109
0
LINE
8
Black
10
43.627
20
9.84109
11
43.4385
21
9.83253
0
LINE
8
Black
10
31.394
20
10.7573
11
31.394
21
10.3194
0
LINE
8
Black
10
31.394
20
10.3194
11
31.4387
21
10.3115
0
LINE
8
Black
10
31.4387
20
10.3115
11
31.6984
21
10.1616
0
LINE
8
Black
10
31.6984
20
10.1616
11
31.8912
21
9.9318
0
LINE
8
Black
10
31.8912
20
9.9318
11
31.9559
21
9.754
0
LINE
8
Black
10
31.9559
20
9.754
11
32.3969
21
9.754
0
LINE
8
Black
10
32.3969
20
9.754
11
32.4549
21
9.86523
0
LINE
8
Black
10
32.4549
20
9.86523
11
32.3139
21
10.2058
0
LINE
8
Black
10
32.3139
20
10.2058
11
31.9517
21
10.6025
0
LINE
8
Black
10
31.9517
20
10.6025
11
31.5019
21
10.8134
0
LINE
8
Black
10
31.5019
20
10.8134
11
31.394
21
10.7573
0
LINE
8
Black
10
28.9384
20
10.8716
11
28.854
21
10.7872
0
LINE
8
Black
10
28.854
20
10.7872
11
28.854
21
10.3636
0
LINE
8
Black
10
28.854
20
10.3636
11
29.4636
21
10.3636
0
LINE
8
Black
10
29.4636
20
10.3636
11
29.4636
21
9.754
0
LINE
8
Black
10
29.4636
20
9.754
11
30.3241
21
9.754
0
LINE
8
Black
10
30.3241
20
9.754
11
30.3888
21
9.9318
0
LINE
8
Black
10
30.3888
20
9.9318
11
30.5816
21
10.1616
0
LINE
8
Black
10
30.5816
20
10.1616
11
30.8413
21
10.3115
0
LINE
8
Black
10
30.8413
20
10.3115
11
30.886
21
10.3194
0
LINE
8
Black
10
30.886
20
10.3194
11
30.886
21
10.7573
0
LINE
8
Black
10
30.886
20
10.7573
11
30.7781
21
10.8134
0
LINE
8
Black
10
30.7781
20
10.8134
11
30.3283
21
10.6025
0
LINE
8
Black
10
30.3283
20
10.6025
11
30.1783
21
10.4383
0
LINE
8
Black
10
30.1783
20
10.4383
11
30.1651
21
10.4281
0
LINE
8
Black
10
30.1651
20
10.4281
11
30.1528
21
10.4168
0
LINE
8
Black
10
30.1528
20
10.4168
11
30.1477
21
10.4147
0
LINE
8
Black
10
30.1477
20
10.4147
11
30.1434
21
10.4113
0
LINE
8
Black
10
30.1434
20
10.4113
11
30.1275
21
10.4063
0
LINE
8
Black
10
30.1275
20
10.4063
11
30.112
21
10.3999
0
LINE
8
Black
10
30.112
20
10.3999
11
30.1066
21
10.3997
0
LINE
8
Black
10
30.1066
20
10.3997
11
30.1013
21
10.398
0
LINE
8
Black
10
30.1013
20
10.398
11
30.0846
21
10.3987
0
LINE
8
Black
10
30.0846
20
10.3987
11
30.068
21
10.398
0
LINE
8
Black
10
30.068
20
10.398
11
30.0627
21
10.3996
0
LINE
8
Black
10
30.0627
20
10.3996
11
30.0573
21
10.3998
0
LINE
8
Black
10
30.0573
20
10.3998
11
30.0418
21
10.4062
0
LINE
8
Black
10
30.0418
20
10.4062
11
30.0259
21
10.4112
0
LINE
8
Black
10
30.0259
20
10.4112
11
30.0216
21
10.4146
0
LINE
8
Black
10
30.0216
20
10.4146
11
30.0165
21
10.4166
0
LINE
8
Black
10
30.0165
20
10.4166
11
30.0041
21
10.4279
0
LINE
8
Black
10
30.0041
20
10.4279
11
29.9909
21
10.4381
0
LINE
8
Black
10
29.9909
20
10.4381
11
29.988
21
10.4427
0
LINE
8
Black
10
29.988
20
10.4427
11
29.9839
21
10.4464
0
LINE
8
Black
10
29.9839
20
10.4464
11
29.9762
21
10.4612
0
LINE
8
Black
10
29.9762
20
10.4612
11
29.9672
21
10.4753
0
LINE
8
Black
10
29.9672
20
10.4753
11
29.8943
21
10.6514
0
LINE
8
Black
10
29.8943
20
10.6514
11
29.7514
21
10.7943
0
LINE
8
Black
10
29.7514
20
10.7943
11
29.5646
21
10.8716
0
LINE
8
Black
10
29.5646
20
10.8716
11
28.9384
21
10.8716
0
LINE
8
Black
10
27.6354
20
10.8716
11
27.4486
21
10.7943
0
LINE
8
Black
10
27.4486
20
10.7943
11
27.3057
21
10.6514
0
LINE
8
Black
10
27.3057
20
10.6514
11
27.2284
21
10.4646
0
LINE
8
Black
10
27.2284
20
10.4646
11
27.2284
21
10.4544
0
LINE
8
Black
10
27.2284
20
10.4544
11
27.7364
21
9.94644
0
LINE
8
Black
10
27.7364
20
9.94644
11
27.7364
21
10.3636
0
LINE
8
Black
10
27.7364
20
10.3636
11
28.346
21
10.3636
0
LINE
8
Black
10
28.346
20
10.3636
11
28.346
21
10.7872
0
LINE
8
Black
10
28.346
20
10.7872
11
28.2616
21
10.8716
0
LINE
8
Black
10
28.2616
20
10.8716
11
27.6354
21
10.8716
0
LINE
8
Black
10
42.5578
20
16.2093
11
42.27
21
16.1586
0
LINE
8
Black
10
42.27
20
16.1586
11
41.9822
21
16.2093
0
LINE
8
Black
10
41.9822
20
16.2093
11
41.8911
21
16.2619
0
LINE
8
Black
10
41.8911
20
16.2619
11
41.5585
21
15.9293
0
LINE
8
Black
10
41.5585
20
15.9293
11
41.5953
21
15.8126
0
LINE
8
Black
10
41.5953
20
15.8126
11
42.0636
21
15.643
0
LINE
8
Black
10
42.0636
20
15.643
11
42.6015
21
15.6675
0
LINE
8
Black
10
42.6015
20
15.6675
11
42.9437
21
15.8092
0
LINE
8
Black
10
42.9437
20
15.8092
11
42.9815
21
15.9293
0
LINE
8
Black
10
42.9815
20
15.9293
11
42.9815
21
15.9293
0
LINE
8
Black
10
42.9815
20
15.9293
11
42.6489
21
16.2619
0
LINE
8
Black
10
42.6489
20
16.2619
11
42.5578
21
16.2093
0
LINE
8
Black
10
38.9684
20
18.1419
11
38.5894
21
17.7636
0
LINE
8
Black
10
38.5894
20
17.7636
11
38.384
21
17.269
0
LINE
8
Black
10
38.384
20
17.269
11
38.3836
21
16.7334
0
LINE
8
Black
10
38.3836
20
16.7334
11
38.5881
21
16.2384
0
LINE
8
Black
10
38.5881
20
16.2384
11
38.9664
21
15.8594
0
LINE
8
Black
10
38.9664
20
15.8594
11
39.461
21
15.654
0
LINE
8
Black
10
39.461
20
15.654
11
39.9966
21
15.6536
0
LINE
8
Black
10
39.9966
20
15.6536
11
40.4916
21
15.8581
0
LINE
8
Black
10
40.4916
20
15.8581
11
40.8706
21
16.2364
0
LINE
8
Black
10
40.8706
20
16.2364
11
40.8832
21
16.2667
0
LINE
8
Black
10
40.8832
20
16.2667
11
40.8861
21
16.2714
0
LINE
8
Black
10
40.8861
20
16.2714
11
40.8878
21
16.2766
0
LINE
8
Black
10
40.8878
20
16.2766
11
40.8979
21
16.2898
0
LINE
8
Black
10
40.8979
20
16.2898
11
40.9069
21
16.3039
0
LINE
8
Black
10
40.9069
20
16.3039
11
40.9113
21
16.3072
0
LINE
8
Black
10
40.9113
20
16.3072
11
40.9146
21
16.3116
0
LINE
8
Black
10
40.9146
20
16.3116
11
40.9287
21
16.3206
0
LINE
8
Black
10
40.9287
20
16.3206
11
40.9419
21
16.3307
0
LINE
8
Black
10
40.9419
20
16.3307
11
40.9472
21
16.3324
0
LINE
8
Black
10
40.9472
20
16.3324
11
40.9518
21
16.3353
0
LINE
8
Black
10
40.9518
20
16.3353
11
40.9681
21
16.3389
0
LINE
8
Black
10
40.9681
20
16.3389
11
40.984
21
16.3439
0
LINE
8
Black
10
40.984
20
16.3439
11
40.9895
21
16.3437
0
LINE
8
Black
10
40.9895
20
16.3437
11
40.9949
21
16.3449
0
LINE
8
Black
10
40.9949
20
16.3449
11
41.0114
21
16.3427
0
LINE
8
Black
10
41.0114
20
16.3427
11
41.028
21
16.342
0
LINE
8
Black
10
41.028
20
16.342
11
41.0331
21
16.3398
0
LINE
8
Black
10
41.0331
20
16.3398
11
41.0386
21
16.3391
0
LINE
8
Black
10
41.0386
20
16.3391
11
41.1993
21
16.2885
0
LINE
8
Black
10
41.1993
20
16.2885
11
41.5277
21
16.6169
0
LINE
8
Black
10
41.5277
20
16.6169
11
41.4414
21
16.8539
0
LINE
8
Black
10
41.4414
20
16.8539
11
41.4414
21
17.1461
0
LINE
8
Black
10
41.4414
20
17.1461
11
41.5277
21
17.3831
0
LINE
8
Black
10
41.5277
20
17.3831
11
41.1993
21
17.7115
0
LINE
8
Black
10
41.1993
20
17.7115
11
41.039
21
17.661
0
LINE
8
Black
10
41.039
20
17.661
11
41.0334
21
17.6603
0
LINE
8
Black
10
41.0334
20
17.6603
11
41.0282
21
17.6581
0
LINE
8
Black
10
41.0282
20
17.6581
11
41.0117
21
17.6574
0
LINE
8
Black
10
41.0117
20
17.6574
11
40.9953
21
17.6553
0
LINE
8
Black
10
40.9953
20
17.6553
11
40.9898
21
17.6565
0
LINE
8
Black
10
40.9898
20
17.6565
11
40.9841
21
17.6562
0
LINE
8
Black
10
40.9841
20
17.6562
11
40.9684
21
17.6612
0
LINE
8
Black
10
40.9684
20
17.6612
11
40.9522
21
17.6648
0
LINE
8
Black
10
40.9522
20
17.6648
11
40.9475
21
17.6678
0
LINE
8
Black
10
40.9475
20
17.6678
11
40.9421
21
17.6695
0
LINE
8
Black
10
40.9421
20
17.6695
11
40.929
21
17.6796
0
LINE
8
Black
10
40.929
20
17.6796
11
40.915
21
17.6885
0
LINE
8
Black
10
40.915
20
17.6885
11
40.9116
21
17.693
0
LINE
8
Black
10
40.9116
20
17.693
11
40.9071
21
17.6964
0
LINE
8
Black
10
40.9071
20
17.6964
11
40.8982
21
17.7104
0
LINE
8
Black
10
40.8982
20
17.7104
11
40.8882
21
17.7235
0
LINE
8
Black
10
40.8882
20
17.7235
11
40.8865
21
17.7289
0
LINE
8
Black
10
40.8865
20
17.7289
11
40.8835
21
17.7336
0
LINE
8
Black
10
40.8835
20
17.7336
11
40.8719
21
17.7616
0
LINE
8
Black
10
40.8719
20
17.7616
11
40.4936
21
18.1406
0
LINE
8
Black
10
40.4936
20
18.1406
11
39.999
21
18.346
0
LINE
8
Black
10
39.999
20
18.346
11
39.4634
21
18.3464
0
LINE
8
Black
10
39.4634
20
18.3464
11
38.9684
21
18.1419
0
LINE
8
Black
10
41.9385
20
18.3325
11
41.5963
21
18.1908
0
LINE
8
Black
10
41.5963
20
18.1908
11
41.5585
21
18.0707
0
LINE
8
Black
10
41.5585
20
18.0707
11
41.8911
21
17.7381
0
LINE
8
Black
10
41.8911
20
17.7381
11
41.9822
21
17.7907
0
LINE
8
Black
10
41.9822
20
17.7907
11
42.27
21
17.8414
0
LINE
8
Black
10
42.27
20
17.8414
11
42.5578
21
17.7907
0
LINE
8
Black
10
42.5578
20
17.7907
11
42.6489
21
17.7381
0
LINE
8
Black
10
42.6489
20
17.7381
11
42.9815
21
18.0707
0
LINE
8
Black
10
42.9815
20
18.0707
11
42.9447
21
18.1874
0
LINE
8
Black
10
42.9447
20
18.1874
11
42.4764
21
18.357
0
LINE
8
Black
10
42.4764
20
18.357
11
41.9385
21
18.3325
0
LINE
8
Black
10
24.7052
20
24.6014
11
24.4
21
24.5476
0
LINE
8
Black
10
24.4
20
24.5476
11
24.0948
21
24.6014
0
LINE
8
Black
10
24.0948
20
24.6014
11
23.9844
21
24.6652
0
LINE
8
Black
10
23.9844
20
24.6652
11
23.6527
21
24.3335
0
LINE
8
Black
10
23.6527
20
24.3335
11
23.6936
21
24.2107
0
LINE
8
Black
10
23.6936
20
24.2107
11
24.1818
21
24.0324
0
LINE
8
Black
10
24.1818
20
24.0324
11
24.7399
21
24.0562
0
LINE
8
Black
10
24.7399
20
24.0562
11
25.1054
21
24.2076
0
LINE
8
Black
10
25.1054
20
24.2076
11
25.1473
21
24.3335
0
LINE
8
Black
10
25.1473
20
24.3335
11
25.1473
21
24.3335
0
LINE
8
Black
10
25.1473
20
24.3335
11
24.8156
21
24.6652
0
LINE
8
Black
10
24.8156
20
24.6652
11
24.7052
21
24.6014
0
LINE
8
Black
10
25.3824
20
26.0632
11
25.3824
21
26.0632
0
LINE
8
Black
10
25.3824
20
26.0632
11
25.3824
21
26.0632
0
LINE
8
Black
10
25.3824
20
26.0632
11
25.1815
21
25.8623
0
LINE
8
Black
10
25.1815
20
25.8623
11
25.2788
21
25.595
0
LINE
8
Black
10
25.2788
20
25.595
11
25.2788
21
25.285
0
LINE
8
Black
10
25.2788
20
25.285
11
25.1815
21
25.0177
0
LINE
8
Black
10
25.1815
20
25.0177
11
25.5065
21
24.6927
0
LINE
8
Black
10
25.5065
20
24.6927
11
25.6293
21
24.7336
0
LINE
8
Black
10
25.6293
20
24.7336
11
25.8076
21
25.2218
0
LINE
8
Black
10
25.8076
20
25.2218
11
25.7838
21
25.7799
0
LINE
8
Black
10
25.7838
20
25.7799
11
25.6324
21
26.1454
0
LINE
8
Black
10
25.6324
20
26.1454
11
25.5065
21
26.1873
0
LINE
8
Black
10
25.5065
20
26.1873
11
25.3824
21
26.0632
0
LINE
8
Black
10
23.1707
20
26.1464
11
22.9924
21
25.6582
0
LINE
8
Black
10
22.9924
20
25.6582
11
22.9932
21
25.64
0
LINE
8
Black
10
22.9932
20
25.64
11
23.5376
21
25.64
0
LINE
8
Black
10
23.5376
20
25.64
11
23.6185
21
25.8623
0
LINE
8
Black
10
23.6185
20
25.8623
11
23.2935
21
26.1873
0
LINE
8
Black
10
23.2935
20
26.1873
11
23.1707
21
26.1464
0
LINE
8
Black
10
24.0601
20
26.8238
11
23.6946
21
26.6724
0
LINE
8
Black
10
23.6946
20
26.6724
11
23.6527
21
26.5465
0
LINE
8
Black
10
23.6527
20
26.5465
11
23.9844
21
26.2148
0
LINE
8
Black
10
23.9844
20
26.2148
11
24.0948
21
26.2786
0
LINE
8
Black
10
24.0948
20
26.2786
11
24.4
21
26.3324
0
LINE
8
Black
10
24.4
20
26.3324
11
24.7052
21
26.2786
0
LINE
8
Black
10
24.7052
20
26.2786
11
24.8156
21
26.2148
0
LINE
8
Black
10
24.8156
20
26.2148
11
25.1473
21
26.5465
0
LINE
8
Black
10
25.1473
20
26.5465
11
25.1064
21
26.6693
0
LINE
8
Black
10
25.1064
20
26.6693
11
24.6182
21
26.8476
0
LINE
8
Black
10
24.6182
20
26.8476
11
24.0601
21
26.8238
0
LINE
8
Black
10
20.2414
20
5.64611
11
20.3277
21
5.88314
0
LINE
8
Black
10
20.3277
20
5.88314
11
19.9993
21
6.21152
0
LINE
8
Black
10
19.9993
20
6.21152
11
19.839
21
6.161
0
LINE
8
Black
10
19.839
20
6.161
11
19.8334
21
6.16027
0
LINE
8
Black
10
19.8334
20
6.16027
11
19.8282
21
6.15812
0
LINE
8
Black
10
19.8282
20
6.15812
11
19.8117
21
6.15741
0
LINE
8
Black
10
19.8117
20
6.15741
11
19.7953
21
6.15525
0
LINE
8
Black
10
19.7953
20
6.15525
11
19.7898
21
6.15647
0
LINE
8
Black
10
19.7898
20
6.15647
11
19.7841
21
6.15623
0
LINE
8
Black
10
19.7841
20
6.15623
11
19.7684
21
6.16122
0
LINE
8
Black
10
19.7684
20
6.16122
11
19.7522
21
6.1648
0
LINE
8
Black
10
19.7522
20
6.1648
11
19.7475
21
6.16783
0
LINE
8
Black
10
19.7475
20
6.16783
11
19.7421
21
6.16953
0
LINE
8
Black
10
19.7421
20
6.16953
11
19.729
21
6.17962
0
LINE
8
Black
10
19.729
20
6.17962
11
19.715
21
6.1885
0
LINE
8
Black
10
19.715
20
6.1885
11
19.7116
21
6.19297
0
LINE
8
Black
10
19.7116
20
6.19297
11
19.7071
21
6.19641
0
LINE
8
Black
10
19.7071
20
6.19641
11
19.6982
21
6.21037
0
LINE
8
Black
10
19.6982
20
6.21037
11
19.6882
21
6.2235
0
LINE
8
Black
10
19.6882
20
6.2235
11
19.6865
21
6.22888
0
LINE
8
Black
10
19.6865
20
6.22888
11
19.6835
21
6.23363
0
LINE
8
Black
10
19.6835
20
6.23363
11
19.6719
21
6.26157
0
LINE
8
Black
10
19.6719
20
6.26157
11
19.2936
21
6.64059
0
LINE
8
Black
10
19.2936
20
6.64059
11
18.799
21
6.84597
0
LINE
8
Black
10
18.799
20
6.84597
11
18.2634
21
6.84643
0
LINE
8
Black
10
18.2634
20
6.84643
11
17.7684
21
6.64192
0
LINE
8
Black
10
17.7684
20
6.64192
11
17.3894
21
6.26356
0
LINE
8
Black
10
17.3894
20
6.26356
11
17.184
21
5.76895
0
LINE
8
Black
10
17.184
20
5.76895
11
17.1836
21
5.2334
0
LINE
8
Black
10
17.1836
20
5.2334
11
17.3881
21
4.73844
0
LINE
8
Black
10
17.3881
20
4.73844
11
17.7664
21
4.35941
0
LINE
8
Black
10
17.7664
20
4.35941
11
18.261
21
4.15403
0
LINE
8
Black
10
18.261
20
4.15403
11
18.7966
21
4.15357
0
LINE
8
Black
10
18.7966
20
4.15357
11
19.2916
21
4.35808
0
LINE
8
Black
10
19.2916
20
4.35808
11
19.6706
21
4.73644
0
LINE
8
Black
10
19.6706
20
4.73644
11
19.6832
21
4.7667
0
LINE
8
Black
10
19.6832
20
4.7667
11
19.6861
21
4.77136
0
LINE
8
Black
10
19.6861
20
4.77136
11
19.6878
21
4.77663
0
LINE
8
Black
10
19.6878
20
4.77663
11
19.6979
21
4.78984
0
LINE
8
Black
10
19.6979
20
4.78984
11
19.7069
21
4.80388
0
LINE
8
Black
10
19.7069
20
4.80388
11
19.7113
21
4.80724
0
LINE
8
Black
10
19.7113
20
4.80724
11
19.7146
21
4.81162
0
LINE
8
Black
10
19.7146
20
4.81162
11
19.7287
21
4.82057
0
LINE
8
Black
10
19.7287
20
4.82057
11
19.7419
21
4.8307
0
LINE
8
Black
10
19.7419
20
4.8307
11
19.7472
21
4.83236
0
LINE
8
Black
10
19.7472
20
4.83236
11
19.7518
21
4.83533
0
LINE
8
Black
10
19.7518
20
4.83533
11
19.7681
21
4.83893
0
LINE
8
Black
10
19.7681
20
4.83893
11
19.784
21
4.84392
0
LINE
8
Black
10
19.784
20
4.84392
11
19.7895
21
4.84368
0
LINE
8
Black
10
19.7895
20
4.84368
11
19.7949
21
4.84488
0
LINE
8
Black
10
19.7949
20
4.84488
11
19.8114
21
4.8427
0
LINE
8
Black
10
19.8114
20
4.8427
11
19.828
21
4.84196
0
LINE
8
Black
10
19.828
20
4.84196
11
19.8331
21
4.83984
0
LINE
8
Black
10
19.8331
20
4.83984
11
19.8386
21
4.83912
0
LINE
8
Black
10
19.8386
20
4.83912
11
19.9993
21
4.78848
0
LINE
8
Black
10
19.9993
20
4.78848
11
20.3277
21
5.11686
0
LINE
8
Black
10
20.3277
20
5.11686
11
20.2414
21
5.35389
0
LINE
8
Black
10
20.2414
20
5.35389
11
20.2414
21
5.64611
0
LINE
8
Black
10
44.1489
20
7.76193
11
44.0578
21
7.70934
0
LINE
8
Black
10
44.0578
20
7.70934
11
43.77
21
7.6586
0
LINE
8
Black
10
43.77
20
7.6586
11
43.4822
21
7.70934
0
LINE
8
Black
10
43.4822
20
7.70934
11
43.3911
21
7.76193
0
LINE
8
Black
10
43.3911
20
7.76193
11
43.0585
21
7.42927
0
LINE
8
Black
10
43.0585
20
7.42927
11
43.0953
21
7.31256
0
LINE
8
Black
10
43.0953
20
7.31256
11
43.5636
21
7.14304
0
LINE
8
Black
10
43.5636
20
7.14304
11
44.1015
21
7.16747
0
LINE
8
Black
10
44.1015
20
7.16747
11
44.4437
21
7.30918
0
LINE
8
Black
10
44.4437
20
7.30918
11
44.4815
21
7.42927
0
LINE
8
Black
10
44.4815
20
7.42927
11
44.4815
21
7.42927
0
LINE
8
Black
10
44.4815
20
7.42927
11
44.1489
21
7.76193
0
LINE
8
Black
10
42.9414
20
8.64611
11
43.0277
21
8.88314
0
LINE
8
Black
10
43.0277
20
8.88314
11
42.9815
21
8.92927
0
LINE
8
Black
10
42.9815
20
8.92927
11
42.6993
21
9.21152
0
LINE
8
Black
10
42.6993
20
9.21152
11
42.539
21
9.161
0
LINE
8
Black
10
42.539
20
9.161
11
42.5334
21
9.16027
0
LINE
8
Black
10
42.5334
20
9.16027
11
42.5282
21
9.15812
0
LINE
8
Black
10
42.5282
20
9.15812
11
42.5117
21
9.15741
0
LINE
8
Black
10
42.5117
20
9.15741
11
42.4953
21
9.15525
0
LINE
8
Black
10
42.4953
20
9.15525
11
42.4898
21
9.15647
0
LINE
8
Black
10
42.4898
20
9.15647
11
42.4841
21
9.15623
0
LINE
8
Black
10
42.4841
20
9.15623
11
42.4684
21
9.16122
0
LINE
8
Black
10
42.4684
20
9.16122
11
42.4522
21
9.1648
0
LINE
8
Black
10
42.4522
20
9.1648
11
42.4475
21
9.16783
0
LINE
8
Black
10
42.4475
20
9.16783
11
42.4421
21
9.16953
0
LINE
8
Black
10
42.4421
20
9.16953
11
42.429
21
9.17962
0
LINE
8
Black
10
42.429
20
9.17962
11
42.415
21
9.1885
0
LINE
8
Black
10
42.415
20
9.1885
11
42.4116
21
9.19297
0
LINE
8
Black
10
42.4116
20
9.19297
11
42.4071
21
9.19641
0
LINE
8
Black
10
42.4071
20
9.19641
11
42.3982
21
9.21037
0
LINE
8
Black
10
42.3982
20
9.21037
11
42.3882
21
9.2235
0
LINE
8
Black
10
42.3882
20
9.2235
11
42.3865
21
9.22888
0
LINE
8
Black
10
42.3865
20
9.22888
11
42.3835
21
9.23363
0
LINE
8
Black
10
42.3835
20
9.23363
11
42.3719
21
9.26157
0
LINE
8
Black
10
42.3719
20
9.26157
11
41.9936
21
9.64059
0
LINE
8
Black
10
41.9936
20
9.64059
11
41.5277
21
9.83405
0
LINE
8
Black
10
41.5277
20
9.83405
11
41.499
21
9.84597
0
LINE
8
Black
10
41.499
20
9.84597
11
40.9634
21
9.84643
0
LINE
8
Black
10
40.9634
20
9.84643
11
40.4684
21
9.64192
0
LINE
8
Black
10
40.4684
20
9.64192
11
40.0894
21
9.26356
0
LINE
8
Black
10
40.0894
20
9.26356
11
39.884
21
8.76895
0
LINE
8
Black
10
39.884
20
8.76895
11
39.8836
21
8.2334
0
LINE
8
Black
10
39.8836
20
8.2334
11
40.0881
21
7.73844
0
LINE
8
Black
10
40.0881
20
7.73844
11
40.4664
21
7.35941
0
LINE
8
Black
10
40.4664
20
7.35941
11
40.961
21
7.15403
0
LINE
8
Black
10
40.961
20
7.15403
11
41.4966
21
7.15357
0
LINE
8
Black
10
41.4966
20
7.15357
11
41.9916
21
7.35808
0
LINE
8
Black
10
41.9916
20
7.35808
11
42.3706
21
7.73644
0
LINE
8
Black
10
42.3706
20
7.73644
11
42.3832
21
7.7667
0
LINE
8
Black
10
42.3832
20
7.7667
11
42.3861
21
7.77136
0
LINE
8
Black
10
42.3861
20
7.77136
11
42.3878
21
7.77663
0
LINE
8
Black
10
42.3878
20
7.77663
11
42.3979
21
7.78984
0
LINE
8
Black
10
42.3979
20
7.78984
11
42.4069
21
7.80388
0
LINE
8
Black
10
42.4069
20
7.80388
11
42.4113
21
7.80724
0
LINE
8
Black
10
42.4113
20
7.80724
11
42.4146
21
7.81162
0
LINE
8
Black
10
42.4146
20
7.81162
11
42.4287
21
7.82057
0
LINE
8
Black
10
42.4287
20
7.82057
11
42.4419
21
7.8307
0
LINE
8
Black
10
42.4419
20
7.8307
11
42.4472
21
7.83236
0
LINE
8
Black
10
42.4472
20
7.83236
11
42.4518
21
7.83533
0
LINE
8
Black
10
42.4518
20
7.83533
11
42.4681
21
7.83893
0
LINE
8
Black
10
42.4681
20
7.83893
11
42.484
21
7.84392
0
LINE
8
Black
10
42.484
20
7.84392
11
42.4895
21
7.84368
0
LINE
8
Black
10
42.4895
20
7.84368
11
42.4949
21
7.84488
0
LINE
8
Black
10
42.4949
20
7.84488
11
42.5114
21
7.8427
0
LINE
8
Black
10
42.5114
20
7.8427
11
42.528
21
7.84196
0
LINE
8
Black
10
42.528
20
7.84196
11
42.5331
21
7.83984
0
LINE
8
Black
10
42.5331
20
7.83984
11
42.5386
21
7.83912
0
LINE
8
Black
10
42.5386
20
7.83912
11
42.6993
21
7.78848
0
LINE
8
Black
10
42.6993
20
7.78848
11
43.0277
21
8.11686
0
LINE
8
Black
10
43.0277
20
8.11686
11
42.9414
21
8.35389
0
LINE
8
Black
10
42.9414
20
8.35389
11
42.9414
21
8.64611
0
LINE
8
Black
10
44.9608
20
9.17366
11
44.8407
21
9.21152
0
LINE
8
Black
10
44.8407
20
9.21152
11
44.7156
21
9.0864
0
LINE
8
Black
10
44.7156
20
9.0864
11
44.7156
21
9.0864
0
LINE
8
Black
10
44.7156
20
9.0864
11
44.7156
21
9.0864
0
LINE
8
Black
10
44.7156
20
9.0864
11
44.5123
21
8.88314
0
LINE
8
Black
10
44.5123
20
8.88314
11
44.5986
21
8.64611
0
LINE
8
Black
10
44.5986
20
8.64611
11
44.5986
21
8.35389
0
LINE
8
Black
10
44.5986
20
8.35389
11
44.5123
21
8.11686
0
LINE
8
Black
10
44.5123
20
8.11686
11
44.8407
21
7.78848
0
LINE
8
Black
10
44.8407
20
7.78848
11
44.9574
21
7.82527
0
LINE
8
Black
10
44.9574
20
7.82527
11
45.127
21
8.29357
0
LINE
8
Black
10
45.127
20
8.29357
11
45.1025
21
8.83155
0
LINE
8
Black
10
45.1025
20
8.83155
11
44.9608
21
9.17366
0
LINE
8
Black
10
27.2284
20
9.88876
11
27.2284
21
9.83836
0
LINE
8
Black
10
27.2284
20
9.83836
11
27.3128
21
9.754
0
LINE
8
Black
10
27.3128
20
9.754
11
27.3632
21
9.754
0
LINE
8
Black
10
27.3632
20
9.754
11
27.2284
21
9.88876
0
LINE
8
Black
10
48.4414
20
13.6461
11
48.5277
21
13.8831
0
LINE
8
Black
10
48.5277
20
13.8831
11
48.1993
21
14.2115
0
LINE
8
Black
10
48.1993
20
14.2115
11
48.039
21
14.161
0
LINE
8
Black
10
48.039
20
14.161
11
48.0334
21
14.1603
0
LINE
8
Black
10
48.0334
20
14.1603
11
48.0282
21
14.1581
0
LINE
8
Black
10
48.0282
20
14.1581
11
48.0117
21
14.1574
0
LINE
8
Black
10
48.0117
20
14.1574
11
47.9953
21
14.1553
0
LINE
8
Black
10
47.9953
20
14.1553
11
47.9898
21
14.1565
0
LINE
8
Black
10
47.9898
20
14.1565
11
47.9841
21
14.1562
0
LINE
8
Black
10
47.9841
20
14.1562
11
47.9684
21
14.1612
0
LINE
8
Black
10
47.9684
20
14.1612
11
47.9522
21
14.1648
0
LINE
8
Black
10
47.9522
20
14.1648
11
47.9475
21
14.1678
0
LINE
8
Black
10
47.9475
20
14.1678
11
47.9421
21
14.1695
0
LINE
8
Black
10
47.9421
20
14.1695
11
47.929
21
14.1796
0
LINE
8
Black
10
47.929
20
14.1796
11
47.915
21
14.1885
0
LINE
8
Black
10
47.915
20
14.1885
11
47.9116
21
14.193
0
LINE
8
Black
10
47.9116
20
14.193
11
47.9071
21
14.1964
0
LINE
8
Black
10
47.9071
20
14.1964
11
47.8982
21
14.2104
0
LINE
8
Black
10
47.8982
20
14.2104
11
47.8882
21
14.2235
0
LINE
8
Black
10
47.8882
20
14.2235
11
47.8865
21
14.2289
0
LINE
8
Black
10
47.8865
20
14.2289
11
47.8835
21
14.2336
0
LINE
8
Black
10
47.8835
20
14.2336
11
47.8719
21
14.2616
0
LINE
8
Black
10
47.8719
20
14.2616
11
47.4936
21
14.6406
0
LINE
8
Black
10
47.4936
20
14.6406
11
46.999
21
14.846
0
LINE
8
Black
10
46.999
20
14.846
11
46.4634
21
14.8464
0
LINE
8
Black
10
46.4634
20
14.8464
11
45.9684
21
14.6419
0
LINE
8
Black
10
45.9684
20
14.6419
11
45.5894
21
14.2636
0
LINE
8
Black
10
45.5894
20
14.2636
11
45.384
21
13.769
0
LINE
8
Black
10
45.384
20
13.769
11
45.3836
21
13.2334
0
LINE
8
Black
10
45.3836
20
13.2334
11
45.5881
21
12.7384
0
LINE
8
Black
10
45.5881
20
12.7384
11
45.9664
21
12.3594
0
LINE
8
Black
10
45.9664
20
12.3594
11
46.461
21
12.154
0
LINE
8
Black
10
46.461
20
12.154
11
46.9966
21
12.1536
0
LINE
8
Black
10
46.9966
20
12.1536
11
47.4916
21
12.3581
0
LINE
8
Black
10
47.4916
20
12.3581
11
47.8706
21
12.7364
0
LINE
8
Black
10
47.8706
20
12.7364
11
47.8832
21
12.7667
0
LINE
8
Black
10
47.8832
20
12.7667
11
47.8861
21
12.7714
0
LINE
8
Black
10
47.8861
20
12.7714
11
47.8878
21
12.7766
0
LINE
8
Black
10
47.8878
20
12.7766
11
47.8979
21
12.7898
0
LINE
8
Black
10
47.8979
20
12.7898
11
47.9069
21
12.8039
0
LINE
8
Black
10
47.9069
20
12.8039
11
47.9113
21
12.8072
0
LINE
8
Black
10
47.9113
20
12.8072
11
47.9146
21
12.8116
0
LINE
8
Black
10
47.9146
20
12.8116
11
47.9287
21
12.8206
0
LINE
8
Black
10
47.9287
20
12.8206
11
47.9419
21
12.8307
0
LINE
8
Black
10
47.9419
20
12.8307
11
47.9472
21
12.8324
0
LINE
8
Black
10
47.9472
20
12.8324
11
47.9518
21
12.8353
0
LINE
8
Black
10
47.9518
20
12.8353
11
47.9681
21
12.8389
0
LINE
8
Black
10
47.9681
20
12.8389
11
47.984
21
12.8439
0
LINE
8
Black
10
47.984
20
12.8439
11
47.9895
21
12.8437
0
LINE
8
Black
10
47.9895
20
12.8437
11
47.9949
21
12.8449
0
LINE
8
Black
10
47.9949
20
12.8449
11
48.0114
21
12.8427
0
LINE
8
Black
10
48.0114
20
12.8427
11
48.028
21
12.842
0
LINE
8
Black
10
48.028
20
12.842
11
48.0331
21
12.8398
0
LINE
8
Black
10
48.0331
20
12.8398
11
48.0386
21
12.8391
0
LINE
8
Black
10
48.0386
20
12.8391
11
48.1993
21
12.7885
0
LINE
8
Black
10
48.1993
20
12.7885
11
48.5277
21
13.1169
0
LINE
8
Black
10
48.5277
20
13.1169
11
48.4414
21
13.3539
0
LINE
8
Black
10
48.4414
20
13.3539
11
48.4414
21
13.6461
0
LINE
8
Black
10
43.4608
20
17.6737
11
43.3407
21
17.7115
0
LINE
8
Black
10
43.3407
20
17.7115
11
43.2156
21
17.5864
0
LINE
8
Black
10
43.2156
20
17.5864
11
43.2156
21
17.5864
0
LINE
8
Black
10
43.2156
20
17.5864
11
43.2156
21
17.5864
0
LINE
8
Black
10
43.2156
20
17.5864
11
43.0123
21
17.3831
0
LINE
8
Black
10
43.0123
20
17.3831
11
43.0986
21
17.1461
0
LINE
8
Black
10
43.0986
20
17.1461
11
43.0986
21
16.8539
0
LINE
8
Black
10
43.0986
20
16.8539
11
43.0123
21
16.6169
0
LINE
8
Black
10
43.0123
20
16.6169
11
43.3407
21
16.2885
0
LINE
8
Black
10
43.3407
20
16.2885
11
43.4574
21
16.3253
0
LINE
8
Black
10
43.4574
20
16.3253
11
43.627
21
16.7936
0
LINE
8
Black
10
43.627
20
16.7936
11
43.6025
21
17.3316
0
LINE
8
Black
10
43.6025
20
17.3316
11
43.4608
21
17.6737
0
LINE
8
Black
10
23.0103
20
25.24
11
23.0162
21
25.1001
0
LINE
8
Black
10
23.0162
20
25.1001
11
23.1676
21
24.7346
0
LINE
8
Black
10
23.1676
20
24.7346
11
23.2935
21
24.6927
0
LINE
8
Black
10
23.2935
20
24.6927
11
23.6185
21
25.0177
0
LINE
8
Black
10
23.6185
20
25.0177
11
23.5376
21
25.24
0
LINE
8
Black
10
23.5376
20
25.24
11
23.0103
21
25.24
0
LINE
8
Black
10
47.9718
20
27.9042
11
48.2016
21
27.7114
0
LINE
8
Black
10
48.2016
20
27.7114
11
48.3515
21
27.4517
0
LINE
8
Black
10
48.3515
20
27.4517
11
48.4036
21
27.1563
0
LINE
8
Black
10
48.4036
20
27.1563
11
48.4036
21
26.8437
0
LINE
8
Black
10
48.4036
20
26.8437
11
48.3515
21
26.5484
0
LINE
8
Black
10
48.3515
20
26.5484
11
48.2016
21
26.2886
0
LINE
8
Black
10
48.2016
20
26.2886
11
47.9718
21
26.0958
0
LINE
8
Black
10
47.9718
20
26.0958
11
47.74
21
26.0115
0
LINE
8
Black
10
47.74
20
26.0115
11
47.74
21
25.5428
0
LINE
8
Black
10
47.74
20
25.5428
11
48.2414
21
25.0414
0
LINE
8
Black
10
48.2414
20
25.0414
11
48.2465
21
25.0342
0
LINE
8
Black
10
48.2465
20
25.0342
11
48.2532
21
25.0286
0
LINE
8
Black
10
48.2532
20
25.0286
11
48.2663
21
25.0059
0
LINE
8
Black
10
48.2663
20
25.0059
11
48.2813
21
24.9845
0
LINE
8
Black
10
48.2813
20
24.9845
11
48.2835
21
24.976
0
LINE
8
Black
10
48.2835
20
24.976
11
48.2879
21
24.9684
0
LINE
8
Black
10
48.2879
20
24.9684
11
48.2925
21
24.9427
0
LINE
8
Black
10
48.2925
20
24.9427
11
48.2992
21
24.9174
0
LINE
8
Black
10
48.2992
20
24.9174
11
48.2985
21
24.9087
0
LINE
8
Black
10
48.2985
20
24.9087
11
48.3
21
24.9
0
LINE
8
Black
10
48.3
20
24.9
11
48.3
21
24.0828
0
LINE
8
Black
10
48.3
20
24.0828
11
50.7414
21
21.6414
0
LINE
8
Black
10
50.7414
20
21.6414
11
50.7465
21
21.6342
0
LINE
8
Black
10
50.7465
20
21.6342
11
50.7532
21
21.6286
0
LINE
8
Black
10
50.7532
20
21.6286
11
50.7663
21
21.6059
0
LINE
8
Black
10
50.7663
20
21.6059
11
50.7813
21
21.5845
0
LINE
8
Black
10
50.7813
20
21.5845
11
50.7835
21
21.576
0
LINE
8
Black
10
50.7835
20
21.576
11
50.7879
21
21.5684
0
LINE
8
Black
10
50.7879
20
21.5684
11
50.7925
21
21.5427
0
LINE
8
Black
10
50.7925
20
21.5427
11
50.7992
21
21.5174
0
LINE
8
Black
10
50.7992
20
21.5174
11
50.7985
21
21.5087
0
LINE
8
Black
10
50.7985
20
21.5087
11
50.8
21
21.5
0
LINE
8
Black
10
50.8
20
21.5
11
50.8
21
11.6
0
LINE
8
Black
10
50.8
20
11.6
11
50.7985
21
11.5913
0
LINE
8
Black
10
50.7985
20
11.5913
11
50.7992
21
11.5826
0
LINE
8
Black
10
50.7992
20
11.5826
11
50.7925
21
11.5573
0
LINE
8
Black
10
50.7925
20
11.5573
11
50.7879
21
11.5316
0
LINE
8
Black
10
50.7879
20
11.5316
11
50.7835
21
11.524
0
LINE
8
Black
10
50.7835
20
11.524
11
50.7813
21
11.5155
0
LINE
8
Black
10
50.7813
20
11.5155
11
50.7663
21
11.4941
0
LINE
8
Black
10
50.7663
20
11.4941
11
50.7532
21
11.4714
0
LINE
8
Black
10
50.7532
20
11.4714
11
50.7465
21
11.4658
0
LINE
8
Black
10
50.7465
20
11.4658
11
50.7414
21
11.4586
0
LINE
8
Black
10
50.7414
20
11.4586
11
49.8
21
10.5172
0
LINE
8
Black
10
49.8
20
10.5172
11
49.8
21
9.2
0
LINE
8
Black
10
49.8
20
9.2
11
49.7985
21
9.19134
0
LINE
8
Black
10
49.7985
20
9.19134
11
49.7992
21
9.18257
0
LINE
8
Black
10
49.7992
20
9.18257
11
49.7925
21
9.15733
0
LINE
8
Black
10
49.7925
20
9.15733
11
49.7879
21
9.1316
0
LINE
8
Black
10
49.7879
20
9.1316
11
49.7835
21
9.12398
0
LINE
8
Black
10
49.7835
20
9.12398
11
49.7813
21
9.11548
0
LINE
8
Black
10
49.7813
20
9.11548
11
49.7663
21
9.09407
0
LINE
8
Black
10
49.7663
20
9.09407
11
49.7532
21
9.07144
0
LINE
8
Black
10
49.7532
20
9.07144
11
49.7465
21
9.06579
0
LINE
8
Black
10
49.7465
20
9.06579
11
49.7414
21
9.05858
0
LINE
8
Black
10
49.7414
20
9.05858
11
43.3414
21
2.65858
0
LINE
8
Black
10
43.3414
20
2.65858
11
43.3342
21
2.65353
0
LINE
8
Black
10
43.3342
20
2.65353
11
43.3286
21
2.64679
0
LINE
8
Black
10
43.3286
20
2.64679
11
43.3059
21
2.63373
0
LINE
8
Black
10
43.3059
20
2.63373
11
43.2845
21
2.61874
0
LINE
8
Black
10
43.2845
20
2.61874
11
43.276
21
2.61646
0
LINE
8
Black
10
43.276
20
2.61646
11
43.2684
21
2.61206
0
LINE
8
Black
10
43.2684
20
2.61206
11
43.2427
21
2.60752
0
LINE
8
Black
10
43.2427
20
2.60752
11
43.2174
21
2.60076
0
LINE
8
Black
10
43.2174
20
2.60076
11
43.2087
21
2.60153
0
LINE
8
Black
10
43.2087
20
2.60153
11
43.2
21
2.6
0
LINE
8
Black
10
43.2
20
2.6
11
25.2
21
2.6
0
LINE
8
Black
10
25.2
20
2.6
11
25.1913
21
2.60153
0
LINE
8
Black
10
25.1913
20
2.60153
11
25.1826
21
2.60076
0
LINE
8
Black
10
25.1826
20
2.60076
11
25.1573
21
2.60752
0
LINE
8
Black
10
25.1573
20
2.60752
11
25.1316
21
2.61206
0
LINE
8
Black
10
25.1316
20
2.61206
11
25.124
21
2.61646
0
LINE
8
Black
10
25.124
20
2.61646
11
25.1155
21
2.61874
0
LINE
8
Black
10
25.1155
20
2.61874
11
25.0941
21
2.63373
0
LINE
8
Black
10
25.0941
20
2.63373
11
25.0714
21
2.64679
0
LINE
8
Black
10
25.0714
20
2.64679
11
25.0658
21
2.65353
0
LINE
8
Black
10
25.0658
20
2.65353
11
25.0586
21
2.65858
0
LINE
8
Black
10
25.0586
20
2.65858
11
24.7172
21
3
0
LINE
8
Black
10
24.7172
20
3
11
19.9828
21
3
0
LINE
8
Black
10
19.9828
20
3
11
18.6414
21
1.65858
0
LINE
8
Black
10
18.6414
20
1.65858
11
18.6342
21
1.65353
0
LINE
8
Black
10
18.6342
20
1.65353
11
18.6286
21
1.64679
0
LINE
8
Black
10
18.6286
20
1.64679
11
18.6059
21
1.63373
0
LINE
8
Black
10
18.6059
20
1.63373
11
18.5845
21
1.61874
0
LINE
8
Black
10
18.5845
20
1.61874
11
18.576
21
1.61646
0
LINE
8
Black
10
18.576
20
1.61646
11
18.5684
21
1.61206
0
LINE
8
Black
10
18.5684
20
1.61206
11
18.5427
21
1.60752
0
LINE
8
Black
10
18.5427
20
1.60752
11
18.5174
21
1.60076
0
LINE
8
Black
10
18.5174
20
1.60076
11
18.5087
21
1.60153
0
LINE
8
Black
10
18.5087
20
1.60153
11
18.5
21
1.6
0
LINE
8
Black
10
18.5
20
1.6
11
13.6828
21
1.6
0
LINE
8
Black
10
13.6828
20
1.6
11
13.1414
21
1.05858
0
LINE
8
Black
10
13.1414
20
1.05858
11
13.1342
21
1.05353
0
LINE
8
Black
10
13.1342
20
1.05353
11
13.1286
21
1.04679
0
LINE
8
Black
10
13.1286
20
1.04679
11
13.1059
21
1.03373
0
LINE
8
Black
10
13.1059
20
1.03373
11
13.0845
21
1.01874
0
LINE
8
Black
10
13.0845
20
1.01874
11
13.076
21
1.01646
0
LINE
8
Black
10
13.076
20
1.01646
11
13.0684
21
1.01206
0
LINE
8
Black
10
13.0684
20
1.01206
11
13.0427
21
1.00752
0
LINE
8
Black
10
13.0427
20
1.00752
11
13.0174
21
1.00076
0
LINE
8
Black
10
13.0174
20
1.00076
11
13.0087
21
1.00153
0
LINE
8
Black
10
13.0087
20
1.00153
11
13
21
1
0
LINE
8
Black
10
13
20
1
11
11.1
21
1
0
LINE
8
Black
10
11.1
20
1
11
11.0913
21
1.00153
0
LINE
8
Black
10
11.0913
20
1.00153
11
11.0826
21
1.00076
0
LINE
8
Black
10
11.0826
20
1.00076
11
11.0573
21
1.00752
0
LINE
8
Black
10
11.0573
20
1.00752
11
11.0316
21
1.01206
0
LINE
8
Black
10
11.0316
20
1.01206
11
11.024
21
1.01646
0
LINE
8
Black
10
11.024
20
1.01646
11
11.0155
21
1.01874
0
LINE
8
Black
10
11.0155
20
1.01874
11
10.9941
21
1.03373
0
LINE
8
Black
10
10.9941
20
1.03373
11
10.9714
21
1.04679
0
LINE
8
Black
10
10.9714
20
1.04679
11
10.9658
21
1.05353
0
LINE
8
Black
10
10.9658
20
1.05353
11
10.9586
21
1.05858
0
LINE
8
Black
10
10.9586
20
1.05858
11
9.31716
21
2.7
0
LINE
8
Black
10
9.31716
20
2.7
11
8.21933
21
2.7
0
LINE
8
Black
10
8.21933
20
2.7
11
8.19357
21
2.66931
0
LINE
8
Black
10
8.19357
20
2.66931
11
8.103
21
2.61702
0
LINE
8
Black
10
8.103
20
2.61702
11
8
21
2.59885
0
LINE
8
Black
10
8
20
2.59885
11
7.897
21
2.61702
0
LINE
8
Black
10
7.897
20
2.61702
11
7.80643
21
2.66931
0
LINE
8
Black
10
7.80643
20
2.66931
11
7.7392
21
2.74943
0
LINE
8
Black
10
7.7392
20
2.74943
11
7.70343
21
2.84771
0
LINE
8
Black
10
7.70343
20
2.84771
11
7.70343
21
2.95229
0
LINE
8
Black
10
7.70343
20
2.95229
11
7.7392
21
3.05057
0
LINE
8
Black
10
7.7392
20
3.05057
11
7.80643
21
3.13069
0
LINE
8
Black
10
7.80643
20
3.13069
11
7.897
21
3.18299
0
LINE
8
Black
10
7.897
20
3.18299
11
8
21
3.20115
0
LINE
8
Black
10
8
20
3.20115
11
8.103
21
3.18299
0
LINE
8
Black
10
8.103
20
3.18299
11
8.19357
21
3.13069
0
LINE
8
Black
10
8.19357
20
3.13069
11
8.21933
21
3.1
0
LINE
8
Black
10
8.21933
20
3.1
11
9.4
21
3.1
0
LINE
8
Black
10
9.4
20
3.1
11
9.40867
21
3.09847
0
LINE
8
Black
10
9.40867
20
3.09847
11
9.41743
21
3.09924
0
LINE
8
Black
10
9.41743
20
3.09924
11
9.44267
21
3.09248
0
LINE
8
Black
10
9.44267
20
3.09248
11
9.4684
21
3.08794
0
LINE
8
Black
10
9.4684
20
3.08794
11
9.47602
21
3.08354
0
LINE
8
Black
10
9.47602
20
3.08354
11
9.48452
21
3.08126
0
LINE
8
Black
10
9.48452
20
3.08126
11
9.50593
21
3.06628
0
LINE
8
Black
10
9.50593
20
3.06628
11
9.52856
21
3.05321
0
LINE
8
Black
10
9.52856
20
3.05321
11
9.53422
21
3.04647
0
LINE
8
Black
10
9.53422
20
3.04647
11
9.54142
21
3.04142
0
LINE
8
Black
10
9.54142
20
3.04142
11
11.1828
21
1.4
0
LINE
8
Black
10
11.1828
20
1.4
11
12.9172
21
1.4
0
LINE
8
Black
10
12.9172
20
1.4
11
13.4586
21
1.94142
0
LINE
8
Black
10
13.4586
20
1.94142
11
13.4658
21
1.94647
0
LINE
8
Black
10
13.4658
20
1.94647
11
13.4714
21
1.95321
0
LINE
8
Black
10
13.4714
20
1.95321
11
13.4941
21
1.96628
0
LINE
8
Black
10
13.4941
20
1.96628
11
13.5155
21
1.98126
0
LINE
8
Black
10
13.5155
20
1.98126
11
13.524
21
1.98354
0
LINE
8
Black
10
13.524
20
1.98354
11
13.5316
21
1.98794
0
LINE
8
Black
10
13.5316
20
1.98794
11
13.5573
21
1.99248
0
LINE
8
Black
10
13.5573
20
1.99248
11
13.5826
21
1.99924
0
LINE
8
Black
10
13.5826
20
1.99924
11
13.5913
21
1.99847
0
LINE
8
Black
10
13.5913
20
1.99847
11
13.6
21
2
0
LINE
8
Black
10
13.6
20
2
11
18.4172
21
2
0
LINE
8
Black
10
18.4172
20
2
11
19.7586
21
3.34142
0
LINE
8
Black
10
19.7586
20
3.34142
11
19.7658
21
3.34647
0
LINE
8
Black
10
19.7658
20
3.34647
11
19.7714
21
3.35321
0
LINE
8
Black
10
19.7714
20
3.35321
11
19.7941
21
3.36628
0
LINE
8
Black
10
19.7941
20
3.36628
11
19.8155
21
3.38126
0
LINE
8
Black
10
19.8155
20
3.38126
11
19.824
21
3.38354
0
LINE
8
Black
10
19.824
20
3.38354
11
19.8316
21
3.38794
0
LINE
8
Black
10
19.8316
20
3.38794
11
19.8573
21
3.39248
0
LINE
8
Black
10
19.8573
20
3.39248
11
19.8826
21
3.39924
0
LINE
8
Black
10
19.8826
20
3.39924
11
19.8913
21
3.39847
0
LINE
8
Black
10
19.8913
20
3.39847
11
19.9
21
3.4
0
LINE
8
Black
10
19.9
20
3.4
11
24.8
21
3.4
0
LINE
8
Black
10
24.8
20
3.4
11
24.8087
21
3.39847
0
LINE
8
Black
10
24.8087
20
3.39847
11
24.8174
21
3.39924
0
LINE
8
Black
10
24.8174
20
3.39924
11
24.8427
21
3.39248
0
LINE
8
Black
10
24.8427
20
3.39248
11
24.8684
21
3.38794
0
LINE
8
Black
10
24.8684
20
3.38794
11
24.876
21
3.38354
0
LINE
8
Black
10
24.876
20
3.38354
11
24.8845
21
3.38126
0
LINE
8
Black
10
24.8845
20
3.38126
11
24.9059
21
3.36628
0
LINE
8
Black
10
24.9059
20
3.36628
11
24.9286
21
3.35321
0
LINE
8
Black
10
24.9286
20
3.35321
11
24.9342
21
3.34647
0
LINE
8
Black
10
24.9342
20
3.34647
11
24.9414
21
3.34142
0
LINE
8
Black
10
24.9414
20
3.34142
11
25.2828
21
3
0
LINE
8
Black
10
25.2828
20
3
11
43.1172
21
3
0
LINE
8
Black
10
43.1172
20
3
11
49.4
21
9.28284
0
LINE
8
Black
10
49.4
20
9.28284
11
49.4
21
10.6
0
LINE
8
Black
10
49.4
20
10.6
11
49.4015
21
10.6087
0
LINE
8
Black
10
49.4015
20
10.6087
11
49.4008
21
10.6174
0
LINE
8
Black
10
49.4008
20
10.6174
11
49.4075
21
10.6427
0
LINE
8
Black
10
49.4075
20
10.6427
11
49.4121
21
10.6684
0
LINE
8
Black
10
49.4121
20
10.6684
11
49.4165
21
10.676
0
LINE
8
Black
10
49.4165
20
10.676
11
49.4187
21
10.6845
0
LINE
8
Black
10
49.4187
20
10.6845
11
49.4337
21
10.7059
0
LINE
8
Black
10
49.4337
20
10.7059
11
49.4468
21
10.7286
0
LINE
8
Black
10
49.4468
20
10.7286
11
49.4535
21
10.7342
0
LINE
8
Black
10
49.4535
20
10.7342
11
49.4586
21
10.7414
0
LINE
8
Black
10
49.4586
20
10.7414
11
50.4
21
11.6828
0
LINE
8
Black
10
50.4
20
11.6828
11
50.4
21
21.4172
0
LINE
8
Black
10
50.4
20
21.4172
11
47.9586
21
23.8586
0
LINE
8
Black
10
47.9586
20
23.8586
11
47.9535
21
23.8658
0
LINE
8
Black
10
47.9535
20
23.8658
11
47.9468
21
23.8714
0
LINE
8
Black
10
47.9468
20
23.8714
11
47.9337
21
23.8941
0
LINE
8
Black
10
47.9337
20
23.8941
11
47.9187
21
23.9155
0
LINE
8
Black
10
47.9187
20
23.9155
11
47.9165
21
23.924
0
LINE
8
Black
10
47.9165
20
23.924
11
47.9121
21
23.9316
0
LINE
8
Black
10
47.9121
20
23.9316
11
47.9075
21
23.9573
0
LINE
8
Black
10
47.9075
20
23.9573
11
47.9008
21
23.9826
0
LINE
8
Black
10
47.9008
20
23.9826
11
47.9015
21
23.9913
0
LINE
8
Black
10
47.9015
20
23.9913
11
47.9
21
24
0
LINE
8
Black
10
47.9
20
24
11
47.9
21
24.8172
0
LINE
8
Black
10
47.9
20
24.8172
11
47.3986
21
25.3186
0
LINE
8
Black
10
47.3986
20
25.3186
11
47.3935
21
25.3258
0
LINE
8
Black
10
47.3935
20
25.3258
11
47.3868
21
25.3314
0
LINE
8
Black
10
47.3868
20
25.3314
11
47.3737
21
25.3541
0
LINE
8
Black
10
47.3737
20
25.3541
11
47.3587
21
25.3755
0
LINE
8
Black
10
47.3587
20
25.3755
11
47.3565
21
25.384
0
LINE
8
Black
10
47.3565
20
25.384
11
47.3521
21
25.3916
0
LINE
8
Black
10
47.3521
20
25.3916
11
47.3475
21
25.4173
0
LINE
8
Black
10
47.3475
20
25.4173
11
47.3408
21
25.4426
0
LINE
8
Black
10
47.3408
20
25.4426
11
47.3415
21
25.4513
0
LINE
8
Black
10
47.3415
20
25.4513
11
47.34
21
25.46
0
LINE
8
Black
10
47.34
20
25.46
11
47.34
21
26.0115
0
LINE
8
Black
10
47.34
20
26.0115
11
47.1082
21
26.0958
0
LINE
8
Black
10
47.1082
20
26.0958
11
46.8784
21
26.2886
0
LINE
8
Black
10
46.8784
20
26.2886
11
46.7285
21
26.5484
0
LINE
8
Black
10
46.7285
20
26.5484
11
46.6764
21
26.8437
0
LINE
8
Black
10
46.6764
20
26.8437
11
46.6764
21
27.1563
0
LINE
8
Black
10
46.6764
20
27.1563
11
46.7285
21
27.4517
0
LINE
8
Black
10
46.7285
20
27.4517
11
46.8784
21
27.7114
0
LINE
8
Black
10
46.8784
20
27.7114
11
47.1082
21
27.9042
0
LINE
8
Black
10
47.1082
20
27.9042
11
47.39
21
28.0068
0
LINE
8
Black
10
47.39
20
28.0068
11
47.69
21
28.0068
0
LINE
8
Black
10
47.69
20
28.0068
11
47.9718
21
27.9042
0
LINE
8
Black
10
50.5118
20
27.9042
11
50.7416
21
27.7114
0
LINE
8
Black
10
50.7416
20
27.7114
11
50.8915
21
27.4517
0
LINE
8
Black
10
50.8915
20
27.4517
11
50.9436
21
27.1563
0
LINE
8
Black
10
50.9436
20
27.1563
11
50.9436
21
26.8437
0
LINE
8
Black
10
50.9436
20
26.8437
11
50.8915
21
26.5484
0
LINE
8
Black
10
50.8915
20
26.5484
11
50.7416
21
26.2886
0
LINE
8
Black
10
50.7416
20
26.2886
11
50.5118
21
26.0958
0
LINE
8
Black
10
50.5118
20
26.0958
11
50.334
21
26.0311
0
LINE
8
Black
10
50.334
20
26.0311
11
50.334
21
25.5907
0
LINE
8
Black
10
50.334
20
25.5907
11
50.4462
21
25.5321
0
LINE
8
Black
10
50.4462
20
25.5321
11
50.7599
21
25.6832
0
LINE
8
Black
10
50.7599
20
25.6832
11
50.7766
21
25.6879
0
LINE
8
Black
10
50.7766
20
25.6879
11
50.7929
21
25.6939
0
LINE
8
Black
10
50.7929
20
25.6939
11
50.7977
21
25.6939
0
LINE
8
Black
10
50.7977
20
25.6939
11
50.8023
21
25.6952
0
LINE
8
Black
10
50.8023
20
25.6952
11
50.8197
21
25.6939
0
LINE
8
Black
10
50.8197
20
25.6939
11
50.8371
21
25.6939
0
LINE
8
Black
10
50.8371
20
25.6939
11
50.8416
21
25.6922
0
LINE
8
Black
10
50.8416
20
25.6922
11
50.8463
21
25.6919
0
LINE
8
Black
10
50.8463
20
25.6919
11
50.8622
21
25.6847
0
LINE
8
Black
10
50.8622
20
25.6847
11
50.8785
21
25.6788
0
LINE
8
Black
10
50.8785
20
25.6788
11
50.8822
21
25.6757
0
LINE
8
Black
10
50.8822
20
25.6757
11
50.8865
21
25.6737
0
LINE
8
Black
10
50.8865
20
25.6737
11
50.899
21
25.6616
0
LINE
8
Black
10
50.899
20
25.6616
11
50.9123
21
25.6504
0
LINE
8
Black
10
50.9123
20
25.6504
11
50.9147
21
25.6463
0
LINE
8
Black
10
50.9147
20
25.6463
11
50.9181
21
25.643
0
LINE
8
Black
10
50.9181
20
25.643
11
50.9256
21
25.6273
0
LINE
8
Black
10
50.9256
20
25.6273
11
50.9343
21
25.6122
0
LINE
8
Black
10
50.9343
20
25.6122
11
50.9352
21
25.6075
0
LINE
8
Black
10
50.9352
20
25.6075
11
50.9372
21
25.6032
0
LINE
8
Black
10
50.9372
20
25.6032
11
50.939
21
25.5859
0
LINE
8
Black
10
50.939
20
25.5859
11
50.942
21
25.5688
0
LINE
8
Black
10
50.942
20
25.5688
11
50.942
21
22.4659
0
LINE
8
Black
10
50.942
20
22.4659
11
50.9401
21
22.4549
0
LINE
8
Black
10
50.9401
20
22.4549
11
50.9401
21
22.4438
0
LINE
8
Black
10
50.9401
20
22.4438
11
50.9382
21
22.4386
0
LINE
8
Black
10
50.9382
20
22.4386
11
50.9377
21
22.433
0
LINE
8
Black
10
50.9377
20
22.433
11
50.9353
21
22.4279
0
LINE
8
Black
10
50.9353
20
22.4279
11
50.9343
21
22.4224
0
LINE
8
Black
10
50.9343
20
22.4224
11
50.9288
21
22.4128
0
LINE
8
Black
10
50.9288
20
22.4128
11
50.925
21
22.4024
0
LINE
8
Black
10
50.925
20
22.4024
11
50.9214
21
22.3981
0
LINE
8
Black
10
50.9214
20
22.3981
11
50.919
21
22.393
0
LINE
8
Black
10
50.919
20
22.393
11
50.9151
21
22.3891
0
LINE
8
Black
10
50.9151
20
22.3891
11
50.9123
21
22.3842
0
LINE
8
Black
10
50.9123
20
22.3842
11
50.9038
21
22.3771
0
LINE
8
Black
10
50.9038
20
22.3771
11
50.8966
21
22.3686
0
LINE
8
Black
10
50.8966
20
22.3686
11
50.8918
21
22.3658
0
LINE
8
Black
10
50.8918
20
22.3658
11
50.8878
21
22.3618
0
LINE
8
Black
10
50.8878
20
22.3618
11
50.8828
21
22.3595
0
LINE
8
Black
10
50.8828
20
22.3595
11
50.8785
21
22.3559
0
LINE
8
Black
10
50.8785
20
22.3559
11
50.8681
21
22.3521
0
LINE
8
Black
10
50.8681
20
22.3521
11
50.8584
21
22.3465
0
LINE
8
Black
10
50.8584
20
22.3465
11
50.8529
21
22.3456
0
LINE
8
Black
10
50.8529
20
22.3456
11
50.8479
21
22.3432
0
LINE
8
Black
10
50.8479
20
22.3432
11
50.8423
21
22.3427
0
LINE
8
Black
10
50.8423
20
22.3427
11
50.8371
21
22.3408
0
LINE
8
Black
10
50.8371
20
22.3408
11
50.8259
21
22.3408
0
LINE
8
Black
10
50.8259
20
22.3408
11
50.815
21
22.3389
0
LINE
8
Black
10
50.815
20
22.3389
11
50.8095
21
22.3398
0
LINE
8
Black
10
50.8095
20
22.3398
11
50.8039
21
22.3394
0
LINE
8
Black
10
50.8039
20
22.3394
11
50.7985
21
22.3408
0
LINE
8
Black
10
50.7985
20
22.3408
11
50.7929
21
22.3408
0
LINE
8
Black
10
50.7929
20
22.3408
11
50.7825
21
22.3446
0
LINE
8
Black
10
50.7825
20
22.3446
11
50.7716
21
22.3465
0
LINE
8
Black
10
50.7716
20
22.3465
11
50.7667
21
22.3493
0
LINE
8
Black
10
50.7667
20
22.3493
11
50.7613
21
22.3508
0
LINE
8
Black
10
50.7613
20
22.3508
11
50.7567
21
22.354
0
LINE
8
Black
10
50.7567
20
22.354
11
50.7515
21
22.3559
0
LINE
8
Black
10
50.7515
20
22.3559
11
50.743
21
22.363
0
LINE
8
Black
10
50.743
20
22.363
11
50.7334
21
22.3686
0
LINE
8
Black
10
50.7334
20
22.3686
11
50.7298
21
22.3729
0
LINE
8
Black
10
50.7298
20
22.3729
11
50.7252
21
22.3761
0
LINE
8
Black
10
50.7252
20
22.3761
11
48.8452
21
24.2561
0
LINE
8
Black
10
48.8452
20
24.2561
11
48.842
21
24.2606
0
LINE
8
Black
10
48.842
20
24.2606
11
48.8377
21
24.2642
0
LINE
8
Black
10
48.8377
20
24.2642
11
48.8294
21
24.2786
0
LINE
8
Black
10
48.8294
20
24.2786
11
48.8199
21
24.2922
0
LINE
8
Black
10
48.8199
20
24.2922
11
48.8185
21
24.2976
0
LINE
8
Black
10
48.8185
20
24.2976
11
48.8157
21
24.3024
0
LINE
8
Black
10
48.8157
20
24.3024
11
48.8128
21
24.3188
0
LINE
8
Black
10
48.8128
20
24.3188
11
48.8085
21
24.3348
0
LINE
8
Black
10
48.8085
20
24.3348
11
48.809
21
24.3404
0
LINE
8
Black
10
48.809
20
24.3404
11
48.808
21
24.3459
0
LINE
8
Black
10
48.808
20
24.3459
11
48.808
21
24.8875
0
LINE
8
Black
10
48.808
20
24.8875
11
48.7518
21
25.17
0
LINE
8
Black
10
48.7518
20
25.17
11
48.5918
21
25.4095
0
LINE
8
Black
10
48.5918
20
25.4095
11
48.4053
21
25.5959
0
LINE
8
Black
10
48.4053
20
25.5959
11
48.4045
21
25.5971
0
LINE
8
Black
10
48.4045
20
25.5971
11
48.4034
21
25.5979
0
LINE
8
Black
10
48.4034
20
25.5979
11
48.3919
21
25.6151
0
LINE
8
Black
10
48.3919
20
25.6151
11
48.38
21
25.6321
0
LINE
8
Black
10
48.38
20
25.6321
11
48.3797
21
25.6334
0
LINE
8
Black
10
48.3797
20
25.6334
11
48.3789
21
25.6346
0
LINE
8
Black
10
48.3789
20
25.6346
11
48.374
21
25.6547
0
LINE
8
Black
10
48.374
20
25.6547
11
48.3686
21
25.6747
0
LINE
8
Black
10
48.3686
20
25.6747
11
48.3687
21
25.6761
0
LINE
8
Black
10
48.3687
20
25.6761
11
48.3684
21
25.6774
0
LINE
8
Black
10
48.3684
20
25.6774
11
48.3707
21
25.698
0
LINE
8
Black
10
48.3707
20
25.698
11
48.3725
21
25.7186
0
LINE
8
Black
10
48.3725
20
25.7186
11
48.3731
21
25.7199
0
LINE
8
Black
10
48.3731
20
25.7199
11
48.3732
21
25.7213
0
LINE
8
Black
10
48.3732
20
25.7213
11
48.3824
21
25.7398
0
LINE
8
Black
10
48.3824
20
25.7398
11
48.3911
21
25.7586
0
LINE
8
Black
10
48.3911
20
25.7586
11
48.3921
21
25.7596
0
LINE
8
Black
10
48.3921
20
25.7596
11
48.3927
21
25.7608
0
LINE
8
Black
10
48.3927
20
25.7608
11
48.4076
21
25.7751
0
LINE
8
Black
10
48.4076
20
25.7751
11
48.4223
21
25.7898
0
LINE
8
Black
10
48.4223
20
25.7898
11
48.4236
21
25.7904
0
LINE
8
Black
10
48.4236
20
25.7904
11
48.4246
21
25.7913
0
LINE
8
Black
10
48.4246
20
25.7913
11
48.5081
21
25.8471
0
LINE
8
Black
10
48.5081
20
25.8471
11
48.7009
21
26.1356
0
LINE
8
Black
10
48.7009
20
26.1356
11
48.7043
21
26.1392
0
LINE
8
Black
10
48.7043
20
26.1392
11
48.7067
21
26.1436
0
LINE
8
Black
10
48.7067
20
26.1436
11
48.7195
21
26.1551
0
LINE
8
Black
10
48.7195
20
26.1551
11
48.7314
21
26.1675
0
LINE
8
Black
10
48.7314
20
26.1675
11
48.7358
21
26.1697
0
LINE
8
Black
10
48.7358
20
26.1697
11
48.7396
21
26.173
0
LINE
8
Black
10
48.7396
20
26.173
11
48.7555
21
26.1794
0
LINE
8
Black
10
48.7555
20
26.1794
11
48.7709
21
26.187
0
LINE
8
Black
10
48.7709
20
26.187
11
48.7759
21
26.1875
0
LINE
8
Black
10
48.7759
20
26.1875
11
48.7805
21
26.1894
0
LINE
8
Black
10
48.7805
20
26.1894
11
48.7977
21
26.1899
0
LINE
8
Black
10
48.7977
20
26.1899
11
48.8148
21
26.1918
0
LINE
8
Black
10
48.8148
20
26.1918
11
48.8196
21
26.1906
0
LINE
8
Black
10
48.8196
20
26.1906
11
48.8246
21
26.1908
0
LINE
8
Black
10
48.8246
20
26.1908
11
48.8409
21
26.1854
0
LINE
8
Black
10
48.8409
20
26.1854
11
48.8576
21
26.1813
0
LINE
8
Black
10
48.8576
20
26.1813
11
48.8618
21
26.1785
0
LINE
8
Black
10
48.8618
20
26.1785
11
48.8665
21
26.177
0
LINE
8
Black
10
48.8665
20
26.177
11
48.88
21
26.1664
0
LINE
8
Black
10
48.88
20
26.1664
11
48.8943
21
26.1568
0
LINE
8
Black
10
48.8943
20
26.1568
11
48.8972
21
26.1528
0
LINE
8
Black
10
48.8972
20
26.1528
11
48.9012
21
26.1497
0
LINE
8
Black
10
48.9012
20
26.1497
11
49.2558
21
25.7527
0
LINE
8
Black
10
49.2558
20
25.7527
11
49.7138
21
25.5321
0
LINE
8
Black
10
49.7138
20
25.5321
11
49.826
21
25.5907
0
LINE
8
Black
10
49.826
20
25.5907
11
49.826
21
26.0311
0
LINE
8
Black
10
49.826
20
26.0311
11
49.6482
21
26.0958
0
LINE
8
Black
10
49.6482
20
26.0958
11
49.4184
21
26.2886
0
LINE
8
Black
10
49.4184
20
26.2886
11
49.2685
21
26.5484
0
LINE
8
Black
10
49.2685
20
26.5484
11
49.2164
21
26.8437
0
LINE
8
Black
10
49.2164
20
26.8437
11
49.2164
21
27.1563
0
LINE
8
Black
10
49.2164
20
27.1563
11
49.2685
21
27.4517
0
LINE
8
Black
10
49.2685
20
27.4517
11
49.4184
21
27.7114
0
LINE
8
Black
10
49.4184
20
27.7114
11
49.6482
21
27.9042
0
LINE
8
Black
10
49.6482
20
27.9042
11
49.93
21
28.0068
0
LINE
8
Black
10
49.93
20
28.0068
11
50.23
21
28.0068
0
LINE
8
Black
10
50.23
20
28.0068
11
50.5118
21
27.9042
0
CIRCLE
8
Black
10
1.2
20
27.3
40
0.508
0
CIRCLE
8
Black
10
1.2
20
25
40
0.508
0
CIRCLE
8
Black
10
1.2
20
22.7
40
0.508
0
CIRCLE
8
Black
10
1.2
20
20.4
40
0.508
0
CIRCLE
8
Black
10
1.2
20
18.1
40
0.508
0
CIRCLE
8
Black
10
1.2
20
15.8
40
0.508
0
CIRCLE
8
Black
10
24.4
20
20.36
40
0.508
0
CIRCLE
8
Black
10
24.4
20
25.44
40
0.508
0
CIRCLE
8
Black
10
18.53
20
5.5
40
0.4064
0
CIRCLE
8
Black
10
21.07
20
5.5
40
0.4064
0
CIRCLE
8
Black
10
41.23
20
8.5
40
0.4064
0
CIRCLE
8
Black
10
43.77
20
8.5
40
0.4064
0
CIRCLE
8
Black
10
39.73
20
17
40
0.4064
0
CIRCLE
8
Black
10
42.27
20
17
40
0.4064
0
CIRCLE
8
Black
10
46.73
20
13.5
40
0.4064
0
CIRCLE
8
Black
10
49.27
20
13.5
40
0.4064
0
CIRCLE
8
Black
10
45
20
27
40
0.508
0
CIRCLE
8
Black
10
47.54
20
27
40
0.508
0
CIRCLE
8
Black
10
50.08
20
27
40
0.508
0
CIRCLE
8
Black
10
28.6
20
9.5
40
0.508
0
CIRCLE
8
Black
10
31.14
20
9.5
40
0.508
0
CIRCLE
8
Black
10
28.6
20
6.96
40
0.508
0
CIRCLE
8
Black
10
31.14
20
6.96
40
0.508
0
CIRCLE
8
Black
10
28.6
20
4.42
40
0.508
0
CIRCLE
8
Black
10
31.14
20
4.42
40
0.508
0
CIRCLE
8
Black
10
0.9
20
11.4
40
0.2
0
CIRCLE
8
Black
10
22.1
20
10.2
40
0.2
0
CIRCLE
8
Black
10
2.6
20
12.4
40
0.2
0
CIRCLE
8
Black
10
11.8
20
2
40
0.2
0
CIRCLE
8
Black
10
17.2
20
23.4
40
0.2
0
CIRCLE
8
Black
10
2.3
20
10.3
40
0.2
0
CIRCLE
8
Black
10
20.7
20
12.6
40
0.2
0
CIRCLE
8
Black
10
20.7
20
10.4
40
0.2
0
CIRCLE
8
Black
10
21.7
20
7.4
40
0.2
0
CIRCLE
8
Black
10
8
20
2.9
40
0.2
0
CIRCLE
8
Black
10
34
20
1.9
40
0.2
0
CIRCLE
8
Black
10
9.8
20
1.3
40
0.2
0
CIRCLE
8
Black
10
23.7
20
0.7
40
0.2
0
CIRCLE
8
Black
10
22
20
1.3
40
0.2
  0
ENDSEC
  0
EOF
