  0
SECTION
  2
HEADER
  9
$ANGBASE
  50
0.0
  9
$ANGDIR
  70
  1
  9
$MEASUREMENT
  70
0
  0
ENDSEC
  0
SECTION
  2
TABLES
  0
TABLE
  2
LTYPE
  70
1
  0
LTYPE
  2
CONTINUOUS
  70
0
  3
Solid line
  72
65
  73
0
  40
0.0
  0
ENDTAB
  0
TABLE
  2
STYLE
  70
4
  0
STYLE
  2
KICAD
  70
0
  40
0
  41
1
  42
1
  50
0
  71
0
  3
isocp.shx
  0
STYLE
  2
KICADB
  70
0
  40
0
  41
1
  42
1
  50
0
  71
0
  3
isocp.shx
  0
STYLE
  2
KICADI
  70
0
  40
0
  41
1
  42
1
  50
15
  71
0
  3
isocp.shx
  0
STYLE
  2
KICADBI
  70
0
  40
0
  41
1
  42
1
  50
15
  71
0
  3
isocp.shx
  0
ENDTAB
  0
TABLE
  2
LAYER
  70
30
  0
LAYER
  2
BLACK
  70
0
  62
7
  6
CONTINUOUS
  0
LAYER
  2
GRAY1
  70
0
  62
251
  6
CONTINUOUS
  0
LAYER
  2
GRAY2
  70
0
  62
8
  6
CONTINUOUS
  0
LAYER
  2
GRAY3
  70
0
  62
9
  6
CONTINUOUS
  0
LAYER
  2
WHITE
  70
0
  62
7
  6
CONTINUOUS
  0
LAYER
  2
LYELLOW
  70
0
  62
51
  6
CONTINUOUS
  0
LAYER
  2
BLUE1
  70
0
  62
178
  6
CONTINUOUS
  0
LAYER
  2
GREEN1
  70
0
  62
98
  6
CONTINUOUS
  0
LAYER
  2
CYAN1
  70
0
  62
138
  6
CONTINUOUS
  0
LAYER
  2
RED1
  70
0
  62
18
  6
CONTINUOUS
  0
LAYER
  2
MAGENTA1
  70
0
  62
228
  6
CONTINUOUS
  0
LAYER
  2
BROWN1
  70
0
  62
58
  6
CONTINUOUS
  0
LAYER
  2
BLUE2
  70
0
  62
5
  6
CONTINUOUS
  0
LAYER
  2
GREEN2
  70
0
  62
3
  6
CONTINUOUS
  0
LAYER
  2
CYAN2
  70
0
  62
4
  6
CONTINUOUS
  0
LAYER
  2
RED2
  70
0
  62
1
  6
CONTINUOUS
  0
LAYER
  2
MAGENTA2
  70
0
  62
6
  6
CONTINUOUS
  0
LAYER
  2
BROWN2
  70
0
  62
54
  6
CONTINUOUS
  0
LAYER
  2
BLUE3
  70
0
  62
171
  6
CONTINUOUS
  0
LAYER
  2
GREEN3
  70
0
  62
91
  6
CONTINUOUS
  0
LAYER
  2
CYAN3
  70
0
  62
131
  6
CONTINUOUS
  0
LAYER
  2
RED3
  70
0
  62
11
  6
CONTINUOUS
  0
LAYER
  2
MAGENTA3
  70
0
  62
221
  6
CONTINUOUS
  0
LAYER
  2
YELLOW3
  70
0
  62
2
  6
CONTINUOUS
  0
LAYER
  2
BLUE4
  70
0
  62
5
  6
CONTINUOUS
  0
LAYER
  2
GREEN4
  70
0
  62
3
  6
CONTINUOUS
  0
LAYER
  2
CYAN4
  70
0
  62
4
  6
CONTINUOUS
  0
LAYER
  2
RED4
  70
0
  62
1
  6
CONTINUOUS
  0
LAYER
  2
MAGENTA4
  70
0
  62
6
  6
CONTINUOUS
  0
LAYER
  2
YELLOW4
  70
0
  62
2
  6
CONTINUOUS
  0
ENDTAB
  0
ENDSEC
  0
SECTION
  2
ENTITIES
0
LINE
8
Black
10
-0.004311
20
-0.04924
11
-0.008682
21
-0.04924
0
LINE
8
Black
10
-0.008682
20
-0.04924
11
-0.01279
21
-0.047745
0
LINE
8
Black
10
-0.01279
20
-0.047745
11
-0.017101
21
-0.046985
0
LINE
8
Black
10
-0.017101
20
-0.046985
11
-0.020892
21
-0.044796
0
LINE
8
Black
10
-0.020892
20
-0.044796
11
-0.025
21
-0.043301
0
LINE
8
Black
10
-0.025
20
-0.043301
11
-0.028351
21
-0.040489
0
LINE
8
Black
10
-0.028351
20
-0.040489
11
-0.032139
21
-0.038302
0
LINE
8
Black
10
-0.032139
20
-0.038302
11
-0.034951
21
-0.03495
0
LINE
8
Black
10
-0.034951
20
-0.03495
11
-0.038302
21
-0.032139
0
LINE
8
Black
10
-0.038302
20
-0.032139
11
-0.04049
21
-0.02835
0
LINE
8
Black
10
-0.04049
20
-0.02835
11
-0.043301
21
-0.025
0
LINE
8
Black
10
-0.043301
20
-0.025
11
-0.044797
21
-0.020891
0
LINE
8
Black
10
-0.044797
20
-0.020891
11
-0.046985
21
-0.017101
0
LINE
8
Black
10
-0.046985
20
-0.017101
11
-0.047746
21
-0.012789
0
LINE
8
Black
10
-0.047746
20
-0.012789
11
-0.04924
21
-0.008682
0
LINE
8
Black
10
-0.04924
20
-0.008682
11
-0.04924
21
-0.00431
0
LINE
8
Black
10
-0.04924
20
-0.00431
11
-0.05
21
0
0
LINE
8
Black
10
-0.05
20
0
11
-0.05
21
28.5
0
LINE
8
Black
10
-0.05
20
28.5
11
-0.04924
21
28.5043
0
LINE
8
Black
10
-0.04924
20
28.5043
11
-0.04924
21
28.5087
0
LINE
8
Black
10
-0.04924
20
28.5087
11
-0.047746
21
28.5128
0
LINE
8
Black
10
-0.047746
20
28.5128
11
-0.046985
21
28.5171
0
LINE
8
Black
10
-0.046985
20
28.5171
11
-0.044797
21
28.5209
0
LINE
8
Black
10
-0.044797
20
28.5209
11
-0.043301
21
28.525
0
LINE
8
Black
10
-0.043301
20
28.525
11
-0.04049
21
28.5284
0
LINE
8
Black
10
-0.04049
20
28.5284
11
-0.038302
21
28.5321
0
LINE
8
Black
10
-0.038302
20
28.5321
11
-0.034951
21
28.535
0
LINE
8
Black
10
-0.034951
20
28.535
11
-0.032139
21
28.5383
0
LINE
8
Black
10
-0.032139
20
28.5383
11
-0.028351
21
28.5405
0
LINE
8
Black
10
-0.028351
20
28.5405
11
-0.025
21
28.5433
0
LINE
8
Black
10
-0.025
20
28.5433
11
-0.020892
21
28.5448
0
LINE
8
Black
10
-0.020892
20
28.5448
11
-0.017101
21
28.547
0
LINE
8
Black
10
-0.017101
20
28.547
11
-0.01279
21
28.5477
0
LINE
8
Black
10
-0.01279
20
28.5477
11
-0.008682
21
28.5492
0
LINE
8
Black
10
-0.008682
20
28.5492
11
-0.004311
21
28.5492
0
LINE
8
Black
10
-0.004311
20
28.5492
11
0
21
28.55
0
LINE
8
Black
10
0
20
28.55
11
51.5
21
28.55
0
LINE
8
Black
10
51.5
20
28.55
11
51.5043
21
28.5492
0
LINE
8
Black
10
51.5043
20
28.5492
11
51.5087
21
28.5492
0
LINE
8
Black
10
51.5087
20
28.5492
11
51.5128
21
28.5477
0
LINE
8
Black
10
51.5128
20
28.5477
11
51.5171
21
28.547
0
LINE
8
Black
10
51.5171
20
28.547
11
51.5209
21
28.5448
0
LINE
8
Black
10
51.5209
20
28.5448
11
51.525
21
28.5433
0
LINE
8
Black
10
51.525
20
28.5433
11
51.5284
21
28.5405
0
LINE
8
Black
10
51.5284
20
28.5405
11
51.5321
21
28.5383
0
LINE
8
Black
10
51.5321
20
28.5383
11
51.535
21
28.535
0
LINE
8
Black
10
51.535
20
28.535
11
51.5383
21
28.5321
0
LINE
8
Black
10
51.5383
20
28.5321
11
51.5405
21
28.5284
0
LINE
8
Black
10
51.5405
20
28.5284
11
51.5433
21
28.525
0
LINE
8
Black
10
51.5433
20
28.525
11
51.5448
21
28.5209
0
LINE
8
Black
10
51.5448
20
28.5209
11
51.547
21
28.5171
0
LINE
8
Black
10
51.547
20
28.5171
11
51.5477
21
28.5128
0
LINE
8
Black
10
51.5477
20
28.5128
11
51.5492
21
28.5087
0
LINE
8
Black
10
51.5492
20
28.5087
11
51.5492
21
28.5043
0
LINE
8
Black
10
51.5492
20
28.5043
11
51.55
21
28.5
0
LINE
8
Black
10
51.55
20
28.5
11
51.55
21
0
0
LINE
8
Black
10
51.55
20
0
11
51.5492
21
-0.00431
0
LINE
8
Black
10
51.5492
20
-0.00431
11
51.5492
21
-0.008682
0
LINE
8
Black
10
51.5492
20
-0.008682
11
51.5477
21
-0.012789
0
LINE
8
Black
10
51.5477
20
-0.012789
11
51.547
21
-0.017101
0
LINE
8
Black
10
51.547
20
-0.017101
11
51.5448
21
-0.020891
0
LINE
8
Black
10
51.5448
20
-0.020891
11
51.5433
21
-0.025
0
LINE
8
Black
10
51.5433
20
-0.025
11
51.5405
21
-0.02835
0
LINE
8
Black
10
51.5405
20
-0.02835
11
51.5383
21
-0.032139
0
LINE
8
Black
10
51.5383
20
-0.032139
11
51.535
21
-0.03495
0
LINE
8
Black
10
51.535
20
-0.03495
11
51.5321
21
-0.038302
0
LINE
8
Black
10
51.5321
20
-0.038302
11
51.5284
21
-0.040489
0
LINE
8
Black
10
51.5284
20
-0.040489
11
51.525
21
-0.043301
0
LINE
8
Black
10
51.525
20
-0.043301
11
51.5209
21
-0.044796
0
LINE
8
Black
10
51.5209
20
-0.044796
11
51.5171
21
-0.046985
0
LINE
8
Black
10
51.5171
20
-0.046985
11
51.5128
21
-0.047745
0
LINE
8
Black
10
51.5128
20
-0.047745
11
51.5087
21
-0.04924
0
LINE
8
Black
10
51.5087
20
-0.04924
11
51.5043
21
-0.04924
0
LINE
8
Black
10
51.5043
20
-0.04924
11
51.5
21
-0.05
0
LINE
8
Black
10
51.5
20
-0.05
11
0
21
-0.05
0
LINE
8
Black
10
0
20
-0.05
11
-0.004311
21
-0.04924
0
LINE
8
Black
10
51.45
20
28.45
11
0.05
21
28.45
0
LINE
8
Black
10
0.05
20
28.45
11
0.05
21
0.05
0
LINE
8
Black
10
0.05
20
0.05
11
51.45
21
0.05
0
LINE
8
Black
10
51.45
20
0.05
11
51.45
21
28.45
  0
ENDSEC
  0
EOF
