  0
SECTION
  2
HEADER
  9
$ANGBASE
  50
0.0
  9
$ANGDIR
  70
  1
  9
$MEASUREMENT
  70
0
  0
ENDSEC
  0
SECTION
  2
TABLES
  0
TABLE
  2
LTYPE
  70
1
  0
LTYPE
  2
CONTINUOUS
  70
0
  3
Solid line
  72
65
  73
0
  40
0.0
  0
ENDTAB
  0
TABLE
  2
STYLE
  70
4
  0
STYLE
  2
KICAD
  70
0
  40
0
  41
1
  42
1
  50
0
  71
0
  3
isocp.shx
  0
STYLE
  2
KICADB
  70
0
  40
0
  41
1
  42
1
  50
0
  71
0
  3
isocp.shx
  0
STYLE
  2
KICADI
  70
0
  40
0
  41
1
  42
1
  50
15
  71
0
  3
isocp.shx
  0
STYLE
  2
KICADBI
  70
0
  40
0
  41
1
  42
1
  50
15
  71
0
  3
isocp.shx
  0
ENDTAB
  0
TABLE
  2
LAYER
  70
30
  0
LAYER
  2
BLACK
  70
0
  62
7
  6
CONTINUOUS
  0
LAYER
  2
GRAY1
  70
0
  62
251
  6
CONTINUOUS
  0
LAYER
  2
GRAY2
  70
0
  62
8
  6
CONTINUOUS
  0
LAYER
  2
GRAY3
  70
0
  62
9
  6
CONTINUOUS
  0
LAYER
  2
WHITE
  70
0
  62
7
  6
CONTINUOUS
  0
LAYER
  2
LYELLOW
  70
0
  62
51
  6
CONTINUOUS
  0
LAYER
  2
BLUE1
  70
0
  62
178
  6
CONTINUOUS
  0
LAYER
  2
GREEN1
  70
0
  62
98
  6
CONTINUOUS
  0
LAYER
  2
CYAN1
  70
0
  62
138
  6
CONTINUOUS
  0
LAYER
  2
RED1
  70
0
  62
18
  6
CONTINUOUS
  0
LAYER
  2
MAGENTA1
  70
0
  62
228
  6
CONTINUOUS
  0
LAYER
  2
BROWN1
  70
0
  62
58
  6
CONTINUOUS
  0
LAYER
  2
BLUE2
  70
0
  62
5
  6
CONTINUOUS
  0
LAYER
  2
GREEN2
  70
0
  62
3
  6
CONTINUOUS
  0
LAYER
  2
CYAN2
  70
0
  62
4
  6
CONTINUOUS
  0
LAYER
  2
RED2
  70
0
  62
1
  6
CONTINUOUS
  0
LAYER
  2
MAGENTA2
  70
0
  62
6
  6
CONTINUOUS
  0
LAYER
  2
BROWN2
  70
0
  62
54
  6
CONTINUOUS
  0
LAYER
  2
BLUE3
  70
0
  62
171
  6
CONTINUOUS
  0
LAYER
  2
GREEN3
  70
0
  62
91
  6
CONTINUOUS
  0
LAYER
  2
CYAN3
  70
0
  62
131
  6
CONTINUOUS
  0
LAYER
  2
RED3
  70
0
  62
11
  6
CONTINUOUS
  0
LAYER
  2
MAGENTA3
  70
0
  62
221
  6
CONTINUOUS
  0
LAYER
  2
YELLOW3
  70
0
  62
2
  6
CONTINUOUS
  0
LAYER
  2
BLUE4
  70
0
  62
5
  6
CONTINUOUS
  0
LAYER
  2
GREEN4
  70
0
  62
3
  6
CONTINUOUS
  0
LAYER
  2
CYAN4
  70
0
  62
4
  6
CONTINUOUS
  0
LAYER
  2
RED4
  70
0
  62
1
  6
CONTINUOUS
  0
LAYER
  2
MAGENTA4
  70
0
  62
6
  6
CONTINUOUS
  0
LAYER
  2
YELLOW4
  70
0
  62
2
  6
CONTINUOUS
  0
ENDTAB
  0
ENDSEC
  0
SECTION
  2
ENTITIES
0
LINE
8
Black
10
2.2
20
26.3
11
0.2
21
26.3
0
LINE
8
Black
10
0.2
20
26.3
11
0.2
21
28.3
0
LINE
8
Black
10
0.2
20
28.3
11
2.2
21
28.3
0
LINE
8
Black
10
2.2
20
28.3
11
2.2
21
26.3
0
LINE
8
Black
10
2.2
20
24
11
0.2
21
24
0
LINE
8
Black
10
0.2
20
24
11
0.2
21
26
0
LINE
8
Black
10
0.2
20
26
11
2.2
21
26
0
LINE
8
Black
10
2.2
20
26
11
2.2
21
24
0
LINE
8
Black
10
2.2
20
21.7
11
0.2
21
21.7
0
LINE
8
Black
10
0.2
20
21.7
11
0.2
21
23.7
0
LINE
8
Black
10
0.2
20
23.7
11
2.2
21
23.7
0
LINE
8
Black
10
2.2
20
23.7
11
2.2
21
21.7
0
LINE
8
Black
10
2.2
20
14.8
11
0.2
21
14.8
0
LINE
8
Black
10
0.2
20
14.8
11
0.2
21
16.8
0
LINE
8
Black
10
0.2
20
16.8
11
2.2
21
16.8
0
LINE
8
Black
10
2.2
20
16.8
11
2.2
21
14.8
0
LINE
8
Black
10
2.2
20
18.354
11
2.62364
21
18.354
0
LINE
8
Black
10
2.62364
20
18.354
11
2.708
21
18.4384
0
LINE
8
Black
10
2.708
20
18.4384
11
2.708
21
18.8841
0
LINE
8
Black
10
2.708
20
18.8841
11
2.71088
21
18.9005
0
LINE
8
Black
10
2.71088
20
18.9005
11
2.71233
21
18.917
0
LINE
8
Black
10
2.71233
20
18.917
11
2.71469
21
18.9221
0
LINE
8
Black
10
2.71469
20
18.9221
11
2.71566
21
18.9276
0
LINE
8
Black
10
2.71566
20
18.9276
11
2.72396
21
18.9419
0
LINE
8
Black
10
2.72396
20
18.9419
11
2.73097
21
18.957
0
LINE
8
Black
10
2.73097
20
18.957
11
2.73492
21
18.9609
0
LINE
8
Black
10
2.73492
20
18.9609
11
2.73771
21
18.9658
0
LINE
8
Black
10
2.73771
20
18.9658
11
2.75042
21
18.9764
0
LINE
8
Black
10
2.75042
20
18.9764
11
2.76216
21
18.9882
0
LINE
8
Black
10
2.76216
20
18.9882
11
2.76722
21
18.9905
0
LINE
8
Black
10
2.76722
20
18.9905
11
2.7715
21
18.9941
0
LINE
8
Black
10
2.7715
20
18.9941
11
2.7871
21
18.9998
0
LINE
8
Black
10
2.7871
20
18.9998
11
2.80213
21
19.0068
0
LINE
8
Black
10
2.80213
20
19.0068
11
2.80769
21
19.0073
0
LINE
8
Black
10
2.80769
20
19.0073
11
2.81295
21
19.0092
0
LINE
8
Black
10
2.81295
20
19.0092
11
2.82954
21
19.0092
0
LINE
8
Black
10
2.82954
20
19.0092
11
2.84607
21
19.0106
0
LINE
8
Black
10
2.84607
20
19.0106
11
2.85147
21
19.0092
0
LINE
8
Black
10
2.85147
20
19.0092
11
2.85705
21
19.0092
0
LINE
8
Black
10
2.85705
20
19.0092
11
2.87265
21
19.0035
0
LINE
8
Black
10
2.87265
20
19.0035
11
2.88867
21
18.9992
0
LINE
8
Black
10
2.88867
20
18.9992
11
2.89325
21
18.996
0
LINE
8
Black
10
2.89325
20
18.996
11
2.8985
21
18.9941
0
LINE
8
Black
10
2.8985
20
18.9941
11
2.91121
21
18.9835
0
LINE
8
Black
10
2.91121
20
18.9835
11
2.9248
21
18.9739
0
LINE
8
Black
10
2.9248
20
18.9739
11
2.9548
21
18.9439
0
LINE
8
Black
10
2.9548
20
18.9439
11
2.95801
21
18.9394
0
LINE
8
Black
10
2.95801
20
18.9394
11
2.96229
21
18.9358
0
LINE
8
Black
10
2.96229
20
18.9358
11
2.97059
21
18.9214
0
LINE
8
Black
10
2.97059
20
18.9214
11
2.9801
21
18.9078
0
LINE
8
Black
10
2.9801
20
18.9078
11
2.98155
21
18.9024
0
LINE
8
Black
10
2.98155
20
18.9024
11
2.98434
21
18.8976
0
LINE
8
Black
10
2.98434
20
18.8976
11
2.98722
21
18.8812
0
LINE
8
Black
10
2.98722
20
18.8812
11
2.99152
21
18.8652
0
LINE
8
Black
10
2.99152
20
18.8652
11
2.99103
21
18.8596
0
LINE
8
Black
10
2.99103
20
18.8596
11
2.992
21
18.8541
0
LINE
8
Black
10
2.992
20
18.8541
11
2.992
21
17.8908
0
LINE
8
Black
10
2.992
20
17.8908
11
3.04142
21
17.8414
0
LINE
8
Black
10
3.04142
20
17.8414
11
3.04647
21
17.8342
0
LINE
8
Black
10
3.04647
20
17.8342
11
3.05321
21
17.8286
0
LINE
8
Black
10
3.05321
20
17.8286
11
3.06627
21
17.8059
0
LINE
8
Black
10
3.06627
20
17.8059
11
3.08126
21
17.7845
0
LINE
8
Black
10
3.08126
20
17.7845
11
3.08354
21
17.776
0
LINE
8
Black
10
3.08354
20
17.776
11
3.08794
21
17.7684
0
LINE
8
Black
10
3.08794
20
17.7684
11
3.09248
21
17.7427
0
LINE
8
Black
10
3.09248
20
17.7427
11
3.09924
21
17.7174
0
LINE
8
Black
10
3.09924
20
17.7174
11
3.09847
21
17.7087
0
LINE
8
Black
10
3.09847
20
17.7087
11
3.1
21
17.7
0
LINE
8
Black
10
3.1
20
17.7
11
3.1
21
14.7
0
LINE
8
Black
10
3.1
20
14.7
11
3.09847
21
14.6913
0
LINE
8
Black
10
3.09847
20
14.6913
11
3.09924
21
14.6826
0
LINE
8
Black
10
3.09924
20
14.6826
11
3.09248
21
14.6573
0
LINE
8
Black
10
3.09248
20
14.6573
11
3.08794
21
14.6316
0
LINE
8
Black
10
3.08794
20
14.6316
11
3.08354
21
14.624
0
LINE
8
Black
10
3.08354
20
14.624
11
3.08126
21
14.6155
0
LINE
8
Black
10
3.08126
20
14.6155
11
3.06627
21
14.5941
0
LINE
8
Black
10
3.06627
20
14.5941
11
3.05321
21
14.5714
0
LINE
8
Black
10
3.05321
20
14.5714
11
3.04647
21
14.5658
0
LINE
8
Black
10
3.04647
20
14.5658
11
3.04142
21
14.5586
0
LINE
8
Black
10
3.04142
20
14.5586
11
2.54142
21
14.0586
0
LINE
8
Black
10
2.54142
20
14.0586
11
2.53422
21
14.0535
0
LINE
8
Black
10
2.53422
20
14.0535
11
2.52856
21
14.0468
0
LINE
8
Black
10
2.52856
20
14.0468
11
2.50593
21
14.0337
0
LINE
8
Black
10
2.50593
20
14.0337
11
2.48452
21
14.0187
0
LINE
8
Black
10
2.48452
20
14.0187
11
2.47602
21
14.0165
0
LINE
8
Black
10
2.47602
20
14.0165
11
2.4684
21
14.0121
0
LINE
8
Black
10
2.4684
20
14.0121
11
2.44267
21
14.0075
0
LINE
8
Black
10
2.44267
20
14.0075
11
2.41743
21
14.0008
0
LINE
8
Black
10
2.41743
20
14.0008
11
2.40867
21
14.0015
0
LINE
8
Black
10
2.40867
20
14.0015
11
2.4
21
14
0
LINE
8
Black
10
2.4
20
14
11
2.08284
21
14
0
LINE
8
Black
10
2.08284
20
14
11
1.1
21
13.0172
0
LINE
8
Black
10
1.1
20
13.0172
11
1.1
21
11.623
0
LINE
8
Black
10
1.1
20
11.623
11
1.1608
21
11.5506
0
LINE
8
Black
10
1.1608
20
11.5506
11
1.19657
21
11.4523
0
LINE
8
Black
10
1.19657
20
11.4523
11
1.19657
21
11.3477
0
LINE
8
Black
10
1.19657
20
11.3477
11
1.1608
21
11.2494
0
LINE
8
Black
10
1.1608
20
11.2494
11
1.09357
21
11.1693
0
LINE
8
Black
10
1.09357
20
11.1693
11
1.003
21
11.117
0
LINE
8
Black
10
1.003
20
11.117
11
0.901264
21
11.0991
0
LINE
8
Black
10
0.901264
20
11.0991
11
0.790597
21
10.9335
0
LINE
8
Black
10
0.790597
20
10.9335
11
0.785775
21
10.9284
0
LINE
8
Black
10
0.785775
20
10.9284
11
0.782288
21
10.9224
0
LINE
8
Black
10
0.782288
20
10.9224
11
0.770624
21
10.9126
0
LINE
8
Black
10
0.770624
20
10.9126
11
0.760096
21
10.9016
0
LINE
8
Black
10
0.760096
20
10.9016
11
0.75384
21
10.8985
0
LINE
8
Black
10
0.75384
20
10.8985
11
0.7485
21
10.894
0
LINE
8
Black
10
0.7485
20
10.894
11
0.734199
21
10.8888
0
LINE
8
Black
10
0.734199
20
10.8888
11
0.720539
21
10.8821
0
LINE
8
Black
10
0.720539
20
10.8821
11
0.713604
21
10.8813
0
LINE
8
Black
10
0.713604
20
10.8813
11
0.707053
21
10.8789
0
LINE
8
Black
10
0.707053
20
10.8789
11
0.691826
21
10.8789
0
LINE
8
Black
10
0.691826
20
10.8789
11
0.676694
21
10.8773
0
LINE
8
Black
10
0.676694
20
10.8773
11
0.669922
21
10.8789
0
LINE
8
Black
10
0.669922
20
10.8789
11
0.662947
21
10.8789
0
LINE
8
Black
10
0.662947
20
10.8789
11
0.648641
21
10.8841
0
LINE
8
Black
10
0.648641
20
10.8841
11
0.633851
21
10.8878
0
LINE
8
Black
10
0.633851
20
10.8878
11
0.62805
21
10.8916
0
LINE
8
Black
10
0.62805
20
10.8916
11
0.6215
21
10.894
0
LINE
8
Black
10
0.6215
20
10.894
11
0.60984
21
10.9038
0
LINE
8
Black
10
0.60984
20
10.9038
11
0.597178
21
10.9123
0
LINE
8
Black
10
0.597178
20
10.9123
11
0.593053
21
10.9179
0
LINE
8
Black
10
0.593053
20
10.9179
11
0.587712
21
10.9224
0
LINE
8
Black
10
0.587712
20
10.9224
11
0.580098
21
10.9356
0
LINE
8
Black
10
0.580098
20
10.9356
11
0.571097
21
10.9478
0
LINE
8
Black
10
0.571097
20
10.9478
11
0.569146
21
10.9545
0
LINE
8
Black
10
0.569146
20
10.9545
11
0.565659
21
10.9606
0
LINE
8
Black
10
0.565659
20
10.9606
11
0.563014
21
10.9756
0
LINE
8
Black
10
0.563014
20
10.9756
11
0.558755
21
10.9902
0
LINE
8
Black
10
0.558755
20
10.9902
11
0.55921
21
10.9971
0
LINE
8
Black
10
0.55921
20
10.9971
11
0.558
21
11.004
0
LINE
8
Black
10
0.558
20
11.004
11
0.558
21
14.1526
0
LINE
8
Black
10
0.558
20
14.1526
11
0.559929
21
14.1635
0
LINE
8
Black
10
0.559929
20
14.1635
11
0.559929
21
14.1746
0
LINE
8
Black
10
0.559929
20
14.1746
11
0.563729
21
14.1851
0
LINE
8
Black
10
0.563729
20
14.1851
11
0.565659
21
14.196
0
LINE
8
Black
10
0.565659
20
14.196
11
0.571215
21
14.2056
0
LINE
8
Black
10
0.571215
20
14.2056
11
0.575015
21
14.2161
0
LINE
8
Black
10
0.575015
20
14.2161
11
0.582155
21
14.2246
0
LINE
8
Black
10
0.582155
20
14.2246
11
0.587712
21
14.2342
0
LINE
8
Black
10
0.587712
20
14.2342
11
0.596223
21
14.2413
0
LINE
8
Black
10
0.596223
20
14.2413
11
0.603366
21
14.2498
0
LINE
8
Black
10
0.603366
20
14.2498
11
0.61299
21
14.2554
0
LINE
8
Black
10
0.61299
20
14.2554
11
0.6215
21
14.2625
0
LINE
8
Black
10
0.6215
20
14.2625
11
0.631939
21
14.2663
0
LINE
8
Black
10
0.631939
20
14.2663
11
0.641563
21
14.2719
0
LINE
8
Black
10
0.641563
20
14.2719
11
0.652505
21
14.2738
0
LINE
8
Black
10
0.652505
20
14.2738
11
0.662947
21
14.2776
0
LINE
8
Black
10
0.662947
20
14.2776
11
0.674059
21
14.2776
0
LINE
8
Black
10
0.674059
20
14.2776
11
0.685
21
14.2796
0
LINE
8
Black
10
0.685
20
14.2796
11
1.79672
21
14.2796
0
LINE
8
Black
10
1.79672
20
14.2796
11
1.85858
21
14.3414
0
LINE
8
Black
10
1.85858
20
14.3414
11
1.86578
21
14.3465
0
LINE
8
Black
10
1.86578
20
14.3465
11
1.87144
21
14.3532
0
LINE
8
Black
10
1.87144
20
14.3532
11
1.89407
21
14.3663
0
LINE
8
Black
10
1.89407
20
14.3663
11
1.91548
21
14.3813
0
LINE
8
Black
10
1.91548
20
14.3813
11
1.92398
21
14.3835
0
LINE
8
Black
10
1.92398
20
14.3835
11
1.9316
21
14.3879
0
LINE
8
Black
10
1.9316
20
14.3879
11
1.95733
21
14.3925
0
LINE
8
Black
10
1.95733
20
14.3925
11
1.98257
21
14.3992
0
LINE
8
Black
10
1.98257
20
14.3992
11
1.99133
21
14.3985
0
LINE
8
Black
10
1.99133
20
14.3985
11
2
21
14.4
0
LINE
8
Black
10
2
20
14.4
11
2.31716
21
14.4
0
LINE
8
Black
10
2.31716
20
14.4
11
2.7
21
14.7828
0
LINE
8
Black
10
2.7
20
14.7828
11
2.7
21
16.8931
0
LINE
8
Black
10
2.7
20
16.8931
11
2.69585
21
16.9145
0
LINE
8
Black
10
2.69585
20
16.9145
11
2.69559
21
16.9295
0
LINE
8
Black
10
2.69559
20
16.9295
11
2.69364
21
16.9443
0
LINE
8
Black
10
2.69364
20
16.9443
11
2.69522
21
16.9514
0
LINE
8
Black
10
2.69522
20
16.9514
11
2.69509
21
16.9586
0
LINE
8
Black
10
2.69509
20
16.9586
11
2.69996
21
16.9728
0
LINE
8
Black
10
2.69996
20
16.9728
11
2.7
21
16.973
0
LINE
8
Black
10
2.7
20
16.973
11
2.7
21
17.6172
0
LINE
8
Black
10
2.7
20
17.6172
11
2.47116
21
17.846
0
LINE
8
Black
10
2.47116
20
17.846
11
2.2
21
17.846
0
LINE
8
Black
10
2.2
20
17.846
11
2.2
21
17.1
0
LINE
8
Black
10
2.2
20
17.1
11
0.2
21
17.1
0
LINE
8
Black
10
0.2
20
17.1
11
0.2
21
19.1
0
LINE
8
Black
10
0.2
20
19.1
11
2.2
21
19.1
0
LINE
8
Black
10
2.2
20
19.1
11
2.2
21
18.354
0
LINE
8
Black
10
2.2
20
20.6
11
2.5
21
20.6
0
LINE
8
Black
10
2.5
20
20.6
11
2.50867
21
20.5985
0
LINE
8
Black
10
2.50867
20
20.5985
11
2.51743
21
20.5992
0
LINE
8
Black
10
2.51743
20
20.5992
11
2.54267
21
20.5925
0
LINE
8
Black
10
2.54267
20
20.5925
11
2.5684
21
20.5879
0
LINE
8
Black
10
2.5684
20
20.5879
11
2.57602
21
20.5835
0
LINE
8
Black
10
2.57602
20
20.5835
11
2.58452
21
20.5813
0
LINE
8
Black
10
2.58452
20
20.5813
11
2.60593
21
20.5663
0
LINE
8
Black
10
2.60593
20
20.5663
11
2.62856
21
20.5532
0
LINE
8
Black
10
2.62856
20
20.5532
11
2.63422
21
20.5465
0
LINE
8
Black
10
2.63422
20
20.5465
11
2.64142
21
20.5414
0
LINE
8
Black
10
2.64142
20
20.5414
11
3.84142
21
19.3414
0
LINE
8
Black
10
3.84142
20
19.3414
11
3.84647
21
19.3342
0
LINE
8
Black
10
3.84647
20
19.3342
11
3.85321
21
19.3286
0
LINE
8
Black
10
3.85321
20
19.3286
11
3.86627
21
19.3059
0
LINE
8
Black
10
3.86627
20
19.3059
11
3.88126
21
19.2845
0
LINE
8
Black
10
3.88126
20
19.2845
11
3.88354
21
19.276
0
LINE
8
Black
10
3.88354
20
19.276
11
3.88794
21
19.2684
0
LINE
8
Black
10
3.88794
20
19.2684
11
3.89248
21
19.2427
0
LINE
8
Black
10
3.89248
20
19.2427
11
3.89924
21
19.2174
0
LINE
8
Black
10
3.89924
20
19.2174
11
3.89847
21
19.2087
0
LINE
8
Black
10
3.89847
20
19.2087
11
3.9
21
19.2
0
LINE
8
Black
10
3.9
20
19.2
11
3.9
21
14.5
0
LINE
8
Black
10
3.9
20
14.5
11
3.89847
21
14.4913
0
LINE
8
Black
10
3.89847
20
14.4913
11
3.89924
21
14.4826
0
LINE
8
Black
10
3.89924
20
14.4826
11
3.89248
21
14.4573
0
LINE
8
Black
10
3.89248
20
14.4573
11
3.88794
21
14.4316
0
LINE
8
Black
10
3.88794
20
14.4316
11
3.88354
21
14.424
0
LINE
8
Black
10
3.88354
20
14.424
11
3.88126
21
14.4155
0
LINE
8
Black
10
3.88126
20
14.4155
11
3.86627
21
14.3941
0
LINE
8
Black
10
3.86627
20
14.3941
11
3.85321
21
14.3714
0
LINE
8
Black
10
3.85321
20
14.3714
11
3.84647
21
14.3658
0
LINE
8
Black
10
3.84647
20
14.3658
11
3.84142
21
14.3586
0
LINE
8
Black
10
3.84142
20
14.3586
11
2.84142
21
13.3586
0
LINE
8
Black
10
2.84142
20
13.3586
11
2.83422
21
13.3535
0
LINE
8
Black
10
2.83422
20
13.3535
11
2.82856
21
13.3468
0
LINE
8
Black
10
2.82856
20
13.3468
11
2.80593
21
13.3337
0
LINE
8
Black
10
2.80593
20
13.3337
11
2.78452
21
13.3187
0
LINE
8
Black
10
2.78452
20
13.3187
11
2.77602
21
13.3165
0
LINE
8
Black
10
2.77602
20
13.3165
11
2.7684
21
13.3121
0
LINE
8
Black
10
2.7684
20
13.3121
11
2.74267
21
13.3075
0
LINE
8
Black
10
2.74267
20
13.3075
11
2.71743
21
13.3008
0
LINE
8
Black
10
2.71743
20
13.3008
11
2.70867
21
13.3015
0
LINE
8
Black
10
2.70867
20
13.3015
11
2.7
21
13.3
0
LINE
8
Black
10
2.7
20
13.3
11
2.38284
21
13.3
0
LINE
8
Black
10
2.38284
20
13.3
11
1.9
21
12.8172
0
LINE
8
Black
10
1.9
20
12.8172
11
1.9
21
10.9
0
LINE
8
Black
10
1.9
20
10.9
11
1.89847
21
10.8913
0
LINE
8
Black
10
1.89847
20
10.8913
11
1.89924
21
10.8826
0
LINE
8
Black
10
1.89924
20
10.8826
11
1.89248
21
10.8573
0
LINE
8
Black
10
1.89248
20
10.8573
11
1.88794
21
10.8316
0
LINE
8
Black
10
1.88794
20
10.8316
11
1.88354
21
10.824
0
LINE
8
Black
10
1.88354
20
10.824
11
1.88126
21
10.8155
0
LINE
8
Black
10
1.88126
20
10.8155
11
1.86628
21
10.7941
0
LINE
8
Black
10
1.86628
20
10.7941
11
1.85321
21
10.7714
0
LINE
8
Black
10
1.85321
20
10.7714
11
1.84647
21
10.7658
0
LINE
8
Black
10
1.84647
20
10.7658
11
1.84142
21
10.7586
0
LINE
8
Black
10
1.84142
20
10.7586
11
1.6
21
10.5172
0
LINE
8
Black
10
1.6
20
10.5172
11
1.6
21
9.68284
0
LINE
8
Black
10
1.6
20
9.68284
11
1.79142
21
9.49142
0
LINE
8
Black
10
1.79142
20
9.49142
11
1.79647
21
9.48422
0
LINE
8
Black
10
1.79647
20
9.48422
11
1.80321
21
9.47856
0
LINE
8
Black
10
1.80321
20
9.47856
11
1.81627
21
9.45593
0
LINE
8
Black
10
1.81627
20
9.45593
11
1.83126
21
9.43452
0
LINE
8
Black
10
1.83126
20
9.43452
11
1.83354
21
9.42603
0
LINE
8
Black
10
1.83354
20
9.42603
11
1.83794
21
9.4184
0
LINE
8
Black
10
1.83794
20
9.4184
11
1.84248
21
9.39267
0
LINE
8
Black
10
1.84248
20
9.39267
11
1.84924
21
9.36743
0
LINE
8
Black
10
1.84924
20
9.36743
11
1.84847
21
9.35867
0
LINE
8
Black
10
1.84847
20
9.35867
11
1.85
21
9.35
0
LINE
8
Black
10
1.85
20
9.35
11
1.85
21
7.33284
0
LINE
8
Black
10
1.85
20
7.33284
11
4.28284
21
4.9
0
LINE
8
Black
10
4.28284
20
4.9
11
9.1
21
4.9
0
LINE
8
Black
10
9.1
20
4.9
11
9.10867
21
4.89847
0
LINE
8
Black
10
9.10867
20
4.89847
11
9.11743
21
4.89924
0
LINE
8
Black
10
9.11743
20
4.89924
11
9.14267
21
4.89248
0
LINE
8
Black
10
9.14267
20
4.89248
11
9.1684
21
4.88794
0
LINE
8
Black
10
9.1684
20
4.88794
11
9.17602
21
4.88354
0
LINE
8
Black
10
9.17602
20
4.88354
11
9.18452
21
4.88126
0
LINE
8
Black
10
9.18452
20
4.88126
11
9.20593
21
4.86628
0
LINE
8
Black
10
9.20593
20
4.86628
11
9.22856
21
4.85321
0
LINE
8
Black
10
9.22856
20
4.85321
11
9.23422
21
4.84647
0
LINE
8
Black
10
9.23422
20
4.84647
11
9.24142
21
4.84142
0
LINE
8
Black
10
9.24142
20
4.84142
11
11.7844
21
2.2984
0
LINE
8
Black
10
11.7844
20
2.2984
11
11.8
21
2.30115
0
LINE
8
Black
10
11.8
20
2.30115
11
11.903
21
2.28299
0
LINE
8
Black
10
11.903
20
2.28299
11
11.9936
21
2.23069
0
LINE
8
Black
10
11.9936
20
2.23069
11
12.0608
21
2.15057
0
LINE
8
Black
10
12.0608
20
2.15057
11
12.0966
21
2.05229
0
LINE
8
Black
10
12.0966
20
2.05229
11
12.0966
21
1.94771
0
LINE
8
Black
10
12.0966
20
1.94771
11
12.0608
21
1.84943
0
LINE
8
Black
10
12.0608
20
1.84943
11
11.9936
21
1.76931
0
LINE
8
Black
10
11.9936
20
1.76931
11
11.903
21
1.71702
0
LINE
8
Black
10
11.903
20
1.71702
11
11.8
21
1.69885
0
LINE
8
Black
10
11.8
20
1.69885
11
11.697
21
1.71702
0
LINE
8
Black
10
11.697
20
1.71702
11
11.6064
21
1.76931
0
LINE
8
Black
10
11.6064
20
1.76931
11
11.5392
21
1.84943
0
LINE
8
Black
10
11.5392
20
1.84943
11
11.5034
21
1.94771
0
LINE
8
Black
10
11.5034
20
1.94771
11
11.5034
21
2.01373
0
LINE
8
Black
10
11.5034
20
2.01373
11
9.01716
21
4.5
0
LINE
8
Black
10
9.01716
20
4.5
11
4.2
21
4.5
0
LINE
8
Black
10
4.2
20
4.5
11
4.19134
21
4.50153
0
LINE
8
Black
10
4.19134
20
4.50153
11
4.18257
21
4.50076
0
LINE
8
Black
10
4.18257
20
4.50076
11
4.15732
21
4.50753
0
LINE
8
Black
10
4.15732
20
4.50753
11
4.1316
21
4.51206
0
LINE
8
Black
10
4.1316
20
4.51206
11
4.12398
21
4.51646
0
LINE
8
Black
10
4.12398
20
4.51646
11
4.11548
21
4.51874
0
LINE
8
Black
10
4.11548
20
4.51874
11
4.09407
21
4.53373
0
LINE
8
Black
10
4.09407
20
4.53373
11
4.07144
21
4.54679
0
LINE
8
Black
10
4.07144
20
4.54679
11
4.06579
21
4.55353
0
LINE
8
Black
10
4.06579
20
4.55353
11
4.05858
21
4.55858
0
LINE
8
Black
10
4.05858
20
4.55858
11
1.50858
21
7.10858
0
LINE
8
Black
10
1.50858
20
7.10858
11
1.50353
21
7.11579
0
LINE
8
Black
10
1.50353
20
7.11579
11
1.49679
21
7.12144
0
LINE
8
Black
10
1.49679
20
7.12144
11
1.48372
21
7.14407
0
LINE
8
Black
10
1.48372
20
7.14407
11
1.46874
21
7.16548
0
LINE
8
Black
10
1.46874
20
7.16548
11
1.46646
21
7.17398
0
LINE
8
Black
10
1.46646
20
7.17398
11
1.46206
21
7.1816
0
LINE
8
Black
10
1.46206
20
7.1816
11
1.45752
21
7.20733
0
LINE
8
Black
10
1.45752
20
7.20733
11
1.45076
21
7.23257
0
LINE
8
Black
10
1.45076
20
7.23257
11
1.45153
21
7.24134
0
LINE
8
Black
10
1.45153
20
7.24134
11
1.45
21
7.25
0
LINE
8
Black
10
1.45
20
7.25
11
1.45
21
9.26716
0
LINE
8
Black
10
1.45
20
9.26716
11
1.25858
21
9.45858
0
LINE
8
Black
10
1.25858
20
9.45858
11
1.25353
21
9.46579
0
LINE
8
Black
10
1.25353
20
9.46579
11
1.24679
21
9.47144
0
LINE
8
Black
10
1.24679
20
9.47144
11
1.23372
21
9.49407
0
LINE
8
Black
10
1.23372
20
9.49407
11
1.21874
21
9.51548
0
LINE
8
Black
10
1.21874
20
9.51548
11
1.21646
21
9.52398
0
LINE
8
Black
10
1.21646
20
9.52398
11
1.21206
21
9.5316
0
LINE
8
Black
10
1.21206
20
9.5316
11
1.20752
21
9.55733
0
LINE
8
Black
10
1.20752
20
9.55733
11
1.20076
21
9.58257
0
LINE
8
Black
10
1.20076
20
9.58257
11
1.20153
21
9.59134
0
LINE
8
Black
10
1.20153
20
9.59134
11
1.2
21
9.6
0
LINE
8
Black
10
1.2
20
9.6
11
1.2
21
10.6
0
LINE
8
Black
10
1.2
20
10.6
11
1.20153
21
10.6087
0
LINE
8
Black
10
1.20153
20
10.6087
11
1.20076
21
10.6174
0
LINE
8
Black
10
1.20076
20
10.6174
11
1.20752
21
10.6427
0
LINE
8
Black
10
1.20752
20
10.6427
11
1.21206
21
10.6684
0
LINE
8
Black
10
1.21206
20
10.6684
11
1.21646
21
10.676
0
LINE
8
Black
10
1.21646
20
10.676
11
1.21874
21
10.6845
0
LINE
8
Black
10
1.21874
20
10.6845
11
1.23372
21
10.7059
0
LINE
8
Black
10
1.23372
20
10.7059
11
1.24679
21
10.7286
0
LINE
8
Black
10
1.24679
20
10.7286
11
1.25353
21
10.7342
0
LINE
8
Black
10
1.25353
20
10.7342
11
1.25858
21
10.7414
0
LINE
8
Black
10
1.25858
20
10.7414
11
1.5
21
10.9828
0
LINE
8
Black
10
1.5
20
10.9828
11
1.5
21
12.9
0
LINE
8
Black
10
1.5
20
12.9
11
1.50153
21
12.9087
0
LINE
8
Black
10
1.50153
20
12.9087
11
1.50076
21
12.9174
0
LINE
8
Black
10
1.50076
20
12.9174
11
1.50752
21
12.9427
0
LINE
8
Black
10
1.50752
20
12.9427
11
1.51206
21
12.9684
0
LINE
8
Black
10
1.51206
20
12.9684
11
1.51646
21
12.976
0
LINE
8
Black
10
1.51646
20
12.976
11
1.51874
21
12.9845
0
LINE
8
Black
10
1.51874
20
12.9845
11
1.53372
21
13.0059
0
LINE
8
Black
10
1.53372
20
13.0059
11
1.54679
21
13.0286
0
LINE
8
Black
10
1.54679
20
13.0286
11
1.55353
21
13.0342
0
LINE
8
Black
10
1.55353
20
13.0342
11
1.55858
21
13.0414
0
LINE
8
Black
10
1.55858
20
13.0414
11
2.15858
21
13.6414
0
LINE
8
Black
10
2.15858
20
13.6414
11
2.16578
21
13.6465
0
LINE
8
Black
10
2.16578
20
13.6465
11
2.17144
21
13.6532
0
LINE
8
Black
10
2.17144
20
13.6532
11
2.19407
21
13.6663
0
LINE
8
Black
10
2.19407
20
13.6663
11
2.21548
21
13.6813
0
LINE
8
Black
10
2.21548
20
13.6813
11
2.22398
21
13.6835
0
LINE
8
Black
10
2.22398
20
13.6835
11
2.2316
21
13.6879
0
LINE
8
Black
10
2.2316
20
13.6879
11
2.25733
21
13.6925
0
LINE
8
Black
10
2.25733
20
13.6925
11
2.28257
21
13.6992
0
LINE
8
Black
10
2.28257
20
13.6992
11
2.29133
21
13.6985
0
LINE
8
Black
10
2.29133
20
13.6985
11
2.3
21
13.7
0
LINE
8
Black
10
2.3
20
13.7
11
2.61716
21
13.7
0
LINE
8
Black
10
2.61716
20
13.7
11
3.5
21
14.5828
0
LINE
8
Black
10
3.5
20
14.5828
11
3.5
21
19.1172
0
LINE
8
Black
10
3.5
20
19.1172
11
2.41716
21
20.2
0
LINE
8
Black
10
2.41716
20
20.2
11
2.2
21
20.2
0
LINE
8
Black
10
2.2
20
20.2
11
2.2
21
19.4
0
LINE
8
Black
10
2.2
20
19.4
11
0.2
21
19.4
0
LINE
8
Black
10
0.2
20
19.4
11
0.2
21
21.4
0
LINE
8
Black
10
0.2
20
21.4
11
2.2
21
21.4
0
LINE
8
Black
10
2.2
20
21.4
11
2.2
21
20.6
0
LINE
8
Black
10
18.8178
20
6.29066
11
19.0708
21
6.14455
0
LINE
8
Black
10
19.0708
20
6.14455
11
19.2587
21
5.9207
0
LINE
8
Black
10
19.2587
20
5.9207
11
19.3586
21
5.64611
0
LINE
8
Black
10
19.3586
20
5.64611
11
19.3586
21
5.35389
0
LINE
8
Black
10
19.3586
20
5.35389
11
19.2587
21
5.0793
0
LINE
8
Black
10
19.2587
20
5.0793
11
19.0708
21
4.85545
0
LINE
8
Black
10
19.0708
20
4.85545
11
18.8178
21
4.70934
0
LINE
8
Black
10
18.8178
20
4.70934
11
18.53
21
4.6586
0
LINE
8
Black
10
18.53
20
4.6586
11
18.2422
21
4.70934
0
LINE
8
Black
10
18.2422
20
4.70934
11
17.9892
21
4.85545
0
LINE
8
Black
10
17.9892
20
4.85545
11
17.8013
21
5.0793
0
LINE
8
Black
10
17.8013
20
5.0793
11
17.7014
21
5.35389
0
LINE
8
Black
10
17.7014
20
5.35389
11
17.7014
21
5.64611
0
LINE
8
Black
10
17.7014
20
5.64611
11
17.8013
21
5.9207
0
LINE
8
Black
10
17.8013
20
5.9207
11
17.9892
21
6.14455
0
LINE
8
Black
10
17.9892
20
6.14455
11
18.2422
21
6.29066
0
LINE
8
Black
10
18.2422
20
6.29066
11
18.53
21
6.3414
0
LINE
8
Black
10
18.53
20
6.3414
11
18.8178
21
6.29066
0
LINE
8
Black
10
17.303
20
23.683
11
17.3936
21
23.6307
0
LINE
8
Black
10
17.3936
20
23.6307
11
17.4608
21
23.5506
0
LINE
8
Black
10
17.4608
20
23.5506
11
17.4966
21
23.4523
0
LINE
8
Black
10
17.4966
20
23.4523
11
17.4966
21
23.3863
0
LINE
8
Black
10
17.4966
20
23.3863
11
17.9414
21
22.9414
0
LINE
8
Black
10
17.9414
20
22.9414
11
17.9465
21
22.9342
0
LINE
8
Black
10
17.9465
20
22.9342
11
17.9532
21
22.9286
0
LINE
8
Black
10
17.9532
20
22.9286
11
17.9663
21
22.9059
0
LINE
8
Black
10
17.9663
20
22.9059
11
17.9813
21
22.8845
0
LINE
8
Black
10
17.9813
20
22.8845
11
17.9835
21
22.876
0
LINE
8
Black
10
17.9835
20
22.876
11
17.9879
21
22.8684
0
LINE
8
Black
10
17.9879
20
22.8684
11
17.9925
21
22.8427
0
LINE
8
Black
10
17.9925
20
22.8427
11
17.9992
21
22.8174
0
LINE
8
Black
10
17.9992
20
22.8174
11
17.9985
21
22.8087
0
LINE
8
Black
10
17.9985
20
22.8087
11
18
21
22.8
0
LINE
8
Black
10
18
20
22.8
11
18
21
20.3828
0
LINE
8
Black
10
18
20
20.3828
11
20.8414
21
17.5414
0
LINE
8
Black
10
20.8414
20
17.5414
11
20.8465
21
17.5342
0
LINE
8
Black
10
20.8465
20
17.5342
11
20.8532
21
17.5286
0
LINE
8
Black
10
20.8532
20
17.5286
11
20.8663
21
17.5059
0
LINE
8
Black
10
20.8663
20
17.5059
11
20.8813
21
17.4845
0
LINE
8
Black
10
20.8813
20
17.4845
11
20.8835
21
17.476
0
LINE
8
Black
10
20.8835
20
17.476
11
20.8879
21
17.4684
0
LINE
8
Black
10
20.8879
20
17.4684
11
20.8925
21
17.4427
0
LINE
8
Black
10
20.8925
20
17.4427
11
20.8992
21
17.4174
0
LINE
8
Black
10
20.8992
20
17.4174
11
20.8985
21
17.4087
0
LINE
8
Black
10
20.8985
20
17.4087
11
20.9
21
17.4
0
LINE
8
Black
10
20.9
20
17.4
11
20.9
21
12.823
0
LINE
8
Black
10
20.9
20
12.823
11
20.9608
21
12.7506
0
LINE
8
Black
10
20.9608
20
12.7506
11
20.9966
21
12.6523
0
LINE
8
Black
10
20.9966
20
12.6523
11
20.9966
21
12.5477
0
LINE
8
Black
10
20.9966
20
12.5477
11
20.9608
21
12.4494
0
LINE
8
Black
10
20.9608
20
12.4494
11
20.9
21
12.377
0
LINE
8
Black
10
20.9
20
12.377
11
20.9
21
10.623
0
LINE
8
Black
10
20.9
20
10.623
11
20.9608
21
10.5506
0
LINE
8
Black
10
20.9608
20
10.5506
11
20.9966
21
10.4523
0
LINE
8
Black
10
20.9966
20
10.4523
11
20.9966
21
10.3477
0
LINE
8
Black
10
20.9966
20
10.3477
11
20.9608
21
10.2494
0
LINE
8
Black
10
20.9608
20
10.2494
11
20.9
21
10.177
0
LINE
8
Black
10
20.9
20
10.177
11
20.9
21
8.48284
0
LINE
8
Black
10
20.9
20
8.48284
11
21.6844
21
7.6984
0
LINE
8
Black
10
21.6844
20
7.6984
11
21.7
21
7.70115
0
LINE
8
Black
10
21.7
20
7.70115
11
21.803
21
7.68299
0
LINE
8
Black
10
21.803
20
7.68299
11
21.8936
21
7.63069
0
LINE
8
Black
10
21.8936
20
7.63069
11
21.9608
21
7.55057
0
LINE
8
Black
10
21.9608
20
7.55057
11
21.9966
21
7.45229
0
LINE
8
Black
10
21.9966
20
7.45229
11
21.9966
21
7.34771
0
LINE
8
Black
10
21.9966
20
7.34771
11
21.9608
21
7.24943
0
LINE
8
Black
10
21.9608
20
7.24943
11
21.8936
21
7.16931
0
LINE
8
Black
10
21.8936
20
7.16931
11
21.803
21
7.11702
0
LINE
8
Black
10
21.803
20
7.11702
11
21.7
21
7.09885
0
LINE
8
Black
10
21.7
20
7.09885
11
21.597
21
7.11702
0
LINE
8
Black
10
21.597
20
7.11702
11
21.5064
21
7.16931
0
LINE
8
Black
10
21.5064
20
7.16931
11
21.4392
21
7.24943
0
LINE
8
Black
10
21.4392
20
7.24943
11
21.4034
21
7.34771
0
LINE
8
Black
10
21.4034
20
7.34771
11
21.4034
21
7.41373
0
LINE
8
Black
10
21.4034
20
7.41373
11
20.5586
21
8.25858
0
LINE
8
Black
10
20.5586
20
8.25858
11
20.5535
21
8.26579
0
LINE
8
Black
10
20.5535
20
8.26579
11
20.5468
21
8.27144
0
LINE
8
Black
10
20.5468
20
8.27144
11
20.5337
21
8.29407
0
LINE
8
Black
10
20.5337
20
8.29407
11
20.5187
21
8.31548
0
LINE
8
Black
10
20.5187
20
8.31548
11
20.5165
21
8.32398
0
LINE
8
Black
10
20.5165
20
8.32398
11
20.5121
21
8.3316
0
LINE
8
Black
10
20.5121
20
8.3316
11
20.5075
21
8.35733
0
LINE
8
Black
10
20.5075
20
8.35733
11
20.5008
21
8.38257
0
LINE
8
Black
10
20.5008
20
8.38257
11
20.5015
21
8.39134
0
LINE
8
Black
10
20.5015
20
8.39134
11
20.5
21
8.4
0
LINE
8
Black
10
20.5
20
8.4
11
20.5
21
10.177
0
LINE
8
Black
10
20.5
20
10.177
11
20.4392
21
10.2494
0
LINE
8
Black
10
20.4392
20
10.2494
11
20.4034
21
10.3477
0
LINE
8
Black
10
20.4034
20
10.3477
11
20.4034
21
10.4523
0
LINE
8
Black
10
20.4034
20
10.4523
11
20.4392
21
10.5506
0
LINE
8
Black
10
20.4392
20
10.5506
11
20.5
21
10.623
0
LINE
8
Black
10
20.5
20
10.623
11
20.5
21
12.377
0
LINE
8
Black
10
20.5
20
12.377
11
20.4392
21
12.4494
0
LINE
8
Black
10
20.4392
20
12.4494
11
20.4034
21
12.5477
0
LINE
8
Black
10
20.4034
20
12.5477
11
20.4034
21
12.6523
0
LINE
8
Black
10
20.4034
20
12.6523
11
20.4392
21
12.7506
0
LINE
8
Black
10
20.4392
20
12.7506
11
20.5
21
12.823
0
LINE
8
Black
10
20.5
20
12.823
11
20.5
21
17.3172
0
LINE
8
Black
10
20.5
20
17.3172
11
17.6586
21
20.1586
0
LINE
8
Black
10
17.6586
20
20.1586
11
17.6535
21
20.1658
0
LINE
8
Black
10
17.6535
20
20.1658
11
17.6468
21
20.1714
0
LINE
8
Black
10
17.6468
20
20.1714
11
17.6337
21
20.1941
0
LINE
8
Black
10
17.6337
20
20.1941
11
17.6187
21
20.2155
0
LINE
8
Black
10
17.6187
20
20.2155
11
17.6165
21
20.224
0
LINE
8
Black
10
17.6165
20
20.224
11
17.6121
21
20.2316
0
LINE
8
Black
10
17.6121
20
20.2316
11
17.6075
21
20.2573
0
LINE
8
Black
10
17.6075
20
20.2573
11
17.6008
21
20.2826
0
LINE
8
Black
10
17.6008
20
20.2826
11
17.6015
21
20.2913
0
LINE
8
Black
10
17.6015
20
20.2913
11
17.6
21
20.3
0
LINE
8
Black
10
17.6
20
20.3
11
17.6
21
22.7172
0
LINE
8
Black
10
17.6
20
22.7172
11
17.4
21
22.9172
0
LINE
8
Black
10
17.4
20
22.9172
11
17.4
21
20.1
0
LINE
8
Black
10
17.4
20
20.1
11
17.3985
21
20.0913
0
LINE
8
Black
10
17.3985
20
20.0913
11
17.3992
21
20.0826
0
LINE
8
Black
10
17.3992
20
20.0826
11
17.3925
21
20.0573
0
LINE
8
Black
10
17.3925
20
20.0573
11
17.3879
21
20.0316
0
LINE
8
Black
10
17.3879
20
20.0316
11
17.3835
21
20.024
0
LINE
8
Black
10
17.3835
20
20.024
11
17.3813
21
20.0155
0
LINE
8
Black
10
17.3813
20
20.0155
11
17.3663
21
19.9941
0
LINE
8
Black
10
17.3663
20
19.9941
11
17.3532
21
19.9714
0
LINE
8
Black
10
17.3532
20
19.9714
11
17.3465
21
19.9658
0
LINE
8
Black
10
17.3465
20
19.9658
11
17.3414
21
19.9586
0
LINE
8
Black
10
17.3414
20
19.9586
11
14.4414
21
17.0586
0
LINE
8
Black
10
14.4414
20
17.0586
11
14.4342
21
17.0535
0
LINE
8
Black
10
14.4342
20
17.0535
11
14.4286
21
17.0468
0
LINE
8
Black
10
14.4286
20
17.0468
11
14.4059
21
17.0337
0
LINE
8
Black
10
14.4059
20
17.0337
11
14.3845
21
17.0187
0
LINE
8
Black
10
14.3845
20
17.0187
11
14.376
21
17.0165
0
LINE
8
Black
10
14.376
20
17.0165
11
14.3684
21
17.0121
0
LINE
8
Black
10
14.3684
20
17.0121
11
14.3427
21
17.0075
0
LINE
8
Black
10
14.3427
20
17.0075
11
14.3174
21
17.0008
0
LINE
8
Black
10
14.3174
20
17.0008
11
14.3087
21
17.0015
0
LINE
8
Black
10
14.3087
20
17.0015
11
14.3
21
17
0
LINE
8
Black
10
14.3
20
17
11
9.28284
21
17
0
LINE
8
Black
10
9.28284
20
17
11
5.74142
21
13.4586
0
LINE
8
Black
10
5.74142
20
13.4586
11
5.74142
21
13.4586
0
LINE
8
Black
10
5.74142
20
13.4586
11
5.74142
21
13.4586
0
LINE
8
Black
10
5.74142
20
13.4586
11
2.59657
21
10.3137
0
LINE
8
Black
10
2.59657
20
10.3137
11
2.59657
21
10.2477
0
LINE
8
Black
10
2.59657
20
10.2477
11
2.5608
21
10.1494
0
LINE
8
Black
10
2.5608
20
10.1494
11
2.49357
21
10.0693
0
LINE
8
Black
10
2.49357
20
10.0693
11
2.403
21
10.017
0
LINE
8
Black
10
2.403
20
10.017
11
2.3
21
9.99885
0
LINE
8
Black
10
2.3
20
9.99885
11
2.197
21
10.017
0
LINE
8
Black
10
2.197
20
10.017
11
2.10643
21
10.0693
0
LINE
8
Black
10
2.10643
20
10.0693
11
2.0392
21
10.1494
0
LINE
8
Black
10
2.0392
20
10.1494
11
2.00343
21
10.2477
0
LINE
8
Black
10
2.00343
20
10.2477
11
2.00343
21
10.3523
0
LINE
8
Black
10
2.00343
20
10.3523
11
2.0392
21
10.4506
0
LINE
8
Black
10
2.0392
20
10.4506
11
2.10643
21
10.5307
0
LINE
8
Black
10
2.10643
20
10.5307
11
2.197
21
10.583
0
LINE
8
Black
10
2.197
20
10.583
11
2.3
21
10.6011
0
LINE
8
Black
10
2.3
20
10.6011
11
2.31556
21
10.5984
0
LINE
8
Black
10
2.31556
20
10.5984
11
5.45858
21
13.7414
0
LINE
8
Black
10
5.45858
20
13.7414
11
9.05858
21
17.3414
0
LINE
8
Black
10
9.05858
20
17.3414
11
9.06578
21
17.3465
0
LINE
8
Black
10
9.06578
20
17.3465
11
9.07144
21
17.3532
0
LINE
8
Black
10
9.07144
20
17.3532
11
9.09407
21
17.3663
0
LINE
8
Black
10
9.09407
20
17.3663
11
9.11548
21
17.3813
0
LINE
8
Black
10
9.11548
20
17.3813
11
9.12398
21
17.3835
0
LINE
8
Black
10
9.12398
20
17.3835
11
9.1316
21
17.3879
0
LINE
8
Black
10
9.1316
20
17.3879
11
9.15733
21
17.3925
0
LINE
8
Black
10
9.15733
20
17.3925
11
9.18257
21
17.3992
0
LINE
8
Black
10
9.18257
20
17.3992
11
9.19133
21
17.3985
0
LINE
8
Black
10
9.19133
20
17.3985
11
9.2
21
17.4
0
LINE
8
Black
10
9.2
20
17.4
11
14.2172
21
17.4
0
LINE
8
Black
10
14.2172
20
17.4
11
17
21
20.1828
0
LINE
8
Black
10
17
20
20.1828
11
17
21
23.177
0
LINE
8
Black
10
17
20
23.177
11
16.9392
21
23.2494
0
LINE
8
Black
10
16.9392
20
23.2494
11
16.9034
21
23.3477
0
LINE
8
Black
10
16.9034
20
23.3477
11
16.9034
21
23.4523
0
LINE
8
Black
10
16.9034
20
23.4523
11
16.9392
21
23.5506
0
LINE
8
Black
10
16.9392
20
23.5506
11
17.0064
21
23.6307
0
LINE
8
Black
10
17.0064
20
23.6307
11
17.097
21
23.683
0
LINE
8
Black
10
17.097
20
23.683
11
17.2
21
23.7011
0
LINE
8
Black
10
17.2
20
23.7011
11
17.303
21
23.683
0
LINE
8
Black
10
22.103
20
1.58299
11
22.1936
21
1.53069
0
LINE
8
Black
10
22.1936
20
1.53069
11
22.2193
21
1.5
0
LINE
8
Black
10
22.2193
20
1.5
11
23.1
21
1.5
0
LINE
8
Black
10
23.1
20
1.5
11
23.1087
21
1.49847
0
LINE
8
Black
10
23.1087
20
1.49847
11
23.1174
21
1.49924
0
LINE
8
Black
10
23.1174
20
1.49924
11
23.1427
21
1.49248
0
LINE
8
Black
10
23.1427
20
1.49248
11
23.1684
21
1.48794
0
LINE
8
Black
10
23.1684
20
1.48794
11
23.176
21
1.48354
0
LINE
8
Black
10
23.176
20
1.48354
11
23.1845
21
1.48126
0
LINE
8
Black
10
23.1845
20
1.48126
11
23.2059
21
1.46628
0
LINE
8
Black
10
23.2059
20
1.46628
11
23.2286
21
1.45321
0
LINE
8
Black
10
23.2286
20
1.45321
11
23.2342
21
1.44647
0
LINE
8
Black
10
23.2342
20
1.44647
11
23.2414
21
1.44142
0
LINE
8
Black
10
23.2414
20
1.44142
11
23.6844
21
0.998403
0
LINE
8
Black
10
23.6844
20
0.998403
11
23.7
21
1.00115
0
LINE
8
Black
10
23.7
20
1.00115
11
23.803
21
0.982985
0
LINE
8
Black
10
23.803
20
0.982985
11
23.8936
21
0.930691
0
LINE
8
Black
10
23.8936
20
0.930691
11
23.9608
21
0.850573
0
LINE
8
Black
10
23.9608
20
0.850573
11
23.9966
21
0.752293
0
LINE
8
Black
10
23.9966
20
0.752293
11
23.9966
21
0.647707
0
LINE
8
Black
10
23.9966
20
0.647707
11
23.9608
21
0.549427
0
LINE
8
Black
10
23.9608
20
0.549427
11
23.8936
21
0.469309
0
LINE
8
Black
10
23.8936
20
0.469309
11
23.803
21
0.417015
0
LINE
8
Black
10
23.803
20
0.417015
11
23.7
21
0.398854
0
LINE
8
Black
10
23.7
20
0.398854
11
23.597
21
0.417015
0
LINE
8
Black
10
23.597
20
0.417015
11
23.5064
21
0.469309
0
LINE
8
Black
10
23.5064
20
0.469309
11
23.4392
21
0.549427
0
LINE
8
Black
10
23.4392
20
0.549427
11
23.4034
21
0.647707
0
LINE
8
Black
10
23.4034
20
0.647707
11
23.4034
21
0.713729
0
LINE
8
Black
10
23.4034
20
0.713729
11
23.0172
21
1.1
0
LINE
8
Black
10
23.0172
20
1.1
11
22.2193
21
1.1
0
LINE
8
Black
10
22.2193
20
1.1
11
22.1936
21
1.06931
0
LINE
8
Black
10
22.1936
20
1.06931
11
22.103
21
1.01702
0
LINE
8
Black
10
22.103
20
1.01702
11
22
21
0.998854
0
LINE
8
Black
10
22
20
0.998854
11
21.897
21
1.01702
0
LINE
8
Black
10
21.897
20
1.01702
11
21.8064
21
1.06931
0
LINE
8
Black
10
21.8064
20
1.06931
11
21.7392
21
1.14943
0
LINE
8
Black
10
21.7392
20
1.14943
11
21.7034
21
1.24771
0
LINE
8
Black
10
21.7034
20
1.24771
11
21.7034
21
1.35229
0
LINE
8
Black
10
21.7034
20
1.35229
11
21.7392
21
1.45057
0
LINE
8
Black
10
21.7392
20
1.45057
11
21.8064
21
1.53069
0
LINE
8
Black
10
21.8064
20
1.53069
11
21.897
21
1.58299
0
LINE
8
Black
10
21.897
20
1.58299
11
22
21
1.60115
0
LINE
8
Black
10
22
20
1.60115
11
22.103
21
1.58299
0
LINE
8
Black
10
25.289
20
19.471
11
24.6
21
19.471
0
LINE
8
Black
10
24.6
20
19.471
11
24.6
21
10.1828
0
LINE
8
Black
10
24.6
20
10.1828
11
27.6228
21
7.16
0
LINE
8
Black
10
27.6228
20
7.16
11
27.7644
21
7.16
0
LINE
8
Black
10
27.7644
20
7.16
11
27.8488
21
7.3918
0
LINE
8
Black
10
27.8488
20
7.3918
11
28.0416
21
7.62156
0
LINE
8
Black
10
28.0416
20
7.62156
11
28.3013
21
7.77152
0
LINE
8
Black
10
28.3013
20
7.77152
11
28.5967
21
7.8236
0
LINE
8
Black
10
28.5967
20
7.8236
11
28.6033
21
7.8236
0
LINE
8
Black
10
28.6033
20
7.8236
11
28.8987
21
7.77152
0
LINE
8
Black
10
28.8987
20
7.77152
11
29.1584
21
7.62156
0
LINE
8
Black
10
29.1584
20
7.62156
11
29.3512
21
7.3918
0
LINE
8
Black
10
29.3512
20
7.3918
11
29.4538
21
7.10996
0
LINE
8
Black
10
29.4538
20
7.10996
11
29.4538
21
6.81004
0
LINE
8
Black
10
29.4538
20
6.81004
11
29.3512
21
6.5282
0
LINE
8
Black
10
29.3512
20
6.5282
11
29.1584
21
6.29844
0
LINE
8
Black
10
29.1584
20
6.29844
11
28.8987
21
6.14848
0
LINE
8
Black
10
28.8987
20
6.14848
11
28.6033
21
6.0964
0
LINE
8
Black
10
28.6033
20
6.0964
11
28.5967
21
6.0964
0
LINE
8
Black
10
28.5967
20
6.0964
11
28.3013
21
6.14848
0
LINE
8
Black
10
28.3013
20
6.14848
11
28.0416
21
6.29844
0
LINE
8
Black
10
28.0416
20
6.29844
11
27.8488
21
6.5282
0
LINE
8
Black
10
27.8488
20
6.5282
11
27.7644
21
6.76
0
LINE
8
Black
10
27.7644
20
6.76
11
27.54
21
6.76
0
LINE
8
Black
10
27.54
20
6.76
11
27.5313
21
6.76153
0
LINE
8
Black
10
27.5313
20
6.76153
11
27.5226
21
6.76076
0
LINE
8
Black
10
27.5226
20
6.76076
11
27.4973
21
6.76753
0
LINE
8
Black
10
27.4973
20
6.76753
11
27.4716
21
6.77206
0
LINE
8
Black
10
27.4716
20
6.77206
11
27.464
21
6.77646
0
LINE
8
Black
10
27.464
20
6.77646
11
27.4555
21
6.77874
0
LINE
8
Black
10
27.4555
20
6.77874
11
27.4341
21
6.79373
0
LINE
8
Black
10
27.4341
20
6.79373
11
27.4114
21
6.80679
0
LINE
8
Black
10
27.4114
20
6.80679
11
27.4058
21
6.81353
0
LINE
8
Black
10
27.4058
20
6.81353
11
27.3986
21
6.81858
0
LINE
8
Black
10
27.3986
20
6.81858
11
24.2586
21
9.95858
0
LINE
8
Black
10
24.2586
20
9.95858
11
24.2535
21
9.96579
0
LINE
8
Black
10
24.2535
20
9.96579
11
24.2468
21
9.97144
0
LINE
8
Black
10
24.2468
20
9.97144
11
24.2337
21
9.99407
0
LINE
8
Black
10
24.2337
20
9.99407
11
24.2187
21
10.0155
0
LINE
8
Black
10
24.2187
20
10.0155
11
24.2165
21
10.024
0
LINE
8
Black
10
24.2165
20
10.024
11
24.2121
21
10.0316
0
LINE
8
Black
10
24.2121
20
10.0316
11
24.2075
21
10.0573
0
LINE
8
Black
10
24.2075
20
10.0573
11
24.2008
21
10.0826
0
LINE
8
Black
10
24.2008
20
10.0826
11
24.2015
21
10.0913
0
LINE
8
Black
10
24.2015
20
10.0913
11
24.2
21
10.1
0
LINE
8
Black
10
24.2
20
10.1
11
24.2
21
19.471
0
LINE
8
Black
10
24.2
20
19.471
11
23.511
21
19.471
0
LINE
8
Black
10
23.511
20
19.471
11
23.511
21
21.249
0
LINE
8
Black
10
23.511
20
21.249
11
25.289
21
21.249
0
LINE
8
Black
10
25.289
20
21.249
11
25.289
21
19.471
0
LINE
8
Black
10
28.8987
20
5.23152
11
29.1584
21
5.08156
0
LINE
8
Black
10
29.1584
20
5.08156
11
29.3512
21
4.8518
0
LINE
8
Black
10
29.3512
20
4.8518
11
29.4538
21
4.56996
0
LINE
8
Black
10
29.4538
20
4.56996
11
29.4538
21
4.27004
0
LINE
8
Black
10
29.4538
20
4.27004
11
29.3512
21
3.9882
0
LINE
8
Black
10
29.3512
20
3.9882
11
29.1584
21
3.75844
0
LINE
8
Black
10
29.1584
20
3.75844
11
28.8987
21
3.60848
0
LINE
8
Black
10
28.8987
20
3.60848
11
28.6033
21
3.5564
0
LINE
8
Black
10
28.6033
20
3.5564
11
28.5967
21
3.5564
0
LINE
8
Black
10
28.5967
20
3.5564
11
28.3013
21
3.60848
0
LINE
8
Black
10
28.3013
20
3.60848
11
28.0416
21
3.75844
0
LINE
8
Black
10
28.0416
20
3.75844
11
27.8488
21
3.9882
0
LINE
8
Black
10
27.8488
20
3.9882
11
27.7462
21
4.27004
0
LINE
8
Black
10
27.7462
20
4.27004
11
27.7462
21
4.56996
0
LINE
8
Black
10
27.7462
20
4.56996
11
27.8488
21
4.8518
0
LINE
8
Black
10
27.8488
20
4.8518
11
28.0416
21
5.08156
0
LINE
8
Black
10
28.0416
20
5.08156
11
28.3013
21
5.23152
0
LINE
8
Black
10
28.3013
20
5.23152
11
28.5967
21
5.2836
0
LINE
8
Black
10
28.5967
20
5.2836
11
28.6033
21
5.2836
0
LINE
8
Black
10
28.6033
20
5.2836
11
28.8987
21
5.23152
0
LINE
8
Black
10
31.4387
20
7.77152
11
31.6984
21
7.62156
0
LINE
8
Black
10
31.6984
20
7.62156
11
31.8912
21
7.3918
0
LINE
8
Black
10
31.8912
20
7.3918
11
31.9938
21
7.10996
0
LINE
8
Black
10
31.9938
20
7.10996
11
31.9938
21
6.81004
0
LINE
8
Black
10
31.9938
20
6.81004
11
31.8912
21
6.5282
0
LINE
8
Black
10
31.8912
20
6.5282
11
31.6984
21
6.29844
0
LINE
8
Black
10
31.6984
20
6.29844
11
31.4387
21
6.14848
0
LINE
8
Black
10
31.4387
20
6.14848
11
31.1433
21
6.0964
0
LINE
8
Black
10
31.1433
20
6.0964
11
31.1367
21
6.0964
0
LINE
8
Black
10
31.1367
20
6.0964
11
30.8413
21
6.14848
0
LINE
8
Black
10
30.8413
20
6.14848
11
30.5816
21
6.29844
0
LINE
8
Black
10
30.5816
20
6.29844
11
30.3888
21
6.5282
0
LINE
8
Black
10
30.3888
20
6.5282
11
30.2862
21
6.81004
0
LINE
8
Black
10
30.2862
20
6.81004
11
30.2862
21
7.10996
0
LINE
8
Black
10
30.2862
20
7.10996
11
30.3888
21
7.3918
0
LINE
8
Black
10
30.3888
20
7.3918
11
30.5816
21
7.62156
0
LINE
8
Black
10
30.5816
20
7.62156
11
30.8413
21
7.77152
0
LINE
8
Black
10
30.8413
20
7.77152
11
31.1367
21
7.8236
0
LINE
8
Black
10
31.1367
20
7.8236
11
31.1433
21
7.8236
0
LINE
8
Black
10
31.1433
20
7.8236
11
31.4387
21
7.77152
0
LINE
8
Black
10
31.4387
20
5.23152
11
31.6984
21
5.08156
0
LINE
8
Black
10
31.6984
20
5.08156
11
31.8912
21
4.8518
0
LINE
8
Black
10
31.8912
20
4.8518
11
31.9938
21
4.56996
0
LINE
8
Black
10
31.9938
20
4.56996
11
31.9938
21
4.27004
0
LINE
8
Black
10
31.9938
20
4.27004
11
31.8912
21
3.9882
0
LINE
8
Black
10
31.8912
20
3.9882
11
31.6984
21
3.75844
0
LINE
8
Black
10
31.6984
20
3.75844
11
31.4387
21
3.60848
0
LINE
8
Black
10
31.4387
20
3.60848
11
31.1433
21
3.5564
0
LINE
8
Black
10
31.1433
20
3.5564
11
31.1367
21
3.5564
0
LINE
8
Black
10
31.1367
20
3.5564
11
30.8413
21
3.60848
0
LINE
8
Black
10
30.8413
20
3.60848
11
30.5816
21
3.75844
0
LINE
8
Black
10
30.5816
20
3.75844
11
30.3888
21
3.9882
0
LINE
8
Black
10
30.3888
20
3.9882
11
30.2862
21
4.27004
0
LINE
8
Black
10
30.2862
20
4.27004
11
30.2862
21
4.56996
0
LINE
8
Black
10
30.2862
20
4.56996
11
30.3888
21
4.8518
0
LINE
8
Black
10
30.3888
20
4.8518
11
30.5816
21
5.08156
0
LINE
8
Black
10
30.5816
20
5.08156
11
30.8413
21
5.23152
0
LINE
8
Black
10
30.8413
20
5.23152
11
31.1367
21
5.2836
0
LINE
8
Black
10
31.1367
20
5.2836
11
31.1433
21
5.2836
0
LINE
8
Black
10
31.1433
20
5.2836
11
31.4387
21
5.23152
0
LINE
8
Black
10
23.5087
20
2.29847
11
23.5174
21
2.29924
0
LINE
8
Black
10
23.5174
20
2.29924
11
23.5427
21
2.29248
0
LINE
8
Black
10
23.5427
20
2.29248
11
23.5684
21
2.28794
0
LINE
8
Black
10
23.5684
20
2.28794
11
23.576
21
2.28354
0
LINE
8
Black
10
23.576
20
2.28354
11
23.5845
21
2.28126
0
LINE
8
Black
10
23.5845
20
2.28126
11
23.6059
21
2.26628
0
LINE
8
Black
10
23.6059
20
2.26628
11
23.6286
21
2.25321
0
LINE
8
Black
10
23.6286
20
2.25321
11
23.6342
21
2.24647
0
LINE
8
Black
10
23.6342
20
2.24647
11
23.6414
21
2.24142
0
LINE
8
Black
10
23.6414
20
2.24142
11
25.0828
21
0.8
0
LINE
8
Black
10
25.0828
20
0.8
11
27.9172
21
0.8
0
LINE
8
Black
10
27.9172
20
0.8
11
29.1586
21
2.04142
0
LINE
8
Black
10
29.1586
20
2.04142
11
29.1658
21
2.04647
0
LINE
8
Black
10
29.1658
20
2.04647
11
29.1714
21
2.05321
0
LINE
8
Black
10
29.1714
20
2.05321
11
29.1941
21
2.06627
0
LINE
8
Black
10
29.1941
20
2.06627
11
29.2155
21
2.08126
0
LINE
8
Black
10
29.2155
20
2.08126
11
29.224
21
2.08354
0
LINE
8
Black
10
29.224
20
2.08354
11
29.2316
21
2.08794
0
LINE
8
Black
10
29.2316
20
2.08794
11
29.2573
21
2.09248
0
LINE
8
Black
10
29.2573
20
2.09248
11
29.2826
21
2.09924
0
LINE
8
Black
10
29.2826
20
2.09924
11
29.2913
21
2.09847
0
LINE
8
Black
10
29.2913
20
2.09847
11
29.3
21
2.1
0
LINE
8
Black
10
29.3
20
2.1
11
33.7807
21
2.1
0
LINE
8
Black
10
33.7807
20
2.1
11
33.8064
21
2.13069
0
LINE
8
Black
10
33.8064
20
2.13069
11
33.897
21
2.18299
0
LINE
8
Black
10
33.897
20
2.18299
11
34
21
2.20115
0
LINE
8
Black
10
34
20
2.20115
11
34.103
21
2.18299
0
LINE
8
Black
10
34.103
20
2.18299
11
34.1936
21
2.13069
0
LINE
8
Black
10
34.1936
20
2.13069
11
34.2608
21
2.05057
0
LINE
8
Black
10
34.2608
20
2.05057
11
34.2966
21
1.95229
0
LINE
8
Black
10
34.2966
20
1.95229
11
34.2966
21
1.84771
0
LINE
8
Black
10
34.2966
20
1.84771
11
34.2608
21
1.74943
0
LINE
8
Black
10
34.2608
20
1.74943
11
34.1936
21
1.66931
0
LINE
8
Black
10
34.1936
20
1.66931
11
34.103
21
1.61702
0
LINE
8
Black
10
34.103
20
1.61702
11
34
21
1.59885
0
LINE
8
Black
10
34
20
1.59885
11
33.897
21
1.61702
0
LINE
8
Black
10
33.897
20
1.61702
11
33.8064
21
1.66931
0
LINE
8
Black
10
33.8064
20
1.66931
11
33.7807
21
1.7
0
LINE
8
Black
10
33.7807
20
1.7
11
29.3828
21
1.7
0
LINE
8
Black
10
29.3828
20
1.7
11
28.1414
21
0.458579
0
LINE
8
Black
10
28.1414
20
0.458579
11
28.1342
21
0.453534
0
LINE
8
Black
10
28.1342
20
0.453534
11
28.1286
21
0.446791
0
LINE
8
Black
10
28.1286
20
0.446791
11
28.1059
21
0.433725
0
LINE
8
Black
10
28.1059
20
0.433725
11
28.0845
21
0.418738
0
LINE
8
Black
10
28.0845
20
0.418738
11
28.076
21
0.416461
0
LINE
8
Black
10
28.076
20
0.416461
11
28.0684
21
0.412061
0
LINE
8
Black
10
28.0684
20
0.412061
11
28.0427
21
0.407524
0
LINE
8
Black
10
28.0427
20
0.407524
11
28.0174
21
0.400761
0
LINE
8
Black
10
28.0174
20
0.400761
11
28.0087
21
0.401528
0
LINE
8
Black
10
28.0087
20
0.401528
11
28
21
0.4
0
LINE
8
Black
10
28
20
0.4
11
25
21
0.4
0
LINE
8
Black
10
25
20
0.4
11
24.9913
21
0.401528
0
LINE
8
Black
10
24.9913
20
0.401528
11
24.9826
21
0.400761
0
LINE
8
Black
10
24.9826
20
0.400761
11
24.9573
21
0.407524
0
LINE
8
Black
10
24.9573
20
0.407524
11
24.9316
21
0.412061
0
LINE
8
Black
10
24.9316
20
0.412061
11
24.924
21
0.416461
0
LINE
8
Black
10
24.924
20
0.416461
11
24.9155
21
0.418738
0
LINE
8
Black
10
24.9155
20
0.418738
11
24.8941
21
0.433726
0
LINE
8
Black
10
24.8941
20
0.433726
11
24.8714
21
0.446791
0
LINE
8
Black
10
24.8714
20
0.446791
11
24.8658
21
0.453533
0
LINE
8
Black
10
24.8658
20
0.453533
11
24.8586
21
0.458579
0
LINE
8
Black
10
24.8586
20
0.458579
11
23.4172
21
1.9
0
LINE
8
Black
10
23.4172
20
1.9
11
21.6828
21
1.9
0
LINE
8
Black
10
21.6828
20
1.9
11
20.0414
21
0.258579
0
LINE
8
Black
10
20.0414
20
0.258579
11
20.0342
21
0.253534
0
LINE
8
Black
10
20.0342
20
0.253534
11
20.0286
21
0.246791
0
LINE
8
Black
10
20.0286
20
0.246791
11
20.0059
21
0.233725
0
LINE
8
Black
10
20.0059
20
0.233725
11
19.9845
21
0.218738
0
LINE
8
Black
10
19.9845
20
0.218738
11
19.976
21
0.216461
0
LINE
8
Black
10
19.976
20
0.216461
11
19.9684
21
0.212061
0
LINE
8
Black
10
19.9684
20
0.212061
11
19.9427
21
0.207524
0
LINE
8
Black
10
19.9427
20
0.207524
11
19.9174
21
0.200761
0
LINE
8
Black
10
19.9174
20
0.200761
11
19.9087
21
0.201528
0
LINE
8
Black
10
19.9087
20
0.201528
11
19.9
21
0.2
0
LINE
8
Black
10
19.9
20
0.2
11
10.7
21
0.2
0
LINE
8
Black
10
10.7
20
0.2
11
10.6913
21
0.201528
0
LINE
8
Black
10
10.6913
20
0.201528
11
10.6826
21
0.200761
0
LINE
8
Black
10
10.6826
20
0.200761
11
10.6573
21
0.207524
0
LINE
8
Black
10
10.6573
20
0.207524
11
10.6316
21
0.212061
0
LINE
8
Black
10
10.6316
20
0.212061
11
10.624
21
0.216461
0
LINE
8
Black
10
10.624
20
0.216461
11
10.6155
21
0.218738
0
LINE
8
Black
10
10.6155
20
0.218738
11
10.5941
21
0.233726
0
LINE
8
Black
10
10.5941
20
0.233726
11
10.5714
21
0.246791
0
LINE
8
Black
10
10.5714
20
0.246791
11
10.5658
21
0.253533
0
LINE
8
Black
10
10.5658
20
0.253533
11
10.5586
21
0.258579
0
LINE
8
Black
10
10.5586
20
0.258579
11
9.81556
21
1.0016
0
LINE
8
Black
10
9.81556
20
1.0016
11
9.8
21
0.998854
0
LINE
8
Black
10
9.8
20
0.998854
11
9.697
21
1.01702
0
LINE
8
Black
10
9.697
20
1.01702
11
9.60643
21
1.06931
0
LINE
8
Black
10
9.60643
20
1.06931
11
9.5392
21
1.14943
0
LINE
8
Black
10
9.5392
20
1.14943
11
9.50343
21
1.24771
0
LINE
8
Black
10
9.50343
20
1.24771
11
9.50343
21
1.35229
0
LINE
8
Black
10
9.50343
20
1.35229
11
9.5392
21
1.45057
0
LINE
8
Black
10
9.5392
20
1.45057
11
9.60643
21
1.53069
0
LINE
8
Black
10
9.60643
20
1.53069
11
9.697
21
1.58299
0
LINE
8
Black
10
9.697
20
1.58299
11
9.8
21
1.60115
0
LINE
8
Black
10
9.8
20
1.60115
11
9.903
21
1.58299
0
LINE
8
Black
10
9.903
20
1.58299
11
9.99357
21
1.53069
0
LINE
8
Black
10
9.99357
20
1.53069
11
10.0608
21
1.45057
0
LINE
8
Black
10
10.0608
20
1.45057
11
10.0966
21
1.35229
0
LINE
8
Black
10
10.0966
20
1.35229
11
10.0966
21
1.28627
0
LINE
8
Black
10
10.0966
20
1.28627
11
10.7828
21
0.6
0
LINE
8
Black
10
10.7828
20
0.6
11
19.8172
21
0.6
0
LINE
8
Black
10
19.8172
20
0.6
11
21.4586
21
2.24142
0
LINE
8
Black
10
21.4586
20
2.24142
11
21.4658
21
2.24647
0
LINE
8
Black
10
21.4658
20
2.24647
11
21.4714
21
2.25321
0
LINE
8
Black
10
21.4714
20
2.25321
11
21.4941
21
2.26628
0
LINE
8
Black
10
21.4941
20
2.26628
11
21.5155
21
2.28126
0
LINE
8
Black
10
21.5155
20
2.28126
11
21.524
21
2.28354
0
LINE
8
Black
10
21.524
20
2.28354
11
21.5316
21
2.28794
0
LINE
8
Black
10
21.5316
20
2.28794
11
21.5573
21
2.29248
0
LINE
8
Black
10
21.5573
20
2.29248
11
21.5826
21
2.29924
0
LINE
8
Black
10
21.5826
20
2.29924
11
21.5913
21
2.29847
0
LINE
8
Black
10
21.5913
20
2.29847
11
21.6
21
2.3
0
LINE
8
Black
10
21.6
20
2.3
11
23.5
21
2.3
0
LINE
8
Black
10
23.5
20
2.3
11
23.5087
21
2.29847
0
LINE
8
Black
10
37.5178
20
12.2907
11
37.7708
21
12.1446
0
LINE
8
Black
10
37.7708
20
12.1446
11
37.9587
21
11.9207
0
LINE
8
Black
10
37.9587
20
11.9207
11
38.0586
21
11.6461
0
LINE
8
Black
10
38.0586
20
11.6461
11
38.0586
21
11.3539
0
LINE
8
Black
10
38.0586
20
11.3539
11
37.9587
21
11.0793
0
LINE
8
Black
10
37.9587
20
11.0793
11
37.7708
21
10.8554
0
LINE
8
Black
10
37.7708
20
10.8554
11
37.5178
21
10.7093
0
LINE
8
Black
10
37.5178
20
10.7093
11
37.23
21
10.6586
0
LINE
8
Black
10
37.23
20
10.6586
11
36.9422
21
10.7093
0
LINE
8
Black
10
36.9422
20
10.7093
11
36.6892
21
10.8554
0
LINE
8
Black
10
36.6892
20
10.8554
11
36.5013
21
11.0793
0
LINE
8
Black
10
36.5013
20
11.0793
11
36.4014
21
11.3539
0
LINE
8
Black
10
36.4014
20
11.3539
11
36.4014
21
11.6461
0
LINE
8
Black
10
36.4014
20
11.6461
11
36.5013
21
11.9207
0
LINE
8
Black
10
36.5013
20
11.9207
11
36.6892
21
12.1446
0
LINE
8
Black
10
36.6892
20
12.1446
11
36.9422
21
12.2907
0
LINE
8
Black
10
36.9422
20
12.2907
11
37.23
21
12.3414
0
LINE
8
Black
10
37.23
20
12.3414
11
37.5178
21
12.2907
0
LINE
8
Black
10
39.5178
20
4.29066
11
39.7708
21
4.14455
0
LINE
8
Black
10
39.7708
20
4.14455
11
39.9587
21
3.9207
0
LINE
8
Black
10
39.9587
20
3.9207
11
40.0586
21
3.64611
0
LINE
8
Black
10
40.0586
20
3.64611
11
40.0586
21
3.35389
0
LINE
8
Black
10
40.0586
20
3.35389
11
39.9587
21
3.0793
0
LINE
8
Black
10
39.9587
20
3.0793
11
39.7708
21
2.85545
0
LINE
8
Black
10
39.7708
20
2.85545
11
39.5178
21
2.70934
0
LINE
8
Black
10
39.5178
20
2.70934
11
39.23
21
2.6586
0
LINE
8
Black
10
39.23
20
2.6586
11
38.9422
21
2.70934
0
LINE
8
Black
10
38.9422
20
2.70934
11
38.6892
21
2.85545
0
LINE
8
Black
10
38.6892
20
2.85545
11
38.5013
21
3.0793
0
LINE
8
Black
10
38.5013
20
3.0793
11
38.4014
21
3.35389
0
LINE
8
Black
10
38.4014
20
3.35389
11
38.4014
21
3.64611
0
LINE
8
Black
10
38.4014
20
3.64611
11
38.5013
21
3.9207
0
LINE
8
Black
10
38.5013
20
3.9207
11
38.6892
21
4.14455
0
LINE
8
Black
10
38.6892
20
4.14455
11
38.9422
21
4.29066
0
LINE
8
Black
10
38.9422
20
4.29066
11
39.23
21
4.3414
0
LINE
8
Black
10
39.23
20
4.3414
11
39.5178
21
4.29066
0
LINE
8
Black
10
45.8636
20
18.984
11
44.1364
21
18.984
0
LINE
8
Black
10
44.1364
20
18.984
11
44.1364
21
21.016
0
LINE
8
Black
10
44.1364
20
21.016
11
45.8636
21
21.016
0
LINE
8
Black
10
45.8636
20
21.016
11
45.8636
21
18.984
0
LINE
8
Black
10
45.5178
20
10.2907
11
45.7708
21
10.1446
0
LINE
8
Black
10
45.7708
20
10.1446
11
45.9587
21
9.9207
0
LINE
8
Black
10
45.9587
20
9.9207
11
46.0586
21
9.64611
0
LINE
8
Black
10
46.0586
20
9.64611
11
46.0586
21
9.35389
0
LINE
8
Black
10
46.0586
20
9.35389
11
45.9587
21
9.0793
0
LINE
8
Black
10
45.9587
20
9.0793
11
45.7708
21
8.85545
0
LINE
8
Black
10
45.7708
20
8.85545
11
45.5178
21
8.70934
0
LINE
8
Black
10
45.5178
20
8.70934
11
45.23
21
8.6586
0
LINE
8
Black
10
45.23
20
8.6586
11
44.9422
21
8.70934
0
LINE
8
Black
10
44.9422
20
8.70934
11
44.6892
21
8.85545
0
LINE
8
Black
10
44.6892
20
8.85545
11
44.5013
21
9.0793
0
LINE
8
Black
10
44.5013
20
9.0793
11
44.4014
21
9.35389
0
LINE
8
Black
10
44.4014
20
9.35389
11
44.4014
21
9.64611
0
LINE
8
Black
10
44.4014
20
9.64611
11
44.5013
21
9.9207
0
LINE
8
Black
10
44.5013
20
9.9207
11
44.6892
21
10.1446
0
LINE
8
Black
10
44.6892
20
10.1446
11
44.9422
21
10.2907
0
LINE
8
Black
10
44.9422
20
10.2907
11
45.23
21
10.3414
0
LINE
8
Black
10
45.23
20
10.3414
11
45.5178
21
10.2907
0
LINE
8
Black
10
47.9718
20
20.9042
11
48.2016
21
20.7114
0
LINE
8
Black
10
48.2016
20
20.7114
11
48.3515
21
20.4517
0
LINE
8
Black
10
48.3515
20
20.4517
11
48.4036
21
20.1563
0
LINE
8
Black
10
48.4036
20
20.1563
11
48.4036
21
19.8437
0
LINE
8
Black
10
48.4036
20
19.8437
11
48.3515
21
19.5484
0
LINE
8
Black
10
48.3515
20
19.5484
11
48.2016
21
19.2886
0
LINE
8
Black
10
48.2016
20
19.2886
11
47.9718
21
19.0958
0
LINE
8
Black
10
47.9718
20
19.0958
11
47.74
21
19.0115
0
LINE
8
Black
10
47.74
20
19.0115
11
47.74
21
18.54
0
LINE
8
Black
10
47.74
20
18.54
11
47.7385
21
18.5313
0
LINE
8
Black
10
47.7385
20
18.5313
11
47.7392
21
18.5226
0
LINE
8
Black
10
47.7392
20
18.5226
11
47.7325
21
18.4973
0
LINE
8
Black
10
47.7325
20
18.4973
11
47.7279
21
18.4716
0
LINE
8
Black
10
47.7279
20
18.4716
11
47.7235
21
18.464
0
LINE
8
Black
10
47.7235
20
18.464
11
47.7213
21
18.4555
0
LINE
8
Black
10
47.7213
20
18.4555
11
47.7063
21
18.4341
0
LINE
8
Black
10
47.7063
20
18.4341
11
47.6932
21
18.4114
0
LINE
8
Black
10
47.6932
20
18.4114
11
47.6865
21
18.4058
0
LINE
8
Black
10
47.6865
20
18.4058
11
47.6814
21
18.3986
0
LINE
8
Black
10
47.6814
20
18.3986
11
46.4414
21
17.1586
0
LINE
8
Black
10
46.4414
20
17.1586
11
46.4342
21
17.1535
0
LINE
8
Black
10
46.4342
20
17.1535
11
46.4286
21
17.1468
0
LINE
8
Black
10
46.4286
20
17.1468
11
46.4059
21
17.1337
0
LINE
8
Black
10
46.4059
20
17.1337
11
46.3845
21
17.1187
0
LINE
8
Black
10
46.3845
20
17.1187
11
46.376
21
17.1165
0
LINE
8
Black
10
46.376
20
17.1165
11
46.3684
21
17.1121
0
LINE
8
Black
10
46.3684
20
17.1121
11
46.3427
21
17.1075
0
LINE
8
Black
10
46.3427
20
17.1075
11
46.3174
21
17.1008
0
LINE
8
Black
10
46.3174
20
17.1008
11
46.3087
21
17.1015
0
LINE
8
Black
10
46.3087
20
17.1015
11
46.3
21
17.1
0
LINE
8
Black
10
46.3
20
17.1
11
37.9828
21
17.1
0
LINE
8
Black
10
37.9828
20
17.1
11
35
21
14.1172
0
LINE
8
Black
10
35
20
14.1172
11
35
21
4.7
0
LINE
8
Black
10
35
20
4.7
11
34.9985
21
4.69134
0
LINE
8
Black
10
34.9985
20
4.69134
11
34.9992
21
4.68257
0
LINE
8
Black
10
34.9992
20
4.68257
11
34.9925
21
4.65733
0
LINE
8
Black
10
34.9925
20
4.65733
11
34.9879
21
4.6316
0
LINE
8
Black
10
34.9879
20
4.6316
11
34.9835
21
4.62398
0
LINE
8
Black
10
34.9835
20
4.62398
11
34.9813
21
4.61548
0
LINE
8
Black
10
34.9813
20
4.61548
11
34.9663
21
4.59407
0
LINE
8
Black
10
34.9663
20
4.59407
11
34.9532
21
4.57144
0
LINE
8
Black
10
34.9532
20
4.57144
11
34.9465
21
4.56579
0
LINE
8
Black
10
34.9465
20
4.56579
11
34.9414
21
4.55858
0
LINE
8
Black
10
34.9414
20
4.55858
11
33.2414
21
2.85858
0
LINE
8
Black
10
33.2414
20
2.85858
11
33.2342
21
2.85353
0
LINE
8
Black
10
33.2342
20
2.85353
11
33.2286
21
2.84679
0
LINE
8
Black
10
33.2286
20
2.84679
11
33.2059
21
2.83373
0
LINE
8
Black
10
33.2059
20
2.83373
11
33.1845
21
2.81874
0
LINE
8
Black
10
33.1845
20
2.81874
11
33.176
21
2.81646
0
LINE
8
Black
10
33.176
20
2.81646
11
33.1684
21
2.81206
0
LINE
8
Black
10
33.1684
20
2.81206
11
33.1427
21
2.80752
0
LINE
8
Black
10
33.1427
20
2.80752
11
33.1174
21
2.80076
0
LINE
8
Black
10
33.1174
20
2.80076
11
33.1087
21
2.80153
0
LINE
8
Black
10
33.1087
20
2.80153
11
33.1
21
2.8
0
LINE
8
Black
10
33.1
20
2.8
11
26
21
2.8
0
LINE
8
Black
10
26
20
2.8
11
25.9913
21
2.80153
0
LINE
8
Black
10
25.9913
20
2.80153
11
25.9826
21
2.80076
0
LINE
8
Black
10
25.9826
20
2.80076
11
25.9573
21
2.80752
0
LINE
8
Black
10
25.9573
20
2.80752
11
25.9316
21
2.81206
0
LINE
8
Black
10
25.9316
20
2.81206
11
25.924
21
2.81646
0
LINE
8
Black
10
25.924
20
2.81646
11
25.9155
21
2.81874
0
LINE
8
Black
10
25.9155
20
2.81874
11
25.8941
21
2.83373
0
LINE
8
Black
10
25.8941
20
2.83373
11
25.8714
21
2.84679
0
LINE
8
Black
10
25.8714
20
2.84679
11
25.8658
21
2.85353
0
LINE
8
Black
10
25.8658
20
2.85353
11
25.8586
21
2.85858
0
LINE
8
Black
10
25.8586
20
2.85858
11
25.6172
21
3.1
0
LINE
8
Black
10
25.6172
20
3.1
11
16.9828
21
3.1
0
LINE
8
Black
10
16.9828
20
3.1
11
14.9414
21
1.05858
0
LINE
8
Black
10
14.9414
20
1.05858
11
14.9342
21
1.05353
0
LINE
8
Black
10
14.9342
20
1.05353
11
14.9286
21
1.04679
0
LINE
8
Black
10
14.9286
20
1.04679
11
14.9059
21
1.03373
0
LINE
8
Black
10
14.9059
20
1.03373
11
14.8845
21
1.01874
0
LINE
8
Black
10
14.8845
20
1.01874
11
14.876
21
1.01646
0
LINE
8
Black
10
14.876
20
1.01646
11
14.8684
21
1.01206
0
LINE
8
Black
10
14.8684
20
1.01206
11
14.8427
21
1.00752
0
LINE
8
Black
10
14.8427
20
1.00752
11
14.8174
21
1.00076
0
LINE
8
Black
10
14.8174
20
1.00076
11
14.8087
21
1.00153
0
LINE
8
Black
10
14.8087
20
1.00153
11
14.8
21
1
0
LINE
8
Black
10
14.8
20
1
11
11.3
21
1
0
LINE
8
Black
10
11.3
20
1
11
11.2913
21
1.00153
0
LINE
8
Black
10
11.2913
20
1.00153
11
11.2826
21
1.00076
0
LINE
8
Black
10
11.2826
20
1.00076
11
11.2573
21
1.00753
0
LINE
8
Black
10
11.2573
20
1.00753
11
11.2316
21
1.01206
0
LINE
8
Black
10
11.2316
20
1.01206
11
11.224
21
1.01646
0
LINE
8
Black
10
11.224
20
1.01646
11
11.2155
21
1.01874
0
LINE
8
Black
10
11.2155
20
1.01874
11
11.1941
21
1.03373
0
LINE
8
Black
10
11.1941
20
1.03373
11
11.1714
21
1.04679
0
LINE
8
Black
10
11.1714
20
1.04679
11
11.1658
21
1.05353
0
LINE
8
Black
10
11.1658
20
1.05353
11
11.1586
21
1.05858
0
LINE
8
Black
10
11.1586
20
1.05858
11
9.91716
21
2.3
0
LINE
8
Black
10
9.91716
20
2.3
11
8.71933
21
2.3
0
LINE
8
Black
10
8.71933
20
2.3
11
8.69357
21
2.26931
0
LINE
8
Black
10
8.69357
20
2.26931
11
8.603
21
2.21702
0
LINE
8
Black
10
8.603
20
2.21702
11
8.5
21
2.19885
0
LINE
8
Black
10
8.5
20
2.19885
11
8.397
21
2.21702
0
LINE
8
Black
10
8.397
20
2.21702
11
8.30643
21
2.26931
0
LINE
8
Black
10
8.30643
20
2.26931
11
8.2392
21
2.34943
0
LINE
8
Black
10
8.2392
20
2.34943
11
8.20343
21
2.44771
0
LINE
8
Black
10
8.20343
20
2.44771
11
8.20343
21
2.55229
0
LINE
8
Black
10
8.20343
20
2.55229
11
8.2392
21
2.65057
0
LINE
8
Black
10
8.2392
20
2.65057
11
8.30643
21
2.73069
0
LINE
8
Black
10
8.30643
20
2.73069
11
8.397
21
2.78299
0
LINE
8
Black
10
8.397
20
2.78299
11
8.5
21
2.80115
0
LINE
8
Black
10
8.5
20
2.80115
11
8.603
21
2.78299
0
LINE
8
Black
10
8.603
20
2.78299
11
8.69357
21
2.73069
0
LINE
8
Black
10
8.69357
20
2.73069
11
8.71933
21
2.7
0
LINE
8
Black
10
8.71933
20
2.7
11
10
21
2.7
0
LINE
8
Black
10
10
20
2.7
11
10.0087
21
2.69847
0
LINE
8
Black
10
10.0087
20
2.69847
11
10.0174
21
2.69924
0
LINE
8
Black
10
10.0174
20
2.69924
11
10.0427
21
2.69248
0
LINE
8
Black
10
10.0427
20
2.69248
11
10.0684
21
2.68794
0
LINE
8
Black
10
10.0684
20
2.68794
11
10.076
21
2.68354
0
LINE
8
Black
10
10.076
20
2.68354
11
10.0845
21
2.68126
0
LINE
8
Black
10
10.0845
20
2.68126
11
10.1059
21
2.66628
0
LINE
8
Black
10
10.1059
20
2.66628
11
10.1286
21
2.65321
0
LINE
8
Black
10
10.1286
20
2.65321
11
10.1342
21
2.64647
0
LINE
8
Black
10
10.1342
20
2.64647
11
10.1414
21
2.64142
0
LINE
8
Black
10
10.1414
20
2.64142
11
11.3828
21
1.4
0
LINE
8
Black
10
11.3828
20
1.4
11
14.7172
21
1.4
0
LINE
8
Black
10
14.7172
20
1.4
11
16.7586
21
3.44142
0
LINE
8
Black
10
16.7586
20
3.44142
11
16.7658
21
3.44647
0
LINE
8
Black
10
16.7658
20
3.44647
11
16.7714
21
3.45321
0
LINE
8
Black
10
16.7714
20
3.45321
11
16.7941
21
3.46628
0
LINE
8
Black
10
16.7941
20
3.46628
11
16.8155
21
3.48126
0
LINE
8
Black
10
16.8155
20
3.48126
11
16.824
21
3.48354
0
LINE
8
Black
10
16.824
20
3.48354
11
16.8316
21
3.48794
0
LINE
8
Black
10
16.8316
20
3.48794
11
16.8573
21
3.49248
0
LINE
8
Black
10
16.8573
20
3.49248
11
16.8826
21
3.49924
0
LINE
8
Black
10
16.8826
20
3.49924
11
16.8913
21
3.49847
0
LINE
8
Black
10
16.8913
20
3.49847
11
16.9
21
3.5
0
LINE
8
Black
10
16.9
20
3.5
11
25.7
21
3.5
0
LINE
8
Black
10
25.7
20
3.5
11
25.7087
21
3.49847
0
LINE
8
Black
10
25.7087
20
3.49847
11
25.7174
21
3.49924
0
LINE
8
Black
10
25.7174
20
3.49924
11
25.7427
21
3.49248
0
LINE
8
Black
10
25.7427
20
3.49248
11
25.7684
21
3.48794
0
LINE
8
Black
10
25.7684
20
3.48794
11
25.776
21
3.48354
0
LINE
8
Black
10
25.776
20
3.48354
11
25.7845
21
3.48126
0
LINE
8
Black
10
25.7845
20
3.48126
11
25.8059
21
3.46628
0
LINE
8
Black
10
25.8059
20
3.46628
11
25.8286
21
3.45321
0
LINE
8
Black
10
25.8286
20
3.45321
11
25.8342
21
3.44647
0
LINE
8
Black
10
25.8342
20
3.44647
11
25.8414
21
3.44142
0
LINE
8
Black
10
25.8414
20
3.44142
11
26.0828
21
3.2
0
LINE
8
Black
10
26.0828
20
3.2
11
33.0172
21
3.2
0
LINE
8
Black
10
33.0172
20
3.2
11
34.6
21
4.78284
0
LINE
8
Black
10
34.6
20
4.78284
11
34.6
21
14.2
0
LINE
8
Black
10
34.6
20
14.2
11
34.6015
21
14.2087
0
LINE
8
Black
10
34.6015
20
14.2087
11
34.6008
21
14.2174
0
LINE
8
Black
10
34.6008
20
14.2174
11
34.6075
21
14.2427
0
LINE
8
Black
10
34.6075
20
14.2427
11
34.6121
21
14.2684
0
LINE
8
Black
10
34.6121
20
14.2684
11
34.6165
21
14.276
0
LINE
8
Black
10
34.6165
20
14.276
11
34.6187
21
14.2845
0
LINE
8
Black
10
34.6187
20
14.2845
11
34.6337
21
14.3059
0
LINE
8
Black
10
34.6337
20
14.3059
11
34.6468
21
14.3286
0
LINE
8
Black
10
34.6468
20
14.3286
11
34.6535
21
14.3342
0
LINE
8
Black
10
34.6535
20
14.3342
11
34.6586
21
14.3414
0
LINE
8
Black
10
34.6586
20
14.3414
11
37.7586
21
17.4414
0
LINE
8
Black
10
37.7586
20
17.4414
11
37.7658
21
17.4465
0
LINE
8
Black
10
37.7658
20
17.4465
11
37.7714
21
17.4532
0
LINE
8
Black
10
37.7714
20
17.4532
11
37.7941
21
17.4663
0
LINE
8
Black
10
37.7941
20
17.4663
11
37.8155
21
17.4813
0
LINE
8
Black
10
37.8155
20
17.4813
11
37.824
21
17.4835
0
LINE
8
Black
10
37.824
20
17.4835
11
37.8316
21
17.4879
0
LINE
8
Black
10
37.8316
20
17.4879
11
37.8573
21
17.4925
0
LINE
8
Black
10
37.8573
20
17.4925
11
37.8826
21
17.4992
0
LINE
8
Black
10
37.8826
20
17.4992
11
37.8913
21
17.4985
0
LINE
8
Black
10
37.8913
20
17.4985
11
37.9
21
17.5
0
LINE
8
Black
10
37.9
20
17.5
11
46.2172
21
17.5
0
LINE
8
Black
10
46.2172
20
17.5
11
47.34
21
18.6228
0
LINE
8
Black
10
47.34
20
18.6228
11
47.34
21
19.0115
0
LINE
8
Black
10
47.34
20
19.0115
11
47.1082
21
19.0958
0
LINE
8
Black
10
47.1082
20
19.0958
11
46.8784
21
19.2886
0
LINE
8
Black
10
46.8784
20
19.2886
11
46.7285
21
19.5484
0
LINE
8
Black
10
46.7285
20
19.5484
11
46.6764
21
19.8437
0
LINE
8
Black
10
46.6764
20
19.8437
11
46.6764
21
20.1563
0
LINE
8
Black
10
46.6764
20
20.1563
11
46.7285
21
20.4517
0
LINE
8
Black
10
46.7285
20
20.4517
11
46.8784
21
20.7114
0
LINE
8
Black
10
46.8784
20
20.7114
11
47.1082
21
20.9042
0
LINE
8
Black
10
47.1082
20
20.9042
11
47.39
21
21.0068
0
LINE
8
Black
10
47.39
20
21.0068
11
47.69
21
21.0068
0
LINE
8
Black
10
47.69
20
21.0068
11
47.9718
21
20.9042
0
LINE
8
Black
10
21.636
20
4.01136
11
21.6168
21
4.01388
0
LINE
8
Black
10
21.6168
20
4.01388
11
21.6144
21
4.01517
0
LINE
8
Black
10
21.6144
20
4.01517
11
21.6116
21
4.01566
0
LINE
8
Black
10
21.6116
20
4.01566
11
21.5948
21
4.02533
0
LINE
8
Black
10
21.5948
20
4.02533
11
21.5777
21
4.03424
0
LINE
8
Black
10
21.5777
20
4.03424
11
21.5758
21
4.03631
0
LINE
8
Black
10
21.5758
20
4.03631
11
21.5734
21
4.03771
0
LINE
8
Black
10
21.5734
20
4.03771
11
21.561
21
4.05252
0
LINE
8
Black
10
21.561
20
4.05252
11
21.5479
21
4.06676
0
LINE
8
Black
10
21.5479
20
4.06676
11
21.5468
21
4.06935
0
LINE
8
Black
10
21.5468
20
4.06935
11
21.545
21
4.0715
0
LINE
8
Black
10
21.545
20
4.0715
11
21.5384
21
4.08965
0
LINE
8
Black
10
21.5384
20
4.08965
11
21.531
21
4.10751
0
LINE
8
Black
10
21.531
20
4.10751
11
21.5309
21
4.11031
0
LINE
8
Black
10
21.5309
20
4.11031
11
21.53
21
4.11295
0
LINE
8
Black
10
21.53
20
4.11295
11
21.53
21
4.13228
0
LINE
8
Black
10
21.53
20
4.13228
11
21.5291
21
4.15158
0
LINE
8
Black
10
21.5291
20
4.15158
11
21.53
21
4.15425
0
LINE
8
Black
10
21.53
20
4.15425
11
21.53
21
4.15705
0
LINE
8
Black
10
21.53
20
4.15705
11
21.5366
21
4.17521
0
LINE
8
Black
10
21.5366
20
4.17521
11
21.5424
21
4.19364
0
LINE
8
Black
10
21.5424
20
4.19364
11
21.5441
21
4.19587
0
LINE
8
Black
10
21.5441
20
4.19587
11
21.545
21
4.1985
0
LINE
8
Black
10
21.545
20
4.1985
11
21.5575
21
4.2133
0
LINE
8
Black
10
21.5575
20
4.2133
11
21.5692
21
4.22863
0
LINE
8
Black
10
21.5692
20
4.22863
11
21.5716
21
4.23014
0
LINE
8
Black
10
21.5716
20
4.23014
11
21.5734
21
4.23229
0
LINE
8
Black
10
21.5734
20
4.23229
11
21.5901
21
4.24195
0
LINE
8
Black
10
21.5901
20
4.24195
11
21.6064
21
4.25233
0
LINE
8
Black
10
21.6064
20
4.25233
11
21.7437
21
4.30918
0
LINE
8
Black
10
21.7437
20
4.30918
11
21.7815
21
4.42927
0
LINE
8
Black
10
21.7815
20
4.42927
11
21.4489
21
4.76193
0
LINE
8
Black
10
21.4489
20
4.76193
11
21.3578
21
4.70934
0
LINE
8
Black
10
21.3578
20
4.70934
11
21.07
21
4.6586
0
LINE
8
Black
10
21.07
20
4.6586
11
20.7822
21
4.70934
0
LINE
8
Black
10
20.7822
20
4.70934
11
20.6911
21
4.76193
0
LINE
8
Black
10
20.6911
20
4.76193
11
20.3585
21
4.42927
0
LINE
8
Black
10
20.3585
20
4.42927
11
20.3953
21
4.31256
0
LINE
8
Black
10
20.3953
20
4.31256
11
20.5559
21
4.25442
0
LINE
8
Black
10
20.5559
20
4.25442
11
20.556
21
4.25436
0
LINE
8
Black
10
20.556
20
4.25436
11
20.5561
21
4.25434
0
LINE
8
Black
10
20.5561
20
4.25434
11
20.5752
21
4.24332
0
LINE
8
Black
10
20.5752
20
4.24332
11
20.5941
21
4.23243
0
LINE
8
Black
10
20.5941
20
4.23243
11
20.5942
21
4.23235
0
LINE
8
Black
10
20.5942
20
4.23235
11
20.5943
21
4.23229
0
LINE
8
Black
10
20.5943
20
4.23229
11
20.6084
21
4.21544
0
LINE
8
Black
10
20.6084
20
4.21544
11
20.6225
21
4.19869
0
LINE
8
Black
10
20.6225
20
4.19869
11
20.6226
21
4.19859
0
LINE
8
Black
10
20.6226
20
4.19859
11
20.6226
21
4.1985
0
LINE
8
Black
10
20.6226
20
4.1985
11
20.6302
21
4.17788
0
LINE
8
Black
10
20.6302
20
4.17788
11
20.6377
21
4.15727
0
LINE
8
Black
10
20.6377
20
4.15727
11
20.6377
21
4.15716
0
LINE
8
Black
10
20.6377
20
4.15716
11
20.6377
21
4.15705
0
LINE
8
Black
10
20.6377
20
4.15705
11
20.6377
21
4.13493
0
LINE
8
Black
10
20.6377
20
4.13493
11
20.6378
21
4.11317
0
LINE
8
Black
10
20.6378
20
4.11317
11
20.6377
21
4.11306
0
LINE
8
Black
10
20.6377
20
4.11306
11
20.6377
21
4.11295
0
LINE
8
Black
10
20.6377
20
4.11295
11
20.6302
21
4.09237
0
LINE
8
Black
10
20.6302
20
4.09237
11
20.6228
21
4.07169
0
LINE
8
Black
10
20.6228
20
4.07169
11
20.6227
21
4.07161
0
LINE
8
Black
10
20.6227
20
4.07161
11
20.6226
21
4.0715
0
LINE
8
Black
10
20.6226
20
4.0715
11
20.6085
21
4.05459
0
LINE
8
Black
10
20.6085
20
4.05459
11
20.5945
21
4.03786
0
LINE
8
Black
10
20.5945
20
4.03786
11
20.5944
21
4.0378
0
LINE
8
Black
10
20.5944
20
4.0378
11
20.5943
21
4.03771
0
LINE
8
Black
10
20.5943
20
4.03771
11
20.5751
21
4.02663
0
LINE
8
Black
10
20.5751
20
4.02663
11
20.5563
21
4.01574
0
LINE
8
Black
10
20.5563
20
4.01574
11
20.5562
21
4.01572
0
LINE
8
Black
10
20.5562
20
4.01572
11
20.5561
21
4.01566
0
LINE
8
Black
10
20.5561
20
4.01566
11
20.5345
21
4.01186
0
LINE
8
Black
10
20.5345
20
4.01186
11
20.5129
21
4.008
0
LINE
8
Black
10
20.5129
20
4.008
11
20.5128
21
4.00802
0
LINE
8
Black
10
20.5128
20
4.00802
11
20.5127
21
4.008
0
LINE
8
Black
10
20.5127
20
4.008
11
19.0842
21
4.008
0
LINE
8
Black
10
19.0842
20
4.008
11
19.0652
21
4.01137
0
LINE
8
Black
10
19.0652
20
4.01137
11
19.0459
21
4.01391
0
LINE
8
Black
10
19.0459
20
4.01391
11
19.0435
21
4.01518
0
LINE
8
Black
10
19.0435
20
4.01518
11
19.0408
21
4.01566
0
LINE
8
Black
10
19.0408
20
4.01566
11
19.024
21
4.02535
0
LINE
8
Black
10
19.024
20
4.02535
11
19.0068
21
4.03431
0
LINE
8
Black
10
19.0068
20
4.03431
11
19.005
21
4.03634
0
LINE
8
Black
10
19.005
20
4.03634
11
19.0026
21
4.03771
0
LINE
8
Black
10
19.0026
20
4.03771
11
18.9901
21
4.05256
0
LINE
8
Black
10
18.9901
20
4.05256
11
18.9771
21
4.06686
0
LINE
8
Black
10
18.9771
20
4.06686
11
18.976
21
4.0694
0
LINE
8
Black
10
18.976
20
4.0694
11
18.9742
21
4.0715
0
LINE
8
Black
10
18.9742
20
4.0715
11
18.9676
21
4.0897
0
LINE
8
Black
10
18.9676
20
4.0897
11
18.9602
21
4.10762
0
LINE
8
Black
10
18.9602
20
4.10762
11
18.9601
21
4.11037
0
LINE
8
Black
10
18.9601
20
4.11037
11
18.9592
21
4.11295
0
LINE
8
Black
10
18.9592
20
4.11295
11
18.9592
21
4.13233
0
LINE
8
Black
10
18.9592
20
4.13233
11
18.9583
21
4.15169
0
LINE
8
Black
10
18.9583
20
4.15169
11
18.9592
21
4.15431
0
LINE
8
Black
10
18.9592
20
4.15431
11
18.9592
21
4.15705
0
LINE
8
Black
10
18.9592
20
4.15705
11
18.9658
21
4.17526
0
LINE
8
Black
10
18.9658
20
4.17526
11
18.9716
21
4.19374
0
LINE
8
Black
10
18.9716
20
4.19374
11
18.9733
21
4.19592
0
LINE
8
Black
10
18.9733
20
4.19592
11
18.9742
21
4.1985
0
LINE
8
Black
10
18.9742
20
4.1985
11
18.9867
21
4.21335
0
LINE
8
Black
10
18.9867
20
4.21335
11
18.9985
21
4.22871
0
LINE
8
Black
10
18.9985
20
4.22871
11
19.0008
21
4.23018
0
LINE
8
Black
10
19.0008
20
4.23018
11
19.0026
21
4.23229
0
LINE
8
Black
10
19.0026
20
4.23229
11
19.0194
21
4.24198
0
LINE
8
Black
10
19.0194
20
4.24198
11
19.0357
21
4.25238
0
LINE
8
Black
10
19.0357
20
4.25238
11
19.2916
21
4.35808
0
LINE
8
Black
10
19.2916
20
4.35808
11
19.6706
21
4.73644
0
LINE
8
Black
10
19.6706
20
4.73644
11
19.6832
21
4.7667
0
LINE
8
Black
10
19.6832
20
4.7667
11
19.6861
21
4.77136
0
LINE
8
Black
10
19.6861
20
4.77136
11
19.6878
21
4.77663
0
LINE
8
Black
10
19.6878
20
4.77663
11
19.6979
21
4.78984
0
LINE
8
Black
10
19.6979
20
4.78984
11
19.7069
21
4.80388
0
LINE
8
Black
10
19.7069
20
4.80388
11
19.7113
21
4.80724
0
LINE
8
Black
10
19.7113
20
4.80724
11
19.7146
21
4.81162
0
LINE
8
Black
10
19.7146
20
4.81162
11
19.7287
21
4.82057
0
LINE
8
Black
10
19.7287
20
4.82057
11
19.7419
21
4.8307
0
LINE
8
Black
10
19.7419
20
4.8307
11
19.7472
21
4.83236
0
LINE
8
Black
10
19.7472
20
4.83236
11
19.7518
21
4.83533
0
LINE
8
Black
10
19.7518
20
4.83533
11
19.7681
21
4.83893
0
LINE
8
Black
10
19.7681
20
4.83893
11
19.784
21
4.84392
0
LINE
8
Black
10
19.784
20
4.84392
11
19.7895
21
4.84368
0
LINE
8
Black
10
19.7895
20
4.84368
11
19.7949
21
4.84488
0
LINE
8
Black
10
19.7949
20
4.84488
11
19.8114
21
4.8427
0
LINE
8
Black
10
19.8114
20
4.8427
11
19.828
21
4.84196
0
LINE
8
Black
10
19.828
20
4.84196
11
19.8331
21
4.83984
0
LINE
8
Black
10
19.8331
20
4.83984
11
19.8386
21
4.83912
0
LINE
8
Black
10
19.8386
20
4.83912
11
19.9993
21
4.78848
0
LINE
8
Black
10
19.9993
20
4.78848
11
20.3277
21
5.11686
0
LINE
8
Black
10
20.3277
20
5.11686
11
20.2414
21
5.35389
0
LINE
8
Black
10
20.2414
20
5.35389
11
20.2414
21
5.64611
0
LINE
8
Black
10
20.2414
20
5.64611
11
20.3277
21
5.88314
0
LINE
8
Black
10
20.3277
20
5.88314
11
19.9993
21
6.21152
0
LINE
8
Black
10
19.9993
20
6.21152
11
19.839
21
6.161
0
LINE
8
Black
10
19.839
20
6.161
11
19.8334
21
6.16027
0
LINE
8
Black
10
19.8334
20
6.16027
11
19.8282
21
6.15812
0
LINE
8
Black
10
19.8282
20
6.15812
11
19.8117
21
6.15741
0
LINE
8
Black
10
19.8117
20
6.15741
11
19.7953
21
6.15525
0
LINE
8
Black
10
19.7953
20
6.15525
11
19.7898
21
6.15647
0
LINE
8
Black
10
19.7898
20
6.15647
11
19.7841
21
6.15623
0
LINE
8
Black
10
19.7841
20
6.15623
11
19.7684
21
6.16122
0
LINE
8
Black
10
19.7684
20
6.16122
11
19.7522
21
6.1648
0
LINE
8
Black
10
19.7522
20
6.1648
11
19.7475
21
6.16783
0
LINE
8
Black
10
19.7475
20
6.16783
11
19.7421
21
6.16953
0
LINE
8
Black
10
19.7421
20
6.16953
11
19.729
21
6.17962
0
LINE
8
Black
10
19.729
20
6.17962
11
19.715
21
6.1885
0
LINE
8
Black
10
19.715
20
6.1885
11
19.7116
21
6.19297
0
LINE
8
Black
10
19.7116
20
6.19297
11
19.7071
21
6.19641
0
LINE
8
Black
10
19.7071
20
6.19641
11
19.6982
21
6.21037
0
LINE
8
Black
10
19.6982
20
6.21037
11
19.6882
21
6.2235
0
LINE
8
Black
10
19.6882
20
6.2235
11
19.6865
21
6.22888
0
LINE
8
Black
10
19.6865
20
6.22888
11
19.6835
21
6.23363
0
LINE
8
Black
10
19.6835
20
6.23363
11
19.6719
21
6.26157
0
LINE
8
Black
10
19.6719
20
6.26157
11
19.2936
21
6.64059
0
LINE
8
Black
10
19.2936
20
6.64059
11
18.799
21
6.84597
0
LINE
8
Black
10
18.799
20
6.84597
11
18.2634
21
6.84643
0
LINE
8
Black
10
18.2634
20
6.84643
11
17.7684
21
6.64192
0
LINE
8
Black
10
17.7684
20
6.64192
11
17.3894
21
6.26356
0
LINE
8
Black
10
17.3894
20
6.26356
11
17.184
21
5.76895
0
LINE
8
Black
10
17.184
20
5.76895
11
17.1836
21
5.2334
0
LINE
8
Black
10
17.1836
20
5.2334
11
17.3881
21
4.73844
0
LINE
8
Black
10
17.3881
20
4.73844
11
17.7664
21
4.35941
0
LINE
8
Black
10
17.7664
20
4.35941
11
18.0244
21
4.25229
0
LINE
8
Black
10
18.0244
20
4.25229
11
18.0407
21
4.24193
0
LINE
8
Black
10
18.0407
20
4.24193
11
18.0574
21
4.23229
0
LINE
8
Black
10
18.0574
20
4.23229
11
18.0592
21
4.2301
0
LINE
8
Black
10
18.0592
20
4.2301
11
18.0616
21
4.22856
0
LINE
8
Black
10
18.0616
20
4.22856
11
18.0733
21
4.21326
0
LINE
8
Black
10
18.0733
20
4.21326
11
18.0857
21
4.1985
0
LINE
8
Black
10
18.0857
20
4.1985
11
18.0867
21
4.19582
0
LINE
8
Black
10
18.0867
20
4.19582
11
18.0884
21
4.19354
0
LINE
8
Black
10
18.0884
20
4.19354
11
18.0942
21
4.17516
0
LINE
8
Black
10
18.0942
20
4.17516
11
18.1008
21
4.15705
0
LINE
8
Black
10
18.1008
20
4.15705
11
18.1008
21
4.15419
0
LINE
8
Black
10
18.1008
20
4.15419
11
18.1016
21
4.15147
0
LINE
8
Black
10
18.1016
20
4.15147
11
18.1008
21
4.13222
0
LINE
8
Black
10
18.1008
20
4.13222
11
18.1008
21
4.11295
0
LINE
8
Black
10
18.1008
20
4.11295
11
18.0998
21
4.11026
0
LINE
8
Black
10
18.0998
20
4.11026
11
18.0997
21
4.1074
0
LINE
8
Black
10
18.0997
20
4.1074
11
18.0923
21
4.08959
0
LINE
8
Black
10
18.0923
20
4.08959
11
18.0857
21
4.0715
0
LINE
8
Black
10
18.0857
20
4.0715
11
18.0839
21
4.06931
0
LINE
8
Black
10
18.0839
20
4.06931
11
18.0828
21
4.06667
0
LINE
8
Black
10
18.0828
20
4.06667
11
18.0697
21
4.05248
0
LINE
8
Black
10
18.0697
20
4.05248
11
18.0574
21
4.03771
0
LINE
8
Black
10
18.0574
20
4.03771
11
18.0549
21
4.03628
0
LINE
8
Black
10
18.0549
20
4.03628
11
18.0529
21
4.03418
0
LINE
8
Black
10
18.0529
20
4.03418
11
18.0358
21
4.0253
0
LINE
8
Black
10
18.0358
20
4.0253
11
18.0192
21
4.01566
0
LINE
8
Black
10
18.0192
20
4.01566
11
18.0163
21
4.01516
0
LINE
8
Black
10
18.0163
20
4.01516
11
18.0138
21
4.01384
0
LINE
8
Black
10
18.0138
20
4.01384
11
17.9947
21
4.01135
0
LINE
8
Black
10
17.9947
20
4.01135
11
17.9757
21
4.008
0
LINE
8
Black
10
17.9757
20
4.008
11
16.9125
21
4.008
0
LINE
8
Black
10
16.9125
20
4.008
11
16.63
21
3.95181
0
LINE
8
Black
10
16.63
20
3.95181
11
16.5156
21
3.87534
0
LINE
8
Black
10
16.5156
20
3.87534
11
16.5156
21
3.87534
0
LINE
8
Black
10
16.5156
20
3.87534
11
16.5156
21
3.87534
0
LINE
8
Black
10
16.5156
20
3.87534
11
16.3905
21
3.79179
0
LINE
8
Black
10
16.3905
20
3.79179
11
14.5439
21
1.9452
0
LINE
8
Black
10
14.5439
20
1.9452
11
14.5394
21
1.94199
0
LINE
8
Black
10
14.5394
20
1.94199
11
14.5358
21
1.93771
0
LINE
8
Black
10
14.5358
20
1.93771
11
14.5214
21
1.92942
0
LINE
8
Black
10
14.5214
20
1.92942
11
14.5078
21
1.9199
0
LINE
8
Black
10
14.5078
20
1.9199
11
14.5024
21
1.91845
0
LINE
8
Black
10
14.5024
20
1.91845
11
14.4976
21
1.91566
0
LINE
8
Black
10
14.4976
20
1.91566
11
14.4812
21
1.91278
0
LINE
8
Black
10
14.4812
20
1.91278
11
14.4652
21
1.90848
0
LINE
8
Black
10
14.4652
20
1.90848
11
14.4596
21
1.90897
0
LINE
8
Black
10
14.4596
20
1.90897
11
14.4541
21
1.908
0
LINE
8
Black
10
14.4541
20
1.908
11
12.735
21
1.908
0
LINE
8
Black
10
12.735
20
1.908
11
12.724
21
1.90994
0
LINE
8
Black
10
12.724
20
1.90994
11
12.7129
21
1.90995
0
LINE
8
Black
10
12.7129
20
1.90995
11
12.7025
21
1.91374
0
LINE
8
Black
10
12.7025
20
1.91374
11
12.6916
21
1.91566
0
LINE
8
Black
10
12.6916
20
1.91566
11
12.6819
21
1.92124
0
LINE
8
Black
10
12.6819
20
1.92124
11
12.6714
21
1.92507
0
LINE
8
Black
10
12.6714
20
1.92507
11
12.663
21
1.93218
0
LINE
8
Black
10
12.663
20
1.93218
11
12.6534
21
1.93771
0
LINE
8
Black
10
12.6534
20
1.93771
11
12.6462
21
1.94627
0
LINE
8
Black
10
12.6462
20
1.94627
11
12.6377
21
1.95345
0
LINE
8
Black
10
12.6377
20
1.95345
11
12.6322
21
1.96303
0
LINE
8
Black
10
12.6322
20
1.96303
11
12.625
21
1.9715
0
LINE
8
Black
10
12.625
20
1.9715
11
12.6212
21
1.98199
0
LINE
8
Black
10
12.6212
20
1.98199
11
12.6157
21
1.99167
0
LINE
8
Black
10
12.6157
20
1.99167
11
12.6137
21
2.00256
0
LINE
8
Black
10
12.6137
20
2.00256
11
12.61
21
2.01295
0
LINE
8
Black
10
12.61
20
2.01295
11
12.61
21
2.02412
0
LINE
8
Black
10
12.61
20
2.02412
11
12.608
21
2.03511
0
LINE
8
Black
10
12.608
20
2.03511
11
12.6081
21
2.16002
0
LINE
8
Black
10
12.6081
20
2.16002
11
12.4854
21
2.4571
0
LINE
8
Black
10
12.4854
20
2.4571
11
12.2583
21
2.68459
0
LINE
8
Black
10
12.2583
20
2.68459
11
12.0394
21
2.77549
0
LINE
8
Black
10
12.0394
20
2.77549
11
12.0371
21
2.77697
0
LINE
8
Black
10
12.0371
20
2.77697
11
12.0344
21
2.77768
0
LINE
8
Black
10
12.0344
20
2.77768
11
12.0185
21
2.78879
0
LINE
8
Black
10
12.0185
20
2.78879
11
12.0022
21
2.79922
0
LINE
8
Black
10
12.0022
20
2.79922
11
12.0005
21
2.8014
0
LINE
8
Black
10
12.0005
20
2.8014
11
11.9983
21
2.80298
0
LINE
8
Black
10
11.9983
20
2.80298
11
9.60947
21
5.19179
0
LINE
8
Black
10
9.60947
20
5.19179
11
9.36999
21
5.35181
0
LINE
8
Black
10
9.36999
20
5.35181
11
9.08749
21
5.408
0
LINE
8
Black
10
9.08749
20
5.408
11
4.54587
21
5.408
0
LINE
8
Black
10
4.54587
20
5.408
11
4.54037
21
5.40897
0
LINE
8
Black
10
4.54037
20
5.40897
11
4.5348
21
5.40848
0
LINE
8
Black
10
4.5348
20
5.40848
11
4.51877
21
5.41278
0
LINE
8
Black
10
4.51877
20
5.41278
11
4.50243
21
5.41566
0
LINE
8
Black
10
4.50243
20
5.41566
11
4.49759
21
5.41845
0
LINE
8
Black
10
4.49759
20
5.41845
11
4.4922
21
5.4199
0
LINE
8
Black
10
4.4922
20
5.4199
11
4.47861
21
5.42942
0
LINE
8
Black
10
4.47861
20
5.42942
11
4.46423
21
5.43771
0
LINE
8
Black
10
4.46423
20
5.43771
11
4.46064
21
5.44199
0
LINE
8
Black
10
4.46064
20
5.44199
11
4.45607
21
5.4452
0
LINE
8
Black
10
4.45607
20
5.4452
11
2.3952
21
7.50607
0
LINE
8
Black
10
2.3952
20
7.50607
11
2.39199
21
7.51064
0
LINE
8
Black
10
2.39199
20
7.51064
11
2.38771
21
7.51423
0
LINE
8
Black
10
2.38771
20
7.51423
11
2.37941
21
7.52861
0
LINE
8
Black
10
2.37941
20
7.52861
11
2.3699
21
7.5422
0
LINE
8
Black
10
2.3699
20
7.5422
11
2.36845
21
7.54759
0
LINE
8
Black
10
2.36845
20
7.54759
11
2.36566
21
7.55243
0
LINE
8
Black
10
2.36566
20
7.55243
11
2.36278
21
7.56877
0
LINE
8
Black
10
2.36278
20
7.56877
11
2.35848
21
7.5848
0
LINE
8
Black
10
2.35848
20
7.5848
11
2.35897
21
7.59037
0
LINE
8
Black
10
2.35897
20
7.59037
11
2.358
21
7.59587
0
LINE
8
Black
10
2.358
20
7.59587
11
2.358
21
9.33749
0
LINE
8
Black
10
2.358
20
9.33749
11
2.35749
21
9.34006
0
LINE
8
Black
10
2.35749
20
9.34006
11
2.35746
21
9.34153
0
LINE
8
Black
10
2.35746
20
9.34153
11
2.35696
21
9.34291
0
LINE
8
Black
10
2.35696
20
9.34291
11
2.35697
21
9.36356
0
LINE
8
Black
10
2.35697
20
9.36356
11
2.35652
21
9.38415
0
LINE
8
Black
10
2.35652
20
9.38415
11
2.357
21
9.38554
0
LINE
8
Black
10
2.357
20
9.38554
11
2.357
21
9.38701
0
LINE
8
Black
10
2.357
20
9.38701
11
2.36407
21
9.4064
0
LINE
8
Black
10
2.36407
20
9.4064
11
2.3707
21
9.42592
0
LINE
8
Black
10
2.3707
20
9.42592
11
2.37162
21
9.42707
0
LINE
8
Black
10
2.37162
20
9.42707
11
2.37212
21
9.42845
0
LINE
8
Black
10
2.37212
20
9.42845
11
2.38539
21
9.44423
0
LINE
8
Black
10
2.38539
20
9.44423
11
2.3983
21
9.46032
0
LINE
8
Black
10
2.3983
20
9.46032
11
2.39956
21
9.46108
0
LINE
8
Black
10
2.39956
20
9.46108
11
2.40051
21
9.46221
0
LINE
8
Black
10
2.40051
20
9.46221
11
2.41837
21
9.4725
0
LINE
8
Black
10
2.41837
20
9.4725
11
2.43601
21
9.4832
0
LINE
8
Black
10
2.43601
20
9.4832
11
2.43745
21
9.48349
0
LINE
8
Black
10
2.43745
20
9.48349
11
2.43873
21
9.48422
0
LINE
8
Black
10
2.43873
20
9.48422
11
2.44361
21
9.48508
0
LINE
8
Black
10
2.44361
20
9.48508
11
2.7571
21
9.61461
0
LINE
8
Black
10
2.7571
20
9.61461
11
2.98459
21
9.84171
0
LINE
8
Black
10
2.98459
20
9.84171
11
3.07549
21
10.0606
0
LINE
8
Black
10
3.07549
20
10.0606
11
3.07697
21
10.0629
0
LINE
8
Black
10
3.07697
20
10.0629
11
3.07768
21
10.0656
0
LINE
8
Black
10
3.07768
20
10.0656
11
3.0888
21
10.0815
0
LINE
8
Black
10
3.0888
20
10.0815
11
3.09922
21
10.0978
0
LINE
8
Black
10
3.09922
20
10.0978
11
3.1014
21
10.0995
0
LINE
8
Black
10
3.1014
20
10.0995
11
3.10298
21
10.1017
0
LINE
8
Black
10
3.10298
20
10.1017
11
6.10063
21
13.0994
0
LINE
8
Black
10
6.10063
20
13.0994
11
9.45607
21
16.4548
0
LINE
8
Black
10
9.45607
20
16.4548
11
9.46064
21
16.458
0
LINE
8
Black
10
9.46064
20
16.458
11
9.46423
21
16.4623
0
LINE
8
Black
10
9.46423
20
16.4623
11
9.47861
21
16.4706
0
LINE
8
Black
10
9.47861
20
16.4706
11
9.4922
21
16.4801
0
LINE
8
Black
10
9.4922
20
16.4801
11
9.49759
21
16.4815
0
LINE
8
Black
10
9.49759
20
16.4815
11
9.50243
21
16.4843
0
LINE
8
Black
10
9.50243
20
16.4843
11
9.51877
21
16.4872
0
LINE
8
Black
10
9.51877
20
16.4872
11
9.5348
21
16.4915
0
LINE
8
Black
10
9.5348
20
16.4915
11
9.54037
21
16.491
0
LINE
8
Black
10
9.54037
20
16.491
11
9.54587
21
16.492
0
LINE
8
Black
10
9.54587
20
16.492
11
14.2875
21
16.492
0
LINE
8
Black
10
14.2875
20
16.492
11
14.57
21
16.5482
0
LINE
8
Black
10
14.57
20
16.5482
11
14.8095
21
16.7082
0
LINE
8
Black
10
14.8095
20
16.7082
11
17.5102
21
19.4089
0
LINE
8
Black
10
17.5102
20
19.4089
11
17.5193
21
19.4153
0
LINE
8
Black
10
17.5193
20
19.4153
11
17.5272
21
19.4232
0
LINE
8
Black
10
17.5272
20
19.4232
11
17.5372
21
19.4279
0
LINE
8
Black
10
17.5372
20
19.4279
11
17.5463
21
19.4342
0
LINE
8
Black
10
17.5463
20
19.4342
11
17.5571
21
19.4371
0
LINE
8
Black
10
17.5571
20
19.4371
11
17.5671
21
19.4418
0
LINE
8
Black
10
17.5671
20
19.4418
11
17.5782
21
19.4428
0
LINE
8
Black
10
17.5782
20
19.4428
11
17.5889
21
19.4456
0
LINE
8
Black
10
17.5889
20
19.4456
11
17.6
21
19.4447
0
LINE
8
Black
10
17.6
20
19.4447
11
17.6111
21
19.4456
0
LINE
8
Black
10
17.6111
20
19.4456
11
17.6218
21
19.4428
0
LINE
8
Black
10
17.6218
20
19.4428
11
17.6329
21
19.4418
0
LINE
8
Black
10
17.6329
20
19.4418
11
17.6429
21
19.4371
0
LINE
8
Black
10
17.6429
20
19.4371
11
17.6537
21
19.4342
0
LINE
8
Black
10
17.6537
20
19.4342
11
17.6628
21
19.4279
0
LINE
8
Black
10
17.6628
20
19.4279
11
17.6728
21
19.4232
0
LINE
8
Black
10
17.6728
20
19.4232
11
17.6807
21
19.4153
0
LINE
8
Black
10
17.6807
20
19.4153
11
17.6898
21
19.4089
0
LINE
8
Black
10
17.6898
20
19.4089
11
19.9548
21
17.1439
0
LINE
8
Black
10
19.9548
20
17.1439
11
19.958
21
17.1394
0
LINE
8
Black
10
19.958
20
17.1394
11
19.9623
21
17.1358
0
LINE
8
Black
10
19.9623
20
17.1358
11
19.9706
21
17.1214
0
LINE
8
Black
10
19.9706
20
17.1214
11
19.9801
21
17.1078
0
LINE
8
Black
10
19.9801
20
17.1078
11
19.9815
21
17.1024
0
LINE
8
Black
10
19.9815
20
17.1024
11
19.9843
21
17.0976
0
LINE
8
Black
10
19.9843
20
17.0976
11
19.9872
21
17.0812
0
LINE
8
Black
10
19.9872
20
17.0812
11
19.9915
21
17.0652
0
LINE
8
Black
10
19.9915
20
17.0652
11
19.991
21
17.0596
0
LINE
8
Black
10
19.991
20
17.0596
11
19.992
21
17.0541
0
LINE
8
Black
10
19.992
20
17.0541
11
19.992
21
13.0272
0
LINE
8
Black
10
19.992
20
13.0272
11
19.9915
21
13.0244
0
LINE
8
Black
10
19.9915
20
13.0244
11
19.9919
21
13.0216
0
LINE
8
Black
10
19.9919
20
13.0216
11
19.9877
21
13.0028
0
LINE
8
Black
10
19.9877
20
13.0028
11
19.9843
21
12.9838
0
LINE
8
Black
10
19.9843
20
12.9838
11
19.9829
21
12.9813
0
LINE
8
Black
10
19.9829
20
12.9813
11
19.9823
21
12.9785
0
LINE
8
Black
10
19.9823
20
12.9785
11
19.8921
21
12.7614
0
LINE
8
Black
10
19.8921
20
12.7614
11
19.8919
21
12.44
0
LINE
8
Black
10
19.8919
20
12.44
11
19.9824
21
12.2209
0
LINE
8
Black
10
19.9824
20
12.2209
11
19.983
21
12.2182
0
LINE
8
Black
10
19.983
20
12.2182
11
19.9843
21
12.2159
0
LINE
8
Black
10
19.9843
20
12.2159
11
19.9877
21
12.1968
0
LINE
8
Black
10
19.9877
20
12.1968
11
19.9919
21
12.1779
0
LINE
8
Black
10
19.9919
20
12.1779
11
19.9915
21
12.1751
0
LINE
8
Black
10
19.9915
20
12.1751
11
19.992
21
12.1724
0
LINE
8
Black
10
19.992
20
12.1724
11
19.992
21
10.8272
0
LINE
8
Black
10
19.992
20
10.8272
11
19.9915
21
10.8244
0
LINE
8
Black
10
19.9915
20
10.8244
11
19.9919
21
10.8216
0
LINE
8
Black
10
19.9919
20
10.8216
11
19.9877
21
10.8028
0
LINE
8
Black
10
19.9877
20
10.8028
11
19.9843
21
10.7838
0
LINE
8
Black
10
19.9843
20
10.7838
11
19.9829
21
10.7813
0
LINE
8
Black
10
19.9829
20
10.7813
11
19.9823
21
10.7785
0
LINE
8
Black
10
19.9823
20
10.7785
11
19.8921
21
10.5614
0
LINE
8
Black
10
19.8921
20
10.5614
11
19.8919
21
10.24
0
LINE
8
Black
10
19.8919
20
10.24
11
19.9824
21
10.0209
0
LINE
8
Black
10
19.9824
20
10.0209
11
19.983
21
10.0182
0
LINE
8
Black
10
19.983
20
10.0182
11
19.9843
21
10.0159
0
LINE
8
Black
10
19.9843
20
10.0159
11
19.9877
21
9.99677
0
LINE
8
Black
10
19.9877
20
9.99677
11
19.9919
21
9.97785
0
LINE
8
Black
10
19.9919
20
9.97785
11
19.9915
21
9.97513
0
LINE
8
Black
10
19.9915
20
9.97513
11
19.992
21
9.97242
0
LINE
8
Black
10
19.992
20
9.97242
11
19.992
21
8.41251
0
LINE
8
Black
10
19.992
20
8.41251
11
20.0482
21
8.13001
0
LINE
8
Black
10
20.0482
20
8.13001
11
20.2082
21
7.89053
0
LINE
8
Black
10
20.2082
20
7.89053
11
20.8973
21
7.20147
0
LINE
8
Black
10
20.8973
20
7.20147
11
20.8989
21
7.19913
0
LINE
8
Black
10
20.8989
20
7.19913
11
20.9012
21
7.19739
0
LINE
8
Black
10
20.9012
20
7.19739
11
20.9115
21
7.18112
0
LINE
8
Black
10
20.9115
20
7.18112
11
20.9226
21
7.16534
0
LINE
8
Black
10
20.9226
20
7.16534
11
20.9233
21
7.16258
0
LINE
8
Black
10
20.9233
20
7.16258
11
20.9248
21
7.16017
0
LINE
8
Black
10
20.9248
20
7.16017
11
20.9852
21
7.01404
0
LINE
8
Black
10
20.9852
20
7.01404
11
20.9876
21
7.00335
0
LINE
8
Black
10
20.9876
20
7.00335
11
20.9918
21
6.99324
0
LINE
8
Black
10
20.9918
20
6.99324
11
20.9923
21
6.98198
0
LINE
8
Black
10
20.9923
20
6.98198
11
20.9947
21
6.97097
0
LINE
8
Black
10
20.9947
20
6.97097
11
20.9933
21
6.96011
0
LINE
8
Black
10
20.9933
20
6.96011
11
20.9938
21
6.94918
0
LINE
8
Black
10
20.9938
20
6.94918
11
20.9904
21
6.93843
0
LINE
8
Black
10
20.9904
20
6.93843
11
20.9889
21
6.92724
0
LINE
8
Black
10
20.9889
20
6.92724
11
20.9839
21
6.91753
0
LINE
8
Black
10
20.9839
20
6.91753
11
20.9806
21
6.90709
0
LINE
8
Black
10
20.9806
20
6.90709
11
20.9737
21
6.89814
0
LINE
8
Black
10
20.9737
20
6.89814
11
20.9685
21
6.88814
0
LINE
8
Black
10
20.9685
20
6.88814
11
20.9605
21
6.88075
0
LINE
8
Black
10
20.9605
20
6.88075
11
20.9538
21
6.87205
0
LINE
8
Black
10
20.9538
20
6.87205
11
20.9443
21
6.86598
0
LINE
8
Black
10
20.9443
20
6.86598
11
20.936
21
6.85837
0
LINE
8
Black
10
20.936
20
6.85837
11
20.9259
21
6.85419
0
LINE
8
Black
10
20.9259
20
6.85419
11
20.9167
21
6.84829
0
LINE
8
Black
10
20.9167
20
6.84829
11
20.9057
21
6.84583
0
LINE
8
Black
10
20.9057
20
6.84583
11
20.8952
21
6.84152
0
LINE
8
Black
10
20.8952
20
6.84152
11
20.8843
21
6.84106
0
LINE
8
Black
10
20.8843
20
6.84106
11
20.8736
21
6.83867
0
LINE
8
Black
10
20.8736
20
6.83867
11
20.7385
21
6.83253
0
LINE
8
Black
10
20.7385
20
6.83253
11
20.3963
21
6.69082
0
LINE
8
Black
10
20.3963
20
6.69082
11
20.3585
21
6.57073
0
LINE
8
Black
10
20.3585
20
6.57073
11
20.6911
21
6.23807
0
LINE
8
Black
10
20.6911
20
6.23807
11
20.7822
21
6.29066
0
LINE
8
Black
10
20.7822
20
6.29066
11
21.07
21
6.3414
0
LINE
8
Black
10
21.07
20
6.3414
11
21.3578
21
6.29066
0
LINE
8
Black
10
21.3578
20
6.29066
11
21.4489
21
6.23807
0
LINE
8
Black
10
21.4489
20
6.23807
11
21.7655
21
6.55467
0
LINE
8
Black
10
21.7655
20
6.55467
11
21.7701
21
6.55791
0
LINE
8
Black
10
21.7701
20
6.55791
11
21.7737
21
6.56223
0
LINE
8
Black
10
21.7737
20
6.56223
11
21.788
21
6.57048
0
LINE
8
Black
10
21.788
20
6.57048
11
21.8016
21
6.57997
0
LINE
8
Black
10
21.8016
20
6.57997
11
21.807
21
6.58143
0
LINE
8
Black
10
21.807
20
6.58143
11
21.8119
21
6.58425
0
LINE
8
Black
10
21.8119
20
6.58425
11
21.8282
21
6.5871
0
LINE
8
Black
10
21.8282
20
6.5871
11
21.8442
21
6.59138
0
LINE
8
Black
10
21.8442
20
6.59138
11
21.8498
21
6.59089
0
LINE
8
Black
10
21.8498
20
6.59089
11
21.8554
21
6.59187
0
LINE
8
Black
10
21.8554
20
6.59187
11
21.86
21
6.59186
0
LINE
8
Black
10
21.86
20
6.59186
11
21.8924
21
6.60524
0
LINE
8
Black
10
21.8924
20
6.60524
11
22.3
21
7.01284
0
LINE
8
Black
10
22.3
20
7.01284
11
22.3
21
7.94264
0
LINE
8
Black
10
22.3
20
7.94264
11
22.1583
21
8.08459
0
LINE
8
Black
10
22.1583
20
8.08459
11
21.9394
21
8.17549
0
LINE
8
Black
10
21.9394
20
8.17549
11
21.9371
21
8.17697
0
LINE
8
Black
10
21.9371
20
8.17697
11
21.9344
21
8.17768
0
LINE
8
Black
10
21.9344
20
8.17768
11
21.9185
21
8.1888
0
LINE
8
Black
10
21.9185
20
8.1888
11
21.9022
21
8.19922
0
LINE
8
Black
10
21.9022
20
8.19922
11
21.9005
21
8.2014
0
LINE
8
Black
10
21.9005
20
8.2014
11
21.8983
21
8.20298
0
LINE
8
Black
10
21.8983
20
8.20298
11
21.4452
21
8.65607
0
LINE
8
Black
10
21.4452
20
8.65607
11
21.442
21
8.66064
0
LINE
8
Black
10
21.442
20
8.66064
11
21.4377
21
8.66423
0
LINE
8
Black
10
21.4377
20
8.66423
11
21.4294
21
8.67861
0
LINE
8
Black
10
21.4294
20
8.67861
11
21.4199
21
8.6922
0
LINE
8
Black
10
21.4199
20
8.6922
11
21.4185
21
8.69759
0
LINE
8
Black
10
21.4185
20
8.69759
11
21.4157
21
8.70243
0
LINE
8
Black
10
21.4157
20
8.70243
11
21.4128
21
8.71877
0
LINE
8
Black
10
21.4128
20
8.71877
11
21.4085
21
8.7348
0
LINE
8
Black
10
21.4085
20
8.7348
11
21.409
21
8.74037
0
LINE
8
Black
10
21.409
20
8.74037
11
21.408
21
8.74587
0
LINE
8
Black
10
21.408
20
8.74587
11
21.408
21
9.97277
0
LINE
8
Black
10
21.408
20
9.97277
11
21.4085
21
9.97558
0
LINE
8
Black
10
21.4085
20
9.97558
11
21.4081
21
9.97842
0
LINE
8
Black
10
21.4081
20
9.97842
11
21.4123
21
9.99722
0
LINE
8
Black
10
21.4123
20
9.99722
11
21.4157
21
10.0162
0
LINE
8
Black
10
21.4157
20
10.0162
11
21.4171
21
10.0187
0
LINE
8
Black
10
21.4171
20
10.0187
11
21.4177
21
10.0215
0
LINE
8
Black
10
21.4177
20
10.0215
11
21.5079
21
10.2386
0
LINE
8
Black
10
21.5079
20
10.2386
11
21.5081
21
10.56
0
LINE
8
Black
10
21.5081
20
10.56
11
21.4176
21
10.7791
0
LINE
8
Black
10
21.4176
20
10.7791
11
21.417
21
10.7818
0
LINE
8
Black
10
21.417
20
10.7818
11
21.4157
21
10.7841
0
LINE
8
Black
10
21.4157
20
10.7841
11
21.4123
21
10.8032
0
LINE
8
Black
10
21.4123
20
10.8032
11
21.4081
21
10.8222
0
LINE
8
Black
10
21.4081
20
10.8222
11
21.4085
21
10.8249
0
LINE
8
Black
10
21.4085
20
10.8249
11
21.408
21
10.8276
0
LINE
8
Black
10
21.408
20
10.8276
11
21.408
21
12.1728
0
LINE
8
Black
10
21.408
20
12.1728
11
21.4085
21
12.1756
0
LINE
8
Black
10
21.4085
20
12.1756
11
21.4081
21
12.1784
0
LINE
8
Black
10
21.4081
20
12.1784
11
21.4123
21
12.1972
0
LINE
8
Black
10
21.4123
20
12.1972
11
21.4157
21
12.2162
0
LINE
8
Black
10
21.4157
20
12.2162
11
21.4171
21
12.2187
0
LINE
8
Black
10
21.4171
20
12.2187
11
21.4177
21
12.2215
0
LINE
8
Black
10
21.4177
20
12.2215
11
21.5079
21
12.4386
0
LINE
8
Black
10
21.5079
20
12.4386
11
21.5081
21
12.76
0
LINE
8
Black
10
21.5081
20
12.76
11
21.4176
21
12.9791
0
LINE
8
Black
10
21.4176
20
12.9791
11
21.417
21
12.9818
0
LINE
8
Black
10
21.417
20
12.9818
11
21.4157
21
12.9841
0
LINE
8
Black
10
21.4157
20
12.9841
11
21.4123
21
13.0032
0
LINE
8
Black
10
21.4123
20
13.0032
11
21.4081
21
13.0222
0
LINE
8
Black
10
21.4081
20
13.0222
11
21.4085
21
13.0249
0
LINE
8
Black
10
21.4085
20
13.0249
11
21.408
21
13.0276
0
LINE
8
Black
10
21.408
20
13.0276
11
21.408
21
17.3875
0
LINE
8
Black
10
21.408
20
17.3875
11
21.3518
21
17.67
0
LINE
8
Black
10
21.3518
20
17.67
11
21.1918
21
17.9095
0
LINE
8
Black
10
21.1918
20
17.9095
11
18.5452
21
20.5561
0
LINE
8
Black
10
18.5452
20
20.5561
11
18.542
21
20.5606
0
LINE
8
Black
10
18.542
20
20.5606
11
18.5377
21
20.5642
0
LINE
8
Black
10
18.5377
20
20.5642
11
18.5294
21
20.5786
0
LINE
8
Black
10
18.5294
20
20.5786
11
18.5199
21
20.5922
0
LINE
8
Black
10
18.5199
20
20.5922
11
18.5185
21
20.5976
0
LINE
8
Black
10
18.5185
20
20.5976
11
18.5157
21
20.6024
0
LINE
8
Black
10
18.5157
20
20.6024
11
18.5128
21
20.6188
0
LINE
8
Black
10
18.5128
20
20.6188
11
18.5085
21
20.6348
0
LINE
8
Black
10
18.5085
20
20.6348
11
18.509
21
20.6404
0
LINE
8
Black
10
18.509
20
20.6404
11
18.508
21
20.6459
0
LINE
8
Black
10
18.508
20
20.6459
11
18.508
21
22.7875
0
LINE
8
Black
10
18.508
20
22.7875
11
18.4518
21
23.07
0
LINE
8
Black
10
18.4518
20
23.07
11
18.2918
21
23.3095
0
LINE
8
Black
10
18.2918
20
23.3095
11
18.0027
21
23.5985
0
LINE
8
Black
10
18.0027
20
23.5985
11
18.0011
21
23.6009
0
LINE
8
Black
10
18.0011
20
23.6009
11
17.9988
21
23.6026
0
LINE
8
Black
10
17.9988
20
23.6026
11
17.9885
21
23.6189
0
LINE
8
Black
10
17.9885
20
23.6189
11
17.9774
21
23.6347
0
LINE
8
Black
10
17.9774
20
23.6347
11
17.9767
21
23.6374
0
LINE
8
Black
10
17.9767
20
23.6374
11
17.9752
21
23.6398
0
LINE
8
Black
10
17.9752
20
23.6398
11
17.8854
21
23.8571
0
LINE
8
Black
10
17.8854
20
23.8571
11
17.6583
21
24.0846
0
LINE
8
Black
10
17.6583
20
24.0846
11
17.3614
21
24.2079
0
LINE
8
Black
10
17.3614
20
24.2079
11
17.04
21
24.2081
0
LINE
8
Black
10
17.04
20
24.2081
11
16.7429
21
24.0854
0
LINE
8
Black
10
16.7429
20
24.0854
11
16.5154
21
23.8583
0
LINE
8
Black
10
16.5154
20
23.8583
11
16.3921
21
23.5614
0
LINE
8
Black
10
16.3921
20
23.5614
11
16.3919
21
23.24
0
LINE
8
Black
10
16.3919
20
23.24
11
16.4824
21
23.0209
0
LINE
8
Black
10
16.4824
20
23.0209
11
16.483
21
23.0182
0
LINE
8
Black
10
16.483
20
23.0182
11
16.4843
21
23.0159
0
LINE
8
Black
10
16.4843
20
23.0159
11
16.4877
21
22.9968
0
LINE
8
Black
10
16.4877
20
22.9968
11
16.4919
21
22.9779
0
LINE
8
Black
10
16.4919
20
22.9779
11
16.4915
21
22.9751
0
LINE
8
Black
10
16.4915
20
22.9751
11
16.492
21
22.9724
0
LINE
8
Black
10
16.492
20
22.9724
11
16.492
21
20.4459
0
LINE
8
Black
10
16.492
20
20.4459
11
16.491
21
20.4404
0
LINE
8
Black
10
16.491
20
20.4404
11
16.4915
21
20.4348
0
LINE
8
Black
10
16.4915
20
20.4348
11
16.4872
21
20.4188
0
LINE
8
Black
10
16.4872
20
20.4188
11
16.4843
21
20.4024
0
LINE
8
Black
10
16.4843
20
20.4024
11
16.4815
21
20.3976
0
LINE
8
Black
10
16.4815
20
20.3976
11
16.4801
21
20.3922
0
LINE
8
Black
10
16.4801
20
20.3922
11
16.4706
21
20.3786
0
LINE
8
Black
10
16.4706
20
20.3786
11
16.4623
21
20.3642
0
LINE
8
Black
10
16.4623
20
20.3642
11
16.458
21
20.3606
0
LINE
8
Black
10
16.458
20
20.3606
11
16.4548
21
20.3561
0
LINE
8
Black
10
16.4548
20
20.3561
11
14.0439
21
17.9452
0
LINE
8
Black
10
14.0439
20
17.9452
11
14.0394
21
17.942
0
LINE
8
Black
10
14.0394
20
17.942
11
14.0358
21
17.9377
0
LINE
8
Black
10
14.0358
20
17.9377
11
14.0214
21
17.9294
0
LINE
8
Black
10
14.0214
20
17.9294
11
14.0078
21
17.9199
0
LINE
8
Black
10
14.0078
20
17.9199
11
14.0024
21
17.9185
0
LINE
8
Black
10
14.0024
20
17.9185
11
13.9976
21
17.9157
0
LINE
8
Black
10
13.9976
20
17.9157
11
13.9812
21
17.9128
0
LINE
8
Black
10
13.9812
20
17.9128
11
13.9652
21
17.9085
0
LINE
8
Black
10
13.9652
20
17.9085
11
13.9596
21
17.909
0
LINE
8
Black
10
13.9596
20
17.909
11
13.9541
21
17.908
0
LINE
8
Black
10
13.9541
20
17.908
11
9.21251
21
17.908
0
LINE
8
Black
10
9.21251
20
17.908
11
8.93001
21
17.8518
0
LINE
8
Black
10
8.93001
20
17.8518
11
8.69052
21
17.6918
0
LINE
8
Black
10
8.69052
20
17.6918
11
5.2
21
14.2013
0
LINE
8
Black
10
5.2
20
14.2013
11
5.2
21
14.2
0
LINE
8
Black
10
5.2
20
14.2
11
5.19847
21
14.1913
0
LINE
8
Black
10
5.19847
20
14.1913
11
5.19924
21
14.1826
0
LINE
8
Black
10
5.19924
20
14.1826
11
5.19248
21
14.1573
0
LINE
8
Black
10
5.19248
20
14.1573
11
5.18794
21
14.1316
0
LINE
8
Black
10
5.18794
20
14.1316
11
5.18354
21
14.124
0
LINE
8
Black
10
5.18354
20
14.124
11
5.18126
21
14.1155
0
LINE
8
Black
10
5.18126
20
14.1155
11
5.16628
21
14.0941
0
LINE
8
Black
10
5.16628
20
14.0941
11
5.15321
21
14.0714
0
LINE
8
Black
10
5.15321
20
14.0714
11
5.14647
21
14.0658
0
LINE
8
Black
10
5.14647
20
14.0658
11
5.14142
21
14.0586
0
LINE
8
Black
10
5.14142
20
14.0586
11
3.44142
21
12.3586
0
LINE
8
Black
10
3.44142
20
12.3586
11
3.43422
21
12.3535
0
LINE
8
Black
10
3.43422
20
12.3535
11
3.42856
21
12.3468
0
LINE
8
Black
10
3.42856
20
12.3468
11
3.40593
21
12.3337
0
LINE
8
Black
10
3.40593
20
12.3337
11
3.38452
21
12.3187
0
LINE
8
Black
10
3.38452
20
12.3187
11
3.37602
21
12.3165
0
LINE
8
Black
10
3.37602
20
12.3165
11
3.3684
21
12.3121
0
LINE
8
Black
10
3.3684
20
12.3121
11
3.34267
21
12.3075
0
LINE
8
Black
10
3.34267
20
12.3075
11
3.31743
21
12.3008
0
LINE
8
Black
10
3.31743
20
12.3008
11
3.30867
21
12.3015
0
LINE
8
Black
10
3.30867
20
12.3015
11
3.3
21
12.3
0
LINE
8
Black
10
3.3
20
12.3
11
3.29874
21
12.3
0
LINE
8
Black
10
3.29874
20
12.3
11
2.6248
21
11.6261
0
LINE
8
Black
10
2.6248
20
11.6261
11
2.61121
21
11.6165
0
LINE
8
Black
10
2.61121
20
11.6165
11
2.5985
21
11.6059
0
LINE
8
Black
10
2.5985
20
11.6059
11
2.59325
21
11.604
0
LINE
8
Black
10
2.59325
20
11.604
11
2.58867
21
11.6008
0
LINE
8
Black
10
2.58867
20
11.6008
11
2.57265
21
11.5965
0
LINE
8
Black
10
2.57265
20
11.5965
11
2.55705
21
11.5908
0
LINE
8
Black
10
2.55705
20
11.5908
11
2.55147
21
11.5908
0
LINE
8
Black
10
2.55147
20
11.5908
11
2.54607
21
11.5894
0
LINE
8
Black
10
2.54607
20
11.5894
11
2.52954
21
11.5908
0
LINE
8
Black
10
2.52954
20
11.5908
11
2.51295
21
11.5908
0
LINE
8
Black
10
2.51295
20
11.5908
11
2.50769
21
11.5927
0
LINE
8
Black
10
2.50769
20
11.5927
11
2.50213
21
11.5932
0
LINE
8
Black
10
2.50213
20
11.5932
11
2.4871
21
11.6002
0
LINE
8
Black
10
2.4871
20
11.6002
11
2.4715
21
11.6059
0
LINE
8
Black
10
2.4715
20
11.6059
11
2.46722
21
11.6095
0
LINE
8
Black
10
2.46722
20
11.6095
11
2.46216
21
11.6118
0
LINE
8
Black
10
2.46216
20
11.6118
11
2.45042
21
11.6236
0
LINE
8
Black
10
2.45042
20
11.6236
11
2.43771
21
11.6342
0
LINE
8
Black
10
2.43771
20
11.6342
11
2.43492
21
11.6391
0
LINE
8
Black
10
2.43492
20
11.6391
11
2.43097
21
11.643
0
LINE
8
Black
10
2.43097
20
11.643
11
2.42396
21
11.6581
0
LINE
8
Black
10
2.42396
20
11.6581
11
2.41566
21
11.6724
0
LINE
8
Black
10
2.41566
20
11.6724
11
2.41469
21
11.6779
0
LINE
8
Black
10
2.41469
20
11.6779
11
2.41233
21
11.683
0
LINE
8
Black
10
2.41233
20
11.683
11
2.41088
21
11.6995
0
LINE
8
Black
10
2.41088
20
11.6995
11
2.408
21
11.7159
0
LINE
8
Black
10
2.408
20
11.7159
11
2.408
21
12.1684
0
LINE
8
Black
10
2.408
20
12.1684
11
2.40643
21
12.1693
0
LINE
8
Black
10
2.40643
20
12.1693
11
2.3392
21
12.2494
0
LINE
8
Black
10
2.3392
20
12.2494
11
2.30343
21
12.3477
0
LINE
8
Black
10
2.30343
20
12.3477
11
2.30343
21
12.4523
0
LINE
8
Black
10
2.30343
20
12.4523
11
2.3392
21
12.5506
0
LINE
8
Black
10
2.3392
20
12.5506
11
2.40643
21
12.6307
0
LINE
8
Black
10
2.40643
20
12.6307
11
2.46682
21
12.6656
0
LINE
8
Black
10
2.46682
20
12.6656
11
2.55607
21
12.7548
0
LINE
8
Black
10
2.55607
20
12.7548
11
2.56064
21
12.758
0
LINE
8
Black
10
2.56064
20
12.758
11
2.56423
21
12.7623
0
LINE
8
Black
10
2.56423
20
12.7623
11
2.57861
21
12.7706
0
LINE
8
Black
10
2.57861
20
12.7706
11
2.5922
21
12.7801
0
LINE
8
Black
10
2.5922
20
12.7801
11
2.59759
21
12.7815
0
LINE
8
Black
10
2.59759
20
12.7815
11
2.60243
21
12.7843
0
LINE
8
Black
10
2.60243
20
12.7843
11
2.61877
21
12.7872
0
LINE
8
Black
10
2.61877
20
12.7872
11
2.6348
21
12.7915
0
LINE
8
Black
10
2.6348
20
12.7915
11
2.64037
21
12.791
0
LINE
8
Black
10
2.64037
20
12.791
11
2.64587
21
12.792
0
LINE
8
Black
10
2.64587
20
12.792
11
2.68749
21
12.792
0
LINE
8
Black
10
2.68749
20
12.792
11
2.96999
21
12.8482
0
LINE
8
Black
10
2.96999
20
12.8482
11
3.20947
21
13.0082
0
LINE
8
Black
10
3.20947
20
13.0082
11
4.19179
21
13.9905
0
LINE
8
Black
10
4.19179
20
13.9905
11
4.35181
21
14.23
0
LINE
8
Black
10
4.35181
20
14.23
11
4.408
21
14.5125
0
LINE
8
Black
10
4.408
20
14.5125
11
4.408
21
19.1875
0
LINE
8
Black
10
4.408
20
19.1875
11
4.35181
21
19.47
0
LINE
8
Black
10
4.35181
20
19.47
11
4.19179
21
19.7095
0
LINE
8
Black
10
4.19179
20
19.7095
11
3.00947
21
20.8918
0
LINE
8
Black
10
3.00947
20
20.8918
11
2.77688
21
21.0472
0
LINE
8
Black
10
2.77688
20
21.0472
11
2.76391
21
21.0596
0
LINE
8
Black
10
2.76391
20
21.0596
11
2.75015
21
21.0712
0
LINE
8
Black
10
2.75015
20
21.0712
11
2.74805
21
21.0748
0
LINE
8
Black
10
2.74805
20
21.0748
11
2.74502
21
21.0777
0
LINE
8
Black
10
2.74502
20
21.0777
11
2.73708
21
21.0938
0
LINE
8
Black
10
2.73708
20
21.0938
11
2.73708
21
21.0938
0
LINE
8
Black
10
2.73708
20
21.0938
11
2.7281
21
21.1094
0
LINE
8
Black
10
2.7281
20
21.1094
11
2.72737
21
21.1135
0
LINE
8
Black
10
2.72737
20
21.1135
11
2.72737
21
21.1135
0
LINE
8
Black
10
2.72737
20
21.1135
11
2.72551
21
21.1173
0
LINE
8
Black
10
2.72551
20
21.1173
11
2.72356
21
21.1351
0
LINE
8
Black
10
2.72356
20
21.1351
11
2.72356
21
21.1351
0
LINE
8
Black
10
2.72356
20
21.1351
11
2.72044
21
21.1528
0
LINE
8
Black
10
2.72044
20
21.1528
11
2.72044
21
21.3878
0
LINE
8
Black
10
2.72044
20
21.3878
11
2.69318
21
21.5283
0
LINE
8
Black
10
2.69318
20
21.5283
11
2.69314
21
21.5309
0
LINE
8
Black
10
2.69314
20
21.5309
11
2.6923
21
21.5334
0
LINE
8
Black
10
2.6923
20
21.5334
11
2.69276
21
21.5529
0
LINE
8
Black
10
2.69276
20
21.5529
11
2.69243
21
21.5724
0
LINE
8
Black
10
2.69243
20
21.5724
11
2.69327
21
21.5749
0
LINE
8
Black
10
2.69327
20
21.5749
11
2.69333
21
21.5775
0
LINE
8
Black
10
2.69333
20
21.5775
11
2.72044
21
21.7126
0
LINE
8
Black
10
2.72044
20
21.7126
11
2.72044
21
23.6878
0
LINE
8
Black
10
2.72044
20
23.6878
11
2.69318
21
23.8283
0
LINE
8
Black
10
2.69318
20
23.8283
11
2.69314
21
23.8309
0
LINE
8
Black
10
2.69314
20
23.8309
11
2.6923
21
23.8334
0
LINE
8
Black
10
2.6923
20
23.8334
11
2.69276
21
23.8529
0
LINE
8
Black
10
2.69276
20
23.8529
11
2.69243
21
23.8724
0
LINE
8
Black
10
2.69243
20
23.8724
11
2.69327
21
23.8749
0
LINE
8
Black
10
2.69327
20
23.8749
11
2.69333
21
23.8775
0
LINE
8
Black
10
2.69333
20
23.8775
11
2.72044
21
24.0126
0
LINE
8
Black
10
2.72044
20
24.0126
11
2.72044
21
25.9878
0
LINE
8
Black
10
2.72044
20
25.9878
11
2.69318
21
26.1283
0
LINE
8
Black
10
2.69318
20
26.1283
11
2.69314
21
26.1309
0
LINE
8
Black
10
2.69314
20
26.1309
11
2.6923
21
26.1334
0
LINE
8
Black
10
2.6923
20
26.1334
11
2.69276
21
26.1529
0
LINE
8
Black
10
2.69276
20
26.1529
11
2.69243
21
26.1724
0
LINE
8
Black
10
2.69243
20
26.1724
11
2.69327
21
26.1749
0
LINE
8
Black
10
2.69327
20
26.1749
11
2.69333
21
26.1775
0
LINE
8
Black
10
2.69333
20
26.1775
11
2.72044
21
26.3126
0
LINE
8
Black
10
2.72044
20
26.3126
11
2.72044
21
27.815
0
LINE
8
Black
10
2.72044
20
27.815
11
2.72237
21
27.8259
0
LINE
8
Black
10
2.72237
20
27.8259
11
2.72237
21
27.8371
0
LINE
8
Black
10
2.72237
20
27.8371
11
2.72617
21
27.8475
0
LINE
8
Black
10
2.72617
20
27.8475
11
2.7281
21
27.8584
0
LINE
8
Black
10
2.7281
20
27.8584
11
2.73366
21
27.8681
0
LINE
8
Black
10
2.73366
20
27.8681
11
2.73746
21
27.8785
0
LINE
8
Black
10
2.73746
20
27.8785
11
2.7446
21
27.887
0
LINE
8
Black
10
2.7446
20
27.887
11
2.75015
21
27.8966
0
LINE
8
Black
10
2.75015
20
27.8966
11
2.75866
21
27.9038
0
LINE
8
Black
10
2.75866
20
27.9038
11
2.76581
21
27.9123
0
LINE
8
Black
10
2.76581
20
27.9123
11
2.77543
21
27.9178
0
LINE
8
Black
10
2.77543
20
27.9178
11
2.78394
21
27.925
0
LINE
8
Black
10
2.78394
20
27.925
11
2.79438
21
27.9288
0
LINE
8
Black
10
2.79438
20
27.9288
11
2.804
21
27.9343
0
LINE
8
Black
10
2.804
20
27.9343
11
2.81495
21
27.9363
0
LINE
8
Black
10
2.81495
20
27.9363
11
2.82539
21
27.9401
0
LINE
8
Black
10
2.82539
20
27.9401
11
2.8365
21
27.9401
0
LINE
8
Black
10
2.8365
20
27.9401
11
2.84744
21
27.942
0
LINE
8
Black
10
2.84744
20
27.942
11
50.815
21
27.942
0
LINE
8
Black
10
50.815
20
27.942
11
50.8259
21
27.9401
0
LINE
8
Black
10
50.8259
20
27.9401
11
50.8371
21
27.9401
0
LINE
8
Black
10
50.8371
20
27.9401
11
50.8475
21
27.9363
0
LINE
8
Black
10
50.8475
20
27.9363
11
50.8584
21
27.9343
0
LINE
8
Black
10
50.8584
20
27.9343
11
50.8681
21
27.9288
0
LINE
8
Black
10
50.8681
20
27.9288
11
50.8785
21
27.925
0
LINE
8
Black
10
50.8785
20
27.925
11
50.887
21
27.9178
0
LINE
8
Black
10
50.887
20
27.9178
11
50.8966
21
27.9123
0
LINE
8
Black
10
50.8966
20
27.9123
11
50.9038
21
27.9038
0
LINE
8
Black
10
50.9038
20
27.9038
11
50.9123
21
27.8966
0
LINE
8
Black
10
50.9123
20
27.8966
11
50.9178
21
27.887
0
LINE
8
Black
10
50.9178
20
27.887
11
50.925
21
27.8785
0
LINE
8
Black
10
50.925
20
27.8785
11
50.9288
21
27.8681
0
LINE
8
Black
10
50.9288
20
27.8681
11
50.9343
21
27.8584
0
LINE
8
Black
10
50.9343
20
27.8584
11
50.9363
21
27.8475
0
LINE
8
Black
10
50.9363
20
27.8475
11
50.9401
21
27.8371
0
LINE
8
Black
10
50.9401
20
27.8371
11
50.9401
21
27.8259
0
LINE
8
Black
10
50.9401
20
27.8259
11
50.942
21
27.815
0
LINE
8
Black
10
50.942
20
27.815
11
50.942
21
21.4312
0
LINE
8
Black
10
50.942
20
21.4312
11
50.939
21
21.4141
0
LINE
8
Black
10
50.939
20
21.4141
11
50.9373
21
21.3968
0
LINE
8
Black
10
50.9373
20
21.3968
11
50.9352
21
21.3925
0
LINE
8
Black
10
50.9352
20
21.3925
11
50.9343
21
21.3878
0
LINE
8
Black
10
50.9343
20
21.3878
11
50.9257
21
21.3727
0
LINE
8
Black
10
50.9257
20
21.3727
11
50.9181
21
21.357
0
LINE
8
Black
10
50.9181
20
21.357
11
50.9147
21
21.3537
0
LINE
8
Black
10
50.9147
20
21.3537
11
50.9123
21
21.3496
0
LINE
8
Black
10
50.9123
20
21.3496
11
50.899
21
21.3384
0
LINE
8
Black
10
50.899
20
21.3384
11
50.8865
21
21.3263
0
LINE
8
Black
10
50.8865
20
21.3263
11
50.8822
21
21.3243
0
LINE
8
Black
10
50.8822
20
21.3243
11
50.8785
21
21.3212
0
LINE
8
Black
10
50.8785
20
21.3212
11
50.8622
21
21.3153
0
LINE
8
Black
10
50.8622
20
21.3153
11
50.8463
21
21.3081
0
LINE
8
Black
10
50.8463
20
21.3081
11
50.8416
21
21.3078
0
LINE
8
Black
10
50.8416
20
21.3078
11
50.8371
21
21.3061
0
LINE
8
Black
10
50.8371
20
21.3061
11
50.8197
21
21.3061
0
LINE
8
Black
10
50.8197
20
21.3061
11
50.8023
21
21.3048
0
LINE
8
Black
10
50.8023
20
21.3048
11
50.7977
21
21.3061
0
LINE
8
Black
10
50.7977
20
21.3061
11
50.7929
21
21.3061
0
LINE
8
Black
10
50.7929
20
21.3061
11
50.7766
21
21.3121
0
LINE
8
Black
10
50.7766
20
21.3121
11
50.7599
21
21.3168
0
LINE
8
Black
10
50.7599
20
21.3168
11
50.4462
21
21.4679
0
LINE
8
Black
10
50.4462
20
21.4679
11
50.334
21
21.4093
0
LINE
8
Black
10
50.334
20
21.4093
11
50.334
21
20.9689
0
LINE
8
Black
10
50.334
20
20.9689
11
50.5118
21
20.9042
0
LINE
8
Black
10
50.5118
20
20.9042
11
50.7416
21
20.7114
0
LINE
8
Black
10
50.7416
20
20.7114
11
50.8915
21
20.4517
0
LINE
8
Black
10
50.8915
20
20.4517
11
50.9436
21
20.1563
0
LINE
8
Black
10
50.9436
20
20.1563
11
50.9436
21
19.8437
0
LINE
8
Black
10
50.9436
20
19.8437
11
50.8915
21
19.5484
0
LINE
8
Black
10
50.8915
20
19.5484
11
50.7416
21
19.2886
0
LINE
8
Black
10
50.7416
20
19.2886
11
50.5118
21
19.0958
0
LINE
8
Black
10
50.5118
20
19.0958
11
50.334
21
19.0311
0
LINE
8
Black
10
50.334
20
19.0311
11
50.334
21
18.5907
0
LINE
8
Black
10
50.334
20
18.5907
11
50.4462
21
18.5321
0
LINE
8
Black
10
50.4462
20
18.5321
11
50.7599
21
18.6832
0
LINE
8
Black
10
50.7599
20
18.6832
11
50.7766
21
18.6879
0
LINE
8
Black
10
50.7766
20
18.6879
11
50.7929
21
18.6939
0
LINE
8
Black
10
50.7929
20
18.6939
11
50.7977
21
18.6939
0
LINE
8
Black
10
50.7977
20
18.6939
11
50.8023
21
18.6952
0
LINE
8
Black
10
50.8023
20
18.6952
11
50.8197
21
18.6939
0
LINE
8
Black
10
50.8197
20
18.6939
11
50.8371
21
18.6939
0
LINE
8
Black
10
50.8371
20
18.6939
11
50.8416
21
18.6922
0
LINE
8
Black
10
50.8416
20
18.6922
11
50.8463
21
18.6919
0
LINE
8
Black
10
50.8463
20
18.6919
11
50.8622
21
18.6847
0
LINE
8
Black
10
50.8622
20
18.6847
11
50.8785
21
18.6788
0
LINE
8
Black
10
50.8785
20
18.6788
11
50.8822
21
18.6757
0
LINE
8
Black
10
50.8822
20
18.6757
11
50.8865
21
18.6737
0
LINE
8
Black
10
50.8865
20
18.6737
11
50.899
21
18.6616
0
LINE
8
Black
10
50.899
20
18.6616
11
50.9123
21
18.6504
0
LINE
8
Black
10
50.9123
20
18.6504
11
50.9147
21
18.6463
0
LINE
8
Black
10
50.9147
20
18.6463
11
50.9181
21
18.643
0
LINE
8
Black
10
50.9181
20
18.643
11
50.9256
21
18.6273
0
LINE
8
Black
10
50.9256
20
18.6273
11
50.9343
21
18.6122
0
LINE
8
Black
10
50.9343
20
18.6122
11
50.9352
21
18.6075
0
LINE
8
Black
10
50.9352
20
18.6075
11
50.9372
21
18.6032
0
LINE
8
Black
10
50.9372
20
18.6032
11
50.939
21
18.5859
0
LINE
8
Black
10
50.939
20
18.5859
11
50.942
21
18.5688
0
LINE
8
Black
10
50.942
20
18.5688
11
50.942
21
0.685
0
LINE
8
Black
10
50.942
20
0.685
11
50.9401
21
0.67406
0
LINE
8
Black
10
50.9401
20
0.67406
11
50.9401
21
0.662947
0
LINE
8
Black
10
50.9401
20
0.662947
11
50.9363
21
0.652506
0
LINE
8
Black
10
50.9363
20
0.652506
11
50.9343
21
0.641563
0
LINE
8
Black
10
50.9343
20
0.641563
11
50.9288
21
0.63194
0
LINE
8
Black
10
50.9288
20
0.63194
11
50.925
21
0.6215
0
LINE
8
Black
10
50.925
20
0.6215
11
50.9178
21
0.612991
0
LINE
8
Black
10
50.9178
20
0.612991
11
50.9123
21
0.603366
0
LINE
8
Black
10
50.9123
20
0.603366
11
50.9038
21
0.596224
0
LINE
8
Black
10
50.9038
20
0.596224
11
50.8966
21
0.587712
0
LINE
8
Black
10
50.8966
20
0.587712
11
50.887
21
0.582156
0
LINE
8
Black
10
50.887
20
0.582156
11
50.8785
21
0.575015
0
LINE
8
Black
10
50.8785
20
0.575015
11
50.8681
21
0.571216
0
LINE
8
Black
10
50.8681
20
0.571216
11
50.8584
21
0.565659
0
LINE
8
Black
10
50.8584
20
0.565659
11
50.8475
21
0.56373
0
LINE
8
Black
10
50.8475
20
0.56373
11
50.8371
21
0.559929
0
LINE
8
Black
10
50.8371
20
0.559929
11
50.8259
21
0.559929
0
LINE
8
Black
10
50.8259
20
0.559929
11
50.815
21
0.558
0
LINE
8
Black
10
50.815
20
0.558
11
29.2659
21
0.558
0
LINE
8
Black
10
29.2659
20
0.558
11
29.2495
21
0.560882
0
LINE
8
Black
10
29.2495
20
0.560882
11
29.233
21
0.562328
0
LINE
8
Black
10
29.233
20
0.562328
11
29.2279
21
0.564689
0
LINE
8
Black
10
29.2279
20
0.564689
11
29.2224
21
0.565659
0
LINE
8
Black
10
29.2224
20
0.565659
11
29.2081
21
0.573958
0
LINE
8
Black
10
29.2081
20
0.573958
11
29.193
21
0.580968
0
LINE
8
Black
10
29.193
20
0.580968
11
29.1891
21
0.584919
0
LINE
8
Black
10
29.1891
20
0.584919
11
29.1842
21
0.587712
0
LINE
8
Black
10
29.1842
20
0.587712
11
29.1736
21
0.600421
0
LINE
8
Black
10
29.1736
20
0.600421
11
29.1618
21
0.612155
0
LINE
8
Black
10
29.1618
20
0.612155
11
29.1595
21
0.617221
0
LINE
8
Black
10
29.1595
20
0.617221
11
29.1559
21
0.6215
0
LINE
8
Black
10
29.1559
20
0.6215
11
29.1502
21
0.637096
0
LINE
8
Black
10
29.1502
20
0.637096
11
29.1432
21
0.65213
0
LINE
8
Black
10
29.1432
20
0.65213
11
29.1427
21
0.657694
0
LINE
8
Black
10
29.1427
20
0.657694
11
29.1408
21
0.662947
0
LINE
8
Black
10
29.1408
20
0.662947
11
29.1408
21
0.679545
0
LINE
8
Black
10
29.1408
20
0.679545
11
29.1394
21
0.696069
0
LINE
8
Black
10
29.1394
20
0.696069
11
29.1408
21
0.701466
0
LINE
8
Black
10
29.1408
20
0.701466
11
29.1408
21
0.707053
0
LINE
8
Black
10
29.1408
20
0.707053
11
29.1465
21
0.722647
0
LINE
8
Black
10
29.1465
20
0.722647
11
29.1508
21
0.738672
0
LINE
8
Black
10
29.1508
20
0.738672
11
29.154
21
0.74325
0
LINE
8
Black
10
29.154
20
0.74325
11
29.1559
21
0.7485
0
LINE
8
Black
10
29.1559
20
0.7485
11
29.1665
21
0.761209
0
LINE
8
Black
10
29.1665
20
0.761209
11
29.1761
21
0.774803
0
LINE
8
Black
10
29.1761
20
0.774803
11
29.5561
21
1.1548
0
LINE
8
Black
10
29.5561
20
1.1548
11
29.5606
21
1.15801
0
LINE
8
Black
10
29.5606
20
1.15801
11
29.5642
21
1.16229
0
LINE
8
Black
10
29.5642
20
1.16229
11
29.5786
21
1.17059
0
LINE
8
Black
10
29.5786
20
1.17059
11
29.5922
21
1.1801
0
LINE
8
Black
10
29.5922
20
1.1801
11
29.5976
21
1.18155
0
LINE
8
Black
10
29.5976
20
1.18155
11
29.6024
21
1.18434
0
LINE
8
Black
10
29.6024
20
1.18434
11
29.6188
21
1.18722
0
LINE
8
Black
10
29.6188
20
1.18722
11
29.6348
21
1.19152
0
LINE
8
Black
10
29.6348
20
1.19152
11
29.6404
21
1.19103
0
LINE
8
Black
10
29.6404
20
1.19103
11
29.6459
21
1.192
0
LINE
8
Black
10
29.6459
20
1.192
11
33.5728
21
1.192
0
LINE
8
Black
10
33.5728
20
1.192
11
33.5756
21
1.1915
0
LINE
8
Black
10
33.5756
20
1.1915
11
33.5784
21
1.19187
0
LINE
8
Black
10
33.5784
20
1.19187
11
33.5972
21
1.18769
0
LINE
8
Black
10
33.5972
20
1.18769
11
33.6162
21
1.18434
0
LINE
8
Black
10
33.6162
20
1.18434
11
33.6187
21
1.18291
0
LINE
8
Black
10
33.6187
20
1.18291
11
33.6215
21
1.18229
0
LINE
8
Black
10
33.6215
20
1.18229
11
33.8386
21
1.09214
0
LINE
8
Black
10
33.8386
20
1.09214
11
34.16
21
1.09186
0
LINE
8
Black
10
34.16
20
1.09186
11
34.4571
21
1.21461
0
LINE
8
Black
10
34.4571
20
1.21461
11
34.6846
21
1.44171
0
LINE
8
Black
10
34.6846
20
1.44171
11
34.8079
21
1.73857
0
LINE
8
Black
10
34.8079
20
1.73857
11
34.8081
21
2.06002
0
LINE
8
Black
10
34.8081
20
2.06002
11
34.6854
21
2.3571
0
LINE
8
Black
10
34.6854
20
2.3571
11
34.4583
21
2.58459
0
LINE
8
Black
10
34.4583
20
2.58459
11
34.1614
21
2.70786
0
LINE
8
Black
10
34.1614
20
2.70786
11
34.1157
21
2.7079
0
LINE
8
Black
10
34.1157
20
2.7079
11
34.0994
21
2.71079
0
LINE
8
Black
10
34.0994
20
2.71079
11
34.0829
21
2.71223
0
LINE
8
Black
10
34.0829
20
2.71223
11
34.0778
21
2.71461
0
LINE
8
Black
10
34.0778
20
2.71461
11
34.0722
21
2.7156
0
LINE
8
Black
10
34.0722
20
2.7156
11
34.0579
21
2.72388
0
LINE
8
Black
10
34.0579
20
2.72388
11
34.0429
21
2.73087
0
LINE
8
Black
10
34.0429
20
2.73087
11
34.0389
21
2.73486
0
LINE
8
Black
10
34.0389
20
2.73486
11
34.034
21
2.73768
0
LINE
8
Black
10
34.034
20
2.73768
11
34.0234
21
2.75036
0
LINE
8
Black
10
34.0234
20
2.75036
11
34.0117
21
2.76206
0
LINE
8
Black
10
34.0117
20
2.76206
11
34.0093
21
2.76717
0
LINE
8
Black
10
34.0093
20
2.76717
11
34.0057
21
2.7715
0
LINE
8
Black
10
34.0057
20
2.7715
11
34.0001
21
2.78704
0
LINE
8
Black
10
34.0001
20
2.78704
11
33.9931
21
2.80203
0
LINE
8
Black
10
33.9931
20
2.80203
11
33.9926
21
2.80765
0
LINE
8
Black
10
33.9926
20
2.80765
11
33.9907
21
2.81296
0
LINE
8
Black
10
33.9907
20
2.81296
11
33.9907
21
2.8295
0
LINE
8
Black
10
33.9907
20
2.8295
11
33.9893
21
2.84597
0
LINE
8
Black
10
33.9893
20
2.84597
11
33.9907
21
2.85142
0
LINE
8
Black
10
33.9907
20
2.85142
11
33.9907
21
2.85706
0
LINE
8
Black
10
33.9907
20
2.85706
11
33.9964
21
2.8726
0
LINE
8
Black
10
33.9964
20
2.8726
11
34.0007
21
2.88857
0
LINE
8
Black
10
34.0007
20
2.88857
11
34.0039
21
2.89319
0
LINE
8
Black
10
34.0039
20
2.89319
11
34.0058
21
2.8985
0
LINE
8
Black
10
34.0058
20
2.8985
11
34.0165
21
2.91116
0
LINE
8
Black
10
34.0165
20
2.91116
11
34.026
21
2.9247
0
LINE
8
Black
10
34.026
20
2.9247
11
35.2918
21
4.19052
0
LINE
8
Black
10
35.2918
20
4.19052
11
35.4518
21
4.43001
0
LINE
8
Black
10
35.4518
20
4.43001
11
35.508
21
4.71251
0
LINE
8
Black
10
35.508
20
4.71251
11
35.508
21
13.8541
0
LINE
8
Black
10
35.508
20
13.8541
11
35.509
21
13.8596
0
LINE
8
Black
10
35.509
20
13.8596
11
35.5085
21
13.8652
0
LINE
8
Black
10
35.5085
20
13.8652
11
35.5128
21
13.8812
0
LINE
8
Black
10
35.5128
20
13.8812
11
35.5157
21
13.8976
0
LINE
8
Black
10
35.5157
20
13.8976
11
35.5185
21
13.9024
0
LINE
8
Black
10
35.5185
20
13.9024
11
35.5199
21
13.9078
0
LINE
8
Black
10
35.5199
20
13.9078
11
35.5294
21
13.9214
0
LINE
8
Black
10
35.5294
20
13.9214
11
35.5377
21
13.9358
0
LINE
8
Black
10
35.5377
20
13.9358
11
35.542
21
13.9394
0
LINE
8
Black
10
35.542
20
13.9394
11
35.5452
21
13.9439
0
LINE
8
Black
10
35.5452
20
13.9439
11
38.1561
21
16.5548
0
LINE
8
Black
10
38.1561
20
16.5548
11
38.1606
21
16.558
0
LINE
8
Black
10
38.1606
20
16.558
11
38.1642
21
16.5623
0
LINE
8
Black
10
38.1642
20
16.5623
11
38.1786
21
16.5706
0
LINE
8
Black
10
38.1786
20
16.5706
11
38.1922
21
16.5801
0
LINE
8
Black
10
38.1922
20
16.5801
11
38.1976
21
16.5815
0
LINE
8
Black
10
38.1976
20
16.5815
11
38.2024
21
16.5843
0
LINE
8
Black
10
38.2024
20
16.5843
11
38.2188
21
16.5872
0
LINE
8
Black
10
38.2188
20
16.5872
11
38.2348
21
16.5915
0
LINE
8
Black
10
38.2348
20
16.5915
11
38.2404
21
16.591
0
LINE
8
Black
10
38.2404
20
16.591
11
38.2459
21
16.592
0
LINE
8
Black
10
38.2459
20
16.592
11
46.2875
21
16.592
0
LINE
8
Black
10
46.2875
20
16.592
11
46.57
21
16.6482
0
LINE
8
Black
10
46.57
20
16.6482
11
46.8095
21
16.8082
0
LINE
8
Black
10
46.8095
20
16.8082
11
48.0318
21
18.0305
0
LINE
8
Black
10
48.0318
20
18.0305
11
48.1918
21
18.27
0
LINE
8
Black
10
48.1918
20
18.27
11
48.248
21
18.5525
0
LINE
8
Black
10
48.248
20
18.5525
11
48.248
21
18.6055
0
LINE
8
Black
10
48.248
20
18.6055
11
48.2511
21
18.6232
0
LINE
8
Black
10
48.2511
20
18.6232
11
48.2531
21
18.641
0
LINE
8
Black
10
48.2531
20
18.641
11
48.2549
21
18.6448
0
LINE
8
Black
10
48.2549
20
18.6448
11
48.2557
21
18.6489
0
LINE
8
Black
10
48.2557
20
18.6489
11
48.2646
21
18.6645
0
LINE
8
Black
10
48.2646
20
18.6645
11
48.2726
21
18.6806
0
LINE
8
Black
10
48.2726
20
18.6806
11
48.2756
21
18.6835
0
LINE
8
Black
10
48.2756
20
18.6835
11
48.2777
21
18.6871
0
LINE
8
Black
10
48.2777
20
18.6871
11
48.2915
21
18.6986
0
LINE
8
Black
10
48.2915
20
18.6986
11
48.3044
21
18.7111
0
LINE
8
Black
10
48.3044
20
18.7111
11
48.5081
21
18.8471
0
LINE
8
Black
10
48.5081
20
18.8471
11
48.7009
21
19.1356
0
LINE
8
Black
10
48.7009
20
19.1356
11
48.7043
21
19.1392
0
LINE
8
Black
10
48.7043
20
19.1392
11
48.7067
21
19.1436
0
LINE
8
Black
10
48.7067
20
19.1436
11
48.7195
21
19.1551
0
LINE
8
Black
10
48.7195
20
19.1551
11
48.7314
21
19.1675
0
LINE
8
Black
10
48.7314
20
19.1675
11
48.7358
21
19.1697
0
LINE
8
Black
10
48.7358
20
19.1697
11
48.7396
21
19.173
0
LINE
8
Black
10
48.7396
20
19.173
11
48.7555
21
19.1794
0
LINE
8
Black
10
48.7555
20
19.1794
11
48.7709
21
19.187
0
LINE
8
Black
10
48.7709
20
19.187
11
48.7759
21
19.1875
0
LINE
8
Black
10
48.7759
20
19.1875
11
48.7805
21
19.1894
0
LINE
8
Black
10
48.7805
20
19.1894
11
48.7977
21
19.1899
0
LINE
8
Black
10
48.7977
20
19.1899
11
48.8148
21
19.1918
0
LINE
8
Black
10
48.8148
20
19.1918
11
48.8196
21
19.1906
0
LINE
8
Black
10
48.8196
20
19.1906
11
48.8246
21
19.1908
0
LINE
8
Black
10
48.8246
20
19.1908
11
48.8409
21
19.1854
0
LINE
8
Black
10
48.8409
20
19.1854
11
48.8576
21
19.1813
0
LINE
8
Black
10
48.8576
20
19.1813
11
48.8618
21
19.1785
0
LINE
8
Black
10
48.8618
20
19.1785
11
48.8665
21
19.177
0
LINE
8
Black
10
48.8665
20
19.177
11
48.88
21
19.1664
0
LINE
8
Black
10
48.88
20
19.1664
11
48.8943
21
19.1568
0
LINE
8
Black
10
48.8943
20
19.1568
11
48.8972
21
19.1528
0
LINE
8
Black
10
48.8972
20
19.1528
11
48.9012
21
19.1497
0
LINE
8
Black
10
48.9012
20
19.1497
11
49.2558
21
18.7527
0
LINE
8
Black
10
49.2558
20
18.7527
11
49.7138
21
18.5321
0
LINE
8
Black
10
49.7138
20
18.5321
11
49.826
21
18.5907
0
LINE
8
Black
10
49.826
20
18.5907
11
49.826
21
19.0311
0
LINE
8
Black
10
49.826
20
19.0311
11
49.6482
21
19.0958
0
LINE
8
Black
10
49.6482
20
19.0958
11
49.4184
21
19.2886
0
LINE
8
Black
10
49.4184
20
19.2886
11
49.2685
21
19.5484
0
LINE
8
Black
10
49.2685
20
19.5484
11
49.2164
21
19.8437
0
LINE
8
Black
10
49.2164
20
19.8437
11
49.2164
21
20.1563
0
LINE
8
Black
10
49.2164
20
20.1563
11
49.2685
21
20.4517
0
LINE
8
Black
10
49.2685
20
20.4517
11
49.4184
21
20.7114
0
LINE
8
Black
10
49.4184
20
20.7114
11
49.6482
21
20.9042
0
LINE
8
Black
10
49.6482
20
20.9042
11
49.826
21
20.9689
0
LINE
8
Black
10
49.826
20
20.9689
11
49.826
21
21.4093
0
LINE
8
Black
10
49.826
20
21.4093
11
49.7138
21
21.4679
0
LINE
8
Black
10
49.7138
20
21.4679
11
49.2558
21
21.2473
0
LINE
8
Black
10
49.2558
20
21.2473
11
48.9012
21
20.8503
0
LINE
8
Black
10
48.9012
20
20.8503
11
48.8972
21
20.8472
0
LINE
8
Black
10
48.8972
20
20.8472
11
48.8943
21
20.8432
0
LINE
8
Black
10
48.8943
20
20.8432
11
48.88
21
20.8336
0
LINE
8
Black
10
48.88
20
20.8336
11
48.8665
21
20.823
0
LINE
8
Black
10
48.8665
20
20.823
11
48.8618
21
20.8215
0
LINE
8
Black
10
48.8618
20
20.8215
11
48.8576
21
20.8187
0
LINE
8
Black
10
48.8576
20
20.8187
11
48.8409
21
20.8146
0
LINE
8
Black
10
48.8409
20
20.8146
11
48.8246
21
20.8092
0
LINE
8
Black
10
48.8246
20
20.8092
11
48.8196
21
20.8094
0
LINE
8
Black
10
48.8196
20
20.8094
11
48.8148
21
20.8082
0
LINE
8
Black
10
48.8148
20
20.8082
11
48.7977
21
20.8101
0
LINE
8
Black
10
48.7977
20
20.8101
11
48.7805
21
20.8106
0
LINE
8
Black
10
48.7805
20
20.8106
11
48.7759
21
20.8125
0
LINE
8
Black
10
48.7759
20
20.8125
11
48.7709
21
20.813
0
LINE
8
Black
10
48.7709
20
20.813
11
48.7555
21
20.8206
0
LINE
8
Black
10
48.7555
20
20.8206
11
48.7396
21
20.827
0
LINE
8
Black
10
48.7396
20
20.827
11
48.7358
21
20.8303
0
LINE
8
Black
10
48.7358
20
20.8303
11
48.7314
21
20.8325
0
LINE
8
Black
10
48.7314
20
20.8325
11
48.7195
21
20.8449
0
LINE
8
Black
10
48.7195
20
20.8449
11
48.7067
21
20.8564
0
LINE
8
Black
10
48.7067
20
20.8564
11
48.7043
21
20.8608
0
LINE
8
Black
10
48.7043
20
20.8608
11
48.7009
21
20.8644
0
LINE
8
Black
10
48.7009
20
20.8644
11
48.5081
21
21.1529
0
LINE
8
Black
10
48.5081
20
21.1529
11
48.0639
21
21.4496
0
LINE
8
Black
10
48.0639
20
21.4496
11
47.54
21
21.5539
0
LINE
8
Black
10
47.54
20
21.5539
11
47.0161
21
21.4496
0
LINE
8
Black
10
47.0161
20
21.4496
11
46.5677
21
21.1501
0
LINE
8
Black
10
46.5677
20
21.1501
11
46.5637
21
21.1459
0
LINE
8
Black
10
46.5637
20
21.1459
11
46.5531
21
21.1328
0
LINE
8
Black
10
46.5531
20
21.1328
11
46.5485
21
21.13
0
LINE
8
Black
10
46.5485
20
21.13
11
46.5449
21
21.1262
0
LINE
8
Black
10
46.5449
20
21.1262
11
46.5297
21
21.1187
0
LINE
8
Black
10
46.5297
20
21.1187
11
46.5153
21
21.1101
0
LINE
8
Black
10
46.5153
20
21.1101
11
46.5101
21
21.109
0
LINE
8
Black
10
46.5101
20
21.109
11
46.5053
21
21.1067
0
LINE
8
Black
10
46.5053
20
21.1067
11
46.4885
21
21.1049
0
LINE
8
Black
10
46.4885
20
21.1049
11
46.472
21
21.1017
0
LINE
8
Black
10
46.472
20
21.1017
11
46.4667
21
21.1025
0
LINE
8
Black
10
46.4667
20
21.1025
11
46.4615
21
21.1019
0
LINE
8
Black
10
46.4615
20
21.1019
11
46.4451
21
21.1059
0
LINE
8
Black
10
46.4451
20
21.1059
11
46.4284
21
21.1086
0
LINE
8
Black
10
46.4284
20
21.1086
11
46.4238
21
21.1111
0
LINE
8
Black
10
46.4238
20
21.1111
11
46.4186
21
21.1124
0
LINE
8
Black
10
46.4186
20
21.1124
11
46.4046
21
21.1218
0
LINE
8
Black
10
46.4046
20
21.1218
11
46.3898
21
21.13
0
LINE
8
Black
10
46.3898
20
21.13
11
46.3864
21
21.134
0
LINE
8
Black
10
46.3864
20
21.134
11
46.382
21
21.1369
0
LINE
8
Black
10
46.382
20
21.1369
11
46.372
21
21.1505
0
LINE
8
Black
10
46.372
20
21.1505
11
46.3609
21
21.1633
0
LINE
8
Black
10
46.3609
20
21.1633
11
46.359
21
21.1682
0
LINE
8
Black
10
46.359
20
21.1682
11
46.3559
21
21.1725
0
LINE
8
Black
10
46.3559
20
21.1725
11
46.3512
21
21.1887
0
LINE
8
Black
10
46.3512
20
21.1887
11
46.3451
21
21.2044
0
LINE
8
Black
10
46.3451
20
21.2044
11
46.3442
21
21.2093
0
LINE
8
Black
10
46.3442
20
21.2093
11
46.2321
21
21.3799
0
LINE
8
Black
10
46.2321
20
21.3799
11
46.0633
21
21.4939
0
LINE
8
Black
10
46.0633
20
21.4939
11
45.851
21
21.5364
0
LINE
8
Black
10
45.851
20
21.5364
11
44.1486
21
21.5364
0
LINE
8
Black
10
44.1486
20
21.5364
11
43.9431
21
21.4966
0
LINE
8
Black
10
43.9431
20
21.4966
11
43.7725
21
21.3845
0
LINE
8
Black
10
43.7725
20
21.3845
11
43.6585
21
21.2157
0
LINE
8
Black
10
43.6585
20
21.2157
11
43.616
21
21.0034
0
LINE
8
Black
10
43.616
20
21.0034
11
43.616
21
18.9962
0
LINE
8
Black
10
43.616
20
18.9962
11
43.6558
21
18.7907
0
LINE
8
Black
10
43.6558
20
18.7907
11
43.7679
21
18.6201
0
LINE
8
Black
10
43.7679
20
18.6201
11
43.9367
21
18.5061
0
LINE
8
Black
10
43.9367
20
18.5061
11
44.149
21
18.4636
0
LINE
8
Black
10
44.149
20
18.4636
11
45.8514
21
18.4636
0
LINE
8
Black
10
45.8514
20
18.4636
11
46.0569
21
18.5034
0
LINE
8
Black
10
46.0569
20
18.5034
11
46.2275
21
18.6155
0
LINE
8
Black
10
46.2275
20
18.6155
11
46.3415
21
18.7843
0
LINE
8
Black
10
46.3415
20
18.7843
11
46.3442
21
18.7979
0
LINE
8
Black
10
46.3442
20
18.7979
11
46.3502
21
18.8133
0
LINE
8
Black
10
46.3502
20
18.8133
11
46.3548
21
18.8291
0
LINE
8
Black
10
46.3548
20
18.8291
11
46.3582
21
18.8337
0
LINE
8
Black
10
46.3582
20
18.8337
11
46.3602
21
18.839
0
LINE
8
Black
10
46.3602
20
18.839
11
46.3711
21
18.8514
0
LINE
8
Black
10
46.3711
20
18.8514
11
46.3809
21
18.8647
0
LINE
8
Black
10
46.3809
20
18.8647
11
46.3856
21
18.8679
0
LINE
8
Black
10
46.3856
20
18.8679
11
46.3894
21
18.8721
0
LINE
8
Black
10
46.3894
20
18.8721
11
46.4038
21
18.88
0
LINE
8
Black
10
46.4038
20
18.88
11
46.4176
21
18.8892
0
LINE
8
Black
10
46.4176
20
18.8892
11
46.4231
21
18.8906
0
LINE
8
Black
10
46.4231
20
18.8906
11
46.4281
21
18.8933
0
LINE
8
Black
10
46.4281
20
18.8933
11
46.4444
21
18.8958
0
LINE
8
Black
10
46.4444
20
18.8958
11
46.4604
21
18.8997
0
LINE
8
Black
10
46.4604
20
18.8997
11
46.4661
21
18.8991
0
LINE
8
Black
10
46.4661
20
18.8991
11
46.4717
21
18.8999
0
LINE
8
Black
10
46.4717
20
18.8999
11
46.4879
21
18.8967
0
LINE
8
Black
10
46.4879
20
18.8967
11
46.5043
21
18.8949
0
LINE
8
Black
10
46.5043
20
18.8949
11
46.5094
21
18.8924
0
LINE
8
Black
10
46.5094
20
18.8924
11
46.5149
21
18.8913
0
LINE
8
Black
10
46.5149
20
18.8913
11
46.529
21
18.8827
0
LINE
8
Black
10
46.529
20
18.8827
11
46.5438
21
18.8754
0
LINE
8
Black
10
46.5438
20
18.8754
11
46.5477
21
18.8713
0
LINE
8
Black
10
46.5477
20
18.8713
11
46.5526
21
18.8683
0
LINE
8
Black
10
46.5526
20
18.8683
11
46.5629
21
18.8554
0
LINE
8
Black
10
46.5629
20
18.8554
11
46.569
21
18.8491
0
LINE
8
Black
10
46.569
20
18.8491
11
46.6075
21
18.8234
0
LINE
8
Black
10
46.6075
20
18.8234
11
46.6085
21
18.8224
0
LINE
8
Black
10
46.6085
20
18.8224
11
46.6098
21
18.8218
0
LINE
8
Black
10
46.6098
20
18.8218
11
46.6244
21
18.8072
0
LINE
8
Black
10
46.6244
20
18.8072
11
46.6393
21
18.7929
0
LINE
8
Black
10
46.6393
20
18.7929
11
46.6399
21
18.7916
0
LINE
8
Black
10
46.6399
20
18.7916
11
46.6409
21
18.7906
0
LINE
8
Black
10
46.6409
20
18.7906
11
46.6497
21
18.7719
0
LINE
8
Black
10
46.6497
20
18.7719
11
46.6588
21
18.7533
0
LINE
8
Black
10
46.6588
20
18.7533
11
46.659
21
18.7519
0
LINE
8
Black
10
46.659
20
18.7519
11
46.6596
21
18.7506
0
LINE
8
Black
10
46.6596
20
18.7506
11
46.6614
21
18.73
0
LINE
8
Black
10
46.6614
20
18.73
11
46.6636
21
18.7095
0
LINE
8
Black
10
46.6636
20
18.7095
11
46.6633
21
18.7081
0
LINE
8
Black
10
46.6633
20
18.7081
11
46.6634
21
18.7067
0
LINE
8
Black
10
46.6634
20
18.7067
11
46.6581
21
18.6867
0
LINE
8
Black
10
46.6581
20
18.6867
11
46.6532
21
18.6666
0
LINE
8
Black
10
46.6532
20
18.6666
11
46.6524
21
18.6655
0
LINE
8
Black
10
46.6524
20
18.6655
11
46.652
21
18.6641
0
LINE
8
Black
10
46.652
20
18.6641
11
46.6402
21
18.6472
0
LINE
8
Black
10
46.6402
20
18.6472
11
46.6287
21
18.63
0
LINE
8
Black
10
46.6287
20
18.63
11
46.6275
21
18.6291
0
LINE
8
Black
10
46.6275
20
18.6291
11
46.6267
21
18.628
0
LINE
8
Black
10
46.6267
20
18.628
11
46.0439
21
18.0452
0
LINE
8
Black
10
46.0439
20
18.0452
11
46.0394
21
18.042
0
LINE
8
Black
10
46.0394
20
18.042
11
46.0358
21
18.0377
0
LINE
8
Black
10
46.0358
20
18.0377
11
46.0214
21
18.0294
0
LINE
8
Black
10
46.0214
20
18.0294
11
46.0078
21
18.0199
0
LINE
8
Black
10
46.0078
20
18.0199
11
46.0024
21
18.0185
0
LINE
8
Black
10
46.0024
20
18.0185
11
45.9976
21
18.0157
0
LINE
8
Black
10
45.9976
20
18.0157
11
45.9812
21
18.0128
0
LINE
8
Black
10
45.9812
20
18.0128
11
45.9652
21
18.0085
0
LINE
8
Black
10
45.9652
20
18.0085
11
45.9596
21
18.009
0
LINE
8
Black
10
45.9596
20
18.009
11
45.9541
21
18.008
0
LINE
8
Black
10
45.9541
20
18.008
11
37.9125
21
18.008
0
LINE
8
Black
10
37.9125
20
18.008
11
37.63
21
17.9518
0
LINE
8
Black
10
37.63
20
17.9518
11
37.3905
21
17.7918
0
LINE
8
Black
10
37.3905
20
17.7918
11
34.3082
21
14.7095
0
LINE
8
Black
10
34.3082
20
14.7095
11
34.1482
21
14.47
0
LINE
8
Black
10
34.1482
20
14.47
11
34.092
21
14.1875
0
LINE
8
Black
10
34.092
20
14.1875
11
34.092
21
5.04587
0
LINE
8
Black
10
34.092
20
5.04587
11
34.091
21
5.04037
0
LINE
8
Black
10
34.091
20
5.04037
11
34.0915
21
5.0348
0
LINE
8
Black
10
34.0915
20
5.0348
11
34.0872
21
5.01877
0
LINE
8
Black
10
34.0872
20
5.01877
11
34.0843
21
5.00243
0
LINE
8
Black
10
34.0843
20
5.00243
11
34.0815
21
4.99759
0
LINE
8
Black
10
34.0815
20
4.99759
11
34.0801
21
4.9922
0
LINE
8
Black
10
34.0801
20
4.9922
11
34.0706
21
4.97861
0
LINE
8
Black
10
34.0706
20
4.97861
11
34.0623
21
4.96423
0
LINE
8
Black
10
34.0623
20
4.96423
11
34.058
21
4.96064
0
LINE
8
Black
10
34.058
20
4.96064
11
34.0548
21
4.95607
0
LINE
8
Black
10
34.0548
20
4.95607
11
32.8439
21
3.7452
0
LINE
8
Black
10
32.8439
20
3.7452
11
32.8394
21
3.74199
0
LINE
8
Black
10
32.8394
20
3.74199
11
32.8358
21
3.73771
0
LINE
8
Black
10
32.8358
20
3.73771
11
32.8214
21
3.72942
0
LINE
8
Black
10
32.8214
20
3.72942
11
32.8078
21
3.7199
0
LINE
8
Black
10
32.8078
20
3.7199
11
32.8024
21
3.71845
0
LINE
8
Black
10
32.8024
20
3.71845
11
32.7976
21
3.71566
0
LINE
8
Black
10
32.7976
20
3.71566
11
32.7812
21
3.71278
0
LINE
8
Black
10
32.7812
20
3.71278
11
32.7652
21
3.70848
0
LINE
8
Black
10
32.7652
20
3.70848
11
32.7596
21
3.70897
0
LINE
8
Black
10
32.7596
20
3.70897
11
32.7541
21
3.708
0
LINE
8
Black
10
32.7541
20
3.708
11
32.5462
21
3.708
0
LINE
8
Black
10
32.5462
20
3.708
11
32.5421
21
3.70873
0
LINE
8
Black
10
32.5421
20
3.70873
11
32.5379
21
3.70827
0
LINE
8
Black
10
32.5379
20
3.70827
11
32.5204
21
3.71254
0
LINE
8
Black
10
32.5204
20
3.71254
11
32.5028
21
3.71566
0
LINE
8
Black
10
32.5028
20
3.71566
11
32.4991
21
3.71776
0
LINE
8
Black
10
32.4991
20
3.71776
11
32.495
21
3.71876
0
LINE
8
Black
10
32.495
20
3.71876
11
32.4801
21
3.72874
0
LINE
8
Black
10
32.4801
20
3.72874
11
32.4646
21
3.73771
0
LINE
8
Black
10
32.4646
20
3.73771
11
32.4619
21
3.74093
0
LINE
8
Black
10
32.4619
20
3.74093
11
32.4584
21
3.74326
0
LINE
8
Black
10
32.4584
20
3.74326
11
32.4477
21
3.75775
0
LINE
8
Black
10
32.4477
20
3.75775
11
32.4362
21
3.7715
0
LINE
8
Black
10
32.4362
20
3.7715
11
32.4348
21
3.77545
0
LINE
8
Black
10
32.4348
20
3.77545
11
32.4323
21
3.77883
0
LINE
8
Black
10
32.4323
20
3.77883
11
32.4273
21
3.79607
0
LINE
8
Black
10
32.4273
20
3.79607
11
32.4211
21
3.81295
0
LINE
8
Black
10
32.4211
20
3.81295
11
32.4211
21
3.81715
0
LINE
8
Black
10
32.4211
20
3.81715
11
32.4199
21
3.82118
0
LINE
8
Black
10
32.4199
20
3.82118
11
32.4211
21
3.8391
0
LINE
8
Black
10
32.4211
20
3.8391
11
32.4211
21
3.85705
0
LINE
8
Black
10
32.4211
20
3.85705
11
32.4226
21
3.861
0
LINE
8
Black
10
32.4226
20
3.861
11
32.4228
21
3.86519
0
LINE
8
Black
10
32.4228
20
3.86519
11
32.4301
21
3.88163
0
LINE
8
Black
10
32.4301
20
3.88163
11
32.433
21
3.8896
0
LINE
8
Black
10
32.433
20
3.8896
11
32.5385
21
4.42
0
LINE
8
Black
10
32.5385
20
4.42
11
32.4343
21
4.94394
0
LINE
8
Black
10
32.4343
20
4.94394
11
32.1375
21
5.38811
0
LINE
8
Black
10
32.1375
20
5.38811
11
31.8437
21
5.5844
0
LINE
8
Black
10
31.8437
20
5.5844
11
31.8337
21
5.59399
0
LINE
8
Black
10
31.8337
20
5.59399
11
31.8225
21
5.60218
0
LINE
8
Black
10
31.8225
20
5.60218
11
31.8179
21
5.60913
0
LINE
8
Black
10
31.8179
20
5.60913
11
31.8118
21
5.6149
0
LINE
8
Black
10
31.8118
20
5.6149
11
31.8057
21
5.62733
0
LINE
8
Black
10
31.8057
20
5.62733
11
31.798
21
5.63885
0
LINE
8
Black
10
31.798
20
5.63885
11
31.796
21
5.64697
0
LINE
8
Black
10
31.796
20
5.64697
11
31.7923
21
5.65446
0
LINE
8
Black
10
31.7923
20
5.65446
11
31.7908
21
5.66824
0
LINE
8
Black
10
31.7908
20
5.66824
11
31.7875
21
5.68169
0
LINE
8
Black
10
31.7875
20
5.68169
11
31.7884
21
5.69
0
LINE
8
Black
10
31.7884
20
5.69
11
31.7875
21
5.69831
0
LINE
8
Black
10
31.7875
20
5.69831
11
31.7908
21
5.71176
0
LINE
8
Black
10
31.7908
20
5.71176
11
31.7923
21
5.72554
0
LINE
8
Black
10
31.7923
20
5.72554
11
31.796
21
5.73304
0
LINE
8
Black
10
31.796
20
5.73304
11
31.798
21
5.74115
0
LINE
8
Black
10
31.798
20
5.74115
11
31.8057
21
5.75267
0
LINE
8
Black
10
31.8057
20
5.75267
11
31.8118
21
5.7651
0
LINE
8
Black
10
31.8118
20
5.7651
11
31.8179
21
5.77087
0
LINE
8
Black
10
31.8179
20
5.77087
11
31.8225
21
5.77782
0
LINE
8
Black
10
31.8225
20
5.77782
11
31.8337
21
5.78602
0
LINE
8
Black
10
31.8337
20
5.78602
11
31.8437
21
5.7956
0
LINE
8
Black
10
31.8437
20
5.7956
11
32.1375
21
5.99189
0
LINE
8
Black
10
32.1375
20
5.99189
11
32.4343
21
6.43606
0
LINE
8
Black
10
32.4343
20
6.43606
11
32.5385
21
6.96
0
LINE
8
Black
10
32.5385
20
6.96
11
32.4343
21
7.48394
0
LINE
8
Black
10
32.4343
20
7.48394
11
32.1375
21
7.92811
0
LINE
8
Black
10
32.1375
20
7.92811
11
31.8352
21
8.13007
0
LINE
8
Black
10
31.8352
20
8.13007
11
31.8343
21
8.13095
0
LINE
8
Black
10
31.8343
20
8.13095
11
31.8331
21
8.13149
0
LINE
8
Black
10
31.8331
20
8.13149
11
31.8184
21
8.14617
0
LINE
8
Black
10
31.8184
20
8.14617
11
31.8034
21
8.16057
0
LINE
8
Black
10
31.8034
20
8.16057
11
31.8028
21
8.16172
0
LINE
8
Black
10
31.8028
20
8.16172
11
31.8019
21
8.16262
0
LINE
8
Black
10
31.8019
20
8.16262
11
31.7931
21
8.18145
0
LINE
8
Black
10
31.7931
20
8.18145
11
31.7838
21
8.20013
0
LINE
8
Black
10
31.7838
20
8.20013
11
31.7837
21
8.2014
0
LINE
8
Black
10
31.7837
20
8.2014
11
31.7832
21
8.20256
0
LINE
8
Black
10
31.7832
20
8.20256
11
31.7813
21
8.22328
0
LINE
8
Black
10
31.7813
20
8.22328
11
31.779
21
8.24397
0
LINE
8
Black
10
31.779
20
8.24397
11
31.7793
21
8.24521
0
LINE
8
Black
10
31.7793
20
8.24521
11
31.7792
21
8.24649
0
LINE
8
Black
10
31.7792
20
8.24649
11
31.7846
21
8.26659
0
LINE
8
Black
10
31.7846
20
8.26659
11
31.7895
21
8.28681
0
LINE
8
Black
10
31.7895
20
8.28681
11
31.7902
21
8.28788
0
LINE
8
Black
10
31.7902
20
8.28788
11
31.7906
21
8.28911
0
LINE
8
Black
10
31.7906
20
8.28911
11
31.8025
21
8.30617
0
LINE
8
Black
10
31.8025
20
8.30617
11
31.814
21
8.32349
0
LINE
8
Black
10
31.814
20
8.32349
11
31.8151
21
8.32424
0
LINE
8
Black
10
31.8151
20
8.32424
11
31.8158
21
8.32529
0
LINE
8
Black
10
31.8158
20
8.32529
11
31.8328
21
8.33727
0
LINE
8
Black
10
31.8328
20
8.33727
11
31.8496
21
8.34957
0
LINE
8
Black
10
31.8496
20
8.34957
11
31.8508
21
8.34993
0
LINE
8
Black
10
31.8508
20
8.34993
11
31.8519
21
8.35066
0
LINE
8
Black
10
31.8519
20
8.35066
11
31.9517
21
8.39746
0
LINE
8
Black
10
31.9517
20
8.39746
11
32.3139
21
8.79423
0
LINE
8
Black
10
32.3139
20
8.79423
11
32.4549
21
9.13478
0
LINE
8
Black
10
32.4549
20
9.13478
11
32.3969
21
9.246
0
LINE
8
Black
10
32.3969
20
9.246
11
31.9559
21
9.246
0
LINE
8
Black
10
31.9559
20
9.246
11
31.8912
21
9.0682
0
LINE
8
Black
10
31.8912
20
9.0682
11
31.6984
21
8.83844
0
LINE
8
Black
10
31.6984
20
8.83844
11
31.4387
21
8.68848
0
LINE
8
Black
10
31.4387
20
8.68848
11
31.1433
21
8.6364
0
LINE
8
Black
10
31.1433
20
8.6364
11
31.1367
21
8.6364
0
LINE
8
Black
10
31.1367
20
8.6364
11
30.886
21
8.68061
0
LINE
8
Black
10
30.886
20
8.68061
11
30.8413
21
8.68848
0
LINE
8
Black
10
30.8413
20
8.68848
11
30.5816
21
8.83844
0
LINE
8
Black
10
30.5816
20
8.83844
11
30.3888
21
9.0682
0
LINE
8
Black
10
30.3888
20
9.0682
11
30.3241
21
9.246
0
LINE
8
Black
10
30.3241
20
9.246
11
29.4636
21
9.246
0
LINE
8
Black
10
29.4636
20
9.246
11
29.4636
21
8.6364
0
LINE
8
Black
10
29.4636
20
8.6364
11
27.7364
21
8.6364
0
LINE
8
Black
10
27.7364
20
8.6364
11
27.7364
21
9.246
0
LINE
8
Black
10
27.7364
20
9.246
11
27.3128
21
9.246
0
LINE
8
Black
10
27.3128
20
9.246
11
27.2284
21
9.16165
0
LINE
8
Black
10
27.2284
20
9.16165
11
27.2284
21
8.57947
0
LINE
8
Black
10
27.2284
20
8.57947
11
27.2255
21
8.56312
0
LINE
8
Black
10
27.2255
20
8.56312
11
27.2241
21
8.5466
0
LINE
8
Black
10
27.2241
20
8.5466
11
27.2217
21
8.54154
0
LINE
8
Black
10
27.2217
20
8.54154
11
27.2207
21
8.53603
0
LINE
8
Black
10
27.2207
20
8.53603
11
27.2124
21
8.52166
0
LINE
8
Black
10
27.2124
20
8.52166
11
27.2054
21
8.50662
0
LINE
8
Black
10
27.2054
20
8.50662
11
27.2015
21
8.50267
0
LINE
8
Black
10
27.2015
20
8.50267
11
27.1987
21
8.49783
0
LINE
8
Black
10
27.1987
20
8.49783
11
27.186
21
8.48717
0
LINE
8
Black
10
27.186
20
8.48717
11
27.1742
21
8.47544
0
LINE
8
Black
10
27.1742
20
8.47544
11
27.1692
21
8.47308
0
LINE
8
Black
10
27.1692
20
8.47308
11
27.1649
21
8.46948
0
LINE
8
Black
10
27.1649
20
8.46948
11
27.1493
21
8.46381
0
LINE
8
Black
10
27.1493
20
8.46381
11
27.1343
21
8.4568
0
LINE
8
Black
10
27.1343
20
8.4568
11
27.1287
21
8.45631
0
LINE
8
Black
10
27.1287
20
8.45631
11
27.1235
21
8.4544
0
LINE
8
Black
10
27.1235
20
8.4544
11
27.1069
21
8.4544
0
LINE
8
Black
10
27.1069
20
8.4544
11
27.0903
21
8.45295
0
LINE
8
Black
10
27.0903
20
8.45295
11
27.0849
21
8.4544
0
LINE
8
Black
10
27.0849
20
8.4544
11
27.0793
21
8.4544
0
LINE
8
Black
10
27.0793
20
8.4544
11
27.0638
21
8.46007
0
LINE
8
Black
10
27.0638
20
8.46007
11
27.0477
21
8.46437
0
LINE
8
Black
10
27.0477
20
8.46437
11
27.0432
21
8.46757
0
LINE
8
Black
10
27.0432
20
8.46757
11
27.0379
21
8.46948
0
LINE
8
Black
10
27.0379
20
8.46948
11
27.0252
21
8.48015
0
LINE
8
Black
10
27.0252
20
8.48015
11
27.0116
21
8.48967
0
LINE
8
Black
10
27.0116
20
8.48967
11
25.1452
21
10.3561
0
LINE
8
Black
10
25.1452
20
10.3561
11
25.142
21
10.3606
0
LINE
8
Black
10
25.142
20
10.3606
11
25.1377
21
10.3642
0
LINE
8
Black
10
25.1377
20
10.3642
11
25.1294
21
10.3786
0
LINE
8
Black
10
25.1294
20
10.3786
11
25.1199
21
10.3922
0
LINE
8
Black
10
25.1199
20
10.3922
11
25.1185
21
10.3976
0
LINE
8
Black
10
25.1185
20
10.3976
11
25.1157
21
10.4024
0
LINE
8
Black
10
25.1157
20
10.4024
11
25.1128
21
10.4188
0
LINE
8
Black
10
25.1128
20
10.4188
11
25.1085
21
10.4348
0
LINE
8
Black
10
25.1085
20
10.4348
11
25.109
21
10.4404
0
LINE
8
Black
10
25.109
20
10.4404
11
25.108
21
10.4459
0
LINE
8
Black
10
25.108
20
10.4459
11
25.108
21
18.8236
0
LINE
8
Black
10
25.108
20
18.8236
11
25.1099
21
18.8345
0
LINE
8
Black
10
25.1099
20
18.8345
11
25.1099
21
18.8456
0
LINE
8
Black
10
25.1099
20
18.8456
11
25.1137
21
18.8561
0
LINE
8
Black
10
25.1137
20
18.8561
11
25.1157
21
18.867
0
LINE
8
Black
10
25.1157
20
18.867
11
25.1212
21
18.8766
0
LINE
8
Black
10
25.1212
20
18.8766
11
25.125
21
18.8871
0
LINE
8
Black
10
25.125
20
18.8871
11
25.1322
21
18.8956
0
LINE
8
Black
10
25.1322
20
18.8956
11
25.1377
21
18.9052
0
LINE
8
Black
10
25.1377
20
18.9052
11
25.1462
21
18.9123
0
LINE
8
Black
10
25.1462
20
18.9123
11
25.1534
21
18.9208
0
LINE
8
Black
10
25.1534
20
18.9208
11
25.163
21
18.9264
0
LINE
8
Black
10
25.163
20
18.9264
11
25.1715
21
18.9335
0
LINE
8
Black
10
25.1715
20
18.9335
11
25.1819
21
18.9373
0
LINE
8
Black
10
25.1819
20
18.9373
11
25.1916
21
18.9429
0
LINE
8
Black
10
25.1916
20
18.9429
11
25.2025
21
18.9448
0
LINE
8
Black
10
25.2025
20
18.9448
11
25.2129
21
18.9486
0
LINE
8
Black
10
25.2129
20
18.9486
11
25.2241
21
18.9486
0
LINE
8
Black
10
25.2241
20
18.9486
11
25.235
21
18.9506
0
LINE
8
Black
10
25.235
20
18.9506
11
25.2768
21
18.9506
0
LINE
8
Black
10
25.2768
20
18.9506
11
25.4823
21
18.9904
0
LINE
8
Black
10
25.4823
20
18.9904
11
25.6529
21
19.1025
0
LINE
8
Black
10
25.6529
20
19.1025
11
25.7669
21
19.2713
0
LINE
8
Black
10
25.7669
20
19.2713
11
25.8094
21
19.4836
0
LINE
8
Black
10
25.8094
20
19.4836
11
25.8094
21
21.2368
0
LINE
8
Black
10
25.8094
20
21.2368
11
25.8076
21
21.2465
0
LINE
8
Black
10
25.8076
20
21.2465
11
25.7696
21
21.4423
0
LINE
8
Black
10
25.7696
20
21.4423
11
25.6575
21
21.6129
0
LINE
8
Black
10
25.6575
20
21.6129
11
25.4887
21
21.7269
0
LINE
8
Black
10
25.4887
20
21.7269
11
25.2764
21
21.7694
0
LINE
8
Black
10
25.2764
20
21.7694
11
23.5232
21
21.7694
0
LINE
8
Black
10
23.5232
20
21.7694
11
23.3177
21
21.7296
0
LINE
8
Black
10
23.3177
20
21.7296
11
23.1471
21
21.6175
0
LINE
8
Black
10
23.1471
20
21.6175
11
23.0331
21
21.4487
0
LINE
8
Black
10
23.0331
20
21.4487
11
22.9906
21
21.2364
0
LINE
8
Black
10
22.9906
20
21.2364
11
22.9906
21
19.4832
0
LINE
8
Black
10
22.9906
20
19.4832
11
23.0304
21
19.2777
0
LINE
8
Black
10
23.0304
20
19.2777
11
23.1425
21
19.1071
0
LINE
8
Black
10
23.1425
20
19.1071
11
23.3113
21
18.9931
0
LINE
8
Black
10
23.3113
20
18.9931
11
23.5236
21
18.9506
0
LINE
8
Black
10
23.5236
20
18.9506
11
23.565
21
18.9506
0
LINE
8
Black
10
23.565
20
18.9506
11
23.5759
21
18.9486
0
LINE
8
Black
10
23.5759
20
18.9486
11
23.5871
21
18.9486
0
LINE
8
Black
10
23.5871
20
18.9486
11
23.5975
21
18.9448
0
LINE
8
Black
10
23.5975
20
18.9448
11
23.6084
21
18.9429
0
LINE
8
Black
10
23.6084
20
18.9429
11
23.6181
21
18.9373
0
LINE
8
Black
10
23.6181
20
18.9373
11
23.6285
21
18.9335
0
LINE
8
Black
10
23.6285
20
18.9335
11
23.637
21
18.9264
0
LINE
8
Black
10
23.637
20
18.9264
11
23.6466
21
18.9208
0
LINE
8
Black
10
23.6466
20
18.9208
11
23.6538
21
18.9123
0
LINE
8
Black
10
23.6538
20
18.9123
11
23.6623
21
18.9052
0
LINE
8
Black
10
23.6623
20
18.9052
11
23.6678
21
18.8956
0
LINE
8
Black
10
23.6678
20
18.8956
11
23.675
21
18.8871
0
LINE
8
Black
10
23.675
20
18.8871
11
23.6788
21
18.8766
0
LINE
8
Black
10
23.6788
20
18.8766
11
23.6843
21
18.867
0
LINE
8
Black
10
23.6843
20
18.867
11
23.6863
21
18.8561
0
LINE
8
Black
10
23.6863
20
18.8561
11
23.6901
21
18.8456
0
LINE
8
Black
10
23.6901
20
18.8456
11
23.6901
21
18.8345
0
LINE
8
Black
10
23.6901
20
18.8345
11
23.692
21
18.8236
0
LINE
8
Black
10
23.692
20
18.8236
11
23.692
21
10.1125
0
LINE
8
Black
10
23.692
20
10.1125
11
23.7482
21
9.83001
0
LINE
8
Black
10
23.7482
20
9.83001
11
23.9082
21
9.59053
0
LINE
8
Black
10
23.9082
20
9.59053
11
27.0305
21
6.46821
0
LINE
8
Black
10
27.0305
20
6.46821
11
27.27
21
6.30819
0
LINE
8
Black
10
27.27
20
6.30819
11
27.3582
21
6.29066
0
LINE
8
Black
10
27.3582
20
6.29066
11
27.3634
21
6.28863
0
LINE
8
Black
10
27.3634
20
6.28863
11
27.3689
21
6.28802
0
LINE
8
Black
10
27.3689
20
6.28802
11
27.3838
21
6.28068
0
LINE
8
Black
10
27.3838
20
6.28068
11
27.3993
21
6.27467
0
LINE
8
Black
10
27.3993
20
6.27467
11
27.4035
21
6.27099
0
LINE
8
Black
10
27.4035
20
6.27099
11
27.4085
21
6.26852
0
LINE
8
Black
10
27.4085
20
6.26852
11
27.42
21
6.25653
0
LINE
8
Black
10
27.42
20
6.25653
11
27.4324
21
6.24559
0
LINE
8
Black
10
27.4324
20
6.24559
11
27.4351
21
6.24069
0
LINE
8
Black
10
27.4351
20
6.24069
11
27.439
21
6.23665
0
LINE
8
Black
10
27.439
20
6.23665
11
27.6025
21
5.99189
0
LINE
8
Black
10
27.6025
20
5.99189
11
27.8963
21
5.7956
0
LINE
8
Black
10
27.8963
20
5.7956
11
27.9063
21
5.78601
0
LINE
8
Black
10
27.9063
20
5.78601
11
27.9175
21
5.77782
0
LINE
8
Black
10
27.9175
20
5.77782
11
27.9221
21
5.77087
0
LINE
8
Black
10
27.9221
20
5.77087
11
27.9282
21
5.7651
0
LINE
8
Black
10
27.9282
20
5.7651
11
27.9343
21
5.75267
0
LINE
8
Black
10
27.9343
20
5.75267
11
27.942
21
5.74115
0
LINE
8
Black
10
27.942
20
5.74115
11
27.944
21
5.73303
0
LINE
8
Black
10
27.944
20
5.73303
11
27.9477
21
5.72554
0
LINE
8
Black
10
27.9477
20
5.72554
11
27.9492
21
5.71177
0
LINE
8
Black
10
27.9492
20
5.71177
11
27.9525
21
5.69831
0
LINE
8
Black
10
27.9525
20
5.69831
11
27.9516
21
5.69
0
LINE
8
Black
10
27.9516
20
5.69
11
27.9525
21
5.68169
0
LINE
8
Black
10
27.9525
20
5.68169
11
27.9492
21
5.66823
0
LINE
8
Black
10
27.9492
20
5.66823
11
27.9477
21
5.65446
0
LINE
8
Black
10
27.9477
20
5.65446
11
27.944
21
5.64697
0
LINE
8
Black
10
27.944
20
5.64697
11
27.942
21
5.63885
0
LINE
8
Black
10
27.942
20
5.63885
11
27.9343
21
5.62733
0
LINE
8
Black
10
27.9343
20
5.62733
11
27.9282
21
5.6149
0
LINE
8
Black
10
27.9282
20
5.6149
11
27.9221
21
5.60913
0
LINE
8
Black
10
27.9221
20
5.60913
11
27.9175
21
5.60218
0
LINE
8
Black
10
27.9175
20
5.60218
11
27.9063
21
5.59399
0
LINE
8
Black
10
27.9063
20
5.59399
11
27.8963
21
5.5844
0
LINE
8
Black
10
27.8963
20
5.5844
11
27.6025
21
5.38811
0
LINE
8
Black
10
27.6025
20
5.38811
11
27.3057
21
4.94394
0
LINE
8
Black
10
27.3057
20
4.94394
11
27.2015
21
4.42
0
LINE
8
Black
10
27.2015
20
4.42
11
27.307
21
3.88959
0
LINE
8
Black
10
27.307
20
3.88959
11
27.3099
21
3.88162
0
LINE
8
Black
10
27.3099
20
3.88162
11
27.3172
21
3.86518
0
LINE
8
Black
10
27.3172
20
3.86518
11
27.3174
21
3.861
0
LINE
8
Black
10
27.3174
20
3.861
11
27.3189
21
3.85705
0
LINE
8
Black
10
27.3189
20
3.85705
11
27.3189
21
3.83909
0
LINE
8
Black
10
27.3189
20
3.83909
11
27.3201
21
3.82117
0
LINE
8
Black
10
27.3201
20
3.82117
11
27.3189
21
3.81714
0
LINE
8
Black
10
27.3189
20
3.81714
11
27.3189
21
3.81295
0
LINE
8
Black
10
27.3189
20
3.81295
11
27.3127
21
3.79607
0
LINE
8
Black
10
27.3127
20
3.79607
11
27.3077
21
3.77883
0
LINE
8
Black
10
27.3077
20
3.77883
11
27.3052
21
3.77545
0
LINE
8
Black
10
27.3052
20
3.77545
11
27.3038
21
3.7715
0
LINE
8
Black
10
27.3038
20
3.7715
11
27.2922
21
3.75774
0
LINE
8
Black
10
27.2922
20
3.75774
11
27.2816
21
3.74326
0
LINE
8
Black
10
27.2816
20
3.74326
11
27.2781
21
3.74093
0
LINE
8
Black
10
27.2781
20
3.74093
11
27.2754
21
3.73771
0
LINE
8
Black
10
27.2754
20
3.73771
11
27.2599
21
3.72874
0
LINE
8
Black
10
27.2599
20
3.72874
11
27.245
21
3.71875
0
LINE
8
Black
10
27.245
20
3.71875
11
27.2409
21
3.71776
0
LINE
8
Black
10
27.2409
20
3.71776
11
27.2372
21
3.71566
0
LINE
8
Black
10
27.2372
20
3.71566
11
27.2196
21
3.71254
0
LINE
8
Black
10
27.2196
20
3.71254
11
27.2021
21
3.70827
0
LINE
8
Black
10
27.2021
20
3.70827
11
27.1979
21
3.70873
0
LINE
8
Black
10
27.1979
20
3.70873
11
27.1938
21
3.708
0
LINE
8
Black
10
27.1938
20
3.708
11
26.3459
21
3.708
0
LINE
8
Black
10
26.3459
20
3.708
11
26.3404
21
3.70897
0
LINE
8
Black
10
26.3404
20
3.70897
11
26.3348
21
3.70848
0
LINE
8
Black
10
26.3348
20
3.70848
11
26.3188
21
3.71278
0
LINE
8
Black
10
26.3188
20
3.71278
11
26.3024
21
3.71566
0
LINE
8
Black
10
26.3024
20
3.71566
11
26.2976
21
3.71845
0
LINE
8
Black
10
26.2976
20
3.71845
11
26.2922
21
3.7199
0
LINE
8
Black
10
26.2922
20
3.7199
11
26.2786
21
3.72942
0
LINE
8
Black
10
26.2786
20
3.72942
11
26.2642
21
3.73771
0
LINE
8
Black
10
26.2642
20
3.73771
11
26.2606
21
3.74199
0
LINE
8
Black
10
26.2606
20
3.74199
11
26.2561
21
3.7452
0
LINE
8
Black
10
26.2561
20
3.7452
11
26.2095
21
3.79179
0
LINE
8
Black
10
26.2095
20
3.79179
11
25.97
21
3.95181
0
LINE
8
Black
10
25.97
20
3.95181
11
25.6875
21
4.008
0
LINE
8
Black
10
25.6875
20
4.008
11
21.655
21
4.008
0
LINE
8
Black
10
21.655
20
4.008
11
21.636
21
4.01136
0
LINE
8
Black
10
42.0578
20
2.70934
11
41.77
21
2.6586
0
LINE
8
Black
10
41.77
20
2.6586
11
41.4822
21
2.70934
0
LINE
8
Black
10
41.4822
20
2.70934
11
41.3911
21
2.76193
0
LINE
8
Black
10
41.3911
20
2.76193
11
41.0585
21
2.42927
0
LINE
8
Black
10
41.0585
20
2.42927
11
41.0953
21
2.31256
0
LINE
8
Black
10
41.0953
20
2.31256
11
41.5636
21
2.14304
0
LINE
8
Black
10
41.5636
20
2.14304
11
42.1015
21
2.16747
0
LINE
8
Black
10
42.1015
20
2.16747
11
42.4437
21
2.30918
0
LINE
8
Black
10
42.4437
20
2.30918
11
42.4815
21
2.42927
0
LINE
8
Black
10
42.4815
20
2.42927
11
42.4815
21
2.42927
0
LINE
8
Black
10
42.4815
20
2.42927
11
42.1489
21
2.76193
0
LINE
8
Black
10
42.1489
20
2.76193
11
42.0578
21
2.70934
0
LINE
8
Black
10
40.4522
20
4.1648
11
40.4475
21
4.16783
0
LINE
8
Black
10
40.4475
20
4.16783
11
40.4421
21
4.16953
0
LINE
8
Black
10
40.4421
20
4.16953
11
40.429
21
4.17961
0
LINE
8
Black
10
40.429
20
4.17961
11
40.415
21
4.1885
0
LINE
8
Black
10
40.415
20
4.1885
11
40.4116
21
4.19298
0
LINE
8
Black
10
40.4116
20
4.19298
11
40.4071
21
4.19641
0
LINE
8
Black
10
40.4071
20
4.19641
11
40.3983
21
4.21037
0
LINE
8
Black
10
40.3983
20
4.21037
11
40.3882
21
4.2235
0
LINE
8
Black
10
40.3882
20
4.2235
11
40.3865
21
4.22888
0
LINE
8
Black
10
40.3865
20
4.22888
11
40.3835
21
4.23363
0
LINE
8
Black
10
40.3835
20
4.23363
11
40.3719
21
4.26157
0
LINE
8
Black
10
40.3719
20
4.26157
11
39.9936
21
4.64059
0
LINE
8
Black
10
39.9936
20
4.64059
11
39.499
21
4.84597
0
LINE
8
Black
10
39.499
20
4.84597
11
39.0277
21
4.84638
0
LINE
8
Black
10
39.0277
20
4.84638
11
38.9634
21
4.84643
0
LINE
8
Black
10
38.9634
20
4.84643
11
38.4684
21
4.64192
0
LINE
8
Black
10
38.4684
20
4.64192
11
38.0894
21
4.26356
0
LINE
8
Black
10
38.0894
20
4.26356
11
37.884
21
3.76895
0
LINE
8
Black
10
37.884
20
3.76895
11
37.8836
21
3.2334
0
LINE
8
Black
10
37.8836
20
3.2334
11
38.0881
21
2.73844
0
LINE
8
Black
10
38.0881
20
2.73844
11
38.4664
21
2.35941
0
LINE
8
Black
10
38.4664
20
2.35941
11
38.961
21
2.15403
0
LINE
8
Black
10
38.961
20
2.15403
11
39.4966
21
2.15357
0
LINE
8
Black
10
39.4966
20
2.15357
11
39.9916
21
2.35808
0
LINE
8
Black
10
39.9916
20
2.35808
11
40.3706
21
2.73644
0
LINE
8
Black
10
40.3706
20
2.73644
11
40.3832
21
2.7667
0
LINE
8
Black
10
40.3832
20
2.7667
11
40.3861
21
2.77136
0
LINE
8
Black
10
40.3861
20
2.77136
11
40.3878
21
2.77663
0
LINE
8
Black
10
40.3878
20
2.77663
11
40.3979
21
2.78984
0
LINE
8
Black
10
40.3979
20
2.78984
11
40.4069
21
2.80388
0
LINE
8
Black
10
40.4069
20
2.80388
11
40.4113
21
2.80724
0
LINE
8
Black
10
40.4113
20
2.80724
11
40.4146
21
2.81162
0
LINE
8
Black
10
40.4146
20
2.81162
11
40.4287
21
2.82057
0
LINE
8
Black
10
40.4287
20
2.82057
11
40.4419
21
2.8307
0
LINE
8
Black
10
40.4419
20
2.8307
11
40.4472
21
2.83236
0
LINE
8
Black
10
40.4472
20
2.83236
11
40.4518
21
2.83533
0
LINE
8
Black
10
40.4518
20
2.83533
11
40.4681
21
2.83893
0
LINE
8
Black
10
40.4681
20
2.83893
11
40.484
21
2.84392
0
LINE
8
Black
10
40.484
20
2.84392
11
40.4895
21
2.84368
0
LINE
8
Black
10
40.4895
20
2.84368
11
40.4949
21
2.84488
0
LINE
8
Black
10
40.4949
20
2.84488
11
40.5114
21
2.8427
0
LINE
8
Black
10
40.5114
20
2.8427
11
40.528
21
2.84196
0
LINE
8
Black
10
40.528
20
2.84196
11
40.5331
21
2.83984
0
LINE
8
Black
10
40.5331
20
2.83984
11
40.5386
21
2.83912
0
LINE
8
Black
10
40.5386
20
2.83912
11
40.6993
21
2.78848
0
LINE
8
Black
10
40.6993
20
2.78848
11
41.0277
21
3.11686
0
LINE
8
Black
10
41.0277
20
3.11686
11
40.9414
21
3.35389
0
LINE
8
Black
10
40.9414
20
3.35389
11
40.9414
21
3.64611
0
LINE
8
Black
10
40.9414
20
3.64611
11
41.0277
21
3.88314
0
LINE
8
Black
10
41.0277
20
3.88314
11
40.6993
21
4.21152
0
LINE
8
Black
10
40.6993
20
4.21152
11
40.664
21
4.2004
0
LINE
8
Black
10
40.664
20
4.2004
11
40.664
21
4.2004
0
LINE
8
Black
10
40.664
20
4.2004
11
40.664
21
4.2004
0
LINE
8
Black
10
40.664
20
4.2004
11
40.539
21
4.16101
0
LINE
8
Black
10
40.539
20
4.16101
11
40.5334
21
4.16027
0
LINE
8
Black
10
40.5334
20
4.16027
11
40.5282
21
4.15812
0
LINE
8
Black
10
40.5282
20
4.15812
11
40.5117
21
4.15741
0
LINE
8
Black
10
40.5117
20
4.15741
11
40.4953
21
4.15525
0
LINE
8
Black
10
40.4953
20
4.15525
11
40.4898
21
4.15647
0
LINE
8
Black
10
40.4898
20
4.15647
11
40.4841
21
4.15623
0
LINE
8
Black
10
40.4841
20
4.15623
11
40.4815
21
4.15706
0
LINE
8
Black
10
40.4815
20
4.15706
11
40.4684
21
4.16122
0
LINE
8
Black
10
40.4684
20
4.16122
11
40.4522
21
4.1648
0
LINE
8
Black
10
42.7156
20
4.0864
11
42.7156
21
4.0864
0
LINE
8
Black
10
42.7156
20
4.0864
11
42.7156
21
4.0864
0
LINE
8
Black
10
42.7156
20
4.0864
11
42.5123
21
3.88314
0
LINE
8
Black
10
42.5123
20
3.88314
11
42.5986
21
3.64611
0
LINE
8
Black
10
42.5986
20
3.64611
11
42.5986
21
3.35389
0
LINE
8
Black
10
42.5986
20
3.35389
11
42.5123
21
3.11686
0
LINE
8
Black
10
42.5123
20
3.11686
11
42.8407
21
2.78848
0
LINE
8
Black
10
42.8407
20
2.78848
11
42.9574
21
2.82527
0
LINE
8
Black
10
42.9574
20
2.82527
11
43.127
21
3.29357
0
LINE
8
Black
10
43.127
20
3.29357
11
43.1025
21
3.83155
0
LINE
8
Black
10
43.1025
20
3.83155
11
42.9608
21
4.17366
0
LINE
8
Black
10
42.9608
20
4.17366
11
42.8407
21
4.21152
0
LINE
8
Black
10
42.8407
20
4.21152
11
42.7156
21
4.0864
0
LINE
8
Black
10
41.0963
20
4.69082
11
41.0585
21
4.57073
0
LINE
8
Black
10
41.0585
20
4.57073
11
41.3911
21
4.23807
0
LINE
8
Black
10
41.3911
20
4.23807
11
41.4822
21
4.29066
0
LINE
8
Black
10
41.4822
20
4.29066
11
41.77
21
4.3414
0
LINE
8
Black
10
41.77
20
4.3414
11
42.0578
21
4.29066
0
LINE
8
Black
10
42.0578
20
4.29066
11
42.1489
21
4.23807
0
LINE
8
Black
10
42.1489
20
4.23807
11
42.4815
21
4.57073
0
LINE
8
Black
10
42.4815
20
4.57073
11
42.4447
21
4.68744
0
LINE
8
Black
10
42.4447
20
4.68744
11
41.9764
21
4.85696
0
LINE
8
Black
10
41.9764
20
4.85696
11
41.4385
21
4.83253
0
LINE
8
Black
10
41.4385
20
4.83253
11
41.3036
21
4.77667
0
LINE
8
Black
10
41.3036
20
4.77667
11
41.3036
21
4.77667
0
LINE
8
Black
10
41.3036
20
4.77667
11
41.3036
21
4.77666
0
LINE
8
Black
10
41.3036
20
4.77666
11
41.127
21
4.70351
0
LINE
8
Black
10
41.127
20
4.70351
11
41.0963
21
4.69082
0
LINE
8
Black
10
21.8123
20
5.88314
11
21.8986
21
5.64611
0
LINE
8
Black
10
21.8986
20
5.64611
11
21.8986
21
5.35389
0
LINE
8
Black
10
21.8986
20
5.35389
11
21.8123
21
5.11686
0
LINE
8
Black
10
21.8123
20
5.11686
11
22.1407
21
4.78848
0
LINE
8
Black
10
22.1407
20
4.78848
11
22.2574
21
4.82527
0
LINE
8
Black
10
22.2574
20
4.82527
11
22.427
21
5.29357
0
LINE
8
Black
10
22.427
20
5.29357
11
22.4025
21
5.83155
0
LINE
8
Black
10
22.4025
20
5.83155
11
22.2608
21
6.17366
0
LINE
8
Black
10
22.2608
20
6.17366
11
22.1407
21
6.21152
0
LINE
8
Black
10
22.1407
20
6.21152
11
21.8123
21
5.88314
0
LINE
8
Black
10
48.0578
20
8.70934
11
47.77
21
8.6586
0
LINE
8
Black
10
47.77
20
8.6586
11
47.4822
21
8.70934
0
LINE
8
Black
10
47.4822
20
8.70934
11
47.3911
21
8.76193
0
LINE
8
Black
10
47.3911
20
8.76193
11
47.0585
21
8.42927
0
LINE
8
Black
10
47.0585
20
8.42927
11
47.0953
21
8.31256
0
LINE
8
Black
10
47.0953
20
8.31256
11
47.5636
21
8.14304
0
LINE
8
Black
10
47.5636
20
8.14304
11
48.1015
21
8.16747
0
LINE
8
Black
10
48.1015
20
8.16747
11
48.4437
21
8.30918
0
LINE
8
Black
10
48.4437
20
8.30918
11
48.4815
21
8.42927
0
LINE
8
Black
10
48.4815
20
8.42927
11
48.4815
21
8.42927
0
LINE
8
Black
10
48.4815
20
8.42927
11
48.1489
21
8.76193
0
LINE
8
Black
10
48.1489
20
8.76193
11
48.0578
21
8.70934
0
LINE
8
Black
10
44.4684
20
10.6419
11
44.0894
21
10.2636
0
LINE
8
Black
10
44.0894
20
10.2636
11
43.884
21
9.76895
0
LINE
8
Black
10
43.884
20
9.76895
11
43.8836
21
9.2334
0
LINE
8
Black
10
43.8836
20
9.2334
11
44.0881
21
8.73844
0
LINE
8
Black
10
44.0881
20
8.73844
11
44.4664
21
8.35941
0
LINE
8
Black
10
44.4664
20
8.35941
11
44.961
21
8.15403
0
LINE
8
Black
10
44.961
20
8.15403
11
45.4966
21
8.15357
0
LINE
8
Black
10
45.4966
20
8.15357
11
45.9916
21
8.35808
0
LINE
8
Black
10
45.9916
20
8.35808
11
46.3706
21
8.73644
0
LINE
8
Black
10
46.3706
20
8.73644
11
46.3832
21
8.7667
0
LINE
8
Black
10
46.3832
20
8.7667
11
46.3861
21
8.77136
0
LINE
8
Black
10
46.3861
20
8.77136
11
46.3878
21
8.77663
0
LINE
8
Black
10
46.3878
20
8.77663
11
46.3979
21
8.78984
0
LINE
8
Black
10
46.3979
20
8.78984
11
46.4069
21
8.80388
0
LINE
8
Black
10
46.4069
20
8.80388
11
46.4113
21
8.80724
0
LINE
8
Black
10
46.4113
20
8.80724
11
46.4146
21
8.81162
0
LINE
8
Black
10
46.4146
20
8.81162
11
46.4287
21
8.82057
0
LINE
8
Black
10
46.4287
20
8.82057
11
46.4419
21
8.8307
0
LINE
8
Black
10
46.4419
20
8.8307
11
46.4472
21
8.83236
0
LINE
8
Black
10
46.4472
20
8.83236
11
46.4518
21
8.83533
0
LINE
8
Black
10
46.4518
20
8.83533
11
46.4681
21
8.83893
0
LINE
8
Black
10
46.4681
20
8.83893
11
46.484
21
8.84392
0
LINE
8
Black
10
46.484
20
8.84392
11
46.4895
21
8.84368
0
LINE
8
Black
10
46.4895
20
8.84368
11
46.4949
21
8.84488
0
LINE
8
Black
10
46.4949
20
8.84488
11
46.5114
21
8.8427
0
LINE
8
Black
10
46.5114
20
8.8427
11
46.528
21
8.84196
0
LINE
8
Black
10
46.528
20
8.84196
11
46.5331
21
8.83984
0
LINE
8
Black
10
46.5331
20
8.83984
11
46.5386
21
8.83912
0
LINE
8
Black
10
46.5386
20
8.83912
11
46.6993
21
8.78848
0
LINE
8
Black
10
46.6993
20
8.78848
11
47.0277
21
9.11686
0
LINE
8
Black
10
47.0277
20
9.11686
11
46.9414
21
9.35389
0
LINE
8
Black
10
46.9414
20
9.35389
11
46.9414
21
9.64611
0
LINE
8
Black
10
46.9414
20
9.64611
11
47.0277
21
9.88314
0
LINE
8
Black
10
47.0277
20
9.88314
11
46.6993
21
10.2115
0
LINE
8
Black
10
46.6993
20
10.2115
11
46.539
21
10.161
0
LINE
8
Black
10
46.539
20
10.161
11
46.5334
21
10.1603
0
LINE
8
Black
10
46.5334
20
10.1603
11
46.5282
21
10.1581
0
LINE
8
Black
10
46.5282
20
10.1581
11
46.5117
21
10.1574
0
LINE
8
Black
10
46.5117
20
10.1574
11
46.4953
21
10.1553
0
LINE
8
Black
10
46.4953
20
10.1553
11
46.4898
21
10.1565
0
LINE
8
Black
10
46.4898
20
10.1565
11
46.4841
21
10.1562
0
LINE
8
Black
10
46.4841
20
10.1562
11
46.4684
21
10.1612
0
LINE
8
Black
10
46.4684
20
10.1612
11
46.4522
21
10.1648
0
LINE
8
Black
10
46.4522
20
10.1648
11
46.4475
21
10.1678
0
LINE
8
Black
10
46.4475
20
10.1678
11
46.4421
21
10.1695
0
LINE
8
Black
10
46.4421
20
10.1695
11
46.429
21
10.1796
0
LINE
8
Black
10
46.429
20
10.1796
11
46.415
21
10.1885
0
LINE
8
Black
10
46.415
20
10.1885
11
46.4116
21
10.193
0
LINE
8
Black
10
46.4116
20
10.193
11
46.4071
21
10.1964
0
LINE
8
Black
10
46.4071
20
10.1964
11
46.3982
21
10.2104
0
LINE
8
Black
10
46.3982
20
10.2104
11
46.3882
21
10.2235
0
LINE
8
Black
10
46.3882
20
10.2235
11
46.3865
21
10.2289
0
LINE
8
Black
10
46.3865
20
10.2289
11
46.3835
21
10.2336
0
LINE
8
Black
10
46.3835
20
10.2336
11
46.3719
21
10.2616
0
LINE
8
Black
10
46.3719
20
10.2616
11
45.9936
21
10.6406
0
LINE
8
Black
10
45.9936
20
10.6406
11
45.499
21
10.846
0
LINE
8
Black
10
45.499
20
10.846
11
44.9634
21
10.8464
0
LINE
8
Black
10
44.9634
20
10.8464
11
44.4684
21
10.6419
0
LINE
8
Black
10
48.7156
20
10.0864
11
48.7156
21
10.0864
0
LINE
8
Black
10
48.7156
20
10.0864
11
48.7156
21
10.0864
0
LINE
8
Black
10
48.7156
20
10.0864
11
48.5123
21
9.88314
0
LINE
8
Black
10
48.5123
20
9.88314
11
48.5986
21
9.64611
0
LINE
8
Black
10
48.5986
20
9.64611
11
48.5986
21
9.35389
0
LINE
8
Black
10
48.5986
20
9.35389
11
48.5123
21
9.11686
0
LINE
8
Black
10
48.5123
20
9.11686
11
48.8407
21
8.78848
0
LINE
8
Black
10
48.8407
20
8.78848
11
48.9574
21
8.82527
0
LINE
8
Black
10
48.9574
20
8.82527
11
49.127
21
9.29357
0
LINE
8
Black
10
49.127
20
9.29357
11
49.1025
21
9.83155
0
LINE
8
Black
10
49.1025
20
9.83155
11
48.9608
21
10.1737
0
LINE
8
Black
10
48.9608
20
10.1737
11
48.8407
21
10.2115
0
LINE
8
Black
10
48.8407
20
10.2115
11
48.7156
21
10.0864
0
LINE
8
Black
10
28.9384
20
10.8716
11
28.854
21
10.7872
0
LINE
8
Black
10
28.854
20
10.7872
11
28.854
21
10.3636
0
LINE
8
Black
10
28.854
20
10.3636
11
29.4636
21
10.3636
0
LINE
8
Black
10
29.4636
20
10.3636
11
29.4636
21
9.754
0
LINE
8
Black
10
29.4636
20
9.754
11
30.3241
21
9.754
0
LINE
8
Black
10
30.3241
20
9.754
11
30.3888
21
9.9318
0
LINE
8
Black
10
30.3888
20
9.9318
11
30.5816
21
10.1616
0
LINE
8
Black
10
30.5816
20
10.1616
11
30.8413
21
10.3115
0
LINE
8
Black
10
30.8413
20
10.3115
11
30.886
21
10.3194
0
LINE
8
Black
10
30.886
20
10.3194
11
30.886
21
10.7573
0
LINE
8
Black
10
30.886
20
10.7573
11
30.7781
21
10.8134
0
LINE
8
Black
10
30.7781
20
10.8134
11
30.3283
21
10.6025
0
LINE
8
Black
10
30.3283
20
10.6025
11
30.1783
21
10.4383
0
LINE
8
Black
10
30.1783
20
10.4383
11
30.1651
21
10.4281
0
LINE
8
Black
10
30.1651
20
10.4281
11
30.1528
21
10.4168
0
LINE
8
Black
10
30.1528
20
10.4168
11
30.1477
21
10.4147
0
LINE
8
Black
10
30.1477
20
10.4147
11
30.1434
21
10.4113
0
LINE
8
Black
10
30.1434
20
10.4113
11
30.1275
21
10.4063
0
LINE
8
Black
10
30.1275
20
10.4063
11
30.112
21
10.3999
0
LINE
8
Black
10
30.112
20
10.3999
11
30.1066
21
10.3997
0
LINE
8
Black
10
30.1066
20
10.3997
11
30.1013
21
10.398
0
LINE
8
Black
10
30.1013
20
10.398
11
30.0846
21
10.3987
0
LINE
8
Black
10
30.0846
20
10.3987
11
30.068
21
10.398
0
LINE
8
Black
10
30.068
20
10.398
11
30.0627
21
10.3996
0
LINE
8
Black
10
30.0627
20
10.3996
11
30.0573
21
10.3998
0
LINE
8
Black
10
30.0573
20
10.3998
11
30.0418
21
10.4062
0
LINE
8
Black
10
30.0418
20
10.4062
11
30.0259
21
10.4112
0
LINE
8
Black
10
30.0259
20
10.4112
11
30.0216
21
10.4146
0
LINE
8
Black
10
30.0216
20
10.4146
11
30.0165
21
10.4166
0
LINE
8
Black
10
30.0165
20
10.4166
11
30.0041
21
10.4279
0
LINE
8
Black
10
30.0041
20
10.4279
11
29.9909
21
10.4381
0
LINE
8
Black
10
29.9909
20
10.4381
11
29.988
21
10.4427
0
LINE
8
Black
10
29.988
20
10.4427
11
29.9839
21
10.4464
0
LINE
8
Black
10
29.9839
20
10.4464
11
29.9762
21
10.4612
0
LINE
8
Black
10
29.9762
20
10.4612
11
29.9672
21
10.4753
0
LINE
8
Black
10
29.9672
20
10.4753
11
29.8943
21
10.6514
0
LINE
8
Black
10
29.8943
20
10.6514
11
29.7514
21
10.7943
0
LINE
8
Black
10
29.7514
20
10.7943
11
29.5646
21
10.8716
0
LINE
8
Black
10
29.5646
20
10.8716
11
28.9384
21
10.8716
0
LINE
8
Black
10
31.394
20
10.7573
11
31.394
21
10.3194
0
LINE
8
Black
10
31.394
20
10.3194
11
31.4387
21
10.3115
0
LINE
8
Black
10
31.4387
20
10.3115
11
31.6984
21
10.1616
0
LINE
8
Black
10
31.6984
20
10.1616
11
31.8912
21
9.9318
0
LINE
8
Black
10
31.8912
20
9.9318
11
31.9559
21
9.754
0
LINE
8
Black
10
31.9559
20
9.754
11
32.3969
21
9.754
0
LINE
8
Black
10
32.3969
20
9.754
11
32.4549
21
9.86523
0
LINE
8
Black
10
32.4549
20
9.86523
11
32.3139
21
10.2058
0
LINE
8
Black
10
32.3139
20
10.2058
11
31.9517
21
10.6025
0
LINE
8
Black
10
31.9517
20
10.6025
11
31.5019
21
10.8134
0
LINE
8
Black
10
31.5019
20
10.8134
11
31.394
21
10.7573
0
LINE
8
Black
10
27.6354
20
10.8716
11
27.4486
21
10.7943
0
LINE
8
Black
10
27.4486
20
10.7943
11
27.3057
21
10.6514
0
LINE
8
Black
10
27.3057
20
10.6514
11
27.2284
21
10.4646
0
LINE
8
Black
10
27.2284
20
10.4646
11
27.2284
21
10.4544
0
LINE
8
Black
10
27.2284
20
10.4544
11
27.7364
21
9.94644
0
LINE
8
Black
10
27.7364
20
9.94644
11
27.7364
21
10.3636
0
LINE
8
Black
10
27.7364
20
10.3636
11
28.346
21
10.3636
0
LINE
8
Black
10
28.346
20
10.3636
11
28.346
21
10.7872
0
LINE
8
Black
10
28.346
20
10.7872
11
28.2616
21
10.8716
0
LINE
8
Black
10
28.2616
20
10.8716
11
27.6354
21
10.8716
0
LINE
8
Black
10
40.0578
20
10.7093
11
39.77
21
10.6586
0
LINE
8
Black
10
39.77
20
10.6586
11
39.4822
21
10.7093
0
LINE
8
Black
10
39.4822
20
10.7093
11
39.3911
21
10.7619
0
LINE
8
Black
10
39.3911
20
10.7619
11
39.0585
21
10.4293
0
LINE
8
Black
10
39.0585
20
10.4293
11
39.0953
21
10.3126
0
LINE
8
Black
10
39.0953
20
10.3126
11
39.5636
21
10.143
0
LINE
8
Black
10
39.5636
20
10.143
11
40.1015
21
10.1675
0
LINE
8
Black
10
40.1015
20
10.1675
11
40.4437
21
10.3092
0
LINE
8
Black
10
40.4437
20
10.3092
11
40.4815
21
10.4293
0
LINE
8
Black
10
40.4815
20
10.4293
11
40.4815
21
10.4293
0
LINE
8
Black
10
40.4815
20
10.4293
11
40.1489
21
10.7619
0
LINE
8
Black
10
40.1489
20
10.7619
11
40.0578
21
10.7093
0
LINE
8
Black
10
36.4684
20
12.6419
11
36.0894
21
12.2636
0
LINE
8
Black
10
36.0894
20
12.2636
11
35.884
21
11.769
0
LINE
8
Black
10
35.884
20
11.769
11
35.8836
21
11.2334
0
LINE
8
Black
10
35.8836
20
11.2334
11
36.0881
21
10.7384
0
LINE
8
Black
10
36.0881
20
10.7384
11
36.4664
21
10.3594
0
LINE
8
Black
10
36.4664
20
10.3594
11
36.961
21
10.154
0
LINE
8
Black
10
36.961
20
10.154
11
37.4966
21
10.1536
0
LINE
8
Black
10
37.4966
20
10.1536
11
37.9916
21
10.3581
0
LINE
8
Black
10
37.9916
20
10.3581
11
38.3706
21
10.7364
0
LINE
8
Black
10
38.3706
20
10.7364
11
38.3832
21
10.7667
0
LINE
8
Black
10
38.3832
20
10.7667
11
38.3861
21
10.7714
0
LINE
8
Black
10
38.3861
20
10.7714
11
38.3878
21
10.7766
0
LINE
8
Black
10
38.3878
20
10.7766
11
38.3979
21
10.7898
0
LINE
8
Black
10
38.3979
20
10.7898
11
38.4069
21
10.8039
0
LINE
8
Black
10
38.4069
20
10.8039
11
38.4113
21
10.8072
0
LINE
8
Black
10
38.4113
20
10.8072
11
38.4146
21
10.8116
0
LINE
8
Black
10
38.4146
20
10.8116
11
38.4287
21
10.8206
0
LINE
8
Black
10
38.4287
20
10.8206
11
38.4419
21
10.8307
0
LINE
8
Black
10
38.4419
20
10.8307
11
38.4472
21
10.8324
0
LINE
8
Black
10
38.4472
20
10.8324
11
38.4518
21
10.8353
0
LINE
8
Black
10
38.4518
20
10.8353
11
38.4681
21
10.8389
0
LINE
8
Black
10
38.4681
20
10.8389
11
38.484
21
10.8439
0
LINE
8
Black
10
38.484
20
10.8439
11
38.4895
21
10.8437
0
LINE
8
Black
10
38.4895
20
10.8437
11
38.4949
21
10.8449
0
LINE
8
Black
10
38.4949
20
10.8449
11
38.5114
21
10.8427
0
LINE
8
Black
10
38.5114
20
10.8427
11
38.528
21
10.842
0
LINE
8
Black
10
38.528
20
10.842
11
38.5331
21
10.8398
0
LINE
8
Black
10
38.5331
20
10.8398
11
38.5386
21
10.8391
0
LINE
8
Black
10
38.5386
20
10.8391
11
38.6993
21
10.7885
0
LINE
8
Black
10
38.6993
20
10.7885
11
39.0277
21
11.1169
0
LINE
8
Black
10
39.0277
20
11.1169
11
38.9414
21
11.3539
0
LINE
8
Black
10
38.9414
20
11.3539
11
38.9414
21
11.6461
0
LINE
8
Black
10
38.9414
20
11.6461
11
39.0277
21
11.8831
0
LINE
8
Black
10
39.0277
20
11.8831
11
38.6993
21
12.2115
0
LINE
8
Black
10
38.6993
20
12.2115
11
38.539
21
12.161
0
LINE
8
Black
10
38.539
20
12.161
11
38.5334
21
12.1603
0
LINE
8
Black
10
38.5334
20
12.1603
11
38.5282
21
12.1581
0
LINE
8
Black
10
38.5282
20
12.1581
11
38.5117
21
12.1574
0
LINE
8
Black
10
38.5117
20
12.1574
11
38.4953
21
12.1553
0
LINE
8
Black
10
38.4953
20
12.1553
11
38.4898
21
12.1565
0
LINE
8
Black
10
38.4898
20
12.1565
11
38.4841
21
12.1562
0
LINE
8
Black
10
38.4841
20
12.1562
11
38.4684
21
12.1612
0
LINE
8
Black
10
38.4684
20
12.1612
11
38.4522
21
12.1648
0
LINE
8
Black
10
38.4522
20
12.1648
11
38.4475
21
12.1678
0
LINE
8
Black
10
38.4475
20
12.1678
11
38.4421
21
12.1695
0
LINE
8
Black
10
38.4421
20
12.1695
11
38.429
21
12.1796
0
LINE
8
Black
10
38.429
20
12.1796
11
38.415
21
12.1885
0
LINE
8
Black
10
38.415
20
12.1885
11
38.4116
21
12.193
0
LINE
8
Black
10
38.4116
20
12.193
11
38.4071
21
12.1964
0
LINE
8
Black
10
38.4071
20
12.1964
11
38.3982
21
12.2104
0
LINE
8
Black
10
38.3982
20
12.2104
11
38.3882
21
12.2235
0
LINE
8
Black
10
38.3882
20
12.2235
11
38.3865
21
12.2289
0
LINE
8
Black
10
38.3865
20
12.2289
11
38.3835
21
12.2336
0
LINE
8
Black
10
38.3835
20
12.2336
11
38.3719
21
12.2616
0
LINE
8
Black
10
38.3719
20
12.2616
11
37.9936
21
12.6406
0
LINE
8
Black
10
37.9936
20
12.6406
11
37.499
21
12.846
0
LINE
8
Black
10
37.499
20
12.846
11
36.9634
21
12.8464
0
LINE
8
Black
10
36.9634
20
12.8464
11
36.4684
21
12.6419
0
LINE
8
Black
10
47.4385
20
10.8325
11
47.0963
21
10.6908
0
LINE
8
Black
10
47.0963
20
10.6908
11
47.0585
21
10.5707
0
LINE
8
Black
10
47.0585
20
10.5707
11
47.3911
21
10.2381
0
LINE
8
Black
10
47.3911
20
10.2381
11
47.4822
21
10.2907
0
LINE
8
Black
10
47.4822
20
10.2907
11
47.77
21
10.3414
0
LINE
8
Black
10
47.77
20
10.3414
11
48.0578
21
10.2907
0
LINE
8
Black
10
48.0578
20
10.2907
11
48.1489
21
10.2381
0
LINE
8
Black
10
48.1489
20
10.2381
11
48.4815
21
10.5707
0
LINE
8
Black
10
48.4815
20
10.5707
11
48.4447
21
10.6874
0
LINE
8
Black
10
48.4447
20
10.6874
11
47.9764
21
10.857
0
LINE
8
Black
10
47.9764
20
10.857
11
47.4385
21
10.8325
0
LINE
8
Black
10
39.4385
20
12.8325
11
39.0963
21
12.6908
0
LINE
8
Black
10
39.0963
20
12.6908
11
39.0585
21
12.5707
0
LINE
8
Black
10
39.0585
20
12.5707
11
39.3911
21
12.2381
0
LINE
8
Black
10
39.3911
20
12.2381
11
39.4822
21
12.2907
0
LINE
8
Black
10
39.4822
20
12.2907
11
39.77
21
12.3414
0
LINE
8
Black
10
39.77
20
12.3414
11
40.0578
21
12.2907
0
LINE
8
Black
10
40.0578
20
12.2907
11
40.1489
21
12.2381
0
LINE
8
Black
10
40.1489
20
12.2381
11
40.4815
21
12.5707
0
LINE
8
Black
10
40.4815
20
12.5707
11
40.4447
21
12.6874
0
LINE
8
Black
10
40.4447
20
12.6874
11
39.9764
21
12.857
0
LINE
8
Black
10
39.9764
20
12.857
11
39.4385
21
12.8325
0
LINE
8
Black
10
24.7052
20
24.6014
11
24.4
21
24.5476
0
LINE
8
Black
10
24.4
20
24.5476
11
24.0948
21
24.6014
0
LINE
8
Black
10
24.0948
20
24.6014
11
23.9844
21
24.6652
0
LINE
8
Black
10
23.9844
20
24.6652
11
23.6527
21
24.3335
0
LINE
8
Black
10
23.6527
20
24.3335
11
23.6936
21
24.2107
0
LINE
8
Black
10
23.6936
20
24.2107
11
24.1818
21
24.0324
0
LINE
8
Black
10
24.1818
20
24.0324
11
24.7399
21
24.0562
0
LINE
8
Black
10
24.7399
20
24.0562
11
25.1054
21
24.2076
0
LINE
8
Black
10
25.1054
20
24.2076
11
25.1473
21
24.3335
0
LINE
8
Black
10
25.1473
20
24.3335
11
25.1473
21
24.3335
0
LINE
8
Black
10
25.1473
20
24.3335
11
24.8156
21
24.6652
0
LINE
8
Black
10
24.8156
20
24.6652
11
24.7052
21
24.6014
0
LINE
8
Black
10
25.3824
20
26.0632
11
25.3824
21
26.0632
0
LINE
8
Black
10
25.3824
20
26.0632
11
25.3824
21
26.0632
0
LINE
8
Black
10
25.3824
20
26.0632
11
25.1815
21
25.8623
0
LINE
8
Black
10
25.1815
20
25.8623
11
25.2788
21
25.595
0
LINE
8
Black
10
25.2788
20
25.595
11
25.2788
21
25.285
0
LINE
8
Black
10
25.2788
20
25.285
11
25.1815
21
25.0177
0
LINE
8
Black
10
25.1815
20
25.0177
11
25.5065
21
24.6927
0
LINE
8
Black
10
25.5065
20
24.6927
11
25.6293
21
24.7336
0
LINE
8
Black
10
25.6293
20
24.7336
11
25.8076
21
25.2218
0
LINE
8
Black
10
25.8076
20
25.2218
11
25.7838
21
25.7799
0
LINE
8
Black
10
25.7838
20
25.7799
11
25.6324
21
26.1454
0
LINE
8
Black
10
25.6324
20
26.1454
11
25.5065
21
26.1873
0
LINE
8
Black
10
25.5065
20
26.1873
11
25.3824
21
26.0632
0
LINE
8
Black
10
23.1707
20
26.1464
11
22.9924
21
25.6582
0
LINE
8
Black
10
22.9924
20
25.6582
11
22.9932
21
25.64
0
LINE
8
Black
10
22.9932
20
25.64
11
23.5376
21
25.64
0
LINE
8
Black
10
23.5376
20
25.64
11
23.6185
21
25.8623
0
LINE
8
Black
10
23.6185
20
25.8623
11
23.2935
21
26.1873
0
LINE
8
Black
10
23.2935
20
26.1873
11
23.1707
21
26.1464
0
LINE
8
Black
10
24.0601
20
26.8238
11
23.6946
21
26.6724
0
LINE
8
Black
10
23.6946
20
26.6724
11
23.6527
21
26.5465
0
LINE
8
Black
10
23.6527
20
26.5465
11
23.9844
21
26.2148
0
LINE
8
Black
10
23.9844
20
26.2148
11
24.0948
21
26.2786
0
LINE
8
Black
10
24.0948
20
26.2786
11
24.4
21
26.3324
0
LINE
8
Black
10
24.4
20
26.3324
11
24.7052
21
26.2786
0
LINE
8
Black
10
24.7052
20
26.2786
11
24.8156
21
26.2148
0
LINE
8
Black
10
24.8156
20
26.2148
11
25.1473
21
26.5465
0
LINE
8
Black
10
25.1473
20
26.5465
11
25.1064
21
26.6693
0
LINE
8
Black
10
25.1064
20
26.6693
11
24.6182
21
26.8476
0
LINE
8
Black
10
24.6182
20
26.8476
11
24.0601
21
26.8238
0
LINE
8
Black
10
27.2284
20
9.88876
11
27.2284
21
9.83836
0
LINE
8
Black
10
27.2284
20
9.83836
11
27.3128
21
9.754
0
LINE
8
Black
10
27.3128
20
9.754
11
27.3632
21
9.754
0
LINE
8
Black
10
27.3632
20
9.754
11
27.2284
21
9.88876
0
LINE
8
Black
10
40.9608
20
12.1737
11
40.8407
21
12.2115
0
LINE
8
Black
10
40.8407
20
12.2115
11
40.7156
21
12.0864
0
LINE
8
Black
10
40.7156
20
12.0864
11
40.7156
21
12.0864
0
LINE
8
Black
10
40.7156
20
12.0864
11
40.7156
21
12.0864
0
LINE
8
Black
10
40.7156
20
12.0864
11
40.5123
21
11.8831
0
LINE
8
Black
10
40.5123
20
11.8831
11
40.5986
21
11.6461
0
LINE
8
Black
10
40.5986
20
11.6461
11
40.5986
21
11.3539
0
LINE
8
Black
10
40.5986
20
11.3539
11
40.5123
21
11.1169
0
LINE
8
Black
10
40.5123
20
11.1169
11
40.8407
21
10.7885
0
LINE
8
Black
10
40.8407
20
10.7885
11
40.9574
21
10.8253
0
LINE
8
Black
10
40.9574
20
10.8253
11
41.127
21
11.2936
0
LINE
8
Black
10
41.127
20
11.2936
11
41.1025
21
11.8316
0
LINE
8
Black
10
41.1025
20
11.8316
11
40.9608
21
12.1737
0
LINE
8
Black
10
23.0103
20
25.24
11
23.0162
21
25.1001
0
LINE
8
Black
10
23.0162
20
25.1001
11
23.1676
21
24.7346
0
LINE
8
Black
10
23.1676
20
24.7346
11
23.2935
21
24.6927
0
LINE
8
Black
10
23.2935
20
24.6927
11
23.6185
21
25.0177
0
LINE
8
Black
10
23.6185
20
25.0177
11
23.5376
21
25.24
0
LINE
8
Black
10
23.5376
20
25.24
11
23.0103
21
25.24
0
CIRCLE
8
Black
10
1.2
20
27.3
40
0.508
0
CIRCLE
8
Black
10
1.2
20
25
40
0.508
0
CIRCLE
8
Black
10
1.2
20
22.7
40
0.508
0
CIRCLE
8
Black
10
1.2
20
20.4
40
0.508
0
CIRCLE
8
Black
10
1.2
20
18.1
40
0.508
0
CIRCLE
8
Black
10
1.2
20
15.8
40
0.508
0
CIRCLE
8
Black
10
24.4
20
20.36
40
0.508
0
CIRCLE
8
Black
10
24.4
20
25.44
40
0.508
0
CIRCLE
8
Black
10
18.53
20
5.5
40
0.4064
0
CIRCLE
8
Black
10
21.07
20
5.5
40
0.4064
0
CIRCLE
8
Black
10
39.23
20
3.5
40
0.4064
0
CIRCLE
8
Black
10
41.77
20
3.5
40
0.4064
0
CIRCLE
8
Black
10
37.23
20
11.5
40
0.4064
0
CIRCLE
8
Black
10
39.77
20
11.5
40
0.4064
0
CIRCLE
8
Black
10
45.23
20
9.5
40
0.4064
0
CIRCLE
8
Black
10
47.77
20
9.5
40
0.4064
0
CIRCLE
8
Black
10
45
20
20
40
0.508
0
CIRCLE
8
Black
10
47.54
20
20
40
0.508
0
CIRCLE
8
Black
10
50.08
20
20
40
0.508
0
CIRCLE
8
Black
10
28.6
20
9.5
40
0.508
0
CIRCLE
8
Black
10
31.14
20
9.5
40
0.508
0
CIRCLE
8
Black
10
28.6
20
6.96
40
0.508
0
CIRCLE
8
Black
10
31.14
20
6.96
40
0.508
0
CIRCLE
8
Black
10
28.6
20
4.42
40
0.508
0
CIRCLE
8
Black
10
31.14
20
4.42
40
0.508
0
CIRCLE
8
Black
10
0.9
20
11.4
40
0.2
0
CIRCLE
8
Black
10
22.1
20
10.2
40
0.2
0
CIRCLE
8
Black
10
2.6
20
12.4
40
0.2
0
CIRCLE
8
Black
10
11.8
20
2
40
0.2
0
CIRCLE
8
Black
10
17.2
20
23.4
40
0.2
0
CIRCLE
8
Black
10
2.3
20
10.3
40
0.2
0
CIRCLE
8
Black
10
20.7
20
12.6
40
0.2
0
CIRCLE
8
Black
10
20.7
20
10.4
40
0.2
0
CIRCLE
8
Black
10
21.7
20
7.4
40
0.2
0
CIRCLE
8
Black
10
8.5
20
2.5
40
0.2
0
CIRCLE
8
Black
10
34
20
1.9
40
0.2
0
CIRCLE
8
Black
10
9.8
20
1.3
40
0.2
0
CIRCLE
8
Black
10
23.7
20
0.7
40
0.2
0
CIRCLE
8
Black
10
22
20
1.3
40
0.2
  0
ENDSEC
  0
EOF
